<svg width="263" height="224" viewBox="0 0 263 224" fill="none" xmlns="http://www.w3.org/2000/svg">
<path d="M41.1953 156.316C40.2108 156.254 39.6057 155.567 39.6673 154.767C39.7185 153.978 40.4056 153.372 41.2055 153.424C42.0875 153.485 42.6925 154.172 42.6412 154.962C42.5797 155.731 41.9439 156.316 41.1953 156.316ZM46.4869 156.305C45.7382 156.305 45.1024 155.721 45.0512 154.962C44.9999 154.172 45.5947 153.475 46.3946 153.424C47.2867 153.362 47.9636 153.967 48.0251 154.757C48.0764 155.547 47.4816 156.234 46.6817 156.295C46.5586 156.305 46.5176 156.305 46.4869 156.305ZM51.84 155.618C51.1734 155.618 50.5683 155.147 50.435 154.47C50.271 153.69 50.7734 152.932 51.5528 152.767C52.3937 152.583 53.1629 153.065 53.3372 153.844C53.5115 154.624 53.0296 155.393 52.2502 155.567C52.0348 155.618 51.9323 155.618 51.84 155.618ZM35.8627 155.516C34.6731 155.28 34.1911 154.501 34.3654 153.721C34.55 152.942 35.3191 152.47 36.0985 152.644C36.9805 152.87 37.4522 153.649 37.2573 154.418C37.0933 155.085 36.5087 155.516 35.8627 155.516ZM30.8069 153.66C30.5813 153.66 30.3455 153.608 30.1301 153.496C29.3405 153.075 29.0738 152.203 29.4533 151.506C29.8225 150.809 30.6941 150.532 31.4017 150.911C32.1914 151.332 32.458 152.203 32.0786 152.901C31.8324 153.383 31.3299 153.66 30.8069 153.66ZM26.4998 150.46C26.1204 150.46 25.741 150.316 25.4641 150.019C24.8385 149.363 24.8693 148.45 25.4436 147.907C26.0179 147.363 26.9305 147.384 27.4843 147.968C28.0894 148.604 28.0791 149.517 27.5048 150.06C27.2279 150.327 26.869 150.46 26.4998 150.46ZM23.4951 146.02C22.9516 146.02 22.4286 145.702 22.1825 145.179C21.8133 144.379 22.1312 143.528 22.8491 143.189C23.5669 142.851 24.4283 143.169 24.7667 143.887C25.1359 144.707 24.818 145.558 24.1002 145.886C23.9053 145.979 23.7002 146.02 23.4951 146.02ZM21.9569 140.882C21.2595 140.882 20.6545 140.379 20.5314 139.672C20.3776 138.821 20.9006 138.072 21.6902 137.928C22.4799 137.785 23.2182 138.308 23.3618 139.098C23.5054 140 22.9721 140.738 22.1927 140.861C22.1107 140.872 22.0389 140.882 21.9569 140.882ZM21.3108 135.518C20.6135 135.518 19.9982 135.006 19.8854 134.288C19.7623 133.385 20.3161 132.668 21.1057 132.555C21.8953 132.452 22.6234 132.996 22.726 133.796C22.8491 134.657 22.3055 135.385 21.5262 135.508C21.4544 135.519 21.3826 135.518 21.3108 135.518ZM20.3878 130.206C19.7213 130.206 19.1162 129.735 18.9829 129.058C18.8086 128.166 19.3213 127.407 20.111 127.263C20.8903 127.12 21.6492 127.632 21.7928 128.412C21.9671 129.263 21.4646 130.022 20.6852 130.186C20.5827 130.196 20.4801 130.206 20.3878 130.206ZM19.2393 124.925C18.583 124.925 17.9882 124.474 17.8344 123.807C17.6395 122.925 18.1317 122.156 18.9111 121.982C19.6905 121.808 20.4596 122.3 20.6237 123.079C20.8186 123.93 20.3366 124.699 19.5674 124.884C19.4649 124.915 19.3521 124.925 19.2393 124.925ZM169.844 120.351C168.973 120.31 168.357 119.623 168.409 118.834C168.46 117.941 169.116 117.326 169.926 117.377C170.716 117.418 171.331 118.095 171.29 118.895C171.239 119.757 170.603 120.351 169.844 120.351ZM17.9779 119.675C17.3319 119.675 16.7371 119.234 16.5832 118.577C16.3679 117.716 16.8396 116.936 17.6087 116.742C18.3779 116.547 19.1675 117.018 19.3521 117.788C19.5675 118.659 19.0957 119.439 18.3163 119.623C18.2035 119.664 18.0907 119.675 17.9779 119.675ZM170.132 114.947C169.26 114.906 168.645 114.229 168.696 113.429C168.747 112.537 169.414 111.922 170.214 111.973C171.003 112.014 171.618 112.691 171.577 113.491C171.526 114.352 170.89 114.947 170.132 114.947ZM16.6345 114.444C15.9987 114.444 15.4142 114.014 15.2398 113.368C15.0142 112.506 15.4757 111.717 16.2448 111.512C17.014 111.306 17.8036 111.768 17.9984 112.547C18.224 113.398 17.7626 114.188 16.9934 114.393C16.8806 114.434 16.7576 114.444 16.6345 114.444ZM170.419 109.553C169.547 109.512 168.932 108.835 168.983 108.035C169.034 107.143 169.711 106.528 170.501 106.579C171.29 106.62 171.906 107.297 171.865 108.097C171.813 108.958 171.178 109.553 170.419 109.553ZM15.2501 109.225C14.6143 109.225 14.0297 108.794 13.8554 108.148C13.6298 107.307 14.081 106.507 14.8399 106.302C15.609 106.087 16.3987 106.548 16.614 107.307C16.8499 108.179 16.3884 108.968 15.6193 109.173C15.4962 109.214 15.3731 109.225 15.2501 109.225ZM170.696 104.159C169.824 104.118 169.209 103.441 169.26 102.641C169.311 101.749 169.978 101.133 170.778 101.185C171.567 101.226 172.183 101.903 172.142 102.702C172.1 103.564 171.465 104.159 170.696 104.159ZM13.8349 104.015C13.1991 104.015 12.6248 103.595 12.4505 102.959C12.2146 102.077 12.6761 101.287 13.4555 101.092C14.2246 100.887 15.0142 101.349 15.2091 102.128C15.4449 102.959 14.9937 103.759 14.2246 103.974C14.0913 104.005 13.9682 104.015 13.8349 104.015ZM12.4197 98.8056C11.7839 98.8056 11.2096 98.3851 11.0353 97.7493C10.7994 96.8674 11.2609 96.088 12.03 95.8829C12.7991 95.6778 13.5888 96.1393 13.7939 96.9084C14.0297 97.7493 13.5785 98.5389 12.8094 98.7543C12.6761 98.7953 12.5428 98.8056 12.4197 98.8056ZM170.972 98.7543C170.121 98.7235 169.496 98.0467 169.526 97.2571C169.578 96.3546 170.244 95.7291 171.044 95.7803C171.834 95.8214 172.449 96.4982 172.408 97.2981C172.377 98.1492 171.742 98.7543 170.972 98.7543ZM11.0148 93.596C10.379 93.596 9.79442 93.1653 9.62009 92.5192C9.38422 91.6783 9.83544 90.8784 10.6046 90.6733C11.3737 90.458 12.1633 90.9195 12.3787 91.6783C12.6146 92.55 12.1531 93.3396 11.384 93.5447C11.2609 93.5858 11.1378 93.596 11.0148 93.596ZM171.239 93.3601C170.388 93.3294 169.762 92.6526 169.793 91.8629C169.844 90.9605 170.511 90.3349 171.311 90.3862C172.111 90.4272 172.716 91.104 172.675 91.9039C172.644 92.7551 172.008 93.3601 171.239 93.3601ZM9.63034 88.3762C8.99453 88.3762 8.41 87.9455 8.23566 87.2994C8.01005 86.438 8.47153 85.6484 9.24065 85.4433C10.0098 85.2484 10.7994 85.6997 10.9943 86.479C11.2199 87.3302 10.7584 88.1198 9.98927 88.3249C9.86621 88.366 9.74315 88.3762 9.63034 88.3762ZM171.495 87.9558C170.624 87.9147 170.008 87.2277 170.049 86.438C170.08 85.5663 170.757 84.951 171.547 84.9818C172.336 85.0126 172.962 85.6894 172.931 86.479C172.89 87.361 172.254 87.9558 171.495 87.9558ZM8.27668 83.1564C7.63062 83.1564 7.04608 82.7155 6.882 82.0591C6.66665 81.2182 7.11787 80.4286 7.88699 80.2337C8.65612 80.0286 9.44575 80.4901 9.65085 81.2592C9.86621 82.1412 9.39448 82.9308 8.62535 83.1154C8.50229 83.1359 8.38949 83.1564 8.27668 83.1564ZM171.721 82.5616C170.87 82.5309 170.244 81.854 170.275 81.0644C170.306 80.1722 170.993 79.5569 171.772 79.5877C172.572 79.6184 173.188 80.285 173.157 81.0849C173.136 81.9566 172.49 82.5616 171.721 82.5616ZM6.9743 77.8956C6.32823 77.8956 5.75395 77.4751 5.58987 76.8188C5.38477 75.9882 5.8565 75.1883 6.62563 75.0037C7.39475 74.8088 8.17413 75.2703 8.36898 76.0394C8.57408 76.8701 8.10235 77.67 7.33322 77.8546C7.21016 77.8853 7.0871 77.8956 6.9743 77.8956ZM171.916 77.1572C171.085 77.1367 170.449 76.4701 170.47 75.6805C170.49 74.7883 171.157 74.1525 171.957 74.1833C172.757 74.2038 173.382 74.8704 173.362 75.66C173.341 76.5317 172.695 77.1572 171.916 77.1572ZM5.7642 72.6553C5.09763 72.6553 4.50284 72.1938 4.35927 71.5272C4.16442 70.6761 4.64641 69.9069 5.41553 69.7224C6.19492 69.5378 6.96404 70.0197 7.14863 70.7991C7.34348 71.6811 6.85124 72.4502 6.07185 72.6245C5.9693 72.645 5.86675 72.6553 5.7642 72.6553ZM172.131 71.7528C171.219 71.6811 170.634 70.9837 170.696 70.1941C170.778 69.2916 171.475 68.7071 172.275 68.7789C173.064 68.8507 173.649 69.5583 173.577 70.3479C173.505 71.1786 172.88 71.7528 172.131 71.7528ZM4.63615 67.374C3.96958 67.374 3.36453 66.9022 3.22096 66.2254C3.04663 65.3332 3.56963 64.5743 4.34901 64.4308C5.12839 64.2872 5.88726 64.7999 6.03083 65.5793C6.20517 66.4305 5.70267 67.1894 4.92329 67.3535C4.831 67.3637 4.7387 67.374 4.63615 67.374ZM172.665 66.3895C171.721 66.2972 171.147 65.5793 171.229 64.7897C171.311 63.9283 172.008 63.3437 172.808 63.4155C173.598 63.4873 174.182 64.1949 174.11 64.9845C174.018 65.8357 173.393 66.3895 172.665 66.3895ZM3.65167 62.0619C2.96459 62.0619 2.35954 61.5696 2.23648 60.8723C2.09291 59.9801 2.62617 59.2315 3.40555 59.1084C4.19519 58.9751 4.93355 59.5186 5.05661 60.298C5.21043 61.1594 4.67717 61.8978 3.89779 62.0414C3.81575 62.0516 3.73371 62.0619 3.65167 62.0619ZM173.116 61.0056C172.224 60.9441 171.619 60.257 171.68 59.4673C171.742 58.5854 172.418 57.9804 173.218 58.0316C174.008 58.0829 174.613 58.77 174.562 59.5699C174.5 60.4211 173.864 61.0056 173.116 61.0056ZM2.85178 56.7293C2.13393 56.7293 1.50837 56.196 1.42633 55.4576C1.31353 54.5962 1.8673 53.8681 2.65694 53.7656C3.44657 53.663 4.17468 54.2168 4.27723 55.0064C4.39003 55.9089 3.82601 56.6267 3.03637 56.719C2.97484 56.719 2.91331 56.7293 2.85178 56.7293ZM173.341 55.6217C172.531 55.6115 171.885 54.9551 171.895 54.1655C171.906 53.2836 172.552 52.6478 173.341 52.6478C174.162 52.658 174.798 53.3143 174.787 54.104C174.777 54.9859 174.131 55.6217 173.341 55.6217ZM2.32878 51.3556C1.58016 51.3556 0.944349 50.7711 0.893074 50.0122C0.831544 49.1303 1.43659 48.4432 2.22623 48.3817C3.02612 48.3201 3.70295 48.9252 3.76448 49.7251C3.82601 50.6173 3.22096 51.3044 2.43133 51.3556C2.39031 51.3556 2.35954 51.3556 2.32878 51.3556ZM173.229 50.2276C172.47 50.2276 171.834 49.6328 171.793 48.8637C171.731 47.992 172.336 47.3049 173.126 47.2536C173.916 47.2024 174.603 47.7971 174.664 48.597C174.716 49.4995 174.1 50.1763 173.311 50.2276C173.28 50.2276 173.249 50.2276 173.229 50.2276ZM2.21597 45.941C1.38531 45.9205 0.749504 45.2744 0.770014 44.4745C0.790524 43.6234 1.47761 42.9773 2.24674 42.9978C3.04663 43.0183 3.67218 43.6644 3.65167 44.454C3.63116 45.3052 2.99535 45.941 2.21597 45.941ZM172.613 44.8642C171.926 44.8642 171.321 44.372 171.198 43.6746C171.044 42.7927 171.567 42.0441 172.347 41.9108C173.126 41.7775 173.875 42.3005 174.018 43.0798C174.172 43.9515 173.649 44.7001 172.87 44.8437C172.777 44.8642 172.695 44.8642 172.613 44.8642ZM2.83127 40.6084C1.74424 40.4033 1.252 39.6342 1.42633 38.8548C1.63143 37.9728 2.41082 37.4909 3.17994 37.6652C3.95932 37.8498 4.44131 38.6189 4.25672 39.3983C4.08238 40.1572 3.48759 40.6084 2.83127 40.6084ZM171.249 39.6547C170.665 39.6547 170.111 39.2957 169.896 38.7112C169.588 37.8805 169.967 37.0499 170.716 36.773C171.465 36.4961 172.295 36.8756 172.572 37.6242C172.88 38.4651 172.5 39.2957 171.752 39.5624C171.588 39.6239 171.413 39.6547 171.249 39.6547ZM5.17967 35.8706C4.82074 35.8706 4.46182 35.7373 4.18493 35.4706C3.61065 34.9169 3.59014 34.0042 4.14391 33.4299C4.75921 32.7838 5.67191 32.7736 6.24619 33.3273C6.82047 33.8811 6.84098 34.7938 6.28721 35.3681C5.92828 35.727 5.5591 35.8706 5.17967 35.8706ZM168.747 34.8861C168.316 34.8861 167.896 34.6912 167.619 34.3221C167.106 33.6452 167.229 32.7223 167.865 32.2505C168.501 31.7686 169.393 31.8814 169.875 32.5274C170.388 33.2043 170.265 34.1272 169.629 34.5989C169.352 34.7835 169.055 34.8861 168.747 34.8861ZM9.55856 32.7736C9.03555 32.7736 8.5228 32.4864 8.27668 31.9839C7.91776 31.2763 8.19464 30.4046 8.91249 30.0457C9.70213 29.6458 10.5738 29.9329 10.9327 30.6405C11.2917 31.3481 11.0148 32.2198 10.2969 32.5787C9.99952 32.7223 9.77391 32.7736 9.55856 32.7736ZM164.83 31.2661C164.573 31.2661 164.317 31.1943 164.091 31.061C163.343 30.62 163.107 29.7381 163.507 29.051C163.907 28.3639 164.789 28.128 165.476 28.5382C166.255 28.9997 166.47 29.8919 166.06 30.5687C165.804 31.0199 165.322 31.2661 164.83 31.2661ZM14.5425 30.7533C13.9374 30.7533 13.3734 30.3636 13.1683 29.7586C12.9222 28.9997 13.3324 28.1896 14.0913 27.9434C14.9322 27.6666 15.7423 28.0768 15.9885 28.8356C16.2346 29.5945 15.8244 30.4046 15.0758 30.661C14.8399 30.7328 14.6963 30.7533 14.5425 30.7533ZM159.794 29.4714C158.697 29.3176 158.154 28.5793 158.277 27.7896C158.4 27 159.138 26.4667 159.918 26.5898C160.81 26.7334 161.343 27.4717 161.21 28.2613C161.107 28.9689 160.492 29.4714 159.794 29.4714ZM19.7418 29.3176C19.0855 29.3176 18.4907 28.8664 18.3368 28.1998C18.1523 27.4204 18.6342 26.6513 19.4136 26.4667C20.2956 26.2719 21.0647 26.7539 21.239 27.5332C21.4134 28.3126 20.9314 29.0817 20.152 29.2561C19.9674 29.3074 19.8546 29.3176 19.7418 29.3176ZM154.421 29.2253C153.498 29.2048 152.862 28.5382 152.883 27.7383C152.903 26.9385 153.559 26.3026 154.359 26.3334C155.252 26.3539 155.877 27.0205 155.857 27.8204C155.836 28.5998 155.2 29.2253 154.421 29.2253ZM149.027 28.9792C148.063 28.9279 147.447 28.2511 147.499 27.4512C147.54 26.6513 148.217 26.0463 149.016 26.0873C149.919 26.1386 150.514 26.8256 150.473 27.6153C150.411 28.3947 149.775 28.9792 149.027 28.9792ZM143.633 28.6613C142.658 28.61 142.053 27.9229 142.105 27.1333C142.156 26.3437 142.843 25.7284 143.633 25.7796C144.525 25.8412 145.13 26.5283 145.079 27.3179C145.017 28.0768 144.391 28.6613 143.633 28.6613ZM138.249 28.3229C137.274 28.2613 136.669 27.5845 136.721 26.7846C136.772 25.995 137.459 25.3899 138.249 25.431C139.151 25.4925 139.746 26.1796 139.695 26.9692C139.633 27.7383 138.997 28.3229 138.249 28.3229ZM25.0334 28.2613C24.3463 28.2613 23.731 27.7589 23.6182 27.0615C23.4849 26.2719 24.0181 25.5335 24.7975 25.4002C25.6589 25.2464 26.4075 25.7694 26.5511 26.5488C26.6947 27.3281 26.1717 28.0768 25.382 28.2203C25.1975 28.2613 25.1154 28.2613 25.0334 28.2613ZM132.865 27.9845C131.891 27.9332 131.286 27.2461 131.337 26.4565C131.388 25.6566 132.075 25.0515 132.865 25.1028C133.757 25.1643 134.362 25.8514 134.311 26.6411C134.249 27.3999 133.613 27.9845 132.865 27.9845ZM127.471 27.6563C126.496 27.605 125.891 26.9179 125.943 26.1283C125.994 25.3387 126.671 24.7234 127.471 24.7746C128.363 24.8259 128.968 25.513 128.917 26.3026C128.865 27.0615 128.23 27.6563 127.471 27.6563ZM30.366 27.4615C29.6481 27.4615 29.0328 26.9282 28.9405 26.2001C28.838 25.4105 29.3918 24.6926 30.1814 24.5901C31.0633 24.4773 31.7812 25.031 31.8837 25.8207C31.9863 26.6103 31.4325 27.3384 30.6429 27.4409C30.489 27.4615 30.4275 27.4615 30.366 27.4615ZM122.087 27.3384C121.113 27.2871 120.508 26.6 120.559 25.8104C120.61 25.0208 121.287 24.4055 122.087 24.4567C122.969 24.508 123.574 25.1848 123.533 25.9745C123.481 26.7436 122.846 27.3384 122.087 27.3384ZM116.693 27.0307C115.729 26.9795 115.113 26.3026 115.165 25.513C115.206 24.7131 115.872 24.1081 116.682 24.1491C117.585 24.2004 118.19 24.8875 118.139 25.6771C118.087 26.4462 117.452 27.0307 116.693 27.0307ZM35.7293 26.8564C35.0012 26.8564 34.3757 26.3026 34.2936 25.554C34.2116 24.7644 34.7961 24.0568 35.5858 23.9748C36.478 23.8927 37.1856 24.467 37.2573 25.2669C37.3291 26.0565 36.7548 26.7641 35.955 26.8359C35.8216 26.8564 35.7806 26.8564 35.7293 26.8564ZM111.309 26.7436C110.345 26.6923 109.73 26.0155 109.781 25.2259C109.822 24.426 110.499 23.8209 111.299 23.8619C112.18 23.903 112.796 24.5798 112.755 25.3694C112.703 26.1488 112.068 26.7436 111.309 26.7436ZM105.915 26.4872C104.961 26.4462 104.346 25.7694 104.376 24.9695C104.417 24.1799 105.094 23.5646 105.884 23.5953C106.776 23.6363 107.391 24.3132 107.35 25.1028C107.32 25.8822 106.684 26.4872 105.915 26.4872ZM41.103 26.3949C40.3544 26.3949 39.7185 25.8207 39.6673 25.0618C39.6057 24.2721 40.2005 23.5748 41.0004 23.5235C41.8824 23.462 42.5797 24.0568 42.6412 24.8464C42.7028 25.6361 42.108 26.3334 41.3081 26.3949C41.1748 26.3949 41.144 26.3949 41.103 26.3949ZM100.521 26.2411C99.577 26.2001 98.9515 25.5335 98.9823 24.7336C99.013 23.9337 99.7001 23.3184 100.479 23.3492C101.382 23.3902 101.997 24.0671 101.956 24.8567C101.925 25.6463 101.29 26.2411 100.521 26.2411ZM46.4869 26.0463C45.728 26.0463 45.0922 25.4515 45.0512 24.6824C45.0101 23.8927 45.6152 23.2056 46.4151 23.1646C47.3073 23.1236 47.9841 23.7286 48.0251 24.5183C48.0661 25.3182 47.4611 25.995 46.6612 26.036C46.5381 26.0463 46.5176 26.0463 46.4869 26.0463ZM95.1366 26.036C94.2034 26.0052 93.5779 25.3387 93.5984 24.549C93.6291 23.7491 94.306 23.1338 95.0854 23.1544C95.9878 23.1954 96.6031 23.8619 96.5723 24.6516C96.5416 25.4207 95.9058 26.036 95.1366 26.036ZM89.7425 25.8514C88.8093 25.8207 88.1837 25.1541 88.2042 24.3644C88.235 23.5646 88.8913 22.9595 89.6912 22.9698C90.5732 22.9903 91.1987 23.6568 91.1782 24.4567C91.1577 25.2259 90.5116 25.8514 89.7425 25.8514ZM51.881 25.8001C51.1119 25.8001 50.4761 25.1951 50.4453 24.4157C50.4145 23.6158 51.0298 22.9493 51.8297 22.9185C52.7322 22.898 53.3987 23.5133 53.4192 24.3029C53.45 25.1028 52.8244 25.7694 52.0246 25.7899C51.922 25.8001 51.9015 25.8001 51.881 25.8001ZM84.3381 25.7079C83.4049 25.6873 82.7793 25.0208 82.7999 24.2209C82.8204 23.421 83.4972 22.7954 84.2766 22.8159C85.1585 22.8364 85.7841 23.4928 85.7738 24.2927C85.7635 25.0823 85.1175 25.7079 84.3381 25.7079ZM57.2751 25.6361C56.4957 25.6361 55.8599 25.0105 55.8394 24.2311C55.8189 23.4312 56.4445 22.7749 57.2444 22.7544C58.1571 22.7544 58.8031 23.38 58.8134 24.1593C58.8339 24.9592 58.1981 25.6156 57.3982 25.6258C57.2956 25.6361 57.2854 25.6361 57.2751 25.6361ZM78.944 25.595C78.0313 25.5848 77.3955 24.9285 77.4057 24.1286C77.416 23.3389 78.062 22.7031 78.8517 22.7031C79.7746 22.7236 80.4002 23.38 80.3899 24.1696C80.3694 24.9695 79.7234 25.595 78.944 25.595ZM62.6693 25.5438C61.8796 25.5438 61.2336 24.908 61.2233 24.1183C61.2131 23.3184 61.8489 22.6724 62.6488 22.6621C63.5512 22.6621 64.1973 23.2979 64.1973 24.0876C64.2075 24.8875 63.5614 25.5335 62.7616 25.5438C62.6795 25.5438 62.6795 25.5438 62.6693 25.5438ZM73.5498 25.5233C72.6474 25.513 72.0116 24.8669 72.0116 24.067C72.0218 23.2672 72.6474 22.6313 73.4575 22.6313C74.36 22.6416 74.9958 23.2979 74.9855 24.0876C74.9753 24.8977 74.3292 25.5233 73.5498 25.5233ZM68.0634 25.513C67.2635 25.513 66.6174 24.8669 66.6174 24.067C66.6174 23.2672 67.2635 22.6211 68.0634 22.6211C68.9453 22.6211 69.5914 23.2569 69.6017 24.0568C69.6119 24.8567 68.9658 25.5028 68.166 25.5028L68.0634 25.513Z" fill="#223549"/>
<path fill-rule="evenodd" clip-rule="evenodd" d="M124.299 49.3773V0.471193L75.6188 0.460938V14.377C69.7735 14.377 65.0664 19.084 65.0664 24.8986C65.0664 30.8158 69.7735 35.5228 75.588 35.5228C75.6291 35.5228 75.6291 49.3671 75.6291 49.3671L124.299 49.3773Z" fill="#EC663D"/>
<path fill-rule="evenodd" clip-rule="evenodd" d="M27.5756 51.2558C27.5756 45.4412 32.2826 40.7341 38.087 40.7341C43.9015 40.7341 48.6086 45.4412 48.6086 51.2558C48.6086 51.266 63.6732 51.266 63.6732 51.266V37.432C57.8791 37.4115 53.1926 32.7044 53.1926 26.9104C53.1926 21.0137 57.8791 16.3169 63.6732 16.2964V2.39062H15.0234V51.266H27.5653V51.2558H27.5756Z" fill="#EC663D"/>
<path fill-rule="evenodd" clip-rule="evenodd" d="M47.0295 60.9648L32.4674 64.8822C30.9496 59.201 25.1761 55.8578 19.5666 57.3653C13.9468 58.8728 10.6242 64.6772 12.1214 70.3174C12.1317 70.3482 0 73.6093 0 73.6093L12.6034 120.854L59.6329 108.199L47.0295 60.9648Z" fill="#EC663D"/>
<path fill-rule="evenodd" clip-rule="evenodd" d="M43.2253 56.0625H179.012C185.144 56.0625 190.118 61.0362 190.118 67.1687V191.593C190.118 197.725 185.144 202.699 179.012 202.699H43.2253C37.0928 202.699 32.1191 197.725 32.1191 191.593V67.1789C32.1191 61.0362 37.0928 56.0625 43.2253 56.0625Z" fill="white"/>
<path fill-rule="evenodd" clip-rule="evenodd" d="M47.0281 53.457H182.845C188.978 53.457 193.952 58.4307 193.952 64.5632V188.998C193.952 195.13 188.978 200.104 182.845 200.104H47.0281C40.8956 200.104 35.9219 195.13 35.9219 188.998V64.5735C35.9219 58.4307 40.8956 53.457 47.0281 53.457Z" fill="white"/>
<path fill-rule="evenodd" clip-rule="evenodd" d="M45.039 59.1914C45.039 59.1914 54.0839 59.1914 67.559 59.1914C107.092 59.1914 184.794 59.1914 184.794 59.1914C189.819 59.1914 193.901 63.2729 193.901 68.2979C193.901 73.3228 195.029 75.825 192.075 75.9276L39.5731 75.4866C34.5481 75.4866 35.9325 73.3228 35.9325 68.2876C35.9325 63.2626 40.0038 59.1914 45.039 59.1914Z" fill="#EC663D"/>
<path d="M179.187 82.5432H177.279C176.695 82.5432 176.213 82.0715 176.213 81.4767C176.213 80.8819 176.685 80.4102 177.279 80.4102H179.187C179.771 80.4102 180.253 80.8819 180.253 81.4767C180.253 82.0715 179.782 82.5432 179.187 82.5432Z" fill="#EC663D"/>
<path d="M182.22 90.6955H167.043C166.459 90.6955 165.977 90.2238 165.977 89.629C165.977 89.0342 166.448 88.5625 167.043 88.5625H182.22C182.805 88.5625 183.287 89.0342 183.287 89.629C183.287 90.2238 182.815 90.6955 182.22 90.6955Z" fill="#EC663D"/>
<path d="M183.749 99.7112H158.594C158.009 99.7112 157.527 99.2292 157.527 98.6446C157.527 98.0601 157.999 97.5781 158.594 97.5781H183.749C184.334 97.5781 184.816 98.0499 184.816 98.6446C184.816 99.2292 184.334 99.7112 183.749 99.7112Z" fill="#EC663D"/>
<path d="M175.463 107.864H158.553C157.968 107.864 157.486 107.392 157.486 106.797C157.486 106.212 157.958 105.73 158.553 105.73H175.463C176.048 105.73 176.53 106.202 176.53 106.797C176.53 107.392 176.048 107.864 175.463 107.864Z" fill="#EC663D"/>
<path d="M183.749 115.84H158.594C158.009 115.84 157.527 115.368 157.527 114.774C157.527 114.179 157.999 113.707 158.594 113.707H183.749C184.334 113.707 184.816 114.179 184.816 114.774C184.816 115.368 184.334 115.84 183.749 115.84Z" fill="#EC663D"/>
<path d="M183.873 123.992H167.742C167.158 123.992 166.676 123.521 166.676 122.926C166.676 122.341 167.148 121.859 167.742 121.859H183.873C184.458 121.859 184.94 122.331 184.94 122.926C184.94 123.51 184.468 123.992 183.873 123.992Z" fill="#EC663D"/>
<path d="M183.749 133.008H158.594C158.009 133.008 157.527 132.536 157.527 131.942C157.527 131.347 157.999 130.875 158.594 130.875H183.749C184.334 130.875 184.816 131.347 184.816 131.942C184.816 132.536 184.334 133.008 183.749 133.008Z" fill="#EC663D"/>
<path d="M175.463 141.16H158.553C157.968 141.16 157.486 140.689 157.486 140.094C157.486 139.509 157.958 139.027 158.553 139.027H175.463C176.048 139.027 176.53 139.499 176.53 140.094C176.53 140.689 176.048 141.16 175.463 141.16Z" fill="#EC663D"/>
<path d="M173.812 82.5432H158.553C157.968 82.5432 157.486 82.0715 157.486 81.4767C157.486 80.8819 157.958 80.4102 158.553 80.4102H173.812C174.397 80.4102 174.879 80.8819 174.879 81.4767C174.879 82.0715 174.407 82.5432 173.812 82.5432Z" fill="#EC663D"/>
<path d="M161.414 90.6955H158.553C157.968 90.6955 157.486 90.2238 157.486 89.629C157.486 89.0342 157.958 88.5625 158.553 88.5625H161.414C161.999 88.5625 162.481 89.0342 162.481 89.629C162.481 90.2238 161.999 90.6955 161.414 90.6955Z" fill="#EC663D"/>
<path d="M183.749 99.7112H158.594C158.009 99.7112 157.527 99.2292 157.527 98.6446C157.527 98.0601 157.999 97.5781 158.594 97.5781H183.749C184.334 97.5781 184.816 98.0499 184.816 98.6446C184.816 99.2292 184.334 99.7112 183.749 99.7112Z" fill="#EC663D"/>
<path d="M183.749 115.84H158.594C158.009 115.84 157.527 115.368 157.527 114.774C157.527 114.179 157.999 113.707 158.594 113.707H183.749C184.334 113.707 184.816 114.179 184.816 114.774C184.816 115.368 184.334 115.84 183.749 115.84Z" fill="#EC663D"/>
<path d="M162.624 123.992H158.553C157.968 123.992 157.486 123.521 157.486 122.926C157.486 122.341 157.958 121.859 158.553 121.859H162.624C163.209 121.859 163.691 122.331 163.691 122.926C163.691 123.51 163.219 123.992 162.624 123.992Z" fill="#EC663D"/>
<path d="M183.749 133.008H158.594C158.009 133.008 157.527 132.536 157.527 131.942C157.527 131.347 157.999 130.875 158.594 130.875H183.749C184.334 130.875 184.816 131.347 184.816 131.942C184.816 132.536 184.334 133.008 183.749 133.008Z" fill="#EC663D"/>
<path d="M183.792 141.16H179.197C178.613 141.16 178.131 140.689 178.131 140.094C178.131 139.509 178.603 139.027 179.197 139.027H183.792C184.376 139.027 184.858 139.499 184.858 140.094C184.858 140.689 184.376 141.16 183.792 141.16Z" fill="#EC663D"/>
<path d="M183.792 107.864H179.197C178.613 107.864 178.131 107.392 178.131 106.797C178.131 106.212 178.613 105.73 179.197 105.73H183.792C184.376 105.73 184.858 106.202 184.858 106.797C184.858 107.392 184.376 107.864 183.792 107.864Z" fill="#EC663D"/>
<path d="M179.01 203.777H43.2235C36.5064 203.777 31.0508 198.311 31.0508 191.605V67.1805C31.0508 60.4635 36.5167 55.0078 43.2235 55.0078H179.01C185.727 55.0078 191.183 60.4737 191.183 67.1805V191.605C191.183 198.311 185.717 203.777 179.01 203.777ZM43.2235 57.1306C37.6858 57.1306 33.1736 61.6325 33.1736 67.1805V191.605C33.1736 197.142 37.6755 201.654 43.2235 201.654H179.01C184.548 201.654 189.05 197.142 189.05 191.605V67.1805C189.05 61.6428 184.548 57.1306 179.01 57.1306H43.2235Z" fill="#223549"/>
<path fill-rule="evenodd" clip-rule="evenodd" d="M191.154 103.051L191.164 97.1027C191.164 97.1027 183.288 93.8006 180.54 82.5406C177.791 71.2806 185.708 55.7648 188.785 51.3449C191.861 46.9147 198.507 39.1209 198.507 39.1209C198.507 39.1209 190.795 34.8753 194.066 27.1738C197.337 19.4723 198.999 19.5953 201.932 20.4157C204.865 21.2361 207.951 22.5488 207.951 22.5488C207.951 22.5488 210.597 12.4476 217.027 14.9601C223.457 17.4726 229.251 23.482 229.251 23.482C229.251 23.482 233.004 21.1541 239.157 28.4864C245.31 35.8188 254.878 45.0483 256.745 47.4685C258.611 49.8784 260.447 58.5439 255.637 64.1329C250.828 69.7218 235.363 81.8125 235.363 81.8125C235.363 81.8125 238.214 86.6734 233.979 89.4935C229.743 92.3239 222.124 88.7551 222.124 88.7551L218.053 91.8111C218.053 91.8111 217.683 95.5234 221.201 96.8156C224.718 98.1077 248.336 106.414 254.53 119.869C261.124 134.195 262.58 148.121 261.195 172.272C259.811 196.422 260.18 211.159 260.18 211.159H229.723C229.723 211.159 224.421 220.594 193.153 221.065C161.886 221.537 117.892 219.199 108.621 217.732C99.3508 216.266 85.2092 216.892 82.2352 215.322C79.2613 213.753 78.6254 212.543 78.6254 212.543C78.6254 212.543 68.032 203.099 76.0309 203.652C84.0298 204.206 95.2078 206.534 103.802 204.114C112.405 201.694 120.558 197.909 120.558 197.909C120.558 197.909 118.241 194.638 112.498 191.705C106.765 188.772 99.8738 182.445 110.549 183.563C122.271 184.783 136.013 195.602 136.013 195.602C136.013 195.602 158.533 193.551 172.674 191.531C186.816 189.511 192.118 188.29 192.118 188.29L191.154 103.051Z" fill="white"/>
<path fill-rule="evenodd" clip-rule="evenodd" d="M190.035 101.327C190.035 101.327 198.372 112.577 209.54 109.306C220.687 106.045 223.149 98.7227 223.159 98.7227C223.159 98.7227 251.934 102.876 257.677 127.078C263.42 151.29 258.631 212.328 258.631 212.328H226.369C226.676 212.851 231.322 210.543 238.767 197.499C239.854 195.602 242.151 188.136 242.151 188.136C242.151 188.136 235.537 172.928 226.194 169.236C216.852 165.544 203.305 164.037 203.305 164.037L192.814 187.716L189.953 188.239L190.035 101.327Z" fill="#223549"/>
<path fill-rule="evenodd" clip-rule="evenodd" d="M232.266 80.9515C232.266 80.9515 228.297 82.6333 226.718 80.8592C225.139 79.0851 224.288 79.0748 226.195 76.347C228.103 73.6192 230.974 69.5069 231.743 66.7176C232.512 63.9282 231.569 58.2162 231.569 58.2162C231.569 58.2162 226.657 59.8467 224.021 57.5291C221.386 55.2114 219.95 52.4118 219.95 52.4118C219.95 52.4118 208.331 53.4373 205.644 50.4223C202.957 47.4074 206.423 42.0132 206.423 42.0132C206.423 42.0132 198.548 39.5623 196.886 37.419C195.225 35.2757 196.333 26.6512 201.481 23.4619C205.111 21.2058 209.069 22.8056 210.064 24.4977C210.064 24.4977 211.695 16.6936 217.263 18.601C222.831 20.5085 224.329 25.9539 226.892 26.4974C229.456 27.0307 235.948 26.6717 239.988 34.0451C244.029 41.4184 248.818 45.0795 252.304 48.6175C255.596 51.9606 258.027 58.3495 254.735 64.1436C251.587 69.671 236.091 82.5308 236.091 82.5308L232.266 80.9515Z" fill="#EC663D"/>
<path fill-rule="evenodd" clip-rule="evenodd" d="M211.192 65.8672C212.484 65.8672 213.53 66.9132 213.53 68.2053V70.8101C213.53 72.1022 212.484 73.1482 211.192 73.1482C209.9 73.1482 208.854 72.1022 208.854 70.8101V68.2053C208.854 66.9132 209.9 65.8672 211.192 65.8672Z" fill="black"/>
<path fill-rule="evenodd" clip-rule="evenodd" d="M193.584 56.4961C194.876 56.4961 195.922 57.5421 195.922 58.8342V61.439C195.922 62.7311 194.876 63.7772 193.584 63.7772C192.292 63.7772 191.246 62.7311 191.246 61.439V58.8342C191.246 57.5524 192.292 56.4961 193.584 56.4961Z" fill="black"/>
<path fill-rule="evenodd" clip-rule="evenodd" d="M156.562 54.7623C156.562 54.7623 115.316 38.5286 101.287 37.2673C87.2584 36.0059 78.9519 38.4569 77.4034 45.3277C75.8549 52.1986 74.655 59.9924 78.8903 62.7305C83.1154 65.4686 87.4122 65.7865 87.4122 65.7865C87.4122 65.7865 91.0938 68.4425 92.509 67.2632C93.9242 66.0839 94.7343 65.407 94.7343 65.407C94.7343 65.407 97.3493 68.3605 99.267 66.6992C101.185 65.0481 102.231 60.218 102.231 60.218C102.231 60.218 104.333 60.3923 105.564 60.1257C106.784 59.8591 114.301 55.6648 117.603 57.3466C120.905 59.0284 125.612 60.8435 129.181 59.1002C132.739 57.3568 137.508 54.8444 137.508 54.8444L156.562 54.7623Z" fill="white"/>
<path d="M190.117 188.64C189.533 188.64 189.051 188.168 189.051 187.573V98.4571C189.051 97.8726 189.523 97.3906 190.117 97.3906C190.712 97.3906 191.184 97.8624 191.184 98.4571V187.573C191.184 188.168 190.702 188.64 190.117 188.64Z" fill="#223549"/>
<path d="M49.5807 61.8976L42.9004 68.5742L44.4082 70.0829L51.0886 63.4063L49.5807 61.8976Z" fill="white"/>
<path d="M44.4087 61.9017L42.9004 63.4102L49.5798 70.0886L51.0881 68.5801L44.4087 61.9017Z" fill="white"/>
<path fill-rule="evenodd" clip-rule="evenodd" d="M58.7817 62.1328C60.9147 62.1328 62.6376 63.8557 62.6376 65.9887C62.6376 68.1217 60.9045 69.8446 58.7817 69.8446C56.6486 69.8446 54.9258 68.1115 54.9258 65.9887C54.9258 63.8659 56.6486 62.1328 58.7817 62.1328Z" fill="white"/>
<path d="M151.006 187.583C150.236 187.583 149.621 186.957 149.621 186.198V74.6852C149.621 73.9161 150.247 73.3008 151.006 73.3008C151.775 73.3008 152.39 73.9263 152.39 74.6852V186.198C152.4 186.957 151.775 187.583 151.006 187.583Z" fill="#223549"/>
<path d="M179 73H31V75H179V73Z" fill="#223549"/>
<path d="M50.0656 93.9876H40.0978C39.5132 93.9876 39.0312 93.5159 39.0312 92.9211V82.9532C39.0312 82.3687 39.503 81.8867 40.0978 81.8867H50.0759C50.6604 81.8867 51.1424 82.3687 51.1424 82.9532V92.9211C51.1322 93.5056 50.6604 93.9876 50.0656 93.9876ZM41.154 91.8546H48.9991V84.0095H41.154V91.8546Z" fill="#EC663D"/>
<path d="M127.85 87.5666H58.4747C57.8902 87.5666 57.4082 87.0949 57.4082 86.5001C57.4082 85.9156 57.8799 85.4336 58.4747 85.4336H127.85C128.434 85.4336 128.916 85.9053 128.916 86.5001C128.916 87.0949 128.445 87.5666 127.85 87.5666Z" fill="#EC663D"/>
<path d="M127.85 95.719H58.4747C57.8902 95.719 57.4082 95.2473 57.4082 94.6525C57.4082 94.0679 57.8799 93.5859 58.4747 93.5859H127.85C128.434 93.5859 128.916 94.0577 128.916 94.6525C128.916 95.2473 128.445 95.719 127.85 95.719Z" fill="#EC663D"/>
<path d="M127.85 104.735H58.4747C57.8902 104.735 57.4082 104.263 57.4082 103.668C57.4082 103.073 57.8799 102.602 58.4747 102.602H127.85C128.434 102.602 128.916 103.073 128.916 103.668C128.916 104.263 128.445 104.735 127.85 104.735Z" fill="#EC663D"/>
<path d="M127.85 112.887H58.4747C57.8902 112.887 57.4082 112.415 57.4082 111.82C57.4082 111.236 57.8799 110.754 58.4747 110.754H127.85C128.434 110.754 128.916 111.226 128.916 111.82C128.916 112.415 128.445 112.887 127.85 112.887Z" fill="#EC663D"/>
<path fill-rule="evenodd" clip-rule="evenodd" d="M59.3457 118.238H127.849V161.771H59.3457V118.238Z" fill="#EC663D"/>
<path d="M128.721 170.641H59.3458C58.7613 170.641 58.2793 170.169 58.2793 169.574C58.2793 168.98 58.751 168.508 59.3458 168.508H128.721C129.305 168.508 129.787 168.99 129.787 169.574C129.787 170.159 129.305 170.641 128.721 170.641Z" fill="#EC663D"/>
<path d="M128.721 178.797H59.3458C58.7613 178.797 58.2793 178.325 58.2793 177.731C58.2793 177.136 58.751 176.664 59.3458 176.664H128.721C129.305 176.664 129.787 177.136 129.787 177.731C129.787 178.325 129.305 178.797 128.721 178.797Z" fill="#EC663D"/>
<path d="M51.0188 180.62H41.0509C40.4664 180.62 39.9844 180.149 39.9844 179.554V169.586C39.9844 169.002 40.4561 168.52 41.0509 168.52H51.0188C51.6033 168.52 52.0853 169.002 52.0853 169.586V179.554C52.0853 180.138 51.6033 180.62 51.0188 180.62ZM42.1174 178.487H49.9625V170.642H42.1174V178.487Z" fill="#EC663D"/>
<path fill-rule="evenodd" clip-rule="evenodd" d="M261.997 136.382C260.028 125.245 254.306 116.559 247.927 110.18C242.697 104.95 237.252 100.705 229.509 98.3254C227.243 97.6281 223.52 97.2897 221.736 96.0078C220.557 95.1669 220.362 94.0183 219.695 92.2134C220.311 91.6186 221.028 91.1367 221.736 90.6444C227.838 96.1616 239.036 91.916 237.385 83.0557C242.431 78.7999 247.784 74.9645 252.47 70.0934C256.593 65.8068 261.423 58.0848 258.675 49.7269C257.598 46.4556 255.188 43.9226 252.839 41.5844C250.46 39.2053 247.886 36.9594 245.897 34.4572C241.744 29.2477 238.493 22.5717 229.602 22.6024C226.73 18.9106 223.449 13.1883 216.455 13.8036C211.953 14.2036 209.071 17.0237 208.22 21.3923C205.769 20.0079 202.262 18.162 198.775 19.167C192.478 20.9821 189.679 32.1191 194.242 37.4004C194.94 38.2105 195.832 38.7336 196.652 39.5232C195.104 41.1537 193.76 42.9894 192.109 44.5276C190.458 43.9226 187.925 43.779 188.13 45.7275C188.233 46.7017 189.135 46.9786 190.263 47.1119C186.366 52.2394 183.013 57.8079 180.449 64.5147C177.998 70.9445 176.686 80.4202 179.711 87.291C182.367 93.3312 188.582 97.4025 195.545 98.6741C204.303 100.274 211.645 97.2589 217.203 93.8645C217.901 96.6231 219.552 98.428 222.023 99.4227C217.706 104.058 213.778 108.683 205.174 108.683C198.355 108.683 194.919 105.935 191.75 102.479C191.668 102.386 191.268 101.863 191.176 101.74L191.227 106.14C194.796 109.401 199.657 111.893 206.292 111.647C214.568 111.339 219.408 106.796 223.51 102.294C224.054 101.689 224.689 100.376 225.366 100.253C226.094 100.13 227.017 100.633 227.684 100.807C228.412 101.002 228.966 101.156 229.909 101.453C227.971 104.581 225.479 107.073 222.597 109.411C221.787 110.067 220.075 110.939 220.28 112.282C220.352 112.754 220.854 113.318 221.48 113.39C222.803 113.554 224.177 111.944 224.905 111.349C228.084 108.775 230.648 105.504 232.863 102.643C240.667 106.817 246.994 112.19 251.752 119.123C254.152 122.62 256.336 126.455 257.68 130.885C261.925 144.832 259.167 163.906 258.418 179.853C258.049 187.852 257.772 197.132 257.772 205.685C257.772 208.105 257.29 213.335 258.603 213.735C259.464 214.002 260.356 213.489 260.459 213.366C260.992 212.679 260.644 209.726 260.644 208.557C260.644 203.357 260.736 198.414 260.828 193.656C260.961 186.785 261.3 180.683 261.659 174.305C262.325 161.958 264.11 148.37 261.997 136.382ZM212.835 92.9621C209.615 94.6746 205.154 96.1821 200.426 96.2026C194.458 96.2231 189.197 94.0388 185.71 90.7367C182.111 87.332 180.408 82.2046 180.901 75.6516C181.342 69.6217 183.269 64.5864 185.526 60.0947C187.771 55.6338 190.356 51.6754 193.483 47.9631C197.637 49.85 200.775 53.1624 201.164 58.2386C201.544 63.1918 199.196 66.2375 195.699 67.868C194.663 68.35 192.766 68.75 192.366 69.6319C191.976 70.4933 192.253 71.8572 192.366 73.2417C192.478 74.5543 192.653 75.6208 193.842 75.6516C195.893 75.6926 195.258 73.0161 195.135 71.3035C200.447 69.4576 204.497 65.5402 204.118 58.5257C203.759 52.1369 199.924 47.8195 195.319 45.6557C196.488 43.9021 197.883 42.3638 199.483 41.0307C200.929 41.6767 202.395 42.3126 204.2 42.5997C204.097 43.3791 203.585 44.0559 203.369 44.9173C201.226 53.2444 211.04 54.7621 218.454 53.4392C220.023 57.8592 224.187 60.1665 230.391 59.6435C230.76 61.2331 230.945 62.2483 230.945 63.6225C230.935 68.9961 226.176 71.2522 224.372 75.2824C223.654 76.8925 223.818 81.015 225.951 81.1175C226.658 81.1483 227.315 80.6048 227.428 80.1946C227.776 78.9024 226.771 78.6255 226.874 77.2309C226.976 75.7439 228.853 74.0518 230.022 72.6982C232.217 70.1447 234.134 67.4784 233.816 62.3303C233.693 60.2178 233.273 57.2849 232.247 56.7721C231.612 56.4645 230.74 56.7311 229.837 56.7721C225.777 56.9465 222.915 55.8287 221.51 53.1624C220.936 52.0753 220.813 50.7832 219.941 50.4755C219.121 50.1884 217.47 50.6396 216.239 50.7524C212.445 51.0908 207.256 50.9268 206.241 48.2502C205.01 45.0301 208.415 43.4098 208.097 41.4922C207.892 40.2821 206.251 40.0872 205.133 39.8308C200.57 38.7541 195.35 36.7236 194.858 31.6884C194.458 27.5966 196.652 22.2845 200.324 21.8743C203.339 21.5359 205.861 23.3203 207.728 24.5611C208.64 25.1662 210.507 26.6942 211.153 24.838C211.399 24.1202 210.968 23.2895 210.968 22.705C210.968 19.1978 213.993 16.2238 218.372 16.7776C220.926 17.0955 222.546 18.8183 224.023 20.295C224.628 20.9001 225.479 21.8436 226.156 22.7973C226.74 23.6279 227.263 25.0021 228.094 25.3918C229.068 25.843 230.771 25.6789 231.796 25.8533C236.339 26.6121 238.647 29.7194 240.964 32.7959C242.769 35.1853 244.297 37.3286 246.328 39.3694C248.225 41.2665 250.43 43.1945 252.347 45.2968C254.244 47.3785 255.967 49.8602 256.326 53.2547C257.095 60.4844 252.665 65.7965 248.922 69.5499C244.81 73.6621 240.513 76.4207 235.867 80.3792C234.934 79.2614 228.709 78.4307 228.833 81.1175C228.935 83.3839 232.791 81.5995 234.011 82.6865C234.883 83.4659 234.729 85.6707 234.196 86.8501C233.416 88.5934 230.504 90.747 227.438 90.1829C226.32 89.9778 224.474 89.3318 223.828 88.6139C223.479 88.2242 223.418 86.9834 222.444 86.8603C221.541 86.7475 220.7 87.7217 219.941 88.337C217.829 90.0599 215.193 91.7109 212.835 92.9621Z" fill="black"/>
<path fill-rule="evenodd" clip-rule="evenodd" d="M80.7398 61.8567C79.0888 55.6319 81.9602 49.0893 84.2573 44.7309C84.8418 43.6233 85.5904 41.3365 87.0364 41.398C89.7437 41.5211 87.4773 44.7514 86.7595 46.1256C85.0059 49.4379 82.8831 54.1347 83.1497 58.9033C83.3036 61.7644 84.165 63.836 87.0364 64.2769C85.3751 57.9496 87.9901 51.0275 90.6461 46.6896C91.2512 45.6948 92.2562 43.408 93.5176 43.3567C93.979 43.3362 94.8712 43.7464 95.0045 44.3719C95.2506 45.5103 94.3892 46.1256 93.897 46.8742C91.5691 50.3916 88.0106 56.8113 89.918 63.2617C90.3795 64.8307 91.1486 66.2254 93.0663 65.0153C92.2459 58.4111 94.9943 52.9759 97.5068 48.4432C98.2451 47.11 99.0553 44.9155 100.378 44.9257C100.911 44.9257 101.66 45.4487 101.763 46.0333C101.906 46.8229 101.25 47.6228 100.932 48.1663C99.8757 49.9199 98.8091 51.9196 97.9682 53.8168C96.7684 56.5139 95.4557 59.6211 95.7429 63.0771C95.8557 64.4 96.4095 66.3177 98.4297 65.8562C99.7423 65.5588 99.9885 62.8515 100.378 61.6927C100.952 59.9596 101.557 58.9956 102.419 57.7137C102.983 52.4632 107.177 50.207 111.956 48.7303C113.371 48.2894 115.566 47.7869 115.197 50.0225C115.033 51.0069 113.802 51.1403 112.602 51.4992C109.874 52.3401 106.49 53.9706 105.567 56.4113C105.352 56.9856 105.126 57.9188 105.475 59.0981C108.736 58.288 111.228 55.6935 115.566 55.673C119.073 55.6525 122.324 57.4368 125.749 57.4368C129.4 57.4368 132.456 55.632 134.825 54.104C135.778 53.4887 137.655 53.0887 137.696 54.8423C137.737 56.319 135.225 57.3958 133.902 58.0829C132.158 58.9956 130.292 59.5904 128.723 59.9391C123.903 60.9748 120.765 58.9956 116.776 58.6469C113.884 58.3905 112.038 59.3545 110.11 60.3082C108.223 61.2414 105.895 62.9233 103.537 61.5081C102.603 63.2719 102.757 65.405 101.588 67.0663C100.183 69.066 96.471 69.3839 94.461 67.5278C93.0356 68.543 89.754 68.7481 88.7182 67.2509C86.1339 67.579 84.7393 66.3587 83.2523 65.8664C81.714 65.3537 80.6167 65.3229 79.4579 64.6666C73.7151 61.385 73.5818 51.4479 76.6788 45.1308C79.6323 39.1111 85.2418 35.8193 93.8047 35.4091C100.594 35.0912 106.777 36.3423 112.13 37.9113C117.484 39.4803 122.447 41.4903 127.4 43.3772C136.014 46.6588 145.09 49.8071 153.879 53.1913C155.294 53.7348 156.976 54.0322 157.027 55.232C157.16 58.1444 152.689 55.796 150.915 55.1397C138.834 50.6685 127.831 46.2794 115.371 41.9928C108.428 39.6136 100.183 37.4498 91.4871 38.5676C87.4876 39.0804 84.0829 40.3212 81.7653 42.7311C78.617 46.0128 75.7661 53.8168 78.7093 59.6724C79.181 60.5954 79.4784 61.1902 80.7398 61.8567Z" fill="black"/>
<path fill-rule="evenodd" clip-rule="evenodd" d="M210.712 58.3407C210.804 58.3099 211.655 58.2176 212.096 58.2484C217.172 58.6073 220.372 60.6891 222.187 64.6373C222.833 66.0319 224.679 70.7595 222.002 70.7492C220.3 70.739 220.3 67.9496 219.777 66.5857C219.326 65.3961 218.875 64.3193 217.921 63.4374C216.198 61.8274 214.086 61.489 211.624 61.1198C210.65 60.9762 209.994 60.8737 209.768 60.1968C209.522 59.3969 209.84 58.6176 210.712 58.3407Z" fill="black"/>
<path fill-rule="evenodd" clip-rule="evenodd" d="M202.651 84.7291C199.585 84.042 196.918 83.5497 194.324 82.1345C193.545 81.7141 192.458 81.2936 192.283 80.5553C192.099 79.7451 192.55 78.7401 193.391 78.7094C194.56 78.6581 195.257 79.458 196.447 80.0015C197.37 80.422 198.487 80.7501 199.687 81.0168C202.733 81.7038 206.425 81.5705 205.984 84.7188C205.635 87.1903 202.118 89.0362 199.318 89.2515C196.067 89.4977 192.786 88.6978 192.745 87.1185C192.683 84.4624 196.877 86.534 199.318 86.2878C201.092 86.1238 201.687 85.4162 202.651 84.7291Z" fill="black"/>
<path fill-rule="evenodd" clip-rule="evenodd" d="M225.425 84.2677C226.297 84.0729 231.076 84.4626 231.63 85.3753C232.214 86.3495 231.609 87.5493 230.522 87.6929C229.671 87.7955 225.497 87.2622 224.872 86.8623C223.723 86.1034 224.369 84.5036 225.425 84.2677Z" fill="black"/>
<path fill-rule="evenodd" clip-rule="evenodd" d="M207.562 115.277C206.824 115.4 204.855 115.585 203.676 115.646C198.076 115.944 194.056 113.616 191.195 111.062V114.949C194.067 117.041 197.82 118.61 202.845 118.61C205.44 118.61 210.218 118.62 210.157 116.477C210.116 115.072 208.731 115.082 207.562 115.277Z" fill="black"/>
<path fill-rule="evenodd" clip-rule="evenodd" d="M208.67 152.675C218.863 152.409 226.154 155.208 232.461 159.157C233.333 159.7 234.553 160.367 234.215 161.659C234.092 162.12 233.548 162.541 232.923 162.582C232.102 162.633 231.815 162.172 231.446 161.936C225.231 158.08 217.92 154.983 207.562 155.731C206.454 157.772 205.716 160.182 204.783 162.397C223.929 163.371 236.614 170.509 242.644 184.61C243.465 183.112 244.07 181.41 244.777 179.8C243.885 176.354 242.675 173.462 240.706 170.724C240.07 169.853 237.866 167.309 240.337 166.93C242.07 166.663 243.414 169.545 244.039 170.54C245.167 172.345 245.936 173.719 246.449 175.442C248.951 170.068 250.982 164.325 253.207 158.316C253.74 156.88 254.448 153.301 256.078 153.321C258.683 153.342 256.53 157.987 256.171 158.972C251.084 172.673 245.423 187.245 238.953 199.613C235.199 206.781 230.667 213.293 223.673 217.385C217.14 221.21 206.239 222.399 196.179 222.943C168.901 224.409 143.448 220.738 117.769 219.425C112.57 219.159 107.227 219.128 101.843 218.871C93.6288 218.482 85.8965 218.615 80.2768 215.631C78.5847 214.728 76.6875 213.365 75.6518 212.021C75.4262 211.724 75.4057 211.18 75.098 210.729C74.6263 210.042 73.529 209.55 73.0573 208.688C71.3857 205.622 73.1906 202.658 76.3901 202.299C80.1537 201.879 84.0404 202.874 87.8655 203.222C100.397 204.361 110.273 201.479 118.692 197.48C115.78 192.639 108.099 193.265 104.807 188.773C103.597 187.132 102.94 184.076 105.084 182.846C107.729 181.328 113.113 182.723 115.913 183.399C122.579 185.02 127.952 187.963 132.577 191.726C133.285 192.301 134.495 193.788 135.264 193.952C136.115 194.136 137.643 193.757 138.874 193.675C156.707 192.547 174.449 190.742 190.621 188.209C193.39 182.128 195.943 176.057 198.579 169.781C199.44 167.74 200.435 165.648 200.896 163.392C202.209 161.3 203.132 158.613 204.137 156.08C206.567 149.958 209.08 143.641 211.541 137.098C212.064 135.714 212.464 133.56 213.674 133.396C216.781 132.986 214.443 137.765 213.951 139.046C212.218 143.6 210.239 148.42 208.67 152.675ZM194.23 187.665C195.748 187.266 197.697 187.163 197.656 188.865C197.615 190.67 193.472 190.804 191.451 191.091C174.418 193.439 155.949 195.767 138.125 196.741C138.033 197.254 139.376 197.951 139.233 199.059C139.161 199.654 138.587 200.279 137.756 200.259C136.649 200.238 135.521 198.392 134.7 197.572C129.696 192.567 123.943 188.773 116.467 186.65C113.472 185.799 110.15 184.876 106.56 185.45C106.96 187.132 107.863 187.983 109.247 188.783C112.19 190.475 117 191.286 119.615 193.88C120.753 195.008 121.881 196.628 122.671 198.505C123.143 199.643 124.876 203.735 122.21 203.592C120.538 203.499 120.825 201.366 120.169 200.074C113.944 202.617 107.853 205.263 99.8023 206.186C93.5468 206.904 87.0759 206.053 81.0972 205.448C79.3744 205.273 75.8979 204.699 75.4467 206.001C74.7493 208.022 78.3694 209.047 80.0717 209.427C84.9941 210.534 89.0038 210.924 94.7876 211.19C97.3206 211.303 101.484 210.709 101.453 212.76C101.433 214.534 99.0947 214.175 97.1976 214.144C91.3932 214.052 85.6607 213.334 81.1792 212.76C86.9015 215.805 94.8799 215.908 102.93 215.908C110.826 215.908 119.297 216.626 126.722 217.108C142.443 218.133 158 219.528 173.567 220.256C185.729 220.82 198.363 220.369 209.018 218.687C212.597 218.123 216.227 217.528 219.201 216.369C225.108 214.072 229.057 209.529 232.441 204.617C235.886 199.613 238.491 194.075 241.055 188.23C237.978 181.184 234.143 175.165 227.816 171.381C221.499 167.596 213.438 165.853 203.655 165.361C200.466 172.724 197.358 180.2 194.23 187.665Z" fill="black"/>
</svg>
