<svg width="263" height="224" viewBox="0 0 263 224" fill="none" xmlns="http://www.w3.org/2000/svg">
<path d="M25.6484 183.42C25.2222 183.42 24.8717 183.079 24.8623 182.653L24.6918 172.945L17.9482 161.75C16.0255 162.053 9.60394 162.744 5.48391 159.363C3.14449 157.44 1.97005 154.57 1.99846 150.81C2.02688 146.368 4.62202 142.456 8.59051 140.846C12.6727 139.189 17.1526 140.259 20.5528 143.716C26.946 150.204 22.9396 157.203 21.7083 159.012L24.8244 164.392L25.2979 133.118L17.3515 115.378C14.4912 115.776 2.73723 116.704 0.530405 105.878C-0.378843 101.417 0.454634 97.1645 2.8793 93.9064C5.2566 90.7051 8.95989 88.7256 13.3167 88.3278C16.2055 88.0626 18.9143 88.934 21.1495 90.8566C24.0761 93.3665 25.9894 97.4392 26.2545 101.758C26.6145 107.517 22.7028 111.495 21.301 112.735L28.7645 129.67L34.6462 125.512C34.0779 123.627 32.6856 117.623 36.5215 114.109C39.5712 111.315 43.8049 110.557 47.3093 112.177C50.6054 113.702 52.4901 116.988 52.3575 120.985C52.2534 124.082 51.1831 126.336 49.2036 127.672C45.5287 130.163 39.9027 128.647 38.3873 128.164L30.0999 133.639L29.9389 157.042L35.8301 152.231C35.5459 151 35.0629 147.836 36.7109 145.222C37.9327 143.28 40.0259 142.087 42.943 141.661C46.1444 141.197 48.73 142.106 50.2265 144.228C51.8082 146.463 51.9219 149.749 50.5201 152.411C49.2509 154.817 47.0157 156.18 44.3827 156.18C40.8593 156.124 38.9082 155.574 38.0653 155.262L30.1946 161.854L30.3651 182.454C30.3651 182.89 30.0241 183.24 29.5885 183.24C29.1528 183.259 28.8023 182.899 28.8023 182.463L28.6319 161.494C28.6319 161.257 28.736 161.039 28.916 160.888L37.4402 153.756C37.6864 153.547 38.0369 153.519 38.321 153.671C38.3305 153.68 40.0448 154.551 44.3069 154.618C47.1862 154.618 48.569 152.78 49.1562 151.682C50.2739 149.56 50.1981 146.87 48.9668 145.137C47.8113 143.498 45.8129 142.826 43.1893 143.214C40.7457 143.574 39.0219 144.521 38.0558 146.056C36.3889 148.698 37.4591 152.269 37.4686 152.297C37.5633 152.6 37.4591 152.932 37.2129 153.14L29.6453 159.315C29.4085 159.505 29.0865 159.543 28.8118 159.42C28.5371 159.287 28.3667 159.012 28.3667 158.709L28.5371 133.222C28.5371 132.957 28.6697 132.72 28.8876 132.578L37.8475 126.658C38.0558 126.526 38.3116 126.488 38.5389 126.573C38.6052 126.592 44.8089 128.77 48.3322 126.384C49.8761 125.332 50.7095 123.504 50.7948 120.938C50.9084 117.547 49.4025 114.876 46.6558 113.607C43.7197 112.252 40.1585 112.906 37.5823 115.274C33.8506 118.693 36.2847 125.493 36.3131 125.56C36.4362 125.891 36.3226 126.26 36.029 126.469L28.8971 131.517C28.7076 131.65 28.4614 131.697 28.2341 131.631C28.0067 131.564 27.8173 131.403 27.7226 131.195L19.6341 112.84C19.4825 112.508 19.5867 112.12 19.8803 111.902C19.9277 111.864 25.0801 107.877 24.7013 101.872C24.4645 98.0264 22.7123 94.2663 20.1361 92.0595C18.2229 90.421 15.9213 89.6727 13.4588 89.9C9.55659 90.2599 6.24162 92.0216 4.13898 94.8535C1.98899 97.7518 1.25023 101.559 2.06476 105.575C2.98348 110.074 5.85329 112.811 10.5984 113.73C14.2354 114.431 17.6262 113.758 17.664 113.749C18.024 113.673 18.3839 113.863 18.5354 114.194L26.7944 132.635C26.8607 132.966 26.3398 167.243 26.3398 167.243C26.3303 167.593 26.0935 167.896 25.7526 167.991C25.4116 168.076 25.0517 167.934 24.8812 167.622L20.0982 159.353C19.9372 159.069 19.9656 158.719 20.1645 158.472C20.4013 158.179 25.8189 151.293 19.4352 144.815C16.4896 141.831 12.6537 140.884 9.17773 142.295C5.73964 143.688 3.58965 146.955 3.56123 150.82C3.54229 154.078 4.51784 156.54 6.46893 158.15C10.6742 161.607 18.1092 160.13 18.185 160.12C18.507 160.054 18.8385 160.196 19.009 160.48L26.1409 172.31C26.2545 172.698 26.425 182.615 26.425 182.615C26.4345 183.051 26.0841 183.401 25.6579 183.411C25.6579 183.42 25.6579 183.42 25.6484 183.42Z" fill="#223549"/>
<path fill-rule="evenodd" clip-rule="evenodd" d="M16.1769 182.121H40.8782C42.3178 182.121 43.4923 183.286 43.4923 184.735V194.907C43.4923 199.709 39.5995 203.602 34.7976 203.602H22.267C17.465 203.602 13.5723 199.709 13.5723 194.907V184.735C13.5629 183.296 14.7373 182.121 16.1769 182.121Z" fill="white"/>
<path d="M40.8787 182.12C42.3183 182.12 43.4927 183.285 43.4927 184.734V194.906C43.4927 199.708 39.6 203.601 34.7981 203.601H22.2675C17.4655 203.601 13.5728 199.708 13.5728 194.906V184.734C13.5728 183.294 14.7378 182.12 16.1774 182.12H40.8787ZM40.8787 180.387H16.1774C13.7812 180.387 11.8301 182.338 11.8301 184.734V194.906C11.8301 200.665 16.5089 205.344 22.2675 205.344H34.7886C40.5472 205.344 45.226 200.665 45.226 194.906V184.734C45.226 182.338 43.2749 180.387 40.8787 180.387Z" fill="#223549"/>
<path d="M262.043 206.698H0.956605C0.42621 206.698 0 206.272 0 205.742C0 205.211 0.42621 204.785 0.956605 204.785H262.043C262.574 204.785 263 205.211 263 205.742C263 206.272 262.574 206.698 262.043 206.698Z" fill="black"/>
<path d="M35.393 78.9779C34.4554 78.7884 34.0576 78.1349 34.2091 77.4814C34.2375 77.3488 35.0236 74.0812 37.3725 69.9422C37.704 69.355 38.4523 69.1561 39.03 69.4876C39.6172 69.8191 39.8161 70.5673 39.4846 71.1451C37.3157 74.962 36.5769 78.0118 36.5769 78.0402C36.4443 78.599 35.9518 78.9779 35.393 78.9779ZM149.542 74.9052C147.088 74.9052 144.56 74.8389 142.04 74.7158C141.368 74.6779 140.847 74.1096 140.885 73.4371C140.923 72.7647 141.5 72.2627 142.163 72.2816C144.645 72.4048 147.126 72.4711 149.542 72.4711C150.593 72.4711 151.142 73.0109 151.142 73.6834C151.142 74.3559 150.602 74.9052 149.93 74.9052C149.551 74.9052 149.542 74.9052 149.542 74.9052ZM159.307 74.5642C158.672 74.5642 158.142 74.0717 158.094 73.4371C158.047 72.7647 158.549 72.1869 159.221 72.1301C161.835 71.9407 164.43 71.666 166.921 71.325C167.584 71.2303 168.2 71.6944 168.295 72.3669C168.39 73.0299 167.925 73.6455 167.253 73.7402C164.705 74.0907 162.063 74.3748 159.392 74.5642C159.363 74.5642 159.335 74.5642 159.307 74.5642ZM132.758 73.8444C130.05 73.4561 127.426 72.9541 124.793 72.329C124.139 72.1774 123.732 71.5239 123.884 70.8609C124.035 70.2074 124.689 69.8001 125.352 69.9517C127.919 70.5578 130.466 71.0504 132.929 71.4103C133.592 71.505 134.056 72.1301 133.952 72.7931C133.866 73.4087 133.346 73.8444 132.758 73.8444ZM176.326 72.0354C175.777 72.0354 175.275 71.6565 175.143 71.0977C174.991 70.4442 175.398 69.7907 176.052 69.6297C178.628 69.0235 181.128 68.3131 183.468 67.527C184.102 67.3092 184.794 67.6501 185.012 68.2942C185.23 68.9288 184.889 69.6202 184.245 69.838C181.829 70.6526 179.263 71.3819 176.611 72.007C176.506 72.0259 176.421 72.0354 176.326 72.0354ZM116.032 69.838C113.342 69.033 110.908 68.19 108.218 67.1955C107.584 66.9587 107.262 66.2579 107.498 65.6328C107.735 64.9982 108.436 64.6761 109.061 64.9129C111.713 65.8979 114.119 66.7314 116.401 67.4607C117.045 67.6691 117.396 68.351 117.187 68.9951C117.026 69.5065 116.543 69.838 116.032 69.838ZM192.513 66.2863C192.068 66.2863 191.642 66.04 191.424 65.6233C191.121 65.0266 191.357 64.2878 191.954 63.9847C194.322 62.7819 196.51 61.437 198.452 60.0163C198.991 59.6185 199.759 59.7321 200.156 60.272C200.554 60.8118 200.441 61.579 199.901 61.9768C197.855 63.4828 195.553 64.8845 193.062 66.1537C192.892 66.2389 192.702 66.2863 192.513 66.2863ZM44.1351 64.3352C43.8225 64.3352 43.5005 64.2121 43.2637 63.9658C42.7901 63.4828 42.7996 62.7156 43.2827 62.242C45.2337 60.3383 47.4027 58.6903 49.7516 57.3453C50.3388 57.0138 51.0776 57.2127 51.4091 57.7905C51.7406 58.3777 51.5417 59.1165 50.9639 59.448C48.795 60.6887 46.787 62.2136 44.9875 63.9753C44.7507 64.2121 44.4382 64.3352 44.1351 64.3352ZM99.8739 63.8806C99.7223 63.8806 99.5708 63.8521 99.4287 63.7953L98.8983 63.5869C96.5684 62.6682 94.3616 61.7969 92.1547 60.9539C91.5296 60.7171 91.2076 60.0163 91.4539 59.3817C91.6906 58.7566 92.3915 58.4345 93.0261 58.6713C95.2519 59.5143 97.4587 60.3856 99.7981 61.3138L100.329 61.5222C100.954 61.7684 101.257 62.4788 101.01 63.1039C100.821 63.5869 100.357 63.8806 99.8739 63.8806ZM83.7158 57.942C80.666 57.0612 78.2224 56.4456 75.9019 56.0004C75.2389 55.8773 74.8127 55.2332 74.9359 54.5797C75.059 53.9167 75.6936 53.481 76.3566 53.6136C78.7623 54.0683 81.2817 54.7123 84.0662 55.5647C84.7103 55.7636 85.0702 56.4456 84.8713 57.0896C84.7197 57.6011 84.2367 57.942 83.7158 57.942ZM59.0524 56.1993C58.5031 56.1993 58.0011 55.8204 57.8685 55.2616C57.7075 54.6081 58.1148 53.9546 58.7683 53.7936C60.009 53.4905 61.3066 53.2537 62.6231 53.0738C63.9775 52.8938 65.3698 52.7802 66.7716 52.7517C67.463 52.7517 68.0028 53.2821 68.0123 53.9451C68.0312 54.6176 67.4914 55.1764 66.8189 55.1859C65.5119 55.2143 64.2048 55.3185 62.9451 55.489C61.7139 55.6594 60.5015 55.8867 59.3366 56.1614C59.2419 56.1804 59.1471 56.1993 59.0524 56.1993ZM205.962 55.7542C205.697 55.7542 205.432 55.6689 205.205 55.489C204.674 55.0722 204.589 54.305 205.006 53.7746C206.597 51.7572 207.857 49.5978 208.747 47.3436C208.993 46.7185 209.703 46.4154 210.329 46.6617C210.954 46.9079 211.257 47.6183 211.011 48.2434C210.035 50.7154 208.652 53.0832 206.919 55.2806C206.673 55.6026 206.322 55.7542 205.962 55.7542ZM211.645 39.8707C210.963 39.8613 210.423 39.3119 210.423 38.6395C210.423 36.0632 210.12 33.6481 209.514 31.195C209.353 30.5415 209.751 29.8785 210.404 29.7174C211.058 29.5564 211.721 29.9542 211.882 30.6078C212.535 33.2503 212.867 35.8643 212.867 38.3648C212.857 39.3309 212.318 39.8707 211.645 39.8707ZM153.264 24.8208C151.076 24.8208 149.153 24.7071 147.373 24.4798C146.71 24.3946 146.236 23.7789 146.321 23.1159C146.407 22.4529 147.022 21.9794 147.685 22.0646C149.352 22.2825 151.18 22.3866 153.254 22.3866C153.917 22.3866 154.609 22.3772 155.3 22.3488C155.963 22.3298 156.531 22.8602 156.55 23.5327C156.569 24.2051 156.039 24.7639 155.376 24.7829C154.666 24.8018 153.946 24.8113 153.264 24.8208ZM206.265 24.1009C206.019 24.1009 205.763 24.0252 205.555 23.8736C203.907 22.6802 201.7 21.8941 198.802 21.4679C198.139 21.3732 197.675 20.7481 197.77 20.0851C197.864 19.4221 198.489 18.958 199.152 19.0527C202.448 19.5358 205.006 20.464 206.985 21.8941C207.535 22.2919 207.648 23.0496 207.26 23.5895C207.014 23.9305 206.644 24.1009 206.265 24.1009ZM164.715 24.0536C164.099 24.0536 163.578 23.5895 163.502 22.9739C163.427 22.3109 163.91 21.7047 164.582 21.6289C167.177 21.3353 169.829 20.9944 172.33 20.6629C173.002 20.5776 173.608 21.0417 173.693 21.7142C173.779 22.3772 173.315 22.9928 172.642 23.078C170.132 23.4095 167.461 23.76 164.847 24.0536C164.8 24.0536 164.753 24.0536 164.715 24.0536ZM181.801 21.8941C181.185 21.8941 180.664 21.4395 180.589 20.8144C180.513 20.1419 180.996 19.5452 181.659 19.4695C184.699 19.119 187.275 18.9012 189.53 18.7781C190.202 18.7402 190.77 19.2611 190.808 19.9336C190.846 20.606 190.325 21.1743 189.653 21.2122C187.446 21.3258 184.917 21.5532 181.924 21.8847C181.896 21.8941 181.848 21.8941 181.801 21.8941ZM138.792 21.3543C138.536 21.3543 138.28 21.2785 138.062 21.108C136.395 19.8483 135.136 18.2382 134.302 16.325C134.037 15.7093 134.321 14.9895 134.937 14.7243C135.552 14.4591 136.272 14.7433 136.537 15.3589C137.21 16.9122 138.195 18.153 139.53 19.1759C140.07 19.5831 140.174 20.3408 139.767 20.8807C139.521 21.1932 139.151 21.3543 138.792 21.3543Z" fill="#223549"/>
<path fill-rule="evenodd" clip-rule="evenodd" d="M106.93 71.9865L108.294 61.8901C108.294 61.8901 104.799 54.2467 104.165 54.2846C103.53 54.3225 102.716 52.1535 101.418 51.8599C100.12 51.5663 90.4691 48.043 89.5693 48.043C88.6601 48.043 85.3735 48.7533 84.237 49.8709C83.1004 50.9886 80.6094 51.8978 80.2685 54.6255C79.9275 57.3533 80.1927 58.9634 79.6244 60.0242C79.0561 61.085 77.0198 59.92 76.6315 64.0401C76.2432 68.1696 77.2755 68.9273 78.0238 70.1396C78.7531 71.3614 103.862 77.2052 106.93 71.9865Z" fill="#F5F5F5"/>
<path fill-rule="evenodd" clip-rule="evenodd" d="M172.029 86.1088C172.029 86.1088 172.721 64.5899 173.772 63.4155C174.814 62.2505 185.602 55.2891 185.602 55.2891L193.955 61.1992C193.955 61.1992 197.469 67.384 197.45 68.9846C197.431 70.5947 201.845 90.9392 201.845 90.9392C201.845 90.9392 201.514 92.8524 199.648 93.7237C197.772 94.6046 172.029 86.1088 172.029 86.1088Z" fill="#F5F5F5"/>
<path fill-rule="evenodd" clip-rule="evenodd" d="M137.107 1.3125C145.054 1.3125 151.504 7.75301 151.504 15.7089C151.504 23.6648 145.063 30.1054 137.107 30.1054C129.151 30.1054 122.711 23.6648 122.711 15.7089C122.711 7.75301 129.151 1.3125 137.107 1.3125Z" fill="white"/>
<path d="M137.108 30.977C128.688 30.977 121.84 24.1292 121.84 15.7092C121.84 7.28918 128.688 0.441406 137.108 0.441406C145.528 0.441406 152.375 7.28918 152.375 15.7092C152.375 24.1292 145.528 30.977 137.108 30.977ZM137.108 2.18413C129.644 2.18413 123.583 8.25526 123.583 15.7092C123.583 23.1631 129.654 29.2343 137.108 29.2343C144.562 29.2343 150.633 23.1631 150.633 15.7092C150.633 8.24579 144.562 2.18413 137.108 2.18413Z" fill="#223549"/>
<path fill-rule="evenodd" clip-rule="evenodd" d="M133.147 128.028C133.147 128.028 130.23 122.165 137.494 122.023C144.759 121.891 173.239 121.502 173.239 121.502C173.239 121.502 178.695 120.65 179.67 124.637C180.646 128.625 186.367 151.072 186.367 151.072C186.367 151.072 188.062 154.159 184.719 155.069C181.366 155.978 144.456 155.59 144.456 155.59C144.456 155.59 141.037 155.997 139.758 151.593C138.479 147.188 137.494 142.197 137.494 142.197C137.494 142.197 141.624 143.485 141.671 142.197C141.709 140.909 140.194 140.284 140.194 140.284C140.194 140.284 142.268 140.047 141.586 138.456C140.904 136.865 138.887 134.8 138.887 134.8C138.887 134.8 141.368 134.317 140.014 132.536C138.659 130.756 136.803 128.899 135.666 128.795C134.539 128.71 133.147 128.028 133.147 128.028Z" fill="#223549"/>
<path fill-rule="evenodd" clip-rule="evenodd" d="M184.2 87.6739C184.2 87.6739 183.366 95.9518 181.245 96.2833C179.123 96.6148 169.547 94.8058 166.895 95.7624C164.244 96.719 163.675 96.719 163.675 96.719C163.675 96.719 162.179 91.4056 166.46 86.452C170.741 81.4985 171.555 79.1402 171.849 78.0131C172.143 76.8955 172.72 70.8812 172.72 70.8812C172.72 70.8812 168.079 63.6545 173.08 59.9891C178.356 56.1154 188.869 48.7372 199.676 50.7072C210.558 52.6962 214.555 63.2852 213.674 70.4455C213.324 73.3058 212.453 75.8252 210.975 78.1836C208.721 81.7922 207.859 84.5388 208.105 85.8364C208.484 87.8254 212.017 94.5879 212.803 97.6661C213.589 100.744 214.015 105.148 214.015 105.148C214.015 105.148 209.99 102.743 202.621 101.843C195.262 100.943 193.264 99.6646 192.885 97.4956C192.506 95.3267 195.755 83.6675 195.755 83.6675C195.755 83.6675 202.981 84.321 203.578 80.7124C204.563 74.7171 198.53 77.1512 198.53 77.1512C198.53 77.1512 190.593 74.2909 188.443 69.1479C186.293 64.005 187.05 59.5819 187.05 59.5819C187.05 59.5819 182.296 59.9513 178.877 63.4083C175.458 66.8653 176.007 67.7556 176.007 67.7556C176.007 67.7556 171.252 80.0873 177.484 84.6241C183.736 89.1703 184.2 87.6739 184.2 87.6739Z" fill="#223549"/>
<path fill-rule="evenodd" clip-rule="evenodd" d="M202.724 76.7987C202.724 76.7987 208.805 71.6841 208.113 62.7053C207.469 54.2663 200.546 51.4818 200.546 51.4818C200.546 51.4818 198.311 50.7998 196.198 50.6104C194.086 50.4305 188.631 51.3018 188.631 51.3018C188.631 51.3018 193.139 50.9609 197.505 54.0011C207.858 61.1994 201.332 76.0883 201.332 76.0883L202.724 76.7987Z" fill="black"/>
<path fill-rule="evenodd" clip-rule="evenodd" d="M92.7059 86.1939C92.7059 86.1939 92.3839 91.8104 92.185 93.2405C91.9861 94.6707 91.1432 97.4174 93.7478 98.1088C96.3524 98.8097 97.5742 98.4592 97.5742 98.4592C97.5742 98.4592 96.3145 95.1064 96.0967 91.4126C95.9451 88.808 95.8315 86.1086 95.8315 86.1086C95.8315 86.1086 95.1495 86.3928 94.2687 86.1939C93.3973 85.995 92.7059 86.1939 92.7059 86.1939Z" fill="#EC663D"/>
<path fill-rule="evenodd" clip-rule="evenodd" d="M179.329 124.117C181.015 127.896 186.111 149.945 186.111 149.945C186.111 149.945 188.744 154.795 184.283 155.164C179.831 155.534 168.797 156.121 168.797 156.121C168.797 156.121 158.483 169.523 155.575 178.644C151.683 190.871 149.381 216.576 149.012 220.829H229.044C228.808 219.37 225.493 198.884 223.314 194.214C221.06 189.375 216.618 179.43 216.618 179.43C216.618 179.43 210.68 179.259 201.919 165.251C197.401 158.024 193.887 153.043 192.523 150.116C191.244 147.369 192.002 146.46 192.002 146.46C192.002 146.46 190.013 142.927 190.004 140.285C189.994 137.642 189.757 136.629 189.132 135.151C188.507 133.683 186.31 129.402 187.655 128.976C189.975 128.237 193.915 134.45 193.915 134.45L197.05 132.537C197.05 132.537 195.734 131.173 195.923 130.273C196.113 129.383 197.751 128.711 197.751 128.711C197.751 128.711 194.143 125.784 194.881 124.449C195.611 123.113 198.878 124.449 198.878 124.449C198.878 124.449 198.765 122.687 198.092 121.579C197.429 120.471 196.463 117.686 198.263 117.838C200.062 117.989 201.701 119.893 202.695 123.312C203.69 126.731 204.002 129.402 204.002 129.402C204.002 129.402 204.031 131.476 204.523 133.314C205.016 135.151 204.788 137.926 204.788 137.926L207.137 136.013L210.007 146.015C210.007 146.015 214.487 142.463 217.925 142.274C221.363 142.084 225.322 143.06 225.322 143.06L221.411 117.838C221.411 117.838 219.242 107.637 214.279 105.137C209.316 102.636 204.883 102.002 204.883 102.002C204.883 102.002 191.794 111.009 181.925 106.178C173.258 101.935 174.007 98.876 174.007 98.876C174.007 98.876 165.321 96.7071 161.4 102.788C157.479 108.868 154.789 121.048 154.789 121.048L172.614 121.314C172.633 121.333 177.644 120.329 179.329 124.117Z" fill="#EC663D"/>
<path fill-rule="evenodd" clip-rule="evenodd" d="M44.2688 185.605C51.8458 187.111 57.1403 183.086 57.1403 183.086L68.3638 174.391C68.3638 174.391 65.3709 174.401 63.9312 168.216C62.5011 162.088 66.8863 157.381 65.9297 157.343C65.9297 157.343 59.3755 159.843 57.3202 161.34C55.265 162.836 53.2286 163.518 53.2286 163.518L48.796 139.423C48.796 139.423 46.3051 131.893 50.8797 130.207C55.4544 128.522 84.9765 124.203 84.9765 124.203C84.9765 124.203 89.6175 122.896 91.3223 126.902C93.0272 130.908 93.9364 140.465 93.9364 140.465C93.9364 140.465 97.4029 139.035 97.7628 141.071C98.1228 143.107 97.5924 144.377 97.5924 144.377C97.5924 144.377 98.5963 145.854 98.549 148.468C98.5016 151.082 98.6721 152.692 98.1133 153.687C97.5545 154.681 96.721 156.301 96.721 156.301L100.377 177.261C100.377 177.261 101.959 182.556 97.7628 183.692C93.5765 184.829 62.4537 190.559 62.4537 190.559C62.4537 190.559 60.5121 191.118 59.4134 189.773C58.3053 188.428 57.5002 186.988 57.5002 186.988C57.5002 186.988 52.0068 197.075 50.4535 205.429C48.9002 213.783 48.1899 220.82 48.1899 220.82H48.976H130.231C129.52 217.846 122.729 189.422 117.852 176.636C112.709 163.13 109.072 158.11 109.072 158.11L110.634 150.457C110.634 150.457 118.751 166.293 125.94 169.674C133.129 173.065 140.204 169.779 142.638 165.062C145.072 160.355 143.765 155.496 143.765 155.496C143.765 155.496 142.42 156.074 140.981 154.539C139.323 152.778 138.802 150.021 138.802 150.021C138.802 150.021 132.901 149.823 130.458 148.459C128.005 147.085 124.804 144.983 124.804 144.983C124.804 144.983 124.264 138.552 124.453 135.938C124.652 133.324 125.059 126.892 125.059 126.892C125.059 126.892 120.011 109.55 117.492 106.453C114.972 103.356 109.318 99.6719 109.318 99.6719C109.318 99.6719 103.351 113.614 86.795 115.849C70.2391 118.084 55.8332 108.196 55.8332 108.196C55.8332 108.196 48.5403 111.454 46.8734 120.461C45.2064 129.459 38.2639 171.256 38.2639 171.256C38.2639 171.256 36.6822 184.099 44.2688 185.605Z" fill="black"/>
<path fill-rule="evenodd" clip-rule="evenodd" d="M55.3984 108.46C55.3984 108.46 65.296 94.1774 66.7072 80.6334C68.1184 67.0894 63.5438 48.5919 86.7959 46.9723C104.981 45.7126 107.585 64.0207 107.585 64.0207L103.238 62.7137C103.238 62.7137 101.95 60.6016 100.974 58.802C100.008 57.0024 98.1047 54.3694 98.1047 54.3694C98.1047 54.3694 98.7961 57.0593 98.5404 58.6315C98.2846 60.2038 98.0194 61.2361 98.0194 61.2361C98.0194 61.2361 90.2151 61.5108 86.7107 63.2346C83.2157 64.9678 81.0563 66.2749 81.0563 66.2749L80.1849 61.3214L80.0144 70.6222C80.0144 70.6222 74.6158 62.7705 72.6268 69.2299C70.3916 76.4755 79.4935 77.2332 79.4935 77.2332C79.4935 77.2332 81.9655 78.9002 81.6719 82.0162C81.3688 85.1323 81.3972 96.9431 77.3246 99.6708C73.2424 102.399 55.3984 108.46 55.3984 108.46Z" fill="#EC663D"/>
<path fill-rule="evenodd" clip-rule="evenodd" d="M54.622 128.776L88.4347 122.876C90.5752 122.506 92.5926 123.794 92.9336 125.755L101.884 177.052C102.225 179.012 100.766 180.916 98.6259 181.285L64.8132 187.186C62.6727 187.555 60.6553 186.267 60.3143 184.307L51.3639 133.01C51.0229 131.04 52.4815 129.146 54.622 128.776Z" fill="#EFEFEF"/>
<path d="M89.1728 122.809C91.0197 122.809 92.6298 124.021 92.9329 125.755L101.883 177.051C102.224 179.012 100.766 180.916 98.6252 181.285L64.8125 187.186C64.5663 187.233 64.32 187.252 64.0738 187.252C62.2269 187.252 60.6167 186.04 60.3136 184.307L51.3632 133.01C51.0223 131.049 52.4809 129.145 54.6214 128.776L88.434 122.875C88.6803 122.828 88.9265 122.809 89.1728 122.809ZM89.1728 121.066C88.8224 121.066 88.4814 121.095 88.131 121.161L54.3183 127.062C51.2401 127.602 49.1375 130.405 49.6489 133.303L58.5993 184.6C59.0445 187.138 61.346 188.985 64.0738 188.985C64.4242 188.985 64.7652 188.957 65.1156 188.891L98.9283 182.99C102.016 182.45 104.109 179.647 103.598 176.739L94.6472 125.442C94.2021 122.913 91.9005 121.066 89.1728 121.066Z" fill="white"/>
<path d="M87.1828 124.952C89.0297 124.952 90.6399 126.164 90.9429 127.898L99.8934 179.185C100.234 181.145 98.7757 183.04 96.6352 183.419L62.8226 189.319C62.5763 189.367 62.3301 189.385 62.0838 189.385C60.2369 189.385 58.6268 188.173 58.3237 186.44L49.3733 135.153C49.0323 133.192 50.4909 131.288 52.6314 130.919L86.4441 125.018C86.6903 124.971 86.9366 124.952 87.1828 124.952ZM87.1828 123.219C86.8324 123.219 86.4914 123.247 86.141 123.313L52.3283 129.214C49.2407 129.754 47.1475 132.557 47.659 135.456L56.6094 186.743C57.0545 189.281 59.3561 191.128 62.0838 191.128C62.4248 191.128 62.7752 191.1 63.1256 191.033L96.9383 185.133C100.026 184.593 102.119 181.789 101.608 178.891L92.6573 127.604C92.2026 125.056 89.9011 123.219 87.1828 123.219Z" fill="black"/>
<path fill-rule="evenodd" clip-rule="evenodd" d="M137.108 7.05469C141.891 7.05469 145.765 10.9285 145.765 15.7115C145.765 20.4945 141.891 24.3683 137.108 24.3683C132.325 24.3683 128.451 20.4945 128.451 15.7115C128.451 10.9285 132.325 7.05469 137.108 7.05469Z" fill="white"/>
<path d="M137.109 25.2288C131.861 25.2288 127.59 20.9572 127.59 15.7101C127.59 10.463 131.861 6.19141 137.109 6.19141C142.356 6.19141 146.627 10.463 146.627 15.7101C146.627 20.9572 142.356 25.2288 137.109 25.2288ZM137.109 7.92466C132.818 7.92466 129.323 11.4196 129.323 15.7101C129.323 20.0006 132.818 23.4955 137.109 23.4955C141.399 23.4955 144.894 20.0006 144.894 15.7101C144.894 11.4196 141.399 7.92466 137.109 7.92466Z" fill="#223549"/>
<path fill-rule="evenodd" clip-rule="evenodd" d="M137.107 10.5273C139.967 10.5273 142.287 12.8478 142.287 15.7082C142.287 18.5685 139.967 20.889 137.107 20.889C134.246 20.889 131.926 18.5685 131.926 15.7082C131.926 12.8478 134.246 10.5273 137.107 10.5273Z" fill="#EC663D"/>
<path fill-rule="evenodd" clip-rule="evenodd" d="M211.637 20.8789C215.937 20.8789 219.422 24.3644 219.422 28.6643C219.422 32.9643 215.937 36.4498 211.637 36.4498C207.337 36.4498 203.852 32.9643 203.852 28.6643C203.852 24.3644 207.337 20.8789 211.637 20.8789Z" fill="#EC663D"/>
<path fill-rule="evenodd" clip-rule="evenodd" d="M144.494 64.7148C148.794 64.7148 152.28 68.2003 152.28 72.5003C152.28 76.8003 148.794 80.2857 144.494 80.2857C140.194 80.2857 136.709 76.8003 136.709 72.5003C136.718 68.2003 140.204 64.7148 144.494 64.7148Z" fill="#EC663D"/>
<path fill-rule="evenodd" clip-rule="evenodd" d="M34.7405 77.6719C38.1786 77.6719 40.9632 80.4564 40.9632 83.8945C40.9632 87.3326 38.1786 90.1077 34.7405 90.1077C31.3119 90.1077 28.5273 87.3232 28.5273 83.8945C28.5273 80.4564 31.3119 77.6719 34.7405 77.6719Z" fill="#EC663D"/>
<path fill-rule="evenodd" clip-rule="evenodd" d="M50.8059 164.96L63.9426 157.961L63.2323 163.653L63.9426 168.957L68.0532 174.498L54.0451 184.632L48.2676 175.928L50.8059 164.96Z" fill="black"/>
<path fill-rule="evenodd" clip-rule="evenodd" d="M88.3109 44.125C88.6045 44.125 88.8887 44.125 89.1823 44.125C101.713 44.4376 108.674 51.1811 111.269 61.8648C111.62 63.3045 112.378 65.7386 111.184 66.2974C110.114 66.7994 109.119 65.4355 108.229 65.6912C108.21 75.5225 105.141 82.3134 98.9283 85.9504C99.023 88.233 98.7673 90.9418 99.364 93.0823C99.6007 93.9253 99.9985 94.9198 100.491 95.8669C100.87 96.5867 101.618 98.0169 102.139 98.2158C102.916 98.4999 104.621 98.3105 105.359 98.3863C112.955 99.2198 116.403 103.027 119.187 108.558C121.489 113.133 123.184 118.191 124.662 123.599C124.908 124.489 126.537 128.524 124.832 128.552C123.809 128.571 123.535 126.232 123.184 124.897C121.991 120.417 120.722 116.619 119.187 112.982C117.009 107.829 114.887 103.046 109.707 101.152C104.734 109.335 98.3789 115.899 86.3977 117.064C73.6019 118.314 63.9222 113.228 55.3507 109.24C48.484 113.067 47.2053 123.059 45.6994 132.284C44.1556 141.718 42.9906 151.899 41.352 160.717C40.5091 165.235 39.202 169.866 38.9179 174.631C38.6054 179.934 40.8027 183.562 45.0932 184.888C49.7626 186.337 54.3846 183.392 57.3491 181.497C60.8251 179.271 63.657 176.97 66.8299 174.545C66.2332 173.608 65.2956 172.803 64.481 171.761C63.6949 170.747 62.994 169.649 62.5678 168.285C61.6491 165.339 62.4636 161.759 63.2592 159.24C59.5749 161.039 55.6727 162.99 52.3009 165.15C51.3348 165.775 50.0373 167.394 48.7397 166.372C48.7302 164.894 50.4161 164.316 51.439 163.672C57.1123 160.12 62.833 157.279 69.444 154.712C70.609 154.258 72.1055 153.888 73.4409 153.32C73.9808 153.093 74.8143 152.799 75.4394 152.629C76.2444 152.401 76.4907 152.543 76.9169 153.32C76.5949 154.476 75.2594 154.57 74.3123 154.883C71.1583 155.944 67.9381 157.232 65.0967 158.444C65.3713 159.704 64.6326 161.001 64.3106 162.356C63.1077 167.442 65.3998 171.031 68.3075 173.229C71.7171 170.7 75.0416 167.716 78.1292 164.97C78.546 164.6 78.9817 163.994 79.6068 164.013C79.8151 164.439 80.1371 164.761 80.5634 164.97C79.0195 166.807 77.0684 168.199 75.2594 169.753C69.7471 174.479 64.1969 178.883 58.1258 183.06C54.4793 185.57 48.3135 188.553 42.9906 185.93C38.3023 183.619 36.4743 179.092 37.5161 171.846C38.3023 166.381 39.6756 160.689 40.6512 154.712C42.517 143.214 43.7578 130.267 46.3908 119.934C47.4421 115.814 48.9481 112.385 51.5243 109.932C52.3483 109.146 53.4564 108.577 54.3088 107.583C55.1802 106.579 55.8811 105.158 56.6577 103.842C58.8835 100.044 61.1282 95.6964 62.6531 91.5764C64.9451 85.3916 66.0249 78.8469 66.4795 71.052C66.9531 62.954 67.1614 55.8789 70.9973 51.2285C74.7006 46.777 80.6486 44.5228 88.3109 44.125ZM87.0039 45.953C80.1561 46.3508 74.4638 49.1543 71.613 53.2554C68.5064 57.7258 68.6579 65.0851 68.2222 72.217C67.7865 79.2731 66.7542 85.4011 64.7462 91.0839C62.7099 96.833 60.0106 101.446 57.4438 106.124C63.174 103.406 70.0691 102.895 75.0984 99.949C79.2374 97.5244 80.0235 93.4991 80.3171 87.3427C80.4024 85.4863 80.8001 83.4973 80.6675 81.6883C80.5823 80.5518 79.9761 78.7617 78.9248 78.2123C78.4039 77.9377 77.5704 77.9471 77.0116 77.7767C74.2555 76.9526 71.5751 75.3425 71.272 72.1223C71.0257 69.5177 72.4938 66.2595 74.9279 66.0322C76.5191 65.8901 77.7125 67.0267 78.4039 67.7749C78.6502 68.0401 78.8206 68.561 79.19 68.4663C79.0858 66.5815 79.3321 63.9201 79.19 62.1205C79.1332 61.3818 78.7259 60.1979 79.6257 60.0368C81.4347 59.6959 81.0653 64.0148 81.7946 64.7346C86.0946 62.3384 90.6219 60.1694 97.4508 60.302C97.4886 59.4212 97.6686 58.7487 97.6212 57.7827C97.5549 56.2957 96.1437 53.5963 97.536 53.3501C98.3884 53.1985 99.1461 54.354 99.5344 54.8276C101.211 56.8734 102.442 59.2697 103.19 61.8743C105.549 62.5941 107.85 63.3613 109.972 64.3084C108.078 52.9144 100.889 45.1384 87.0039 45.953ZM98.4831 61.8648C97.8107 62.2437 96.532 62.0069 95.6986 62.0353C89.7032 62.291 84.655 64.9335 80.9138 67.3392C80.8191 69.1956 81.52 72.2359 79.5215 71.9518C78.7165 71.8381 78.1198 70.1238 77.5231 69.4324C76.9927 68.8168 76.0077 67.7465 75.1742 67.7844C74.4828 67.8128 73.8671 68.6842 73.6114 69.1767C72.0107 72.1791 73.744 74.367 75.9603 75.4372C77.1253 76.0055 78.4797 76.0718 79.6162 76.5643C80.3739 76.8958 81.018 77.8714 81.4442 78.5628C82.8365 80.8264 82.2966 84.4066 82.1356 87.6931C81.8231 94.2852 80.5444 98.7557 76.3107 101.351C70.7416 104.76 63.335 104.959 57.2639 108.218C65.1819 111.873 74.4922 116.524 86.2177 115.349C97.214 114.241 103.569 108.199 107.784 100.565C106.335 100.318 104.696 100.091 103.086 100.044C101.22 99.9964 98.8999 99.949 96.8256 99.7786C95.2155 99.646 93.6527 99.4565 92.6488 98.822C89.5043 96.833 91.8343 90.4493 91.4365 85.8652C90.745 85.6758 89.9021 85.2685 89.0023 84.7381C88.4246 84.3971 87.1081 83.7057 87.1744 82.9101C87.3354 80.978 89.8547 83.2227 90.2147 83.431C91.4743 84.1509 93.4633 85.0222 95.3481 84.9938C99.2692 84.937 101.827 81.7167 103.522 78.8185C105.397 75.6077 106.07 72.217 106.477 67.4245C105.123 66.7804 103.484 66.1837 102.13 66.6384C99.3166 67.595 98.9283 71.9991 100.046 74.5564C100.415 75.3993 101.116 76.517 99.8754 76.7348C98.6157 76.9527 97.7065 73.7229 97.6118 72.1223C97.4129 68.5137 99.6102 64.9335 102.83 64.7346C104.45 64.6304 105.407 65.3218 106.486 65.2555C106.638 64.6873 105.928 64.5926 105.615 64.4694C105.246 64.3274 104.782 64.1474 104.393 64.0337C103.626 63.797 102.414 63.7496 101.874 63.2476C101.343 62.7551 101.173 61.2208 100.832 60.3778C100.425 59.3549 99.8375 58.2089 99.3545 57.6785C99.1367 58.9287 99.667 61.2018 98.4831 61.8648ZM92.7435 95.6869C93.075 98.3294 96.7025 97.9506 99.6955 98.1211C98.0001 95.4691 96.6267 91.2165 97.2613 86.4713C96.1342 86.8407 94.3157 86.8028 93.1697 86.4713C93.5107 88.9339 92.4688 93.5085 92.7435 95.6869Z" fill="black"/>
<path fill-rule="evenodd" clip-rule="evenodd" d="M218.135 180.04C223.401 191.027 228.127 203.614 229.179 219.431C229.236 220.35 229.254 221.505 227.872 221.259C226.943 213.095 225.873 205.556 223.789 198.651C221.725 191.822 219.054 185.59 216.051 179.784C209.374 178.127 205.709 172.681 202.138 166.827C199.723 162.859 196.787 158.653 194.05 154.742C193.112 153.406 192.07 151.948 191.53 150.565C191.17 149.646 191.303 148.576 191.094 147.43C190.962 146.663 190.403 145.877 190.138 145.081C189.873 144.276 189.598 143.443 189.532 142.467C189.427 140.999 189.892 139.313 189.617 137.769C189.285 135.932 188.206 134.587 187.533 132.901C186.993 131.556 186.236 128.232 188.139 127.947C189.617 127.72 190.801 129.188 191.615 130.116C192.562 131.206 193.519 132.342 193.964 133.422C194.599 133.318 195.091 132.352 195.792 132.03C194.334 131.12 195.006 128.497 196.484 128.118C195.281 127.398 193.263 124.879 194.656 123.335C195.262 122.662 196.881 122.681 197.961 123.07C197.866 121.592 196.01 120.948 196.133 119.158C196.228 117.842 197.734 116.923 199.173 117.415C202.176 118.438 204.061 123.808 204.563 127.673C204.648 128.326 204.487 128.999 204.563 129.671C204.638 130.325 205.027 131.082 205.169 131.84C205.434 133.185 205.775 134.558 205.605 136.102C206.722 135.259 207.868 132.721 208.389 130.448C208.569 129.652 208.465 128.412 209.516 128.535C210.927 128.696 209.687 131.66 209.431 132.446C208.919 133.981 208.493 135.032 207.783 136.102C208.664 138.925 209.412 141.899 210.302 144.712C211.96 143.755 213.958 142.334 216.478 141.671C218.94 141.018 222.217 141.084 224.822 141.757C222.804 133.829 222.369 125.172 220.304 116.97C219.376 113.267 217.927 109.706 215.256 107.319C213.437 105.69 211.022 104.411 208.039 103.578C207.234 103.35 205.794 102.744 205.084 102.886C204.724 102.953 203.928 103.777 203.521 104.013C199.808 106.163 195.044 108.332 189.437 108.361C180.515 108.399 174.52 103.928 172.389 96.4458C156.136 94.722 156.486 110.34 152.129 120.797C154.696 120.778 157.14 120.645 159.697 120.626C160.635 117.785 162.463 115.436 164.736 113.674C165.361 113.191 166.298 112.14 167.255 112.803C167.681 113.854 166.516 114.29 165.948 114.716C164.035 116.156 162.406 117.898 161.515 120.456C166.838 121.336 175.315 118.76 178.82 121.848C180.354 123.202 181.007 126.498 181.689 129.236C183.101 134.899 184.285 139.995 185.866 145.583C186.823 148.955 189.409 154.316 185.175 155.67C182.655 156.475 179.047 156.238 175.524 156.361C172 156.494 168.448 156.617 165.522 156.627C151.864 171.553 148.388 196.652 146.39 223.239C145.897 223.343 145.291 223.381 144.912 223.153C146.38 201.019 149.212 179.509 157.954 164.374C151.429 164.516 148.919 160.652 146.74 156.456C142.023 156.532 139.068 154.855 138.566 150.717C133.547 151.114 129.436 149.248 126.396 147.061C125.496 146.417 124.359 145.848 124.047 144.797C124.767 142.884 126.595 144.958 127.608 145.668C130.374 147.61 134.001 149.154 138.131 149.059C137.648 146.559 136.985 144.229 136.303 141.927C136.71 141.861 137.761 141.946 138.046 141.842C138.566 143.907 139.097 145.413 139.523 147.231C140.063 149.495 140.252 152.885 142.128 153.927C144.41 155.187 149.316 154.969 152.821 154.969C162.178 154.969 171.773 154.969 181.339 154.533C183.176 154.448 185.525 154.013 185.857 153.226C186.236 152.336 185.554 150.29 185.251 149.23C183.072 141.681 181.282 134.587 179.341 126.621C178.848 124.604 178.27 123.041 176.556 122.445C173.913 121.526 169.102 122.189 165.778 122.189C156.78 122.189 147.754 122.653 138.642 122.975C136.956 123.032 134.541 122.984 133.944 123.846C132.988 125.229 134.475 127.502 134.551 128.98C134.096 128.951 133.3 129.008 132.723 128.895C132.173 126.385 131.264 123.221 133.509 122.028C135.261 121.09 138.585 121.251 141.597 121.156C144.742 121.062 147.886 120.939 150.292 120.891C153.427 114.148 154.052 104.951 158.731 99.4955C159.271 98.861 160.673 97.8665 160.815 97.3266C160.966 96.7583 160.729 95.8017 160.729 95.1577C160.729 89.9011 162.406 86.6619 164.821 83.7637C166.734 81.4621 169.007 79.2932 169.689 75.3247C169.898 74.0839 170.182 72.4833 169.954 71.1478C169.793 70.2575 168.875 69.0736 168.477 68.1075C167.767 66.3838 167.056 63.6939 167.956 61.4965C168.998 58.9582 171.716 57.1681 174.046 55.7569C178.829 52.8492 185.279 50.3393 192.222 49.932C202.981 49.2975 210.255 53.0765 213.182 60.3695C214.716 64.1959 215.057 69.4904 213.968 73.8472C213.466 75.8361 212.736 77.7778 211.799 79.5016C210.634 81.6326 208.664 83.3564 209.014 86.6335C209.175 88.1678 210.084 89.7117 210.757 91.0661C212.481 94.5515 213.882 97.9801 214.849 102.375C215.038 103.246 215.01 104.335 215.284 104.989C215.559 105.652 216.866 106.4 217.463 107.073C220.901 110.994 222.198 117.122 223.202 123.505C224.159 129.624 225.324 136.121 226.593 142.202C227.824 148.102 229.321 154.287 230.069 160.898C230.912 168.352 230.173 174.793 225.551 177.937C223.581 179.282 221.336 179.831 218.135 180.04ZM203.095 60.3884C204.714 64.8873 204.335 71.0152 202.574 75.7793C204.885 72.9284 207.489 69.4241 207.622 64.6505C207.755 59.7444 205.235 56.3252 202.318 54.0426C201.39 53.3228 200.14 52.1862 199.098 51.8737C197.279 51.3243 195.442 51.6748 193.358 51.6085C198.274 52.8776 201.418 55.7096 203.095 60.3884ZM200.746 58.9109C199.657 56.9124 197.838 55.0655 195.442 54.0426C193.292 53.1239 189.333 52.0157 186.662 52.4798C183.925 52.9534 181.112 53.9858 178.573 55.1792C175.192 56.7704 171.451 58.6836 169.793 61.525C168.657 63.4571 169.396 66.3269 170.144 67.956C170.513 68.78 171.318 69.6229 171.536 70.6553C171.801 71.8961 171.612 73.6199 171.451 74.9174C170.854 79.833 168.259 82.2293 165.797 85.2696C163.467 88.1489 162.017 91.2365 162.406 96.4837C165.91 94.2958 171.574 94.6178 176.149 95.4418C177.56 95.6975 179.786 96.2753 181.017 95.707C182.959 94.8072 182.817 90.3652 183.366 88.1394C175.277 87.4101 171.754 78.2513 174.671 70.0492C171.773 70.2575 174.823 66.6868 175.628 65.6166C177.55 63.0593 179.53 61.3166 182.494 59.9622C183.631 59.4507 186.094 58.1911 187.192 58.5699C187.969 58.8351 187.893 60.1421 187.884 61.2692C187.874 69.9639 192.136 73.8188 198.056 76.4897C198.88 76.1298 199.789 75.4762 200.926 75.7035C202.972 70.5701 203.142 63.2866 200.746 58.9109ZM209.185 65.6071C208.834 70.4848 205.908 74.1787 203.71 77.0864C204.326 78.0051 204.913 79.0185 204.582 80.3919C203.862 83.3469 199.77 84.9476 196.057 84.3888C195.612 86.1315 194.987 88.1394 194.58 90.2136C194.154 92.3352 193.614 94.7409 193.794 96.8246C194.031 99.524 196.171 99.9217 198.747 100.301C204.288 101.115 209.582 101.75 213.447 103.957C212.822 100.509 212.064 97.7528 210.747 94.8262C209.516 92.07 207.035 88.9729 207.357 85.2601C207.66 81.7841 210.132 79.6247 211.354 76.7359C215.246 67.5677 212.13 56.2873 204.307 53.427C207.3 56.1642 209.592 59.9338 209.185 65.6071ZM178.223 65.1714C181.093 66.0049 183.489 68.117 183.356 71.7824C183.3 73.3073 182.476 74.8038 181.528 75.874C181.339 76.0919 178.535 79.2837 178.223 77.2663C178.09 76.4139 179.606 75.732 180.307 74.9174C180.761 74.387 181.244 73.6672 181.434 73.1747C182.75 69.9166 180.108 67.0752 177.522 66.649C176.348 69.926 175.022 73.3831 175.258 77.1716C175.618 83.0344 179.587 86.444 185.516 86.7377C186.472 86.785 187.997 86.4346 188.035 87.5238C188.083 88.774 185.876 88.3383 184.995 88.3099C184.275 91.407 184.465 94.9209 182.476 96.6541C180.487 98.3874 176.736 97.0235 174.131 96.8246C175.827 102.062 179.89 105.358 185.961 106.391C192.619 107.527 198.501 105.131 202.829 102.479C198.956 101.674 195.12 102.233 193.178 99.8649C191.407 97.7055 192.288 93.6517 193.008 90.0431C193.263 88.774 193.462 87.5332 193.879 86.0462C194.192 84.9002 194.731 82.8165 195.357 82.6555C195.698 82.5703 196.285 82.7976 196.834 82.826C197.497 82.8639 198.312 82.8923 198.918 82.826C200.556 82.646 203.189 81.32 203.009 79.35C202.915 78.346 201.712 77.1905 200.405 77.2663C199.638 77.3137 198.956 78.4502 198.056 78.3934C197.762 78.3745 197.364 77.9483 196.929 77.702C196.493 77.4557 195.953 77.2758 195.622 77.0958C189.863 73.9514 185.781 69.3388 186.226 60.3126C182.892 61.3734 179.947 62.6615 178.223 65.1714ZM201.181 121.952C200.462 120.55 199.24 118.505 197.791 119.167C198.444 120.891 199.742 121.962 200.054 124.036C200.518 124.244 201.001 124.614 201.447 124.992C201.844 125.333 202.271 125.949 202.574 125.864C202.29 124.737 201.854 123.25 201.181 121.952ZM195.877 124.566C196.607 127.749 200.594 127.673 202.744 129.434C201.901 127.01 198.653 124.13 195.877 124.566ZM200.225 147.174C199.846 146.956 199.922 146.369 200.14 145.867C200.537 144.939 200.168 145.697 200.831 144.56C202.725 141.349 205.936 134.928 202.574 131.433C201.721 130.552 197.866 128.033 196.578 130.391C197.516 131.149 198.188 130.988 199.012 131.433C200.31 132.124 200.983 133.592 201.096 134.824C201.778 141.813 192.288 141.757 192.657 148.387C192.78 150.688 194.457 152.289 195.612 153.956C198.454 158.057 200.793 161.609 203.436 165.956C205.14 168.759 206.694 171.421 208.91 173.694C210.937 175.768 214.072 178.117 217.519 178.392C220.266 178.61 222.625 177.833 224.301 176.829C228.809 174.139 229.169 167.774 228.383 161.002C227.663 154.751 226.328 149.144 225.248 143.433C219.603 141.889 213.74 143.575 210.814 146.568C211.268 148.453 212.007 150.717 212.642 152.914C213.314 155.244 213.646 157.65 214.47 159.345C214.688 159.8 217.273 162.395 215.341 162.565C214.583 162.631 214.006 161.353 213.513 160.737C209.601 155.831 205.595 151.076 201.778 146.388C201.503 146.473 201.068 147.648 200.225 147.174ZM188.49 129.955C188.556 133.213 190.981 134.862 191.274 137.959C191.473 140.109 190.716 143.386 191.795 144.911C192.572 142.031 197.885 140.232 199.183 137.173C199.912 135.449 199.23 132.446 197.535 132.655C197.166 132.702 196.503 133.469 196.143 133.782C195.603 134.246 195.214 134.644 194.836 135.089C195.006 135.761 195.432 136.178 195.357 137.087C194.163 138.47 193.68 136.405 193.273 135.524C192.155 133.1 190.479 130.846 188.755 129.7C188.49 129.785 188.49 129.87 188.49 129.955ZM205.008 139.256C204.563 140.099 204.383 141.245 203.966 142.211C203.549 143.187 202.99 144.03 202.574 144.911C205.491 148.207 208.436 152.033 211.268 155.348C211.373 155.471 211.515 155.926 211.789 155.784C209.971 149.807 208.408 143.575 206.485 137.693C206.182 138.347 205.368 138.584 205.008 139.256ZM159.006 162.736C160.085 161.315 161.175 159.553 162.226 158.123C162.567 157.659 163.163 157.252 163.097 156.731C158.21 156.75 153.351 156.731 148.663 156.56C150.481 160.188 153.238 163.351 159.006 162.736Z" fill="black"/>
<path fill-rule="evenodd" clip-rule="evenodd" d="M86.4827 66.3838C85.0809 64.7547 89.3335 63.2772 91.5214 63.4287C93.0747 63.5329 96.0014 64.319 95.8688 65.5124C95.7551 66.5921 94.4386 66.0617 93.6998 65.7776C92.8569 65.4556 91.8434 65.1619 91.0952 65.1714C88.9831 65.1809 88.2443 66.5448 86.4827 66.3838Z" fill="black"/>
<path fill-rule="evenodd" clip-rule="evenodd" d="M91.3513 67.2547C92.592 66.8948 92.9804 67.7662 93.1793 68.7323C93.274 69.1869 93.4255 70.1719 93.3497 70.475C93.1698 71.2611 91.8533 71.8483 91.0861 71.0812C90.3379 70.3235 90.1579 67.6052 91.3513 67.2547Z" fill="black"/>
<path fill-rule="evenodd" clip-rule="evenodd" d="M102.745 68.9975C104.431 68.9122 104.801 72.786 102.831 72.7387C101.268 72.7008 100.69 69.1017 102.745 68.9975Z" fill="black"/>
<path fill-rule="evenodd" clip-rule="evenodd" d="M178.923 69.6046C181.281 69.2162 180.628 73.2321 179.093 73.431C176.744 73.7341 177.246 69.8792 178.923 69.6046Z" fill="black"/>
<path fill-rule="evenodd" clip-rule="evenodd" d="M75.0891 69.8687C76.0457 69.4236 76.6708 70.7117 77.2675 71.4315C77.8168 72.104 79.569 73.9887 77.8737 74.2161C77.2201 74.3013 74.7481 71.5736 74.6534 70.8253C74.5682 70.1244 74.8239 69.9918 75.0891 69.8687Z" fill="black"/>
<path fill-rule="evenodd" clip-rule="evenodd" d="M188.309 74.3013C190.876 73.6004 190.185 77.5878 188.66 77.7773C186.425 78.0614 186.841 74.6991 188.309 74.3013Z" fill="black"/>
<path fill-rule="evenodd" clip-rule="evenodd" d="M91.7015 76.5653C92.5634 76.2243 92.9706 77.0957 93.5294 77.6072C93.8799 77.9292 94.3345 78.3459 94.9217 78.649C95.7552 79.0752 98.2462 79.1605 98.3977 79.956C98.786 81.9166 95.0259 80.6475 94.3061 80.3065C93.2074 79.7761 91.2279 78.4028 91.1711 77.4367C91.1521 76.9063 91.37 76.6884 91.7015 76.5653Z" fill="black"/>
<path fill-rule="evenodd" clip-rule="evenodd" d="M201.702 78.902C202.175 79.8396 201.247 80.1427 200.224 80.55C199.277 80.9288 197.544 81.857 197.44 80.55C197.392 79.9249 198.103 79.6218 198.832 79.3282C199.817 78.9493 200.812 78.3432 201.702 78.902Z" fill="black"/>
<path fill-rule="evenodd" clip-rule="evenodd" d="M180.485 82.824C181.527 82.2273 184.065 83.1081 184.662 81.6969C183.26 81.8768 181.982 81.8105 180.75 81.3464C180.286 81.1759 179.443 80.7971 179.358 80.3046C179.036 78.3535 181.385 79.992 182.493 80.1341C184.691 80.4088 186.424 79.4332 186.755 80.8255C187.238 82.8524 183.99 84.2731 182.578 84.3015C181.413 84.3204 179.983 84.0931 180.485 82.824Z" fill="black"/>
<path fill-rule="evenodd" clip-rule="evenodd" d="M106.829 111.693C107.994 111.248 110.409 113.114 111.347 113.777C115.201 116.485 119.246 120.823 118.734 127.955C118.478 131.535 116.859 134.121 115.258 136.479C114.737 137.247 113.885 138.052 113.61 138.743C113.089 140.012 113.013 141.925 112.739 143.526C112.18 146.737 111.612 149.569 110.996 152.922C110.712 154.475 110.087 156.473 110.21 157.705C110.324 158.775 111.489 160.527 111.953 161.446C118.649 174.762 123.83 188.572 127.694 205.014C128.641 209.068 129.655 213.794 130.564 218.321C130.744 219.202 131.738 222.261 130.564 222.498C129.266 222.754 129.03 219.732 128.821 218.757C125.336 201.832 121.31 186.516 115.173 172.584C113.591 168.985 111.905 165.064 110.039 161.37C109.613 160.527 108.259 158.529 108.212 157.809C108.174 157.259 108.647 156.303 108.818 155.375C109.755 150.298 110.655 145.326 111.602 140.249C111.763 139.378 111.754 138.402 112.038 137.73C112.369 136.962 113.013 136.735 113.43 136.167C115.277 133.628 116.755 131.138 116.991 127.557C117.285 123.229 115.514 120.227 113.601 118.077C112.35 116.675 110.172 115.084 108.126 113.9C107.312 113.388 105.73 112.621 106.829 111.693Z" fill="black"/>
<path fill-rule="evenodd" clip-rule="evenodd" d="M57.7001 184.48C57.6243 184.973 58.0221 186.668 57.9653 187.18C57.8706 187.994 56.573 189.983 56.1373 190.921C52.3867 198.953 49.981 208.746 48.9202 219.619C48.8633 220.187 48.9202 221.39 47.9636 221.362C46.5618 221.314 47.4521 217.138 47.5279 216.494C48.8349 205.838 51.4017 196.481 55.3512 188.496C56.0331 187.123 56.6961 185.731 57.4349 184.585C57.577 184.585 57.5864 184.48 57.7001 184.48Z" fill="black"/>
<path fill-rule="evenodd" clip-rule="evenodd" d="M136.091 122.443C135.56 122.5 134.916 122.897 134.698 122.964C133.353 119.251 133.107 113.777 135.305 111.134C138.354 107.478 145.07 107.09 145.562 100.697C145.78 97.8837 145.259 95.7053 144.435 93.5648C143.185 94.4456 143.952 95.7148 143.829 97.2207C143.497 101.246 140.249 103.226 136.782 104.087C135.39 104.438 133.789 104.646 132.69 105.48C131.469 106.417 130.702 108.132 130.171 110.092C129.982 110.774 129.944 111.513 129.129 111.399C127.784 111.21 129.281 107.658 129.565 107.052C130.133 105.849 131.241 104.438 132.264 103.832C133.96 102.828 135.996 102.818 137.739 102.174C140.277 101.256 142.238 99.7685 142.257 96.2641C138.582 97.8932 134.935 100.308 131.213 102.174C131.279 102.979 131.743 103.822 131.042 104.258C129.745 104.343 129.669 102.667 129.48 101.739C128.788 98.4046 128.807 94.3509 126.439 92.7787C126.326 94.635 127.055 95.819 127.046 97.5617C127.036 99.8537 126.061 101.464 125.483 103.301C124.905 105.12 124.365 107.071 124.526 109.647C124.649 111.598 125.379 113.483 125.653 115.557C126.496 121.884 125.142 128.883 125.132 135.561C125.123 140.827 125.918 146.68 126.875 151.473C126.989 152.031 127.311 152.978 126.61 153.121C126.297 153.187 126.042 153.49 125.653 152.079C123.57 144.54 123.825 134.292 124.261 125.559C124.375 123.238 124.441 120.425 124.346 118.077C124.252 115.68 123.607 113.578 123.219 111.551C122.755 109.145 122.992 106.72 123.475 104.589C124.109 101.833 125.644 99.7211 125.388 96.8513C125.255 95.3643 123.939 91.2538 126.079 91.0265C127.405 90.8844 128.836 92.7881 129.385 93.8963C130.313 95.7905 130.379 98.1205 130.777 100.507C131.819 100.308 132.728 99.6359 133.647 99.115C136.403 97.5712 139.283 95.9042 142.171 94.4172C142.275 92.7881 144.037 91.2822 145.562 92.4187C147.134 91.1969 152.628 88.9238 153.13 92.6839C155.687 94.5309 151.482 97.5712 150.26 98.8593C148.612 100.593 147.598 102.212 146.433 103.642C145.249 108.425 138.525 108.87 136.081 112.687C134.575 115.074 135.144 119.232 136.091 122.443ZM146.263 93.7447C146.291 94.1804 146.509 94.4267 146.528 94.8718C147.939 93.7921 149.322 92.6839 151.576 92.4377C149.587 91.6705 147.684 93.1007 146.263 93.7447ZM146.964 96.6998C147.04 97.7795 147.201 98.774 147.134 100.005C148.744 97.9311 150.819 96.3304 152.353 94.1804C149.748 93.8773 148.309 95.4685 146.964 96.6998Z" fill="black"/>
<path fill-rule="evenodd" clip-rule="evenodd" d="M143.139 154.966C143.584 155.108 144.048 155.156 144.531 155.052C145.223 163.017 142.258 168.671 136.878 170.878C131.877 172.924 127.104 170.603 123.922 168.179C118.722 164.229 114.725 158.537 111.656 152.437C111.05 151.235 110.131 149.909 110.349 148.526C111.609 147.863 112.385 150.676 112.869 151.661C114.611 155.184 116.875 158.556 119.214 161.492C122.027 165.025 126.394 169.903 132.001 170.272C135.42 170.499 137.986 169.116 139.909 167.137C142.4 164.599 143.537 160.299 143.139 154.966Z" fill="black"/>
<path fill-rule="evenodd" clip-rule="evenodd" d="M91.125 140.901L96.6752 140.152C96.6752 140.152 97.4613 140.721 97.4613 140.901C97.4613 141.09 97.4613 144.064 97.4613 144.064C97.4613 144.064 97.9349 146.138 97.9349 146.29C97.9349 146.441 98.058 151.272 98.1243 151.366C98.1906 151.461 97.8686 154.833 97.7171 155.032C97.5561 155.231 95.1124 156.67 94.7999 156.888C94.4873 157.106 91.8827 157.295 91.5039 156.14C91.1156 154.975 91.125 140.901 91.125 140.901Z" fill="#EFEFEF"/>
<path fill-rule="evenodd" clip-rule="evenodd" d="M86.3877 141.507C88.3766 140.863 91.3506 140.153 93.9553 139.679C94.874 139.509 96.0105 139.205 96.7398 139.329C98.4447 139.613 99.6854 142.265 98.3026 144.112C99.3539 145.22 98.8519 146.925 98.994 148.288C99.0414 148.762 99.2876 149.198 99.3444 149.681C99.4676 150.817 99.3634 152.588 99.2592 153.422C99.0319 155.212 96.8156 156.813 95.0823 158.12C91.4169 160.876 87.2874 162.638 82.2108 164.38C81.5099 164.626 79.4357 165.64 79.341 164.21C79.2557 162.884 82.8927 162.297 84.124 161.861C89.3238 160.042 93.7374 157.239 97.0808 153.687C97.7627 150.912 96.9671 147.919 96.9956 145.428C96.3231 145.03 95.2055 145.144 95.3475 144.216C95.4233 143.685 95.8969 143.676 96.4746 143.43C96.7967 142.842 97.3365 141.753 96.6451 141.251C96.1242 140.872 94.1447 141.545 92.9892 141.772C90.5456 142.255 87.7894 142.681 85.9425 143.771C84.967 144.348 83.0727 146.281 82.3813 144.898C81.7657 143.666 83.7262 143.354 84.2945 142.634C84.5029 140.958 84.787 138.969 83.6031 138.116C83.4137 140.939 82.1256 143.316 80.648 145.163C80.1366 145.797 79.3599 146.356 79 147.076C78.5075 148.052 78.1476 149.179 77.693 150.637C77.3047 151.916 76.869 154.852 75.1736 153.678C74.8042 152.2 75.4577 150.751 75.865 149.501C76.2628 148.27 76.6985 146.839 77.3425 145.845C77.7782 145.182 78.4791 144.737 78.9906 144.102C80.487 142.255 81.5857 139.954 81.7751 136.714C84.3229 134.849 86.9749 138.334 86.3877 141.507Z" fill="black"/>
<path fill-rule="evenodd" clip-rule="evenodd" d="M140.47 135.267C141.341 136.318 143.51 138.752 141.777 140.22C143.074 141.537 142.118 143.384 140.129 143.441C138.803 143.478 135.677 142.437 136.388 140.836C137.865 140.381 138.793 142.257 140.65 141.707C139.532 139.633 136.833 139.15 134.91 137.881C133.347 138.525 133.167 140.59 134.039 141.793C134.531 142.475 135.355 142.825 136.037 143.1C136.596 143.327 138.017 143.592 138.036 144.321C138.073 145.723 135.611 144.729 135.251 144.587C134.285 144.179 133.262 143.488 132.817 142.939C132.031 141.973 132.173 140.959 131.86 139.804C131.595 138.819 130.799 138.127 130.553 137.019C130.477 136.697 130.553 136.394 130.468 136.062C129.909 133.998 128.138 131.317 129.777 129.196C130.515 128.239 132.201 127.595 134.039 127.718C136.047 127.86 137.458 128.732 138.736 129.887C140.034 131.062 142.62 133.837 140.47 135.267ZM133.953 129.357C131.178 129.186 130.127 130.948 131.084 133.448C131.434 133.193 131.709 132.833 132.125 132.577C132.523 132.34 133.243 131.838 133.518 131.791C134.029 131.706 134.304 132.018 134.74 132.141C136.691 132.691 137.856 133.23 139.608 133.789C138.86 131.98 136.719 129.527 133.953 129.357ZM137.429 134.926C136.539 134.632 135.043 133.884 134.294 133.799C132.144 133.543 131.661 136.006 132.646 137.71C133.234 136.706 134.238 136.129 135.516 136.233C137.619 136.394 138.86 138.317 140.65 138.667C140.148 137.663 138.822 135.38 137.429 134.926Z" fill="black"/>
<path fill-rule="evenodd" clip-rule="evenodd" d="M134.787 120.906C135.081 121.257 135.223 121.749 135.829 121.778C135.744 122.213 135.147 122.138 134.958 122.469C134.825 122.024 134.787 121.484 134.787 120.906Z" fill="black"/>
<path fill-rule="evenodd" clip-rule="evenodd" d="M124.348 121.258C124.651 123.18 125.475 125.169 125.57 127.083C125.664 129.157 125.219 131.619 125.219 134.129C125.219 140.352 125.759 145.647 126.782 151.083C126.867 151.528 127.559 153.517 126.432 153.688C125.106 153.887 124.954 151.026 124.784 150.032C123.287 141.479 123.192 131.563 123.912 121.855C124.168 121.769 124.215 121.466 124.348 121.258Z" fill="black"/>
<path fill-rule="evenodd" clip-rule="evenodd" d="M142.694 155.513C143.092 155.456 143.812 155.845 144.607 155.684C144.74 161.073 144.067 164.549 141.908 167.419C139.919 170.071 136.822 172.277 132.427 172.287C126.148 172.296 121.289 167.191 118.248 163.507C115.795 160.523 113.513 156.877 111.467 153.069C111.117 152.425 108.654 148.608 110.596 148.637C111.713 148.656 112.452 151.071 112.859 151.857C116.013 157.89 119.404 163.185 124.689 167.248C126.924 168.972 129.254 170.44 132.342 170.468C135.922 170.506 139.01 168.489 140.686 166.036C142.486 163.422 142.988 159.965 142.694 155.513Z" fill="black"/>
</svg>
