<svg width="71" height="22" viewBox="0 0 71 22" fill="none" xmlns="http://www.w3.org/2000/svg">
<path d="M6.71189 0.675781C8.1362 0.675781 8.58366 1.68348 8.95549 2.69119C9.11305 3.12039 12.8125 13.1166 12.9259 13.4151C12.9574 13.496 12.9385 13.6328 12.8062 13.6826C12.6738 13.7324 10.7516 14.4726 10.6445 14.5099C10.5374 14.5472 10.4176 14.4913 10.3798 14.3855C10.342 14.2798 9.5416 12.1026 9.45337 11.86C9.18868 11.86 4.23511 11.86 3.97042 11.86C3.88218 12.1026 3.0755 14.286 3.03768 14.3855C2.99987 14.485 2.88643 14.5535 2.77299 14.5099C2.65955 14.4664 0.731061 13.7262 0.617621 13.6826C0.50418 13.6391 0.453762 13.5147 0.497877 13.4151C0.636527 13.0419 4.27923 3.20126 4.46199 2.69119C4.82752 1.70215 5.29389 0.675781 6.71189 0.675781ZM0.207974 18.5718C0.0945337 18.5718 0 18.6651 0 18.7833V21.116C0 21.2342 0.0945337 21.3275 0.207974 21.3275H13.2221C13.3356 21.3275 13.4301 21.2342 13.4301 21.116V18.7833C13.4301 18.6651 13.3356 18.5718 13.2221 18.5718H0.207974ZM6.70559 3.94148L4.85273 9.43409H8.58996L6.7308 3.94148H6.70559ZM55.1321 12.0031C55.1321 12.6251 54.7854 13.0357 54.1426 13.0357C53.8905 13.0357 53.6825 13.0357 53.3485 12.9486V11.07C53.4935 11.0452 53.796 11.0016 54.1426 11.0141C54.7917 11.0327 55.1321 11.3313 55.1321 12.0031ZM56.4492 11.9098C56.4492 10.759 55.7623 9.96282 54.3254 9.96282C53.9724 9.96282 53.7267 9.99392 53.3422 10.0872V8.42638C53.5817 8.39528 53.985 8.36418 54.4325 8.36418C54.8548 8.36418 55.3904 8.38906 55.8631 8.44504L55.8946 7.48089C55.3589 7.3627 54.5838 7.28805 53.985 7.28805C53.3926 7.28805 52.4725 7.43734 52.0313 7.54931V13.6826C52.712 13.9314 53.38 14.0434 54.067 14.0434C55.6362 14.0496 56.4492 13.2285 56.4492 11.9098ZM41.5003 11.5801C41.5003 12.4385 41.1537 12.9859 40.5865 12.9859C40.347 12.9859 40.2209 12.9735 39.9499 12.8864V10.3174C40.2462 10.1805 40.4037 10.1805 40.6432 10.1805C41.2104 10.1805 41.5003 10.6408 41.5003 11.5801ZM37.1644 11.605C37.1644 10.6719 37.448 10.1805 38.0152 10.1805C38.2546 10.1805 38.4122 10.1805 38.7084 10.3174V12.8864C38.4374 12.9735 38.3114 12.9859 38.0719 12.9859C37.4353 12.9859 37.1644 12.4634 37.1644 11.605ZM39.9499 15.4554V13.7821C40.1075 13.8754 40.4226 14.0123 40.9457 14.0123C41.9982 14.0123 42.767 13.1539 42.767 11.5801C42.767 9.88818 41.9982 9.16039 40.7377 9.16039C40.4163 9.16039 40.2083 9.19149 39.9499 9.3159V7.31916H38.7147V9.3159C38.4563 9.19149 38.242 9.16039 37.9269 9.16039C36.6665 9.16039 35.8976 9.91306 35.8976 11.6112C35.8976 13.185 36.5908 14.0185 37.7189 14.0185C38.2483 14.0185 38.5634 13.8817 38.721 13.7884V15.4616H39.9499V15.4554ZM30.5722 13.9314V9.44653C29.8916 9.24747 29.3685 9.16039 28.6878 9.16039C28.0072 9.16039 27.4967 9.24747 26.8161 9.44653V11.7419C26.8161 12.3639 26.8035 12.5505 26.7341 12.7558C26.6648 12.9299 26.5766 13.1477 26.3245 13.3094L26.6648 14.0247C27.6606 13.7448 28.0324 13.3218 28.0324 11.9658V10.2801C28.3601 10.2303 28.4294 10.2241 28.6878 10.2241C28.9525 10.2241 29.0092 10.2365 29.337 10.2801V13.9376H30.5722V13.9314ZM45.8362 12.9486C45.5652 13.0419 45.3825 13.0606 45.1682 13.0606C44.727 13.0606 44.475 12.8864 44.475 12.4385C44.475 11.972 44.7901 11.8165 45.4077 11.8165C45.5526 11.8165 45.7039 11.8414 45.7732 11.86V12.1959C45.7732 12.5567 45.7858 12.7931 45.8362 12.9486ZM47.4118 13.4836C47.0841 12.9921 47.0022 12.706 47.0022 12.084V10.8337C47.0022 10.1557 46.9202 9.90684 46.7375 9.65802C46.4854 9.30968 46.0694 9.16039 45.2942 9.16039C44.7523 9.16039 44.2103 9.21637 43.6998 9.347L43.8825 10.2427C44.2292 10.193 44.5947 10.1557 44.8531 10.1557C45.6724 10.1557 45.7669 10.2738 45.7669 10.8772V11.1074C45.5841 11.0576 45.3762 11.0265 45.143 11.0265C43.9015 11.0265 43.2523 11.6237 43.2523 12.6065C43.2523 13.5333 43.9519 14.0372 44.8027 14.0372C45.1178 14.0372 45.4518 13.9812 45.7102 13.8754C45.8678 13.807 45.9371 13.7697 46.1387 13.6328C46.2648 13.8132 46.5106 13.9936 46.6114 14.0247L47.4118 13.4836ZM59.4995 12.9486C59.2285 13.0419 59.0458 13.0606 58.8315 13.0606C58.3903 13.0606 58.1382 12.8864 58.1382 12.4385C58.1382 11.972 58.4533 11.8165 59.071 11.8165C59.2222 11.8165 59.3672 11.8414 59.4365 11.86V12.1959C59.4365 12.5567 59.4554 12.7931 59.4995 12.9486ZM61.0751 13.4836C60.7474 12.9921 60.6591 12.706 60.6591 12.084V10.8337C60.6591 10.1557 60.5835 9.90684 60.4007 9.65802C60.1486 9.30968 59.7327 9.16039 58.9575 9.16039C58.4092 9.16039 57.8798 9.21637 57.3631 9.347L57.5458 10.2427C57.8924 10.193 58.258 10.1557 58.5164 10.1557C59.3357 10.1557 59.4302 10.2738 59.4302 10.8772V11.1074C59.2474 11.0576 59.0457 11.0265 58.8063 11.0265C57.571 11.0265 56.9156 11.6237 56.9156 12.6065C56.9156 13.5333 57.6151 14.0372 58.4659 14.0372C58.7811 14.0372 59.1151 13.9812 59.3735 13.8754C59.531 13.807 59.6003 13.7697 59.802 13.6328C59.9281 13.8132 60.1739 13.9936 60.2747 14.0247L61.0751 13.4836ZM34.0952 12.3203C34.0952 12.7807 33.9313 13.0917 33.3389 13.0917C33.1372 13.0917 33.0553 13.0917 32.7969 13.017V11.6734C33.1183 11.6112 33.1498 11.5988 33.3389 11.5988C33.9061 11.6112 34.0952 11.8787 34.0952 12.3203ZM31.5554 9.23503L31.549 13.6826C32.1352 13.9252 32.7843 14.0372 33.3578 14.0372C34.675 14.0372 35.3808 13.3654 35.3808 12.2581C35.3808 11.2567 34.7569 10.6346 33.591 10.6346C33.2948 10.6346 33.1183 10.6719 32.7969 10.7528V9.22881H31.5554V9.23503ZM65.6064 13.9314V9.27858H64.3648V11.0389H62.9594V9.27858H61.7242V13.9314H62.9594V12.0342H64.3648V13.9314H65.6064ZM70.6923 13.9314C70.6923 13.9314 70.018 12.507 69.8478 12.1835C69.665 11.8165 69.4886 11.5677 69.1104 11.4744V11.4557C69.3688 11.4059 69.5705 11.2567 69.7911 10.7901C70.0054 10.336 70.0684 10.2365 70.1881 10.1308C70.3079 10.025 70.478 10.0623 70.478 10.0623L70.5411 9.21637C70.3646 9.19149 70.1692 9.19149 69.9612 9.20393C69.6272 9.22259 69.4508 9.3159 69.2869 9.48385C69.1609 9.60826 69.0726 9.79487 68.9592 10.0188C68.8394 10.2552 68.7512 10.4418 68.6315 10.6844C68.5117 10.927 68.455 11.0389 68.1336 11.0389H67.9256V9.27858H66.6841V13.9314H67.9256V12.028H68.0958C68.4487 12.028 68.5117 12.1151 68.7008 12.4821C68.9214 12.9237 69.3373 13.9314 69.3373 13.9314H70.6923ZM24.5157 13.9314H25.9401L23.7847 7.4249C23.5578 7.35026 23.2742 7.30049 22.978 7.30049C22.6503 7.30049 22.5368 7.34404 22.2784 7.4249L19.9907 13.9314H21.3583C21.3583 13.9314 21.5411 13.3654 21.768 12.6562H24.1313C24.3393 13.3592 24.5157 13.9314 24.5157 13.9314ZM22.1146 11.5677C22.1146 11.5677 22.5116 10.2614 22.5683 10.0623C22.7259 9.53361 22.9654 8.70008 22.9654 8.70008H23.0032C23.0032 8.70008 23.2238 9.56471 23.3687 10.0561C23.4255 10.249 23.8036 11.5739 23.8036 11.5739H22.1146V11.5677ZM49.5168 10.8212C49.0819 10.8212 48.729 11.1696 48.729 11.5988C48.729 12.0342 49.0819 12.3826 49.5168 12.3826C49.9516 12.3826 50.3045 12.0342 50.3045 11.5988C50.3045 11.1758 49.9516 10.8212 49.5168 10.8212Z" fill="#E4220A"/>
</svg>
