<svg width="89" height="26" viewBox="0 0 89 26" fill="none" xmlns="http://www.w3.org/2000/svg">
<g style="mix-blend-mode:luminosity" opacity="0.6">
<path d="M8.45012 0C10.2433 0 10.8066 1.26868 11.2748 2.53735C11.4731 3.07771 16.1306 15.6627 16.2734 16.0386C16.3131 16.1404 16.2893 16.3127 16.1227 16.3753C15.956 16.438 13.5361 17.3699 13.4012 17.4169C13.2663 17.4639 13.1155 17.3934 13.0679 17.2602C13.0203 17.1271 12.0127 14.3861 11.9016 14.0807C11.5683 14.0807 5.33191 14.0807 4.99866 14.0807C4.88758 14.3861 3.87198 17.1349 3.82437 17.2602C3.77677 17.3855 3.63395 17.4717 3.49113 17.4169C3.34831 17.362 0.920389 16.4301 0.77757 16.3753C0.634751 16.3205 0.571276 16.1639 0.626816 16.0386C0.801373 15.5687 5.38745 3.17952 5.61755 2.53735C6.07774 1.29217 6.66488 0 8.45012 0ZM0.261835 22.5307C0.119016 22.5307 0 22.6482 0 22.797V25.7337C0 25.8825 0.119016 26 0.261835 26H16.6463C16.7892 26 16.9082 25.8825 16.9082 25.7337V22.797C16.9082 22.6482 16.7892 22.5307 16.6463 22.5307H0.261835ZM8.44219 4.11145L6.10948 11.0265H10.8146L8.47392 4.11145H8.44219ZM69.41 14.2608C69.41 15.044 68.9736 15.5608 68.1643 15.5608C67.8469 15.5608 67.5851 15.5608 67.1646 15.4512V13.0861C67.3471 13.0548 67.7279 13 68.1643 13.0157C68.9816 13.0392 69.41 13.4151 69.41 14.2608ZM71.0683 14.1434C71.0683 12.6946 70.2034 11.6922 68.3944 11.6922C67.9501 11.6922 67.6406 11.7313 67.1566 11.8488V9.75783C67.4582 9.71868 67.966 9.67952 68.5293 9.67952C69.0609 9.67952 69.7353 9.71084 70.3304 9.78133L70.3701 8.56747C69.6956 8.41868 68.7197 8.3247 67.966 8.3247C67.2201 8.3247 66.0617 8.51265 65.5063 8.65362V16.3753C66.3632 16.6886 67.2043 16.8295 68.0691 16.8295C70.0448 16.8374 71.0683 15.8036 71.0683 14.1434ZM52.2479 13.7283C52.2479 14.809 51.8115 15.4982 51.0974 15.4982C50.7959 15.4982 50.6373 15.4825 50.2961 15.3729V12.1386C50.669 11.9663 50.8673 11.9663 51.1689 11.9663C51.8829 11.9663 52.2479 12.5458 52.2479 13.7283ZM46.7891 13.7596C46.7891 12.5849 47.1461 11.9663 47.8602 11.9663C48.1617 11.9663 48.3601 11.9663 48.733 12.1386V15.3729C48.3918 15.4825 48.2331 15.4982 47.9316 15.4982C47.1302 15.4982 46.7891 14.8404 46.7891 13.7596ZM50.2961 18.6072V16.5006C50.4944 16.6181 50.8912 16.7904 51.5497 16.7904C52.8747 16.7904 53.8427 15.7096 53.8427 13.7283C53.8427 11.5982 52.8747 10.6819 51.2879 10.6819C50.8832 10.6819 50.6214 10.7211 50.2961 10.8777V8.36386H48.7409V10.8777C48.4156 10.7211 48.1459 10.6819 47.7491 10.6819C46.1623 10.6819 45.1943 11.6295 45.1943 13.7675C45.1943 15.7488 46.067 16.7982 47.4873 16.7982C48.1538 16.7982 48.5505 16.6259 48.7489 16.5084V18.6151H50.2961V18.6072ZM38.4897 16.6886V11.0422C37.6328 10.7916 36.9742 10.6819 36.1173 10.6819C35.2604 10.6819 34.6177 10.7916 33.7608 11.0422V13.9319C33.7608 14.7151 33.7449 14.95 33.6577 15.2084C33.5704 15.4277 33.4593 15.7018 33.1419 15.9054L33.5704 16.806C34.824 16.4536 35.2922 15.9211 35.2922 14.2139V12.0916C35.7047 12.0289 35.792 12.0211 36.1173 12.0211C36.4506 12.0211 36.522 12.0367 36.9346 12.0916V16.6964H38.4897V16.6886ZM57.7068 15.4512C57.3656 15.5687 57.1355 15.5922 56.8657 15.5922C56.3103 15.5922 55.993 15.3729 55.993 14.809C55.993 14.2217 56.3897 14.0259 57.1672 14.0259C57.3497 14.0259 57.5402 14.0572 57.6274 14.0807V14.5036C57.6274 14.9578 57.6433 15.2554 57.7068 15.4512ZM59.6904 16.1247C59.2778 15.506 59.1747 15.1458 59.1747 14.3627V12.7886C59.1747 11.9349 59.0715 11.6217 58.8414 11.3084C58.524 10.8699 58.0004 10.6819 57.0244 10.6819C56.3421 10.6819 55.6597 10.7524 55.017 10.9169L55.2471 12.0446C55.6835 11.9819 56.1437 11.9349 56.469 11.9349C57.5005 11.9349 57.6195 12.0837 57.6195 12.8434V13.1331C57.3894 13.0705 57.1276 13.0313 56.834 13.0313C55.2709 13.0313 54.4537 13.7831 54.4537 15.0205C54.4537 16.1874 55.3344 16.8217 56.4055 16.8217C56.8023 16.8217 57.2228 16.7512 57.5481 16.6181C57.7465 16.5319 57.8337 16.4849 58.0876 16.3127C58.2463 16.5398 58.5558 16.7669 58.6827 16.806L59.6904 16.1247ZM74.9085 15.4512C74.5674 15.5687 74.3373 15.5922 74.0675 15.5922C73.5121 15.5922 73.1947 15.3729 73.1947 14.809C73.1947 14.2217 73.5914 14.0259 74.369 14.0259C74.5594 14.0259 74.7419 14.0572 74.8292 14.0807V14.5036C74.8292 14.9578 74.853 15.2554 74.9085 15.4512ZM76.8921 16.1247C76.4795 15.506 76.3685 15.1458 76.3685 14.3627V12.7886C76.3685 11.9349 76.2733 11.6217 76.0432 11.3084C75.7258 10.8699 75.2021 10.6819 74.2262 10.6819C73.5359 10.6819 72.8694 10.7524 72.2188 10.9169L72.4489 12.0446C72.8853 11.9819 73.3455 11.9349 73.6708 11.9349C74.7022 11.9349 74.8213 12.0837 74.8213 12.8434V13.1331C74.5912 13.0705 74.3373 13.0313 74.0358 13.0313C72.4806 13.0313 71.6554 13.7831 71.6554 15.0205C71.6554 16.1874 72.5362 16.8217 73.6073 16.8217C74.004 16.8217 74.4245 16.7512 74.7498 16.6181C74.9482 16.5319 75.0355 16.4849 75.2894 16.3127C75.4481 16.5398 75.7575 16.7669 75.8845 16.806L76.8921 16.1247ZM42.925 14.6602C42.925 15.2398 42.7187 15.6313 41.9729 15.6313C41.719 15.6313 41.6159 15.6313 41.2905 15.5374V13.8458C41.6952 13.7675 41.7349 13.7518 41.9729 13.7518C42.687 13.7675 42.925 14.1042 42.925 14.6602ZM39.7275 10.7759L39.7195 16.3753C40.4574 16.6807 41.2747 16.8217 41.9967 16.8217C43.655 16.8217 44.5436 15.9759 44.5436 14.5819C44.5436 13.3211 43.7581 12.538 42.2903 12.538C41.9174 12.538 41.6952 12.5849 41.2905 12.6867V10.7681H39.7275V10.7759ZM82.597 16.6886V10.8307H81.0339V13.047H79.2645V10.8307H77.7094V16.6886H79.2645V14.3H81.0339V16.6886H82.597ZM89 16.6886C89 16.6886 88.151 14.8952 87.9368 14.488C87.7067 14.0259 87.4845 13.7127 87.0085 13.5952V13.5717C87.3338 13.509 87.5877 13.3211 87.8654 12.7337C88.1352 12.162 88.2145 12.0367 88.3653 11.9036C88.516 11.7705 88.7302 11.8175 88.7302 11.8175L88.8096 10.7524C88.5874 10.7211 88.3415 10.7211 88.0796 10.7367C87.6591 10.7602 87.4369 10.8777 87.2306 11.0892C87.072 11.2458 86.9609 11.4807 86.8181 11.7627C86.6673 12.0602 86.5562 12.2952 86.4055 12.6006C86.2547 12.906 86.1833 13.047 85.7786 13.047H85.5168V10.8307H83.9537V16.6886H85.5168V14.2922H85.731C86.1754 14.2922 86.2547 14.4018 86.4927 14.8639C86.7704 15.4199 87.2941 16.6886 87.2941 16.6886H89ZM30.8648 16.6886H32.6579L29.9444 8.49699C29.6587 8.40301 29.3017 8.34036 28.9288 8.34036C28.5162 8.34036 28.3734 8.39518 28.0481 8.49699L25.1679 16.6886H26.8896C26.8896 16.6886 27.1197 15.9759 27.4054 15.0831H30.3808C30.6426 15.9681 30.8648 16.6886 30.8648 16.6886ZM27.8418 13.7127C27.8418 13.7127 28.3416 12.0681 28.413 11.8175C28.6114 11.1518 28.9129 10.1024 28.9129 10.1024H28.9605C28.9605 10.1024 29.2382 11.191 29.4207 11.8096C29.4921 12.0524 29.9682 13.7205 29.9682 13.7205H27.8418V13.7127ZM62.3405 12.7729C61.793 12.7729 61.3487 13.2114 61.3487 13.7518C61.3487 14.3 61.793 14.7386 62.3405 14.7386C62.8879 14.7386 63.3323 14.3 63.3323 13.7518C63.3323 13.2193 62.8879 12.7729 62.3405 12.7729Z" fill="white"/>
</g>
</svg>
