<svg width="57" height="23" viewBox="0 0 57 23" fill="none" xmlns="http://www.w3.org/2000/svg">
<path d="M11.6841 3.70742C11.0629 4.41675 10.0691 4.97621 9.07521 4.89629C8.95097 3.9372 9.43755 2.91817 10.007 2.28877C10.6281 1.55947 11.7152 1.03996 12.5951 1C12.6987 1.99905 12.2949 2.97812 11.6841 3.70742ZM12.5848 5.08611C11.1458 5.00619 9.91378 5.87536 9.2305 5.87536C8.53686 5.87536 7.49124 5.12607 6.35243 5.14605C4.87199 5.16603 3.49508 5.97526 2.73933 7.26403C1.18641 9.84158 2.33557 13.6579 3.83672 15.7559C4.57176 16.795 5.45175 17.9339 6.61125 17.8939C7.70864 17.854 8.14346 17.2046 9.46861 17.2046C10.8041 17.2046 11.1872 17.8939 12.3467 17.8739C13.5476 17.8539 14.3033 16.8349 15.0384 15.7959C15.877 14.617 16.2186 13.4681 16.2393 13.4082C16.2186 13.3882 13.9203 12.539 13.8996 9.98145C13.8789 7.84348 15.7113 6.82445 15.7941 6.76451C14.7589 5.28592 13.1438 5.12607 12.5848 5.08611ZM20.898 2.18887V17.764H23.4034V12.4391H26.8716C30.0395 12.4391 32.2654 10.3411 32.2654 7.304C32.2654 4.26689 30.0809 2.18887 26.9544 2.18887H20.898ZM23.4034 4.22693H26.2918C28.4659 4.22693 29.7082 5.34586 29.7082 7.31399C29.7082 9.28211 28.4659 10.411 26.2815 10.411H23.4034V4.22693ZM36.8413 17.8839C38.4149 17.8839 39.8746 17.1147 40.5372 15.8958H40.589V17.764H42.908V10.0114C42.908 7.76356 41.0445 6.31494 38.1768 6.31494C35.5161 6.31494 33.5491 7.78354 33.4766 9.80162H35.7335C35.9199 8.84253 36.8413 8.21313 38.1043 8.21313C39.6365 8.21313 40.4958 8.90247 40.4958 10.1713V11.0304L37.3693 11.2103C34.4601 11.3801 32.8865 12.529 32.8865 14.5271C32.8865 16.5452 34.5119 17.8839 36.8413 17.8839ZM37.5142 16.0357C36.1787 16.0357 35.3298 15.4163 35.3298 14.4672C35.3298 13.4881 36.1476 12.9186 37.7109 12.8287L40.4958 12.6589V13.5381C40.4958 14.9967 39.2121 16.0357 37.5142 16.0357ZM46.0035 22C48.4467 22 49.5959 21.1009 50.6001 18.3735L55 6.4648H52.4532L49.5027 15.666H49.4509L46.5004 6.4648H43.8811L48.1258 17.804L47.898 18.4933C47.515 19.6622 46.8938 20.1118 45.7861 20.1118C45.5894 20.1118 45.2063 20.0918 45.051 20.0718V21.9401C45.1959 21.98 45.8171 22 46.0035 22Z" fill="black"/>
</svg>
