<svg width="52" height="52" viewBox="0 0 52 52" fill="none" xmlns="http://www.w3.org/2000/svg">
<path d="M23.8329 42.25H9.74959C8.60032 42.25 7.49812 41.7934 6.68546 40.9808C5.87281 40.1681 5.41626 39.0659 5.41626 37.9167V14.0833C5.41626 12.9341 5.87281 11.8319 6.68546 11.0192C7.49812 10.2065 8.60032 9.75 9.74959 9.75H42.2496C43.3989 9.75 44.5011 10.2065 45.3137 11.0192C46.1264 11.8319 46.5829 12.9341 46.5829 14.0833V37.9167C46.5829 38.9181 46.236 39.8887 45.6013 40.6633C44.9665 41.4379 44.083 41.9687 43.1011 42.1655" stroke="white" stroke-width="3.2" stroke-linecap="round" stroke-linejoin="round"/>
<path d="M38.9996 37.918H28.1662C27.5679 37.918 27.0829 38.403 27.0829 39.0013V41.168C27.0829 41.7663 27.5679 42.2513 28.1662 42.2513H38.9996C39.5979 42.2513 40.0829 41.7663 40.0829 41.168V39.0013C40.0829 38.403 39.5979 37.918 38.9996 37.918Z" stroke="white" stroke-width="3.2" stroke-linecap="round" stroke-linejoin="round"/>
<path d="M28.3884 20.4544C28.3234 19.0526 29.8032 17.7742 31.7619 17.5684C33.7704 17.3517 35.521 18.3592 35.6727 19.8022C35.6944 20.0933 35.6578 20.3857 35.5652 20.6625C35.4726 20.9393 35.3257 21.1948 35.1332 21.4142L29.2312 28.9304L36.5004 28.1656" stroke="#F7C154" stroke-width="3" stroke-linecap="round" stroke-linejoin="round"/>
<path d="M13.0186 22.0638C12.9536 20.662 14.4334 19.3815 16.3921 19.1778C18.4006 18.9612 20.1512 19.9665 20.3029 21.4117C20.3244 21.7027 20.2878 21.9951 20.1952 22.2719C20.1026 22.5486 19.9558 22.8042 19.7634 23.0237L13.8614 30.5485L21.1349 29.7858" stroke="#F7C154" stroke-width="3" stroke-linecap="round" stroke-linejoin="round"/>
<path d="M24.8316 22.7344L25.291 27.1262" stroke="#F7C154" stroke-width="3" stroke-linecap="round" stroke-linejoin="round"/>
<path d="M22.8681 25.1607L27.2577 24.6992" stroke="#F7C154" stroke-width="3" stroke-linecap="round" stroke-linejoin="round"/>
</svg>
