<svg width="274" height="265" viewBox="0 0 274 265" fill="none" xmlns="http://www.w3.org/2000/svg">
<g clip-path="url(#clip0)">
<path fill-rule="evenodd" clip-rule="evenodd" d="M239.118 161.754H244.371V167.022H239.118V161.754Z" fill="white"/>
<path d="M63.4846 230.004L73.7811 259.866H53.1758L63.4846 230.004Z" fill="#223549"/>
<path fill-rule="evenodd" clip-rule="evenodd" d="M33.2133 189.782C33.2133 189.782 40.6297 187.897 41.2601 178.749C41.9523 168.758 33.2133 151.144 29.4804 150.908C26.2913 150.71 18.467 167.196 20.7661 178.638C22.4966 187.253 29.5422 190.141 29.5422 190.141L33.2133 189.782Z" fill="white"/>
<path d="M29.5423 191.008C29.431 191.008 29.3198 190.983 29.2086 190.946C28.8995 190.822 21.718 187.772 19.9133 178.81C18.0221 169.439 22.7933 156.274 26.7735 151.688C27.7747 150.535 28.7018 149.99 29.5299 150.052C30.457 150.114 31.4582 150.783 32.6201 152.109C36.8475 156.944 42.6941 170.294 42.1131 178.823C41.4457 188.491 33.4977 190.623 33.4112 190.648C32.9415 190.772 32.4841 190.487 32.3605 190.016C32.2369 189.557 32.5212 189.086 32.9786 188.962C33.2629 188.888 39.8017 187.091 40.3826 178.711C40.9265 170.728 35.2653 157.774 31.3099 153.262C30.1232 151.911 29.5176 151.799 29.4187 151.799C29.2827 151.824 28.8377 151.973 28.0837 152.853C24.7587 156.683 19.765 169.34 21.6067 178.488C23.226 186.545 29.7895 189.334 29.8637 189.359C30.3087 189.545 30.5188 190.053 30.3334 190.487C30.2098 190.797 29.8884 191.008 29.5423 191.008Z" fill="#223549"/>
<path d="M34.5486 247.421C34.1036 247.421 33.7328 247.086 33.6833 246.64C33.6463 246.293 30.21 211.386 30.0493 189.259C29.9628 177.682 29.0481 165.335 28.9121 164.604C28.7761 164.145 29.0357 163.699 29.4931 163.55C29.9504 163.402 30.4448 163.699 30.5808 164.158C30.7662 164.765 31.6933 178.091 31.7798 189.235C31.9405 211.275 35.3768 246.107 35.4138 246.454C35.4633 246.938 35.1172 247.359 34.6351 247.409C34.6104 247.421 34.5857 247.421 34.5486 247.421Z" fill="#223549"/>
<path fill-rule="evenodd" clip-rule="evenodd" d="M42.7185 223.557C42.7185 223.557 50.3327 222.813 52.3351 213.851C54.5106 204.083 53.9915 185.948 50.926 183.146C49.0472 181.436 29.6285 194.191 29.1093 210.12C28.825 218.896 39.0474 223.346 39.0474 223.346L42.7185 223.557Z" fill="white"/>
<path d="M42.719 224.427C42.274 224.427 41.9032 224.092 41.8661 223.646C41.8166 223.175 42.1627 222.741 42.6448 222.691C42.9291 222.666 49.678 221.873 51.4951 213.667C53.6953 203.812 53.0154 186.222 50.3455 183.793C49.9253 183.731 47.3295 184.735 43.5719 187.648C40.4817 190.053 30.3459 198.779 29.9751 210.147C29.7031 218.216 39.295 222.505 39.3939 222.555C39.8266 222.741 40.0367 223.261 39.8389 223.695C39.6535 224.142 39.1467 224.34 38.7017 224.142C38.2567 223.956 27.9479 219.344 28.2446 210.085C28.6895 196.437 42.5706 185.094 48.2936 182.665C49.8758 181.983 50.9018 181.933 51.5074 182.491C55.1662 185.813 55.228 204.853 53.1761 214.026C51.0748 223.485 42.8797 224.389 42.8055 224.402C42.7808 224.427 42.756 224.427 42.719 224.427Z" fill="#223549"/>
<path d="M36.5262 256.371C36.0565 256.371 35.6733 255.999 35.6609 255.528C35.6609 255.404 35.2901 243.107 38.4421 221.166C39.9006 211.026 42.5335 202.163 46.4889 194.056C46.699 193.623 47.2182 193.449 47.6508 193.66C48.0834 193.87 48.2565 194.391 48.0464 194.825C44.1774 202.771 41.5941 211.473 40.1602 221.427C37.033 243.206 37.3914 255.354 37.4038 255.478C37.4161 255.962 37.0453 256.358 36.5632 256.371C36.5385 256.371 36.5385 256.371 36.5262 256.371Z" fill="#223549"/>
<path fill-rule="evenodd" clip-rule="evenodd" d="M27.0331 223.98C27.0331 223.98 39.0724 219.258 31.2481 202.114C23.9058 186.049 11.1001 178.215 9.74046 178.735C8.38078 179.256 1.4217 207.729 7.31776 217.795C13.8937 229.025 23.5845 225.257 23.5845 225.257L27.0331 223.98Z" fill="white"/>
<path d="M19.7528 226.707C16.094 226.707 10.6924 225.293 6.5639 218.228C1.44656 209.489 5.63684 187.114 8.09663 180.086C8.66522 178.474 8.99896 178.077 9.41922 177.916C11.7554 176.999 24.7836 185.887 32.027 201.741C34.9565 208.15 35.5374 213.641 33.7451 218.054C31.7427 223 27.5153 224.711 27.3423 224.785C26.8973 224.959 26.4028 224.736 26.2174 224.289C26.0444 223.843 26.2669 223.335 26.6995 223.161C26.7366 223.149 30.4448 221.624 32.1382 217.372C33.7204 213.418 33.1518 208.398 30.4324 202.46C23.5352 187.362 12.2993 180.234 10.1114 179.614C8.38092 182.875 2.74443 208.299 8.03482 217.335C14.1657 227.81 23.152 224.475 23.2385 224.438C23.6835 224.265 24.1903 224.488 24.3633 224.934C24.5364 225.38 24.3139 225.888 23.8689 226.062C23.8442 226.087 22.1755 226.707 19.7528 226.707Z" fill="#223549"/>
<path d="M31.5694 255.478C31.1739 255.478 30.803 255.193 30.7165 254.784C30.6794 254.585 26.5015 234.454 23.9799 224.327C21.4583 214.212 16.0938 198.63 16.0443 198.469C15.8836 198.01 16.1309 197.527 16.5758 197.366C17.0208 197.205 17.5153 197.453 17.676 197.899C17.7254 198.06 23.1147 213.716 25.661 223.893C28.1949 234.058 32.3728 254.213 32.4223 254.424C32.5212 254.895 32.2245 255.354 31.7548 255.453C31.693 255.478 31.6312 255.478 31.5694 255.478Z" fill="#223549"/>
<path fill-rule="evenodd" clip-rule="evenodd" d="M22.1626 242.711H47.3785C48.3303 242.711 49.109 243.492 49.109 244.446L46.2784 262.396C46.2784 263.35 45.6603 264.131 44.894 264.131H24.7089C23.9426 264.131 23.3245 263.35 23.3245 262.396L20.4445 244.446C20.4321 243.492 21.2108 242.711 22.1626 242.711Z" fill="white"/>
<path d="M44.8939 264.999H24.7089C23.4728 264.999 22.4592 263.833 22.4592 262.395L19.5792 244.595C19.5668 243.021 20.7287 241.855 22.1626 241.855H47.3785C48.8123 241.855 49.9742 243.021 49.9742 244.459L47.1312 262.532C47.156 263.821 46.1424 264.999 44.8939 264.999ZM22.1626 243.578C21.6805 243.578 21.2973 243.963 21.2973 244.446L24.1774 262.247C24.1897 262.879 24.4617 263.251 24.7089 263.251H44.9063C45.1535 263.251 45.4255 262.879 45.4255 262.383L48.2684 244.31C48.2561 243.963 47.8729 243.578 47.3908 243.578H22.1626Z" fill="#223549"/>
<path fill-rule="evenodd" clip-rule="evenodd" d="M20.0988 238.457H49.2454C50.1106 238.457 50.8028 239.238 50.8028 240.192L52.5951 245.002C52.5951 245.957 51.8164 246.738 50.8646 246.738H18.4795C17.5277 246.738 16.749 245.957 16.749 245.002L18.5413 240.192C18.5413 239.238 19.2335 238.457 20.0988 238.457Z" fill="white"/>
<path d="M50.8646 247.605H18.4795C17.0457 247.605 15.8838 246.44 15.8838 245.002C15.8838 244.903 15.9085 244.791 15.9332 244.704L17.6761 240.031C17.7626 238.668 18.8133 237.602 20.0988 237.602H49.2454C50.5309 237.602 51.5815 238.68 51.6681 240.031L53.4109 244.704C53.448 244.804 53.4604 244.903 53.4604 245.002C53.4604 246.427 52.2861 247.605 50.8646 247.605ZM17.6266 245.126C17.6885 245.547 18.0469 245.857 18.4795 245.857H50.8523C51.2849 245.857 51.6433 245.535 51.7051 245.126L49.987 240.49C49.9499 240.391 49.9376 240.291 49.9376 240.192C49.9376 239.721 49.6162 239.325 49.2454 239.325H20.0988C19.7156 239.325 19.4066 239.709 19.4066 240.192C19.4066 240.291 19.3819 240.403 19.3571 240.49L17.6266 245.126Z" fill="#223549"/>
<path fill-rule="evenodd" clip-rule="evenodd" d="M195.905 98.8789H264.47C269.254 98.8789 273.123 102.771 273.123 107.556V246.266C273.123 251.064 269.242 254.944 264.47 254.944H195.905C191.122 254.944 187.253 251.051 187.253 246.266V107.556C187.253 102.759 191.122 98.8789 195.905 98.8789Z" fill="#EC663D"/>
<path d="M264.47 255.812H195.905C190.652 255.812 186.375 251.523 186.375 246.267V107.557C186.375 102.288 190.652 98.0117 195.905 98.0117H264.47C269.723 98.0117 274 102.301 274 107.557V246.267C274 251.535 269.723 255.812 264.47 255.812ZM195.905 99.7471C191.604 99.7471 188.118 103.255 188.118 107.557V246.267C188.118 250.581 191.616 254.076 195.905 254.076H264.47C268.772 254.076 272.257 250.568 272.257 246.267V107.557C272.257 103.255 268.759 99.7471 264.47 99.7471H195.905Z" fill="#223549"/>
<path fill-rule="evenodd" clip-rule="evenodd" d="M199.836 103.688H260.082C264.866 103.688 268.735 107.58 268.735 112.377V235.506C268.735 240.303 264.853 244.183 260.082 244.183H199.836C195.052 244.183 191.184 240.291 191.184 235.506V112.365C191.184 107.567 195.052 103.688 199.836 103.688Z" fill="white"/>
<path d="M260.082 245.052H199.836C194.583 245.052 190.318 240.763 190.318 235.507V112.366C190.318 107.098 194.595 102.809 199.836 102.809H260.082C265.336 102.809 269.612 107.098 269.612 112.366V235.495C269.612 240.763 265.336 245.052 260.082 245.052ZM199.836 104.556C195.535 104.556 192.049 108.064 192.049 112.378V235.507C192.049 239.821 195.547 243.316 199.836 243.316H260.082C264.384 243.316 267.869 239.808 267.869 235.507V112.366C267.869 108.052 264.371 104.544 260.082 104.544H199.836V104.556Z" fill="#223549"/>
<path fill-rule="evenodd" clip-rule="evenodd" d="M200.788 110.582H211.122C213.668 110.582 215.745 112.652 215.745 115.218V125.581C215.745 128.135 213.68 130.205 211.122 130.205H200.788C198.242 130.205 196.178 128.135 196.178 125.581V115.218C196.178 112.652 198.242 110.582 200.788 110.582Z" fill="#EC663D"/>
<path fill-rule="evenodd" clip-rule="evenodd" d="M224.051 110.582H234.384C236.93 110.582 238.995 112.652 238.995 115.218V125.581C238.995 128.135 236.93 130.205 234.384 130.205H224.051C221.504 130.205 219.428 128.135 219.428 125.581V115.218C219.428 112.652 221.504 110.582 224.051 110.582Z" fill="#EC663D"/>
<path d="M257.004 111.783C258.896 111.783 260.428 113.32 260.428 115.217V125.58C260.428 127.476 258.896 129.013 257.004 129.013H246.671C244.78 129.013 243.247 127.476 243.247 125.58V115.217C243.247 113.32 244.78 111.783 246.671 111.783H257.004ZM257.004 110.605H246.671C244.137 110.605 242.085 112.676 242.085 115.204V125.567C242.085 128.109 244.137 130.166 246.671 130.166H257.004C259.538 130.166 261.59 128.109 261.59 125.567V115.204C261.59 112.676 259.538 110.605 257.004 110.605Z" fill="#223549"/>
<path fill-rule="evenodd" clip-rule="evenodd" d="M200.788 133.91H211.122C213.668 133.91 215.745 135.98 215.745 138.534V148.897C215.745 151.45 213.68 153.533 211.122 153.533H200.788C198.242 153.533 196.178 151.463 196.178 148.897V138.534C196.178 135.98 198.242 133.91 200.788 133.91Z" fill="#EC663D"/>
<path fill-rule="evenodd" clip-rule="evenodd" d="M224.051 133.91H234.384C236.93 133.91 238.995 135.98 238.995 138.534V148.897C238.995 151.45 236.93 153.533 234.384 153.533H224.051C221.504 153.533 219.428 151.463 219.428 148.897V138.534C219.428 135.98 221.504 133.91 224.051 133.91Z" fill="#EC663D"/>
<path fill-rule="evenodd" clip-rule="evenodd" d="M246.671 133.91H257.005C259.551 133.91 261.628 135.98 261.628 138.534V148.897C261.628 151.45 259.563 153.533 257.005 153.533H246.671C244.125 153.533 242.061 151.463 242.061 148.897V138.534C242.061 135.98 244.125 133.91 246.671 133.91Z" fill="#EC663D"/>
<path fill-rule="evenodd" clip-rule="evenodd" d="M200.788 157.18H211.122C213.668 157.18 215.745 159.25 215.745 161.803V172.166C215.745 174.72 213.68 176.79 211.122 176.79H200.788C198.242 176.79 196.178 174.72 196.178 172.166V161.803C196.178 159.25 198.242 157.18 200.788 157.18Z" fill="white"/>
<path fill-rule="evenodd" clip-rule="evenodd" d="M246.671 157.18H257.005C259.551 157.18 261.628 159.25 261.628 161.803V172.166C261.628 174.72 259.563 176.79 257.005 176.79H246.671C244.125 176.79 242.061 174.72 242.061 172.166V161.803C242.061 159.25 244.125 157.18 246.671 157.18Z" fill="white"/>
<path fill-rule="evenodd" clip-rule="evenodd" d="M200.788 157.227H211.122C213.668 157.227 215.745 159.297 215.745 161.85V172.213C215.745 174.767 213.68 176.837 211.122 176.837H200.788C198.242 176.837 196.178 174.767 196.178 172.213V161.85C196.178 159.309 198.242 157.227 200.788 157.227Z" fill="#EC663D"/>
<path fill-rule="evenodd" clip-rule="evenodd" d="M224.051 157.227H234.384C236.93 157.227 238.995 159.297 238.995 161.85V172.213C238.995 174.767 236.93 176.837 234.384 176.837H224.051C221.504 176.837 219.428 174.767 219.428 172.213V161.85C219.428 159.309 221.504 157.227 224.051 157.227Z" fill="#EC663D"/>
<path fill-rule="evenodd" clip-rule="evenodd" d="M246.671 157.227H257.005C259.551 157.227 261.628 159.297 261.628 161.85V172.213C261.628 174.767 259.563 176.837 257.005 176.837H246.671C244.125 176.837 242.061 174.767 242.061 172.213V161.85C242.061 159.309 244.125 157.227 246.671 157.227Z" fill="#EC663D"/>
<path fill-rule="evenodd" clip-rule="evenodd" d="M200.788 180.496H211.122C213.668 180.496 215.745 182.566 215.745 185.132V195.495C215.745 198.049 213.68 200.119 211.122 200.119H200.788C198.242 200.119 196.178 198.049 196.178 195.495V185.132C196.178 182.579 198.242 180.496 200.788 180.496Z" fill="white"/>
<path fill-rule="evenodd" clip-rule="evenodd" d="M246.671 180.496H257.005C259.551 180.496 261.628 182.566 261.628 185.132V195.495C261.628 198.049 259.563 200.119 257.005 200.119H246.671C244.125 200.119 242.061 198.049 242.061 195.495V185.132C242.061 182.579 244.125 180.496 246.671 180.496Z" fill="white"/>
<path fill-rule="evenodd" clip-rule="evenodd" d="M200.788 180.559H211.122C213.668 180.559 215.745 182.629 215.745 185.195V195.558C215.745 198.111 213.68 200.194 211.122 200.194H200.788C198.242 200.194 196.178 198.124 196.178 195.558V185.195C196.178 182.629 198.242 180.559 200.788 180.559Z" fill="white"/>
<path fill-rule="evenodd" clip-rule="evenodd" d="M224.051 180.559H234.384C236.93 180.559 238.995 182.629 238.995 185.195V195.558C238.995 198.111 236.93 200.194 234.384 200.194H224.051C221.504 200.194 219.428 198.124 219.428 195.558V185.195C219.428 182.629 221.504 180.559 224.051 180.559Z" fill="#EC663D"/>
<path fill-rule="evenodd" clip-rule="evenodd" d="M246.671 180.559H257.005C259.551 180.559 261.628 182.629 261.628 185.195V195.558C261.628 198.111 259.563 200.194 257.005 200.194H246.671C244.125 200.194 242.061 198.124 242.061 195.558V185.195C242.061 182.629 244.125 180.559 246.671 180.559Z" fill="#EC663D"/>
<path fill-rule="evenodd" clip-rule="evenodd" d="M200.788 203.824H211.122C213.668 203.824 215.745 205.894 215.745 208.448V218.811C215.745 221.364 213.68 223.447 211.122 223.447H200.788C198.242 223.447 196.178 221.377 196.178 218.811V208.448C196.178 205.894 198.242 203.824 200.788 203.824Z" fill="white"/>
<path fill-rule="evenodd" clip-rule="evenodd" d="M224.051 203.824H234.384C236.93 203.824 238.995 205.894 238.995 208.448V218.811C238.995 221.364 236.93 223.447 234.384 223.447H224.051C221.504 223.447 219.428 221.377 219.428 218.811V208.448C219.428 205.894 221.504 203.824 224.051 203.824Z" fill="#EC663D"/>
<path fill-rule="evenodd" clip-rule="evenodd" d="M246.671 203.824H257.005C259.551 203.824 261.628 205.894 261.628 208.448V218.811C261.628 221.364 259.563 223.447 257.005 223.447H246.671C244.125 223.447 242.061 221.377 242.061 218.811V208.448C242.061 205.894 244.125 203.824 246.671 203.824Z" fill="#EC663D"/>
<path fill-rule="evenodd" clip-rule="evenodd" d="M72.4465 180.285H211.134C215.917 180.285 219.786 184.177 219.786 188.962V253.942C219.786 258.739 215.905 262.619 211.134 262.619H72.4465C67.6629 262.619 63.794 258.727 63.794 253.942V188.962C63.7816 184.177 67.6629 180.285 72.4465 180.285Z" fill="white"/>
<path d="M211.134 263.499H72.4465C67.1932 263.499 62.9287 259.21 62.9287 253.954V188.975C62.9287 183.706 67.2055 179.43 72.4465 179.43H211.134C216.387 179.43 220.651 183.719 220.651 188.975V253.954C220.651 259.21 216.387 263.499 211.134 263.499ZM72.4465 181.153C68.1449 181.153 64.6592 184.661 64.6592 188.962V253.942C64.6592 258.243 68.1573 261.751 72.4465 261.751H211.134C215.423 261.751 218.921 258.243 218.921 253.942V188.962C218.921 184.648 215.423 181.153 211.134 181.153H72.4465Z" fill="#223549"/>
<path fill-rule="evenodd" clip-rule="evenodd" d="M52.5947 177.246H228.228V193.968H52.5947V177.246Z" fill="#223549"/>
<path fill-rule="evenodd" clip-rule="evenodd" d="M193.21 184.398C194.434 184.398 195.435 185.403 195.435 186.63C195.435 187.857 194.434 188.861 193.21 188.861C191.987 188.861 190.985 187.857 190.985 186.63C190.985 185.39 191.974 184.398 193.21 184.398Z" fill="white"/>
<path fill-rule="evenodd" clip-rule="evenodd" d="M201.467 184.398C202.691 184.398 203.692 185.403 203.692 186.63C203.692 187.857 202.691 188.861 201.467 188.861C200.243 188.861 199.242 187.857 199.242 186.63C199.242 185.39 200.231 184.398 201.467 184.398Z" fill="white"/>
<path fill-rule="evenodd" clip-rule="evenodd" d="M209.304 184.398C210.528 184.398 211.529 185.403 211.529 186.63C211.529 187.857 210.528 188.861 209.304 188.861C208.08 188.861 207.079 187.857 207.079 186.63C207.079 185.39 208.068 184.398 209.304 184.398Z" fill="white"/>
<path fill-rule="evenodd" clip-rule="evenodd" d="M162.297 200.117H205.757C208.946 200.117 211.53 202.708 211.53 205.906V225.876C211.53 229.074 208.946 231.665 205.757 231.665H162.297C159.108 231.665 156.524 229.074 156.524 225.876V205.906C156.524 202.708 159.108 200.117 162.297 200.117Z" fill="#EC663D"/>
<path fill-rule="evenodd" clip-rule="evenodd" d="M193.68 234.949C199.588 234.949 204.384 239.759 204.384 245.684C204.384 251.609 199.588 256.419 193.68 256.419C187.772 256.419 182.976 251.609 182.976 245.684C182.976 239.759 187.772 234.949 193.68 234.949Z" fill="#223549"/>
<path d="M183.186 256.744L170.343 245.947L186.09 240.195L183.186 256.744Z" fill="#EC663D"/>
<path d="M150.086 206.302H72.3369C71.8549 206.302 71.4717 205.918 71.4717 205.434C71.4717 204.951 71.8549 204.566 72.3369 204.566H150.086C150.568 204.566 150.951 204.951 150.951 205.434C150.951 205.918 150.568 206.302 150.086 206.302Z" fill="#EC663D"/>
<path d="M112.631 215.165H72.335C71.8529 215.165 71.4697 214.781 71.4697 214.297C71.4697 213.814 71.8529 213.43 72.335 213.43H112.619C113.101 213.43 113.484 213.814 113.484 214.297C113.496 214.768 113.101 215.165 112.631 215.165Z" fill="#EC663D"/>
<path d="M150.147 215.165H118.404C117.922 215.165 117.539 214.781 117.539 214.297C117.539 213.814 117.922 213.43 118.404 213.43H150.147C150.629 213.43 151.012 213.814 151.012 214.297C151.012 214.768 150.616 215.165 150.147 215.165Z" fill="#EC663D"/>
<path d="M150.084 224.017H72.335C71.8529 224.017 71.4697 223.632 71.4697 223.149C71.4697 222.666 71.8529 222.281 72.335 222.281H150.084C150.566 222.281 150.949 222.666 150.949 223.149C150.949 223.632 150.566 224.017 150.084 224.017Z" fill="#EC663D"/>
<path d="M150.084 233.274H72.335C71.8529 233.274 71.4697 232.89 71.4697 232.407C71.4697 231.923 71.8529 231.539 72.335 231.539H150.084C150.566 231.539 150.949 231.923 150.949 232.407C150.949 232.89 150.566 233.274 150.084 233.274Z" fill="#EC663D"/>
<path d="M150.146 242.126H134.732C134.25 242.126 133.867 241.742 133.867 241.258C133.867 240.775 134.25 240.391 134.732 240.391H150.146C150.628 240.391 151.011 240.775 151.011 241.258C151.011 241.742 150.616 242.126 150.146 242.126Z" fill="#EC663D"/>
<path d="M150.084 250.989H72.335C71.8529 250.989 71.4697 250.605 71.4697 250.122C71.4697 249.638 71.8529 249.254 72.335 249.254H150.084C150.566 249.254 150.949 249.638 150.949 250.122C150.949 250.593 150.566 250.989 150.084 250.989Z" fill="#EC663D"/>
<path d="M125.017 242.126H72.0635C71.5814 242.126 71.1982 241.742 71.1982 241.258C71.1982 240.775 71.5814 240.391 72.0635 240.391H125.017C125.499 240.391 125.882 240.775 125.882 241.258C125.882 241.742 125.499 242.126 125.017 242.126Z" fill="#EC663D"/>
<path d="M183.866 208.684L191.221 221.476H176.499L183.866 208.684Z" fill="white"/>
<path fill-rule="evenodd" clip-rule="evenodd" d="M93.7685 235.854L92.8415 246.155C92.8415 246.155 93.991 250.048 93.818 254.027C93.6449 258.006 92.9527 263.46 92.9527 263.46L51.2848 263.175C51.2848 263.175 51.8533 255.861 57.119 253.444C62.3847 251.039 70.0483 249.155 70.0483 249.155L72.6441 244.234L74.2633 233.065C74.2633 233.065 73.1756 231.491 73.2868 229.88C73.3981 228.268 73.7318 221.921 74.9061 220.967C76.0803 220.012 76.1792 219.12 76.1792 219.12L80.5673 187.87C80.5673 187.87 79.6279 194.576 77.3411 195.109C75.042 195.642 74.1644 195.692 74.1644 195.692L62.7308 218.5C62.7308 218.5 44.338 216.529 38.3184 213.058C32.2987 209.587 27.033 204.183 27.5893 200.786C28.1331 197.39 29.4434 195.506 31.7425 195.233C34.0416 194.948 45.9449 197.03 45.9449 197.03L53.3861 194.018L58.009 187.362C58.009 187.362 56.7606 183.903 58.5899 180.073C60.407 176.242 63.8432 172.548 63.8432 172.548C63.8432 172.548 78.0828 143.629 80.8639 139.327C83.6451 135.014 88.0579 133.824 90.9009 132.906C93.7438 131.977 105.734 93.3137 105.734 93.3137C105.734 93.3137 110.332 83.149 114.683 80.2856C119.034 77.4221 119.874 76.5792 119.874 76.5792C119.874 76.5792 114.497 75.538 114.448 71.4845C114.399 67.431 116.586 64.0717 116.586 64.0717C116.586 64.0717 115.647 60.5141 116.302 59.1506C116.957 57.787 116.994 57.4151 116.994 57.4151L114.633 53.0765L115.387 50.2379C115.387 50.2379 111.766 50.7089 109.961 49.2586C108.156 47.8083 107.378 47.1265 108.169 46.5315C108.972 45.9489 113.533 43.7548 113.533 43.7548C113.533 43.7548 111.16 39.8501 112.495 39.6518C113.83 39.4534 119.454 39.4162 122.532 37.7428C125.61 36.0693 126.351 34.7802 129.8 35.4867C133.249 36.1809 142.346 36.9371 144.744 43.9408C147.142 50.9445 147.204 53.6963 145.152 57.4275C143.088 61.1587 140.072 63.6255 140.072 63.6255L139.553 67.8525C139.553 67.8525 140.616 73.8025 144.114 73.9885C147.612 74.1744 157.673 72.4018 162.358 73.9265C167.043 75.4512 172.865 75.5504 177.994 89.9544C183.137 104.371 191.356 122.915 190.627 126.535C189.898 130.154 188.452 132.968 186.066 134.518C182.148 137.059 177.933 136.191 177.933 136.191C177.933 136.191 181.962 150.471 182.556 158.355C183.137 166.251 182.852 176.094 171.703 182.725C160.553 189.357 137.933 179.193 137.933 179.193L109.071 180.122L97.6992 222.603C97.6992 222.603 99.5904 223.52 98.7375 230.016C97.724 237.627 93.7685 235.854 93.7685 235.854Z" fill="white"/>
<path fill-rule="evenodd" clip-rule="evenodd" d="M127.637 54.1445C128.305 54.1445 128.848 54.69 128.848 55.3593V56.6361C128.848 57.3055 128.305 57.8509 127.637 57.8509C126.97 57.8509 126.426 57.3055 126.426 56.6361V55.3593C126.426 54.69 126.97 54.1445 127.637 54.1445Z" fill="#223549"/>
<path fill-rule="evenodd" clip-rule="evenodd" d="M127.897 139.637L150.987 146.182L180.999 147.806L179.379 137.381C179.379 137.381 191.06 134.679 189.997 126.039C188.947 117.399 176.771 84.2649 173.891 80.7816C171.024 77.2983 166.116 73.6292 160.9 73.4308C155.696 73.2325 149.652 73.6663 149.652 73.6663C149.652 73.6663 148.169 82.3931 139.096 83.9178C130.023 85.4425 128.466 85.3805 127.662 82.703C126.859 80.0131 128.589 75.5257 128.589 75.5257C128.589 75.5257 122.73 76.1455 120.74 77.0256C118.75 77.9057 112.1 81.3642 108.219 89.1241C104.338 96.8839 104.288 97.0575 104.288 97.0575L115.141 125.828L118.491 121.081C118.491 121.081 117.168 120.077 118.256 115.639C119.356 111.201 122.99 106.441 122.99 106.441L121.667 105.859C121.667 105.859 116.983 109.639 115.314 109.218C113.645 108.784 114.708 106.528 117.329 103.888C119.949 101.26 121.432 100.714 124.374 102.264C127.316 103.813 138.28 111.462 138.28 111.462L170.257 117.833C170.257 117.833 174.497 119.965 175.164 126.572C175.832 133.179 173.842 135.894 173.842 135.894L141.296 125.072C141.296 125.072 138.095 126.932 134.658 125.01C131.234 123.089 129.121 121.068 129.121 121.068L124.275 123.733L125.833 130.279L127.897 139.637Z" fill="#223549"/>
<path fill-rule="evenodd" clip-rule="evenodd" d="M120.146 106.692L161.357 104.609L170.591 125.211L124.423 125.1L120.146 106.692Z" fill="white"/>
<path fill-rule="evenodd" clip-rule="evenodd" d="M157.724 97.9528L177.291 88.5195L183.644 103.506L163.62 111.266L157.724 97.9528Z" fill="white"/>
<path fill-rule="evenodd" clip-rule="evenodd" d="M104.449 95.8711L119.566 102.763L122.854 116.833L113.163 121.283L99.9492 107.56L104.449 95.8711Z" fill="white"/>
<path fill-rule="evenodd" clip-rule="evenodd" d="M119.492 54.9141C120.159 54.9141 120.703 55.4595 120.703 56.1289V57.4056C120.703 58.075 120.159 58.6204 119.492 58.6204C118.824 58.6204 118.28 58.075 118.28 57.4056V56.1289C118.28 55.4595 118.824 54.9141 119.492 54.9141Z" fill="#223549"/>
<path fill-rule="evenodd" clip-rule="evenodd" d="M135.882 61.8038C135.882 61.8038 136.364 72.3775 129.652 74.9435C122.94 77.5094 121.321 77.1004 118.799 76.0963C116.278 75.0922 113.546 74.0758 113.657 70.5925C113.781 67.1093 112.644 64.4194 117.23 63.3533C121.815 62.2873 126.834 61.2708 128.021 61.7294C129.22 62.1881 131.593 63.8119 131.593 63.8119C131.593 63.8119 131.519 58.7668 132.396 56.0521C133.286 53.3498 133.731 51.2673 133.088 49.3335C132.446 47.4121 132.248 45.6519 131.247 45.9742C130.233 46.2965 125.548 47.8088 122.99 47.8832C120.431 47.9576 116.982 46.4948 116.982 46.4948L115.314 50.0897C115.314 50.0897 113.793 51.1929 111.568 50.3252C109.344 49.4575 107.514 47.6601 107.638 46.7923C107.761 45.9246 113.299 43.086 113.299 43.086C113.299 43.086 111.828 41.1522 112.434 40.2473C113.039 39.3424 118.997 39.4416 120.913 38.0532C122.841 36.6649 126.253 35.2146 128.008 35.103C129.763 34.9914 132.285 36.6649 132.285 36.6649C132.285 36.6649 135.672 36.9252 136.735 37.2971C139.121 38.14 143.855 40.4704 145.276 46.2097C146.698 51.9491 146.043 54.8125 145.449 57.0934C144.856 59.3742 139.677 65.5474 139.677 65.5474L135.882 61.8038Z" fill="#EC663D"/>
<path fill-rule="evenodd" clip-rule="evenodd" d="M72.681 243.02L92.6559 243.367L92.3098 246.664L92.9402 250.717C92.9402 250.717 90.6905 252.279 89.1331 254.82C87.5756 257.374 85.7833 259.915 85.7833 259.915L67.7243 259.977C67.7243 259.977 67.8479 256.184 66.1051 254.362C64.3622 252.54 62.8789 251.635 62.8789 251.635L70.728 248.92L72.2854 245.796L72.681 243.02Z" fill="#223549"/>
<path fill-rule="evenodd" clip-rule="evenodd" d="M38.8623 196.19C38.8623 196.19 40.8524 197.9 41.3468 201.805C41.8412 205.71 41.9278 209.85 41.9278 209.85L58.5529 214.25C58.5529 214.25 60.4936 212.428 62.5949 211.412C64.6962 210.395 67.2178 209.961 67.2178 209.961L71.4328 201.743C71.4328 201.743 66.4762 202.759 61.9645 200.181C57.4652 197.603 55.8088 196.115 55.3268 195.148C54.8447 194.181 54.5728 192.719 54.5728 192.719L53.1884 194.628L46.2046 197.702L38.8623 196.19Z" fill="#223549"/>
<path fill-rule="evenodd" clip-rule="evenodd" d="M62.3477 177.086L78.5649 142.303C78.5649 142.303 82.6687 130.514 95.6474 132.808C108.626 135.101 154.46 147.051 154.46 147.051L181.072 147.807C181.072 147.807 184.595 163.475 183.668 167.715C182.741 171.954 174.756 185.267 164.163 184.957C153.57 184.647 139.812 179.404 139.812 179.404L109.219 180.334L98.2555 222.244L76.5501 219.406L80.8146 185.205C80.8146 185.205 77.094 186.879 70.8889 184.276C64.6838 181.648 62.3477 177.086 62.3477 177.086Z" fill="#EC663D"/>
<path fill-rule="evenodd" clip-rule="evenodd" d="M127.155 76.8159C124.09 77.8324 121.321 77.696 118.96 78.8365C116.673 79.9521 114.856 81.514 113.126 83.237C109.788 86.5839 107.996 91.5175 105.969 96.4882C102.557 104.893 99.1458 113.458 95.8084 122.073C95.3757 123.189 94.9678 125.532 93.7936 125.309C92.4833 125.073 93.7812 122.755 94.0284 122.123C97.1186 114.227 100.073 106.455 103.2 98.6203C105.005 94.133 106.711 89.5837 109.022 85.7782C111.37 81.8982 114.646 79.0224 118.886 76.9771C116.871 76.097 115.684 75.6259 114.498 74.1384C112.916 72.1427 113.113 67.3454 114.436 65.1638C114.597 64.9034 114.819 64.6059 115.066 64.296C115.289 64.0233 115.672 63.639 115.697 63.4283C115.759 63.0069 115.4 62.2383 115.351 61.6929C115.276 60.788 115.474 59.7963 115.759 58.9658C116.006 58.2592 116.834 56.3131 117.724 57.5774C118.317 58.4204 117.069 59.7591 117.032 60.9863C117.019 61.5689 117.192 61.9284 117.267 62.5482C117.823 62.6102 118.441 62.2259 119.108 62.2011C119.232 61.9408 118.873 61.7797 118.762 61.6185C117.81 60.3293 119.924 59.3996 120.381 58.3832C121.185 56.5982 120.011 54.2925 118.762 53.8091C118.132 53.5612 117.106 53.5116 115.932 53.5736C115.042 53.6231 113.719 53.8711 113.447 53.1645C113.163 52.4331 113.768 51.9869 113.855 51.3175C111.618 51.4043 110.357 50.5738 109.01 49.4705C108.243 48.8383 106.896 47.7723 106.871 46.8054C106.846 45.603 108.268 45.008 109.121 44.5493C110.196 43.9791 111.185 43.6444 112.236 43.223C111.754 42.4048 110.938 40.1488 112.001 39.2315C112.693 38.6365 114.819 38.5993 116.043 38.4257C119.121 37.9919 120.987 37.0994 123.435 36.1077C124.559 35.6615 125.622 34.9673 126.784 34.6574C129.603 33.926 132.211 35.5127 134.572 36.1573C137.13 36.8639 139.491 37.5332 141.494 38.8844C144.93 41.19 147.291 46.7806 147.204 52.4827C147.118 58.4452 144.275 62.4986 140.567 65.1514C140.393 65.9199 140.455 66.9364 140.159 67.581C140.9 69.3784 141.283 71.4981 142.816 72.3906C144.089 73.1219 146.648 72.9856 148.589 72.9112C150.702 72.8368 152.841 72.6137 154.534 72.5021C156.66 72.3658 158.761 72.2046 160.591 72.5021C165.857 73.3327 170.418 75.6755 173.174 79.0472C175.09 81.39 176.376 84.3031 177.624 87.3277C181.295 96.2899 184.855 105.55 188.069 115.157C188.551 116.607 189.156 118.231 189.688 119.904C190.195 121.516 190.887 123.313 191.011 124.937C191.295 128.656 189.54 131.68 187.834 133.502C185.893 135.585 183.248 136.725 179.874 137.258C181.134 144.436 182.506 151.514 183.508 158.84C183.767 160.761 184.076 162.72 184.138 164.517C184.212 166.488 183.767 168.36 183.335 170.008C182.432 173.43 180.875 175.686 178.773 177.991C174.929 182.194 169.404 185.726 160.999 185.342C154.139 185.032 148.539 183.111 143.051 181.289C142.285 181.041 141.444 180.557 140.74 180.483C139.565 180.347 138.169 180.533 136.871 180.595C133.039 180.768 128.91 180.495 125.103 180.657C119.887 180.88 114.708 180.681 109.516 180.83C106.031 193.313 102.866 206.899 99.5289 219.778C99.3188 220.609 98.8615 221.749 98.8985 222.381C98.9233 222.803 99.566 223.373 99.7638 223.881C100.345 225.393 99.7638 227.488 99.4795 229.435C99.2694 230.897 99.1952 232.422 98.8491 233.6C98.3176 235.347 96.6489 236.537 94.288 236.141C94.0284 238.36 93.7688 240.727 93.6576 243.082C93.5463 245.549 93.7318 247.818 94.1768 250.024C94.5723 252.007 94.8319 254.264 94.6959 256.966C94.6465 257.982 94.5105 259.135 94.3498 260.375C94.2385 261.267 94.1273 263.226 93.5463 263.499C92.4833 264.007 89.8381 263.598 88.2312 263.672C82.7431 263.908 77.7123 263.846 72.1252 263.908C66.9461 263.957 61.4579 264.081 55.9698 264.081C54.3258 264.081 51.1615 264.478 50.8401 263.56C50.5434 262.73 51.421 260.722 51.6435 260.028C52.7931 256.619 54.1033 253.644 57.0699 252.218C59.2577 251.165 61.7175 250.979 63.8806 250.198C66.1426 249.38 68.1574 248.512 70.2217 247.768C70.6419 246.64 71.4454 245.549 71.7791 244.359C72.0263 243.492 72.0511 242.475 72.187 241.471C72.496 239.128 72.8669 236.81 73.2253 234.232C73.2995 233.711 73.4973 233.166 73.4602 232.843C73.3984 232.323 72.7185 231.728 72.5331 231.17C72.1005 229.868 72.6073 227.811 72.8792 226.013C73.3119 223.175 73.2871 220.472 75.3637 219.357C76.5998 210.828 77.7741 202.25 79.0596 193.771C78.8742 193.672 78.5899 194.119 78.3674 194.354C77.6628 195.11 76.6493 195.767 75.1907 195.804C71.8162 202.523 68.5901 209.266 65.2032 216.171C64.783 217.039 64.1649 218.7 63.4727 218.948C62.7805 219.195 60.8523 218.824 59.7274 218.712C55.8585 218.328 52.5582 217.658 49.3444 216.865C45.0429 215.799 40.6178 214.646 36.9343 212.985C33.5474 211.46 30.1359 208.448 28.0469 205.523C26.8974 203.911 26.0321 201.94 26.8356 199.275C27.3547 197.54 28.6402 195.42 30.3584 194.652C31.4708 194.143 33.0777 194.28 34.5116 194.416C38.0962 194.751 41.0133 195.346 44.326 196.04C44.8946 196.164 45.6362 196.474 46.1677 196.449C46.6374 196.424 47.2802 195.966 47.787 195.755C48.9736 195.259 49.8512 194.899 51.0131 194.428C51.557 194.205 52.2368 194.069 52.6324 193.796C53.065 193.486 53.4111 192.681 53.7819 192.123C54.9191 190.387 56.0563 188.615 57.1317 186.966C55.9203 184.636 57.0699 181.723 58.0587 179.268C59.2083 176.405 60.2219 173.764 63.0772 172.847C68.1451 162.844 72.6197 151.836 78.1325 142.118C80.9879 137.085 83.6949 132.511 90.7775 131.879C98.3052 131.197 104.535 133.329 110.567 134.655C111.333 133.54 111.865 132.275 112.471 131.06C114.263 127.49 116.191 123.846 118.008 120.239C117.736 119.631 117.452 119.222 117.254 118.615C116.488 116.198 117.588 113.756 118.354 111.847C119.232 109.64 120.159 107.93 121.531 106.69C121.086 106.702 120.728 107.136 120.381 107.446C120.035 107.744 119.702 108.078 119.343 108.376C118.651 108.934 117.761 109.777 116.982 110C115.511 110.409 113.694 109.752 113.521 108.611C113.311 107.198 114.819 105.959 115.487 105.203C116.389 104.174 117.106 103.269 117.909 102.314C117.712 101.67 117.551 101.124 117.39 100.517C117.242 99.9591 117.217 99.2649 116.933 98.6699C116.55 97.8766 114.906 97.3436 115.029 96.2403C115.066 95.9552 115.326 95.5957 115.721 95.5462C116.438 95.447 116.834 96.1412 117.217 96.5254C117.613 96.9221 118.169 97.1948 118.428 97.7402C118.972 98.8683 118.886 100.145 119.356 101.1C120.221 100.628 121.271 99.9839 122.532 100.232C124.065 100.529 125.635 101.682 127.032 102.55C130.542 104.719 133.768 107.037 137.13 109.492C137.773 109.963 138.478 110.644 139.096 110.88C139.998 111.227 141.271 111.301 142.384 111.512C149.973 112.925 157.748 114.227 165.35 115.677C163.211 110.991 160.48 105.599 158.02 100.69C157.711 100.083 156.524 98.0749 157.909 97.9138C158.823 97.8022 159.169 99.0542 159.528 99.8227C162.062 105.24 165.028 110.682 167.55 116.086C168.724 116.285 170.084 116.557 171.703 116.842C172.865 117.041 175.201 117.09 175.164 118.231C175.139 119.074 174.163 119.198 173.372 118.863C174.472 120.388 175.424 122.718 175.906 125.458C176.487 128.693 176.623 132.932 175.152 135.3C179.478 136.366 183.841 134.891 186.227 132.759C187.525 131.606 188.489 129.957 188.934 128.247C189.194 127.243 189.379 126.114 189.28 125.011C189.194 124.044 188.81 123.139 188.526 122.173C186.375 114.847 183.557 107.669 181.023 100.876C179.775 97.5171 178.44 93.8975 177.043 90.4018C175.671 86.9558 174.287 83.4725 172.309 80.733C170.381 78.0679 167.191 76.0722 163.656 75.0061C161.765 74.4359 159.676 73.9772 157.365 74.0764C155.177 74.1756 152.927 74.3987 150.665 74.5351C148.675 78.6877 145.511 82.7288 140.282 84.551C137.736 85.4311 134.077 85.5798 131.222 85.1832C129.64 84.96 128.502 84.6749 127.65 83.6709C126.883 82.7908 126.265 81.5016 126.327 79.9149C126.389 78.7869 126.809 77.8944 127.155 76.8159ZM140.134 63.3911C142.927 61.3582 145.325 57.6146 145.498 53.0901C145.634 49.5449 144.794 46.3467 143.36 43.7188C142.705 42.5164 141.901 41.3388 140.826 40.5331C138.675 38.9216 135.536 38.1282 132.631 37.2357C131.284 36.8143 129.355 36.1077 127.835 36.2565C126.673 36.368 125.486 37.1738 124.312 37.6448C123.2 38.0911 122.075 38.5621 120.962 38.9712C118.577 39.8637 116.204 40.2727 113.225 40.595C112.916 42.1073 114.634 42.5908 114.498 43.7808C114.387 44.6733 112.471 45.0328 111.667 45.3427C110.518 45.7889 109.553 46.2724 108.725 46.793C110.134 48.2929 111.408 49.9292 114.609 49.6317C114.893 48.6276 115.746 47.9334 115.993 47.0781C116.129 46.6195 115.932 46.1856 116.34 45.9253C116.92 45.5534 117.712 45.9501 118.132 46.0368C120.147 46.4583 122.31 46.6071 124.312 46.3219C126.574 45.9997 128.206 45.8013 130.023 45.1071C130.703 44.8468 131.086 44.5121 131.865 44.6485C133.15 44.8592 133.78 47.4004 134.114 48.9375C134.497 50.6977 134.596 52.867 134.176 54.5528C133.78 56.1395 133.249 57.6642 133.076 59.8211C133.014 60.6144 132.952 61.8169 132.903 62.8333C132.841 64.0729 133.002 65.139 132.099 65.2009C131.37 65.2505 130.653 64.3952 130.134 64.0481C129.541 63.639 128.7 63.106 128.057 62.9449C126.092 62.4614 123.892 63.106 121.939 63.4035C121.197 63.5151 120.381 63.6762 119.578 63.8622C118.812 64.0357 117.81 64.1597 117.267 64.4448C116.76 64.7175 116.068 65.7092 115.82 66.1182C115.042 67.457 114.683 70.9403 115.536 72.6633C115.771 73.1343 116.179 73.531 116.513 73.8161C118.33 75.3532 121.271 76.1094 124.189 75.7251C126.883 75.3656 129.541 74.3491 131.172 72.8864C133.434 70.8535 134.448 67.7173 134.868 64.2588C135.153 61.9408 135.424 58.5319 135.56 55.6933C135.585 55.2718 135.424 54.8875 135.622 54.1934C135.919 53.1273 137.625 53.338 137.291 54.8256C139.516 53.8959 141.753 55.247 142.482 56.7965C143.706 59.3996 141.667 61.9408 140.122 62.9945C139.862 63.168 139.281 63.2672 139.318 63.7506C139.602 63.8498 139.924 63.5399 140.134 63.3911ZM131.704 57.3171C132.038 55.6685 132.693 54.2058 132.804 52.6315C132.965 50.2762 132.223 48.3053 131.531 46.4955C127.81 47.6483 122.186 49.0367 117.625 47.6483C116.871 49.0119 116.08 50.3506 115.548 51.9249C116.451 51.8753 117.094 51.7886 117.909 51.8629C120.653 52.1232 122.681 54.5528 122.347 57.7138C122.236 58.7799 121.692 59.6724 121.135 60.3169C120.999 60.4781 120.493 60.912 120.505 61.0111C120.517 61.2466 121.185 61.5317 121.37 61.7673C123.039 61.507 125.017 61.0607 126.846 61.0731C128.713 61.0855 130.048 61.916 131.234 62.635C131.284 60.7136 131.358 59.003 131.704 57.3171ZM141.11 73.2335C139.355 71.4733 138.614 68.6594 137.995 65.7712C137.798 64.8786 137.328 63.4407 137.588 62.7094C137.761 62.2383 138.49 62.0276 139.034 61.6681C140.084 60.9739 141.37 59.7715 141.11 58.0237C140.876 56.499 138.416 55.6437 137.192 56.8709C137.229 57.3419 137.093 57.627 137.13 58.0857C137.736 57.8997 140.171 56.3007 140.134 57.9121C140.122 58.5691 139.306 58.7551 138.749 59.0154C138.094 59.3129 137.588 59.598 137.019 59.8211C136.722 65.7959 135.783 71.1138 132.458 74.0516C132.792 74.597 133.434 75.2044 133.496 76.1341C133.558 77.0638 132.989 78.3158 132.174 78.3282C131.667 78.3406 131.321 77.9935 131.308 77.5225C131.296 77.101 131.79 76.7539 131.766 76.2457C131.741 75.6755 131.308 75.6011 131.135 75.0929C130.48 75.4524 129.837 75.8366 129.12 76.1341C128.947 77.6588 128.119 78.4522 128.082 80.0141C128.057 81.2165 128.601 82.5304 129.405 83.0263C130.072 83.4353 131.37 83.5841 132.347 83.6585C136.055 83.9808 139.442 83.3238 141.58 82.1586C145.016 80.2744 147.217 77.7952 148.626 74.6962C145.56 74.7582 142.618 74.7334 141.11 73.2335ZM174.534 131.16C174.917 126.511 173.681 121.714 171.53 119.47C170.195 118.082 168.131 117.983 165.819 117.561C159.59 116.408 153.273 115.305 147.068 114.152C144.497 113.669 141.963 112.987 139.565 112.764C139.343 112.739 138.997 112.814 138.762 112.764C138.218 112.653 137.34 111.76 136.747 111.314C132.717 108.339 128.774 105.45 124.287 102.922C123.484 102.475 122.31 101.719 121.519 101.992C119.961 102.525 118.898 103.851 117.823 105.116C116.883 106.219 115.857 107.285 115.4 108.302C116.772 108.661 117.551 107.645 118.515 106.851C118.923 106.517 119.38 106.157 119.838 105.748C120.307 105.339 120.777 104.794 121.284 104.769C122.1 104.732 122.347 105.351 122.952 105.636C123.385 105.215 125.412 104 125.375 105.636C125.35 106.442 123.855 107.161 123.187 107.719C121.444 109.157 120.653 110.669 119.776 112.925C119.121 114.623 118.54 116.111 118.911 118.132C119.924 116.47 120.592 114.599 121.976 112.863C122.545 112.144 123.212 111.5 123.991 110.719C124.436 110.285 125.511 108.847 126.352 108.921C126.76 108.959 127.093 109.417 127.106 109.739C127.118 110.52 125.524 111.611 125.091 112.058C124.325 112.826 123.546 113.57 123.014 114.314C121.729 116.123 121.024 118.057 120.011 119.979C120.419 120.586 120.876 121.156 121.457 121.602C122.359 119.83 123.064 118.008 124.572 116.396C125.215 115.714 125.857 115.132 126.76 114.425C127.266 114.028 128.441 112.739 129.355 112.863C129.763 112.913 130.048 113.31 130.048 113.669C130.048 114.19 129.504 114.5 129.12 114.772C127.86 115.665 126.611 116.607 125.721 117.611C124.596 118.875 123.793 120.66 123.064 122.185C122.977 122.371 122.792 122.606 122.891 122.817C123.706 123.201 124.572 122.569 125.252 122.123C126.574 121.255 127.761 120.053 128.947 118.999C129.528 118.491 130.184 117.487 130.962 117.549C131.42 117.586 131.729 118.008 131.716 118.417C131.692 119.495 130.159 119.681 129.813 120.611C131.889 121.664 133.558 123.35 135.869 124.02C136.772 124.28 137.674 124.243 138.576 124.193C139.454 124.156 140.492 123.883 141.456 124.02C142.025 124.094 142.693 124.478 143.36 124.714C153.137 128.172 163.125 131.817 173.199 134.73C174.287 133.998 174.41 132.523 174.534 131.16ZM125.363 124.106C126.611 129.275 128.02 134.296 129.232 139.502C135.783 141.176 142.68 143.109 149.256 144.832C150.233 145.093 151.234 145.489 152.136 145.588C154.411 145.836 156.771 145.762 159.058 145.812C166.067 145.985 172.779 146.407 179.775 146.568C179.317 143.456 178.675 140.531 178.155 137.482C177.71 137.482 177.167 137.494 176.66 137.42C173.557 136.973 170.479 135.821 167.426 134.866C159.182 132.325 151.37 129.362 143.36 126.536C142.569 126.263 141.741 125.842 141.11 125.78C140.431 125.718 139.8 125.929 139.207 125.953C136.784 126.065 135.375 125.755 133.78 124.974C131.877 124.032 130.282 123.016 128.478 121.726C127.489 122.569 126.451 123.363 125.363 124.106ZM119.133 121.85C116.908 126.313 114.634 130.726 112.384 135.164C117.403 136.354 122.446 137.853 127.39 138.932C126.129 134.246 124.955 129.486 123.756 124.751C121.259 124.726 120.567 122.904 119.133 121.85ZM158.885 147.547C157.909 147.51 156.574 147.25 155.832 147.435C155.362 147.547 155.362 147.981 154.732 148.018C154.213 148.043 153.533 147.745 152.828 147.559C150.875 147.026 148.935 146.568 147.056 146.047C134.151 142.527 121.914 139.167 108.849 136.031C103.608 134.779 98.2434 133.242 92.0013 133.54C89.0594 133.676 86.7232 134.395 84.9557 135.796C83.2746 137.134 82.2239 138.907 80.9755 140.89C79.7889 142.762 78.7011 144.659 77.6875 146.679C73.6209 154.786 69.7396 163.042 65.8583 171.211C64.8695 173.281 63.7076 175.314 63.0895 177.582C64.8324 179.876 67.4529 181.549 70.3082 182.913C72.9287 184.165 76.6122 185.665 80.3451 184.71C80.8024 182.318 81.0744 179.888 81.4946 177.533C81.9273 175.178 82.261 172.785 83.0521 170.765C84.6219 166.761 87.5885 164.232 91.7046 162.782C90.8888 162.224 88.7257 162.397 88.9358 160.984C89.047 160.216 89.9123 160.327 90.4932 160.526C92.3968 161.145 94.2262 161.914 95.796 162.497C112.495 168.558 128.873 174.744 145.77 180.433C148.205 181.252 150.665 182.144 153.273 182.628C155.993 183.136 158.823 183.52 161.926 183.669C168.18 183.966 172.581 181.45 175.955 178.4C179.441 175.252 182 171.645 182.42 165.434C182.519 163.959 182.259 162.385 182.074 160.922C181.505 156.46 180.825 152.617 180.108 148.303C173.261 148.043 165.844 147.807 158.885 147.547ZM99.7391 165.769C97.9962 165.137 96.2781 164.319 94.5476 163.86C94.4734 163.835 94.3869 163.897 94.3127 163.922C91.717 164.542 89.8134 165.273 88.0829 166.699C86.4513 168.038 85.2152 169.736 84.4489 172.079C83.7196 174.322 83.2869 176.95 82.8914 179.541C80.8766 192.619 79.0596 206.18 77.1808 219.072C83.9297 219.927 90.6169 220.832 97.3164 221.737C100.728 208.572 103.979 194.837 107.477 181.623C107.699 180.793 108.021 179.467 108.453 179.256C109.108 178.934 110.715 179.144 111.803 179.144C119.998 179.144 128.095 178.958 135.981 178.859C123.88 174.645 111.692 170.12 99.7391 165.769ZM58.6521 183.185C58.5037 183.842 58.2936 184.958 58.4172 185.615C58.615 186.619 60.1106 187.995 61.0747 188.801C62.2367 189.768 63.4233 190.524 64.5975 191.168C67.3664 192.693 70.0981 193.957 73.3737 194.181C74.3378 194.242 75.5244 194.168 76.1425 193.945C77.428 193.486 78.4663 191.429 79.0225 190.301C79.2574 189.817 79.6282 189.334 79.7765 188.912C80.0237 188.193 79.8878 187.462 80.1226 186.594C77.6752 187.065 75.1289 186.507 72.9658 185.838C67.8484 184.264 63.4109 181.351 60.9635 177.384C60.123 178.971 59.1218 181.078 58.6521 183.185ZM58.1823 188.516C57.8239 189.185 57.3665 189.805 56.8597 190.598C56.1799 191.664 55.327 192.383 55.8214 193.833C56.1181 194.726 57.2429 195.866 58.0711 196.61C60.8523 199.151 66.464 202.188 71.1116 200.255C71.7915 198.792 72.5208 197.391 73.1264 195.854C66.5753 194.999 61.9647 192.172 58.1823 188.516ZM60.0859 200.267C57.7126 198.854 55.5495 197.019 54.2516 194.763C53.7943 195.346 52.8425 195.631 52.002 195.978C50.7412 196.499 49.4928 196.97 48.2567 197.478C47.5645 197.763 46.897 198.197 46.3531 198.234C45.5002 198.296 44.4496 197.899 43.5225 197.713C42.5955 197.515 41.6808 197.267 40.6919 197.131C42.4595 199.783 43.7574 203.973 43.0034 208.882C47.4162 210.109 52.0638 211.324 56.5631 212.526C57.1564 212.688 58.1205 213.109 58.5284 213.047C58.7139 213.022 59.1836 212.576 59.4555 212.353C61.6928 210.531 63.9919 209.328 67.0697 208.473C67.9967 206.502 69.1587 204.482 69.9003 202.511C65.8831 203.106 62.694 201.804 60.0859 200.267ZM60.5556 213.692C60.0735 214.076 59.4308 214.783 58.8869 214.845C58.2689 214.919 57.3913 214.535 56.5754 214.324C52.6571 213.307 49.295 212.341 45.4384 211.312C44.3754 211.027 41.5819 210.667 41.2852 209.812C41.1246 209.366 41.2976 208.597 41.347 207.965C41.3965 207.271 41.4583 206.552 41.4583 205.994C41.5077 202.957 40.9268 201.221 39.9008 199.275C39.6165 198.73 38.8378 197.007 38.2816 196.722C37.9602 196.561 37.3422 196.561 36.8354 196.499C35.5004 196.3 33.3991 195.928 32.0394 196.089C30.6427 196.251 29.728 197.242 29.0976 198.408C28.5908 199.325 28.1458 200.651 28.2323 201.878C28.3683 203.763 29.8392 205.114 30.9393 206.329C32.0023 207.506 32.9912 208.423 34.116 209.279C36.5511 211.126 39.2704 212.217 42.4224 213.208C49.1467 215.34 55.0674 216.741 62.7311 217.324C63.8188 215.117 64.9313 212.936 65.9572 210.667C63.8436 211.262 62.1501 212.403 60.5556 213.692ZM75.3266 221.96C74.9311 222.815 74.7828 224.811 74.5727 226.36C74.3502 228.021 73.7939 229.856 74.2883 230.934C74.7704 232.013 75.957 232 77.4651 232.211C82.7554 232.93 87.811 233.562 93.1632 234.294C94.1149 234.43 95.2398 234.666 95.8207 234.529C97.168 234.195 97.2669 232.843 97.4894 231.343C97.7243 229.806 97.8973 228.43 98.1198 226.893C98.2434 226.088 98.4288 225.22 98.2311 224.637C97.8232 223.398 96.5253 223.398 95.0544 223.187C92.2979 222.815 89.7392 222.48 87.2671 222.146C84.4612 221.761 82.1374 221.452 79.5293 221.104C78.6517 220.993 77.4527 220.757 76.7605 220.869C76.1301 220.968 75.5862 221.402 75.3266 221.96ZM74.0041 241.583C80.0237 241.583 86.0434 241.583 92.0631 241.583C92.2238 239.723 92.3968 237.876 92.5204 235.967C86.7603 235.161 80.9508 234.418 75.1536 233.649C74.6715 236.19 74.3502 238.905 74.0041 241.583ZM73.7074 243.553C73.5962 245.066 73.0276 245.872 72.496 247.024C72.1994 247.669 71.9645 248.685 71.5196 249.107C71.1982 249.417 70.4689 249.541 69.9621 249.739C68.281 250.408 66.6989 251.053 65.1167 251.648C66.9585 253.408 68.0833 256.396 69.1587 259.11C74.6592 259.073 80.1226 258.999 85.549 258.875C86.8839 256.222 88.7009 254.115 90.5674 251.933C90.9382 251.499 92.2856 250.247 92.3597 249.677C92.4092 249.318 92.199 248.698 92.1249 248.227C91.89 246.628 91.8529 245.153 91.9518 243.368C85.8951 243.368 79.826 243.368 73.7692 243.368C73.7074 243.392 73.7074 243.467 73.7074 243.553ZM92.7553 251.995C91.0742 253.83 89.2695 255.987 87.8481 258.416C87.4278 259.148 86.8345 260.387 86.2906 260.561C85.7715 260.722 84.8815 260.635 84.1028 260.672C83.324 260.709 82.4711 260.672 81.7913 260.672C78.491 260.672 76.0312 260.784 72.6691 260.784C71.6802 260.784 68.9485 261.143 68.1698 260.722C67.8113 260.523 67.663 259.854 67.4158 259.271C66.5258 257.127 65.71 254.933 64.3627 253.433C63.9919 253.024 63.6211 252.59 63.1513 252.28C60.3207 253.024 57.5767 253.309 55.9327 255.168C54.2764 257.065 53.6583 259.705 52.756 262.457C65.9572 262.284 79.1708 262.135 92.3968 261.999C92.7923 259.024 93.4351 255.144 92.7553 251.995Z" fill="#223549"/>
<path fill-rule="evenodd" clip-rule="evenodd" d="M126.858 50.4248C127.204 50.3876 127.896 50.3628 128.354 50.4868C129.244 50.7099 130.987 51.3669 130.949 52.2842C130.937 52.6561 130.678 53.0403 130.257 53.0899C129.392 53.2015 128.737 52.2346 127.773 52.1107C126.945 51.9991 126.228 52.2594 125.696 52.4577C124.979 52.7181 123.224 53.623 123.273 52.1602C123.298 51.3297 124.856 50.8339 125.696 50.5983C126.104 50.4992 126.413 50.4744 126.858 50.4248Z" fill="#223549"/>
<path fill-rule="evenodd" clip-rule="evenodd" d="M126.166 63.3299C126.685 63.1936 127.204 63.4415 127.266 63.9621C127.365 64.8794 126.018 65.8339 125.128 66.1562C124.398 66.4289 121.197 66.9247 121.951 65.1769C122.272 64.4331 123.916 64.8794 124.782 64.4207C125.597 64.0117 125.424 63.5282 126.166 63.3299Z" fill="#223549"/>
<path fill-rule="evenodd" clip-rule="evenodd" d="M140.257 50.6484C143.459 50.6484 146.092 53.8714 146.141 57.8505C146.19 61.8296 143.632 65.0525 140.43 65.0525C137.229 65.0525 134.596 61.8296 134.547 57.8505C134.497 53.8714 137.056 50.6484 140.257 50.6484Z" fill="#223549"/>
<path fill-rule="evenodd" clip-rule="evenodd" d="M125.573 35.5618C124.905 35.6857 133.78 34.223 137.476 43.9166C139.689 49.7427 138.44 52.8789 138.44 52.8789L140.752 52.7673C140.752 52.7673 140.789 47.2883 139.652 42.268C138.378 36.6402 131.58 35.3015 131.58 35.2891L125.573 35.5618Z" fill="#223549"/>
<path fill-rule="evenodd" clip-rule="evenodd" d="M66.7609 130.316H140.011C141.605 130.316 142.903 131.606 142.903 133.205V136.676C142.903 138.275 141.605 139.564 140.011 139.564H66.7609C65.1664 139.564 63.8809 138.275 63.8809 136.676V133.205C63.8809 131.606 65.1664 130.316 66.7609 130.316Z" fill="white"/>
<path d="M140.011 140.444H66.7609C64.6967 140.444 63.0156 138.758 63.0156 136.688V133.217C63.0156 131.147 64.6967 129.461 66.7609 129.461H140.011C142.075 129.461 143.768 131.147 143.768 133.217V136.688C143.768 138.758 142.087 140.444 140.011 140.444ZM66.7609 131.184C65.6485 131.184 64.7461 132.089 64.7461 133.205V136.675C64.7461 137.791 65.6485 138.696 66.7609 138.696H140.011C141.123 138.696 142.038 137.791 142.038 136.675V133.205C142.038 132.089 141.135 131.184 140.011 131.184H66.7609Z" fill="#223549"/>
<path fill-rule="evenodd" clip-rule="evenodd" d="M49.0601 95.582H106.97C108.565 95.582 110.283 96.6853 110.802 98.0364L123.311 130.588C123.83 131.939 121.618 134.927 120.023 134.927H62.1131C60.5185 134.927 58.8004 133.836 58.2812 132.472L45.7845 99.9454C45.2654 98.5942 47.4656 95.582 49.0601 95.582Z" fill="white"/>
<path d="M120.01 135.795H62.1127C60.1597 135.795 58.1202 134.469 57.4774 132.795L44.9807 100.256C44.511 99.0286 45.3763 97.5411 45.7842 96.9585C46.5258 95.8677 47.7866 94.7148 49.0721 94.7148H106.982C108.935 94.7148 110.962 96.0412 111.617 97.727L124.126 130.279C124.596 131.494 123.731 132.969 123.348 133.539C122.569 134.63 121.308 135.795 120.01 135.795ZM49.0598 96.4627C48.6519 96.4627 47.8361 97.0205 47.2057 97.9626C46.6494 98.7683 46.5135 99.4377 46.6 99.6484L59.0967 132.175C59.4922 133.204 60.8766 134.072 62.1127 134.072H120.01C120.431 134.072 121.246 133.514 121.889 132.56C122.433 131.766 122.569 131.122 122.482 130.911L109.986 98.3592C109.59 97.3304 108.206 96.4627 106.97 96.4627H49.0598Z" fill="#223549"/>
<path fill-rule="evenodd" clip-rule="evenodd" d="M81.3835 113.742C83.9669 113.742 86.6862 115.75 87.4526 118.229C88.219 120.709 86.7604 122.717 84.177 122.717C81.5936 122.717 78.8743 120.709 78.1079 118.229C77.3292 115.75 78.8001 113.742 81.3835 113.742Z" fill="#223549"/>
<path fill-rule="evenodd" clip-rule="evenodd" d="M75.9082 148.154C75.9082 148.154 81.8537 132.374 91.8535 132.708C101.853 133.043 131.161 140.939 131.161 140.939L118.417 145.625L75.9082 148.402V148.154Z" fill="#EC663D"/>
<path fill-rule="evenodd" clip-rule="evenodd" d="M110.592 134.693C104.548 133.367 98.3303 131.235 90.8026 131.916C83.7199 132.549 81.0253 137.123 78.1576 142.155C75.1539 147.461 72.447 153.151 69.8018 158.84H71.7547C73.7077 154.762 75.6855 150.696 77.7003 146.668C78.7138 144.647 79.8016 142.75 80.9882 140.879C82.2366 138.908 83.2873 137.123 84.9683 135.784C86.7236 134.383 89.0598 133.664 92.014 133.528C98.2561 133.23 103.621 134.755 108.862 136.019C114.387 137.346 129.121 141.201 134.461 142.602L136.006 141.263C131.791 140.259 116.636 136.156 112.384 135.152C111.507 134.966 111.173 134.842 110.592 134.693Z" fill="#223549"/>
<path fill-rule="evenodd" clip-rule="evenodd" d="M121.494 101.993C122.285 101.72 123.459 102.464 124.263 102.923C128.75 105.439 132.705 108.34 136.722 111.315C137.328 111.761 138.193 112.654 138.737 112.765C138.972 112.815 139.318 112.74 139.541 112.765C141.938 112.988 144.472 113.67 147.043 114.154C149.404 114.587 151.778 115.021 154.163 115.455V113.67C150.22 112.964 146.265 112.269 142.371 111.538C141.246 111.327 139.985 111.241 139.083 110.906C138.477 110.67 137.761 109.989 137.118 109.518C133.756 107.051 130.53 104.733 127.019 102.576C125.61 101.708 124.053 100.568 122.52 100.258C121.259 100.01 120.208 100.654 119.343 101.125C118.873 100.171 118.96 98.8942 118.416 97.7662C118.305 97.5307 118.132 97.3447 117.946 97.1836H115.338C115.808 97.7414 116.648 98.1505 116.908 98.6959C117.205 99.3033 117.217 99.9975 117.365 100.543C117.526 101.15 117.687 101.696 117.885 102.34C117.081 103.295 116.364 104.2 115.462 105.229C114.794 105.997 113.286 107.224 113.496 108.637C113.67 109.778 115.487 110.435 116.957 110.026C117.736 109.803 118.639 108.972 119.318 108.402C119.677 108.104 120.011 107.77 120.357 107.472C120.703 107.175 121.061 106.728 121.506 106.716C120.147 107.956 119.219 109.666 118.33 111.873C117.563 113.782 116.463 116.224 117.229 118.641C117.415 119.248 117.711 119.657 117.983 120.265C118.49 120.86 118.663 121.405 119.084 121.827C120.53 122.88 121.222 124.703 123.706 124.715C123.805 125.099 123.904 125.496 124.003 125.88C124.028 125.843 124.065 125.793 124.102 125.756C124.498 125.36 124.992 125.062 125.536 124.901C125.474 124.628 125.4 124.355 125.338 124.083C126.426 123.351 127.464 122.546 128.453 121.715C130.258 122.992 131.852 124.008 133.756 124.963C135.35 125.756 136.747 126.054 139.182 125.942C139.788 125.917 140.406 125.707 141.086 125.769C141.716 125.831 142.557 126.24 143.335 126.525C146.957 127.802 150.542 129.115 154.139 130.392V128.545C150.517 127.281 146.907 125.992 143.335 124.727C142.668 124.492 142 124.108 141.432 124.033C140.468 123.897 139.417 124.17 138.552 124.207C137.649 124.256 136.747 124.306 135.845 124.033C133.533 123.351 131.865 121.678 129.788 120.624C130.134 119.695 131.667 119.509 131.691 118.43C131.704 118.021 131.407 117.6 130.937 117.562C130.146 117.501 129.491 118.492 128.923 119.013C127.736 120.066 126.562 121.269 125.227 122.137C124.547 122.583 123.669 123.215 122.866 122.831C122.767 122.62 122.952 122.372 123.039 122.199C123.756 120.674 124.559 118.889 125.697 117.624C126.599 116.62 127.835 115.691 129.096 114.786C129.479 114.513 130.023 114.203 130.023 113.683C130.023 113.323 129.726 112.926 129.331 112.877C128.416 112.753 127.242 114.042 126.735 114.439C125.832 115.145 125.177 115.728 124.547 116.41C123.039 118.021 122.334 119.856 121.432 121.616C120.851 121.17 120.406 120.599 119.986 119.992C120.987 118.071 121.704 116.125 122.99 114.327C123.521 113.583 124.3 112.84 125.066 112.071C125.511 111.625 127.106 110.534 127.081 109.753C127.069 109.431 126.735 108.972 126.327 108.935C125.474 108.861 124.399 110.286 123.966 110.732C123.187 111.513 122.52 112.158 121.951 112.877C120.567 114.612 119.899 116.472 118.886 118.145C118.515 116.125 119.096 114.625 119.751 112.939C120.616 110.683 121.407 109.17 123.163 107.733C123.83 107.175 125.338 106.456 125.35 105.65C125.387 104.014 123.36 105.229 122.928 105.65C122.322 105.365 122.075 104.745 121.259 104.782C120.752 104.807 120.283 105.353 119.813 105.762C119.355 106.171 118.898 106.518 118.49 106.865C117.526 107.658 116.747 108.675 115.375 108.315C115.833 107.311 116.859 106.233 117.798 105.129C118.873 103.853 119.936 102.539 121.494 101.993Z" fill="#223549"/>
</g>
<defs>
<clipPath id="clip0">
<rect width="274" height="265" fill="white"/>
</clipPath>
</defs>
</svg>
