<svg width="17" height="17" viewBox="0 0 17 17" fill="none" xmlns="http://www.w3.org/2000/svg">
<path d="M13.7048 4.67524L13.7698 5.03949L14.1118 5.1808C14.8763 5.4967 15.5076 6.0678 15.8984 6.79687C16.2891 7.52594 16.4151 8.3679 16.2548 9.1794C16.0945 9.9909 15.658 10.7218 15.0194 11.2476C14.3811 11.7732 13.5804 12.0614 12.7536 12.0632H11.9035C11.8571 12.0632 11.8126 12.0447 11.7797 12.0119L11.3022 12.4895L11.7797 12.0119C11.7469 11.9791 11.7285 11.9346 11.7285 11.8882C11.7285 11.8417 11.7469 11.7972 11.7797 11.7644C11.8126 11.7316 11.8571 11.7131 11.9035 11.7131H12.7539V11.7132L12.7602 11.7131C13.5412 11.7059 14.2932 11.4156 14.8765 10.8961C15.4598 10.3766 15.8349 9.66314 15.9321 8.88809C16.0293 8.11305 15.842 7.32905 15.4051 6.68157C14.9682 6.0341 14.3112 5.5671 13.5561 5.36723L13.5561 5.36714L13.5454 5.36449C13.5092 5.35555 13.4769 5.33533 13.453 5.30675C13.4292 5.27817 13.4151 5.24273 13.4127 5.20558L13.4122 5.19727L13.4115 5.18898C13.3108 4.04071 12.7735 2.97478 11.9104 2.2108C11.0473 1.44682 9.924 1.04298 8.772 1.08249C7.62 1.12199 6.52702 1.60182 5.71825 2.42313C4.90948 3.24445 4.44651 4.34467 4.42473 5.49714L4.42461 5.49714L4.42461 5.50962C4.42455 5.65643 4.43279 5.80313 4.4493 5.94901L4.44935 5.94937C4.45242 5.97641 4.44915 6.00379 4.43979 6.02934L5.07402 6.26161L4.43979 6.02934C4.43044 6.05489 4.41525 6.0779 4.39544 6.09655L4.39544 6.09655L4.39298 6.09888C4.37402 6.11692 4.35107 6.13024 4.326 6.13775L4.5198 6.78477L4.326 6.13775C4.30093 6.14526 4.27444 6.14675 4.24868 6.14211L4.241 6.14072L4.23329 6.13952C4.09628 6.11807 3.95772 6.10825 3.81908 6.11014C3.07798 6.11154 2.36755 6.40654 1.84342 6.93067L2.28917 7.37643L1.84342 6.93067C1.31803 7.45606 1.02287 8.16863 1.02287 8.91164C1.02287 9.65464 1.31803 10.3672 1.84342 10.8926C2.3688 11.418 3.08137 11.7131 3.82438 11.7131H5.10003C5.14644 11.7131 5.19096 11.7316 5.22378 11.7644C5.2566 11.7972 5.27504 11.8417 5.27504 11.8882C5.27504 11.9346 5.2566 11.9791 5.22378 12.0119L5.70138 12.4895L5.22378 12.0119C5.19096 12.0447 5.14645 12.0632 5.10003 12.0632H3.82483C3.0185 12.0626 2.24305 11.753 1.65805 11.1981C1.07305 10.6432 0.722994 9.88515 0.679926 9.07997C0.636859 8.27479 0.904052 7.48373 1.42652 6.86957C1.949 6.25541 2.687 5.86487 3.48867 5.77832L4.04687 5.71805L4.08963 5.15824C4.17958 3.98071 4.69588 2.87639 5.54175 2.05227C6.38762 1.22814 7.50501 0.740787 8.68449 0.681539C9.86397 0.62229 11.0246 0.995216 11.9488 1.73042C12.873 2.46563 13.4973 3.51265 13.7048 4.67524Z" fill="white" stroke="white" stroke-width="1.35085"/>
<path d="M10.0743 14.3206L9.8308 14.5641L8.67777 15.7171V14.0865V10.1864C8.67777 10.14 8.65934 10.0954 8.62651 10.0626C8.59369 10.0298 8.54918 10.0114 8.50276 10.0114C8.45635 10.0114 8.41183 10.0298 8.37901 10.0626M10.0743 14.3206L8.37901 10.0626M10.0743 14.3206C10.107 14.2903 10.15 14.2736 10.1947 14.274C10.2406 14.2744 10.2845 14.2928 10.3169 14.3252C10.3494 14.3577 10.3678 14.4016 10.3682 14.4475C10.3686 14.4921 10.3519 14.5352 10.3216 14.5679L8.6265 16.263C8.59368 16.2958 8.54917 16.3142 8.50276 16.3142C8.45639 16.3142 8.41192 16.2958 8.3791 16.2631C8.37908 16.263 8.37906 16.263 8.37903 16.263L6.68395 14.5679C6.65366 14.5352 6.63696 14.4921 6.63734 14.4475C6.63774 14.4016 6.65615 14.3577 6.6886 14.3252C6.72105 14.2928 6.76494 14.2744 6.81083 14.274C6.85549 14.2736 6.89856 14.2903 6.93127 14.3206L7.17473 14.5641L8.32775 15.7171V14.0865V10.1864C8.32775 10.14 8.34619 10.0954 8.37901 10.0626M10.0743 14.3206L7.90142 9.58502L8.37901 10.0626" fill="white" stroke="white" stroke-width="1.35085"/>
</svg>
