<svg width="424" height="383" viewBox="0 0 424 383" fill="none" xmlns="http://www.w3.org/2000/svg">
<path d="M32.8816 367.513C31.2202 366.836 30.9304 365.79 31.394 364.957C31.5679 364.628 35.9147 356.919 43.6811 356.609C47.0426 356.454 49.5927 358.682 51.8531 360.638C53.8816 362.4 55.7942 364.066 58.0546 364.066C60.2956 364.066 62.1116 362.594 64.1981 360.89C66.5357 358.992 69.1824 356.842 72.8144 356.842C76.4851 356.861 78.958 358.953 81.1604 360.812C83.2275 362.555 85.0242 364.066 87.5357 364.066C89.912 364.066 91.2063 362.71 92.8678 361.006C94.6645 359.146 96.8862 356.842 100.808 356.842C108.014 356.861 113.694 364.434 113.926 364.744C114.486 365.499 114.331 366.584 113.578 367.145C112.825 367.707 111.743 367.552 111.182 366.797C111.144 366.739 106.275 360.289 100.827 360.27C98.3158 360.25 97.0021 361.645 95.3213 363.388C93.4667 365.306 91.3609 367.494 87.5357 367.494C83.7685 367.494 81.199 365.344 78.958 363.446C76.9488 361.761 75.2294 360.309 72.8724 360.289C70.4189 360.289 68.4483 361.877 66.3812 363.562C64.1015 365.402 61.532 367.494 58.0739 367.494C54.5385 367.494 51.9304 365.228 49.6314 363.233C47.6029 361.471 45.8448 359.941 43.8356 360.037C37.9626 360.27 34.4272 366.545 34.4078 366.603C34.0601 367.204 33.4805 367.513 32.8816 367.513Z" fill="#EC663D"/>
<path d="M112.609 377.372C112.088 377.372 111.566 377.121 111.238 376.675C111.199 376.617 106.331 370.129 100.883 370.109C98.3905 370.109 97.0575 371.485 95.3767 373.247C93.5221 375.184 91.4163 377.372 87.591 377.372C83.8045 377.372 81.2543 375.203 78.994 373.305C76.9848 371.601 75.2654 370.148 72.9084 370.129C70.4549 370.129 68.4843 371.736 66.4172 373.421C64.1375 375.281 61.5681 377.372 58.1099 377.372C54.5745 377.372 51.9664 375.106 49.6674 373.092C47.6389 371.33 45.8808 369.78 43.8716 369.877C38.0372 370.109 34.4632 376.423 34.4245 376.482C33.9609 377.314 32.9176 377.605 32.1062 377.14C31.2755 376.675 30.9857 375.649 31.4301 374.816C31.6039 374.487 35.9508 366.739 43.7364 366.429C47.0786 366.275 49.6674 368.521 51.9084 370.477C53.937 372.24 55.8496 373.906 58.1099 373.906C60.3509 373.906 62.1669 372.434 64.2534 370.71C66.591 368.812 69.2378 366.643 72.8698 366.643C76.5405 366.662 79.0133 368.773 81.2157 370.632C83.2829 372.375 85.0796 373.906 87.591 373.906C89.9673 373.906 91.2617 372.55 92.9232 370.826C94.7198 368.967 96.9416 366.643 100.883 366.643C108.089 366.662 113.769 374.274 114 374.603C114.561 375.358 114.406 376.443 113.633 377.004C113.324 377.256 112.977 377.372 112.609 377.372Z" fill="#EC663D"/>
<path fill-rule="evenodd" clip-rule="evenodd" d="M362.426 356.625C363.991 356.625 365.247 357.903 365.247 359.453C365.247 361.022 363.972 362.28 362.426 362.28C360.861 362.28 359.606 361.002 359.606 359.453C359.586 357.884 360.861 356.625 362.426 356.625Z" fill="#EC663D"/>
<path fill-rule="evenodd" clip-rule="evenodd" d="M372.477 356.625C374.042 356.625 375.297 357.903 375.297 359.453C375.297 361.022 374.022 362.28 372.477 362.28C370.931 362.28 369.656 361.002 369.656 359.453C369.656 357.884 370.912 356.625 372.477 356.625Z" fill="#EC663D"/>
<path fill-rule="evenodd" clip-rule="evenodd" d="M382.543 356.625C384.108 356.625 385.383 357.903 385.383 359.453C385.383 361.022 384.127 362.28 382.543 362.28C380.978 362.28 379.723 361.002 379.723 359.453C379.723 357.884 380.978 356.625 382.543 356.625Z" fill="#EC663D"/>
<path fill-rule="evenodd" clip-rule="evenodd" d="M392.61 356.625C394.175 356.625 395.45 357.903 395.45 359.453C395.45 361.022 394.175 362.28 392.61 362.28C391.045 362.28 389.789 361.002 389.789 359.453C389.789 357.884 391.045 356.625 392.61 356.625Z" fill="#EC663D"/>
<path fill-rule="evenodd" clip-rule="evenodd" d="M402.672 356.625C404.237 356.625 405.493 357.903 405.493 359.453C405.493 361.022 404.218 362.28 402.672 362.28C401.108 362.28 399.852 361.002 399.852 359.453C399.832 357.884 401.108 356.625 402.672 356.625Z" fill="#EC663D"/>
<path fill-rule="evenodd" clip-rule="evenodd" d="M412.735 356.625C414.3 356.625 415.555 357.903 415.555 359.453C415.555 361.022 414.28 362.28 412.735 362.28C411.17 362.28 409.914 361.002 409.914 359.453C409.895 357.884 411.17 356.625 412.735 356.625Z" fill="#EC663D"/>
<path fill-rule="evenodd" clip-rule="evenodd" d="M362.426 365.578C363.991 365.578 365.247 366.856 365.247 368.425C365.247 369.994 363.972 371.253 362.426 371.253C360.861 371.253 359.606 369.975 359.606 368.425C359.586 366.856 360.861 365.578 362.426 365.578Z" fill="#EC663D"/>
<path fill-rule="evenodd" clip-rule="evenodd" d="M372.469 365.578C374.034 365.578 375.29 366.856 375.29 368.425C375.29 369.994 374.015 371.253 372.469 371.253C370.924 371.253 369.648 369.975 369.648 368.425C369.648 366.856 370.904 365.578 372.469 365.578Z" fill="#EC663D"/>
<path fill-rule="evenodd" clip-rule="evenodd" d="M382.543 365.578C384.108 365.578 385.383 366.856 385.383 368.425C385.383 369.994 384.127 371.253 382.543 371.253C380.978 371.253 379.723 369.975 379.723 368.425C379.723 366.856 380.978 365.578 382.543 365.578Z" fill="#EC663D"/>
<path fill-rule="evenodd" clip-rule="evenodd" d="M392.61 365.578C394.175 365.578 395.45 366.856 395.45 368.425C395.45 369.994 394.175 371.253 392.61 371.253C391.045 371.253 389.789 369.975 389.789 368.425C389.789 366.856 391.045 365.578 392.61 365.578Z" fill="#EC663D"/>
<path fill-rule="evenodd" clip-rule="evenodd" d="M402.672 365.578C404.237 365.578 405.493 366.856 405.493 368.425C405.493 369.994 404.218 371.253 402.672 371.253C401.108 371.253 399.852 369.975 399.852 368.425C399.832 366.856 401.108 365.578 402.672 365.578Z" fill="#EC663D"/>
<path fill-rule="evenodd" clip-rule="evenodd" d="M412.735 365.578C414.3 365.578 415.555 366.856 415.555 368.425C415.555 369.994 414.28 371.253 412.735 371.253C411.17 371.253 409.914 369.975 409.914 368.425C409.895 366.856 411.17 365.578 412.735 365.578Z" fill="#EC663D"/>
<path fill-rule="evenodd" clip-rule="evenodd" d="M49.2453 8.32422H406.033C415.905 8.32422 423.903 16.3426 423.903 26.2398V327.086C423.903 336.983 415.905 345.001 406.033 345.001H49.2453C39.3732 345.001 31.375 336.983 31.375 327.086V26.2398C31.375 16.3426 39.3732 8.32422 49.2453 8.32422Z" fill="#F5F5F5"/>
<path fill-rule="evenodd" clip-rule="evenodd" d="M31.3773 37.4363C51.4693 37.4363 415.115 37.4363 415.115 37.4363C415.115 37.4363 416.97 21.5931 415.405 17.1385C413.859 12.6838 411.985 8.32594 411.985 8.32594C411.985 8.32594 66.1905 8.32594 57.2844 8.32594C48.3782 8.32594 40.4187 7.66742 34.8934 15.5696C30.45 21.9418 31.3773 25.3699 31.3773 37.4363Z" fill="#FFBCA8"/>
<path d="M397.725 350.487H40.9376C30.1381 350.487 21.3672 341.694 21.3672 330.867V19.62C21.3672 8.79316 30.1574 0 40.9376 0H397.725C408.524 0 417.295 8.79316 417.295 19.62V330.847C417.295 341.674 408.524 350.487 397.725 350.487ZM40.9376 3.42817C32.0314 3.42817 24.7867 10.6912 24.7867 19.62V330.847C24.7867 339.776 32.0314 347.039 40.9376 347.039H397.725C406.631 347.039 413.876 339.776 413.876 330.847V19.62C413.876 10.6912 406.631 3.42817 397.725 3.42817H40.9376Z" fill="#223549"/>
<path d="M115.374 39.5141H1.71941C0.772769 39.5141 0 38.7588 0 37.8097C0 36.8607 0.772769 36.0859 1.71941 36.0859H115.394C116.34 36.0859 117.113 36.8607 117.113 37.8097C117.094 38.7588 116.321 39.5141 115.374 39.5141Z" fill="#223549"/>
<path d="M414.262 39.51H134.481C133.534 39.51 132.762 38.7353 132.762 37.7863C132.762 36.8372 133.534 36.0625 134.481 36.0625H414.262C415.209 36.0625 415.982 36.8372 415.982 37.7863C415.982 38.7547 415.209 39.51 414.262 39.51Z" fill="#223549"/>
<path d="M216.101 98.8342H76.8678C75.9212 98.8342 75.1484 98.0595 75.1484 97.1105C75.1484 96.1614 75.9212 95.3867 76.8678 95.3867H216.101C217.048 95.3867 217.821 96.1614 217.821 97.1105C217.821 98.0595 217.048 98.8342 216.101 98.8342Z" fill="#666666"/>
<path d="M230.438 113.069H135.001C134.054 113.069 133.281 112.294 133.281 111.345C133.281 110.396 134.054 109.621 135.001 109.621H230.438C231.384 109.621 232.157 110.396 232.157 111.345C232.138 112.313 231.384 113.069 230.438 113.069Z" fill="#666666"/>
<path d="M153.778 127.885H76.8678C75.9212 127.885 75.1484 127.11 75.1484 126.161C75.1484 125.212 75.9212 124.438 76.8678 124.438H153.778C154.724 124.438 155.497 125.212 155.497 126.161C155.497 127.13 154.724 127.885 153.778 127.885Z" fill="#666666"/>
<path d="M199.604 142.588H116.88C115.933 142.588 115.16 141.813 115.16 140.864C115.16 139.915 115.933 139.141 116.88 139.141H199.604C200.551 139.141 201.324 139.915 201.324 140.864C201.324 141.833 200.551 142.588 199.604 142.588Z" fill="#666666"/>
<path d="M147.17 157.401H76.8678C75.9212 157.401 75.1484 156.626 75.1484 155.677C75.1484 154.728 75.9212 153.953 76.8678 153.953H147.151C148.098 153.953 148.871 154.728 148.871 155.677C148.871 156.626 148.098 157.401 147.17 157.401Z" fill="#666666"/>
<path d="M216.104 84.1311H76.735C75.7884 84.1311 75.0156 83.3564 75.0156 82.4074C75.0156 81.4583 75.7884 80.6836 76.735 80.6836H216.104C217.051 80.6836 217.823 81.4583 217.823 82.4074C217.823 83.3564 217.051 84.1311 216.104 84.1311Z" fill="#666666"/>
<path d="M117.557 113.069H76.735C75.7884 113.069 75.0156 112.294 75.0156 111.345C75.0156 110.396 75.7884 109.621 76.735 109.621H117.557C118.503 109.621 119.276 110.396 119.276 111.345C119.276 112.313 118.503 113.069 117.557 113.069Z" fill="#666666"/>
<path d="M230.443 127.885H163.926C162.98 127.885 162.207 127.11 162.207 126.161C162.207 125.212 162.98 124.438 163.926 124.438H230.423C231.37 124.438 232.143 125.212 232.143 126.161C232.143 127.13 231.389 127.885 230.443 127.885Z" fill="#666666"/>
<path d="M97.8316 142.588H76.735C75.7884 142.588 75.0156 141.813 75.0156 140.864C75.0156 139.915 75.7884 139.141 76.735 139.141H97.8123C98.7589 139.141 99.5317 139.915 99.5317 140.864C99.5317 141.833 98.7783 142.588 97.8316 142.588Z" fill="#666666"/>
<path fill-rule="evenodd" clip-rule="evenodd" d="M105.081 59.5195C107.863 59.5195 110.124 61.7856 110.124 64.594C110.124 67.4024 107.863 69.6685 105.081 69.6685C102.299 69.6685 100.039 67.4024 100.039 64.594C100.039 61.7856 102.28 59.5195 105.081 59.5195Z" fill="#EC663D"/>
<path d="M92.792 60.1953L98.24 69.6664H87.3633L92.792 60.1953Z" fill="#EC663D"/>
<path d="M52.3941 96.9945C51.9304 96.9945 51.4475 96.8008 51.119 96.4135C50.4815 95.6969 50.5588 94.6122 51.2543 93.9925L61.3582 84.9669L51.2736 76.0575C50.5588 75.4377 50.5008 74.3531 51.119 73.6365C51.7372 72.9199 52.8191 72.8618 53.5339 73.4815L65.0675 83.6692C65.4346 83.9985 65.6471 84.4633 65.6471 84.9475C65.6471 85.4317 65.4346 85.8966 65.0675 86.2258L53.5339 96.5297C53.2055 96.859 52.7998 96.9945 52.3941 96.9945Z" fill="#EC663D"/>
<path fill-rule="evenodd" clip-rule="evenodd" d="M108.768 299.314C108.768 299.314 107.531 280.314 97.3115 274.987C87.0916 269.661 65.8984 271.559 65.8984 271.559C65.8984 271.559 76.5047 294.549 87.478 297.532C98.4706 300.495 108.768 299.314 108.768 299.314Z" fill="#EC663D"/>
<path fill-rule="evenodd" clip-rule="evenodd" d="M112.945 270.072C112.945 270.072 91.9833 268.348 88.2354 255.739C84.4874 243.13 89.4332 240.07 89.4332 240.07C89.4332 240.07 107.188 242.569 110.568 251.265C113.93 259.961 112.945 270.072 112.945 270.072Z" fill="#EC663D"/>
<path fill-rule="evenodd" clip-rule="evenodd" d="M111.452 239.334C111.452 239.334 97.1748 233.504 94.9338 227.403C92.6927 221.283 94.0451 217.699 94.0451 217.699C94.0451 217.699 105.231 217.564 108.187 223.82C111.143 230.056 111.452 239.334 111.452 239.334Z" fill="#EC663D"/>
<path fill-rule="evenodd" clip-rule="evenodd" d="M113.388 201.586C113.388 201.586 104.656 192.851 107.438 183.535C110.22 174.2 115.185 171.449 115.185 171.449C115.185 171.449 124.419 182.044 121.889 189.81C119.338 197.558 113.388 201.586 113.388 201.586Z" fill="#EC663D"/>
<path fill-rule="evenodd" clip-rule="evenodd" d="M122.022 232.164C122.022 232.164 115.086 215.042 122.621 207.682C130.155 200.342 144.509 198.734 144.509 198.734C144.509 198.734 147.813 221.027 137.96 226.198C128.107 231.37 122.022 232.164 122.022 232.164Z" fill="#EC663D"/>
<path fill-rule="evenodd" clip-rule="evenodd" d="M115.373 173.328C112.475 177.337 108.823 181.772 108.379 188.396C108.147 191.863 109.635 194.594 111.2 196.744C112.011 197.867 114.156 198.952 113.885 200.772C113.808 201.295 113.421 201.837 112.996 201.973C110.968 202.632 108.282 198.526 107.645 197.499C103.646 191.224 105.385 183.767 108.688 177.511C110.292 174.451 112.494 170.248 114.638 169.008C116.512 167.924 117.807 171.139 118.657 172.592C121.014 176.62 123.892 182.431 123.873 188.551C123.854 193.451 121.593 196.763 118.966 199.591C118.193 200.424 115.353 203.213 114.658 200.637C114.233 199.087 116.802 197.208 117.633 196.163C119.275 194.11 120.55 192.057 120.608 188.706C120.705 181.869 117.556 178.092 115.373 173.328Z" fill="#EC663D"/>
<path fill-rule="evenodd" clip-rule="evenodd" d="M145.586 197.039C147.074 199.325 146.804 202.501 146.784 205.252C146.61 221.579 140.583 229.617 126.692 232.406C124.857 232.774 122.307 233.297 122.23 231.36C122.172 229.694 124.181 229.655 126.093 229.268C130.885 228.3 135.483 226.382 138.149 223.593C143.056 218.48 143.616 210.132 143.365 200.468C132.179 202.676 121.553 206.53 121.495 220.32C121.476 222.044 121.785 224.213 122.094 226.13C122.307 227.467 123.176 230.488 121.051 230.604C118.54 230.759 118.23 223.264 118.23 220.456C118.23 204.806 130.228 199.48 143.539 197.039C143.925 196.962 144.756 196.73 145.586 197.039Z" fill="#EC663D"/>
<path fill-rule="evenodd" clip-rule="evenodd" d="M94.2348 215.393C96.8623 214.677 100.417 216.749 102.871 217.93C104.976 218.938 107.391 220.293 108.821 221.959C111.468 225.019 113.09 231.411 112.839 236.137C112.723 238.48 111.815 239.507 109.111 239.429C106.348 239.332 101.866 236.64 100.031 235.11C97.7316 233.193 95.6838 230.249 94.3701 227.208C93.2109 224.458 90.6994 216.362 94.2348 215.393ZM109.574 236.137C110.154 225.116 104.088 220.758 95.7418 218.686C96.5532 228.292 101.422 233.851 109.574 236.137Z" fill="#EC663D"/>
<path fill-rule="evenodd" clip-rule="evenodd" d="M150.338 239.717C134.728 240.143 122.924 244.869 122.808 261.506C122.789 263.637 124.431 269.719 122.054 270.009C119.446 270.319 119.524 263.947 119.524 261.661C119.466 243.959 131.56 237.529 148.541 236.444C149.874 236.367 152.54 235.902 153.313 237.044C154.279 238.478 153.274 243.203 153.023 244.656C150.492 258.814 143.402 266.62 129.956 269.874C128.932 270.125 124.682 271.539 124.45 269.273C124.257 267.356 127.058 267.181 128.913 266.736C142.301 263.559 149.275 254.708 150.338 239.717Z" fill="#EC663D"/>
<path fill-rule="evenodd" clip-rule="evenodd" d="M113.439 267.773C115.313 271.782 109.208 270.233 107.044 269.865C96.3992 268.005 87.3385 264.093 86.5077 251.659C86.3918 249.877 86.4691 247.088 86.7975 244.492C87.0293 242.711 87.4737 238.14 89.4829 238.527C102.156 240.987 114.211 246.584 115.081 260.762C115.216 263.125 115.699 267.328 113.439 267.773ZM90.5261 242.556C89.8886 245.5 89.5215 248.792 89.7727 252.259C90.6034 263.163 101.248 265.894 111.951 267.328C111.507 265.003 111.932 262.892 111.797 260.917C111.062 249.121 101.113 244.144 90.6614 242.11C90.4875 242.13 90.5068 242.343 90.5261 242.556Z" fill="#EC663D"/>
<path fill-rule="evenodd" clip-rule="evenodd" d="M172.076 265.071C172.076 265.42 172.076 265.768 172.076 266.117C170.994 272.586 169.314 278.222 167.015 283.432C164.58 288.952 161.895 293.407 158.224 297.009C152.661 302.51 145.145 306.732 133.515 305.221C131.351 304.931 125.266 304.311 125.923 301.638C126.464 299.411 131.931 301.716 133.515 301.929C143.967 303.459 150.883 299.74 155.848 294.762C162.938 287.654 165.933 279.016 168.502 267.298C155.5 270.552 140.064 271.114 132.047 279.229C128.801 282.522 126.618 288.061 125.498 293.697C125.15 295.479 125.633 298.772 123.257 298.617C121.924 298.52 121.692 297.59 122.059 295.034C122.812 289.901 123.991 286.066 125.923 282.347C132.163 270.417 148.024 267.802 163.286 264.897C165.546 264.49 171.207 262.631 172.076 265.071Z" fill="#EC663D"/>
<path fill-rule="evenodd" clip-rule="evenodd" d="M68.792 273.133C71.3228 278.382 74.5298 283.515 78.9153 287.911C83.7258 292.734 89.1931 297.809 98.7175 297.169C100.533 297.053 105.344 295.116 105.711 297.46C106.136 300.23 99.2198 300.598 96.7855 300.598C88.2851 300.617 81.2529 295.194 76.539 290.003C72.7911 285.897 69.6807 281.849 66.7248 276.581C65.9521 275.225 64.252 272.804 64.6384 271.352C65.1793 269.357 69.8546 269.628 71.3421 269.57C84.0735 268.969 96.4958 270.383 102.89 277.336C106.368 281.113 108.242 285.355 109.729 291.669C110.212 293.741 110.869 296.588 109.131 296.898C106.754 297.305 106.986 294.264 106.6 292.579C105.383 287.311 103.064 282.082 99.8959 279.002C93.5206 272.785 80.4801 272.378 68.792 273.133Z" fill="#EC663D"/>
<path fill-rule="evenodd" clip-rule="evenodd" d="M94.4867 312.445H139.887C141.529 312.445 142.862 313.782 142.862 315.428V329.315C142.862 339.212 134.864 347.211 124.992 347.211H109.362C99.4903 347.211 91.4922 339.193 91.4922 329.315V315.428C91.5115 313.782 92.8445 312.445 94.4867 312.445Z" fill="#EC663D"/>
<path fill-rule="evenodd" clip-rule="evenodd" d="M121.579 269.463C121.579 269.463 116.846 249.843 128.727 243.49C140.609 237.137 153.591 237.68 153.591 237.68C153.591 237.68 153.166 257.183 142.135 263.052C131.084 268.92 121.579 269.463 121.579 269.463Z" fill="#EC663D"/>
<path fill-rule="evenodd" clip-rule="evenodd" d="M122.02 301.118C122.02 301.118 122.966 279.174 136.161 273.964C149.356 268.754 173.679 265.016 173.679 265.016C173.679 265.016 167.149 296.179 150.013 302.164C132.549 308.265 123.063 302.493 122.02 301.118Z" fill="#EC663D"/>
<path fill-rule="evenodd" clip-rule="evenodd" d="M405.583 168.44C403.709 157.361 397.565 151.842 381.762 146.36C365.978 140.879 347.065 133.984 347.084 109.057C347.104 84.1304 349.19 54.5939 329.079 55.3299C318.028 55.7366 315.98 63.2321 315.98 63.2321C315.98 63.2321 287.736 52.9476 273.864 61.1403C259.993 69.3331 253.386 80.1018 251.531 91.8777C249.677 103.673 244.731 126.121 252.864 131.427C260.998 136.734 267.45 131.273 267.45 131.273C267.45 131.273 269.363 136.444 272.222 135.902C275.082 135.359 276.975 134.41 276.975 134.41C276.975 134.41 280.761 142.68 275.333 143.668C269.923 144.637 232.888 142.332 225.025 155.463C217.163 168.595 209.106 196.795 209.106 196.795L201.224 237.836L227.865 247.094L241.408 214.556L244.982 220.076C244.982 220.076 242.104 220.657 243.495 223.058C244.886 225.46 247.513 228.423 247.513 228.423C247.513 228.423 243.147 229.818 244.538 233.653C245.91 237.488 248.266 236.5 251.377 235.435C254.487 234.389 256.593 237.217 256.593 237.217C256.593 237.217 247.648 242.504 250.044 244.983C252.439 247.443 256.941 243.589 258.969 244.828C260.998 246.068 262.698 247.675 262.698 247.675L254.217 269.91C254.217 269.91 164.904 278.18 155.38 284.242C150.646 287.264 142.957 293.946 140.195 313.043C136.138 340.972 132.312 378.411 132.312 378.411L261.075 379.302L251.995 347.673C251.995 347.673 299.25 346.918 315.845 347.073C332.44 347.228 352.358 350.52 361.091 341.998C369.823 333.476 378.864 314.98 370.924 297.239C362.984 279.497 348.456 252.614 348.456 252.614L354.715 208.745C354.715 208.745 369.166 213.665 379.096 203.845C388.756 194.297 387.384 180.158 391.634 178.008C395.788 175.877 407.457 179.519 405.583 168.44ZM305.413 142.777C298.226 138.71 300.641 122.324 300.641 122.324C300.641 122.324 307.113 122.77 309.875 122.77C312.638 122.77 315.98 121.569 315.98 121.569L323.283 148.278C323.264 148.297 312.599 146.864 305.413 142.777Z" fill="white"/>
<path fill-rule="evenodd" clip-rule="evenodd" d="M244.83 220.527L241.701 215.452L235.596 230.83L205.535 232.767L206.578 220.972L222.652 170.092C222.652 170.092 218.75 162.771 253.022 165.308C287.294 167.845 313.143 164.862 330.279 169.782C347.396 174.701 356.186 179.64 356.186 179.64C356.186 179.64 351.318 268.269 335.94 274.699C320.562 281.13 301.861 266.352 301.861 266.352C301.861 266.352 307 261.606 307.811 257.249C308.197 255.157 307.811 251.593 307.289 248.455C307.212 247.952 333.95 251.612 333.853 251.148C333.622 249.85 327.517 247.778 321.083 245.938C320.678 245.821 323.093 188.743 322.687 188.627C320.253 187.949 314.979 244.272 312.853 243.73C312.448 243.633 312.081 243.536 311.694 243.439C308.352 242.606 306.014 242.064 306.014 242.064C306.014 242.064 295.872 240.689 285.324 233.251C274.775 225.814 253.988 208.867 251.244 211.172C248.482 213.477 254.22 219.674 254.22 219.674L244.83 220.527Z" fill="#EC663D"/>
<path fill-rule="evenodd" clip-rule="evenodd" d="M275.649 122.642C275.649 122.642 277.387 130.234 276.982 132.636C276.595 135.037 275.339 135.483 275.339 135.483C275.339 135.483 272.635 138.62 269.988 135.638C267.322 132.636 266.858 131.609 266.858 131.609C266.858 131.609 256.387 139.957 250.186 127.871C243.984 115.785 251.635 80.8644 258.377 72.5167C278.72 47.2993 314.635 64.905 314.635 64.905C314.635 64.905 321.609 54.0201 329.974 55.5115C338.339 57.0028 342.706 57.8163 345.159 70.1344C347.593 82.4526 344.251 124.423 355.881 132.655C367.511 140.906 403.387 153.069 404.991 160.564C406.594 168.06 406.691 172.844 402.016 175.788C397.34 178.732 392.472 176.524 390.115 179.526C387.739 182.509 385.575 206.06 372.245 209.062C358.914 212.084 354.529 209.062 354.529 209.062C354.529 209.062 357.33 178.112 355.727 172.05C354.123 166.007 352.269 156.691 343.073 154.289C333.877 151.888 323.27 149.505 323.27 149.505L316.277 121.15C316.277 121.15 314.075 121.944 308.53 122.642C303.005 123.339 300.783 123.533 300.783 123.533L301.536 117.257C301.536 117.257 307.081 121.189 311.215 117.102C315.35 113.016 316.238 106.082 312.703 105.753C309.167 105.443 306.907 104.997 306.907 104.997C306.907 104.997 298.561 93.5312 293.055 85.9001C287.569 78.2691 283.821 70.0763 283.821 70.0763C283.821 70.0763 269.524 73.8338 264.463 86.1907C259.42 98.5476 258.454 111.176 263.574 116.037C268.694 120.937 275.649 122.642 275.649 122.642Z" fill="#EC663D"/>
<path fill-rule="evenodd" clip-rule="evenodd" d="M253.756 269.176L261.059 247.387C261.059 247.387 268.67 255.638 274.447 257.09C280.243 258.543 280.59 256.102 286.657 259.782C292.703 263.462 321.528 277.756 330.125 276.788C343.397 275.296 348.729 254.398 348.729 254.398C348.729 254.398 368.821 286.084 371.951 301.56C376.143 322.322 367.836 341.4 354.679 345.583C341.523 349.767 252.867 348.276 252.867 348.276L260.904 380.214H140.043C140.043 380.214 147.539 303.826 152.697 295.304C159.98 283.257 171.301 282.017 171.301 282.017L253.756 269.176Z" fill="#223549"/>
<path d="M55.7751 29.7296C55.3307 29.7296 54.9057 29.5553 54.558 29.2261L39.2571 13.8865C38.581 13.2086 38.581 12.124 39.2571 11.4654C39.9333 10.7876 41.0152 10.7876 41.672 11.4654L56.9729 26.805C57.649 27.4829 57.649 28.5676 56.9729 29.2261C56.6444 29.5553 56.2194 29.7296 55.7751 29.7296Z" fill="#EC663D"/>
<path d="M40.4742 29.7296C40.0299 29.7296 39.6049 29.5553 39.2571 29.2261C38.581 28.5482 38.581 27.4636 39.2571 26.805L54.558 11.4654C55.2341 10.7876 56.316 10.7876 56.9729 11.4654C57.649 12.1433 57.649 13.228 56.9729 13.8865L41.672 29.2261C41.3629 29.5553 40.9186 29.7296 40.4742 29.7296Z" fill="#EC663D"/>
<path fill-rule="evenodd" clip-rule="evenodd" d="M355.453 211.327C353.927 222.58 352.517 234.82 350.836 246.383C350.604 247.952 349.947 250.063 350.102 251.148C350.256 252.407 352.15 254.77 352.922 256.067C359.607 267.34 366.272 278.786 371.083 291.879C373.903 299.588 376.241 308.206 375.101 318.142C374.135 326.529 370.658 333.772 365.731 339.486C360.785 345.18 354.854 349.267 345.349 349.926C340.713 350.255 335.728 349.829 330.473 349.771C305.204 349.499 279.587 349.732 254.877 350.662C257.157 358.951 259.784 367.318 262.47 376.034C263.107 378.106 264.015 381.263 260.828 380.818C259.301 380.605 258.857 377.293 258.297 375.453C254.665 363.522 251.168 352.037 247.439 339.796C247.072 338.595 245.527 334.78 248.193 334.567C250.685 334.373 250.917 338.479 251.458 340.241C252.25 342.817 252.965 344.774 253.699 346.962C280.649 346.323 310.826 344.793 338.839 346.071C349.31 346.555 355.144 344.425 360.708 339.35C365.789 334.721 369.267 328.175 370.831 320.544C372.512 312.39 370.793 303.035 368.301 295.617C363.471 281.207 355.82 269.218 349.097 256.978C347.32 262.071 345.697 266.642 342.703 270.555C339.959 274.157 335.786 277.585 330.203 278.011C325.025 278.418 319.867 277.004 315.462 275.319C305.107 271.349 296.201 266.294 285.692 261.897C283.605 261.026 281.422 259.747 279.587 259.36C278.756 259.186 277.732 259.399 276.901 259.205C273.772 258.527 270.893 256.765 268.71 255.176C266.372 253.472 264.711 251.09 262.605 249.211C260.866 255.68 259.166 262.188 257.389 268.598C259.939 268.928 264.382 267.475 264.093 270.69C263.88 272.995 260.731 272.375 258.297 272.492C241.663 273.15 224.121 273.905 208.299 275.184C189.965 276.656 169.931 277.508 157.856 284.887C145.067 292.693 142.382 309.427 140.45 327.71C138.807 343.147 137.069 359.184 135.233 375.317C134.924 378.029 135.33 380.489 132.992 380.547C130.616 380.605 131.099 377.661 131.35 375.317C133.031 360.21 134.828 344.173 136.412 328.756C138.228 311.054 141.145 293.932 151.442 284.887C162.106 275.513 179.301 273.731 197.577 272.201C215.582 270.69 233.781 269.431 253.081 268.908C255.573 261.955 257.06 254.014 259.34 246.829C256.346 247.139 253.003 248.765 250.26 247.429C244.831 244.776 250.086 237.881 254.433 236.835C251.767 236.137 249.738 238.307 247.13 238.326C241.566 238.345 240.62 230.617 244.889 228.332C243.537 227.228 242.165 226.57 241.914 224.594C241.682 222.657 243.634 220.41 241.76 219.229C240.852 221.321 239.982 223.471 239.074 225.95C238.359 227.867 237.664 231.644 235.5 231.78C234.998 231.799 233.723 230.908 233.568 229.998C233.356 228.719 234.399 227.538 234.901 226.26C236.292 222.87 237.799 218.377 239.209 215.375C237.896 213.787 236.621 212.431 235.635 210.591C230.709 201.468 232.757 184.986 238.611 177.762C239.673 176.445 241.122 175.089 242.919 173.733C243.363 173.404 247.459 170.247 248.135 173.133C248.599 175.108 246.145 176.135 244.851 177.161C240.581 180.551 238.417 184.657 237.258 191.184C235.616 200.364 237.123 209.196 243.054 213.109C243.769 215.22 245.025 216.808 245.875 218.784C247.072 218.512 248.174 218.106 249.738 218.183C249.951 217.505 248.985 217.273 248.541 216.692C246.686 214.174 247.71 209.564 251.226 209.08C254.201 208.673 257.833 210.998 259.707 212.218C266.643 216.672 273.173 222.096 279.799 226.55C289.749 233.193 298.945 238.771 310.903 241.328C313.646 225.253 316.158 208.499 318.785 191.784C319.094 189.828 319.075 186.206 321.761 186.71C323.828 187.097 322.823 190.971 322.495 192.985C319.945 209.196 317.375 226.047 314.748 242.083C316.873 243.304 321.78 242.006 321.587 245.221C321.432 247.894 317.8 246.674 315.636 246.267C312.99 245.763 310.845 245.434 308.797 244.776C312.429 252.639 309.435 262.11 304.18 266.119C308.546 268.192 312.603 270.206 317.433 271.93C321.934 273.557 328.194 275.339 333.217 273.266C341.524 269.838 344.75 259.379 346.47 248.649C349.947 226.763 352.71 203.909 353.753 180.008C345.195 175.302 335.69 172.009 324.581 170.305C313.588 168.62 301.147 168.581 287.971 168.213C275.858 167.884 262.818 166.877 250.917 166.412C241.876 166.063 231.462 165.56 224.875 168.794C222.788 169.821 219.91 171.196 219.079 172.668C218.48 173.714 218.209 175.496 217.746 176.987C215.466 184.153 213.669 190.893 211.042 198.021C210.405 199.783 208.898 205.09 206.869 204.877C206.328 204.819 205.362 203.676 205.227 203.231C204.783 201.623 206.579 199.144 207.313 197.265C208.26 194.825 208.82 192.888 209.4 191.145C210.945 186.516 212.259 181.732 213.264 178.459C215.833 170.111 218.113 161.047 222.943 155.178C230.67 145.785 244.039 143.19 259.997 142.647C266.372 142.415 276.94 144.778 275.781 137.418C272.11 139.374 266.836 137.147 266.256 133.234C262.818 135.113 256.983 137.263 252.714 134.881C243.885 129.961 246.029 109.973 248.096 98.7783C250.125 87.8159 251.941 77.6863 257.91 70.7331C263.977 63.6831 272.303 59.2672 282.311 57.311C293.554 55.1224 305.011 57.2916 313.724 62.2305C317.414 58.7442 320.891 54.3089 327.421 53.7279C335.864 52.9725 341.563 57.2335 344.828 62.2305C355.202 77.9962 344.287 114.331 355.84 128.935C363.2 138.231 377.767 141.466 389.32 147.296C397.067 151.208 407.905 156.147 407.48 168.039C407.267 174.372 404.08 179.602 396.758 179.679C394.691 179.699 392.353 179.331 391.252 179.97C390.073 180.667 389.61 184.289 389.32 186.09C386.615 202.262 378.598 212.45 358.815 211.598C357.791 211.579 356.979 211.366 355.453 211.327ZM385.089 188.647C386.19 183.979 386.074 178.44 389.397 176.561C392.044 175.07 396.603 176.735 399.81 175.36C403.751 173.694 404.408 167.303 403.094 163.429C401.394 158.413 395.116 154.578 390.749 152.234C386.577 149.988 381.322 147.799 376.917 145.959C367.702 142.124 357.849 138.464 352.208 130.581C346.528 122.659 346.103 110.283 346.103 96.5703C346.103 83.1481 346.566 68.9319 340.152 62.2499C337.718 59.7126 333.082 57.0785 327.807 57.6209C322.9 58.1244 320.022 61.3396 317.394 64.4772C325.315 69.6098 331.285 78.1705 332.425 90.295C333.777 104.744 327.807 117.449 317.394 122.078C319.964 130.348 322.205 138.948 324.678 147.296C338.336 149.658 349.87 153.765 355.183 164.301C358.042 169.976 357.772 177.432 357.424 185.199C357.057 193.004 356.709 200.481 355.782 207.434C374 209.622 381.882 202.049 385.089 188.647ZM321.529 114.641C328.793 107.358 330.899 91.7863 325.991 80.3204C320.756 68.099 306.151 59.3446 288.493 60.468C272.361 61.4945 259.128 69.9778 255.302 84.4845C253.37 91.8251 251.651 99.2818 250.685 108.211C250.202 112.743 249.951 116.713 250.531 121.633C250.936 125.042 251.767 130.135 254.839 131.627C257.582 132.963 260.808 131.51 262.721 130.581C264.112 129.922 265.658 128.915 267.338 129.244C269.946 129.767 269.347 133.757 271.801 134.319C273.366 134.667 275.124 133.583 275.375 132.537C275.626 131.491 275.027 129.612 274.776 128.218C274.506 126.63 274.139 125.138 274.023 123.899C264.962 122.272 259.321 115.958 258.683 106.448C258.316 100.909 259.63 95.6406 261.214 91.5345C261.697 90.2756 262.953 88.5325 262.991 87.506C263.03 86.7506 261.852 86.0534 261.948 84.9687C262.025 84.1553 263.339 82.6252 264.189 81.5406C269.347 74.8779 275.066 69.8228 283.991 67.3631C285.267 67.0144 287.488 66.1816 288.609 66.6077C291.294 67.6342 288.976 71.3142 286.232 70.6363C292.453 82.4121 299.621 93.2389 307.368 103.465C313.318 102.303 316.602 105.886 316.003 111.368C315.385 116.868 310.671 119.89 304.547 119.87C304.045 119.87 303.098 119.444 302.615 120.161C311.019 120.8 317.51 118.669 321.529 114.641ZM276.882 74.6455C280.05 76.4661 282.562 80.5334 282.543 84.9494C282.504 91.7476 276.206 96.2023 272.265 99.2625C274.467 100.87 274.332 103.872 271.975 103.891C270.893 103.891 269.695 102.187 269.29 101.645C268.536 100.638 267.493 99.4949 267.647 98.2166C267.86 96.5122 269.85 96.1635 271.376 95.0789C274.332 92.9678 277.945 89.9076 278.524 86.2858C278.988 83.3224 277.462 78.6353 275.24 78.5191C273.598 78.4417 273.269 80.3204 271.511 80.456C267.377 87.506 261.755 95.0015 262.586 106.274C263.223 114.951 268.865 120.122 277.906 120.296C280.205 120.335 286.445 118.476 286.387 121.633C286.329 125.003 279.915 123.434 277.906 124.325C278.949 130.697 282.117 141.64 276.418 145.068C274.718 146.095 272.439 146.443 270.313 146.56C264.479 146.889 258.819 146.424 253.486 146.85C237.78 148.128 225.029 153.106 221.494 166.238C229.569 161.008 242.436 162.035 254.24 162.655C265.909 163.274 278.234 164.301 289.961 164.301C302.267 164.301 314.361 164.688 325.238 166.393C336.134 168.097 345.562 171.428 353.676 175.341C353.251 161.434 343.804 155.779 331.652 152.661C318.959 149.407 304.76 150.007 300.393 139.083C299.041 135.675 298.442 131.491 298.462 126.107C298.462 122.601 298.384 115.997 300.838 115.512C301.862 115.319 302.982 115.88 304.122 115.958C310.053 116.384 314.052 112.297 311.116 107.3C308.334 106.177 303.736 109.683 302.789 106.855C302.383 105.654 303.214 105.228 303.233 104.318C300.606 100.793 296.646 95.4082 293.999 91.3409C293.052 89.8883 292.144 87.6997 290.579 87.3123C288.821 86.8862 285.421 88.7455 285.672 85.5304C285.788 84.0003 287.604 83.5161 288.956 83.4387C286.793 79.5263 284.648 75.6139 282.253 71.9533C280.224 72.6312 278.524 73.619 276.882 74.6455ZM302.48 124.325C302.345 130.91 302.712 137.883 306.344 141.485C309.686 144.778 314.728 145.281 320.331 146.405C318.013 138.677 316.158 130.484 313.492 123.124C310.304 124.034 306.672 124.46 302.48 124.325ZM251.439 213.419C251.844 215.026 253.467 215.704 254.723 216.692C255.882 217.621 256.848 218.997 258.142 219.829C260.036 221.03 262.083 221.611 264.247 222.967C265.522 223.761 269.077 225.504 269 227.441C268.961 228.448 268.072 229.184 267.222 229.223C266.16 229.281 264.846 227.945 263.648 227.131C260.403 224.923 255.882 222.367 251.439 222.057C248.772 221.863 246.474 222.037 245.778 223.994C247.304 225.872 250.125 225.349 252.482 225.194C256.326 224.923 259.669 226.24 262.605 227.887C264.054 228.7 268.227 231.024 268.111 233.116C268.072 233.891 267.57 234.627 266.623 234.762C264.711 235.014 262.393 232.303 260.963 231.489C258.529 230.095 254.955 228.487 251.439 229.242C249.159 229.746 246.3 230.908 246.087 233.871C248.405 234.995 250.125 233.058 252.347 232.825C253.119 232.748 253.873 232.748 254.433 232.825C257.06 233.174 258.123 235.285 259.939 235.963C260.673 236.234 261.89 236.118 262.76 236.409C264.769 237.067 269.116 239.643 269.019 241.929C268.98 242.819 268.324 243.691 267.242 243.71C265.677 243.749 264.421 241.541 262.934 240.728C261.794 240.108 260.152 239.662 258.471 239.837C255.515 240.127 252.598 241.812 251.922 244.02C255.09 244.466 256.964 242.568 260.113 242.974C264.17 243.497 266.314 247.603 269.038 250.296C271.704 252.93 274.486 254.305 277.964 255.525C280.746 255.331 282.697 256.493 285.112 257.462C290.521 259.631 295.718 262.071 300.587 264.318C303.06 261.839 306.402 258.837 306.692 254.014C306.943 250.005 305.455 246.616 304.161 243.42C288.686 238.442 276.979 229.572 265.02 220.74C261.253 217.951 256.326 213.922 251.922 212.973C251.535 212.915 251.709 213.399 251.439 213.419Z" fill="black"/>
<path fill-rule="evenodd" clip-rule="evenodd" d="M273.012 84.9474C273.939 84.7537 275.04 85.1217 275.253 86.2838C275.581 88.1238 272.973 92.6559 271.524 92.6947C267.448 92.8302 271.292 85.2767 273.012 84.9474Z" fill="black"/>
<path fill-rule="evenodd" clip-rule="evenodd" d="M288.186 91.3582C289.461 91.0096 290.852 91.5713 290.562 93.6049C290.389 94.8445 287.703 98.4664 286.544 98.5245C282.101 98.7569 286.505 91.8037 288.186 91.3582Z" fill="black"/>
<path fill-rule="evenodd" clip-rule="evenodd" d="M284.473 107.632C285.497 107.419 286.753 107.942 286.849 109.124C287.043 111.37 282.657 113.656 280.59 113.908C277.789 114.218 273.809 113.172 273.751 111.08C273.732 110.538 273.983 109.414 274.949 109.143C276.746 108.62 278.021 110.305 280.165 110.034C281.884 109.802 282.908 107.962 284.473 107.632Z" fill="black"/>
<path fill-rule="evenodd" clip-rule="evenodd" d="M280.612 278.324C283.587 278.188 290.465 276.987 290.426 280.106C290.407 282.062 288.243 282.043 285.809 282.043C270.682 282.043 255.613 282.72 241.761 283.824C217.052 285.819 195.569 289.248 189.232 309.778C187.165 316.499 186.701 324.323 186.856 333.659C187.029 345.435 187.879 359.244 188.633 371.252C188.73 372.724 188.788 375.107 188.923 377.528C189.058 379.891 189.29 381.963 187.281 382.002C184.595 382.06 185.001 375.455 184.75 371.562C183.938 359.186 183.378 346.674 182.953 334.86C182.663 326.221 183.069 317.583 184.75 310.979C189.985 290.429 207.798 283.282 231.638 280.842C247.17 279.254 262.973 278.305 280.303 278.305C280.399 278.324 280.496 278.324 280.612 278.324Z" fill="black"/>
<path fill-rule="evenodd" clip-rule="evenodd" d="M156.985 268.266H277.17C278.117 268.266 278.87 269.273 278.87 270.493L278.078 276.458C277.383 279.48 275.779 282.017 273.461 282.017H160.752C158.434 282.017 156.618 279.48 155.884 276.342L155.285 270.493C155.285 269.273 156.039 268.266 156.985 268.266Z" fill="#F5F5F5"/>
<path d="M273.5 283.761H160.753C157.778 283.761 155.228 281.011 154.223 276.75C154.185 276.537 153.586 270.514 153.586 270.514C153.586 268.306 155.093 266.562 157.005 266.562H277.19C279.103 266.562 280.61 268.286 280.61 270.514C280.59 270.727 279.779 276.866 279.779 276.866C278.775 281.166 276.437 283.761 273.5 283.761ZM157.566 276.072C158.165 278.551 159.498 280.333 160.734 280.333H273.481C274.64 280.333 275.819 278.668 276.398 276.169L277.152 270.436C277.016 270.01 157.102 270.01 157.102 270.01C157.005 270.436 157.566 276.072 157.566 276.072Z" fill="black"/>
<path fill-rule="evenodd" clip-rule="evenodd" d="M136.148 198.949L219.761 198.988C222.485 198.988 225.557 201.467 226.62 204.547L247.465 265.13C248.528 268.19 244.915 273.904 242.191 273.904L158.577 273.885C155.853 273.885 152.782 271.406 151.719 268.326L130.854 207.723C129.792 204.643 133.404 198.949 136.148 198.949Z" fill="#F5F5F5"/>
<path d="M242.171 275.629L158.558 275.61C155.1 275.61 151.39 272.666 150.096 268.889L129.231 208.286C128.362 205.768 129.618 202.669 131.086 200.597C132.593 198.466 134.447 197.246 136.147 197.246L219.761 197.265C223.219 197.265 226.929 200.209 228.242 203.967L249.088 264.551C249.957 267.088 248.624 270.303 247.233 272.278C245.707 274.409 243.871 275.629 242.171 275.629ZM136.147 200.674C135.761 200.674 134.814 201.275 133.868 202.592C132.728 204.199 132.129 206.155 132.477 207.163L153.342 267.766C154.153 270.109 156.587 272.162 158.577 272.162L242.191 272.182C242.538 272.182 243.466 271.659 244.451 270.284C245.61 268.657 246.209 266.681 245.861 265.674L225.016 205.09C224.205 202.747 221.77 200.694 219.78 200.694L136.147 200.674Z" fill="black"/>
<path fill-rule="evenodd" clip-rule="evenodd" d="M179.126 236.423C174.567 236.501 172.442 240.413 174.393 245.158C176.344 249.903 181.637 253.699 186.197 253.641C190.756 253.564 192.881 249.651 190.93 244.906C188.959 240.142 183.685 236.346 179.126 236.423Z" fill="#D6D6D6"/>
<path fill-rule="evenodd" clip-rule="evenodd" d="M117.094 234.336C118.485 233.058 117.828 227.209 120.822 227.615C123.72 228.022 120.494 234.975 119.934 236.718C119.083 239.294 117.712 241.986 117.403 244.175C116.823 248.184 117.557 253.065 117.693 257.462C117.905 263.931 117.847 268.986 117.982 274.912C118.62 273.499 118.91 272.065 119.47 270.148C119.721 269.296 120.03 266.119 122.001 266.41C123.933 266.7 122.735 269.954 122.445 271.039C121.44 274.874 120.629 277.663 119.624 281.188C119.18 282.737 118.407 284.422 118.137 286.107C117.577 289.535 117.982 293.603 118.137 296.992C118.311 300.633 118.33 304.236 118.291 307.587C119.296 306.231 120.088 304.546 120.977 302.667C121.634 301.292 122.329 298.038 124.261 298.348C126.618 298.716 124.589 302.318 123.952 303.713C122.31 307.393 120.243 311.77 118.156 314.462C118.214 320.447 118.002 326.432 118.002 332.823C118.002 334.896 117.924 337.259 116.514 337.452C114.389 337.723 114.717 334.295 114.717 332.378C114.717 327.09 114.872 324.049 114.872 318.801C114.872 316.554 115.278 313.784 114.872 312.08C114.563 310.802 112.901 309.233 111.897 307.896C109.694 304.972 108.014 302.667 105.946 299.839C105.038 298.58 103.474 297.07 104.459 294.92C106.333 293.177 107.299 295.753 108.323 297.166C110.428 300.052 113.133 303.674 115.026 305.979C114.911 302.26 115.181 298.793 115.026 295.385C114.872 291.937 115.297 288.49 114.872 285.081C114.505 282.098 112.843 278.554 111.897 275.532C110.892 272.317 109.482 269.083 109.675 265.693C113.23 262.943 113.481 270.148 114.582 272.414C114.698 264.686 114.447 256.028 114.138 248.242C112.921 246.383 111.916 244.214 110.873 242.122C109.888 240.185 108.226 237.939 108.941 235.401C112.206 233.406 112.399 238.771 114.003 240.321C114.003 225.95 112.554 211.443 112.805 197.808C115.973 195.038 115.799 202.863 115.934 205.419C116.359 214.774 116.688 226.24 117.094 234.336Z" fill="#223549"/>
</svg>
