<svg width="634" height="398" viewBox="0 0 634 398" fill="none" xmlns="http://www.w3.org/2000/svg">
<g clip-path="url(#clip0)">
<path d="M199.76 212.006C206.26 191.785 207.494 168.733 198.49 149.05C194.571 140.483 188.714 133.039 181.178 127.364C174.083 122.021 165.714 118.306 156.931 116.892C148.301 115.506 139.305 116.563 131.426 120.439C128.866 121.7 126.406 123.194 123.725 124.203C121.08 125.195 118.374 125.408 115.637 124.664C112.847 123.909 110.219 122.604 107.538 121.543C104.885 120.491 102.195 119.523 99.4701 118.679C88.7295 115.354 77.2012 113.996 66.2677 117.237C56.6849 120.081 48.3039 125.861 41.1971 132.778C33.7286 140.045 27.5544 148.504 21.9229 157.237C16.2431 166.045 11.1462 175.232 6.64819 184.699C5.50661 186.226 4.42532 187.792 3.41639 189.415C2.19442 191.379 1.09303 193.412 0.104195 195.501C-0.42238 196.613 1.10509 197.3 1.88088 196.597C2.23059 197.083 2.98227 197.312 3.49276 196.846C13.1721 188.045 25.3758 182.181 38.311 180.169C48.1953 178.63 60.0252 179.538 67.7992 186.559C69.5799 188.166 71.0511 190.11 72.0761 192.279C73.475 195.244 73.9292 198.525 74.102 201.771C74.4517 208.298 74.0055 215.078 77.4705 220.923C83.5804 231.238 96.6724 235.263 107.775 237.211C121.277 239.581 135.39 238.601 148.425 234.363C150.001 233.849 151.565 233.295 153.108 232.692C154.415 232.186 153.47 230.226 152.172 230.732C139.253 235.757 125.103 237.392 111.368 235.572C105.037 234.733 98.6661 233.238 92.8014 230.676C87.6925 228.442 82.6639 225.157 79.6532 220.344C76.0435 214.576 76.6304 207.768 76.2405 201.265C75.8908 195.448 74.295 189.929 70.0743 185.732C62.7746 178.481 51.3468 176.606 41.4745 177.578C28.5714 178.851 16.0542 183.992 5.8724 191.99C5.78799 192.058 5.70357 192.131 5.61916 192.195C6.5477 190.074 7.51242 187.969 8.50125 185.88C11.7893 181.514 15.5839 177.513 19.5633 173.786C26.6219 167.174 34.2672 161.081 42.6201 156.176C50.8242 151.36 59.776 147.677 69.2021 146.162C77.2896 144.861 85.7188 145.303 93.5853 147.608C101.323 149.874 108.575 153.979 113.989 160.016C117.02 163.394 119.239 167.367 121.968 170.974C124.541 174.372 127.652 177.192 131.579 178.923C139.112 182.245 147.738 181.345 155.737 181.189C159.885 181.108 164.082 181.153 168.17 181.944C172.23 182.731 176.081 184.422 179.501 186.732C186.395 191.391 191.536 198.373 194.84 205.936C199.021 215.52 200.448 226.048 201.352 236.38C201.577 238.97 201.77 241.569 201.963 244.164C202.064 245.558 204.202 245.14 204.102 243.758C203.346 233.463 202.421 222.562 199.455 212.496C199.576 212.379 199.688 212.223 199.76 212.006ZM185.68 188.933C182.657 186.097 179.252 183.715 175.47 182.008C171.575 180.253 167.378 179.409 163.129 179.128C154.704 178.574 146.138 180.072 137.777 178.538C133.794 177.807 129.987 176.16 126.997 173.392C123.516 170.175 121.2 165.941 118.459 162.133C113.547 155.321 106.693 150.259 98.9153 147.146C91.1212 144.029 82.5996 142.873 74.2427 143.411C64.8648 144.013 55.7 146.966 47.3231 151.143C38.4718 155.562 30.3642 161.398 22.8956 167.853C19.3181 170.946 15.817 174.192 12.5732 177.662C14.6714 173.629 16.8782 169.657 19.2056 165.748C24.6 156.69 30.4847 147.805 37.4508 139.868C43.8863 132.537 51.4472 125.91 60.3588 121.776C64.8608 119.688 69.6563 118.31 74.5964 117.772C80.2159 117.161 85.9399 117.659 91.4589 118.812C97.0583 119.985 102.509 121.833 107.807 123.982C110.363 125.018 112.88 126.243 115.577 126.874C118.161 127.476 120.75 127.416 123.291 126.629C128.066 125.15 132.17 122.122 136.905 120.507C140.897 119.141 145.153 118.483 149.366 118.467C166.671 118.41 183.766 128.505 192.843 143.102C204.037 161.105 204.797 183.711 199.833 203.839C199.395 205.619 198.892 207.378 198.366 209.134C195.725 201.606 191.777 194.661 185.68 188.933Z" fill="#304A66"/>
<path d="M148.285 261.137C141.833 258.578 135.253 256.401 128.283 255.903C121.711 255.433 115.063 256.253 108.724 258.004C95.318 261.712 83.5524 269.448 73.2179 278.574C67.7311 283.418 62.602 288.648 57.5935 293.978C53.2402 298.61 48.9392 303.301 44.9155 308.226C38.6489 315.902 32.953 324.337 29.4519 333.644C29.9504 327.74 30.9311 321.879 32.4184 316.135C34.8865 306.587 38.6408 297.373 43.5569 288.825C48.493 280.241 54.5788 272.312 61.6775 265.403C68.8043 258.466 76.912 252.441 86.0969 248.512C94.9281 244.737 105.029 242.917 114.403 245.721C115.589 246.074 116.751 246.504 117.892 246.986C119.183 247.532 119.882 245.472 118.6 244.929C109.286 240.981 98.8512 241.672 89.4412 244.909C79.7097 248.259 71.0151 254.003 63.3858 260.84C55.8409 267.596 49.2769 275.461 43.9026 284.041C38.5203 292.629 34.2916 301.96 31.4095 311.676C28.5274 321.385 26.9557 331.507 26.8994 341.638C26.8994 341.903 26.9075 342.168 26.9115 342.433C26.7386 343.281 26.5779 344.132 26.4412 344.984C26.3447 345.594 26.7145 345.956 27.1768 346.056C27.5868 346.627 28.4631 346.807 28.9414 346.072C34.38 337.733 43.7458 333.576 53.0272 330.997C62.2845 328.422 71.8955 327.33 81.0241 324.261C89.196 321.514 97.4564 317.356 102.59 310.174C105.464 306.149 106.726 301.582 107.498 296.758C107.912 294.175 108.265 291.572 109.021 289.062C109.672 286.905 110.569 284.824 111.69 282.868C116.148 275.116 123.898 269.255 132.677 267.375C133.786 267.138 134.904 266.97 136.033 266.853C137.424 266.712 136.97 264.588 135.587 264.724C126.458 265.644 118.033 270.673 112.434 277.867C109.652 281.442 107.57 285.611 106.513 290.018C105.271 295.204 105.182 300.642 102.835 305.523C99 313.492 90.9044 318.256 82.9294 321.285C73.9093 324.707 64.3063 325.856 54.9968 328.218C45.5265 330.624 35.811 334.267 29.3152 341.915C29.2831 341.955 29.2509 341.995 29.2188 342.039C31.6225 331.311 37.3063 321.61 43.9588 312.934C47.677 308.081 51.7248 303.49 55.8731 298.999C60.6002 293.882 65.4077 288.821 70.4765 284.033C80.3729 274.678 91.4631 266.327 104.378 261.647C110.4 259.466 116.795 258.108 123.206 257.944C129.919 257.775 136.367 259.077 142.674 261.314C148.88 263.519 155.042 266.046 161.019 268.813C166.683 271.436 172.254 274.545 176.909 278.747C178.087 279.807 179.196 280.94 180.241 282.125C181.17 283.177 182.798 281.735 181.869 280.687C173.11 270.785 160.276 265.897 148.285 261.137Z" fill="#304A66"/>
<path d="M362.677 19.4814C352.338 16.5009 341.943 13.6932 331.492 11.0622C321.041 8.43118 310.538 5.97692 299.986 3.69939C294.045 2.41804 288.092 1.19291 282.123 0.0240275C281.729 -0.0522915 281.295 0.0842794 281.146 0.506043C278.304 8.43921 275.329 16.3282 272.214 24.169C269.099 32.0098 265.851 39.8063 262.467 47.5507C260.545 51.9451 258.584 56.3194 256.578 60.6776C256.011 60.4446 255.179 61.0271 255.537 61.7099C259.882 70.0408 264.388 78.2832 269.059 86.4333C273.75 94.6155 278.605 102.705 283.622 110.691C286.44 115.181 289.314 119.636 292.232 124.063C292.534 124.516 293.173 124.621 293.543 124.115C298.475 117.375 303.491 110.691 308.588 104.067C313.713 97.4112 318.927 90.8196 324.221 84.2883C326.455 81.5328 328.706 78.7974 330.969 76.0659C331.106 76.1463 331.287 76.1744 331.5 76.1101C338.828 73.8647 346.26 72.013 353.757 70.575C361.298 69.1249 368.907 68.0846 376.528 67.474C380.186 67.1808 383.848 66.996 387.51 66.8956C380.685 80.0024 372.396 92.4223 362.865 103.854C360.454 106.746 357.965 109.574 355.397 112.33C354.058 113.768 352.68 115.262 350.975 116.286C349.311 117.286 347.434 117.724 345.553 118.021C341.622 118.636 337.654 119.042 333.711 119.54C329.599 120.058 325.491 120.58 321.379 121.102C312.234 122.259 303.089 123.416 293.948 124.573C292.976 124.697 293.241 126.155 294.21 126.031C310.811 123.93 327.412 121.849 344.013 119.728C345.81 119.5 347.611 119.246 349.343 118.648C351.233 117.993 352.857 116.905 354.316 115.539C357.125 112.908 359.642 109.895 362.142 106.983C367.183 101.111 371.894 94.969 376.239 88.5943C381.01 81.6011 385.327 74.3347 389.198 66.8514C389.258 66.8514 389.319 66.8474 389.379 66.8474C389.982 66.8354 390.267 66.261 390.167 65.8271C390.243 65.6544 390.243 65.4536 390.123 65.2447C383.249 53.2747 376.15 41.4291 368.835 29.7282C366.917 26.6594 364.98 23.5986 363.03 20.5458C363.259 20.1682 363.211 19.634 362.677 19.4814ZM382.871 55.8334C384.736 59.0066 386.585 62.1879 388.422 65.3813C381.143 65.55 373.851 66.0922 366.596 67.0201C358.966 67.9922 351.373 69.39 343.865 71.1976C340.886 71.9166 337.919 72.6999 334.969 73.5474C335.062 72.6718 334.012 72.013 333.393 72.4227C333.381 72.4066 333.361 72.3866 333.349 72.3705C332.919 71.776 332.493 71.1775 332.063 70.579C331.231 69.4182 330.399 68.2573 329.563 67.0964C327.874 64.7426 326.182 62.3888 324.494 60.0309C321.162 55.3875 317.833 50.7441 314.501 46.1007C307.768 36.7174 301.035 27.3302 294.302 17.947L282.955 2.12883C282.758 1.85167 282.48 1.8115 282.231 1.90389C282.267 1.79945 282.308 1.69903 282.344 1.59459C292.694 3.63111 303.005 5.83231 313.267 8.21025C323.774 10.6404 334.233 13.2513 344.636 16.035C350.204 17.5252 355.751 19.0717 361.286 20.6583C368.694 32.2467 375.893 43.9758 382.871 55.8334Z" fill="#EC663D"/>
<path d="M306.322 125.202C305.538 127.022 304.348 128.637 302.796 129.91C301.984 130.585 300.867 131.352 299.766 131.236C299.114 133.356 298.459 135.473 297.844 137.602C297.663 138.233 297.265 139.325 297.772 139.872C298.089 140.205 298.604 140.378 298.938 140.739C299.255 141.089 299.504 141.478 299.693 141.904C301.534 146.094 297.157 149.604 294.508 152.155C291.312 155.24 287.912 158.176 283.828 160.032C279.527 161.988 274.635 162.743 269.98 163.334C266.471 163.784 261.836 163.245 260.1 159.819C258.721 160.586 257.23 161.124 255.662 161.406C254.705 161.574 253.724 161.623 252.756 161.594C252.269 161.578 251.779 161.538 251.297 161.47C251.063 161.434 250.26 161.237 250.207 161.237C249.837 161.325 249.524 161.663 249.15 161.771C248.728 161.896 248.274 161.9 247.86 161.727C247.498 161.574 247.193 161.277 247.04 160.924C242.988 158.839 239.302 156.071 236.163 152.758C230.181 146.431 226.122 138.289 224.996 129.633C224.843 128.444 224.735 127.263 224.409 126.098C224.084 124.897 223.625 123.728 223.139 122.583C222.146 120.258 220.972 118.012 220.116 115.626C218.4 110.85 217.861 105.717 218.456 100.688C218.331 100.499 218.259 100.262 218.283 99.9768C218.697 95.3897 221.306 91.1881 225.245 88.7901C227.331 87.5208 229.631 86.6813 231.922 85.8578C234.519 84.9219 237.119 84.0262 239.76 83.2148C248.563 80.4994 257.784 78.6919 267.03 79.5796C271.27 79.9853 275.491 80.9654 279.426 82.6163C283.028 84.1226 286.698 85.9984 288.519 89.6095C290.187 92.9073 290.331 96.6509 291.469 100.113C292.008 101.736 292.739 103.403 293.985 104.612C295.485 106.062 297.394 106.299 299.372 106.613C301.349 106.918 303.198 107.512 304.722 108.866C306.093 110.091 307.122 111.706 307.7 113.445C309.027 117.378 308.062 121.567 306.322 125.202Z" fill="white"/>
<path d="M261.454 135.042C260.927 134.849 260.228 135.122 260.059 135.689C259.122 138.83 256.405 141.22 253.141 141.702C251.754 141.907 252.112 144.048 253.499 143.847C257.462 143.264 260.955 140.284 262.105 136.44C262.27 135.873 262.032 135.251 261.454 135.042Z" fill="#223549"/>
<path d="M333.153 155.5C331.601 158.429 319.747 172.214 318.18 175.126C313.838 179.577 309.855 182.132 307.97 183.16C307.23 183.558 306.816 183.726 306.824 183.682L306.699 170.628L306.611 161.297L306.322 157.754C306.277 157.224 306.683 156.545 307.286 156.553C307.395 156.553 307.431 155.617 307.54 155.617C308.046 155.625 309.011 155.48 309.517 155.492C309.718 155.5 311.278 155.5 313.505 155.5C315.507 155.5 318.043 155.492 320.624 155.492C326.569 155.484 332.739 155.476 333.153 155.5Z" fill="#EC663D"/>
<path d="M263.657 275.492C260.896 280.187 244.009 284.156 245.902 289.165C246.288 290.173 246.698 291.23 247.173 292.286C252.241 295.451 257.322 298.596 262.407 301.726C262.572 301.826 262.733 301.926 262.901 302.031C263.388 302.328 263.866 302.625 264.353 302.923C264.18 303.67 264.027 304.421 263.89 305.176C263.42 304.887 262.954 304.602 262.483 304.312C262.15 306.096 261.816 307.883 261.491 309.667C261.47 309.783 261.426 309.892 261.374 309.984C261.249 310.635 261.129 311.29 260.996 311.94C260.582 314.137 260.164 316.323 259.742 318.52C259.227 321.223 258.697 323.954 257.937 326.606C258.19 326.806 258.327 327.128 258.219 327.554C257.596 329.952 256.631 332.189 255.268 334.262C254.247 335.82 252.273 338.841 250.027 337.64C250.006 337.632 249.99 337.62 249.974 337.604C249.46 337.828 248.937 338.025 248.403 338.17C245.199 339.046 241.847 338.772 238.579 338.531C237.823 338.475 237.071 338.415 236.315 338.351C235.524 334.772 234.675 331.209 233.771 327.65C232.533 322.774 231.677 317.817 230.579 312.928C230.065 310.639 229.595 308.554 229.152 306.626C225.848 292.238 224.039 286.261 217.218 265.293C214.891 258.143 212.841 250.07 213.367 249.535C213.315 249.579 213.275 249.624 213.215 249.664C212.72 250.114 212.005 250.708 211.169 251.383C208.319 253.689 204.098 256.918 202.554 258.288C199.359 261.136 196.485 264.426 193.341 267.358C189.768 270.684 186.198 274.01 182.633 277.336C182.147 277.785 181.66 278.239 181.174 278.689C181.073 278.778 180.957 278.834 180.84 278.862C180.812 278.87 180.784 278.878 180.752 278.882C185.39 281.919 189.997 285.048 194.752 287.904C199.307 290.635 204.134 293.017 209.404 293.945C210.783 294.182 210.457 296.335 209.078 296.09C206.51 295.64 204.009 294.873 201.602 293.873C201.473 293.953 201.32 294.009 201.139 294.033C197.775 294.419 194.788 296.271 192.481 298.693C190.29 300.982 188.63 303.694 187.067 306.425C185.435 309.281 183.803 312.149 182.432 315.142C179.787 320.946 178.191 327.634 180.446 333.82C180.933 333.912 181.419 334 181.909 334.089C183.288 334.322 182.963 336.471 181.584 336.234C179.039 335.8 176.515 335.258 174.023 334.603C163.777 331.924 154.077 327.533 144.848 322.396C135.567 317.222 126.671 311.362 117.864 305.429C113.857 302.718 109.801 299.765 107.059 295.7C104.197 291.455 103.281 286.389 103.703 281.348C104.137 276.118 105.878 271.061 107.916 266.257C109.873 261.65 112.201 257.195 114.805 252.913C120.027 244.358 126.306 236.505 133.135 229.178C140.037 221.767 147.485 214.874 155.066 208.158C162.78 201.326 170.546 194.473 178.891 188.408C187.179 182.387 196.183 177.133 206.015 174.092C217.158 170.637 229.044 170.135 240.592 169.127C247.88 168.488 255.164 167.882 262.459 167.295C262.592 167.279 262.729 167.267 262.857 167.259C263.207 167.014 263.689 166.978 264.067 167.167L264.566 167.123C264.61 167.247 264.622 167.376 264.61 167.52C264.079 175.032 264.328 182.575 265.321 190.047C266.415 188.886 267.504 187.737 268.597 186.576C268.714 186.938 268.842 187.299 268.959 187.665C273.956 183.527 278.486 178.876 282.497 173.783C282.795 173.405 283.353 173.289 283.78 173.477C287.353 175.048 290.922 176.614 294.496 178.185C295.324 178.547 296.148 178.908 296.976 179.278C297.635 179.567 319.723 185.283 320.383 185.572C312.777 199.679 318.413 207.929 310.647 221.952C305.506 231.235 277.654 246.752 272.44 255.998C267.99 263.867 263.705 275.395 263.657 275.492Z" fill="#EC663D"/>
<path d="M298.061 232.238C298.081 233.933 297.763 235.54 296.843 236.982C295.978 238.331 294.748 239.36 293.611 240.46C291.219 242.766 288.992 245.256 286.97 247.887C284.969 250.49 283.156 253.226 281.56 256.098C280.764 257.524 280.024 258.99 279.333 260.472C278.73 261.769 278.304 263.521 277.187 264.493C275.796 265.718 274.252 264.826 272.954 263.971L268.126 260.797C264.858 258.652 261.586 256.499 258.318 254.354C258.037 254.166 257.848 253.68 257.932 253.354C259.195 248.458 260.485 243.573 261.791 238.697C266.402 221.525 271.298 204.442 276.459 187.431C275.112 186.511 274.915 184.655 274.566 183.012C274.284 181.667 273.991 180.317 273.71 178.971C273.267 178.971 272.89 178.69 272.672 178.276C271.832 176.682 271.032 174.734 271.382 172.902C271.76 170.89 273.396 169.845 275.317 169.54C280.161 168.757 285.367 169.09 290.186 169.881C290.62 169.954 291.107 170.359 291.107 170.837L291.066 184.37C291.066 184.876 290.861 185.298 290.379 185.507C290.126 185.615 289.864 185.711 289.603 185.812C291.111 193.878 292.618 201.931 294.129 209.989C294.841 213.785 295.552 217.589 296.26 221.385C296.614 223.285 296.971 225.18 297.325 227.08C297.643 228.78 298.032 230.499 298.061 232.238Z" fill="#223549"/>
<path d="M306.12 162.859C306.084 163.172 305.951 163.389 305.786 163.533C305.662 164.65 305.397 165.771 304.902 166.879C304.046 168.836 302.844 170.647 301.763 172.487L298.406 178.195C298.081 178.745 297.578 178.942 296.971 178.745C292.325 177.215 287.634 175.588 283.646 172.688C280.76 175.817 277.753 178.825 274.614 181.701C273.026 183.159 271.35 184.533 269.762 185.999C268.416 187.245 267.085 188.703 266.623 190.526C266.334 191.627 264.493 191.8 264.46 190.482C264.372 186.228 264.288 181.983 264.207 177.737C264.163 175.62 264.143 173.511 264.07 171.406C264.018 169.703 263.869 168.032 263.275 166.438C263.146 166.285 263.07 166.104 263.058 165.907C262.599 164.855 263.878 164.16 264.665 164.638C271.7 164.775 278.397 162.071 284.816 159.492C285.294 159.296 285.7 159.448 285.962 159.746C286.838 159.247 287.71 158.729 288.55 158.179C290.825 156.685 293 155.022 295.026 153.194C296.903 151.507 298.724 149.499 299.23 146.948C299.5 145.578 301.538 145.884 301.377 147.273C301.096 149.788 303.588 151.832 304.822 153.765C306.606 156.584 306.49 159.665 306.12 162.859Z" fill="white"/>
<path d="M218.693 83.9429C215.843 81.4325 212.993 78.9179 210.144 76.4074C208.809 75.2305 207.47 74.0536 206.136 72.8767C205.28 72.1215 203.081 70.7759 203.499 69.3861C203.712 68.6751 204.411 68.0525 204.882 67.5062C205.509 66.7752 206.132 66.0441 206.759 65.3131C207.933 63.9433 209.106 62.5736 210.28 61.1999C212.784 58.2756 215.285 55.3514 217.789 52.4272C218.645 51.431 217.327 50.2782 216.314 50.8526C210.071 54.3994 204.062 58.3439 198.306 62.6339C196.581 58.7416 194.688 54.9337 192.622 51.2101C192.156 50.3666 190.765 50.8004 190.664 51.6801C190.122 56.3677 189.575 61.0593 189.032 65.7469C186.287 64.8833 183.541 64.0156 180.796 63.152C179.988 62.899 178.903 63.5899 179.337 64.5338C180.981 68.1007 183.69 70.9808 187.131 72.8566C183.562 77.3554 179.992 81.8542 176.423 86.349C175.763 87.1765 176.628 88.4779 177.653 88.0521C182.585 86.0116 187.517 83.9711 192.449 81.9305C194.194 88.8113 195.938 95.6921 197.683 102.573C197.952 103.629 199.68 103.384 199.773 102.344C200.416 95.0012 201.063 87.6585 201.706 80.3158C206.775 82.9548 212.214 84.8186 217.841 85.8429C218.939 86.0598 219.469 84.6258 218.693 83.9429ZM199.696 78.444C199.19 84.2081 198.683 89.9762 198.177 95.7403C196.855 90.5184 195.528 85.2966 194.206 80.0748C194.065 79.5164 193.293 79.2473 192.799 79.4482C188.771 81.1151 184.747 82.7781 180.72 84.445C184.032 80.2716 187.344 76.0981 190.656 71.9247C191.528 70.8281 189.844 69.4463 188.976 70.5429C188.807 70.7558 188.638 70.9687 188.47 71.1816C188.397 71.1133 188.313 71.045 188.212 70.9928C185.973 69.8079 184.06 68.0846 182.645 66.0039C184.936 66.727 187.231 67.446 189.523 68.169C190.162 68.3698 190.95 68.1087 191.042 67.3375C191.504 63.3569 191.967 59.3722 192.429 55.3916C194.021 58.4363 195.496 61.5413 196.855 64.6945C197.124 65.3211 197.928 65.6264 198.503 65.1885C202.796 61.9349 207.245 58.8982 211.82 56.0584C209.026 59.32 206.232 62.5857 203.439 65.8473C202.623 66.7993 201.646 67.7713 201.349 69.0286C201.063 70.2457 201.554 71.4146 202.353 72.3224C203.306 73.4029 204.48 74.3067 205.557 75.2586C206.759 76.3191 207.961 77.3795 209.163 78.4359C210.811 79.89 212.459 81.3441 214.107 82.7941C209.613 81.6132 205.284 79.8739 201.208 77.6044C200.613 77.2791 199.753 77.7812 199.696 78.444Z" fill="white"/>
<path d="M309.802 122.704C310.968 118.864 311.153 114.545 308.81 111.127C307.728 109.541 306.193 108.279 304.452 107.492C303.938 106.022 303.632 104.479 303.532 102.929C303.423 101.37 303.532 99.8078 303.829 98.2694C304.468 95.0319 306.193 92.184 307.708 89.3079C310.224 84.54 312.492 77.7677 307.869 73.4617C306.362 72.0398 304.316 71.2083 302.302 71.4131C302.68 67.6614 300.67 63.8134 297.43 61.805C293.688 59.4993 288.96 59.668 285.009 61.3711C284.032 56.2337 281.741 51.2769 277.621 47.9229C275.43 46.1314 272.785 44.8862 269.992 44.4524C267.17 44.0025 264.308 44.5408 261.691 45.6133C259.046 46.7018 256.65 48.3166 254.339 49.9876C251.859 47.1316 247.683 46.5331 244.101 47.706C239.905 49.0918 237.047 52.8917 234.755 56.5148C230.245 53.9561 224.361 54.8117 220.297 57.9288C215.887 61.327 213.966 66.9063 213.813 72.3249C211.884 71.5859 209.629 71.7224 207.715 72.5579C205.082 73.7107 203.125 76.0565 201.706 78.4827C198.51 83.9375 197.292 90.5371 198.466 96.7711C198.964 99.4383 200.046 102.214 202.281 103.865C200.729 105.271 199.286 106.837 198.402 108.741C197.344 111.031 197.626 113.437 198.908 115.55C201.372 119.623 205.251 123.166 209.697 124.945C211.671 125.736 213.765 126.118 215.875 126.046C215.345 128.327 215.819 130.805 217.238 132.697C218.898 134.907 221.72 136.015 224.453 135.762C224.831 138.068 225.691 140.217 226.837 142.253C228.091 144.471 229.506 146.608 230.913 148.736C232.259 150.773 233.674 152.785 235.242 154.657C238.325 158.316 242.071 161.506 246.654 163.06C250.975 164.53 255.722 164.53 259.762 162.385C260.935 163.98 260.602 163.623 261.719 165.253C262.19 165.94 261.96 166.418 262.415 167.117H262.467C262.467 167.137 262.459 167.161 262.459 167.182C262.459 167.218 262.451 167.246 262.451 167.282C261.856 175.709 262.19 184.185 263.468 192.54C263.621 193.496 264.75 193.793 265.389 193.11C266.716 191.704 268.05 190.29 269.377 188.884C274.023 183.964 278.666 179.047 283.313 174.127C284.575 175.155 285.946 175.974 287.381 176.669C288.257 177.095 289.165 177.473 290.086 177.814C295.199 179.754 300.766 180.823 305.059 184.365C305.682 184.88 306.719 184.51 306.828 183.683C307.226 180.545 307.515 177.388 307.696 174.227C308.038 168.342 308.01 162.438 307.608 156.557C307.588 156.244 307.563 155.926 307.543 155.617C307.499 155.059 307.129 154.762 306.711 154.697C305.071 151.307 303.572 147.857 302.201 144.35C302.41 143.828 302.145 143.378 301.723 143.161C301.2 141.799 300.702 140.43 300.224 139.06C300.658 136.931 301.397 134.87 302.414 132.938C302.543 132.693 302.515 132.404 302.394 132.147C302.603 132.039 302.816 131.942 303.009 131.822C306.358 129.817 308.673 126.399 309.802 122.704ZM300.814 146.736C302.097 149.925 303.483 153.075 304.991 156.163C305.099 156.388 305.252 156.541 305.433 156.641C306 164.944 305.811 173.275 304.874 181.55C298.391 177.276 289.736 177.187 283.912 171.797C283.462 171.375 282.766 171.544 282.38 171.949C277.782 176.818 273.187 181.694 268.589 186.563C267.496 187.723 266.406 188.872 265.313 190.033C264.32 182.562 264.075 175.022 264.601 167.507C264.617 167.362 264.601 167.23 264.557 167.109C264.505 166.912 264.396 166.748 264.26 166.615C264.051 166.117 263.906 165.579 263.649 165.101C275.555 166.129 287.61 161.413 295.951 152.886C297.788 151.01 299.412 148.945 300.814 146.736ZM292.976 130.809C292.433 130.585 291.786 130.918 291.577 131.456C290.424 134.513 288.896 137.381 287.011 140.056C286.661 140.534 286.786 141.221 287.256 141.57C289.628 143.302 292.281 144.563 295.131 145.274C295.746 145.435 296.248 145.21 296.529 144.627C297.08 143.511 297.719 142.446 298.423 141.41C298.531 141.466 298.656 141.51 298.776 141.518C299.13 142.41 299.472 143.302 299.814 144.185C294.146 154.095 283.667 160.98 272.416 162.683C269.188 163.169 265.928 163.225 262.684 162.835C262.583 162.819 262.487 162.827 262.403 162.835C262.089 162.132 261.896 161.574 260.931 160.277C260.546 159.771 259.878 159.815 259.4 160.116C255.955 162.317 251.578 162.341 247.783 161.136C243.498 159.775 240.009 156.899 237.131 153.52C234.1 149.962 231.483 145.921 229.132 141.892C226.897 138.072 225.868 133.842 226.274 129.408C226.551 126.323 224.019 123.467 222.664 120.808C221.466 118.482 220.743 116.12 220.357 113.533C219.69 109.079 219.384 104.556 219.3 100.049C220.691 100.724 222.214 101.137 223.713 101.23C229.052 101.571 233.746 98.3457 237.372 94.6744C238.526 96.2249 240.491 97.1608 242.453 96.9358C243.687 96.7832 244.764 96.1968 245.608 95.3492C246.843 98.1248 249.849 100.153 252.735 100.937C257.374 102.19 262.543 101.35 266.7 98.9804C268.484 97.9641 270.084 96.6988 271.447 95.1926C272.223 96.9881 273.638 98.4823 275.45 99.3298C277.022 100.069 278.771 100.177 280.423 99.8078C279.43 101.997 278.755 104.343 279.378 106.693C279.892 108.669 281.19 110.36 282.959 111.135C280.282 114.264 279.522 118.771 281.351 122.595C281.85 123.648 282.533 124.64 283.353 125.471C284.149 126.291 285.238 127.335 286.464 127.339C287.69 127.347 288.414 126.347 288.88 125.331C289.519 123.969 290.042 122.543 290.556 121.121C291.461 118.614 292.224 116.064 292.864 113.477C294.025 111.043 296.401 109.267 299.078 108.834C301.94 108.364 304.842 109.637 306.655 111.862C308.81 114.513 308.785 118.072 307.961 121.237C307.133 124.403 305.453 127.403 302.784 129.375C299.994 131.44 296.232 132.131 292.976 130.809Z" fill="#223549"/>
<path d="M576.346 198.047C573.785 199.65 570.561 199.284 567.711 198.914C564.869 198.545 562.084 197.786 559.728 196.111C559.214 195.741 559.266 195.038 559.576 194.58C561.228 192.126 562.88 189.668 564.528 187.214C564.942 185.611 566.244 184.759 567.82 184.619C569.371 184.482 571.148 184.611 572.639 185.032C575.417 185.808 577.085 188.411 578.199 190.917C579.376 193.548 578.886 196.452 576.346 198.047Z" fill="white"/>
<path d="M603.41 127.391C603.39 127.66 603.358 127.925 603.33 128.202C603.266 128.737 603.185 129.275 603.097 129.805C603.016 130.319 602.924 130.833 602.819 131.348C602.775 131.581 602.727 131.809 602.675 132.034C602.55 132.657 602.405 133.272 602.249 133.882C600.355 137.3 598.462 140.723 596.573 144.141C596.183 144.844 595.789 145.563 595.399 146.27C594.47 147.921 593.558 149.58 592.646 151.227C592.103 152.219 591.552 153.211 591.002 154.199C590.242 155.569 589.486 156.939 588.726 158.308C587.525 160.505 586.307 162.683 585.093 164.872C584.739 165.522 584.373 166.169 584.011 166.812C582.556 169.451 581.097 172.086 579.634 174.725C579.614 174.769 579.582 174.813 579.562 174.853L578.577 176.629L576.374 180.614L574.597 183.823L573.516 185.771L568.15 195.452L567.133 197.291L563.234 204.341L507.682 304.628C492.934 330.556 481.55 358.453 463.775 382.57C462.123 384.815 460.375 386.996 458.498 389.061C457.991 389.627 457.477 390.178 456.954 390.712C455.684 392.017 454.357 393.271 452.914 394.355C451.905 395.122 450.832 395.813 449.695 396.376C446.981 397.725 444.119 398.095 441.225 397.97C440.61 397.942 439.987 397.89 439.36 397.818C437.752 397.657 436.156 397.36 434.581 397.022C433.588 396.508 432.579 396.002 431.586 395.472C417.992 388.442 404.461 381.301 391 374.034C390.34 373.681 389.673 373.323 389.014 372.962C372.163 363.868 355.402 354.589 338.732 345.149C324.587 337.128 310.506 328.994 296.497 320.727L294.62 319.619C287.843 315.614 281.078 311.577 274.325 307.512C269.875 304.833 265.422 302.138 260.984 299.434C260.976 299.426 257.35 297.201 257.35 297.201C256.807 296.056 256.329 294.895 255.887 293.767C255.799 293.558 255.722 293.333 255.634 293.116C254.633 290.477 254.146 287.745 254.235 285.05C254.323 282.154 255.039 279.326 256.438 276.651C256.454 276.595 256.466 276.543 256.49 276.486C256.498 276.47 256.51 276.458 256.51 276.434C257.43 274.739 258.359 273.052 259.271 271.349C260.1 269.843 260.911 268.328 261.727 266.822L305.514 183.755C303.709 187.623 301.723 191.415 299.733 195.195C295.593 203.071 291.445 210.952 287.305 218.829C283.301 226.429 279.309 234.029 275.314 241.629C285.898 221.826 296.349 201.955 306.635 181.995C306.691 181.895 306.744 181.786 306.796 181.682C309.847 175.761 312.894 169.836 315.908 163.896C316.72 162.317 317.516 160.73 318.324 159.156C321.5 152.898 324.675 146.623 327.823 140.349C347.217 101.712 366.038 62.7769 384.295 23.573C384.214 23.3561 384.222 23.095 384.351 22.8178C385.255 20.9621 386.18 19.0782 387.209 17.2666C388.246 15.447 389.331 13.7961 390.61 12.2737C391.357 11.3981 392.153 10.5786 393.025 9.83956C394.702 8.39753 396.587 7.23266 398.681 6.44135C401.74 5.2805 405.024 4.83463 408.268 4.81053C409.321 4.8025 410.37 4.81857 411.423 4.8748C413.767 5.01941 416.106 5.30862 418.414 5.77456C421.545 7.24471 424.664 8.73896 427.779 10.2292C428.575 10.6068 429.375 10.9964 430.163 11.382C463.486 27.4572 496.234 44.7334 528.608 62.7086C548.104 73.5419 567.462 84.6322 586.729 95.8753C588.272 96.767 589.816 97.6667 591.347 98.5786C591.476 98.687 591.625 98.8115 591.781 98.932C591.898 99.0325 591.982 99.1489 592.063 99.2855C594.229 100.792 596.131 102.668 597.702 104.793C598.233 105.512 598.723 106.255 599.182 107.018C602.803 113.155 604.114 120.342 603.41 127.391Z" fill="white"/>
<path d="M633.096 222.598C619.614 221.891 606.132 221.184 592.646 220.477C598.627 211.202 605.083 202.237 612.005 193.641C614.095 191.042 616.229 188.479 618.4 185.949C619.228 184.985 617.934 183.724 616.925 184.374C604.677 192.283 592.433 200.192 580.185 208.098C577.11 210.086 574.031 212.07 570.956 214.058C567.137 205.88 563.99 197.401 561.558 188.708C561.273 187.692 559.504 187.861 559.468 188.937C559.074 200.823 560.304 212.669 563.122 224.221C563.138 224.285 563.162 224.345 563.194 224.402C552.96 230.31 542.73 236.215 532.496 242.124C531.692 242.59 532.054 244.02 532.97 244.08C545.741 244.964 558.62 242.987 570.522 238.288C568.882 249.258 566.418 260.099 563.11 270.687C562.756 271.82 564.074 272.784 564.942 271.82C571.366 264.694 577.46 257.279 583.228 249.611C591.151 253.841 599.214 257.793 607.418 261.453C608.407 261.894 609.368 260.701 608.745 259.826C603.499 252.471 599.21 244.498 595.942 236.083C608.403 232.283 620.864 228.487 633.325 224.687C634.334 224.378 634.177 222.654 633.096 222.598ZM566.55 266.703C569.38 256.873 571.531 246.864 572.958 236.729C573.07 235.942 572.258 235.231 571.491 235.552C560.565 240.152 548.719 242.393 536.881 242.092C546.275 236.669 555.673 231.242 565.067 225.82C565.783 225.406 565.63 224.631 565.139 224.201C565.216 223.964 565.216 223.699 565.152 223.438C562.989 214.565 561.807 205.446 561.598 196.312C563.801 203.044 566.434 209.632 569.481 216.031C569.79 216.681 570.51 216.926 571.129 216.525C583.377 208.616 595.62 200.707 607.868 192.802C609.283 191.886 610.698 190.974 612.117 190.058C606.216 197.256 600.625 204.711 595.383 212.408C593.506 215.163 591.673 217.951 589.884 220.762C589.491 221.377 589.635 222.478 590.564 222.526C602.619 223.156 614.674 223.791 626.729 224.422C615.855 227.736 604.982 231.053 594.105 234.367C593.538 234.54 593.285 235.251 593.478 235.773C596.392 243.522 600.183 250.933 604.745 257.837C597.51 254.52 590.371 250.993 583.357 247.225C582.955 247.008 582.344 247.169 582.074 247.526C577.15 254.122 571.961 260.509 566.55 266.703Z" fill="white"/>
<path d="M602.824 131.35C602.78 131.583 602.731 131.812 602.679 132.036C602.554 132.659 602.41 133.274 602.253 133.884C600.36 137.302 598.467 140.725 596.577 144.143C596.187 144.846 595.793 145.565 595.404 146.272C594.475 147.923 593.563 149.582 592.65 151.229C592.107 152.221 591.557 153.213 591.006 154.201C590.246 155.571 589.491 156.941 588.731 158.31C587.529 160.507 586.311 162.685 585.097 164.874C584.743 165.524 584.378 166.171 584.016 166.814C582.561 169.453 581.102 172.088 579.638 174.727C579.618 174.771 579.586 174.815 579.566 174.855L578.581 176.631L574.602 183.825L573.521 185.773L568.154 195.454L567.137 197.293L507.687 304.63C492.939 330.558 481.555 358.455 463.78 382.572C462.128 384.817 460.379 386.998 458.502 389.063C457.996 389.629 457.481 390.18 456.959 390.714C455.688 392.019 454.362 393.273 452.919 394.357C399.345 367.609 329.314 332.852 329.314 332.852C329.314 332.852 320.933 267.921 323.128 264.486C325.327 261.06 382.028 149.722 387.563 141.492C393.086 133.254 439.947 45.6392 441.181 45.0729C442.415 44.5065 465.042 57.1996 509.966 80.8143C534.192 93.5676 572.604 114.644 602.824 131.35Z" fill="white"/>
<path d="M390.011 245.44C389.926 244.906 389.404 244.351 388.809 244.48C386.984 244.873 385.155 245.267 383.33 245.657C382.775 245.777 382.273 246.235 382.369 246.858C382.454 247.392 382.976 247.946 383.571 247.818C385.396 247.424 387.225 247.03 389.05 246.641C389.601 246.52 390.107 246.062 390.011 245.44Z" fill="#223549"/>
<path d="M396.747 245.017C410.346 242.024 424.101 239.787 437.945 238.309C439.336 238.16 439.103 235.999 437.708 236.148C423.864 237.626 410.109 239.863 396.51 242.856C395.156 243.153 395.377 245.318 396.747 245.017Z" fill="#223549"/>
<path d="M442.395 245.219C443.749 244.874 442.957 242.85 441.615 243.191C426.931 246.911 412.143 250.196 397.262 253.024C393.013 253.831 388.752 254.603 384.492 255.338C383.121 255.575 383.346 257.736 384.729 257.499C399.915 254.88 415.017 251.799 430.014 248.256C434.15 247.276 438.279 246.264 442.395 245.219Z" fill="#223549"/>
<path d="M387.993 265.602C393.468 264.75 398.947 263.903 404.421 263.051C405.8 262.838 405.571 260.673 404.184 260.89C398.709 261.742 393.231 262.589 387.756 263.441C386.377 263.654 386.606 265.819 387.993 265.602Z" fill="#223549"/>
<path d="M441.048 254.547C431.027 256.668 420.934 258.435 410.784 259.845C409.402 260.038 409.631 262.199 411.021 262.006C421.167 260.596 431.264 258.829 441.285 256.708C442.644 256.419 442.423 254.254 441.048 254.547Z" fill="#223549"/>
<path d="M446.772 266.529C448.115 266.212 447.897 264.047 446.535 264.368C431.562 267.919 416.456 270.892 401.249 273.258C396.92 273.932 392.587 274.555 388.246 275.133C386.859 275.318 387.092 277.479 388.483 277.294C403.738 275.262 418.908 272.639 433.957 269.417C438.242 268.506 442.511 267.538 446.772 266.529Z" fill="#223549"/>
<path d="M450.655 326.001C452.01 325.708 451.785 323.543 450.418 323.84C438.367 326.463 426.248 328.765 414.072 330.741C410.603 331.304 407.126 331.842 403.649 332.352C402.266 332.557 402.5 334.718 403.886 334.513C416.09 332.722 428.245 330.609 440.332 328.167C443.777 327.472 447.218 326.749 450.655 326.001Z" fill="#223549"/>
<path d="M415.793 341.708C415.732 341.182 415.166 340.607 414.591 340.748C411.48 341.495 408.368 342.242 405.261 342.985C404.69 343.122 404.228 343.552 404.3 344.186C404.361 344.713 404.928 345.287 405.502 345.146C408.614 344.399 411.725 343.652 414.832 342.909C415.403 342.773 415.865 342.347 415.793 341.708Z" fill="#223549"/>
<path d="M421.5 342.148C432.498 339.798 443.492 337.448 454.49 335.098C455.844 334.809 455.623 332.644 454.252 332.937C443.255 335.287 432.261 337.637 421.263 339.987C419.909 340.276 420.13 342.441 421.5 342.148Z" fill="#223549"/>
<path d="M457.111 342.562C456.038 343.534 454.739 344.028 453.361 344.41C451.765 344.847 450.141 345.197 448.525 345.575C445.221 346.346 441.913 347.093 438.596 347.808C431.908 349.258 425.191 350.596 418.458 351.825C414.595 352.532 410.72 353.198 406.845 353.829C405.47 354.054 405.695 356.215 407.082 355.99C421.006 353.717 434.85 350.981 448.589 347.776C450.394 347.354 452.207 346.96 453.996 346.478C455.583 346.053 457.143 345.446 458.377 344.329C459.41 343.397 458.152 341.626 457.111 342.562Z" fill="#223549"/>
<path d="M437.885 190.739C435.566 199.901 430.847 208.252 423.905 214.647C416.822 221.174 407.834 225.367 398.468 227.227C389.05 229.107 379.19 228.577 370.005 225.765C365.375 224.351 360.8 222.339 356.785 219.579C352.632 216.711 348.93 212.59 348.512 207.312C348.492 207.039 348.54 206.81 348.629 206.605C347.431 205.079 346.37 203.456 345.425 201.753C340.212 192.313 339.094 180.893 341.884 170.506C344.726 159.962 351.165 150.643 359.518 143.794C368.168 136.697 379.037 132.166 390.192 131.479C400.993 130.824 411.926 133.825 420.834 140.067C428.777 145.638 434.577 153.784 437.375 163.139C440.044 172.053 440.18 181.721 437.885 190.739Z" fill="#EC663D"/>
<path d="M576.369 180.613L574.593 183.823L573.511 185.771L568.145 195.451L567.128 197.291L563.229 204.34C553.686 206.18 544.148 208.012 534.605 209.86C533.902 209.988 533.198 210.129 532.487 210.265C513.586 213.908 494.682 217.556 475.782 221.199C442.242 227.662 408.718 234.133 375.178 240.596C376.267 246.485 377.352 252.385 378.442 258.274C381.987 277.51 385.54 296.739 389.086 315.975C392.639 335.22 396.184 354.456 399.738 373.685C399.991 375.07 397.816 375.235 397.571 373.865C395.561 362.992 393.556 352.106 391.546 341.233C388 321.996 384.439 302.752 380.894 283.524C378.285 269.36 375.668 255.181 373.055 241.01C372.919 240.307 372.786 239.588 372.657 238.885C371.853 234.531 371.049 230.168 370.242 225.814C370.169 225.388 370.539 224.794 370.965 224.698C372.923 224.272 374.888 223.85 376.838 223.416C392.607 220.002 408.368 216.592 424.137 213.194C427.546 212.454 430.958 211.723 434.367 210.984C435.071 210.832 435.782 210.679 436.485 210.526C448.13 208.02 459.775 205.513 471.412 203.015C487.173 199.633 502.938 196.255 518.699 192.893C521.75 192.242 524.797 191.587 527.848 190.936C528.552 190.784 529.255 190.631 529.958 190.487C542.046 187.9 554.137 185.329 566.224 182.762C569.604 182.047 572.989 181.332 576.369 180.613Z" fill="#223549"/>
<path d="M383.917 232.144C383.426 231.73 382.932 231.332 382.438 230.927C383.061 230.003 383.68 229.075 384.303 228.151C384.628 227.665 384.636 227.018 384.154 226.621C383.732 226.275 382.952 226.279 382.623 226.769C381.995 227.701 381.368 228.637 380.741 229.569C380.203 229.147 379.664 228.725 379.117 228.316C378.663 227.978 377.952 227.978 377.586 228.464C377.248 228.918 377.248 229.633 377.735 229.995C378.337 230.445 378.936 230.902 379.531 231.364C378.868 232.353 378.205 233.341 377.538 234.329C377.212 234.815 377.204 235.462 377.686 235.859C378.108 236.205 378.888 236.201 379.218 235.711C379.889 234.714 380.556 233.718 381.228 232.722C381.316 232.794 381.405 232.863 381.493 232.935C382.092 233.429 382.667 233.955 383.278 234.437C383.631 234.718 384.033 234.839 384.472 234.674C384.713 234.582 384.926 234.425 385.075 234.22C385.428 233.738 385.468 233.043 385.083 232.561C384.813 232.22 384.339 232.039 383.917 232.144Z" fill="white"/>
<path d="M393.13 223.958C392.017 224.207 391.16 224.858 390.582 225.838C390.216 226.456 390.063 227.171 390.103 227.878C389.633 229.328 390.264 231.072 391.482 231.959C392.985 233.056 395.112 232.839 396.495 231.63C397.962 230.345 398.533 228.216 397.729 226.396C396.973 224.673 395.019 223.54 393.13 223.958ZM395.912 228.393C395.896 228.533 395.868 228.67 395.843 228.806C395.839 228.83 395.839 228.838 395.839 228.854C395.803 228.947 395.783 229.003 395.763 229.063C395.715 229.18 395.658 229.288 395.602 229.397C395.578 229.433 395.542 229.497 395.53 229.517C395.478 229.59 395.425 229.658 395.365 229.722C395.313 229.782 395.257 229.839 395.204 229.895C395.088 229.991 394.971 230.08 394.851 230.16C394.79 230.2 394.73 230.236 394.67 230.272C394.477 230.353 394.32 230.413 394.155 230.465C394.063 230.473 393.99 230.493 393.918 230.501C393.846 230.509 393.777 230.513 393.705 230.517C393.693 230.517 393.673 230.517 393.653 230.517C393.52 230.501 393.391 230.481 393.263 230.461C393.178 230.413 393.078 230.393 392.997 230.353C392.993 230.349 392.965 230.341 392.941 230.329C392.865 230.276 392.821 230.244 392.78 230.212C392.74 230.18 392.7 230.144 392.66 230.108C392.64 230.088 392.62 230.068 392.6 230.047C392.531 229.931 392.427 229.814 392.346 229.702C392.294 229.594 392.262 229.525 392.234 229.449C392.21 229.385 392.19 229.32 392.169 229.256C392.165 229.236 392.161 229.216 392.153 229.188C392.149 229.164 392.149 229.14 392.145 229.116C392.346 228.854 392.419 228.525 392.338 228.184C392.451 227.931 392.427 227.633 392.31 227.376C392.314 227.348 392.318 227.324 392.322 227.296C392.33 227.256 392.346 227.204 392.354 227.179C392.386 227.099 392.419 227.023 392.455 226.947C392.471 226.914 392.535 226.806 392.539 226.794C392.628 226.669 392.704 226.589 392.776 226.509C392.801 226.485 392.861 226.424 392.885 226.404C392.929 226.368 392.973 226.336 393.022 226.304C393.046 226.288 393.134 226.24 393.162 226.223C393.21 226.199 393.259 226.179 393.311 226.159C393.379 226.135 393.452 226.115 393.52 226.091C393.681 226.079 393.805 226.063 393.938 226.055C393.966 226.055 393.998 226.055 394.018 226.059C394.091 226.067 394.163 226.075 394.24 226.087C394.312 226.099 394.384 226.119 394.457 226.131C394.497 226.143 394.529 226.155 394.561 226.163C394.702 226.215 394.83 226.28 394.967 226.348C395.039 226.396 395.104 226.44 395.164 226.489C395.208 226.525 395.256 226.565 395.301 226.601C395.317 226.617 395.373 226.677 395.401 226.71C395.498 226.83 395.59 226.955 395.675 227.087C395.715 227.179 395.755 227.264 395.787 227.348C395.807 227.404 395.827 227.465 395.847 227.525C395.855 227.549 395.863 227.565 395.867 227.577C395.9 227.766 395.924 227.919 395.932 228.075C395.936 228.135 395.936 228.2 395.94 228.26C395.916 228.015 395.916 228.34 395.912 228.393Z" fill="white"/>
<path d="M410.604 226.348C410.483 224.726 410.274 223.107 409.981 221.504C409.88 220.95 409.394 220.444 408.779 220.544C406.299 220.954 403.83 221.408 401.37 221.914C400.796 222.03 400.341 222.492 400.41 223.115C400.362 223.328 400.353 223.549 400.422 223.762C400.856 225.111 401.29 226.457 401.724 227.806C401.937 228.465 402.106 229.164 402.371 229.807C402.54 230.216 402.834 230.526 403.256 230.666C403.642 230.795 403.983 230.707 404.365 230.618C405.756 230.297 407.151 229.979 408.541 229.658C409.317 229.481 410.173 229.341 410.519 228.509C410.797 227.843 410.656 227.047 410.604 226.348ZM407.991 227.569C407.492 227.686 406.994 227.798 406.491 227.915C405.993 228.031 405.495 228.144 404.992 228.26C404.731 228.321 404.47 228.381 404.208 228.441C404.132 228.2 404.052 227.959 403.975 227.718C403.802 227.184 403.629 226.65 403.461 226.115C403.219 225.364 402.978 224.613 402.733 223.862C404.486 223.512 406.246 223.187 408.007 222.89C408.103 223.512 408.196 224.135 408.268 224.762C408.324 225.264 408.377 225.77 408.417 226.276C408.425 226.376 408.433 227.035 408.461 227.441C408.3 227.473 408.127 227.537 407.991 227.569Z" fill="white"/>
<path d="M603.1 129.805C602.984 130.552 602.847 131.299 602.678 132.038C599.053 130.074 595.423 128.118 591.789 126.162C575.112 117.184 558.422 108.231 541.712 99.3095C525.079 90.4324 508.426 81.5793 491.756 72.7625C475.167 63.9898 458.55 55.2372 441.924 46.5208C439.987 49.9029 438.053 53.2891 436.124 56.6712C420.697 83.7524 405.534 110.986 390.642 138.369C375.749 165.747 361.125 193.278 346.771 220.942C332.421 248.61 318.344 276.418 304.537 304.363C301.847 309.81 299.162 315.268 296.497 320.731L294.62 319.623C298.961 310.733 303.335 301.864 307.744 293.003C321.62 265.095 335.765 237.322 350.188 209.691C364.61 182.063 379.298 154.568 394.255 127.226C409.22 99.8919 424.455 72.6902 439.939 45.6451C440.22 45.1591 440.723 45.0064 441.173 45.0787C441.338 44.5003 441.912 44.0585 442.596 44.42C444.69 45.5206 446.792 46.6172 448.89 47.7178C465.58 56.4864 482.266 65.2792 498.923 74.1041C515.581 82.929 532.23 91.782 548.863 100.671C565.569 109.596 582.259 118.558 598.928 127.544C600.315 128.299 601.71 129.042 603.1 129.805Z" fill="#EC663D"/>
<path d="M389.014 372.968C372.163 363.874 355.401 354.595 338.732 345.155C317.106 332.896 295.629 320.348 274.329 307.518C269.879 304.839 265.425 302.143 260.988 299.44C260.98 299.432 257.354 297.207 257.354 297.207C256.811 296.062 256.333 294.901 255.891 293.772C255.802 293.564 255.726 293.339 255.638 293.122C254.637 290.483 254.15 287.751 254.239 285.056C254.327 282.16 255.043 279.332 256.442 276.657C256.458 276.601 256.47 276.548 256.494 276.492C256.502 276.476 256.514 276.464 256.514 276.44C257.434 274.745 258.363 273.058 259.275 271.355C262.29 265.84 265.285 260.304 268.271 254.769C281.287 230.636 294.074 206.379 306.639 181.997C306.695 181.897 306.748 181.788 306.8 181.684C323.518 177.35 340.247 173.012 356.973 168.685C357.508 168.549 358.139 169.091 358.171 169.629C359.288 188.938 361.58 208.146 364.377 227.27C366.56 242.201 369.032 257.083 371.512 271.973C371.142 271.973 370.781 271.981 370.411 271.981C366.371 272.017 362.13 271.973 358.368 273.668C348.934 279.999 351.213 297.235 350.015 307.751C348.592 320.299 355.353 318.813 365.422 320.09C365.848 320.147 366.19 320.147 366.299 320.605C366.415 321.067 366.162 321.814 366.09 322.264C365.885 323.489 365.676 324.718 365.475 325.951C365.032 328.59 364.59 331.225 364.148 333.864C364.011 334.683 364.988 335.27 365.684 334.945C371.187 332.394 376.123 328.835 380.331 324.505C380.621 326.184 380.91 327.875 381.2 329.554C383.704 344.039 386.292 358.515 389.014 372.968Z" fill="#223549"/>
<path d="M570.38 187.023C570.018 187.682 569.657 188.341 569.291 188.996C568.27 190.835 567.245 192.675 566.232 194.515C565.89 195.137 565.536 195.768 565.187 196.399C564.978 196.784 564.765 197.158 564.556 197.543C564.934 197.632 565.315 197.708 565.709 197.768C566.071 197.821 566.429 197.869 566.791 197.905L567.132 197.294L568.149 195.455L570.899 190.49L571.988 188.526C571.445 188.028 570.907 187.53 570.38 187.023ZM570.38 187.023C570.018 187.682 569.657 188.341 569.291 188.996C568.27 190.835 567.245 192.675 566.232 194.515C565.89 195.137 565.536 195.768 565.187 196.399C564.978 196.784 564.765 197.158 564.556 197.543C564.934 197.632 565.315 197.708 565.709 197.768C566.071 197.821 566.429 197.869 566.791 197.905L567.132 197.294L568.149 195.455L570.899 190.49L571.988 188.526C571.445 188.028 570.907 187.53 570.38 187.023Z" fill="#223549"/>
<path d="M564.746 184.406C564.404 185.021 564.062 185.643 563.725 186.27C562.768 188.001 561.811 189.741 560.863 191.48C560.545 192.074 560.212 192.669 559.886 193.263C559.689 193.625 559.488 193.982 559.291 194.344C559.645 194.432 560.011 194.504 560.372 194.561C560.714 194.605 561.048 194.653 561.385 194.689L561.703 194.111L562.651 192.372L565.232 187.684L566.249 185.828C565.747 185.354 565.24 184.884 564.746 184.406ZM564.746 184.406C564.404 185.021 564.062 185.643 563.725 186.27C562.768 188.001 561.811 189.741 560.863 191.48C560.545 192.074 560.212 192.669 559.886 193.263C559.689 193.625 559.488 193.982 559.291 194.344C559.645 194.432 560.011 194.504 560.372 194.561C560.714 194.605 561.048 194.653 561.385 194.689L561.703 194.111L562.651 192.372L565.232 187.684L566.249 185.828C565.747 185.354 565.24 184.884 564.746 184.406Z" fill="#223549"/>
<path d="M320.631 155.492C316.651 164.775 312.411 174.002 307.973 183.16C293.538 212.981 277.022 242.159 260.686 270.585C258.612 274.192 252.638 271.565 254.725 267.934C272.865 236.374 291.223 203.887 306.703 170.623C309.046 165.602 311.321 160.561 313.512 155.496C315.51 155.5 318.05 155.492 320.631 155.492Z" fill="white"/>
<path d="M599.185 107.026C598.727 106.266 598.237 105.519 597.706 104.8C596.134 102.675 594.233 100.8 592.067 99.2933C591.986 99.1568 591.902 99.0403 591.785 98.9399C591.624 98.8153 591.48 98.6948 591.351 98.5864C589.82 97.6746 588.276 96.7748 586.732 95.8831C567.47 84.6401 548.112 73.5457 528.612 62.7164C496.238 44.7413 463.49 27.469 430.167 11.3898C429.375 11.0042 428.579 10.6146 427.783 10.237C424.664 8.74275 421.549 7.25252 418.418 5.78238C416.11 5.32044 413.771 5.02722 411.427 4.88261C410.374 4.82638 409.325 4.81031 408.272 4.81835C405.032 4.83843 401.748 5.28831 398.685 6.44916C396.591 7.24047 394.706 8.40534 393.029 9.84737C392.161 10.5865 391.361 11.4059 390.614 12.2815C389.335 13.8039 388.25 15.4548 387.241 17.2222C386.184 19.086 385.263 20.9699 384.355 22.8216C384.226 23.0988 384.218 23.3558 384.299 23.5768C366.041 62.7807 347.221 101.715 327.827 140.353C324.679 146.627 321.504 152.901 318.328 159.16C317.524 160.73 316.724 162.317 315.912 163.899C312.837 169.941 309.742 175.978 306.639 181.999C294.074 206.377 281.283 230.634 268.271 254.771C265.285 260.307 262.29 265.842 259.275 271.357C258.363 273.06 257.434 274.747 256.514 276.442C256.514 276.462 256.498 276.478 256.494 276.494C256.474 276.55 256.458 276.603 256.442 276.659C255.043 279.334 254.323 282.158 254.239 285.058C254.15 287.753 254.637 290.485 255.638 293.124C255.726 293.341 255.802 293.566 255.891 293.774C256.333 294.903 256.811 296.064 257.354 297.209C257.354 297.209 260.98 299.434 260.988 299.442C265.425 302.145 269.875 304.841 274.329 307.52C295.629 320.35 317.106 332.898 338.732 345.157C356.053 354.974 373.474 364.603 390.999 374.042C404.461 381.308 417.991 388.454 431.586 395.48C432.579 396.01 433.588 396.516 434.581 397.03C436.152 397.372 437.748 397.669 439.36 397.825C439.983 397.898 440.606 397.95 441.225 397.978C444.119 398.103 446.981 397.733 449.694 396.383C452.464 395.006 454.799 392.933 456.95 390.72C457.472 390.181 457.987 389.631 458.493 389.069C460.371 387.004 462.119 384.823 463.771 382.578C481.55 358.457 492.934 330.564 507.678 304.636L565.682 199.922L566.791 197.91C566.429 197.873 566.071 197.821 565.71 197.773C565.32 197.717 564.934 197.636 564.556 197.548C564.765 197.163 564.978 196.789 565.187 196.403C565.537 195.773 565.891 195.142 566.232 194.519C567.249 192.68 568.27 190.84 569.291 189C569.653 188.35 570.015 187.691 570.38 187.028C570.911 187.534 571.446 188.036 571.984 188.534L573.516 185.783L574.597 183.835L576.04 181.228L577.142 179.236L578.577 176.641L579.561 174.865C579.581 174.821 579.614 174.777 579.634 174.737C580.237 173.648 580.844 172.556 581.439 171.471C581.808 170.812 582.17 170.154 582.54 169.495C583.034 168.603 583.517 167.719 584.011 166.828C584.373 166.181 584.735 165.538 585.092 164.888C585.37 164.389 585.651 163.879 585.924 163.381C586.31 162.694 586.692 161.995 587.078 161.301C587.629 160.308 588.18 159.316 588.722 158.324C589.482 156.954 590.238 155.585 590.997 154.215C591.279 153.709 591.564 153.199 591.845 152.685C592.115 152.207 592.38 151.721 592.641 151.243C592.85 150.865 593.055 150.487 593.264 150.114C593.976 148.844 594.679 147.563 595.395 146.29C595.785 145.579 596.179 144.864 596.569 144.161C598.462 140.743 600.355 137.32 602.244 133.902C602.723 132.046 603.084 130.15 603.326 128.222C603.354 127.945 603.382 127.68 603.406 127.411C604.113 120.341 602.803 113.155 599.185 107.026ZM565.231 187.679L562.651 192.366L561.702 194.106L561.385 194.684C561.043 194.648 560.709 194.596 560.372 194.556C560.01 194.499 559.648 194.427 559.29 194.339C558.965 194.933 558.647 195.512 558.318 196.098C552.807 206.132 547.284 216.174 541.765 226.224C519.311 267.095 496.841 307.966 474.379 348.825C471.863 353.42 469.334 358.003 466.818 362.598C466.665 362.875 466.541 363.112 466.396 363.357C463.908 367.053 461.299 370.668 458.325 373.978C456.431 376.07 454.417 378.115 452.046 379.613C449.771 381.063 447.182 381.722 444.513 381.714C442.411 381.698 440.329 381.353 438.271 380.919C437.503 380.529 436.739 380.123 435.971 379.722C407.275 364.755 378.832 349.279 350.686 333.251C344.589 329.781 338.515 326.282 332.457 322.76C317.392 314.023 302.426 305.126 287.542 296.084C282.634 293.1 277.738 290.099 272.854 287.078C272.396 286.086 271.998 285.094 271.636 284.15C269.807 279.443 269.803 274.261 272.303 269.79C272.347 269.702 272.392 269.617 272.412 269.529C276.463 262.054 280.503 254.567 284.511 247.063C289.218 238.258 293.893 229.441 298.527 220.613C305.538 207.261 312.475 193.877 319.337 180.445C321.721 175.793 324.092 171.126 326.456 166.462C327.871 163.687 329.262 160.911 330.66 158.123C344.219 131.223 357.496 104.162 370.471 76.9479C378.679 59.7319 386.771 42.4557 394.738 25.1232L394.782 25.0429C396.965 21.2189 399.682 17.7685 403.822 15.981C409.309 13.6111 415.748 14.0248 421.485 15.1054C421.557 15.1214 421.629 15.1335 421.702 15.1415C438.588 23.1912 455.322 31.5581 471.903 40.2103C503.397 56.6189 534.401 74.0036 565.115 91.8823C570.895 95.2444 576.655 98.6265 582.419 102.017C582.492 102.185 582.616 102.334 582.805 102.451C588.192 105.748 591.689 111.436 593.108 117.602C594.318 122.884 594 128.311 592.718 133.504C591.15 136.364 589.578 139.22 588.011 142.068C587.657 142.707 587.307 143.358 586.954 144.008C586.359 145.073 585.764 146.153 585.177 147.226C584.771 147.949 584.381 148.684 583.975 149.407C583.621 150.066 583.251 150.732 582.886 151.391C582.532 152.038 582.174 152.689 581.812 153.339C581.704 153.544 581.595 153.745 581.479 153.954C581.137 154.564 580.803 155.163 580.47 155.781C580.056 156.529 579.65 157.276 579.244 158.019C578.822 158.786 578.396 159.553 577.982 160.316C577.664 160.887 577.351 161.453 577.041 162.032C576.699 162.646 576.358 163.265 576.024 163.879C575.566 164.707 575.12 165.53 574.661 166.358C574.32 166.972 573.978 167.591 573.644 168.205C572.997 169.366 572.37 170.523 571.731 171.684C571.405 172.27 571.08 172.865 570.754 173.475C570.364 174.178 569.97 174.889 569.589 175.592C569.247 176.215 568.901 176.838 568.568 177.46C568.089 178.324 567.627 179.175 567.153 180.031C566.827 180.625 566.493 181.22 566.168 181.806C565.69 182.67 565.227 183.53 564.745 184.401C565.239 184.879 565.746 185.349 566.244 185.823L565.231 187.679Z" fill="#223549"/>
<path d="M572.656 160.198C572.322 163.842 570.356 167.16 567.884 169.779C565.276 172.538 561.975 175.053 558.261 176.089C555.102 176.965 551.757 176.627 548.771 175.294C542.745 172.606 538.794 166.441 539.381 159.817C539.839 154.623 542.862 149.819 547.119 146.843C547.026 146.373 547.191 145.842 547.734 145.581C555.267 142.002 565.075 143.364 569.991 150.522C571.932 153.338 572.969 156.78 572.656 160.198Z" fill="#EC663D"/>
<path d="M592.356 158.897C592.115 160.355 591.705 161.793 591.146 163.162C590.579 164.532 589.514 165.813 589.197 167.255C588.855 168.778 589.277 170.348 589.321 171.879C589.365 173.257 589.205 174.662 588.465 175.855C588.103 176.434 587.597 176.811 587.147 177.306C586.696 177.812 586.652 178.507 586.507 179.137C586.154 180.668 585.639 182.158 584.956 183.572C584.088 185.359 582.536 187.5 580.534 187.753C580.659 188.472 580.751 189.187 580.788 189.914C580.896 191.935 580.707 194.043 580.064 195.98C579.381 198.024 577.069 198.08 575.707 196.638C574.915 195.799 574.3 194.762 573.612 193.843C572.945 192.959 572.258 192.091 571.554 191.244C569.987 189.36 568.327 187.564 566.582 185.845C566.16 185.431 566.168 184.889 566.393 184.475C565.006 183.238 563.784 181.68 563.234 179.969C562.478 177.635 563.575 175.687 565.895 174.984C566.996 174.65 568.097 174.598 569.179 174.743C567.249 172.112 565.163 169.569 563.358 166.854C562.562 165.657 561.863 164.375 561.509 162.978C561.196 161.716 561.015 159.921 561.935 158.856C562.767 157.9 564.488 157.667 565.678 157.575C566.582 157.503 567.474 157.559 568.359 157.72C567.969 156.531 567.495 155.386 567.177 154.177C566.807 152.771 566.94 151.112 568.114 150.112C570.485 148.091 574.014 150.57 575.952 152.096C578.251 153.916 580.164 156.153 582.363 158.081C582.922 158.567 583.493 159.029 584.096 159.463C584.14 159.491 584.445 159.708 584.691 159.877C584.747 159.652 584.791 159.451 584.827 159.238C584.992 158.274 584.964 157.31 584.783 156.378C584.064 154.864 583.151 153.45 582.058 152.176C580.985 150.915 579.71 149.903 578.44 148.851C576.221 147.003 574.067 144.48 574.67 141.375C575.22 138.527 578.127 137.222 580.796 137.905C583.565 138.608 585.985 140.725 587.83 142.825C591.645 147.188 593.321 153.173 592.356 158.897Z" fill="white"/>
<path d="M593.269 150.1C592.951 149.273 592.581 148.469 592.175 147.682C591.785 146.935 591.363 146.212 590.905 145.509C590.471 144.842 590.013 144.192 589.534 143.569C589.526 143.553 589.514 143.533 589.498 143.517C587.963 141.516 586.158 139.669 584.047 138.263C582.054 136.929 579.553 135.784 577.13 136.656C575.26 137.323 574.091 139.098 573.693 140.982C573.214 143.227 574.018 145.473 575.289 147.313C576.913 149.654 579.268 151.305 581.177 153.386C581.728 153.988 582.259 154.675 582.677 155.406C583.002 155.965 583.272 156.559 583.444 157.166C583.067 156.78 582.689 156.411 582.307 156.049C580.703 154.491 579.015 153.02 577.31 151.578C574.859 149.506 571.277 146.252 567.864 148.269C566.377 149.152 565.609 150.871 565.589 152.55C565.573 153.936 566.06 155.226 566.771 156.383C565.625 156.166 564.436 156.202 563.246 156.599C557.626 158.499 560.533 166.505 563.463 169.497L564.138 170.192C565.195 171.281 566.24 172.373 567.342 173.418C566.369 173.398 565.4 173.57 564.516 174.02C562.836 174.876 561.674 176.651 561.485 178.519C561.24 181.062 562.775 182.873 564.516 184.512C564.797 184.773 565.075 185.042 565.356 185.303C565.895 185.81 566.429 186.312 566.964 186.818L569.291 188.999L570.895 190.497L571.446 191.011C572.467 191.967 573.846 190.28 572.829 189.332C572.547 189.071 572.262 188.802 571.98 188.537C571.446 188.039 570.907 187.537 570.377 187.031C569.609 186.32 568.845 185.605 568.085 184.886C567.997 184.805 567.905 184.725 567.816 184.641C567.402 184.255 566.924 183.849 566.437 183.44C565.372 182.52 564.283 181.5 563.829 180.274C563.314 178.905 563.808 177.238 564.938 176.318C566.445 175.085 568.628 175.579 570.196 176.41C570.276 176.454 570.357 176.499 570.429 176.547C571.052 176.888 571.647 177.302 572.222 177.748C573.005 178.358 573.737 179.029 574.457 179.688C574.621 179.833 574.782 179.985 574.943 180.13C575.329 180.479 575.699 180.849 576.036 181.222C576.973 182.231 577.769 183.343 578.319 184.629C579.059 186.352 579.401 188.2 579.445 190.071C579.489 191.819 579.336 193.823 578.689 195.462C578.014 197.193 576.197 197.695 574.497 197.868C571.944 198.137 569.348 198.193 566.791 197.912C566.429 197.876 566.072 197.824 565.71 197.776C565.32 197.719 564.934 197.639 564.556 197.551C564.206 198.173 563.869 198.788 563.519 199.414C564.223 199.623 564.942 199.792 565.678 199.929C566.068 200.001 566.474 200.065 566.88 200.117C570.606 200.587 577.073 200.973 579.799 197.812C581.214 196.173 581.479 193.494 581.575 191.421C581.628 190.385 581.595 189.348 581.483 188.32C585.02 187.681 587.561 184.271 587.77 180.756C587.842 179.62 587.717 178.523 587.456 177.475C589.972 175.671 591.082 172.426 590.76 169.397C590.672 168.557 590.491 167.746 590.226 166.955C592.931 164.565 594.446 160.913 594.567 157.326C594.659 154.832 594.161 152.398 593.269 150.1ZM581.109 186.167C581.009 185.745 580.892 185.328 580.755 184.906C580.024 182.717 578.746 180.849 577.138 179.226L576.993 179.081C576.531 178.623 576.044 178.162 575.55 177.704C574.838 177.053 574.091 176.422 573.315 175.848C572.736 175.414 572.133 175.008 571.518 174.659C571.466 174.623 571.418 174.595 571.365 174.567C571.096 174.414 570.823 174.277 570.533 174.145C570.626 173.755 570.517 173.341 570.184 173.056C568.057 171.253 566.232 169.164 564.339 167.115C562.619 165.252 560.541 159.644 564.142 158.588C567.117 157.724 569.971 160.002 571.944 161.934C573.074 163.034 574.111 164.231 575.2 165.376C575.55 165.746 575.904 166.107 576.265 166.465C576.788 166.987 577.323 167.493 577.861 167.999C578.348 168.449 578.834 168.899 579.312 169.353C579.501 169.525 579.69 169.706 579.879 169.883C580.402 170.397 580.932 170.911 581.439 171.454C583.28 173.418 584.884 175.647 585.434 178.302C586.097 181.5 584.626 185.548 581.109 186.167ZM586.692 175.298C585.712 173.133 584.184 171.18 582.536 169.481C582.464 169.401 582.391 169.329 582.319 169.256C581.869 168.806 581.419 168.365 580.956 167.931C580.305 167.308 579.638 166.698 578.983 166.075C578.44 165.569 577.909 165.059 577.387 164.533C577.315 164.46 577.242 164.388 577.17 164.316C575.835 162.954 574.601 161.496 573.235 160.162C572.25 159.206 571.104 158.278 569.854 157.559C569.947 157.282 569.91 156.965 569.653 156.656C568.733 155.563 567.84 154.286 567.752 152.808C567.687 151.691 568.178 150.426 569.275 149.988C570.582 149.466 572.081 150.285 573.138 151.008C574.428 151.892 575.594 152.972 576.784 153.984C578.283 155.274 579.771 156.579 581.185 157.961C581.72 158.483 582.243 159.014 582.753 159.556C582.97 159.789 583.179 160.018 583.392 160.251C583.457 160.315 583.521 160.387 583.581 160.452C583.895 160.801 584.196 161.154 584.502 161.524C584.626 161.669 584.747 161.813 584.863 161.966C585.233 162.416 585.587 162.878 585.921 163.356C586.572 164.255 587.147 165.195 587.601 166.188C587.89 166.818 588.135 167.461 588.324 168.136C588.34 168.18 588.344 168.224 588.352 168.264C589 170.726 588.562 173.554 586.692 175.298ZM589.333 164.77C588.702 163.536 587.918 162.38 587.078 161.283C586.656 160.741 586.222 160.211 585.788 159.696C585.816 159.5 585.84 159.299 585.844 159.102C585.925 157.849 585.639 156.632 585.121 155.479C584.787 154.74 584.361 154.021 583.867 153.35C583.091 152.257 582.162 151.265 581.234 150.385C578.629 147.931 574.159 144.328 576.225 140.243C578.488 135.752 584.397 140.966 586.367 143.135C587.07 143.91 587.737 144.738 588.361 145.597C588.831 146.248 589.273 146.923 589.679 147.618C590.129 148.377 590.543 149.176 590.889 149.988C591.275 150.855 591.6 151.755 591.846 152.667C592.063 153.486 592.231 154.318 592.324 155.161C592.718 158.644 591.717 162.287 589.333 164.77Z" fill="#223549"/>
<path d="M288.808 285.822C288.647 288.329 286.453 290.329 284.145 290.988C280.95 291.908 277.569 290.823 274.41 290.221C271.09 289.598 267.741 289.096 264.377 288.743C262.194 288.51 259.63 288.011 257.358 288.437C260.164 290.285 263.404 291.386 266.559 292.51C270.278 293.828 274.108 294.989 277.746 296.495C279.145 297.073 280.234 298.25 279.985 299.857C279.74 301.428 278.462 302.5 277.01 302.978C273.437 304.159 269.506 303.332 265.989 302.376C265.438 302.223 264.887 302.07 264.337 301.914C264.059 301.841 263.344 301.488 263.062 301.564C263.026 301.58 262.998 301.608 262.97 301.636C262.95 301.765 262.918 301.898 262.897 302.026C262.753 302.785 262.616 303.548 262.475 304.308C262.142 306.091 261.808 307.879 261.483 309.662C261.462 309.778 261.418 309.887 261.366 309.979C260.823 312.827 260.277 315.667 259.734 318.515C259.219 321.218 258.689 323.95 257.929 326.601C258.182 326.802 258.319 327.123 258.211 327.549C257.588 329.947 256.623 332.184 255.26 334.257C254.239 335.815 252.265 338.836 250.019 337.635C249.998 337.627 249.982 337.615 249.966 337.599C249.452 337.824 248.929 338.021 248.395 338.165C245.191 339.041 241.839 338.768 238.571 338.527C237.815 338.47 237.063 338.41 236.307 338.346C233.691 338.121 231.082 337.848 228.469 337.506C221.756 336.651 215.084 335.426 208.504 333.863C207.157 333.538 207.466 331.413 208.809 331.702C209.955 326.195 212.013 320.901 214.943 316.089C216.414 313.683 218.054 311.06 220.112 309.12C221.178 308.12 222.604 308.091 223.991 307.923C224.783 307.83 225.571 307.726 226.371 307.634C226.415 307.605 226.451 307.577 226.5 307.553C227.348 307.147 228.24 306.866 229.144 306.617C230.676 306.196 232.24 305.886 233.711 305.276C235.841 304.4 237.445 302.705 238.494 300.68C240.685 296.443 240.58 291.361 240.93 286.718C241.328 281.5 241.786 276.286 242.317 271.077C242.55 268.779 242.759 266.453 243.623 264.28C244.371 262.38 245.589 260.657 247.032 259.215C247.944 258.311 248.933 257.512 249.974 256.789C249.982 256.476 250.091 256.166 250.344 255.941C252.39 254.146 254.665 252.652 257.101 251.479C258.158 250.957 259.248 250.503 260.365 250.101C261.591 249.667 262.853 249.298 264.128 249.008C268.63 247.98 273.417 247.928 277.919 248.988C280.13 249.502 282.449 250.41 283.422 252.632C284.27 254.572 283.567 256.777 281.661 257.733C279.748 258.689 277.493 258.299 275.455 258.155C272.794 257.974 270.089 258.102 267.472 258.669C263.259 259.573 259.179 261.842 256.655 265.385C263.392 265.493 270.089 266.369 276.6 268.124C279.696 268.956 282.787 269.956 285.448 271.804C286.646 272.631 287.827 273.84 288.081 275.33C288.197 276.041 288.081 276.744 287.739 277.379C287.498 277.837 286.762 278.443 286.847 278.982C286.935 279.468 286.577 279.93 286.159 280.11C285.986 280.191 285.809 280.263 285.637 280.343C287.413 281.701 288.953 283.444 288.808 285.822Z" fill="white"/>
<path d="M286.906 280.919C287.706 280.465 288.41 279.827 288.928 279.035C290.021 277.336 290.094 275.139 289.262 273.327C289.073 272.914 288.59 272.709 288.16 272.761C279.739 267.274 269.791 264.193 259.741 263.904C263.009 260.554 267.817 258.722 272.48 259.156C274.212 259.313 275.912 259.759 277.649 259.855C281.371 260.044 284.627 257.521 285.383 254.665C285.941 252.561 285.142 250.287 282.175 248.781C277.42 246.383 270.176 245.644 264.935 246.539C259.327 247.491 254.496 250.468 250.203 254.083C247.887 256.035 245.54 258.104 243.791 260.586C241.962 263.189 241.452 266.057 241.183 269.158C240.777 273.757 240.451 278.377 239.949 282.968C239.47 287.33 239.868 291.957 238.779 296.243C237.991 299.372 236.206 302.397 233.433 304.024C232.866 303.341 232.155 302.807 231.367 302.433C231.278 302.244 231.113 302.076 230.844 301.971C222.286 298.565 213.515 295.673 204.604 293.347C203.201 292.572 201.497 292.323 199.901 292.588C196.838 293.106 194.398 295.287 192.36 297.492C187.882 302.345 184.779 308.29 182.363 314.391C180.775 318.396 179.111 322.489 178.665 326.811C178.392 329.502 178.93 332.149 179.682 334.728C180.385 337.142 180.952 339.93 182.6 341.898C184.196 343.798 186.564 344.722 188.867 345.449C194.518 347.232 200.259 348.903 206.083 349.992C209.472 350.623 212.896 351.016 216.345 351.085C216.614 351.097 216.828 351.016 216.984 350.888C218.094 350.924 219.203 350.823 220.292 350.619C226.776 349.389 231.21 344.284 235.004 339.219C237.05 339.5 239.104 339.753 241.163 339.946C244.925 340.295 248.864 340.195 252.337 338.54C255.766 336.921 257.929 334.073 258.99 330.47C260.224 326.289 260.895 321.89 261.787 317.621L264.798 303.204C265.952 303.441 267.097 303.698 268.251 303.947C270.14 304.357 272.05 304.735 273.983 304.928C275.716 305.092 277.573 305.064 279.156 304.261C280.632 303.51 281.789 302.023 281.938 300.356C282.087 298.645 281.009 297.247 279.663 296.32C278.055 295.227 276.113 294.516 274.333 293.761C272.347 292.925 270.325 292.162 268.279 291.471C265.514 290.547 262.704 289.772 259.858 289.138C264.633 289.134 269.409 289.543 274.104 290.399C278.815 291.262 286.81 294.484 289.519 288.471C290.813 285.571 289.547 282.369 286.906 280.919ZM195.037 345.011C193.361 344.529 191.685 344.035 190.012 343.525C188.658 343.115 187.315 342.677 186.081 341.974C182.789 340.087 181.828 335.515 181.27 332.085C180.454 327.152 181.648 322.517 183.336 317.894C185.342 312.399 187.782 306.924 191.283 302.196C193.1 299.746 195.23 297.111 197.919 295.585C199.511 294.681 201.686 294.323 203.322 295.107C203.442 295.231 203.607 295.319 203.804 295.38C204.869 295.661 205.91 295.938 206.951 296.227C213.254 297.958 219.46 299.979 225.574 302.264C223.536 302.995 221.792 304.417 220.272 305.964C220.007 306.229 219.758 306.498 219.509 306.763C219.131 307.173 218.765 307.587 218.415 308.012C214.516 312.612 211.727 318.071 209.512 323.658C207.112 329.699 204.266 336.745 206.529 343.248C207.221 345.24 208.398 347.052 209.998 348.393C204.937 347.714 199.949 346.433 195.037 345.011ZM286.826 288.631C285.214 290.29 282.553 289.961 280.503 289.543C277.834 289.005 275.197 288.358 272.508 287.933C269.582 287.471 266.635 287.173 263.681 287.029C260.332 286.872 256.988 286.936 253.656 287.185C252.582 287.266 252.293 288.583 252.868 289.122C252.924 289.604 253.25 290.077 253.853 290.174C261.482 291.359 268.995 293.608 276.009 296.85C277.199 297.4 278.935 297.995 279.578 299.248C280.254 300.561 279.072 301.943 277.89 302.441C276.463 303.036 274.775 302.839 273.284 302.654C271.483 302.425 269.706 302.04 267.937 301.646C264.155 300.814 260.332 299.939 256.437 300.204C255.05 300.3 254.966 302.473 256.365 302.377C258.495 302.228 260.59 302.437 262.676 302.787C260.975 310.901 259.319 319.027 257.587 327.128C256.831 330.659 255.714 334.041 252.466 336.006C249.415 337.857 245.721 338.094 242.252 337.837C240.286 337.693 238.325 337.468 236.371 337.215C235.595 337.106 234.816 337.002 234.04 336.893C231.889 336.584 208.664 332.764 208.511 333.399C209.025 331.242 209.773 329.125 210.493 327.169C212.498 321.674 214.938 316.199 218.439 311.471C219.263 310.354 220.152 309.209 221.137 308.149C221.386 307.884 223.681 308.141 224.127 308.125C225.345 308.073 226.563 307.968 227.773 307.812C232.448 307.197 236.46 305.807 238.972 301.501C241.496 297.175 241.733 292.287 241.85 287.414C241.966 282.687 242.581 277.923 243.004 273.179C243.261 270.283 243.209 267.122 244.209 264.37C245.214 261.598 247.433 259.457 249.56 257.521C253.479 253.962 257.804 250.625 263.001 249.183C267.857 247.841 273.095 248.054 277.818 249.849C279.534 250.5 282.77 251.332 283.116 253.697C283.49 256.272 280.423 257.586 278.28 257.626C276.616 257.646 274.98 257.22 273.328 257.015C267.174 256.252 260.694 258.939 256.875 263.828C256.859 263.848 256.843 263.876 256.827 263.896C254.23 263.964 251.634 264.213 249.069 264.647C247.686 264.884 248.173 266.997 249.548 266.764C251.943 266.362 254.355 266.137 256.779 266.073C257.02 266.182 257.273 266.166 257.535 266.057C265.14 265.957 272.769 267.515 279.735 270.608C282.44 271.809 285.025 273.259 287.489 274.902C287.501 274.91 287.525 274.918 287.545 274.926C287.795 275.906 287.642 277.011 287.075 277.878C286.766 278.352 286.295 278.778 285.797 279.051C285.644 279.136 285.487 279.212 285.322 279.28C285.306 279.288 285.254 279.304 285.238 279.316C285.15 279.341 285.069 279.369 284.977 279.393C284.591 279.497 284.378 279.529 284.044 279.533C283.759 279.537 283.502 279.634 283.301 279.811C273.139 276.657 262.579 274.854 251.943 274.48C250.544 274.432 250.464 276.605 251.867 276.653C263.247 277.051 274.514 279.1 285.302 282.727C285.503 282.791 285.676 282.795 285.837 282.771C287.975 283.884 288.586 286.816 286.826 288.631Z" fill="#223549"/>
<path d="M237.775 121.338C237.767 121.286 237.755 121.233 237.746 121.181C237.722 121.053 237.698 120.924 237.666 120.796C237.634 120.663 237.59 120.539 237.546 120.41C237.529 120.366 237.521 120.322 237.505 120.277C237.501 120.249 237.497 120.217 237.489 120.189C237.409 119.811 237.345 119.362 237.011 119.113C236.581 118.791 236.006 118.771 235.536 119.004C235.311 119.076 235.106 119.205 234.941 119.386C234.788 119.494 234.655 119.639 234.567 119.82C234.495 119.964 234.438 120.113 234.386 120.261C234.362 120.298 234.33 120.326 234.31 120.366C233.719 121.663 233.864 123.153 234.607 124.35C234.744 124.567 234.985 124.704 235.238 124.764C235.479 124.981 235.777 125.146 236.094 125.174C236.492 125.21 236.866 125.09 237.16 124.816C237.405 124.587 237.529 124.314 237.622 124.001C237.738 123.611 237.823 123.218 237.851 122.808C237.879 122.318 237.855 121.824 237.775 121.338Z" fill="#223549"/>
<path d="M262.085 114.789C261.989 113.962 261.703 112.986 261.024 112.447C260.116 111.724 258.869 112.146 258.459 113.182C258.198 113.536 258.094 113.978 258.005 114.399C257.848 115.163 257.832 115.982 257.945 116.753C258.07 117.577 258.299 118.416 258.954 118.979C259.806 119.71 261 119.42 261.514 118.46C261.796 117.93 261.916 117.271 261.957 116.657C262.109 116.042 262.158 115.416 262.085 114.789Z" fill="#223549"/>
<path d="M266.832 100.964C259.476 98.6705 250.97 99.5421 245.66 105.62C244.736 106.676 246.42 108.054 247.341 107.001C251.963 101.711 259.544 100.956 265.948 102.952C267.27 103.362 268.17 101.382 266.832 100.964Z" fill="#223549"/>
<path d="M261.55 135.427C258.258 135.427 255.042 134.443 252.261 132.551C248.603 130.061 246.131 126.297 245.303 121.951C244.479 117.605 245.395 113.198 247.883 109.543C250.375 105.888 254.142 103.417 258.491 102.59C262.84 101.762 267.25 102.678 270.908 105.169C274.566 107.659 277.038 111.423 277.866 115.769C278.694 120.115 277.773 124.522 275.285 128.177C272.793 131.832 269.027 134.302 264.677 135.13C263.636 135.331 262.587 135.427 261.55 135.427ZM261.614 105.197C260.758 105.197 259.894 105.277 259.034 105.442C255.444 106.125 252.337 108.161 250.283 111.178C248.229 114.194 247.469 117.83 248.153 121.417C248.836 125.004 250.874 128.109 253.893 130.161C256.911 132.214 260.549 132.969 264.139 132.29C267.728 131.607 270.836 129.571 272.89 126.554C274.944 123.537 275.703 119.902 275.02 116.315C274.337 112.728 272.299 109.623 269.28 107.571C266.981 106.008 264.328 105.197 261.614 105.197Z" fill="#EC663D"/>
<path d="M231.391 145.263C225.446 145.263 219.441 140.973 216.732 134.201C215.108 130.14 214.895 125.786 216.125 121.946C217.391 118.001 220.016 115.061 223.521 113.663C227.022 112.265 230.957 112.591 234.591 114.579C238.132 116.519 240.978 119.821 242.602 123.882C245.991 132.361 242.944 141.576 235.809 144.424C234.378 144.99 232.887 145.263 231.391 145.263ZM227.979 115.708C226.817 115.708 225.679 115.921 224.598 116.35C221.913 117.423 219.883 119.72 218.89 122.825C217.861 126.031 218.054 129.686 219.425 133.124C222.219 140.122 229.088 143.978 234.736 141.728C240.383 139.475 242.703 131.952 239.909 124.954C238.534 121.516 236.155 118.736 233.2 117.118C231.488 116.178 229.707 115.708 227.979 115.708Z" fill="#EC663D"/>
<path d="M236.878 113.276C234.414 111.509 231.56 110.368 228.566 109.918C227.119 109.701 225.648 109.673 224.188 109.793C222.757 109.914 221.158 110.026 220.422 111.428C220.149 111.95 220.571 112.633 221.069 112.822C221.676 113.051 222.195 112.694 222.464 112.175C222.372 112.352 222.906 112.155 223.015 112.135C223.268 112.091 223.521 112.051 223.778 112.019C224.365 111.942 224.956 111.894 225.551 111.886C226.749 111.87 227.951 111.983 229.129 112.212C231.468 112.665 233.683 113.658 235.616 115.043C236.75 115.859 238.016 114.091 236.878 113.276Z" fill="#223549"/>
<path d="M246.819 131.04C246.513 129.975 245.645 129.031 244.845 128.288C244.801 128.232 244.761 128.172 244.716 128.112C244.64 128.011 244.543 127.927 244.439 127.859C244.64 127.164 244.845 126.469 245.046 125.774C245.211 125.212 244.656 124.617 244.133 124.537C243.49 124.44 243.06 124.882 242.895 125.449L241.637 129.771C241.276 131.008 240.665 132.47 241.235 133.739C241.778 134.952 243.092 135.41 244.314 134.972C244.865 134.776 245.368 134.406 245.741 133.936C245.786 133.92 245.83 133.916 245.874 133.896C246.995 133.414 247.116 132.072 246.819 131.04Z" fill="white"/>
<path d="M247.43 133.901C245.573 134.387 243.153 133.869 242.236 132.001C241.665 130.836 241.975 129.458 242.256 128.253C242.538 127.048 242.847 125.855 242.887 124.61C243.032 119.983 240.616 115.388 236.617 113.006C235.423 112.295 234.149 114.058 235.351 114.773C237.445 116.018 239.025 117.886 239.937 120.147C240.922 122.594 240.805 124.984 240.21 127.502C239.607 130.053 239.423 132.676 241.537 134.584C243.189 136.074 245.645 136.6 247.783 136.038C249.13 135.692 248.784 133.543 247.43 133.901Z" fill="#223549"/>
<path d="M304.002 116.172C298.821 116.252 293.696 117.012 288.703 118.393C287.353 118.767 288.144 120.791 289.483 120.422C294.29 119.092 299.255 118.409 304.243 118.333C305.638 118.313 305.393 116.152 304.002 116.172Z" fill="#223549"/>
<path d="M182.625 277.331C182.139 277.78 181.652 278.234 181.166 278.684C181.065 278.773 180.949 278.829 180.832 278.857C172.652 274.764 164.344 270.932 155.927 267.365C154.636 266.815 155.521 264.83 156.811 265.381C165.546 269.08 174.16 273.065 182.625 277.331Z" fill="white"/>
<path d="M213.206 249.663C212.711 250.113 211.996 250.707 211.16 251.382C210.203 239.528 209.877 227.627 210.151 215.737C210.179 214.339 212.333 214.685 212.297 216.062C212.205 220.139 212.189 224.22 212.241 228.297C212.346 235.423 212.663 242.545 213.206 249.663Z" fill="white"/>
<path d="M565.951 139.282C563.849 141.535 560.532 142.19 557.964 140.322C557.232 139.796 556.637 139.109 556.179 138.334C555.793 138.346 555.403 138.149 555.222 137.667C554.081 134.59 555.516 130.939 558.346 129.376C561.019 127.898 564.307 128.902 566.216 131.164C568.226 133.534 568.049 137.028 565.951 139.282Z" fill="#EC663D"/>
<path d="M479.002 316.633C476.486 319.22 472.743 320.056 469.278 320.361C464.744 320.763 460.146 320.711 455.596 320.843C450.535 320.996 445.466 321.144 440.405 321.289C420.846 321.867 401.278 322.438 381.718 323.016C377.224 328.025 371.798 332.102 365.684 334.942C364.984 335.271 364.004 334.685 364.144 333.866C364.586 331.226 365.025 328.587 365.471 325.952C365.676 324.723 365.889 323.494 366.09 322.265C366.162 321.823 366.411 321.072 366.299 320.606C366.19 320.152 365.853 320.148 365.423 320.096C355.349 318.819 348.596 320.305 350.015 307.756C351.205 297.24 348.93 280.008 358.364 273.674C362.126 271.983 366.363 272.023 370.407 271.991C380.259 271.898 390.111 271.818 399.959 271.858C419.644 271.939 439.416 272.413 458.992 274.582C466.521 275.417 475.131 277.088 479.83 283.668C484.264 289.874 483.801 297.988 482.877 305.174C482.366 309.17 481.96 313.613 479.002 316.633Z" fill="white"/>
<path d="M478.483 359.701C477.2 354.259 475.938 348.812 474.692 343.357C469.776 321.803 465.166 300.177 460.865 278.49C457.408 261.021 454.144 243.512 451.093 225.962C450.353 221.733 449.63 217.499 448.91 213.261C448.677 211.875 450.84 211.654 451.073 213.02C451.776 217.202 452.496 221.375 453.227 225.548C454.618 233.554 456.053 241.547 457.532 249.537C461.536 271.155 465.841 292.717 470.459 314.223C473.526 328.483 476.718 342.718 480.058 356.926L478.483 359.701Z" fill="#223549"/>
<path d="M482.876 305.176C482.37 309.176 481.964 313.607 479.005 316.631C476.481 319.218 472.747 320.058 469.282 320.363C464.743 320.761 460.145 320.713 455.595 320.849C450.534 320.994 445.465 321.146 440.404 321.291C420.845 321.869 401.281 322.444 381.722 323.022C381.263 323.528 380.801 324.022 380.331 324.508C377.69 309.164 375.133 293.804 372.589 278.444C372.235 276.291 371.869 274.134 371.516 271.981C380.998 271.892 390.488 271.812 399.967 271.856C419.651 271.937 439.424 272.415 458.999 274.58C466.524 275.411 475.138 277.086 479.837 283.666C484.267 289.872 483.805 297.986 482.876 305.176Z" fill="#EC663D"/>
<path d="M536.639 122.517C534.83 116.873 532.322 111.483 529.199 106.446C528.757 105.731 527.639 105.923 527.322 106.638C524.914 112.041 522.912 117.604 521.296 123.292C520.348 123.649 520.496 125.16 521.481 125.361C521.831 125.525 522.289 125.513 522.651 125.3C527.016 124.863 531.377 124.425 535.743 123.991C536.47 123.915 536.848 123.171 536.639 122.517ZM528.467 109.45C530.77 113.423 532.668 117.616 534.155 121.962C530.642 122.316 527.129 122.665 523.616 123.019C524.962 118.404 526.586 113.873 528.467 109.45Z" fill="#EC663D"/>
<path d="M148.116 97.9969C145.206 96.6673 142.3 95.3377 139.39 94.0082C138.116 93.4258 137.231 95.4101 138.505 95.9925C141.416 97.322 144.322 98.6516 147.232 99.9812C148.506 100.564 149.391 98.5793 148.116 97.9969Z" fill="#EC663D"/>
<path d="M146.785 92.1002C146.319 91.7186 145.644 91.807 145.254 92.2488C143.043 94.7674 141.475 97.7478 140.559 100.965C140.398 101.532 140.945 102.122 141.471 102.202C142.11 102.299 142.549 101.857 142.709 101.291C143.505 98.4829 144.989 95.8439 146.934 93.6266C147.324 93.1888 147.231 92.4657 146.785 92.1002Z" fill="#EC663D"/>
<path d="M133.831 75.3032C133.34 73.5278 131.632 72.2303 129.795 72.2745C127.893 72.3187 126.27 73.9897 126.101 75.8334C125.309 77.1349 125.586 78.9264 126.808 79.9547C128.275 81.1958 130.458 81.1075 132.002 80.0711C133.569 79.0268 134.333 77.1268 133.831 75.3032ZM131.784 76.8979C131.784 76.9059 131.752 77.0063 131.744 77.0465C131.728 77.0867 131.716 77.1228 131.716 77.1268C131.668 77.2513 131.6 77.3638 131.547 77.4843C131.503 77.5486 131.471 77.5968 131.439 77.645C131.338 77.7775 131.226 77.89 131.121 78.0145C131.053 78.0748 131.009 78.1109 130.96 78.1511C130.844 78.2435 130.719 78.3238 130.591 78.4042C130.502 78.4524 130.43 78.4845 130.358 78.5166C130.237 78.5648 130.112 78.605 129.992 78.6452C129.96 78.6532 129.923 78.6612 129.903 78.6653C129.831 78.6773 129.755 78.6894 129.682 78.6974C129.622 78.7054 129.558 78.7054 129.497 78.7094C129.304 78.6974 129.164 78.6894 129.023 78.6612C129.023 78.6612 128.963 78.6492 128.91 78.6371C128.87 78.6211 128.693 78.5648 128.669 78.5568C128.613 78.5327 128.553 78.5086 128.496 78.4805C128.444 78.4564 128.38 78.4122 128.364 78.4042C128.32 78.372 128.279 78.3439 128.235 78.3078C128.191 78.2716 127.97 78.0386 128.127 78.2234C128.086 78.1752 128.046 78.127 128.01 78.0788C127.986 78.0467 127.91 77.9021 127.922 77.9382C127.906 77.9061 127.889 77.8739 127.877 77.8378C127.869 77.8137 127.837 77.6892 127.825 77.6611C127.821 77.6209 127.813 77.5807 127.813 77.5767C127.805 77.5205 127.805 77.4602 127.805 77.404C127.809 77.3759 127.809 77.3357 127.813 77.3156C127.817 77.3076 127.821 77.2754 127.825 77.2433C128.034 77.0907 128.183 76.8738 128.239 76.6207C128.496 76.2994 128.589 75.8535 128.416 75.4759C128.448 75.4076 128.512 75.3032 128.525 75.2831C128.557 75.2389 128.585 75.1947 128.621 75.1546C128.657 75.1064 128.697 75.0622 128.738 75.018C128.738 75.018 128.806 74.9537 128.842 74.9176C128.882 74.8855 128.935 74.8413 128.935 74.8413C128.983 74.8051 129.031 74.769 129.083 74.7328C129.144 74.6926 129.208 74.6525 129.272 74.6163C129.369 74.5802 129.425 74.5521 129.481 74.532C129.517 74.5199 129.582 74.4998 129.614 74.4878C129.743 74.4637 129.871 74.4476 130.004 74.4356C130.108 74.4516 130.189 74.4557 130.261 74.4677C130.317 74.4798 130.378 74.4918 130.434 74.5039C130.39 74.4958 130.374 74.4918 130.358 74.4878C130.386 74.4958 130.426 74.5039 130.45 74.5119C130.591 74.5641 130.719 74.6324 130.852 74.7007C130.932 74.7609 131.005 74.8132 131.073 74.8694C131.113 74.9055 131.214 75.0019 131.242 75.022C131.326 75.1184 131.407 75.2148 131.479 75.3193C131.511 75.3675 131.543 75.4197 131.575 75.4679C131.608 75.5201 131.616 75.5402 131.632 75.5763C131.688 75.6968 131.728 75.8254 131.776 75.9499C131.805 76.0543 131.821 76.1266 131.829 76.1989C131.837 76.2592 131.845 76.3154 131.849 76.3757C131.849 76.3757 131.849 76.456 131.853 76.5082C131.849 76.5605 131.845 76.6287 131.845 76.6287C131.817 76.7211 131.801 76.8095 131.784 76.8979Z" fill="white"/>
<path d="M130.34 74.4918C130.305 74.484 130.297 74.48 130.34 74.4918V74.4918Z" fill="#223549"/>
<path d="M466.718 121.94C464.089 130.665 458.316 138.272 451.061 143.707C443.765 149.162 434.797 152.576 425.661 152.885C416.106 153.203 405.49 150.258 399.577 142.277C399.38 142.016 399.332 141.751 399.376 141.506C392.567 136.188 387.755 128.516 385.404 120.253C383.004 111.866 382.992 102.832 385.705 94.5175C388.435 86.1384 394.135 79.0167 401.45 74.1523C408.714 69.3161 417.441 66.6048 426.171 66.5405C435.027 66.4682 443.669 69.1394 450.764 74.4857C457.818 79.7959 463.1 87.3957 465.966 95.7225C468.864 104.154 469.306 113.376 466.718 121.94Z" fill="white"/>
<path d="M497.255 124.294C497.103 127.785 495.865 131.01 492.585 132.613C489.903 133.918 486.684 133.786 483.781 133.685C480.956 133.577 478.082 133.344 475.284 133.786C476.892 139.827 477.973 145.993 478.459 152.231C478.524 152.99 477.7 153.753 476.936 153.34C475.935 152.797 474.986 152.159 474.11 151.428C470.529 148.443 468.181 144.254 464.584 141.293C462.562 139.618 460.271 138.735 457.654 138.445C454.386 138.076 451.033 138.176 447.749 138.104C434.074 137.791 420.396 137.489 406.721 137.184L365.873 136.272L355.571 136.039C352.431 135.975 349.24 136.047 346.116 135.678C343.419 135.36 340.738 134.553 338.592 132.83C336.722 131.332 335.388 129.271 334.487 127.078C332.437 122.057 332.341 116.333 332.253 110.986C332.232 109.42 332.232 107.849 332.269 106.279C332.104 104.744 331.943 103.206 331.782 101.672C331.356 97.6307 330.355 92.9712 332.458 89.2155C335.914 83.0296 344.183 82.3026 350.474 81.6599C369.463 79.7318 388.552 78.812 407.633 78.9003C426.694 78.9807 445.756 80.0532 464.7 82.1298C469.411 82.644 474.118 83.2224 478.817 83.8691C482.768 84.4034 487.287 84.5921 490.663 86.942C493.758 89.095 494.976 92.8667 495.607 96.4096C496.419 100.936 496.789 105.588 497.066 110.183C497.344 114.867 497.472 119.599 497.255 124.294Z" fill="#223549"/>
<path d="M476.249 117.104L457.963 95.8997C457.505 95.3695 456.725 95.2731 456.239 95.8435C450.065 103.114 443.485 110.035 436.531 116.562C429.368 109.047 422.201 101.531 415.038 94.0158C414.619 93.578 413.856 93.7708 413.506 94.1645C406.801 101.732 400.096 109.3 393.392 116.871C386.309 110.304 380.002 102.953 374.588 94.9558C374.077 94.2046 373.109 94.4858 372.711 95.1486C367.417 103.937 362.123 112.726 356.829 121.511C356.109 122.708 358.103 123.579 358.815 122.394C363.799 114.12 368.779 105.849 373.764 97.5747C379.267 105.484 385.646 112.77 392.769 119.265C393.215 119.671 393.926 119.539 394.3 119.117C400.993 111.561 407.686 104.01 414.378 96.454C421.521 103.945 428.66 111.437 435.803 118.928C436.097 119.237 436.812 119.269 437.13 118.972C444.16 112.421 450.825 105.488 457.083 98.1933L473.061 116.719C472.466 116.735 471.867 116.755 471.273 116.771C469.874 116.811 470.119 118.972 471.51 118.932C472.836 118.892 474.163 118.856 475.489 118.816C476.269 118.795 476.763 117.703 476.249 117.104Z" fill="white"/>
<path d="M533.183 333.039C534.469 332.774 535.675 332.268 535.812 330.789C535.94 329.387 535.554 327.809 535.406 326.419C534.77 320.47 534.135 314.521 533.5 308.568C533.882 307.504 532.917 306.11 531.772 306.869C531.756 306.881 531.736 306.893 531.72 306.906C531.201 306.926 530.658 307.223 530.506 307.721C522.145 313.272 513.949 319.064 505.954 325.13C505.121 325.76 505.503 327.054 506.38 327.395C511.903 329.548 517.422 331.705 522.945 333.858C523.113 334.453 523.636 334.939 524.42 334.782C524.749 334.718 525.083 334.649 525.413 334.585C525.445 334.577 525.481 334.577 525.513 334.565C528.066 334.055 530.626 333.561 533.183 333.039ZM509.547 325.764C516.099 320.844 522.78 316.096 529.577 311.525C527.957 318.213 526.06 324.828 523.881 331.356C519.106 329.492 514.326 327.628 509.547 325.764Z" fill="white"/>
<path d="M475.573 114.376C475.179 114.283 474.793 114.263 474.412 114.271C474.227 114.167 474.01 114.118 473.792 114.159C471.586 114.568 469.709 116.416 469.471 118.694C469.25 120.826 470.573 122.959 472.55 123.779C473.981 124.534 475.79 124.667 477.181 123.819C477.852 123.413 478.311 122.771 478.588 122.052C479.247 121.088 479.597 119.903 479.524 118.73C479.388 116.529 477.647 114.862 475.573 114.376Z" fill="#EC663D"/>
<path d="M457.36 93.1414C457.344 93.1414 457.328 93.1454 457.312 93.1454C456.777 93.0169 456.223 92.9767 455.692 93.0571C453.875 93.3423 452.541 94.8285 452.239 96.6159C452.094 97.4916 452.239 98.3311 452.593 99.0702C452.935 100.601 454.149 101.753 455.656 102.195C457.32 102.681 459.153 102.252 460.335 100.958C461.504 99.6767 461.786 97.7326 461.259 96.1138C460.717 94.4509 459.125 93.1896 457.36 93.1414Z" fill="#EC663D"/>
<path d="M414.579 90.695C412.839 90.8637 411.247 91.884 410.359 93.3822C409.402 94.989 409.631 97.2022 410.853 98.6161C410.946 98.7246 411.046 98.829 411.151 98.9294C412.168 100.138 413.844 100.741 415.395 100.649C417.16 100.544 418.712 99.3914 419.359 97.7565C420.002 96.1418 419.861 94.2941 418.973 92.8038C418.073 91.2855 416.308 90.5263 414.579 90.695Z" fill="#EC663D"/>
<path d="M439.3 114.13C437.837 113.17 435.883 113.094 434.32 113.877C432.857 114.612 431.614 115.998 431.538 117.701C431.506 118.436 431.675 119.139 431.984 119.769C432.125 120.091 432.306 120.392 432.515 120.669C432.563 120.737 432.599 120.782 432.635 120.826C432.712 120.93 432.788 121.039 432.877 121.135C433.97 122.336 435.807 122.979 437.342 122.228C437.391 122.204 437.431 122.167 437.475 122.143C439.28 121.621 440.844 120.179 441.165 118.263C441.426 116.689 440.623 114.993 439.3 114.13Z" fill="#EC663D"/>
<path d="M397.708 116.348C397.302 115.705 396.744 115.255 396.093 114.978C395.486 114.564 394.79 114.287 394.039 114.251C392.648 114.183 391.329 114.813 390.409 115.822C389.315 116.633 388.467 117.802 388.314 119.128C388.057 121.385 389.79 123.229 391.86 123.791C392.507 123.968 393.202 124.008 393.886 123.932C394.175 123.988 394.473 124.024 394.778 124.024C395.98 124.024 397.089 123.365 397.789 122.409C398.89 120.911 399.043 118.778 398.203 117.123C398.066 116.842 397.893 116.589 397.708 116.348ZM395.168 117.457C395.148 117.356 395.132 117.256 395.108 117.159C395.076 117.035 395.007 116.926 394.919 116.83C394.947 116.838 394.971 116.846 394.987 116.85C395.104 116.942 395.212 117.035 395.321 117.139C395.385 117.216 395.425 117.264 395.465 117.312C395.562 117.432 395.65 117.561 395.731 117.694C395.751 117.73 395.775 117.766 395.795 117.802C395.807 117.822 395.819 117.846 395.823 117.858C395.884 118.003 395.948 118.143 396 118.292C395.779 117.955 395.494 117.673 395.168 117.457Z" fill="#EC663D"/>
<path d="M376.77 93.0523C376.481 92.8193 376.147 92.6386 375.793 92.502C374.752 91.4616 373.205 90.9073 371.742 91.2648C371.513 91.3211 371.291 91.4014 371.078 91.4938C370.355 91.6183 369.684 91.9557 369.157 92.5984C368.55 93.3375 368.333 94.2935 368.353 95.2414C368.281 95.8761 368.337 96.5268 368.554 97.1534C368.872 98.0693 369.491 98.8284 370.266 99.3747C370.351 99.447 370.427 99.5274 370.516 99.5916C371.521 100.303 372.747 100.62 373.965 100.347C374.326 100.266 374.664 100.134 374.994 99.9772C375.601 99.8366 376.179 99.5675 376.654 99.1618C377.514 98.4227 378.028 97.3342 378.069 96.1974C378.113 95.0125 377.719 93.8075 376.77 93.0523Z" fill="#EC663D"/>
<path d="M359.349 118.578C357.395 117.461 354.803 118.087 353.307 119.666C351.796 121.261 351.736 123.868 352.938 125.651C353.545 126.547 354.501 127.181 355.566 127.37C356.073 127.459 356.587 127.443 357.086 127.346C359.015 127.374 360.985 126.225 361.58 124.334C362.267 122.152 361.347 119.714 359.349 118.578Z" fill="#EC663D"/>
</g>
<defs>
<clipPath id="clip0">
<rect width="634" height="398" fill="white"/>
</clipPath>
</defs>
</svg>
