<svg width="77" height="63" viewBox="0 0 77 63" fill="none" xmlns="http://www.w3.org/2000/svg">
<path d="M21.6728 44.025C9.72223 44.025 0 34.2984 0 22.3426C0 10.3867 9.7231 0.660156 21.6728 0.660156C33.6286 0.660156 43.3552 10.3859 43.3552 22.3426C43.3552 25.494 42.6895 28.5364 41.3755 31.3834C40.633 33.0132 39.682 34.5488 38.5512 35.943C34.427 41.0768 28.2732 44.025 21.6728 44.025ZM21.6728 4.21994C11.6853 4.21994 3.55978 12.3499 3.55978 22.3426C3.55978 32.3353 11.6853 40.4643 21.6728 40.4643C27.1879 40.4643 32.3303 38.0012 35.7811 33.7068C36.7269 32.5412 37.5191 31.2621 38.1394 29.901C39.2388 27.5165 39.7946 24.9758 39.7946 22.3434C39.7954 12.3507 31.6655 4.21994 21.6728 4.21994ZM21.6728 37.2518C13.4521 37.2518 6.76446 30.5641 6.76446 22.3426C6.76446 14.1219 13.4521 7.43422 21.6728 7.43422C29.8935 7.43422 36.5811 14.1219 36.5811 22.3426C36.582 30.5641 29.8935 37.2518 21.6728 37.2518ZM21.6728 10.994C15.4153 10.994 10.3251 16.085 10.3251 22.3426C10.3251 28.6001 15.4153 33.6911 21.6728 33.6911C27.9303 33.6911 33.0214 28.6001 33.0214 22.3426C33.0214 16.085 27.9303 10.994 21.6728 10.994Z" fill="#F7C154"/>
<path d="M44.1514 41.3055C43.8093 41.3055 43.4638 41.2078 43.1593 41.0019L36.1724 36.3026C35.758 36.0243 35.4796 35.5837 35.4055 35.0899C35.3313 34.5952 35.4683 34.0926 35.7833 33.7043C36.7247 32.5439 37.516 31.2648 38.1364 29.9046C38.3536 29.4282 38.7681 29.0714 39.2715 28.93C39.774 28.7887 40.315 28.8742 40.7486 29.1639L47.8961 33.9617C48.2887 34.2252 48.5601 34.6344 48.6508 35.0977C48.7416 35.5619 48.6438 36.0426 48.3804 36.4344L45.6302 40.5203C45.2865 41.0298 44.7237 41.3055 44.1514 41.3055ZM39.7008 34.3858L43.6697 37.0556L44.4306 35.9257L40.4188 33.2332C40.1929 33.6249 39.9529 34.0097 39.7008 34.3858Z" fill="#F7C154"/>
<path d="M66.6679 62.0484C66.3171 62.0484 65.9708 61.9445 65.6758 61.7465L40.5549 44.8872C39.7383 44.3384 39.521 43.233 40.069 42.4172L48.0244 30.5626C48.5723 29.7451 49.6786 29.5278 50.4944 30.0758L75.6153 46.9333C76.432 47.4821 76.6501 48.5875 76.1022 49.4042L68.1459 61.2588C67.8833 61.6505 67.4749 61.9236 67.0116 62.0135C66.8982 62.0362 66.783 62.0484 66.6679 62.0484ZM44.0179 42.9224L66.1819 57.7976L72.1533 48.899L49.9892 34.0247L44.0179 42.9224Z" fill="#F7C154"/>
<path d="M66.0703 42.6749L63.1143 40.6914L55.1583 52.5482L58.1144 54.5317L66.0703 42.6749Z" fill="#F7C154"/>
<path d="M71.0365 46.0023L68.0801 44.0195L60.1265 55.8785L63.0829 57.8613L71.0365 46.0023Z" fill="#F7C154"/>
</svg>
