<svg width="142" height="132" viewBox="0 0 142 132" fill="none" xmlns="http://www.w3.org/2000/svg">
<path d="M104.478 47.1016C123.198 50.961 137 64.2677 137 80.0842C136.858 84.887 135.591 89.591 133.302 93.8239C131.012 98.0568 127.761 101.702 123.806 104.472L122.745 123.343L106.147 112.688C101.934 113.695 97.6151 114.201 93.2815 114.198C72.2719 114.198 54.7262 102.637 50.5171 87.2289" stroke="#4BAD89" stroke-width="9.10345"/>
<path d="M108.552 100.587L94.3247 69.8633L80.1035 100.587" stroke="#F7C154" stroke-width="7.96552"/>
<path d="M83.5171 92.6211H107.414" stroke="#F7C154" stroke-width="7.96552"/>
<path d="M49.9485 56.2056C58.4327 56.2056 65.3106 48.3088 65.3106 38.5676C65.3106 28.8265 58.4327 20.9297 49.9485 20.9297C41.4643 20.9297 34.5864 28.8265 34.5864 38.5676C34.5864 48.3088 41.4643 56.2056 49.9485 56.2056Z" stroke="#E37FC1" stroke-width="7.96552"/>
<path d="M52.793 44.8281C57.1317 48.2525 58.1258 60.7426 61.8964 63.035" stroke="#E37FC1" stroke-width="7.96552"/>
<path d="M49.3793 5C24.8854 5 5 20.498 5 39.6122C5.14424 44.4869 6.42866 49.2614 8.75161 53.5579C11.0746 57.8544 14.3723 61.555 18.3839 64.367L19.5149 83.5172L36.3522 72.7047C40.6266 73.7241 45.0076 74.2363 49.4035 74.2304C73.8974 74.2304 93.7586 58.7324 93.7586 39.6182C93.7586 20.504 73.8732 5 49.3793 5Z" stroke="#EC663D" stroke-width="9.10345"/>
</svg>
