<svg width="47" height="37" viewBox="0 0 47 37" fill="none" xmlns="http://www.w3.org/2000/svg">
<g clip-path="url(#clip0)">
<path d="M40.6005 34.6743C40.4533 34.8169 40.2765 34.8879 40.0712 34.8879C39.8582 34.8879 39.6795 34.815 39.5336 34.6691C39.3884 34.5232 39.3154 34.3444 39.3154 34.1314C39.3154 33.9107 39.3942 33.7268 39.5517 33.5802C39.6995 33.4434 39.8724 33.375 40.0712 33.375C40.2797 33.375 40.4578 33.4492 40.6057 33.597C40.7535 33.7448 40.827 33.9236 40.827 34.1321C40.827 34.3464 40.7515 34.5271 40.6005 34.6743ZM39.6272 33.6926C39.5071 33.8158 39.4465 33.9617 39.4465 34.1308C39.4465 34.3064 39.5078 34.4555 39.6298 34.5774C39.7511 34.7001 39.8983 34.7614 40.0706 34.7614C40.2423 34.7614 40.3888 34.7001 40.5108 34.5768C40.6321 34.4529 40.6928 34.3044 40.6928 34.1308C40.6928 33.9623 40.6321 33.8165 40.5114 33.6926C40.3888 33.5667 40.2423 33.5034 40.0706 33.5034C39.8976 33.5034 39.7492 33.5667 39.6272 33.6926ZM39.7395 34.551V33.7132C39.7918 33.7132 39.8692 33.7132 39.9725 33.7139C40.0758 33.7139 40.1338 33.7145 40.1455 33.7151C40.2119 33.7197 40.2668 33.7345 40.3107 33.7577C40.3849 33.799 40.4223 33.8655 40.4223 33.9578C40.4223 34.0282 40.403 34.0792 40.363 34.1108C40.3236 34.1424 40.2752 34.1611 40.2177 34.1676C40.2707 34.1786 40.31 34.1947 40.3372 34.216C40.3862 34.256 40.4114 34.3186 40.4114 34.4038V34.478C40.4114 34.4864 40.412 34.4942 40.4133 34.5026C40.4146 34.511 40.4165 34.5187 40.4191 34.5271L40.4269 34.5503H40.2171C40.2106 34.5239 40.2055 34.4851 40.2029 34.4348C40.2003 34.3845 40.1958 34.3509 40.1893 34.3328C40.1784 34.3038 40.1577 34.2831 40.128 34.2715C40.1119 34.2644 40.0867 34.2599 40.0538 34.258L40.006 34.2547H39.9602V34.5503H39.7395V34.551ZM40.1384 33.8784C40.1087 33.8668 40.0661 33.861 40.0119 33.861H39.9589V34.1043H40.0441C40.0951 34.1043 40.1351 34.094 40.1635 34.074C40.1919 34.0533 40.2068 34.0198 40.2068 33.974C40.2061 33.9275 40.1842 33.8959 40.1384 33.8784Z" fill="#223549"/>
<path d="M36.1807 33.3867H37.0514L37.8562 35.1836H37.8639V33.3867H38.6682V36.7456H37.8407L36.9933 34.9112H36.9855V36.7456H36.1807V33.3867Z" fill="#223549"/>
<path d="M34.4641 33.3086C35.3031 33.3086 35.864 34.0425 35.864 35.0687C35.864 36.0943 35.3031 36.8281 34.4641 36.8281C33.6244 36.8281 33.0635 36.0943 33.0635 35.0687C33.0628 34.0425 33.6237 33.3086 34.4641 33.3086ZM34.4641 35.9904C34.6803 35.9904 35.0133 35.8161 35.0133 35.0687C35.0133 34.3206 34.6803 34.1464 34.4641 34.1464C34.2472 34.1464 33.9148 34.3206 33.9148 35.0687C33.9142 35.8161 34.2466 35.9904 34.4641 35.9904Z" fill="#223549"/>
<path d="M31.9209 33.3867H32.7722V36.7456H31.9209V33.3867Z" fill="#223549"/>
<path d="M30.0079 35.6186C30.0079 35.7031 30.0195 35.778 30.0389 35.8393C30.1008 36.042 30.2867 36.084 30.4455 36.084C30.5849 36.084 30.7979 36.0272 30.7979 35.778C30.7979 35.6038 30.6779 35.5573 30.2022 35.3927C29.7652 35.2417 29.2663 35.0964 29.2663 34.4187C29.2663 33.6429 29.8117 33.3086 30.381 33.3086C30.9806 33.3086 31.5105 33.5861 31.5337 34.4045H30.7289C30.7443 34.278 30.6979 34.1928 30.6282 34.1367C30.5591 34.0754 30.4616 34.0521 30.3764 34.0521C30.2603 34.0521 30.0705 34.0902 30.0705 34.278C30.086 34.5181 30.4804 34.5698 30.8715 34.7014C31.2626 34.8331 31.6492 35.0545 31.6492 35.6709C31.6492 36.5454 30.9877 36.8281 30.3726 36.8281C30.0595 36.8281 29.1656 36.6913 29.1572 35.6192H30.0079V35.6186Z" fill="#223549"/>
<path d="M27.9736 33.3867H28.825V36.7456H27.9736V33.3867Z" fill="#223549"/>
<path d="M26.7893 36.7456H25.8372L25.0137 33.3867H25.8727L26.3252 35.4237H26.3329L26.7776 33.3867H27.6522L26.7893 36.7456Z" fill="#223549"/>
<path d="M22.46 33.3867H24.7467V34.2471H23.3113V34.666H24.6151V35.4657H23.3113V35.8845H24.7893V36.7456H22.46V33.3867Z" fill="#223549"/>
<path d="M20.1768 33.3867H21.0274V35.8845H22.2505V36.7456H20.1768V33.3867Z" fill="#223549"/>
<path d="M17.585 33.3867H19.8717V34.2471H18.4363V34.666H19.7407V35.4657H18.4363V35.8845H19.915V36.7456H17.5856V33.3867H17.585Z" fill="#223549"/>
<path d="M15.7133 34.251H14.9395V33.3906H17.3379V34.251H16.564V36.7488H15.7127V34.251H15.7133Z" fill="#223549"/>
<path d="M12.6658 34.6401C12.6503 34.5175 12.5729 34.1464 12.2211 34.1464C11.8222 34.1464 11.6951 34.6169 11.6951 35.0687C11.6951 35.5198 11.8222 35.9904 12.2211 35.9904C12.507 35.9904 12.6193 35.7457 12.6697 35.4308H13.5055C13.5055 36.1085 13.0531 36.8281 12.2443 36.8281C11.3504 36.8281 10.8438 36.0614 10.8438 35.0687C10.8438 34.0102 11.3937 33.3086 12.2443 33.3086C13.0027 33.3138 13.4203 33.7978 13.4939 34.6401H12.6658Z" fill="#223549"/>
<path d="M9.66699 33.3867H10.5183V36.7456H9.66699V33.3867Z" fill="#223549"/>
<path d="M7.75076 35.6186C7.75076 35.7031 7.76237 35.778 7.78174 35.8393C7.8437 36.042 8.02894 36.084 8.18836 36.084C8.32713 36.084 8.54077 36.0272 8.54077 35.778C8.54077 35.6038 8.42072 35.5573 7.94503 35.3927C7.50743 35.2417 7.00851 35.0964 7.00851 34.4187C7.00851 33.6429 7.5539 33.3086 8.12253 33.3086C8.72278 33.3086 9.25268 33.5861 9.27591 34.4045H8.47106C8.4872 34.278 8.44008 34.1928 8.37102 34.1367C8.30131 34.0754 8.2045 34.0521 8.1193 34.0521C8.00312 34.0521 7.81401 34.0902 7.81401 34.278C7.82885 34.5181 8.22386 34.5698 8.61499 34.7014C9.00548 34.8331 9.39274 35.0545 9.39274 35.6709C9.39274 36.5454 8.73117 36.8281 8.11607 36.8281C7.80239 36.8281 6.90911 36.6913 6.90137 35.6192H7.75076V35.6186Z" fill="#223549"/>
<path d="M6.6552 35.4508C6.6552 36.3822 6.24147 36.8295 5.39789 36.8295C4.55431 36.8295 4.13672 36.3822 4.13672 35.4508V33.3906H4.98804V35.2204C4.98804 35.5638 4.98804 35.9917 5.40177 35.9917C5.80452 35.9917 5.80452 35.5632 5.80452 35.2204V33.3906H6.65584V35.4508H6.6552Z" fill="#223549"/>
<path d="M0.616211 33.3867H1.82704L2.22205 35.3624H2.22979L2.62415 33.3867H3.83498V36.7455H3.03077V34.5911H3.02303L2.54347 36.7455H1.90901L1.42881 34.5911H1.42107V36.7455H0.616211V33.3867Z" fill="#223549"/>
<path d="M0.613281 32.5029H15.8881L18.3078 30.7125V22.5368L19.2869 23.4649L22.8555 22.651L23.7727 21.8991V32.5029H38.9855L41.6389 30.626V2.38702L38.9855 0.773438H24.1077L20.947 3.92896L20.1789 3.07182L15.1936 0.773438H0.613281" fill="#223549"/>
<path d="M38.245 31.9295H24.343V18.3896L19.2854 22.6979L15.1695 18.4535V31.9302H1.18359V1.34375H14.9339L19.3403 6.2755L24.2998 1.34375H38.2424L38.245 31.9295Z" fill="#F7C154"/>
<path d="M15.6934 19.8594V31.9296L17.7342 30.4193V21.919L15.6934 19.8594Z" fill="#00B6F1"/>
<path d="M20.0791 22.6829L22.7364 22.0781L23.8103 21.1958V19.6016L20.0791 22.6829Z" fill="#00B6F1"/>
<path d="M19.7447 3.44525L15.9883 1.71484L19.3839 5.51773L20.5592 4.35789L19.7447 3.44525Z" fill="#00B6F1"/>
<path d="M38.815 31.9295L41.0644 30.3702V2.69851L38.8086 1.34375L38.815 31.9295Z" fill="#00B6F1"/>
<path d="M32.0725 6.81828H32.0712C31.7537 6.90929 31.3877 7.17585 31.2451 7.28622C31.2464 7.28558 31.1818 7.3314 31.1818 7.3314C30.8733 7.54956 30.6984 7.68445 30.5996 7.81483L30.5377 7.90197C30.408 8.08979 30.3182 8.20532 30.2698 8.24985C30.2324 8.27438 30.1285 8.32279 30.0581 8.35571C29.9542 8.40411 29.8438 8.46027 29.7374 8.52223C29.7341 8.52287 29.7244 8.52481 29.7244 8.52481C29.5353 8.56353 29.3817 8.5971 29.2662 8.64163C29.1971 8.66809 29.0977 8.7165 28.928 8.80041C28.928 8.80041 28.6898 8.91465 28.6814 8.91917C28.6627 8.92433 28.573 8.95144 28.573 8.95144L28.2393 9.056C28.1651 9.08311 28.0863 9.12829 27.976 9.19283C27.976 9.19283 27.9676 9.19799 27.9631 9.19993C27.8946 9.21155 27.8049 9.21607 27.7514 9.21155C27.7404 9.20703 27.7281 9.20122 27.7281 9.20122C27.4712 9.08698 26.9375 8.84946 26.4172 8.93659C26.1804 8.97661 25.9571 9.06826 25.786 9.18831C25.6292 9.24511 25.3962 9.36129 25.2484 9.57364C25.1819 9.6214 25.0793 9.70466 24.9973 9.8544C24.8443 10.1358 24.7475 10.5153 24.7359 10.6489C24.7314 10.6967 24.7294 10.7432 24.7294 10.7883C24.7294 10.9697 24.7617 11.1253 24.7888 11.255L24.8075 11.3486C24.8198 11.4157 24.823 11.4609 24.823 11.4906C24.823 11.5074 24.8217 11.5177 24.8211 11.5248C24.8101 11.5345 24.7824 11.5551 24.721 11.5867C24.7191 11.5874 24.4835 11.7384 24.4835 11.7384C24.4835 11.7384 24.3725 11.812 24.3525 11.8256C24.3183 11.8385 24.2079 11.8798 24.2079 11.8798C23.9924 11.9592 23.8813 12.0018 23.7987 12.0482C23.6516 12.1321 23.5109 12.1986 23.3869 12.258C23.1978 12.3477 23.0726 12.4077 22.97 12.5052C22.7512 12.7143 22.3891 12.9363 22.2684 13.0041L22.2561 13.0106L22.2439 13.0183C22.0786 13.1216 21.7682 13.2971 21.4565 13.4714C21.2731 13.5734 21.0718 13.7335 20.8807 13.8877C20.8807 13.8877 20.8394 13.9206 20.8213 13.9355C20.8 13.9471 20.6903 14.0045 20.6903 14.0045C20.5348 14.0852 20.4354 14.1375 20.3657 14.184L20.2392 14.2737C20.1766 14.3189 20.0294 14.4247 19.9881 14.4492C19.8777 14.5112 19.6867 14.5648 19.484 14.6222C19.0425 14.7474 18.5475 14.8881 18.186 15.2902C17.8104 15.7078 17.6064 16.259 17.6064 16.7928C17.6064 17.0258 17.6452 17.2556 17.7259 17.4699C17.9692 18.1172 18.5081 18.5355 18.896 18.6975C19.3698 18.8943 20.1714 18.8898 20.6413 18.54C20.9272 18.3257 21.0595 18.0391 21.1563 17.83C21.228 17.6738 21.2912 17.6041 21.3151 17.5809C21.4442 17.4557 21.5681 17.2782 21.7172 17.0594C21.7172 17.0594 21.7921 16.9516 21.8076 16.9296C21.9134 16.8302 22.0528 16.736 22.2348 16.6444C22.7099 16.4043 23.0268 16.1145 23.1978 15.9589L23.2533 15.9086C23.2546 15.9073 23.3656 15.8021 23.3656 15.8021C23.3973 15.7704 23.4412 15.7278 23.4586 15.7169C23.9265 15.4613 24.1853 15.2664 24.3402 15.1495L24.3622 15.1327C24.419 15.0921 24.6397 14.9804 24.7585 14.9204L24.9682 14.8126C25.0844 14.7507 25.1935 14.6745 25.2923 14.6028C25.3394 14.8113 25.3981 15.1592 25.4465 15.7265C25.4478 15.7485 25.451 15.8673 25.4575 16.3584L25.4581 16.4094C25.4594 16.5056 25.4736 16.6605 25.493 16.869C25.493 16.869 25.5085 17.0452 25.5098 17.0555C25.5059 17.1323 25.5027 17.2098 25.5027 17.2904C25.5027 17.5086 25.5162 17.7371 25.5317 17.9585C25.5298 18.0043 25.5291 18.0495 25.5291 18.0946C25.5291 18.2741 25.5427 18.4458 25.5698 18.6065C25.5769 18.6504 25.5801 18.7362 25.5801 18.833C25.5801 18.9673 25.5737 19.1222 25.564 19.2119C25.5549 19.2893 25.5517 19.3636 25.5517 19.4339C25.5517 19.5004 25.5543 19.5636 25.5569 19.623L25.5608 19.7321C25.5608 19.7495 25.5614 19.767 25.5614 19.7844C25.5614 19.9993 25.5382 20.2129 25.524 20.3453L25.5091 20.515L25.5078 20.5731C25.5014 20.8965 25.4936 21.0314 25.4872 21.0875C25.484 21.1024 25.4756 21.1398 25.4756 21.1398C25.4414 21.2863 25.4168 21.3967 25.4091 21.4825C25.4059 21.5154 25.4046 21.5509 25.4046 21.589C25.4046 21.7194 25.4207 21.884 25.4439 22.0996C25.4523 22.1815 25.4652 22.2971 25.4678 22.3493C25.453 22.4591 25.4168 22.5849 25.3729 22.7308C25.2935 22.9935 25.1916 23.3323 25.1916 23.7331C25.1916 23.8267 25.1974 23.9235 25.2096 24.0236C25.249 24.3334 25.311 24.6083 25.3988 24.8639C25.4123 24.913 25.4865 25.2144 25.513 25.3499L25.5188 25.379L25.5272 25.4074C25.5582 25.51 25.6453 25.8153 25.6731 25.9876C25.6789 26.0257 25.6815 26.0806 25.6815 26.138C25.6815 26.2129 25.6782 26.2916 25.6756 26.34L25.6724 26.4627C25.6744 26.5872 25.7034 26.7544 25.7654 27.0597C25.7654 27.0597 25.7744 27.1062 25.7808 27.1397C25.7796 27.1649 25.7783 27.1952 25.7783 27.1952C25.7731 27.2888 25.7692 27.3702 25.7692 27.4437C25.7692 27.5121 25.7725 27.5735 25.7815 27.6303C25.8183 27.8594 25.9293 28.5532 26.4424 28.8637C26.7638 29.0586 27.0588 29.1051 27.2544 29.1361C27.3002 29.1432 27.3576 29.1522 27.3783 29.1586C28.0024 29.3471 28.6795 29.2355 29.07 29.0831C29.2952 28.9947 29.5005 28.8308 29.6199 28.6442C29.6186 28.6462 29.6012 28.6694 29.6012 28.6694L29.6476 28.6249C29.718 28.5597 29.8148 28.47 29.9 28.3389C30.0052 28.1769 30.0788 27.9336 30.1892 27.5502C30.2292 27.4108 30.2711 27.2669 30.3002 27.1881C30.3544 27.0397 30.3744 26.8699 30.3744 26.7008C30.3744 26.2484 30.2318 25.8005 30.2234 25.7753C30.1866 25.6636 29.9426 25.0931 29.8761 24.944C29.8529 24.8549 29.8206 24.5767 29.8071 24.4554L29.7761 24.2153L29.7006 23.9016C29.7006 23.9016 29.6618 23.746 29.6509 23.7034C29.6515 23.6705 29.6522 23.6041 29.6522 23.6041C29.6534 23.5395 29.6547 23.4834 29.6547 23.433C29.6547 23.3414 29.6515 23.2697 29.6412 23.2052C29.6186 23.0638 29.6089 22.9205 29.6089 22.7747C29.6089 22.4946 29.6425 22.206 29.6773 21.9066L29.6818 21.8672L29.6812 21.8278C29.678 21.6845 29.6754 21.5141 29.6754 21.416C29.6754 21.3825 29.6754 21.3573 29.676 21.3444L29.6747 21.3618C29.7044 21.074 29.7154 20.7596 29.7264 20.4563L29.727 20.4427C29.727 20.4408 29.7509 19.9051 29.7509 19.9051C29.7522 19.887 29.7528 19.8689 29.7528 19.8509C29.7528 19.785 29.7457 19.7211 29.738 19.654C29.7322 19.6004 29.7225 19.5198 29.7225 19.461C29.7225 19.4423 29.7232 19.4255 29.7257 19.4126C29.7335 19.3713 29.7367 19.3287 29.7367 19.2816C29.7367 19.1719 29.7173 19.037 29.6812 18.8279C29.6812 18.8279 29.6773 18.8046 29.6754 18.7924C29.6754 18.7859 29.6747 18.7782 29.6747 18.7685C29.6747 18.6768 29.6877 18.4548 29.6967 18.3025C29.7102 18.0624 29.7206 17.8849 29.7206 17.7526C29.7206 17.6996 29.7193 17.6538 29.7154 17.6138C29.7154 17.6119 29.6838 17.4034 29.6838 17.4034C29.6541 17.2291 29.6057 16.9393 29.5818 16.6766C29.5753 16.5011 29.5702 16.2945 29.5702 16.1719C29.5702 16.1306 29.5708 16.0983 29.5721 16.0802C29.5753 16.0299 29.5766 15.9718 29.5766 15.9053C29.5766 15.7995 29.5734 15.673 29.5689 15.5284L29.5592 14.9049C29.5592 14.9017 29.5592 14.8985 29.5592 14.8952C29.5592 14.7061 29.5069 13.8006 29.4882 13.6683C29.4772 13.5902 29.4663 13.452 29.4663 13.3029C29.4663 13.2061 29.4708 13.1048 29.483 13.0131C29.5179 12.7492 29.5218 12.5897 29.525 12.4613C29.5276 12.3722 29.5295 12.3064 29.5418 12.2193C29.5902 12.1715 29.7012 12.1037 29.7787 12.0708C30.1943 11.9785 30.4525 11.9004 30.6222 11.7507C30.7688 11.6216 30.9824 11.5583 31.0973 11.5248L31.107 11.5222C31.3864 11.4396 31.5659 11.2744 31.6627 11.1859C31.6627 11.1859 31.6691 11.1801 31.6762 11.1737C31.7453 11.133 32.1067 10.9207 32.1067 10.9207L32.3068 10.7787C32.3507 10.7412 32.3785 10.718 32.3985 10.7128C32.514 10.6825 32.6134 10.6296 32.7102 10.5786C32.7651 10.5495 32.827 10.5166 32.8645 10.5044L32.9716 10.4701C33.1478 10.4146 33.2356 10.3862 33.3176 10.3365L33.326 10.3314C33.7649 10.0564 34.3741 9.34709 34.3741 8.49318C34.3741 8.38023 34.3632 8.26405 34.3399 8.14658C34.2818 7.85614 34.1244 7.65347 34.0095 7.50567L33.9378 7.41015C33.5512 6.82345 32.9723 6.82732 32.7825 6.82861C32.7425 6.82861 32.6586 6.81958 32.5908 6.81248C32.3998 6.78924 32.2352 6.77181 32.0725 6.81828ZM25.2245 9.61107C25.2129 9.62914 25.2 9.64592 25.1903 9.66593C25.2006 9.64463 25.2122 9.62656 25.2245 9.61107Z" fill="#223549"/>
<path d="M33.779 8.25347C33.7358 8.03596 33.5628 7.87654 33.4602 7.72035C33.2543 7.40796 32.9793 7.39505 32.7857 7.39634C32.6115 7.39698 32.3249 7.33954 32.2287 7.36665C32.0254 7.42474 31.7266 7.63515 31.5942 7.73777C31.5375 7.78231 31.1366 8.05145 31.0534 8.16053C31.0088 8.21862 30.7965 8.54844 30.639 8.68591C30.5009 8.80661 30.1369 8.92343 29.9432 9.06285C29.8212 9.08995 29.576 9.13449 29.4708 9.17515C29.3682 9.21388 28.9622 9.42622 28.8731 9.4572C28.815 9.47721 28.5304 9.55596 28.44 9.59016C28.3742 9.61469 28.1915 9.73216 28.1651 9.7399C28.0257 9.78057 27.7604 9.80251 27.6048 9.76895C27.5222 9.75088 26.9536 9.42687 26.5102 9.50109C26.3082 9.5353 26.1352 9.62179 26.0526 9.70311C25.9312 9.7341 25.7511 9.81929 25.6989 9.92321C25.6485 10.0232 25.5562 10.02 25.4975 10.1285C25.382 10.3408 25.3084 10.648 25.3039 10.6984C25.2851 10.9023 25.3368 11.0747 25.3684 11.2457C25.4581 11.7336 25.2993 11.9299 24.9831 12.0938C24.9114 12.1312 24.6662 12.3113 24.6029 12.3397C24.5151 12.3797 24.164 12.4972 24.0782 12.5456C23.7413 12.7366 23.434 12.8502 23.3618 12.9193C23.0416 13.2246 22.5466 13.5021 22.5466 13.5021C22.3788 13.6073 22.0941 13.7687 21.7346 13.9701C21.5171 14.0914 21.1931 14.3754 21.1369 14.4128C21.0776 14.4522 20.7697 14.6007 20.6832 14.6587C20.6264 14.6962 20.3547 14.8982 20.2701 14.946C20.0965 15.0428 19.8732 15.106 19.637 15.1725C19.2562 15.2809 18.8618 15.392 18.6101 15.6721C18.2273 16.0968 18.0666 16.7558 18.2596 17.2676C18.4519 17.7801 18.8934 18.077 19.1148 18.1686C19.462 18.3132 20.0345 18.277 20.2985 18.0802C20.4676 17.9537 20.5567 17.7594 20.6361 17.589C20.6658 17.5245 20.7632 17.3166 20.9162 17.1688C21.0756 17.0146 21.3202 16.6028 21.388 16.5357C21.5494 16.3775 21.7495 16.2465 21.9747 16.1329C22.4349 15.9006 22.7189 15.6153 22.8699 15.4804C22.9751 15.3861 23.0623 15.279 23.1785 15.2151C23.6361 14.9653 23.8716 14.7827 24.0149 14.6749C24.1376 14.5819 24.5022 14.4103 24.6959 14.307C24.8959 14.2005 25.1309 13.9965 25.2212 13.9546C25.3407 13.8991 25.5478 13.8952 25.6246 13.9462C25.7008 13.9972 25.8912 14.267 26.0125 15.6766C26.0184 15.7444 26.0248 16.3104 26.0261 16.4014C26.028 16.5441 26.0803 17.0055 26.0777 17.0501C26.0603 17.3212 26.0777 17.6419 26.0997 17.9479C26.1003 17.9601 26.0803 18.2215 26.1294 18.5113C26.1616 18.7024 26.1462 19.1135 26.1281 19.2762C26.1107 19.4266 26.1261 19.5769 26.1281 19.7228C26.1345 20.0907 26.079 20.4476 26.0764 20.5315C26.0745 20.5961 26.0693 21.0201 26.0474 21.1802C26.0429 21.2118 25.9809 21.4539 25.9745 21.532C25.957 21.7191 26.048 22.28 26.0345 22.3981C26.0151 22.5634 25.9661 22.7267 25.9144 22.8996C25.8234 23.2017 25.7208 23.5438 25.7724 23.9517C25.8008 24.1756 25.8486 24.4364 25.9441 24.7049C25.9486 24.7172 26.0384 25.0741 26.0706 25.2413C26.0706 25.2413 26.1933 25.6459 26.2339 25.8951C26.2656 26.0887 26.2397 26.3824 26.2404 26.4527C26.2423 26.5902 26.3411 27.0252 26.3495 27.0917C26.3553 27.1382 26.3249 27.4325 26.3424 27.5409C26.3804 27.7772 26.4708 28.2154 26.7348 28.3755C27.0581 28.5717 27.3473 28.5543 27.539 28.6117C28.0089 28.7537 28.5517 28.6704 28.8583 28.551C28.9577 28.5123 29.0758 28.4291 29.1351 28.3368C29.1978 28.2399 29.3314 28.1612 29.4185 28.0276C29.5205 27.8714 29.665 27.2531 29.7606 26.9923C29.8619 26.7161 29.749 26.1765 29.6767 25.9525C29.6534 25.8815 29.4037 25.2903 29.3417 25.1554C29.2804 25.0205 29.2326 24.4422 29.2107 24.3157C29.1958 24.2312 29.0913 23.8516 29.079 23.7768C29.07 23.72 29.09 23.396 29.0738 23.2966C28.9944 22.806 29.0519 22.3149 29.1068 21.8405C29.1068 21.8405 29.0964 21.3706 29.1035 21.3009C29.1319 21.0298 29.1423 20.7213 29.1526 20.4225C29.1597 20.2211 29.1661 20.0307 29.1771 19.8655C29.1836 19.7712 29.1216 19.5189 29.159 19.3104C29.1732 19.2316 29.1074 18.8967 29.1029 18.8579C29.0822 18.6759 29.1597 17.873 29.141 17.6619C29.1339 17.5806 29.0429 17.1282 29.0061 16.7138C29.0061 16.7138 28.9861 16.191 28.997 16.0387C29.0106 15.8405 28.979 15.3468 28.9835 14.8976C28.9854 14.7498 28.9325 13.8455 28.9183 13.7467C28.8931 13.5693 28.8744 13.2272 28.9125 12.9367C28.9731 12.472 28.928 12.3875 28.9828 12.0628C29.0358 11.7537 29.5637 11.5297 29.607 11.52C29.7264 11.4929 30.1388 11.409 30.2414 11.3186C30.4873 11.1024 30.7946 11.0146 30.9411 10.9714C31.1605 10.9068 31.2812 10.7352 31.3535 10.6951C31.4503 10.6422 31.7479 10.4583 31.8369 10.4118C31.926 10.3653 32.0312 10.2149 32.2468 10.1575C32.3552 10.1291 32.5179 10.0129 32.6786 9.95871C32.7922 9.92063 32.9793 9.86705 33.0181 9.84317C33.4073 9.60178 33.9133 8.93118 33.779 8.25347Z" fill="#ED1C24"/>
<path d="M44.1012 4.92691C43.417 4.98435 42.9581 5.36128 42.7122 5.56395C42.7032 5.57105 42.03 6.18421 41.8538 6.41786C41.8544 6.41657 41.7273 6.61665 41.7273 6.61665L41.6279 6.77736L41.2948 7.19302L41.2781 7.21368L40.8953 7.69259C40.8985 7.68807 40.9056 7.67968 40.9056 7.67968C40.8798 7.71001 40.7449 7.8462 40.6462 7.94624C40.2931 8.30317 40.2157 8.38772 40.1705 8.4471C40.1718 8.44516 40.0853 8.56134 40.0853 8.56134C39.7155 9.05509 39.5031 9.33392 39.4541 9.39007L39.4625 9.38104C39.3502 9.49851 39.0707 9.86898 38.9764 10.0078C38.8409 10.2078 38.6718 10.4563 38.6027 10.5493C38.5434 10.6287 38.4717 10.7087 38.3981 10.79L38.3917 10.7978L37.7869 11.5123L37.7643 11.5484C37.6333 11.7607 37.4487 12.0738 37.3784 12.2087C37.3771 12.2113 37.348 12.2752 37.348 12.2752C37.1479 12.7392 37.0337 12.8909 37.0034 12.9264C36.7678 13.2052 36.6677 13.6047 36.6193 13.8087C36.6064 13.8474 36.5599 13.9668 36.5109 14.0637C36.4425 14.1985 36.3095 14.4903 36.2605 14.5981C35.8093 15.3029 35.7899 15.3377 35.7809 15.3532C35.7325 15.4391 35.6267 15.5856 35.5331 15.7153C35.5324 15.716 35.5279 15.7224 35.5279 15.7224C35.2613 16.0922 35.1658 16.2407 35.1252 16.3904L35.1219 16.4021L35.1193 16.4137C35.0748 16.6105 34.9928 16.7254 34.9134 16.8377L34.9083 16.8455C34.8341 16.9507 34.7573 17.0597 34.7295 17.2101C34.665 17.5548 34.5281 17.7955 34.4384 17.8949C34.359 17.831 34.3158 17.722 34.2428 17.4832C34.2132 17.3095 34.1505 16.9119 34.1415 16.7067C34.1415 16.7061 34.1409 16.6938 34.1409 16.6938C34.1331 16.5202 34.1254 16.3407 34.1073 16.1678L34.0234 15.4604C33.9873 15.1719 33.9104 14.396 33.9066 14.3541C33.842 13.548 33.7891 12.9109 33.103 12.4326C32.8874 12.2823 32.6009 12.25 32.3233 12.2371L32.3078 12.2364L32.3233 12.2377C31.9703 12.2009 31.5662 12.2242 31.2971 12.2971C31.1874 12.3261 31.0867 12.3823 30.8008 12.5579L30.7117 12.6121C30.4471 12.7586 30.1166 12.9412 29.9662 13.2414C29.8339 13.5054 29.7861 13.87 29.7861 14.2579C29.7861 14.6762 29.8416 15.1215 29.9062 15.4984C29.9223 15.592 29.9623 15.7373 30.3096 16.6699C30.336 16.7493 30.5936 17.5161 30.673 17.793L30.9434 18.6766L30.9447 18.6798C31.0376 18.958 31.1777 19.3775 31.2171 19.6034C31.27 19.9126 31.3545 20.2075 31.4359 20.4935C31.4359 20.4928 31.4397 20.5083 31.4397 20.5083C31.5133 20.7665 31.5888 21.0337 31.6411 21.3106C31.6411 21.3086 31.716 21.5868 31.716 21.5868L31.8109 21.9308L31.807 21.9082C31.8276 22.0477 31.9696 22.5337 32.0213 22.6757C32.0206 22.6737 32.0303 22.7015 32.0303 22.7015C32.0735 22.8235 32.1187 22.95 32.1478 23.0532C32.2814 23.5263 32.4298 23.88 32.6112 24.2667C32.7616 24.5874 32.8758 24.8062 32.9513 24.9172C33.3676 25.5278 33.802 25.9048 34.6817 25.8996C35.1406 25.897 35.6125 25.8518 35.9513 25.5394C36.2637 25.2503 36.4838 24.916 36.4935 24.9018C36.7258 24.5461 36.9007 24.1053 36.9879 23.6593C37.0182 23.5005 37.0272 23.3405 37.0272 23.1817C37.0272 23.0726 37.0234 22.9642 37.0188 22.857C37.015 22.7563 37.0111 22.6544 37.0111 22.5543C37.0111 22.4556 37.015 22.3594 37.0272 22.2697C37.0434 22.1445 37.1092 21.7075 37.2686 21.3112C37.2712 21.3054 37.2751 21.2964 37.2751 21.2964C37.3474 21.1337 37.4364 20.9252 37.4803 20.7574C37.5287 20.5728 37.6469 20.396 37.7714 20.2095L37.9657 19.9009C38.0825 19.6938 38.5369 18.9199 38.595 18.8315L38.7234 18.6469L38.7409 18.6204L39.3256 17.6574L39.336 17.6374C39.3857 17.538 39.4986 17.2644 39.5457 17.1204C39.5722 17.0385 39.6032 16.9429 39.6296 16.8777C39.6548 16.8493 39.6929 16.8061 39.6929 16.8061C39.8859 16.5925 40.0175 16.4395 40.084 16.271C40.0834 16.2723 40.0737 16.2956 40.0737 16.2956L40.166 16.1284C40.2925 15.9025 40.3783 15.7463 40.4209 15.6353C40.4764 15.4894 40.6236 15.2506 40.712 15.1086C40.7849 14.9905 40.8256 14.9253 40.854 14.8569C40.9244 14.6878 41.0038 14.4974 41.1128 14.3812C41.218 14.2683 41.3316 14.085 41.493 13.8184C41.595 13.6506 41.7312 13.4253 41.7873 13.3692C42.0164 13.1446 42.2114 12.7934 42.3424 12.5559C42.3663 12.5198 42.4527 12.4146 42.5166 12.3365C42.7606 12.0383 42.94 11.8117 43.0291 11.6052C43.0724 11.5045 43.1982 11.398 43.4028 11.2889L43.5532 11.1908C43.6642 11.0953 43.7488 11.0011 43.823 10.9178C43.9437 10.7836 44.0308 10.6874 44.1999 10.5964C44.3245 10.5293 44.8105 10.3027 44.9028 10.2685C45.0835 10.2053 45.4114 10.0355 45.6425 9.86253C45.9374 9.64115 46.2466 9.17192 46.326 9.02605C46.5054 8.69752 46.6248 8.20312 46.6797 7.9385C46.7475 7.60739 46.7855 7.40537 46.7855 7.09427C46.7855 7.03037 46.7836 6.96131 46.7804 6.8858C46.7558 6.3204 46.3337 5.62139 45.7993 5.25995C45.4179 5.00178 44.7511 4.87075 44.1012 4.92691Z" fill="#223549"/>
<path d="M38.8259 17.3805C38.8608 17.3114 38.9621 17.0668 39.0021 16.9441C39.0467 16.8067 39.0886 16.6769 39.137 16.5801C39.168 16.5175 39.4985 16.198 39.5533 16.0599C39.5798 15.9928 39.836 15.5649 39.8857 15.4332C39.9968 15.1395 40.2924 14.7174 40.3253 14.6374C40.4098 14.4347 40.5144 14.183 40.6938 13.9906C40.7661 13.9132 40.892 13.7054 41.003 13.5221C41.1508 13.2774 41.2792 13.0657 41.3864 12.9605C41.5587 12.7921 41.7323 12.4765 41.8472 12.268C41.9272 12.1234 42.3984 11.6219 42.5023 11.3792C42.6734 10.9803 43.1452 10.7861 43.1775 10.7577C43.2607 10.686 43.3265 10.6124 43.3963 10.535C43.5318 10.3853 43.6706 10.2304 43.9287 10.0916C44.0714 10.0148 44.6039 9.76564 44.711 9.72821C44.8304 9.68625 45.1079 9.54619 45.2996 9.40291C45.4965 9.2551 45.7579 8.87172 45.8237 8.75102C45.9735 8.47607 46.0806 8.00877 46.12 7.82031C46.1994 7.43434 46.2258 7.28137 46.2097 6.90896C46.1929 6.52041 45.865 5.99244 45.4797 5.73169C45.2093 5.54838 44.6626 5.45092 44.1501 5.49481C43.6828 5.53419 43.3633 5.76783 43.0755 6.00406C43.0568 6.01955 42.4378 6.59269 42.31 6.76115C42.2751 6.80698 42.1389 7.04837 42.0867 7.11679C41.9673 7.27492 41.8408 7.42788 41.7188 7.57569C41.5961 7.72414 41.4696 7.8784 41.3515 8.03524C41.3251 8.07009 41.2528 8.14432 41.0527 8.34634C40.9081 8.49285 40.6654 8.73811 40.628 8.78846C40.5389 8.90657 39.9529 9.69335 39.8754 9.77403C39.7954 9.85729 39.5398 10.1929 39.4488 10.3272C39.3023 10.5427 39.1364 10.7874 39.0596 10.89C38.9847 10.9894 38.9034 11.081 38.8208 11.172L38.2515 11.8472C38.114 12.0705 37.9423 12.3629 37.8856 12.4713C37.8739 12.4939 37.648 13.0496 37.4396 13.2949C37.2859 13.4762 37.2085 13.8022 37.1711 13.9584C37.164 13.9894 37.0981 14.1694 37.02 14.3224C36.9439 14.4715 36.7644 14.8697 36.7644 14.8697C36.7644 14.8697 36.2991 15.5965 36.2791 15.6326C36.2158 15.7449 36.1093 15.8921 35.9964 16.0489C35.8847 16.2038 35.6975 16.4633 35.6769 16.5388C35.6072 16.8447 35.4761 17.0313 35.3793 17.1668C35.3387 17.2243 35.2961 17.2843 35.2909 17.314C35.1935 17.8381 34.9392 18.2912 34.6597 18.4415C34.539 18.5061 34.4118 18.5158 34.3002 18.4687C33.8916 18.2957 33.7916 17.9646 33.6857 17.6135C33.6857 17.6135 33.5837 17.0332 33.5708 16.7279C33.5637 16.5588 33.556 16.3839 33.5392 16.2238C33.5153 15.9921 33.4856 15.7565 33.4566 15.5294C33.4185 15.2221 33.3372 14.4037 33.3372 14.4037C33.2765 13.6428 33.2423 13.2239 32.7763 12.8979C32.6498 12.8095 32.3045 12.8063 32.2671 12.8024C31.9844 12.7727 31.6474 12.7901 31.4467 12.8444C31.3777 12.8631 31.0556 13.0709 30.9897 13.1077C30.7929 13.2168 30.5483 13.3517 30.4773 13.4937C30.3217 13.8048 30.3185 14.5167 30.4695 15.3983C30.4882 15.5068 30.7406 16.1858 30.8484 16.4756C30.8484 16.4756 31.1343 17.325 31.2221 17.6315C31.2866 17.8574 31.4861 18.4945 31.4861 18.4945C31.5906 18.8075 31.7333 19.2354 31.7791 19.502C31.8269 19.7789 31.903 20.048 31.9844 20.3327C32.0625 20.6083 32.1438 20.8923 32.2019 21.1995C32.2109 21.2485 32.3619 21.75 32.3723 21.823C32.3826 21.894 32.5033 22.3245 32.5582 22.4787C32.6078 22.6188 32.6601 22.764 32.6969 22.8944C32.8189 23.3281 32.9577 23.6586 33.1274 24.02C33.2597 24.3021 33.3675 24.5112 33.4237 24.5932C33.7638 25.0921 34.0381 25.329 34.6778 25.3251C35.1489 25.3225 35.4052 25.2618 35.5633 25.116C35.7802 24.9159 35.9622 24.6655 36.0144 24.5854C36.2068 24.2905 36.3533 23.9219 36.4262 23.5469C36.465 23.3455 36.4566 23.1171 36.4469 22.8763C36.4378 22.6524 36.4288 22.4206 36.4591 22.1928C36.4779 22.0515 36.5514 21.5551 36.7386 21.0923C36.7483 21.0685 36.8813 20.7825 36.9264 20.6102C36.9987 20.334 37.1491 20.1087 37.295 19.8905C37.3576 19.797 37.4163 19.7079 37.4667 19.6195C37.5764 19.4252 38.0547 18.6074 38.1198 18.5113C38.1612 18.4499 38.2076 18.3822 38.2515 18.3221L38.8259 17.3805Z" fill="#ED1C24"/>
</g>
<defs>
<clipPath id="clip0">
<rect width="46.1749" height="36.0532" fill="white" transform="translate(0.613281 0.773438)"/>
</clipPath>
</defs>
</svg>
