<svg width="946" height="587" viewBox="0 0 946 587" fill="none" xmlns="http://www.w3.org/2000/svg">
<path d="M99 160L69.3511 160C32.7064 160 3 189.549 3 226C3 262.451 32.7064 292 69.3511 292L359 292" stroke="#F7C154" stroke-width="5"/>
<path d="M803.225 160L871.989 160C911.207 160 943 128.212 943 89C943 49.7878 911.207 18 871.989 18L549.5 18" stroke="#F7C154" stroke-width="5"/>
<path d="M166 436L71.6967 436C33.7566 436 3 466.445 3 504C3 541.555 33.7566 572 71.6967 572H100.5" stroke="#F7C154" stroke-width="5"/>
<path d="M522 160L388 160" stroke="#F7C154" stroke-width="5"/>
<circle cx="530" cy="160" r="15" fill="#F7C154"/>
<path d="M531.966 166V153.994H529.284L525.09 158.134L526.854 159.988L528.87 157.954V166H531.966Z" fill="black"/>
<circle cx="93" cy="160" r="15" fill="#F7C154"/>
<path d="M98.206 166V163.3H93.814C96.802 161.212 98.116 159.646 98.116 157.81C98.116 155.398 96.082 153.814 93.256 153.814C91.582 153.814 89.674 154.408 88.396 155.812L90.106 157.864C90.97 157.054 91.978 156.55 93.31 156.55C94.192 156.55 94.966 156.982 94.966 157.81C94.966 158.998 93.994 159.826 88.792 163.588V166H98.206Z" fill="black"/>
<circle cx="351" cy="292" r="15" fill="#F7C154"/>
<path d="M351.256 298.216C354.244 298.216 356.224 296.758 356.224 294.652C356.224 292.924 354.676 291.934 353.398 291.808C354.82 291.574 356.026 290.512 356.026 289.108C356.026 287.128 354.316 285.814 351.256 285.814C349.042 285.814 347.458 286.624 346.45 287.758L347.944 289.702C348.79 288.946 349.834 288.55 350.932 288.55C352.084 288.55 352.948 288.892 352.948 289.648C352.948 290.278 352.246 290.584 351.004 290.584C350.554 290.584 349.618 290.584 349.384 290.566V293.32C349.564 293.302 350.482 293.302 351.004 293.302C352.642 293.302 353.146 293.626 353.146 294.31C353.146 294.976 352.462 295.48 351.13 295.48C350.086 295.48 348.718 295.066 347.854 294.22L346.288 296.326C347.224 297.406 348.952 298.216 351.256 298.216Z" fill="black"/>
<path d="M693 292L870.847 292C910.696 292 943 324.236 943 364C943 403.765 910.696 436 870.847 436L570.5 436" stroke="#F7C154" stroke-width="5"/>
<path d="M700 27.125C700.697 26.4279 705.228 21.8968 709.063 18.0628L700 9.00052" stroke="#F7C154" stroke-width="3.48548"/>
<path d="M264 301.125C264.697 300.428 269.228 295.897 273.063 292.063L264 283.001" stroke="#F7C154" stroke-width="3.48548"/>
<path d="M778.062 427C777.365 427.697 772.834 432.228 769 436.062L778.062 445.124" stroke="#F7C154" stroke-width="3.48548"/>
<path d="M433.062 151C432.365 151.697 427.834 156.228 424 160.062L433.062 169.124" stroke="#F7C154" stroke-width="3.48548"/>
<path d="M575.575 134.3C580.675 134.3 584.475 130.75 584.475 125.675C584.475 120.6 580.675 117.05 575.575 117.05C570.475 117.05 566.65 120.6 566.65 125.675C566.65 130.75 570.475 134.3 575.575 134.3ZM575.575 130.5C572.8 130.5 571.025 128.375 571.025 125.675C571.025 122.95 572.8 120.85 575.575 120.85C578.325 120.85 580.1 122.95 580.1 125.675C580.1 128.375 578.325 130.5 575.575 130.5ZM598.566 134V121.925H586.541V134H590.391V125.275H594.716V134H598.566ZM608.785 134.3C611.81 134.3 614.085 132.05 614.085 127.95C614.085 123.875 611.81 121.625 608.785 121.625C607.41 121.625 606.16 122.175 605.21 123.325V121.925H601.36V138.6H605.21V132.575C606.21 133.775 607.435 134.3 608.785 134.3ZM607.51 130.9C606.685 130.9 605.685 130.425 605.21 129.8V126.125C605.685 125.475 606.685 125.025 607.51 125.025C609.01 125.025 610.16 126.15 610.16 127.95C610.16 129.775 609.01 130.9 607.51 130.9ZM621.882 134.3C623.732 134.3 625.732 133.775 626.932 132.7L625.307 130.3C624.632 130.95 623.157 131.325 622.307 131.325C620.557 131.325 619.507 130.3 619.282 129.175H627.882V128.35C627.882 124.25 625.282 121.625 621.707 121.625C617.932 121.625 615.282 124.45 615.282 127.95C615.282 131.875 618.157 134.3 621.882 134.3ZM624.207 126.675H619.232C619.382 125.8 620.032 124.6 621.707 124.6C623.482 124.6 624.107 125.825 624.207 126.675ZM628.828 137.075H632.678V134H639.278V137.075H643.128V130.65H641.803V121.925H631.478L630.678 127.725C630.328 130.35 629.728 130.725 628.828 130.8V137.075ZM634.803 125.275H637.953V130.65H633.303C633.928 130 634.328 129.075 634.478 127.85L634.803 125.275ZM650.715 134.3C652.565 134.3 654.565 133.775 655.765 132.7L654.14 130.3C653.465 130.95 651.99 131.325 651.14 131.325C649.39 131.325 648.34 130.3 648.115 129.175H656.715V128.35C656.715 124.25 654.115 121.625 650.54 121.625C646.765 121.625 644.115 124.45 644.115 127.95C644.115 131.875 646.99 134.3 650.715 134.3ZM653.04 126.675H648.065C648.215 125.8 648.865 124.6 650.54 124.6C652.315 124.6 652.94 125.825 653.04 126.675ZM657.661 134.3C661.211 134.3 662.761 132.175 663.261 128.225L663.636 125.275H666.786V134H670.636V121.925H660.311L659.511 127.725C659.161 130.35 658.561 131.15 657.661 131.15V134.3ZM677.105 134L681.605 127.35V134H685.455V121.925H681.58L677.28 128.25V121.925H673.43V134H677.105ZM694.05 134.3C696.65 134.3 698.275 133.125 699 132.075L696.5 129.725C696.025 130.4 695.25 130.9 694.225 130.9C692.625 130.9 691.4 129.775 691.4 127.95C691.4 126.125 692.625 125.025 694.225 125.025C695.25 125.025 696.025 125.475 696.5 126.175L699 123.85C698.275 122.775 696.65 121.625 694.05 121.625C690.275 121.625 687.45 124.175 687.45 127.95C687.45 131.75 690.275 134.3 694.05 134.3ZM700.75 121.925V134H708.575C711.375 134 712.975 132.1 712.975 129.9C712.975 127.675 711.5 125.8 708.575 125.8H704.6V121.925H700.75ZM707.9 128.9C708.625 128.9 709.075 129.325 709.075 129.9C709.075 130.475 708.625 130.9 707.9 130.9H704.6V128.9H707.9ZM727.179 134.3C729.779 134.3 731.404 133.125 732.129 132.075L729.629 129.725C729.154 130.4 728.379 130.9 727.354 130.9C725.754 130.9 724.529 129.775 724.529 127.95C724.529 126.125 725.754 125.025 727.354 125.025C728.379 125.025 729.154 125.475 729.629 126.175L732.129 123.85C731.404 122.775 729.779 121.625 727.179 121.625C723.404 121.625 720.579 124.175 720.579 127.95C720.579 131.75 723.404 134.3 727.179 134.3ZM746.279 134L741.604 127.425L746.054 121.925H741.404L737.729 126.75V121.925H733.879V134H737.729V131.1L738.879 129.725L741.529 134H746.279ZM753.107 134.3C757.257 134.3 759.707 131.35 759.707 127.95C759.707 124.55 757.257 121.625 753.107 121.625C749.007 121.625 746.532 124.55 746.532 127.95C746.532 131.35 749.007 134.3 753.107 134.3ZM753.107 130.9C751.432 130.9 750.507 129.575 750.507 127.95C750.507 126.35 751.432 125.025 753.107 125.025C754.807 125.025 755.757 126.35 755.757 127.95C755.757 129.575 754.807 130.9 753.107 130.9ZM760.786 134.3C764.336 134.3 765.886 132.175 766.386 128.225L766.761 125.275H769.911V134H773.761V121.925H763.436L762.636 127.725C762.286 130.35 761.686 131.15 760.786 131.15V134.3ZM776.555 121.925V134H784.38C787.18 134 788.78 132.1 788.78 129.9C788.78 127.675 787.305 125.8 784.38 125.8H780.405V121.925H776.555ZM783.705 128.9C784.43 128.9 784.88 129.325 784.88 129.9C784.88 130.475 784.43 130.9 783.705 130.9H780.405V128.9H783.705ZM803.189 134L798.514 127.425L802.964 121.925H798.314L794.639 126.75V121.925H790.789V134H794.639V131.1L795.789 129.725L798.439 134H803.189ZM810.016 134.3C814.166 134.3 816.616 131.35 816.616 127.95C816.616 124.55 814.166 121.625 810.016 121.625C805.916 121.625 803.441 124.55 803.441 127.95C803.441 131.35 805.916 134.3 810.016 134.3ZM810.016 130.9C808.341 130.9 807.416 129.575 807.416 127.95C807.416 126.35 808.341 125.025 810.016 125.025C811.716 125.025 812.666 126.35 812.666 127.95C812.666 129.575 811.716 130.9 810.016 130.9ZM575.825 164C578.4 164 579.675 162.475 579.675 160.7C579.675 159.225 578.7 158.05 577.325 157.775C578.5 157.425 579.4 156.45 579.4 155.025C579.4 153.5 578.175 151.925 575.6 151.925H567.4V164H575.825ZM574.85 161.025H571.25V159.35H574.85C575.425 159.35 575.8 159.725 575.8 160.2C575.8 160.7 575.4 161.025 574.85 161.025ZM574.7 156.4H571.25V154.9H574.7C575.2 154.9 575.525 155.2 575.525 155.65C575.525 156.075 575.2 156.4 574.7 156.4ZM589.864 164.3C592.889 164.3 595.164 162.05 595.164 157.95C595.164 153.875 592.889 151.625 589.864 151.625C588.489 151.625 587.239 152.175 586.289 153.325V151.925H582.439V168.6H586.289V162.575C587.289 163.775 588.514 164.3 589.864 164.3ZM588.589 160.9C587.764 160.9 586.764 160.425 586.289 159.8V156.125C586.764 155.475 587.764 155.025 588.589 155.025C590.089 155.025 591.239 156.15 591.239 157.95C591.239 159.775 590.089 160.9 588.589 160.9ZM602.961 164.3C604.811 164.3 606.811 163.775 608.011 162.7L606.386 160.3C605.711 160.95 604.236 161.325 603.386 161.325C601.636 161.325 600.586 160.3 600.361 159.175H608.961V158.35C608.961 154.25 606.361 151.625 602.786 151.625C599.011 151.625 596.361 154.45 596.361 157.95C596.361 161.875 599.236 164.3 602.961 164.3ZM605.286 156.675H600.311C600.461 155.8 601.111 154.6 602.786 154.6C604.561 154.6 605.186 155.825 605.286 156.675ZM626.057 164V151.925H620.982L618.457 158.45L615.932 151.925H610.857V164H614.707V156.775L617.482 164H619.457L622.232 156.775V164H626.057ZM634.65 164.3C636.5 164.3 638.5 163.775 639.7 162.7L638.075 160.3C637.4 160.95 635.925 161.325 635.075 161.325C633.325 161.325 632.275 160.3 632.05 159.175H640.65V158.35C640.65 154.25 638.05 151.625 634.475 151.625C630.7 151.625 628.05 154.45 628.05 157.95C628.05 161.875 630.925 164.3 634.65 164.3ZM636.975 156.675H632C632.15 155.8 632.8 154.6 634.475 154.6C636.25 154.6 636.875 155.825 636.975 156.675ZM646.396 164V159.425H650.721V164H654.571V151.925H650.721V156.075H646.396V151.925H642.546V164H646.396ZM661.041 164L665.541 157.35V164H669.391V151.925H665.516L661.216 158.25V151.925H657.366V164H661.041ZM684.732 164V155.275H688.007V151.925H677.582V155.275H680.882V164H684.732ZM689.812 151.925V164H697.637C700.437 164 702.037 162.1 702.037 159.9C702.037 157.675 700.562 155.8 697.637 155.8H693.662V151.925H689.812ZM696.962 158.9C697.687 158.9 698.137 159.325 698.137 159.9C698.137 160.475 697.687 160.9 696.962 160.9H693.662V158.9H696.962ZM707.187 164V151.925H703.337V164H707.187ZM725.95 151.925H716.375V164H720.225V155.275H725.95V151.925ZM733.527 164.3C737.677 164.3 740.127 161.35 740.127 157.95C740.127 154.55 737.677 151.625 733.527 151.625C729.427 151.625 726.952 154.55 726.952 157.95C726.952 161.35 729.427 164.3 733.527 164.3ZM733.527 160.9C731.852 160.9 730.927 159.575 730.927 157.95C730.927 156.35 731.852 155.025 733.527 155.025C735.227 155.025 736.177 156.35 736.177 157.95C736.177 159.575 735.227 160.9 733.527 160.9ZM748.306 164V155.275H751.581V151.925H741.156V155.275H744.456V164H748.306ZM759.161 164.3C763.311 164.3 765.761 161.35 765.761 157.95C765.761 154.55 763.311 151.625 759.161 151.625C755.061 151.625 752.586 154.55 752.586 157.95C752.586 161.35 755.061 164.3 759.161 164.3ZM759.161 160.9C757.486 160.9 756.561 159.575 756.561 157.95C756.561 156.35 757.486 155.025 759.161 155.025C760.861 155.025 761.811 156.35 761.811 157.95C761.811 159.575 760.861 160.9 759.161 160.9ZM776.216 164C778.791 164 780.066 162.475 780.066 160.7C780.066 159.225 779.091 158.05 777.716 157.775C778.891 157.425 779.791 156.45 779.791 155.025C779.791 153.5 778.566 151.925 775.991 151.925H767.791V164H776.216ZM775.241 161.025H771.641V159.35H775.241C775.816 159.35 776.191 159.725 776.191 160.2C776.191 160.7 775.791 161.025 775.241 161.025ZM775.091 156.4H771.641V154.9H775.091C775.591 154.9 775.916 155.2 775.916 155.65C775.916 156.075 775.591 156.4 775.091 156.4ZM567.15 198.7C567.55 198.825 568.45 198.9 568.8 198.9C571.1 198.85 572.925 198.275 573.9 195.725L579.35 181.925H575.275L572.525 189.575L569.8 181.925H565.75L570.55 194.175L570.275 194.825C570.075 195.325 569.525 195.5 568.65 195.5C568.35 195.5 567.975 195.425 567.7 195.275L567.15 198.7ZM579.56 197.075H583.41V194H590.01V197.075H593.86V190.65H592.535V181.925H582.21L581.41 187.725C581.06 190.35 580.46 190.725 579.56 190.8V197.075ZM585.535 185.275H588.685V190.65H584.035C584.66 190 585.06 189.075 585.21 187.85L585.535 185.275ZM601.447 194.3C603.297 194.3 605.297 193.775 606.497 192.7L604.872 190.3C604.197 190.95 602.722 191.325 601.872 191.325C600.122 191.325 599.072 190.3 598.847 189.175H607.447V188.35C607.447 184.25 604.847 181.625 601.272 181.625C597.497 181.625 594.847 184.45 594.847 187.95C594.847 191.875 597.722 194.3 601.447 194.3ZM603.772 186.675H598.797C598.947 185.8 599.597 184.6 601.272 184.6C603.047 184.6 603.672 185.825 603.772 186.675ZM608.393 194.3C611.943 194.3 613.493 192.175 613.993 188.225L614.368 185.275H617.518V194H621.368V181.925H611.043L610.243 187.725C609.893 190.35 609.293 191.15 608.393 191.15V194.3ZM628.138 194L630.163 190.125H632.288V194H636.138V181.925H628.313C625.513 181.925 623.913 183.825 623.913 186.025C623.913 188.25 625.288 189.4 626.438 189.8L623.838 194H628.138ZM628.988 187.025C628.263 187.025 627.813 186.6 627.813 186.025C627.813 185.45 628.288 185.025 628.988 185.025H632.288V187.025H628.988ZM645.01 194V185.275H648.285V181.925H637.86V185.275H641.16V194H645.01ZM650.09 181.925V194H657.915C660.715 194 662.315 192.1 662.315 189.9C662.315 187.675 660.84 185.8 657.915 185.8H653.94V181.925H650.09ZM657.24 188.9C657.965 188.9 658.415 189.325 658.415 189.9C658.415 190.475 657.965 190.9 657.24 190.9H653.94V188.9H657.24ZM676.495 194.3C680.645 194.3 683.095 191.35 683.095 187.95C683.095 184.55 680.645 181.625 676.495 181.625C672.395 181.625 669.92 184.55 669.92 187.95C669.92 191.35 672.395 194.3 676.495 194.3ZM676.495 190.9C674.82 190.9 673.895 189.575 673.895 187.95C673.895 186.35 674.82 185.025 676.495 185.025C678.195 185.025 679.145 186.35 679.145 187.95C679.145 189.575 678.195 190.9 676.495 190.9ZM690.9 190.9C689.225 190.9 688.3 189.575 688.3 187.925C688.3 186.35 689.225 185.025 690.9 185.025C692.6 185.025 693.55 186.35 693.55 187.925C693.55 189.575 692.6 190.9 690.9 190.9ZM690.9 194.3C695.075 194.3 697.5 191.325 697.5 187.925C697.5 184.575 695.275 181.625 691.825 181.625C690.2 181.625 688.9 182.2 687.925 183.4C688.275 182.1 689.325 181.05 692.125 180.65C694.075 180.375 697.05 179.675 697.05 177.325H692.9C692.9 177.7 692.225 178 690.8 178.225C686.55 178.825 684.35 181.525 684.35 187.4C684.35 191.325 686.775 194.3 690.9 194.3ZM699.303 198.7C699.703 198.825 700.603 198.9 700.953 198.9C703.253 198.85 705.078 198.275 706.053 195.725L711.503 181.925H707.428L704.678 189.575L701.953 181.925H697.903L702.703 194.175L702.428 194.825C702.228 195.325 701.678 195.5 700.803 195.5C700.503 195.5 700.128 195.425 699.853 195.275L699.303 198.7ZM712.364 181.925V186.5C712.364 189.05 713.614 190.625 716.914 190.625C718.514 190.625 719.789 190.225 720.539 189.775V194H724.364V181.925H720.539V186.725C720.064 187 719.414 187.225 718.339 187.225C716.964 187.225 716.214 186.725 716.214 185.25V181.925H712.364ZM732.99 194.3C734.84 194.3 736.84 193.775 738.04 192.7L736.415 190.3C735.74 190.95 734.265 191.325 733.415 191.325C731.665 191.325 730.615 190.3 730.39 189.175H738.99V188.35C738.99 184.25 736.39 181.625 732.815 181.625C729.04 181.625 726.39 184.45 726.39 187.95C726.39 191.875 729.265 194.3 732.99 194.3ZM735.315 186.675H730.34C730.49 185.8 731.14 184.6 732.815 184.6C734.59 184.6 735.215 185.825 735.315 186.675ZM744.736 194V189.425H749.061V194H752.911V181.925H749.061V186.075H744.736V181.925H740.886V194H744.736ZM759.381 194L763.881 187.35V194H767.731V181.925H763.856L759.556 188.25V181.925H755.706V194H759.381ZM782.7 194.3C786.85 194.3 789.3 191.35 789.3 187.95C789.3 184.55 786.85 181.625 782.7 181.625C779.35 181.625 777.125 183.55 776.375 186.075H774.375V181.925H770.525V194H774.375V189.425H776.275C776.875 192.175 779.175 194.3 782.7 194.3ZM782.7 190.9C781.025 190.9 780.075 189.575 780.075 187.95C780.075 186.35 781.025 185.025 782.7 185.025C784.4 185.025 785.35 186.35 785.35 187.95C785.35 189.575 784.4 190.9 782.7 190.9Z" fill="#223549"/>
<path d="M145.025 134V117.325H129.5V134H133.8V121.075H140.725V134H145.025ZM153.705 134.3C157.855 134.3 160.305 131.35 160.305 127.95C160.305 124.55 157.855 121.625 153.705 121.625C149.605 121.625 147.13 124.55 147.13 127.95C147.13 131.35 149.605 134.3 153.705 134.3ZM153.705 130.9C152.03 130.9 151.105 129.575 151.105 127.95C151.105 126.35 152.03 125.025 153.705 125.025C155.405 125.025 156.355 126.35 156.355 127.95C156.355 129.575 155.405 130.9 153.705 130.9ZM161.385 137.075H165.235V134H171.835V137.075H175.685V130.65H174.36V121.925H164.035L163.235 127.725C162.885 130.35 162.285 130.725 161.385 130.8V137.075ZM167.36 125.275H170.51V130.65H165.86C166.485 130 166.885 129.075 167.035 127.85L167.36 125.275ZM183.246 130.9C181.571 130.9 180.646 129.575 180.646 127.925C180.646 126.35 181.571 125.025 183.246 125.025C184.946 125.025 185.896 126.35 185.896 127.925C185.896 129.575 184.946 130.9 183.246 130.9ZM183.246 134.3C187.421 134.3 189.846 131.325 189.846 127.925C189.846 124.575 187.621 121.625 184.171 121.625C182.546 121.625 181.246 122.2 180.271 123.4C180.621 122.1 181.671 121.05 184.471 120.65C186.421 120.375 189.396 119.675 189.396 117.325H185.246C185.246 117.7 184.571 118 183.146 118.225C178.896 118.825 176.696 121.525 176.696 127.4C176.696 131.325 179.121 134.3 183.246 134.3ZM197.7 134.3C199.55 134.3 201.55 133.775 202.75 132.7L201.125 130.3C200.45 130.95 198.975 131.325 198.125 131.325C196.375 131.325 195.325 130.3 195.1 129.175H203.7V128.35C203.7 124.25 201.1 121.625 197.525 121.625C193.75 121.625 191.1 124.45 191.1 127.95C191.1 131.875 193.975 134.3 197.7 134.3ZM200.025 126.675H195.05C195.2 125.8 195.85 124.6 197.525 124.6C199.3 124.6 199.925 125.825 200.025 126.675ZM213.021 134.3C216.046 134.3 218.321 132.05 218.321 127.95C218.321 123.875 216.046 121.625 213.021 121.625C211.646 121.625 210.396 122.175 209.446 123.325V121.925H205.596V138.6H209.446V132.575C210.446 133.775 211.671 134.3 213.021 134.3ZM211.746 130.9C210.921 130.9 209.921 130.425 209.446 129.8V126.125C209.921 125.475 210.921 125.025 211.746 125.025C213.246 125.025 214.396 126.15 214.396 127.95C214.396 129.775 213.246 130.9 211.746 130.9ZM223.993 134L228.493 127.35V134H232.343V121.925H228.468L224.168 128.25V121.925H220.318V134H223.993ZM253.934 134L249.259 127.425L253.709 121.925H249.059L245.384 126.75V121.925H241.534V134H245.384V131.1L246.534 129.725L249.184 134H253.934ZM254.931 138.7C255.331 138.825 256.231 138.9 256.581 138.9C258.881 138.85 260.706 138.275 261.681 135.725L267.131 121.925H263.056L260.306 129.575L257.581 121.925H253.531L258.331 134.175L258.056 134.825C257.856 135.325 257.306 135.5 256.431 135.5C256.131 135.5 255.756 135.425 255.481 135.275L254.931 138.7ZM275.717 134.3C278.742 134.3 281.017 132.05 281.017 127.95C281.017 123.875 278.742 121.625 275.717 121.625C274.342 121.625 273.092 122.175 272.142 123.325V121.925H268.292V138.6H272.142V132.575C273.142 133.775 274.367 134.3 275.717 134.3ZM274.442 130.9C273.617 130.9 272.617 130.425 272.142 129.8V126.125C272.617 125.475 273.617 125.025 274.442 125.025C275.942 125.025 277.092 126.15 277.092 127.95C277.092 129.775 275.942 130.9 274.442 130.9ZM288.813 134.3C291.413 134.3 293.038 133.125 293.763 132.075L291.263 129.725C290.788 130.4 290.013 130.9 288.988 130.9C287.388 130.9 286.163 129.775 286.163 127.95C286.163 126.125 287.388 125.025 288.988 125.025C290.013 125.025 290.788 125.475 291.263 126.175L293.763 123.85C293.038 122.775 291.413 121.625 288.813 121.625C285.038 121.625 282.213 124.175 282.213 127.95C282.213 131.75 285.038 134.3 288.813 134.3ZM300.96 137.075H304.81V134H311.41V137.075H315.26V130.65H313.935V121.925H303.61L302.81 127.725C302.46 130.35 301.86 130.725 300.96 130.8V137.075ZM306.935 125.275H310.085V130.65H305.435C306.06 130 306.46 129.075 306.61 127.85L306.935 125.275ZM316.096 134.3C319.646 134.3 321.196 132.175 321.696 128.225L322.071 125.275H325.221V134H329.071V121.925H318.746L317.946 127.725C317.596 130.35 316.996 131.15 316.096 131.15V134.3ZM335.841 134L337.866 130.125H339.991V134H343.841V121.925H336.016C333.216 121.925 331.616 123.825 331.616 126.025C331.616 128.25 332.991 129.4 334.141 129.8L331.541 134H335.841ZM336.691 127.025C335.966 127.025 335.516 126.6 335.516 126.025C335.516 125.45 335.991 125.025 336.691 125.025H339.991V127.025H336.691ZM135.2 164.3C137.8 164.3 139.425 163.125 140.15 162.075L137.65 159.725C137.175 160.4 136.4 160.9 135.375 160.9C133.775 160.9 132.55 159.775 132.55 157.95C132.55 156.125 133.775 155.025 135.375 155.025C136.4 155.025 137.175 155.475 137.65 156.175L140.15 153.85C139.425 152.775 137.8 151.625 135.2 151.625C131.425 151.625 128.6 154.175 128.6 157.95C128.6 161.75 131.425 164.3 135.2 164.3ZM148.05 164V155.275H151.325V151.925H140.9V155.275H144.2V164H148.05ZM164.105 164V156.45C164.105 152.7 161.38 151.625 158.48 151.625C156.63 151.625 154.555 152.175 153.005 153.5L154.38 155.925C155.355 155.1 156.605 154.65 157.805 154.65C159.355 154.65 160.255 155.35 160.255 156.4V157.85C159.53 156.95 158.105 156.45 156.505 156.45C154.655 156.45 152.355 157.4 152.355 160.325C152.355 163.05 154.655 164.3 156.505 164.3C158.055 164.3 159.505 163.7 160.255 162.8V164H164.105ZM158.105 161.775C157.08 161.775 156.18 161.325 156.18 160.375C156.18 159.425 157.08 158.975 158.105 158.975C158.955 158.975 159.855 159.275 160.255 159.825V160.9C159.855 161.475 158.955 161.775 158.105 161.775ZM174.325 164.3C177.35 164.3 179.625 162.05 179.625 157.95C179.625 153.875 177.35 151.625 174.325 151.625C172.95 151.625 171.7 152.175 170.75 153.325V151.925H166.9V168.6H170.75V162.575C171.75 163.775 172.975 164.3 174.325 164.3ZM173.05 160.9C172.225 160.9 171.225 160.425 170.75 159.8V156.125C171.225 155.475 172.225 155.025 173.05 155.025C174.55 155.025 175.7 156.15 175.7 157.95C175.7 159.775 174.55 160.9 173.05 160.9ZM187.772 164V155.275H191.047V151.925H180.622V155.275H183.922V164H187.772ZM203.827 164V156.45C203.827 152.7 201.102 151.625 198.202 151.625C196.352 151.625 194.277 152.175 192.727 153.5L194.102 155.925C195.077 155.1 196.327 154.65 197.527 154.65C199.077 154.65 199.977 155.35 199.977 156.4V157.85C199.252 156.95 197.827 156.45 196.227 156.45C194.377 156.45 192.077 157.4 192.077 160.325C192.077 163.05 194.377 164.3 196.227 164.3C197.777 164.3 199.227 163.7 199.977 162.8V164H203.827ZM197.827 161.775C196.802 161.775 195.902 161.325 195.902 160.375C195.902 159.425 196.802 158.975 197.827 158.975C198.677 158.975 199.577 159.275 199.977 159.825V160.9C199.577 161.475 198.677 161.775 197.827 161.775ZM216.693 164L221.193 157.35V164H225.043V151.925H221.168L216.868 158.25V151.925H213.018V164H216.693ZM226.888 164.3C230.438 164.3 231.988 162.175 232.488 158.225L232.862 155.275H236.013V164H239.863V151.925H229.538L228.738 157.725C228.388 160.35 227.788 161.15 226.888 161.15V164.3ZM246.332 164L250.832 157.35V164H254.682V151.925H250.807L246.507 158.25V151.925H242.657V164H246.332ZM272.298 164C274.873 164 276.148 162.475 276.148 160.7C276.148 159.225 275.173 158.05 273.798 157.775C274.973 157.425 275.873 156.45 275.873 155.025C275.873 153.5 274.648 151.925 272.073 151.925H263.873V164H272.298ZM271.323 161.025H267.723V159.35H271.323C271.898 159.35 272.273 159.725 272.273 160.2C272.273 160.7 271.873 161.025 271.323 161.025ZM271.173 156.4H267.723V154.9H271.173C271.673 154.9 271.998 155.2 271.998 155.65C271.998 156.075 271.673 156.4 271.173 156.4ZM278.912 151.925V164H286.737C289.537 164 291.137 162.1 291.137 159.9C291.137 157.675 289.662 155.8 286.737 155.8H282.762V151.925H278.912ZM286.062 158.9C286.787 158.9 287.237 159.325 287.237 159.9C287.237 160.475 286.787 160.9 286.062 160.9H282.762V158.9H286.062ZM296.287 164V151.925H292.437V164H296.287ZM304.878 164.3C307.478 164.3 309.103 163.125 309.828 162.075L307.328 159.725C306.853 160.4 306.078 160.9 305.053 160.9C303.453 160.9 302.228 159.775 302.228 157.95C302.228 156.125 303.453 155.025 305.053 155.025C306.078 155.025 306.853 155.475 307.328 156.175L309.828 153.85C309.103 152.775 307.478 151.625 304.878 151.625C301.103 151.625 298.278 154.175 298.278 157.95C298.278 161.75 301.103 164.3 304.878 164.3ZM317.728 164V155.275H321.003V151.925H310.578V155.275H313.878V164H317.728ZM330.233 164.3C333.258 164.3 335.533 162.05 335.533 157.95C335.533 153.875 333.258 151.625 330.233 151.625C328.858 151.625 327.608 152.175 326.658 153.325V151.925H322.808V168.6H326.658V162.575C327.658 163.775 328.883 164.3 330.233 164.3ZM328.958 160.9C328.133 160.9 327.133 160.425 326.658 159.8V156.125C327.133 155.475 328.133 155.025 328.958 155.025C330.458 155.025 331.608 156.15 331.608 157.95C331.608 159.775 330.458 160.9 328.958 160.9ZM343.305 164.3C347.455 164.3 349.905 161.35 349.905 157.95C349.905 154.55 347.455 151.625 343.305 151.625C339.205 151.625 336.73 154.55 336.73 157.95C336.73 161.35 339.205 164.3 343.305 164.3ZM343.305 160.9C341.63 160.9 340.705 159.575 340.705 157.95C340.705 156.35 341.63 155.025 343.305 155.025C345.005 155.025 345.955 156.35 345.955 157.95C345.955 159.575 345.005 160.9 343.305 160.9ZM355.609 164L360.109 157.35V164H363.959V151.925H360.084L355.784 158.25V151.925H351.934V164H355.609ZM362.334 148.6L360.684 147.25C360.059 148.175 359.109 148.7 357.959 148.7C356.759 148.7 355.834 148.1 355.209 147.25L353.559 148.6C354.584 149.95 356.184 150.8 357.959 150.8C359.759 150.8 361.334 149.95 362.334 148.6ZM135.2 194.3C137.8 194.3 139.425 193.125 140.15 192.075L137.65 189.725C137.175 190.4 136.4 190.9 135.375 190.9C133.775 190.9 132.55 189.775 132.55 187.95C132.55 186.125 133.775 185.025 135.375 185.025C136.4 185.025 137.175 185.475 137.65 186.175L140.15 183.85C139.425 182.775 137.8 181.625 135.2 181.625C131.425 181.625 128.6 184.175 128.6 187.95C128.6 191.75 131.425 194.3 135.2 194.3ZM147.675 194.3C151.825 194.3 154.275 191.35 154.275 187.95C154.275 184.55 151.825 181.625 147.675 181.625C143.575 181.625 141.1 184.55 141.1 187.95C141.1 191.35 143.575 194.3 147.675 194.3ZM147.675 190.9C146 190.9 145.075 189.575 145.075 187.95C145.075 186.35 146 185.025 147.675 185.025C149.375 185.025 150.325 186.35 150.325 187.95C150.325 189.575 149.375 190.9 147.675 190.9ZM162.079 190.9C160.404 190.9 159.479 189.575 159.479 187.925C159.479 186.35 160.404 185.025 162.079 185.025C163.779 185.025 164.729 186.35 164.729 187.925C164.729 189.575 163.779 190.9 162.079 190.9ZM162.079 194.3C166.254 194.3 168.679 191.325 168.679 187.925C168.679 184.575 166.454 181.625 163.004 181.625C161.379 181.625 160.079 182.2 159.104 183.4C159.454 182.1 160.504 181.05 163.304 180.65C165.254 180.375 168.229 179.675 168.229 177.325H164.079C164.079 177.7 163.404 178 161.979 178.225C157.729 178.825 155.529 181.525 155.529 187.4C155.529 191.325 157.954 194.3 162.079 194.3ZM176.533 194.3C179.133 194.3 180.758 193.125 181.483 192.075L178.983 189.725C178.508 190.4 177.733 190.9 176.708 190.9C175.108 190.9 173.883 189.775 173.883 187.95C173.883 186.125 175.108 185.025 176.708 185.025C177.733 185.025 178.508 185.475 178.983 186.175L181.483 183.85C180.758 182.775 179.133 181.625 176.533 181.625C172.758 181.625 169.933 184.175 169.933 187.95C169.933 191.75 172.758 194.3 176.533 194.3ZM189.383 194V185.275H192.658V181.925H182.233V185.275H185.533V194H189.383ZM202.888 194C205.463 194 206.738 192.475 206.738 190.7C206.738 189.225 205.763 188.05 204.388 187.775C205.563 187.425 206.463 186.45 206.463 185.025C206.463 183.5 205.238 181.925 202.663 181.925H194.463V194H202.888ZM201.913 191.025H198.313V189.35H201.913C202.488 189.35 202.863 189.725 202.863 190.2C202.863 190.7 202.463 191.025 201.913 191.025ZM201.763 186.4H198.313V184.9H201.763C202.263 184.9 202.588 185.2 202.588 185.65C202.588 186.075 202.263 186.4 201.763 186.4ZM215.303 194.3C217.153 194.3 219.153 193.775 220.353 192.7L218.728 190.3C218.053 190.95 216.578 191.325 215.728 191.325C213.978 191.325 212.928 190.3 212.703 189.175H221.303V188.35C221.303 184.25 218.703 181.625 215.128 181.625C211.353 181.625 208.703 184.45 208.703 187.95C208.703 191.875 211.578 194.3 215.303 194.3ZM217.628 186.675H212.653C212.803 185.8 213.453 184.6 215.128 184.6C216.903 184.6 217.528 185.825 217.628 186.675ZM227.049 194V189.425H231.374V194H235.224V181.925H231.374V186.075H227.049V181.925H223.199V194H227.049ZM241.868 194V189.425H246.193V194H250.043V181.925H246.193V186.075H241.868V181.925H238.018V194H241.868ZM252.838 181.925V194H260.663C263.463 194 265.063 192.1 265.063 189.9C265.063 187.675 263.588 185.8 260.663 185.8H256.688V181.925H252.838ZM259.988 188.9C260.713 188.9 261.163 189.325 261.163 189.9C261.163 190.475 260.713 190.9 259.988 190.9H256.688V188.9H259.988ZM270.213 194V181.925H266.363V194H270.213ZM276.679 194L281.179 187.35V194H285.029V181.925H281.154L276.854 188.25V181.925H273.004V194H276.679ZM283.404 178.6L281.754 177.25C281.129 178.175 280.179 178.7 279.029 178.7C277.829 178.7 276.904 178.1 276.279 177.25L274.629 178.6C275.654 179.95 277.254 180.8 279.029 180.8C280.829 180.8 282.404 179.95 283.404 178.6ZM135.175 224.3C139.325 224.3 141.775 221.35 141.775 217.95C141.775 214.55 139.325 211.625 135.175 211.625C131.075 211.625 128.6 214.55 128.6 217.95C128.6 221.35 131.075 224.3 135.175 224.3ZM135.175 220.9C133.5 220.9 132.575 219.575 132.575 217.95C132.575 216.35 133.5 215.025 135.175 215.025C136.875 215.025 137.825 216.35 137.825 217.95C137.825 219.575 136.875 220.9 135.175 220.9ZM149.579 220.9C147.904 220.9 146.979 219.575 146.979 217.925C146.979 216.35 147.904 215.025 149.579 215.025C151.279 215.025 152.229 216.35 152.229 217.925C152.229 219.575 151.279 220.9 149.579 220.9ZM149.579 224.3C153.754 224.3 156.179 221.325 156.179 217.925C156.179 214.575 153.954 211.625 150.504 211.625C148.879 211.625 147.579 212.2 146.604 213.4C146.954 212.1 148.004 211.05 150.804 210.65C152.754 210.375 155.729 209.675 155.729 207.325H151.579C151.579 207.7 150.904 208 149.479 208.225C145.229 208.825 143.029 211.525 143.029 217.4C143.029 221.325 145.454 224.3 149.579 224.3ZM165.658 224.3C168.683 224.3 170.958 222.05 170.958 217.95C170.958 213.875 168.683 211.625 165.658 211.625C164.283 211.625 163.033 212.175 162.083 213.325V211.925H158.233V228.6H162.083V222.575C163.083 223.775 164.308 224.3 165.658 224.3ZM164.383 220.9C163.558 220.9 162.558 220.425 162.083 219.8V216.125C162.558 215.475 163.558 215.025 164.383 215.025C165.883 215.025 167.033 216.15 167.033 217.95C167.033 219.775 165.883 220.9 164.383 220.9ZM183.93 224V216.45C183.93 212.7 181.205 211.625 178.305 211.625C176.455 211.625 174.38 212.175 172.83 213.5L174.205 215.925C175.18 215.1 176.43 214.65 177.63 214.65C179.18 214.65 180.08 215.35 180.08 216.4V217.85C179.355 216.95 177.93 216.45 176.33 216.45C174.48 216.45 172.18 217.4 172.18 220.325C172.18 223.05 174.48 224.3 176.33 224.3C177.88 224.3 179.33 223.7 180.08 222.8V224H183.93ZM177.93 221.775C176.905 221.775 176.005 221.325 176.005 220.375C176.005 219.425 176.905 218.975 177.93 218.975C178.78 218.975 179.68 219.275 180.08 219.825V220.9C179.68 221.475 178.78 221.775 177.93 221.775ZM191.199 224.3C194.874 224.275 197.199 222.8 197.174 220.65C197.174 218.9 195.324 217.9 193.824 217.8C195.499 217.525 196.949 216.4 196.949 215C196.924 212.95 194.874 211.625 190.874 211.65C188.674 211.65 186.849 212.475 185.649 213.675L187.499 215.875C188.399 215.025 189.599 214.575 191.074 214.575C192.199 214.575 192.974 214.95 192.974 215.475C192.974 216.1 192.499 216.475 191.024 216.475H188.649V219.35H191.024C192.449 219.35 193.199 219.725 193.199 220.4C193.199 220.975 192.574 221.35 191.199 221.35C189.949 221.35 188.349 220.95 187.224 220.1L185.499 222.375C186.674 223.5 188.674 224.3 191.199 224.3ZM204.95 224.3C209.1 224.3 211.55 221.35 211.55 217.95C211.55 214.55 209.1 211.625 204.95 211.625C200.85 211.625 198.375 214.55 198.375 217.95C198.375 221.35 200.85 224.3 204.95 224.3ZM204.95 220.9C203.275 220.9 202.35 219.575 202.35 217.95C202.35 216.35 203.275 215.025 204.95 215.025C206.65 215.025 207.6 216.35 207.6 217.95C207.6 219.575 206.65 220.9 204.95 220.9ZM222.005 224C224.58 224 225.855 222.475 225.855 220.7C225.855 219.225 224.88 218.05 223.505 217.775C224.68 217.425 225.58 216.45 225.58 215.025C225.58 213.5 224.355 211.925 221.78 211.925H213.58V224H222.005ZM221.03 221.025H217.43V219.35H221.03C221.605 219.35 221.98 219.725 221.98 220.2C221.98 220.7 221.58 221.025 221.03 221.025ZM220.88 216.4H217.43V214.9H220.88C221.38 214.9 221.705 215.2 221.705 215.65C221.705 216.075 221.38 216.4 220.88 216.4ZM239.594 224V216.45C239.594 212.7 236.869 211.625 233.969 211.625C232.119 211.625 230.044 212.175 228.494 213.5L229.869 215.925C230.844 215.1 232.094 214.65 233.294 214.65C234.844 214.65 235.744 215.35 235.744 216.4V217.85C235.019 216.95 233.594 216.45 231.994 216.45C230.144 216.45 227.844 217.4 227.844 220.325C227.844 223.05 230.144 224.3 231.994 224.3C233.544 224.3 234.994 223.7 235.744 222.8V224H239.594ZM233.594 221.775C232.569 221.775 231.669 221.325 231.669 220.375C231.669 219.425 232.569 218.975 233.594 218.975C234.444 218.975 235.344 219.275 235.744 219.825V220.9C235.344 221.475 234.444 221.775 233.594 221.775ZM248.538 224V215.275H251.813V211.925H241.388V215.275H244.688V224H248.538ZM259.419 224.3C261.269 224.3 263.269 223.775 264.469 222.7L262.844 220.3C262.169 220.95 260.694 221.325 259.844 221.325C258.094 221.325 257.044 220.3 256.819 219.175H265.419V218.35C265.419 214.25 262.819 211.625 259.244 211.625C255.469 211.625 252.819 214.45 252.819 217.95C252.819 221.875 255.694 224.3 259.419 224.3ZM261.744 216.675H256.769C256.919 215.8 257.569 214.6 259.244 214.6C261.019 214.6 261.644 215.825 261.744 216.675ZM266.365 224.3C269.915 224.3 271.465 222.175 271.965 218.225L272.34 215.275H275.49V224H279.34V211.925H269.015L268.215 217.725C267.865 220.35 267.265 221.15 266.365 221.15V224.3ZM282.134 211.925V224H289.959C292.759 224 294.359 222.1 294.359 219.9C294.359 217.675 292.884 215.8 289.959 215.8H285.984V211.925H282.134ZM289.284 218.9C290.009 218.9 290.459 219.325 290.459 219.9C290.459 220.475 290.009 220.9 289.284 220.9H285.984V218.9H289.284ZM300.218 224V219.425H304.543V224H308.393V211.925H304.543V216.075H300.218V211.925H296.368V224H300.218ZM311.187 211.925V224H319.012C321.812 224 323.412 222.1 323.412 219.9C323.412 217.675 321.937 215.8 319.012 215.8H315.037V211.925H311.187ZM318.337 218.9C319.062 218.9 319.512 219.325 319.512 219.9C319.512 220.475 319.062 220.9 318.337 220.9H315.037V218.9H318.337ZM328.562 224V211.925H324.712V224H328.562ZM335.028 224L339.528 217.35V224H343.378V211.925H339.503L335.203 218.25V211.925H331.353V224H335.028ZM341.753 208.6L340.103 207.25C339.478 208.175 338.528 208.7 337.378 208.7C336.178 208.7 335.253 208.1 334.628 207.25L332.978 208.6C334.003 209.95 335.603 210.8 337.378 210.8C339.178 210.8 340.753 209.95 341.753 208.6ZM358.719 224V215.275H361.994V211.925H351.569V215.275H354.869V224H358.719ZM371.224 224.3C374.249 224.3 376.524 222.05 376.524 217.95C376.524 213.875 374.249 211.625 371.224 211.625C369.849 211.625 368.599 212.175 367.649 213.325V211.925H363.799V228.6H367.649V222.575C368.649 223.775 369.874 224.3 371.224 224.3ZM369.949 220.9C369.124 220.9 368.124 220.425 367.649 219.8V216.125C368.124 215.475 369.124 215.025 369.949 215.025C371.449 215.025 372.599 216.15 372.599 217.95C372.599 219.775 371.449 220.9 369.949 220.9ZM384.321 224.3C386.171 224.3 388.171 223.775 389.371 222.7L387.746 220.3C387.071 220.95 385.596 221.325 384.746 221.325C382.996 221.325 381.946 220.3 381.721 219.175H390.321V218.35C390.321 214.25 387.721 211.625 384.146 211.625C380.371 211.625 377.721 214.45 377.721 217.95C377.721 221.875 380.596 224.3 384.321 224.3ZM386.646 216.675H381.671C381.821 215.8 382.471 214.6 384.146 214.6C385.921 214.6 386.546 215.825 386.646 216.675ZM404.617 224L399.942 217.425L404.392 211.925H399.742L396.067 216.75V211.925H392.217V224H396.067V221.1L397.217 219.725L399.867 224H404.617Z" fill="#223549"/>
<path d="M405.025 298V281.325H389.5V298H393.8V285.075H400.725V298H405.025ZM413.705 298.3C417.855 298.3 420.305 295.35 420.305 291.95C420.305 288.55 417.855 285.625 413.705 285.625C409.605 285.625 407.13 288.55 407.13 291.95C407.13 295.35 409.605 298.3 413.705 298.3ZM413.705 294.9C412.03 294.9 411.105 293.575 411.105 291.95C411.105 290.35 412.03 289.025 413.705 289.025C415.405 289.025 416.355 290.35 416.355 291.95C416.355 293.575 415.405 294.9 413.705 294.9ZM421.385 301.075H425.235V298H431.835V301.075H435.685V294.65H434.36V285.925H424.035L423.235 291.725C422.885 294.35 422.285 294.725 421.385 294.8V301.075ZM427.36 289.275H430.51V294.65H425.86C426.485 294 426.885 293.075 427.035 291.85L427.36 289.275ZM447.046 285.925H437.471V298H441.321V289.275H447.046V285.925ZM454.623 298.3C458.773 298.3 461.223 295.35 461.223 291.95C461.223 288.55 458.773 285.625 454.623 285.625C450.523 285.625 448.048 288.55 448.048 291.95C448.048 295.35 450.523 298.3 454.623 298.3ZM454.623 294.9C452.948 294.9 452.023 293.575 452.023 291.95C452.023 290.35 452.948 289.025 454.623 289.025C456.323 289.025 457.273 290.35 457.273 291.95C457.273 293.575 456.323 294.9 454.623 294.9ZM469.403 298V289.275H472.678V285.925H462.253V289.275H465.553V298H469.403ZM480.258 298.3C484.408 298.3 486.858 295.35 486.858 291.95C486.858 288.55 484.408 285.625 480.258 285.625C476.158 285.625 473.683 288.55 473.683 291.95C473.683 295.35 476.158 298.3 480.258 298.3ZM480.258 294.9C478.583 294.9 477.658 293.575 477.658 291.95C477.658 290.35 478.583 289.025 480.258 289.025C481.958 289.025 482.908 290.35 482.908 291.95C482.908 293.575 481.958 294.9 480.258 294.9ZM497.312 298C499.887 298 501.162 296.475 501.162 294.7C501.162 293.225 500.187 292.05 498.812 291.775C499.987 291.425 500.887 290.45 500.887 289.025C500.887 287.5 499.662 285.925 497.087 285.925H488.887V298H497.312ZM496.337 295.025H492.737V293.35H496.337C496.912 293.35 497.287 293.725 497.287 294.2C497.287 294.7 496.887 295.025 496.337 295.025ZM496.187 290.4H492.737V288.9H496.187C496.687 288.9 497.012 289.2 497.012 289.65C497.012 290.075 496.687 290.4 496.187 290.4ZM503.926 285.925V298H511.751C514.551 298 516.151 296.1 516.151 293.9C516.151 291.675 514.676 289.8 511.751 289.8H507.776V285.925H503.926ZM511.076 292.9C511.801 292.9 512.251 293.325 512.251 293.9C512.251 294.475 511.801 294.9 511.076 294.9H507.776V292.9H511.076ZM523.606 301.075H527.456V298H534.056V301.075H537.906V294.65H536.581V285.925H526.256L525.456 291.725C525.106 294.35 524.506 294.725 523.606 294.8V301.075ZM529.581 289.275H532.731V294.65H528.081C528.706 294 529.106 293.075 529.256 291.85L529.581 289.275ZM545.468 298.3C549.618 298.3 552.068 295.35 552.068 291.95C552.068 288.55 549.618 285.625 545.468 285.625C541.368 285.625 538.893 288.55 538.893 291.95C538.893 295.35 541.368 298.3 545.468 298.3ZM545.468 294.9C543.793 294.9 542.868 293.575 542.868 291.95C542.868 290.35 543.793 289.025 545.468 289.025C547.168 289.025 548.118 290.35 548.118 291.95C548.118 293.575 547.168 294.9 545.468 294.9ZM566.497 298L561.822 291.425L566.272 285.925H561.622L557.947 290.75V285.925H554.097V298H557.947V295.1L559.097 293.725L561.747 298H566.497ZM567.495 302.7C567.895 302.825 568.795 302.9 569.145 302.9C571.445 302.85 573.27 302.275 574.245 299.725L579.695 285.925H575.62L572.87 293.575L570.145 285.925H566.095L570.895 298.175L570.62 298.825C570.42 299.325 569.87 299.5 568.995 299.5C568.695 299.5 568.32 299.425 568.045 299.275L567.495 302.7ZM596.055 298V285.925H590.98L588.455 292.45L585.93 285.925H580.855V298H584.705V290.775L587.48 298H589.455L592.23 290.775V298H596.055ZM604.648 298.3C606.498 298.3 608.498 297.775 609.698 296.7L608.073 294.3C607.398 294.95 605.923 295.325 605.073 295.325C603.323 295.325 602.273 294.3 602.048 293.175H610.648V292.35C610.648 288.25 608.048 285.625 604.473 285.625C600.698 285.625 598.048 288.45 598.048 291.95C598.048 295.875 600.923 298.3 604.648 298.3ZM606.973 290.675H601.998C602.148 289.8 602.798 288.6 604.473 288.6C606.248 288.6 606.873 289.825 606.973 290.675ZM616.395 298V293.425H620.72V298H624.57V285.925H620.72V290.075H616.395V285.925H612.545V298H616.395ZM633.514 298V289.275H636.789V285.925H626.364V289.275H629.664V298H633.514ZM638.594 285.925V298H646.419C649.219 298 650.819 296.1 650.819 293.9C650.819 291.675 649.344 289.8 646.419 289.8H642.444V285.925H638.594ZM645.744 292.9C646.469 292.9 646.919 293.325 646.919 293.9C646.919 294.475 646.469 294.9 645.744 294.9H642.444V292.9H645.744ZM655.969 298V285.925H652.119V298H655.969ZM393.075 328L397.575 321.35V328H401.425V315.925H397.55L393.25 322.25V315.925H389.4V328H393.075ZM416.391 328.3C420.541 328.3 422.991 325.35 422.991 321.95C422.991 318.55 420.541 315.625 416.391 315.625C412.291 315.625 409.816 318.55 409.816 321.95C409.816 325.35 412.291 328.3 416.391 328.3ZM416.391 324.9C414.716 324.9 413.791 323.575 413.791 321.95C413.791 320.35 414.716 319.025 416.391 319.025C418.091 319.025 419.041 320.35 419.041 321.95C419.041 323.575 418.091 324.9 416.391 324.9ZM437.045 328V315.925H425.02V328H428.87V319.275H433.195V328H437.045ZM447.264 328.3C450.289 328.3 452.564 326.05 452.564 321.95C452.564 317.875 450.289 315.625 447.264 315.625C445.889 315.625 444.639 316.175 443.689 317.325V315.925H439.839V332.6H443.689V326.575C444.689 327.775 445.914 328.3 447.264 328.3ZM445.989 324.9C445.164 324.9 444.164 324.425 443.689 323.8V320.125C444.164 319.475 445.164 319.025 445.989 319.025C447.489 319.025 448.639 320.15 448.639 321.95C448.639 323.775 447.489 324.9 445.989 324.9ZM460.361 328.3C462.211 328.3 464.211 327.775 465.411 326.7L463.786 324.3C463.111 324.95 461.636 325.325 460.786 325.325C459.036 325.325 457.986 324.3 457.761 323.175H466.361V322.35C466.361 318.25 463.761 315.625 460.186 315.625C456.411 315.625 453.761 318.45 453.761 321.95C453.761 325.875 456.636 328.3 460.361 328.3ZM462.686 320.675H457.711C457.861 319.8 458.511 318.6 460.186 318.6C461.961 318.6 462.586 319.825 462.686 320.675ZM467.307 331.075H471.157V328H477.757V331.075H481.607V324.65H480.282V315.925H469.957L469.157 321.725C468.807 324.35 468.207 324.725 467.307 324.8V331.075ZM473.282 319.275H476.432V324.65H471.782C472.407 324 472.807 323.075 472.957 321.85L473.282 319.275ZM489.194 328.3C491.044 328.3 493.044 327.775 494.244 326.7L492.619 324.3C491.944 324.95 490.469 325.325 489.619 325.325C487.869 325.325 486.819 324.3 486.594 323.175H495.194V322.35C495.194 318.25 492.594 315.625 489.019 315.625C485.244 315.625 482.594 318.45 482.594 321.95C482.594 325.875 485.469 328.3 489.194 328.3ZM491.519 320.675H486.544C486.694 319.8 487.344 318.6 489.019 318.6C490.794 318.6 491.419 319.825 491.519 320.675ZM496.14 328.3C499.69 328.3 501.24 326.175 501.74 322.225L502.115 319.275H505.265V328H509.115V315.925H498.79L497.99 321.725C497.64 324.35 497.04 325.15 496.14 325.15V328.3ZM515.585 328L520.085 321.35V328H523.935V315.925H520.06L515.76 322.25V315.925H511.91V328H515.585ZM532.529 328.3C535.129 328.3 536.754 327.125 537.479 326.075L534.979 323.725C534.504 324.4 533.729 324.9 532.704 324.9C531.104 324.9 529.879 323.775 529.879 321.95C529.879 320.125 531.104 319.025 532.704 319.025C533.729 319.025 534.504 319.475 534.979 320.175L537.479 317.85C536.754 316.775 535.129 315.625 532.529 315.625C528.754 315.625 525.929 318.175 525.929 321.95C525.929 325.75 528.754 328.3 532.529 328.3ZM539.229 315.925V328H547.054C549.854 328 551.454 326.1 551.454 323.9C551.454 321.675 549.979 319.8 547.054 319.8H543.079V315.925H539.229ZM546.379 322.9C547.104 322.9 547.554 323.325 547.554 323.9C547.554 324.475 547.104 324.9 546.379 324.9H543.079V322.9H546.379ZM565.659 328.3C568.259 328.3 569.884 327.125 570.609 326.075L568.109 323.725C567.634 324.4 566.859 324.9 565.834 324.9C564.234 324.9 563.009 323.775 563.009 321.95C563.009 320.125 564.234 319.025 565.834 319.025C566.859 319.025 567.634 319.475 568.109 320.175L570.609 317.85C569.884 316.775 568.259 315.625 565.659 315.625C561.884 315.625 559.059 318.175 559.059 321.95C559.059 325.75 561.884 328.3 565.659 328.3ZM578.134 328.3C582.284 328.3 584.734 325.35 584.734 321.95C584.734 318.55 582.284 315.625 578.134 315.625C574.034 315.625 571.559 318.55 571.559 321.95C571.559 325.35 574.034 328.3 578.134 328.3ZM578.134 324.9C576.459 324.9 575.534 323.575 575.534 321.95C575.534 320.35 576.459 319.025 578.134 319.025C579.834 319.025 580.784 320.35 580.784 321.95C580.784 323.575 579.834 324.9 578.134 324.9ZM598.96 328.3C601.56 328.3 603.185 327.125 603.91 326.075L601.41 323.725C600.935 324.4 600.16 324.9 599.135 324.9C597.535 324.9 596.31 323.775 596.31 321.95C596.31 320.125 597.535 319.025 599.135 319.025C600.16 319.025 600.935 319.475 601.41 320.175L603.91 317.85C603.185 316.775 601.56 315.625 598.96 315.625C595.185 315.625 592.36 318.175 592.36 321.95C592.36 325.75 595.185 328.3 598.96 328.3ZM617.685 328V315.925H605.66V328H609.51V319.275H613.835V328H617.685ZM626.254 328.3C630.404 328.3 632.854 325.35 632.854 321.95C632.854 318.55 630.404 315.625 626.254 315.625C622.154 315.625 619.679 318.55 619.679 321.95C619.679 325.35 622.154 328.3 626.254 328.3ZM626.254 324.9C624.579 324.9 623.654 323.575 623.654 321.95C623.654 320.35 624.579 319.025 626.254 319.025C627.954 319.025 628.904 320.35 628.904 321.95C628.904 323.575 627.954 324.9 626.254 324.9ZM640.683 328.3C643.283 328.3 644.908 327.125 645.633 326.075L643.133 323.725C642.658 324.4 641.883 324.9 640.858 324.9C639.258 324.9 638.033 323.775 638.033 321.95C638.033 320.125 639.258 319.025 640.858 319.025C641.883 319.025 642.658 319.475 643.133 320.175L645.633 317.85C644.908 316.775 643.283 315.625 640.683 315.625C636.908 315.625 634.083 318.175 634.083 321.95C634.083 325.75 636.908 328.3 640.683 328.3ZM653.158 328.3C657.308 328.3 659.758 325.35 659.758 321.95C659.758 318.55 657.308 315.625 653.158 315.625C649.058 315.625 646.583 318.55 646.583 321.95C646.583 325.35 649.058 328.3 653.158 328.3ZM653.158 324.9C651.483 324.9 650.558 323.575 650.558 321.95C650.558 320.35 651.483 319.025 653.158 319.025C654.858 319.025 655.808 320.35 655.808 321.95C655.808 323.575 654.858 324.9 653.158 324.9ZM667.563 324.9C665.888 324.9 664.963 323.575 664.963 321.925C664.963 320.35 665.888 319.025 667.563 319.025C669.263 319.025 670.213 320.35 670.213 321.925C670.213 323.575 669.263 324.9 667.563 324.9ZM667.563 328.3C671.738 328.3 674.163 325.325 674.163 321.925C674.163 318.575 671.938 315.625 668.488 315.625C666.863 315.625 665.563 316.2 664.588 317.4C664.938 316.1 665.988 315.05 668.788 314.65C670.738 314.375 673.713 313.675 673.713 311.325H669.563C669.563 311.7 668.888 312 667.463 312.225C663.213 312.825 661.013 315.525 661.013 321.4C661.013 325.325 663.438 328.3 667.563 328.3ZM681.991 328.3C686.141 328.3 688.591 325.35 688.591 321.95C688.591 318.55 686.141 315.625 681.991 315.625C677.891 315.625 675.416 318.55 675.416 321.95C675.416 325.35 677.891 328.3 681.991 328.3ZM681.991 324.9C680.316 324.9 679.391 323.575 679.391 321.95C679.391 320.35 680.316 319.025 681.991 319.025C683.691 319.025 684.641 320.35 684.641 321.95C684.641 323.575 683.691 324.9 681.991 324.9ZM705.821 328V315.925H700.746L698.221 322.45L695.696 315.925H690.621V328H694.471V320.775L697.246 328H699.221L701.996 320.775V328H705.821ZM720.785 328.3C724.935 328.3 727.385 325.35 727.385 321.95C727.385 318.55 724.935 315.625 720.785 315.625C716.685 315.625 714.21 318.55 714.21 321.95C714.21 325.35 716.685 328.3 720.785 328.3ZM720.785 324.9C719.11 324.9 718.185 323.575 718.185 321.95C718.185 320.35 719.11 319.025 720.785 319.025C722.485 319.025 723.435 320.35 723.435 321.95C723.435 323.575 722.485 324.9 720.785 324.9ZM741.44 328V315.925H729.415V328H733.265V319.275H737.59V328H741.44ZM743.284 328.3C746.834 328.3 748.384 326.175 748.884 322.225L749.259 319.275H752.409V328H756.259V315.925H745.934L745.134 321.725C744.784 324.35 744.184 325.15 743.284 325.15V328.3ZM770.028 328V320.45C770.028 316.7 767.303 315.625 764.403 315.625C762.553 315.625 760.478 316.175 758.928 317.5L760.303 319.925C761.278 319.1 762.528 318.65 763.728 318.65C765.278 318.65 766.178 319.35 766.178 320.4V321.85C765.453 320.95 764.028 320.45 762.428 320.45C760.578 320.45 758.278 321.4 758.278 324.325C758.278 327.05 760.578 328.3 762.428 328.3C763.978 328.3 765.428 327.7 766.178 326.8V328H770.028ZM764.028 325.775C763.003 325.775 762.103 325.325 762.103 324.375C762.103 323.425 763.003 322.975 764.028 322.975C764.878 322.975 765.778 323.275 766.178 323.825V324.9C765.778 325.475 764.878 325.775 764.028 325.775ZM778.973 328V319.275H782.248V315.925H771.823V319.275H775.123V328H778.973ZM784.053 315.925V328H791.878C794.678 328 796.278 326.1 796.278 323.9C796.278 321.675 794.803 319.8 791.878 319.8H787.903V315.925H784.053ZM791.203 322.9C791.928 322.9 792.378 323.325 792.378 323.9C792.378 324.475 791.928 324.9 791.203 324.9H787.903V322.9H791.203ZM801.428 328V315.925H797.578V328H801.428Z" fill="#223549"/>
<path d="M211.025 429V412.325H195.5V429H199.8V416.075H206.725V429H211.025ZM219.705 429.3C223.855 429.3 226.305 426.35 226.305 422.95C226.305 419.55 223.855 416.625 219.705 416.625C215.605 416.625 213.13 419.55 213.13 422.95C213.13 426.35 215.605 429.3 219.705 429.3ZM219.705 425.9C218.03 425.9 217.105 424.575 217.105 422.95C217.105 421.35 218.03 420.025 219.705 420.025C221.405 420.025 222.355 421.35 222.355 422.95C222.355 424.575 221.405 425.9 219.705 425.9ZM237.91 416.925H228.335V429H232.185V420.275H237.91V416.925ZM247.137 429.3C250.162 429.3 252.437 427.05 252.437 422.95C252.437 418.875 250.162 416.625 247.137 416.625C245.762 416.625 244.512 417.175 243.562 418.325V416.925H239.712V433.6H243.562V427.575C244.562 428.775 245.787 429.3 247.137 429.3ZM245.862 425.9C245.037 425.9 244.037 425.425 243.562 424.8V421.125C244.037 420.475 245.037 420.025 245.862 420.025C247.362 420.025 248.512 421.15 248.512 422.95C248.512 424.775 247.362 425.9 245.862 425.9ZM254.183 433.7C254.583 433.825 255.483 433.9 255.833 433.9C258.133 433.85 259.958 433.275 260.933 430.725L266.383 416.925H262.308L259.558 424.575L256.833 416.925H252.783L257.583 429.175L257.308 429.825C257.108 430.325 256.558 430.5 255.683 430.5C255.383 430.5 255.008 430.425 254.733 430.275L254.183 433.7ZM272.019 429.3C275.694 429.275 278.019 427.8 277.994 425.65C277.994 423.9 276.144 422.9 274.644 422.8C276.319 422.525 277.769 421.4 277.769 420C277.744 417.95 275.694 416.625 271.694 416.65C269.494 416.65 267.669 417.475 266.469 418.675L268.319 420.875C269.219 420.025 270.419 419.575 271.894 419.575C273.019 419.575 273.794 419.95 273.794 420.475C273.794 421.1 273.319 421.475 271.844 421.475H269.469V424.35H271.844C273.269 424.35 274.019 424.725 274.019 425.4C274.019 425.975 273.394 426.35 272.019 426.35C270.769 426.35 269.169 425.95 268.044 425.1L266.319 427.375C267.494 428.5 269.494 429.3 272.019 429.3ZM283.67 429L288.17 422.35V429H292.02V416.925H288.145L283.845 423.25V416.925H279.995V429H283.67ZM300.614 429.3C303.214 429.3 304.839 428.125 305.564 427.075L303.064 424.725C302.589 425.4 301.814 425.9 300.789 425.9C299.189 425.9 297.964 424.775 297.964 422.95C297.964 421.125 299.189 420.025 300.789 420.025C301.814 420.025 302.589 420.475 303.064 421.175L305.564 418.85C304.839 417.775 303.214 416.625 300.614 416.625C296.839 416.625 294.014 419.175 294.014 422.95C294.014 426.75 296.839 429.3 300.614 429.3ZM307.314 416.925V429H315.139C317.939 429 319.539 427.1 319.539 424.9C319.539 422.675 318.064 420.8 315.139 420.8H311.164V416.925H307.314ZM314.464 423.9C315.189 423.9 315.639 424.325 315.639 424.9C315.639 425.475 315.189 425.9 314.464 425.9H311.164V423.9H314.464ZM336.369 429C338.944 429 340.219 427.475 340.219 425.7C340.219 424.225 339.244 423.05 337.869 422.775C339.044 422.425 339.944 421.45 339.944 420.025C339.944 418.5 338.719 416.925 336.144 416.925H327.944V429H336.369ZM335.394 426.025H331.794V424.35H335.394C335.969 424.35 336.344 424.725 336.344 425.2C336.344 425.7 335.944 426.025 335.394 426.025ZM335.244 421.4H331.794V419.9H335.244C335.744 419.9 336.069 420.2 336.069 420.65C336.069 421.075 335.744 421.4 335.244 421.4ZM364.579 429V416.925H359.504L356.979 423.45L354.454 416.925H349.379V429H353.229V421.775L356.004 429H357.979L360.754 421.775V429H364.579ZM371.048 429L375.548 422.35V429H379.398V416.925H375.523L371.223 423.25V416.925H367.373V429H371.048ZM389.617 429.3C392.642 429.3 394.917 427.05 394.917 422.95C394.917 418.875 392.642 416.625 389.617 416.625C388.242 416.625 386.992 417.175 386.042 418.325V416.925H382.192V433.6H386.042V427.575C387.042 428.775 388.267 429.3 389.617 429.3ZM388.342 425.9C387.517 425.9 386.517 425.425 386.042 424.8V421.125C386.517 420.475 387.517 420.025 388.342 420.025C389.842 420.025 390.992 421.15 390.992 422.95C390.992 424.775 389.842 425.9 388.342 425.9ZM418.51 429V416.925H413.435L410.91 423.45L408.385 416.925H403.31V429H407.16V421.775L409.935 429H411.91L414.685 421.775V429H418.51ZM432.278 429V421.45C432.278 417.7 429.553 416.625 426.653 416.625C424.803 416.625 422.728 417.175 421.178 418.5L422.553 420.925C423.528 420.1 424.778 419.65 425.978 419.65C427.528 419.65 428.428 420.35 428.428 421.4V422.85C427.703 421.95 426.278 421.45 424.678 421.45C422.828 421.45 420.528 422.4 420.528 425.325C420.528 428.05 422.828 429.3 424.678 429.3C426.228 429.3 427.678 428.7 428.428 427.8V429H432.278ZM426.278 426.775C425.253 426.775 424.353 426.325 424.353 425.375C424.353 424.425 425.253 423.975 426.278 423.975C427.128 423.975 428.028 424.275 428.428 424.825V425.9C428.028 426.475 427.128 426.775 426.278 426.775ZM442.498 429.3C445.523 429.3 447.798 427.05 447.798 422.95C447.798 418.875 445.523 416.625 442.498 416.625C441.123 416.625 439.873 417.175 438.923 418.325V416.925H435.073V433.6H438.923V427.575C439.923 428.775 441.148 429.3 442.498 429.3ZM441.223 425.9C440.398 425.9 439.398 425.425 438.923 424.8V421.125C439.398 420.475 440.398 420.025 441.223 420.025C442.723 420.025 443.873 421.15 443.873 422.95C443.873 424.775 442.723 425.9 441.223 425.9ZM462.195 429L457.52 422.425L461.97 416.925H457.32L453.645 421.75V416.925H449.795V429H453.645V426.1L454.795 424.725L457.445 429H462.195ZM469.047 429.3C470.897 429.3 472.897 428.775 474.097 427.7L472.472 425.3C471.797 425.95 470.322 426.325 469.472 426.325C467.722 426.325 466.672 425.3 466.447 424.175H475.047V423.35C475.047 419.25 472.447 416.625 468.872 416.625C465.097 416.625 462.447 419.45 462.447 422.95C462.447 426.875 465.322 429.3 469.047 429.3ZM471.372 421.675H466.397C466.547 420.8 467.197 419.6 468.872 419.6C470.647 419.6 471.272 420.825 471.372 421.675ZM483.093 429V420.275H486.368V416.925H475.943V420.275H479.243V429H483.093ZM491.848 429L496.348 422.35V429H500.198V416.925H496.323L492.023 423.25V416.925H488.173V429H491.848ZM506.843 429V424.425H511.168V429H515.018V416.925H511.168V421.075H506.843V416.925H502.993V429H506.843ZM527.387 416.925H517.812V429H521.662V420.275H527.387V416.925ZM540.164 429V421.45C540.164 417.7 537.439 416.625 534.539 416.625C532.689 416.625 530.614 417.175 529.064 418.5L530.439 420.925C531.414 420.1 532.664 419.65 533.864 419.65C535.414 419.65 536.314 420.35 536.314 421.4V422.85C535.589 421.95 534.164 421.45 532.564 421.45C530.714 421.45 528.414 422.4 528.414 425.325C528.414 428.05 530.714 429.3 532.564 429.3C534.114 429.3 535.564 428.7 536.314 427.8V429H540.164ZM534.164 426.775C533.139 426.775 532.239 426.325 532.239 425.375C532.239 424.425 533.139 423.975 534.164 423.975C535.014 423.975 535.914 424.275 536.314 424.825V425.9C535.914 426.475 535.014 426.775 534.164 426.775ZM207.425 459V446.925H195.4V459H199.25V450.275H203.575V459H207.425ZM217.644 459.3C220.669 459.3 222.944 457.05 222.944 452.95C222.944 448.875 220.669 446.625 217.644 446.625C216.269 446.625 215.019 447.175 214.069 448.325V446.925H210.219V463.6H214.069V457.575C215.069 458.775 216.294 459.3 217.644 459.3ZM216.369 455.9C215.544 455.9 214.544 455.425 214.069 454.8V451.125C214.544 450.475 215.544 450.025 216.369 450.025C217.869 450.025 219.019 451.15 219.019 452.95C219.019 454.775 217.869 455.9 216.369 455.9ZM228.616 459L233.116 452.35V459H236.966V446.925H233.091L228.791 453.25V446.925H224.941V459H228.616ZM258.182 459V446.925H246.157V459H250.007V450.275H254.332V459H258.182ZM266.751 459.3C270.901 459.3 273.351 456.35 273.351 452.95C273.351 449.55 270.901 446.625 266.751 446.625C262.651 446.625 260.176 449.55 260.176 452.95C260.176 456.35 262.651 459.3 266.751 459.3ZM266.751 455.9C265.076 455.9 264.151 454.575 264.151 452.95C264.151 451.35 265.076 450.025 266.751 450.025C268.451 450.025 269.401 451.35 269.401 452.95C269.401 454.575 268.451 455.9 266.751 455.9ZM290.58 459V446.925H285.505L282.98 453.45L280.455 446.925H275.38V459H279.23V451.775L282.005 459H283.98L286.755 451.775V459H290.58ZM299.149 459.3C303.299 459.3 305.749 456.35 305.749 452.95C305.749 449.55 303.299 446.625 299.149 446.625C295.049 446.625 292.574 449.55 292.574 452.95C292.574 456.35 295.049 459.3 299.149 459.3ZM299.149 455.9C297.474 455.9 296.549 454.575 296.549 452.95C296.549 451.35 297.474 450.025 299.149 450.025C300.849 450.025 301.799 451.35 301.799 452.95C301.799 454.575 300.849 455.9 299.149 455.9ZM322.603 446.925V455.65H319.053V446.925H315.203V455.65H311.628V446.925H307.778V459H324.028V462.075H327.853V455.65H326.453V446.925H322.603ZM333.304 459L337.804 452.35V459H341.654V446.925H337.779L333.479 453.25V446.925H329.629V459H333.304ZM369.869 459V442.325H363.894L360.394 451.375L356.919 442.325H350.944V459H355.244V448.15L359.444 459H361.344L365.569 448.15V459H369.869ZM389.068 459L382.768 442.325H377.368L371.093 459H375.968L376.793 456.6H383.368L384.193 459H389.068ZM382.193 452.85H377.943L380.068 446.575L382.193 452.85ZM402.525 459V455.25H394.6V452.425H402.35V448.675H394.6V446.075H402.525V442.325H390.3V459H402.525ZM412.046 459C417.271 459 421.046 455.825 421.046 450.65C421.046 445.475 417.271 442.325 412.021 442.325H405.021V459H412.046ZM412.021 455.25H409.321V446.075H412.046C415.096 446.075 416.646 448.075 416.646 450.65C416.646 453.125 414.946 455.25 412.021 455.25Z" fill="#223549"/>
<path d="M147.749 581V561.657H129.74V581H134.728V566.007H142.761V581H147.749ZM157.818 581.348C162.632 581.348 165.474 577.926 165.474 573.982C165.474 570.038 162.632 566.645 157.818 566.645C153.062 566.645 150.191 570.038 150.191 573.982C150.191 577.926 153.062 581.348 157.818 581.348ZM157.818 577.404C155.875 577.404 154.802 575.867 154.802 573.982C154.802 572.126 155.875 570.589 157.818 570.589C159.79 570.589 160.892 572.126 160.892 573.982C160.892 575.867 159.79 577.404 157.818 577.404ZM173.019 581.348C177.282 581.319 179.979 579.608 179.95 577.114C179.95 575.084 177.804 573.924 176.064 573.808C178.007 573.489 179.689 572.184 179.689 570.56C179.66 568.182 177.282 566.645 172.642 566.674C170.09 566.674 167.973 567.631 166.581 569.023L168.727 571.575C169.771 570.589 171.163 570.067 172.874 570.067C174.179 570.067 175.078 570.502 175.078 571.111C175.078 571.836 174.527 572.271 172.816 572.271H170.061V575.606H172.816C174.469 575.606 175.339 576.041 175.339 576.824C175.339 577.491 174.614 577.926 173.019 577.926C171.569 577.926 169.713 577.462 168.408 576.476L166.407 579.115C167.77 580.42 170.09 581.348 173.019 581.348ZM181.169 584.567H185.635V581H193.291V584.567H197.757V577.114H196.22V566.993H184.243L183.315 573.721C182.909 576.766 182.213 577.201 181.169 577.288V584.567ZM188.1 570.879H191.754V577.114H186.36C187.085 576.36 187.549 575.287 187.723 573.866L188.1 570.879ZM208.443 581.348C211.952 581.348 214.591 578.738 214.591 573.982C214.591 569.255 211.952 566.645 208.443 566.645C206.848 566.645 205.398 567.283 204.296 568.617V566.993H199.83V586.336H204.296V579.347C205.456 580.739 206.877 581.348 208.443 581.348ZM206.964 577.404C206.007 577.404 204.847 576.853 204.296 576.128V571.865C204.847 571.111 206.007 570.589 206.964 570.589C208.704 570.589 210.038 571.894 210.038 573.982C210.038 576.099 208.704 577.404 206.964 577.404ZM229.638 581V572.242C229.638 567.892 226.477 566.645 223.113 566.645C220.967 566.645 218.56 567.283 216.762 568.82L218.357 571.633C219.488 570.676 220.938 570.154 222.33 570.154C224.128 570.154 225.172 570.966 225.172 572.184V573.866C224.331 572.822 222.678 572.242 220.822 572.242C218.676 572.242 216.008 573.344 216.008 576.737C216.008 579.898 218.676 581.348 220.822 581.348C222.62 581.348 224.302 580.652 225.172 579.608V581H229.638ZM222.678 578.419C221.489 578.419 220.445 577.897 220.445 576.795C220.445 575.693 221.489 575.171 222.678 575.171C223.664 575.171 224.708 575.519 225.172 576.157V577.404C224.708 578.071 223.664 578.419 222.678 578.419ZM242.653 581C245.64 581 247.119 579.231 247.119 577.172C247.119 575.461 245.988 574.098 244.393 573.779C245.756 573.373 246.8 572.242 246.8 570.589C246.8 568.82 245.379 566.993 242.392 566.993H232.88V581H242.653ZM241.522 577.549H237.346V575.606H241.522C242.189 575.606 242.624 576.041 242.624 576.592C242.624 577.172 242.16 577.549 241.522 577.549ZM241.348 572.184H237.346V570.444H241.348C241.928 570.444 242.305 570.792 242.305 571.314C242.305 571.807 241.928 572.184 241.348 572.184ZM249.223 581.348C253.341 581.348 255.139 578.883 255.719 574.301L256.154 570.879H259.808V581H264.274V566.993H252.297L251.369 573.721C250.963 576.766 250.267 577.694 249.223 577.694V581.348ZM272.127 581L274.476 576.505H276.941V581H281.407V566.993H272.33C269.082 566.993 267.226 569.197 267.226 571.749C267.226 574.33 268.821 575.664 270.155 576.128L267.139 581H272.127ZM273.113 572.909C272.272 572.909 271.75 572.416 271.75 571.749C271.75 571.082 272.301 570.589 273.113 570.589H276.941V572.909H273.113ZM291.292 581.348C293.438 581.348 295.758 580.739 297.15 579.492L295.265 576.708C294.482 577.462 292.771 577.897 291.785 577.897C289.755 577.897 288.537 576.708 288.276 575.403H298.252V574.446C298.252 569.69 295.236 566.645 291.089 566.645C286.71 566.645 283.636 569.922 283.636 573.982C283.636 578.535 286.971 581.348 291.292 581.348ZM293.989 572.503H288.218C288.392 571.488 289.146 570.096 291.089 570.096C293.148 570.096 293.873 571.517 293.989 572.503ZM318.084 581V566.993H312.197L309.268 574.562L306.339 566.993H300.452V581H304.918V572.619L308.137 581H310.428L313.647 572.619V581H318.084ZM325.587 574.243L326.254 561.657H320.918L321.614 574.243H325.587ZM323.586 581.319C325.065 581.319 326.312 580.072 326.312 578.622C326.312 577.143 325.065 575.896 323.586 575.896C322.107 575.896 320.889 577.143 320.889 578.622C320.889 580.072 322.107 581.319 323.586 581.319ZM345.929 581V566.007H351.323V561.657H335.518V566.007H340.941V581H345.929ZM357.732 581.348C359.878 581.348 362.198 580.739 363.59 579.492L361.705 576.708C360.922 577.462 359.211 577.897 358.225 577.897C356.195 577.897 354.977 576.708 354.716 575.403H364.692V574.446C364.692 569.69 361.676 566.645 357.529 566.645C353.15 566.645 350.076 569.922 350.076 573.982C350.076 578.535 353.411 581.348 357.732 581.348ZM360.429 572.503H354.658C354.832 571.488 355.586 570.096 357.529 570.096C359.588 570.096 360.313 571.517 360.429 572.503ZM380.841 581V566.993H366.892V581H371.358V570.879H376.375V581H380.841ZM390.81 581.348C392.956 581.348 395.276 580.739 396.668 579.492L394.783 576.708C394 577.462 392.289 577.897 391.303 577.897C389.273 577.897 388.055 576.708 387.794 575.403H397.77V574.446C397.77 569.69 394.754 566.645 390.607 566.645C386.228 566.645 383.154 569.922 383.154 573.982C383.154 578.535 386.489 581.348 390.81 581.348ZM393.507 572.503H387.736C387.91 571.488 388.664 570.096 390.607 570.096C392.666 570.096 393.391 571.517 393.507 572.503ZM408.583 581.348C412.092 581.348 414.731 578.738 414.731 573.982C414.731 569.255 412.092 566.645 408.583 566.645C406.988 566.645 405.538 567.283 404.436 568.617V566.993H399.97V586.336H404.436V579.347C405.596 580.739 407.017 581.348 408.583 581.348ZM407.104 577.404C406.147 577.404 404.987 576.853 404.436 576.128V571.865C404.987 571.111 406.147 570.589 407.104 570.589C408.844 570.589 410.178 571.894 410.178 573.982C410.178 576.099 408.844 577.404 407.104 577.404ZM417.047 566.993V581H426.124C429.372 581 431.228 578.796 431.228 576.244C431.228 573.663 429.517 571.488 426.124 571.488H421.513V566.993H417.047ZM425.341 575.084C426.182 575.084 426.704 575.577 426.704 576.244C426.704 576.911 426.182 577.404 425.341 577.404H421.513V575.084H425.341ZM448.112 581V570.879H451.911V566.993H439.818V570.879H443.646V581H448.112ZM454.005 566.993V581H463.082C466.33 581 468.186 578.796 468.186 576.244C468.186 573.663 466.475 571.488 463.082 571.488H458.471V566.993H454.005ZM462.299 575.084C463.14 575.084 463.662 575.577 463.662 576.244C463.662 576.911 463.14 577.404 462.299 577.404H458.471V575.084H462.299ZM474.16 581V566.993H469.694V581H474.16ZM494.59 581C497.577 581 499.056 579.231 499.056 577.172C499.056 575.461 497.925 574.098 496.33 573.779C497.693 573.373 498.737 572.242 498.737 570.589C498.737 568.82 497.316 566.993 494.329 566.993H484.817V581H494.59ZM493.459 577.549H489.283V575.606H493.459C494.126 575.606 494.561 576.041 494.561 576.592C494.561 577.172 494.097 577.549 493.459 577.549ZM493.285 572.184H489.283V570.444H493.285C493.865 570.444 494.242 570.792 494.242 571.314C494.242 571.807 493.865 572.184 493.285 572.184ZM524.067 581L518.644 573.373L523.806 566.993H518.412L514.149 572.59V566.993H509.683V581H514.149V577.636L515.483 576.041L518.557 581H524.067ZM531.986 581.348C536.8 581.348 539.642 577.926 539.642 573.982C539.642 570.038 536.8 566.645 531.986 566.645C527.23 566.645 524.359 570.038 524.359 573.982C524.359 577.926 527.23 581.348 531.986 581.348ZM531.986 577.404C530.043 577.404 528.97 575.867 528.97 573.982C528.97 572.126 530.043 570.589 531.986 570.589C533.958 570.589 535.06 572.126 535.06 573.982C535.06 575.867 533.958 577.404 531.986 577.404ZM559.628 581V566.993H553.741L550.812 574.562L547.883 566.993H541.996V581H546.462V572.619L549.681 581H551.972L555.191 572.619V581H559.628ZM575.599 581V572.242C575.599 567.892 572.438 566.645 569.074 566.645C566.928 566.645 564.521 567.283 562.723 568.82L564.318 571.633C565.449 570.676 566.899 570.154 568.291 570.154C570.089 570.154 571.133 570.966 571.133 572.184V573.866C570.292 572.822 568.639 572.242 566.783 572.242C564.637 572.242 561.969 573.344 561.969 576.737C561.969 579.898 564.637 581.348 566.783 581.348C568.581 581.348 570.263 580.652 571.133 579.608V581H575.599ZM568.639 578.419C567.45 578.419 566.406 577.897 566.406 576.795C566.406 575.693 567.45 575.171 568.639 575.171C569.625 575.171 570.669 575.519 571.133 576.157V577.404C570.669 578.071 569.625 578.419 568.639 578.419ZM583.307 581V575.693H588.324V581H592.79V566.993H588.324V571.807H583.307V566.993H578.841V581H583.307ZM594.929 584.567H599.395V581H607.051V584.567H611.517V577.114H609.98V566.993H598.003L597.075 573.721C596.669 576.766 595.973 577.201 594.929 577.288V584.567ZM601.86 570.879H605.514V577.114H600.12C600.845 576.36 601.309 575.287 601.483 573.866L601.86 570.879ZM620.318 581.348C622.464 581.348 624.784 580.739 626.176 579.492L624.291 576.708C623.508 577.462 621.797 577.897 620.811 577.897C618.781 577.897 617.563 576.708 617.302 575.403H627.278V574.446C627.278 569.69 624.262 566.645 620.115 566.645C615.736 566.645 612.662 569.922 612.662 573.982C612.662 578.535 615.997 581.348 620.318 581.348ZM623.015 572.503H617.244C617.418 571.488 618.172 570.096 620.115 570.096C622.174 570.096 622.899 571.517 623.015 572.503ZM650.759 581V561.657H646.322V568.646C645.191 567.254 643.712 566.645 642.175 566.645C638.666 566.645 635.969 569.4 635.969 573.982C635.969 578.738 638.724 581.348 642.175 581.348C643.741 581.348 645.162 580.71 646.322 579.376V581H650.759ZM643.625 577.404C641.856 577.404 640.551 576.07 640.551 573.982C640.551 571.894 641.856 570.589 643.625 570.589C644.582 570.589 645.742 571.082 646.322 571.836V576.128C645.742 576.882 644.582 577.404 643.625 577.404ZM656.264 565.746C657.685 565.746 658.816 564.586 658.816 563.165C658.816 561.744 657.685 560.613 656.264 560.613C654.843 560.613 653.712 561.744 653.712 563.165C653.712 564.586 654.843 565.746 656.264 565.746ZM658.497 581V566.993H654.031V581H658.497ZM667.563 586.684C671.043 586.684 675.567 585.466 675.567 579.753V566.993H671.13V568.646C669.999 567.254 668.549 566.645 666.983 566.645C663.474 566.645 660.806 569.081 660.806 573.692C660.806 578.419 663.561 580.768 666.983 580.768C668.578 580.768 669.97 580.101 671.13 578.738V579.811C671.13 582.421 669.042 583.03 667.563 583.03C665.939 583.03 664.373 582.566 663.3 581.406L661.357 584.596C663.155 586.075 665.156 586.684 667.563 586.684ZM668.462 576.824C666.693 576.824 665.388 575.751 665.388 573.692C665.388 571.662 666.693 570.589 668.462 570.589C669.39 570.589 670.579 571.082 671.13 571.836V575.577C670.579 576.331 669.39 576.824 668.462 576.824ZM681.073 565.746C682.494 565.746 683.625 564.586 683.625 563.165C683.625 561.744 682.494 560.613 681.073 560.613C679.652 560.613 678.521 561.744 678.521 563.165C678.521 564.586 679.652 565.746 681.073 565.746ZM683.306 581V566.993H678.84V581H683.306ZM691.85 581.348C693.503 581.348 694.605 580.942 695.156 580.42L694.286 577.056C694.141 577.23 693.648 577.404 693.155 577.404C692.372 577.404 691.908 576.795 691.908 575.983V570.879H694.75V566.993H691.908V563.165H687.471V566.993H685.151V570.879H687.471V577.23C687.471 579.927 689.008 581.348 691.85 581.348ZM709.724 581V572.242C709.724 567.892 706.563 566.645 703.199 566.645C701.053 566.645 698.646 567.283 696.848 568.82L698.443 571.633C699.574 570.676 701.024 570.154 702.416 570.154C704.214 570.154 705.258 570.966 705.258 572.184V573.866C704.417 572.822 702.764 572.242 700.908 572.242C698.762 572.242 696.094 573.344 696.094 576.737C696.094 579.898 698.762 581.348 700.908 581.348C702.706 581.348 704.388 580.652 705.258 579.608V581H709.724ZM702.764 578.419C701.575 578.419 700.531 577.897 700.531 576.795C700.531 575.693 701.575 575.171 702.764 575.171C703.75 575.171 704.794 575.519 705.258 576.157V577.404C704.794 578.071 703.75 578.419 702.764 578.419ZM717.432 581V561.657H712.966V581H717.432ZM726.875 575.838V572.097H719.915V575.838H726.875ZM736.091 581.348C739.107 581.348 740.992 579.985 741.833 578.767L738.933 576.041C738.382 576.824 737.483 577.404 736.294 577.404C734.438 577.404 733.017 576.099 733.017 573.982C733.017 571.865 734.438 570.589 736.294 570.589C737.483 570.589 738.382 571.111 738.933 571.923L741.833 569.226C740.992 567.979 739.107 566.645 736.091 566.645C731.712 566.645 728.435 569.603 728.435 573.982C728.435 578.39 731.712 581.348 736.091 581.348ZM757.812 581V566.993H743.863V581H748.329V570.879H753.346V581H757.812ZM767.782 581.348C769.928 581.348 772.248 580.739 773.64 579.492L771.755 576.708C770.972 577.462 769.261 577.897 768.275 577.897C766.245 577.897 765.027 576.708 764.766 575.403H774.742V574.446C774.742 569.69 771.726 566.645 767.579 566.645C763.2 566.645 760.126 569.922 760.126 573.982C760.126 578.535 763.461 581.348 767.782 581.348ZM770.479 572.503H764.708C764.882 571.488 765.636 570.096 767.579 570.096C769.638 570.096 770.363 571.517 770.479 572.503ZM787.961 584.567H792.427V577.114H790.89V566.993H786.424V577.114H781.407V566.993H776.941V581H787.961V584.567ZM798.763 581L803.983 573.286V581H808.449V566.993H803.954L798.966 574.33V566.993H794.5V581H798.763ZM824.421 581V572.242C824.421 567.892 821.26 566.645 817.896 566.645C815.75 566.645 813.343 567.283 811.545 568.82L813.14 571.633C814.271 570.676 815.721 570.154 817.113 570.154C818.911 570.154 819.955 570.966 819.955 572.184V573.866C819.114 572.822 817.461 572.242 815.605 572.242C813.459 572.242 810.791 573.344 810.791 576.737C810.791 579.898 813.459 581.348 815.605 581.348C817.403 581.348 819.085 580.652 819.955 579.608V581H824.421ZM817.461 578.419C816.272 578.419 815.228 577.897 815.228 576.795C815.228 575.693 816.272 575.171 817.461 575.171C818.447 575.171 819.491 575.519 819.955 576.157V577.404C819.491 578.071 818.447 578.419 817.461 578.419ZM826.561 581.348C830.679 581.348 832.477 578.883 833.057 574.301L833.492 570.879H837.146V581H841.612V566.993H829.635L828.707 573.721C828.301 576.766 827.605 577.694 826.561 577.694V581.348ZM849.116 581L854.336 573.286V581H858.802V566.993H854.307L849.319 574.33V566.993H844.853V581H849.116ZM868.772 581.348C871.788 581.348 873.673 579.985 874.514 578.767L871.614 576.041C871.063 576.824 870.164 577.404 868.975 577.404C867.119 577.404 865.698 576.099 865.698 573.982C865.698 571.865 867.119 570.589 868.975 570.589C870.164 570.589 871.063 571.111 871.614 571.923L874.514 569.226C873.673 567.979 871.788 566.645 868.772 566.645C864.393 566.645 861.116 569.603 861.116 573.982C861.116 578.39 864.393 581.348 868.772 581.348ZM883.678 581V570.879H887.477V566.993H875.384V570.879H879.212V581H883.678ZM896.27 581.348C901.084 581.348 903.926 577.926 903.926 573.982C903.926 570.038 901.084 566.645 896.27 566.645C891.514 566.645 888.643 570.038 888.643 573.982C888.643 577.926 891.514 581.348 896.27 581.348ZM896.27 577.404C894.327 577.404 893.254 575.867 893.254 573.982C893.254 572.126 894.327 570.589 896.27 570.589C898.242 570.589 899.344 572.126 899.344 573.982C899.344 575.867 898.242 577.404 896.27 577.404ZM916.053 581C919.04 581 920.519 579.231 920.519 577.172C920.519 575.461 919.388 574.098 917.793 573.779C919.156 573.373 920.2 572.242 920.2 570.589C920.2 568.82 918.779 566.993 915.792 566.993H906.28V581H916.053ZM914.922 577.549H910.746V575.606H914.922C915.589 575.606 916.024 576.041 916.024 576.592C916.024 577.172 915.56 577.549 914.922 577.549ZM914.748 572.184H910.746V570.444H914.748C915.328 570.444 915.705 570.792 915.705 571.314C915.705 571.807 915.328 572.184 914.748 572.184Z" fill="#223549"/>
<path d="M211.48 28.48C217.92 28.48 221.4 24.76 223.12 21.32L217.2 18.52C216.32 20.64 214.04 22.4 211.48 22.4C207.12 22.4 204.04 19.04 204.04 14.68C204.04 10.32 207.12 6.96 211.48 6.96C214.04 6.96 216.32 8.72 217.2 10.84L223.12 8.04C221.36 4.52 217.92 0.879999 211.48 0.879999C203.28 0.879999 197.04 6.44 197.04 14.68C197.04 22.88 203.28 28.48 211.48 28.48ZM235.215 28.48C238.175 28.48 241.375 27.64 243.295 25.92L240.695 22.08C239.615 23.12 237.255 23.72 235.895 23.72C233.095 23.72 231.415 22.08 231.055 20.28H244.815V18.96C244.815 12.4 240.655 8.2 234.935 8.2C228.895 8.2 224.655 12.72 224.655 18.32C224.655 24.6 229.255 28.48 235.215 28.48ZM238.935 16.28H230.975C231.215 14.88 232.255 12.96 234.935 12.96C237.775 12.96 238.775 14.92 238.935 16.28ZM253.729 28L260.929 17.36V28H267.089V8.68H260.889L254.009 18.8V8.68H247.849V28H253.729ZM264.489 3.36L261.849 1.2C260.849 2.68 259.329 3.52 257.489 3.52C255.569 3.52 254.089 2.56 253.089 1.2L250.449 3.36C252.089 5.52 254.649 6.88 257.489 6.88C260.369 6.88 262.889 5.52 264.489 3.36ZM271.08 8.68V16C271.08 20.08 273.08 22.6 278.36 22.6C280.92 22.6 282.96 21.96 284.16 21.24V28H290.28V8.68H284.16V16.36C283.4 16.8 282.36 17.16 280.64 17.16C278.44 17.16 277.24 16.36 277.24 14V8.68H271.08ZM312.363 28V15.92C312.363 9.92 308.003 8.2 303.363 8.2C300.403 8.2 297.083 9.08 294.603 11.2L296.803 15.08C298.363 13.76 300.363 13.04 302.283 13.04C304.763 13.04 306.203 14.16 306.203 15.84V18.16C305.043 16.72 302.763 15.92 300.203 15.92C297.243 15.92 293.563 17.44 293.563 22.12C293.563 26.48 297.243 28.48 300.203 28.48C302.683 28.48 305.003 27.52 306.203 26.08V28H312.363ZM302.763 24.44C301.123 24.44 299.683 23.72 299.683 22.2C299.683 20.68 301.123 19.96 302.763 19.96C304.123 19.96 305.563 20.44 306.203 21.32V23.04C305.563 23.96 304.123 24.44 302.763 24.44ZM326.114 28.48C330.274 28.48 332.874 26.6 334.034 24.92L330.034 21.16C329.274 22.24 328.034 23.04 326.394 23.04C323.834 23.04 321.874 21.24 321.874 18.32C321.874 15.4 323.834 13.64 326.394 13.64C328.034 13.64 329.274 14.36 330.034 15.48L334.034 11.76C332.874 10.04 330.274 8.2 326.114 8.2C320.074 8.2 315.554 12.28 315.554 18.32C315.554 24.4 320.074 28.48 326.114 28.48ZM356.908 28V14.04H362.148V8.68H345.468V14.04H350.748V28H356.908ZM365.037 8.68V28H377.557C382.037 28 384.597 24.96 384.597 21.44C384.597 17.88 382.237 14.88 377.557 14.88H371.197V8.68H365.037ZM376.477 19.84C377.637 19.84 378.357 20.52 378.357 21.44C378.357 22.36 377.637 23.04 376.477 23.04H371.197V19.84H376.477ZM392.837 28V8.68H386.677V28H392.837ZM414.697 28.48C420.577 28.44 424.297 26.08 424.257 22.64C424.257 19.84 421.297 18.24 418.897 18.08C421.577 17.64 423.897 15.84 423.897 13.6C423.857 10.32 420.577 8.2 414.177 8.24C410.657 8.24 407.737 9.56 405.817 11.48L408.777 15C410.217 13.64 412.137 12.92 414.497 12.92C416.297 12.92 417.537 13.52 417.537 14.36C417.537 15.36 416.777 15.96 414.417 15.96H410.617V20.56H414.417C416.697 20.56 417.897 21.16 417.897 22.24C417.897 23.16 416.897 23.76 414.697 23.76C412.697 23.76 410.137 23.12 408.337 21.76L405.577 25.4C407.457 27.2 410.657 28.48 414.697 28.48ZM425.939 32.92H432.099V28H442.659V32.92H448.819V22.64H446.699V8.68H430.179L428.899 17.96C428.339 22.16 427.379 22.76 425.939 22.88V32.92ZM435.499 14.04H440.539V22.64H433.099C434.099 21.6 434.739 20.12 434.979 18.16L435.499 14.04ZM460.958 28.48C463.918 28.48 467.118 27.64 469.038 25.92L466.438 22.08C465.358 23.12 462.998 23.72 461.638 23.72C458.838 23.72 457.158 22.08 456.798 20.28H470.557V18.96C470.557 12.4 466.398 8.2 460.678 8.2C454.638 8.2 450.398 12.72 450.398 18.32C450.398 24.6 454.998 28.48 460.958 28.48ZM464.678 16.28H456.718C456.958 14.88 457.998 12.96 460.678 12.96C463.518 12.96 464.518 14.92 464.678 16.28ZM482.872 28.48C487.032 28.48 489.632 26.6 490.792 24.92L486.792 21.16C486.032 22.24 484.792 23.04 483.152 23.04C480.592 23.04 478.632 21.24 478.632 18.32C478.632 15.4 480.592 13.64 483.152 13.64C484.792 13.64 486.032 14.36 486.792 15.48L490.792 11.76C489.632 10.04 487.032 8.2 482.872 8.2C476.832 8.2 472.312 12.28 472.312 18.32C472.312 24.4 476.832 28.48 482.872 28.48ZM493.592 8.68V28H506.112C510.592 28 513.152 24.96 513.152 21.44C513.152 17.88 510.792 14.88 506.112 14.88H499.752V8.68H493.592ZM505.032 19.84C506.192 19.84 506.912 20.52 506.912 21.44C506.912 22.36 506.192 23.04 505.032 23.04H499.752V19.84H505.032Z" fill="#223549"/>
<circle cx="159" cy="436" r="15" fill="#F7C154"/>
<path d="M162.252 442V439.804H163.71V437.086H162.252V429.994H157.95L153.396 437.392V439.804H159.138V442H162.252ZM159.138 437.086H156.402L159.138 432.694V437.086Z" fill="black"/>
</svg>
