<svg width="921" height="90" viewBox="0 0 921 90" fill="none" xmlns="http://www.w3.org/2000/svg">
<path d="M816.369 0.703125C788.75 0.703125 775.804 22.2802 763.721 40.405C753.364 57.6666 743.87 72.339 725.745 72.339C707.62 72.339 698.989 57.6666 687.769 40.405C675.686 21.4171 662.74 0.703125 635.121 0.703125C607.503 0.703125 594.556 22.2802 582.473 40.405C572.116 57.6666 562.622 72.339 544.497 72.339C526.373 72.339 517.742 57.6666 506.522 40.405C494.439 21.4171 481.492 0.703125 453.874 0.703125C426.255 0.703125 413.309 22.2802 401.226 40.405C390.869 57.6666 381.375 72.339 363.25 72.339C345.988 72.339 336.494 57.6666 325.274 40.405C313.191 21.4171 300.245 0.703125 272.626 0.703125C245.008 0.703125 232.061 22.2802 219.978 40.405C209.621 57.6666 200.127 72.339 182.003 72.339C164.741 72.339 155.247 57.6666 144.027 40.405C131.944 21.4171 118.998 0.703125 91.3789 0.703125C86.2004 0.703125 82.748 4.15546 82.748 9.33396C82.748 14.5125 86.2004 17.9648 91.3789 17.9648C108.641 17.9648 118.134 32.6372 129.355 49.8989C141.438 68.8867 154.384 89.6007 182.003 89.6007C209.621 89.6007 222.567 68.0236 234.651 49.8989C245.008 32.6372 254.502 17.9648 272.626 17.9648C290.751 17.9648 299.382 32.6372 310.602 49.8989C322.685 68.8867 335.631 89.6007 363.25 89.6007C390.869 89.6007 403.815 68.0236 415.898 49.8989C426.255 32.6372 435.749 17.9648 453.874 17.9648C471.999 17.9648 480.629 32.6372 491.849 49.8989C503.933 68.8867 516.879 89.6007 544.497 89.6007C572.116 89.6007 585.062 68.0236 597.146 49.8989C607.503 32.6372 616.996 17.9648 635.121 17.9648C653.246 17.9648 661.877 32.6372 673.097 49.8989C685.18 68.8867 698.126 89.6007 725.745 89.6007C753.364 89.6007 766.31 68.0236 778.393 49.8989C788.75 32.6372 798.244 17.9648 816.369 17.9648C821.547 17.9648 825 14.5125 825 9.33396C825 4.15546 821.547 0.703125 816.369 0.703125Z" fill="#EBEBEB"/>
<path d="M5 44H906" stroke="#F7C154" stroke-width="10" stroke-linecap="square" stroke-linejoin="round"/>
<path d="M886 17L913 44L886 71" stroke="#F7C154" stroke-width="10" stroke-linecap="square"/>
</svg>
