<svg width="239" height="57" viewBox="0 0 239 57" fill="none" xmlns="http://www.w3.org/2000/svg">
<g clip-path="url(#clip0)">
<path d="M114.488 37.1238C115.013 36.8967 115.418 36.6155 115.839 36.3635C117.15 35.5769 118.455 34.7815 119.766 33.9935C121.53 32.9344 123.298 31.8798 125.063 30.8222C125.99 30.267 126.902 29.6855 127.847 29.1611C128.94 28.5532 129.987 27.8677 131.09 27.2817C131.95 26.8247 132.787 26.3267 133.635 25.8536C134.736 25.2398 135.874 24.6788 136.935 23.9962C137.751 23.4703 138.527 22.8873 139.416 22.4801C140.461 22.0011 141.555 21.7843 142.686 21.9513C143.626 22.0905 144.347 22.6046 144.921 23.3941C145.403 24.0562 145.64 24.8106 145.962 25.5357C146.056 25.7466 146.056 26.0044 146.069 26.2432C146.115 27.0474 146.172 27.8633 146.058 28.6557C145.901 29.7397 145.913 30.8529 145.527 31.9017C145.464 32.0717 145.486 32.2723 145.469 32.4598C145.681 32.4173 145.81 32.2606 145.968 32.1288C146.38 31.7875 146.805 31.4491 147.269 31.1913C147.533 31.0448 147.773 30.8529 147.997 30.6859C149.055 29.895 150.164 29.1831 151.253 28.4433C151.908 27.998 152.614 27.626 153.266 27.1821C154.264 26.5039 155.293 25.8843 156.33 25.275C157.53 24.5704 158.734 23.8731 159.978 23.2433C160.674 22.8917 161.356 22.5079 162.062 22.1798C163.391 21.5617 164.715 20.9303 166.114 20.4704C167.032 20.1686 167.933 19.7995 168.885 19.6369C170.044 19.4377 171.208 19.2194 172.396 19.3103C173.454 19.3908 174.418 19.7175 175.19 20.4762C175.361 20.6447 175.59 20.6227 175.764 20.7516C176.426 21.2409 176.797 21.8781 176.845 22.713C176.915 23.9332 176.735 25.1109 176.375 26.2769C176.075 27.2495 175.667 28.1753 175.27 29.1084C174.925 29.9228 174.532 30.7167 174.107 31.4887C173.765 32.1097 173.391 32.725 173.06 33.3504C172.584 34.2513 172.136 35.1712 171.679 36.0838C171.047 37.3435 170.353 38.5739 169.76 39.8512C169.26 40.9264 168.69 41.9708 168.255 43.0767C168.088 43.503 167.844 43.897 167.621 44.3335C167.836 44.3834 167.954 44.2383 168.049 44.1592C168.646 43.6597 169.332 43.295 169.965 42.8541C170.464 42.5055 170.971 42.17 171.475 41.8287C173.091 40.7374 174.712 39.6579 176.335 38.5783C177.166 38.0246 178.024 37.5149 178.842 36.9363C179.791 36.2654 180.765 35.6238 181.767 35.0364C182.534 34.5853 183.246 34.0521 184.024 33.6112C184.796 33.1747 185.499 32.6048 186.27 32.1464C187.044 31.6849 187.79 31.1737 188.556 30.6962C189.497 30.1088 190.415 29.4789 191.369 28.9091C191.994 28.5341 192.617 28.1489 193.236 27.7681C193.914 27.3506 194.61 26.958 195.265 26.4966C196.261 25.7935 197.278 25.1124 198.321 24.481C199.883 23.5348 201.47 22.6193 203.128 21.8473C204.779 21.0783 206.462 20.3722 208.242 19.9533C209.797 19.5886 211.388 19.3996 212.97 19.6823C214.055 19.8771 215.087 20.3063 215.863 21.1603C216.415 21.7682 216.787 22.4669 216.821 23.3033C216.843 23.8761 216.995 24.4312 216.982 25.0098C216.954 26.2285 216.802 27.4282 216.578 28.625C216.491 29.0864 216.549 29.5727 216.379 30.0209C216.178 30.5483 216.3 31.1342 216.083 31.6513C215.927 32.0219 215.964 32.4144 215.891 32.7938C215.687 33.8411 215.498 34.8929 215.328 35.9475C215.23 36.5554 215.134 37.178 214.956 37.7507C214.741 38.4494 214.682 39.1716 214.471 39.8644C214.261 40.5587 214.132 41.278 213.963 41.9855C213.919 42.17 213.856 42.3546 213.793 42.5274C213.612 43.0313 213.518 43.5557 213.368 44.0655C213.188 44.6807 212.928 45.2725 212.762 45.8906C212.638 46.3535 212.49 46.8135 212.33 47.2573C212.085 47.9384 211.87 48.6313 211.599 49.3051C211.4 49.7987 211.198 50.2924 211.016 50.7948C210.846 51.265 210.635 51.7279 210.442 52.1922C210.215 52.7342 210.027 53.2952 209.728 53.8094C209.496 54.2093 209.268 54.6092 208.992 54.9842C208.684 55.4016 208.313 55.7502 207.896 56.0417C207.351 56.4241 206.522 56.4402 205.99 55.9685C205.573 55.5979 205.221 55.1936 204.981 54.6956C204.859 54.4451 204.631 54.2884 204.49 54.0423C204.257 53.6351 204.115 53.2249 204.068 52.7664C204.011 52.1981 203.865 51.6327 203.94 51.0585C204.055 50.1664 204.038 49.2597 204.315 48.3808C204.449 47.9545 204.462 47.4858 204.596 47.0478C204.767 46.4868 204.915 45.9185 205.085 45.3574C205.256 44.792 205.442 44.2295 205.621 43.6671C205.809 43.0738 205.996 42.4806 206.184 41.8859C206.362 41.3234 206.534 40.758 206.721 40.1969C206.96 39.4792 207.155 38.7482 207.398 38.0305C207.577 37.5046 207.71 36.9597 207.884 36.4295C208.129 35.6883 208.356 34.9412 208.574 34.1942C208.787 33.4632 209.027 32.7396 209.229 32.0043C209.474 31.1166 209.787 30.248 210.057 29.3676C210.226 28.8125 210.358 28.2441 210.528 27.689C210.678 27.2041 210.88 26.7354 211.022 26.2476C211.252 25.4537 211.498 24.6583 211.262 23.8131C211.155 23.4308 210.801 23.1349 210.398 23.0865C209.636 22.9957 208.974 23.2916 208.308 23.586C206.736 24.2804 205.211 25.0728 203.72 25.9195C202.041 26.8731 200.39 27.8764 198.757 28.9077C196.569 30.289 194.424 31.7333 192.297 33.2069C190.368 34.5428 188.465 35.9153 186.589 37.3201C184.667 38.7585 182.757 40.2145 180.873 41.7013C179.967 42.4176 179.057 43.1309 178.166 43.8692C177.387 44.5166 176.589 45.1436 175.796 45.7778C174.98 46.4326 174.179 47.105 173.37 47.7685C172.808 48.2299 172.243 48.6855 171.687 49.1572C170.954 49.7797 170.205 50.3935 169.421 50.9515C168.68 51.4789 167.907 51.9593 167.126 52.4325C166.098 53.055 165.033 53.5765 163.881 53.8621C162.778 54.136 161.629 54.2298 160.559 53.6775C160.026 53.4022 159.625 52.9583 159.377 52.3958C159.067 51.6942 158.683 51.0145 158.58 50.2426C158.491 49.5673 158.475 48.8862 158.599 48.2065C158.674 47.8022 158.673 47.3847 158.753 46.9819C158.856 46.4648 158.99 45.9522 159.14 45.4468C159.238 45.1114 159.335 44.7745 159.472 44.4463C159.708 43.8839 159.878 43.2935 160.111 42.7296C160.737 41.212 161.495 39.7575 162.19 38.2722C162.674 37.2336 163.2 36.2156 163.663 35.1683C164.161 34.0418 164.697 32.933 165.222 31.8197C165.825 30.5424 166.419 29.2607 167.034 27.9892C167.546 26.9302 168.017 25.8506 168.501 24.7784C168.667 24.4122 168.777 24.024 169.019 23.6915C169.125 23.5436 169.108 23.3766 168.849 23.4073C168.33 23.4688 167.867 23.712 167.379 23.8717C166.52 24.1529 165.736 24.6055 164.948 25.0318C164.391 25.3335 163.845 25.6763 163.316 26.0367C162.672 26.4746 162.026 26.9097 161.371 27.333C161.125 27.4927 160.902 27.686 160.663 27.8545C159.887 28.4023 159.137 28.9897 158.384 29.5683C158.006 29.8583 157.637 30.1894 157.259 30.4853C156.839 30.8119 156.503 31.2499 155.998 31.4725C155.878 31.5253 155.802 31.6703 155.696 31.7611C154.825 32.5155 153.957 33.2743 153.074 34.014C152.777 34.263 152.529 34.5618 152.232 34.8079C150.968 35.8552 149.806 37.0154 148.584 38.1111C147.439 39.1393 146.384 40.2614 145.262 41.3131C143.755 42.7252 142.284 44.1753 140.837 45.6504C139.472 47.0405 138.199 48.5244 136.749 49.828C136.132 50.3817 135.518 50.9501 134.845 51.4335C134.221 51.8817 133.619 52.3636 132.952 52.7533C131.615 53.5355 130.254 54.1961 128.631 54.0174C128.087 53.9573 127.629 53.723 127.191 53.449C126.924 53.282 126.665 53.0858 126.422 52.8675C125.526 52.0648 125.454 51.0482 125.61 49.9716C125.719 49.2275 126.192 48.6459 126.57 48.0293C127.043 47.2573 127.548 46.5073 128.019 45.731C128.353 45.1787 128.71 44.6368 129.047 44.0831C129.561 43.2364 130.097 42.4029 130.626 41.5636C131.061 40.8707 131.503 40.1808 131.905 39.4719C132.412 38.5769 132.974 37.7141 133.45 36.7971C133.698 36.3181 134.03 35.8684 134.284 35.385C134.579 34.8211 134.896 34.2659 135.209 33.7152C135.726 32.8085 136.238 31.8973 136.702 30.9643C137.128 30.1073 137.588 29.2563 137.804 28.3086C137.82 28.2368 137.953 28.1621 137.836 28.0932C137.742 28.0376 137.619 28.0552 137.521 28.1079C137.276 28.2427 137.055 28.4126 136.802 28.54C135.964 28.9589 135.145 29.416 134.332 29.8759C133.501 30.3461 132.656 30.7973 131.842 31.2997C131.257 31.66 130.646 31.975 130.052 32.3163C129.265 32.7674 128.481 33.2245 127.699 33.6815C127.125 34.0155 126.557 34.3597 125.988 34.701C125.433 35.035 124.88 35.3792 124.326 35.719C123.759 36.0662 123.186 36.4089 122.622 36.7576C122.035 37.1208 121.45 37.5002 120.875 37.8913C120.213 38.341 119.552 38.7936 118.862 39.1979C118.218 39.5759 117.63 40.0329 117.011 40.4445C116.422 40.8356 115.82 41.2106 115.265 41.6544C114.846 41.9899 114.402 42.296 113.955 42.5919C113.439 42.9332 112.933 43.3009 112.462 43.689C111.852 44.1944 111.23 44.6954 110.612 45.1875C109.158 46.3491 107.854 47.6587 106.578 49.0033C105.956 49.6581 105.49 50.4242 105.021 51.1888C104.465 52.097 103.895 53.0125 103.045 53.6688C102.075 54.4187 100.788 54.6443 99.5604 53.9236C98.9818 53.5838 98.3241 53.3538 97.8465 52.828C97.5931 52.5496 97.4935 52.2479 97.4569 51.9007C97.3309 50.6952 97.7748 49.6318 98.2933 48.5903C98.7415 47.688 99.3245 46.8677 99.8519 46.0122C100.354 45.1963 100.75 44.3145 101.179 43.4547C101.784 42.2418 102.395 41.0319 102.97 39.8044C103.414 38.8581 103.865 37.9133 104.292 36.9583C104.617 36.2317 104.9 35.4832 105.272 34.7742C105.307 34.7068 105.32 34.5941 105.248 34.5355C105.178 34.4783 105.083 34.5047 105.008 34.5501C104.51 34.8563 104.024 35.1858 103.512 35.47C102.595 35.9783 101.718 36.5496 100.794 37.0476C100.139 37.4006 99.5194 37.8313 98.8675 38.2033C98.1937 38.5886 97.5389 39.0046 96.8578 39.381C96.3378 39.6681 95.8398 40.0021 95.3197 40.2965C94.4189 40.8048 93.5371 41.3453 92.6406 41.8624C91.9961 42.2345 91.3516 42.6168 90.7115 42.9962C90.1871 43.3067 89.6627 43.6304 89.1178 43.9161C88.5934 44.19 88.088 44.5093 87.5709 44.8052C86.8019 45.2461 86.0431 45.7017 85.2639 46.125C84.675 46.4458 84.0935 46.7915 83.5119 47.1313C82.6961 47.6074 81.8758 48.0776 81.0496 48.5375C79.9569 49.1469 78.8641 49.7533 77.7743 50.3656C76.7021 50.9677 75.6079 51.5243 74.521 52.097C73.8032 52.4749 73.0796 52.8426 72.3296 53.1444C71.3204 53.5501 70.2642 53.638 69.3004 53.0755C68.6222 52.68 68.215 52.0003 67.9308 51.2504C67.4108 49.8749 67.3171 48.457 67.4284 47.0112C67.4709 46.459 67.6261 45.9302 67.8019 45.4102C68.2267 44.1563 68.7994 42.9669 69.4161 41.798C70.087 40.5265 70.7799 39.2682 71.4376 37.9909C71.8638 37.1648 72.2945 36.3401 72.7149 35.514C73.0357 34.8841 73.3491 34.2396 73.6714 33.6082C73.9116 33.1366 74.1694 32.6649 74.4287 32.1991C74.852 31.4389 75.2871 30.683 75.725 29.9316C76.1689 29.1684 76.6362 28.417 77.08 27.6509C77.5048 26.917 77.9413 26.189 78.4818 25.5328C79.3709 24.4517 80.4637 23.7076 81.864 23.4337C82.5877 23.2916 83.282 23.3473 83.9045 23.7149C84.4699 24.0489 84.7981 24.6114 84.9182 25.2559C85.0749 26.0938 85.1071 26.9419 84.9299 27.7842C84.8054 28.3745 84.5974 28.934 84.3484 29.4877C84.0964 30.0488 83.7405 30.5468 83.4211 31.0595C83.1428 31.5062 82.8206 31.9471 82.4544 32.3426C81.9358 32.9022 81.574 33.5731 81.1463 34.1956C80.6146 34.9734 80.1121 35.7732 79.6024 36.5657C79.2303 37.1443 78.8773 37.7346 78.4935 38.3059C78.1801 38.7731 77.8783 39.2536 77.5883 39.7326C77.3539 40.1178 77.1357 40.5221 76.8984 40.9059C76.3769 41.7496 75.9155 42.6256 75.4379 43.4927C75.0629 44.1724 74.7949 44.9107 74.4873 45.627C74.4463 45.7222 74.4096 45.8745 74.4917 45.939C74.5884 46.0151 74.6982 45.9243 74.8008 45.854C75.3925 45.4468 76.04 45.126 76.6464 44.7496C77.3744 44.2999 78.1156 43.8736 78.8465 43.4268C79.932 42.7633 81.0276 42.1173 82.1233 41.4699C83.4226 40.7023 84.7248 39.9406 86.0256 39.1745C86.8708 38.6765 87.7028 38.155 88.5582 37.6745C90.1358 36.7883 91.6577 35.8054 93.2295 34.9104C94.5668 34.1487 95.8603 33.3123 97.2006 32.5594C98.0238 32.0966 98.8338 31.6117 99.6468 31.1342C100.387 30.6991 101.123 30.2524 101.853 29.7968C102.594 29.3339 103.345 28.8857 104.097 28.4375C104.801 28.0171 105.506 27.5996 106.219 27.1953C106.826 26.8526 107.432 26.5039 108.021 26.1377C108.629 25.7613 109.25 25.4039 109.858 25.0274C110.457 24.6553 111.078 24.3096 111.674 23.9391C112.333 23.5289 113.025 23.1554 113.655 22.694C114.727 21.9088 116.592 22.1373 117.523 22.9752C118.423 23.7823 118.985 24.7623 119.425 25.8594C119.728 26.6138 119.539 27.3008 119.261 27.9834C118.774 29.1728 118.071 30.2377 117.295 31.2558C116.747 31.9735 116.189 32.6898 115.799 33.5086C115.411 34.3245 114.992 35.1287 114.788 36.0266C114.712 36.3738 114.616 36.7224 114.488 37.1238Z" fill="white"/>
<path d="M41.3769 43.5124C41.9628 43.0656 42.4857 42.6394 43.0365 42.257C43.5111 41.9289 43.9696 41.573 44.431 41.2317C44.9539 40.8464 45.452 40.4114 45.9764 40.0232C46.678 39.5047 47.3606 38.9598 48.0813 38.4632C48.4035 38.242 48.7068 37.971 49.0217 37.7293C49.8024 37.1288 50.5949 36.5428 51.38 35.9481C52.0172 35.4647 52.65 34.974 53.2872 34.4921C54.0665 33.9033 54.8502 33.3203 55.6294 32.7329C56.416 32.1396 57.1909 31.5303 57.9892 30.9546C58.5781 30.5313 59.1538 30.0889 59.7353 29.6539C60.5497 29.043 61.3773 28.4498 62.1962 27.8419C62.8744 27.338 63.5452 26.8268 64.222 26.32C65.0203 25.7209 65.8172 25.1188 66.6213 24.5285C67.487 23.8928 68.3527 23.2541 69.2375 22.6448C69.6491 22.3621 69.9977 21.99 70.4679 21.7849C70.6334 21.7131 70.7228 21.719 70.8297 21.8538C71.2882 22.4309 71.7526 23.0007 72.211 23.5764C72.4542 23.8811 72.2037 24.1052 72.003 24.1887C71.6442 24.3381 71.4171 24.634 71.1212 24.8464C70.4635 25.3166 69.8776 25.8864 69.2228 26.3595C68.634 26.7858 68.0949 27.2721 67.509 27.7027C67.0828 28.0162 66.6785 28.3853 66.2639 28.7281C65.9197 29.0137 65.5682 29.2979 65.2254 29.585C64.7435 29.9893 64.2528 30.3863 63.7943 30.8213C63.2845 31.3062 62.7001 31.709 62.1742 32.1777C61.6879 32.6128 61.1957 33.0478 60.6947 33.4609C59.6899 34.2914 58.7246 35.1689 57.7388 36.0184C56.9712 36.6791 56.2241 37.3778 55.4727 38.0633C54.856 38.6273 54.2818 39.241 53.6373 39.7698C52.9195 40.3587 52.3234 41.072 51.6144 41.6579C50.5846 42.5075 49.7043 43.5051 48.7258 44.4015C45.6263 47.2403 42.7406 50.2959 39.7671 53.2636C39.1357 53.8935 38.4854 54.5043 37.7735 55.0433C36.7906 55.7889 35.774 56.473 34.5831 56.8641C33.6061 57.1863 32.4547 56.9124 31.8703 56.0995C31.4777 55.5531 31.3122 54.8925 31.2565 54.2187C31.1496 52.9282 31.1511 51.6318 31.258 50.3442C31.3488 49.2412 31.4514 48.1397 31.5583 47.0382C31.6564 46.0348 31.7194 45.027 31.8454 44.028C32.0021 42.7976 32.0314 41.5554 32.2189 40.3279C32.3009 39.7889 32.3024 39.2366 32.361 38.6917C32.5075 37.325 32.5631 35.9467 32.7243 34.5815C32.8107 33.8535 32.8283 33.1269 32.8913 32.4004C32.8986 32.3125 32.9396 32.2407 32.84 32.1909C32.7521 32.147 32.6847 32.1836 32.6056 32.2305C31.9845 32.6025 31.3532 32.9585 30.7365 33.3408C30.2004 33.6733 29.6936 34.0512 29.1531 34.3749C28.5496 34.7353 27.9959 35.1703 27.429 35.5761C26.7713 36.0448 26.1063 36.515 25.4764 37.0277C24.9754 37.4349 24.4481 37.8114 23.9398 38.2083C23.5839 38.4852 23.2396 38.7855 22.8778 39.055C22.163 39.5882 21.479 40.1624 20.7934 40.7263C20.0874 41.3064 19.3711 41.8835 18.7002 42.5119C18.1421 43.0349 17.4888 43.4553 16.9337 43.9797C16.3331 44.5465 15.6959 45.0724 15.088 45.6305C13.7272 46.877 12.3386 48.0928 10.9748 49.3365C9.41188 50.7632 7.83282 52.1752 6.34311 53.6825C6.19077 53.8378 6.01499 53.9857 5.84508 54.1308C5.55651 54.3769 5.21228 54.3988 4.85633 54.4662C4.21328 54.5863 3.58342 54.7899 2.96234 55.0023C2.31343 55.2235 1.68063 55.4974 1.04198 55.7479C0.746087 55.8636 0.447266 55.9691 0.15577 56.0936C0.0883889 56.1229 0.050304 56.1463 0.0151486 56.0716C-0.00535864 56.0292 -0.0185419 55.9867 0.0254023 55.9427C0.807609 55.1532 1.58689 54.3607 2.37056 53.5727C3.48967 52.4477 4.66444 51.3725 5.71178 50.186C6.39438 49.4126 7.13704 48.7022 7.84307 47.9551C8.44804 47.315 9.06179 46.6778 9.71949 46.0831C10.2717 45.5851 10.8166 45.0636 11.2824 44.4865C12.0295 43.5593 12.9084 42.7697 13.7404 41.9304C14.7306 40.9314 15.7442 39.9529 16.7022 38.9232C17.3951 38.179 18.0865 37.432 18.791 36.6996C19.4985 35.9642 20.2339 35.2567 20.9531 34.5317C21.4013 34.0805 21.8188 33.5971 22.2582 33.1416C22.9921 32.3784 23.726 31.6094 24.4847 30.8667C25.4632 29.9073 26.4564 28.9566 27.3733 27.9386C27.968 27.2765 28.5877 26.6408 29.1999 25.9977C29.8078 25.3605 30.4582 24.7629 31.0646 24.1242C31.4162 23.7536 31.8102 23.4255 32.1076 22.9905C32.3244 22.6741 32.6481 22.4133 32.9264 22.1306C33.6193 21.4216 34.3077 20.7068 35.0269 20.0257C35.3975 19.6741 35.8458 19.4075 36.3101 19.1878C37.2696 18.7323 38.292 18.6502 39.3379 18.7074C40.6108 18.7762 41.765 19.2274 42.8578 19.8338C43.7425 20.3245 44.5687 20.9104 45.3524 21.5593C46.073 22.1555 46.3089 22.8747 46.1477 23.7727C45.9764 24.7277 45.6424 25.633 45.3363 26.5485C45.1488 27.108 44.9818 27.6749 44.7811 28.2301C44.5951 28.7457 44.3475 29.2408 44.1776 29.7608C43.829 30.836 43.3544 31.8628 43.0043 32.938C42.8402 33.4418 42.6146 33.9399 42.4638 34.4496C42.2587 35.1381 42.1298 35.8529 42.0185 36.5648C41.9584 36.9442 41.8236 37.3031 41.7489 37.6795C41.6684 38.0926 41.62 38.5159 41.5497 38.9275C41.4443 39.5442 41.3241 40.1697 41.3388 40.8069C41.3534 41.4236 41.1484 42.03 41.2436 42.6525C41.289 42.9177 41.3285 43.1872 41.3769 43.5124Z" fill="white"/>
<path d="M226.921 43.7659C223.2 43.7659 219.478 43.7659 215.758 43.7659C215.315 43.7659 215.322 43.7659 215.412 43.3221C215.62 42.2894 215.919 41.2772 216.133 40.2475C216.327 39.3085 216.625 38.396 216.765 37.4438C216.821 37.0659 216.982 36.7026 217.114 36.3379C217.156 36.2207 217.287 36.1782 217.411 36.168C217.508 36.1607 217.606 36.1665 217.704 36.1665C224.488 36.1665 231.271 36.1709 238.055 36.1563C238.447 36.1548 238.513 36.2778 238.512 36.6338C238.496 38.8662 238.496 41.0985 238.512 43.3309C238.515 43.6722 238.45 43.7762 238.084 43.7747C234.363 43.7601 230.643 43.7659 226.921 43.7659Z" fill="white"/>
<path d="M192.413 43.7654C188.703 43.7654 184.993 43.7654 181.282 43.7625C181.169 43.7625 180.998 43.8357 180.954 43.7024C180.904 43.553 181.077 43.4549 181.178 43.3816C183.144 41.9725 184.991 40.4096 186.898 38.9257C188.007 38.0629 189.103 37.1811 190.207 36.3125C190.349 36.2012 190.518 36.1602 190.711 36.1602C195.777 36.166 200.842 36.1646 205.907 36.166C206.31 36.166 206.31 36.1953 206.18 36.5762C205.995 37.1167 205.854 37.6704 205.687 38.2167C205.465 38.9404 205.204 39.6537 205.012 40.3861C204.835 41.0658 204.564 41.7162 204.439 42.4119C204.373 42.7796 204.206 43.1282 204.089 43.4871C204.006 43.742 203.82 43.7713 203.582 43.7713C199.859 43.764 196.137 43.7654 192.413 43.7654Z" fill="white"/>
<path d="M92.1772 13.1525C88.5869 13.3327 85.5767 10.1936 85.5592 6.70588C85.5416 2.97063 88.4844 -0.00292745 92.161 2.16287e-06C95.8084 0.00146697 98.6618 2.91936 98.7878 6.45101C98.9182 10.1394 95.7073 13.3239 92.1772 13.1525Z" fill="white"/>
</g>
<defs>
<clipPath id="clip0">
<rect width="238.514" height="57" fill="white"/>
</clipPath>
</defs>
</svg>
