<svg width="35" height="51" viewBox="0 0 35 51" fill="none" xmlns="http://www.w3.org/2000/svg">
<path d="M16.1123 22.232L29.2449 29.7905C29.3601 29.8566 29.4899 29.8928 29.6226 29.8958C29.7554 29.8989 29.8867 29.8686 30.0048 29.8078C30.1228 29.747 30.2237 29.6577 30.2983 29.5479C30.373 29.4381 30.4189 29.3114 30.432 29.1792L32.9965 2.86959C33.01 2.72603 32.9842 2.58151 32.9219 2.45148C32.8596 2.32145 32.7631 2.21081 32.6428 2.13141C32.5224 2.05201 32.3827 2.00683 32.2387 2.00072C32.0946 1.9946 31.9516 2.02777 31.825 2.09668L2.40377 18.2257C2.26126 18.3063 2.1471 18.4289 2.07687 18.5768C2.00664 18.7247 1.98378 18.8906 2.0114 19.052C2.03902 19.2133 2.11578 19.3622 2.23119 19.4783C2.3466 19.5945 2.49504 19.6721 2.65624 19.7007L13.3351 21.5986" stroke="white" stroke-width="2.84404"/>
<path d="M28.0338 8.20312L16.1214 22.2305L17.4723 30.1743C17.4887 30.2736 17.5358 30.3653 17.607 30.4363C17.6783 30.5074 17.77 30.5543 17.8694 30.5705C17.9687 30.5866 18.0706 30.5712 18.1606 30.5263C18.2507 30.4815 18.3245 30.4095 18.3714 30.3205L19.8198 27.5921" stroke="white" stroke-width="2.84404"/>
<path d="M12.6602 26.6133C9.24526 29.6185 -2.98165 46.8283 17.353 41.181C26.2114 38.7228 38.4029 41.0504 24.4242 49.3552" stroke="#F7C154" stroke-width="2.84404" stroke-dasharray="3.98 2.18"/>
</svg>
