<svg width="492" height="487" viewBox="0 0 492 487" fill="none" xmlns="http://www.w3.org/2000/svg">
<path d="M297.504 479.655C281.225 483.157 264.33 485 247.004 485C220.991 485 195.948 480.844 172.504 473.16" stroke="#EC663D" stroke-width="4"/>
<path d="M478.148 307C466.917 349.671 444.184 387.677 413.463 417.5" stroke="#EC663D" stroke-width="4"/>
<path d="M422.262 83.5C450.786 114.249 471.317 152.517 480.551 195" stroke="#EC663D" stroke-width="4"/>
<path d="M165.004 21.438C190.578 12.0969 218.196 7 247.004 7C265.753 7 283.998 9.15897 301.504 13.2419" stroke="#EC663D" stroke-width="4"/>
<path d="M71.7461 83.5C39.9023 117.828 18.0203 161.527 10.6973 210" stroke="#EC663D" stroke-width="4"/>
<path d="M80.5443 417.5C45.4497 383.43 20.7781 338.683 11.7715 288.5" stroke="#EC663D" stroke-width="4"/>
<path d="M71.876 96.1918C71.8714 95.206 71.8414 88.7981 71.816 83.376L59.0002 83.4359" stroke="#EC663D" stroke-width="4"/>
<path d="M290.801 18.7556C291.712 18.3778 297.631 15.9222 302.639 13.8443L297.728 2.00678" stroke="#EC663D" stroke-width="4"/>
<path d="M470.004 189.067C470.809 189.637 476.039 193.34 480.464 196.473L487.869 186.013" stroke="#EC663D" stroke-width="4"/>
<path d="M411.115 406.013C411.159 406.998 411.443 413.4 411.684 418.816L424.487 418.248" stroke="#EC663D" stroke-width="4"/>
<path d="M183.325 466.861C182.444 467.302 176.714 470.171 171.866 472.599L177.604 484.059" stroke="#EC663D" stroke-width="4"/>
<path d="M21.6652 292.846C20.8332 292.317 15.4255 288.879 10.8498 285.97L3.97406 296.785" stroke="#EC663D" stroke-width="4"/>
</svg>
