<svg width="20" height="16" viewBox="0 0 20 16" fill="none" xmlns="http://www.w3.org/2000/svg">
<path d="M4.30908 7.42969V12.6048C4.30908 12.8772 4.41803 13.204 4.63593 13.3674C5.23515 13.9666 6.76044 15.0017 9.81102 15.0017C12.8616 15.0017 14.3869 13.9666 14.9861 13.3674C15.204 13.1495 15.313 12.8772 15.313 12.6048V7.42969" stroke="white" stroke-width="1.63424" stroke-miterlimit="10" stroke-linecap="round" stroke-linejoin="round"/>
<path d="M8.93968 9.3891L1.69455 6.33852C0.768483 5.9572 0.768483 4.6498 1.69455 4.26848L8.93968 1.16342C9.48443 0.945525 10.1381 0.945525 10.6829 1.16342L17.928 4.26848C18.8541 4.6498 18.8541 5.9572 17.928 6.33852L10.6829 9.44357C10.1381 9.607 9.48443 9.607 8.93968 9.3891Z" stroke="white" stroke-width="1.63424" stroke-miterlimit="10" stroke-linecap="round" stroke-linejoin="round"/>
<path d="M18.7451 5.25V11.678" stroke="white" stroke-width="1.41634" stroke-miterlimit="10" stroke-linecap="round"/>
</svg>
