<svg width="69" height="73" viewBox="0 0 69 73" fill="none" xmlns="http://www.w3.org/2000/svg">
<path d="M21.2991 69.4835C21.3443 69.5012 21.3846 69.5254 21.4321 69.5391C21.4369 69.5407 21.4418 69.5407 21.4466 69.5423C25.4766 71.1959 29.8829 72.1138 34.5012 72.1138C39.1896 72.1138 43.6612 71.1701 47.7412 69.4682C47.7484 69.4666 47.7557 69.4666 47.7621 69.4634C47.8072 69.4497 47.8459 69.4271 47.8878 69.4102C47.9096 69.4005 47.9313 69.3916 47.9531 69.3828C47.999 69.3618 48.0466 69.3449 48.0893 69.3207C60.3743 64.0344 69 51.8131 69 37.6117C69 29.9587 66.5462 22.711 61.903 16.6511C61.3365 15.9113 60.2776 15.7695 59.537 16.3376C58.7973 16.9049 58.6571 17.9638 59.2236 18.7035C63.4107 24.1687 65.6243 30.7073 65.6243 37.6117C65.6243 49.8242 58.5515 60.4122 48.2899 65.5067L38.9019 35.4948L41.0994 28.5461L49.7606 33.3497C50.2207 33.6043 50.7703 33.6293 51.2514 33.4222C51.7325 33.2135 52.0887 32.7928 52.216 32.2843L58.3871 7.65467C58.4782 7.28801 58.4443 6.90121 58.2904 6.5555L55.8044 0.996823C55.5699 0.473028 55.0856 0.104759 54.5183 0.0177285C54.4602 0.00886425 54.403 0.0161168 54.3458 0.0136993C54.3184 0.00886425 54.3031 0 54.2636 0H14.6896C14.6445 0 14.6276 0.00967012 14.5986 0.015311C14.5438 0.0177285 14.4898 0.0112818 14.4358 0.0193402C13.8685 0.105565 13.3842 0.47464 13.1497 0.998435L10.6637 6.5555C10.5098 6.9004 10.4751 7.28801 10.567 7.65467L16.7381 32.2843C16.8654 32.7928 17.2224 33.2135 17.7027 33.4222C17.9178 33.5149 18.1467 33.5616 18.3748 33.5616C18.6576 33.5616 18.9388 33.4907 19.1935 33.3497L27.9248 28.5074L30.1344 35.4988L20.8801 65.5953C10.5251 60.533 3.37486 49.8935 3.37486 37.6117C3.37486 30.7049 5.59011 24.1639 9.78128 18.6971C10.3478 17.9573 10.2076 16.8985 9.46781 16.3311C8.72885 15.763 7.67078 15.904 7.10186 16.6438C2.45539 22.7053 0 29.9563 0 37.6117C0.000805839 51.9621 8.80782 64.2891 21.2991 69.4835ZM49.4777 29.3334L37.8221 22.8697L49.4455 9.69828C49.4705 9.67249 49.5003 9.65315 49.5245 9.62575L53.7978 4.77218L54.9736 7.40083L49.4777 29.3334ZM34.477 21.5602L24.4516 10.1979H44.5041L34.477 21.5602ZM50.5253 3.37405L47.4817 6.82385H21.4821L18.4336 3.37405H50.5253ZM13.9821 7.40083L15.1595 4.76896L31.132 22.8689L19.4771 29.3326L13.9821 7.40083ZM34.4778 24.873L38.0896 26.8764L35.9203 33.7357H33.1168L30.9362 26.8369L34.4778 24.873ZM33.1264 37.2483H35.9163L45.1778 66.8524C41.8456 68.0741 38.25 68.7397 34.5012 68.7397C30.8193 68.7397 27.2857 68.0926 24.0043 66.9137L33.1264 37.2483Z" fill="#F7C154"/>
<path d="M49.9305 46.7132V42.8436H55.6351C56.5666 42.8436 57.3225 42.0877 57.3225 41.1562C57.3225 40.2246 56.5666 39.4688 55.6351 39.4688H48.2431C47.3115 39.4688 46.5557 40.2246 46.5557 41.1562V47.7189C46.5557 48.3386 46.8949 48.9075 47.4405 49.2033L53.4641 52.4613C53.7147 52.5967 53.9903 52.6644 54.2667 52.6644C54.5431 52.6644 54.8195 52.5967 55.0694 52.4613L61.0938 49.2033C61.6394 48.9084 61.9786 48.3386 61.9786 47.7189V41.1562C61.9786 40.2246 61.2227 39.4688 60.2912 39.4688C59.3596 39.4688 58.6038 40.2246 58.6038 41.1562V46.7132L54.2667 49.0582L49.9305 46.7132Z" fill="#F7C154"/>
</svg>
