<svg width="48" height="41" viewBox="0 0 48 41" fill="none" xmlns="http://www.w3.org/2000/svg">
<path d="M24.1548 18.799L14.6602 13.5128L24.1548 8.22656L33.6494 13.5128L24.1548 18.799Z" stroke="white" stroke-width="2.46672" stroke-linecap="round" stroke-linejoin="round"/>
<path d="M29.2015 17.2109L29.5728 21.5548C29.62 21.9854 29.5782 22.423 29.4508 22.8307C29.3234 23.2385 29.1141 23.6046 28.8407 23.8982C27.4192 24.8647 25.8042 25.3738 24.1598 25.3738C22.5154 25.3738 20.9004 24.8647 19.479 23.8982C19.2066 23.6037 18.9982 23.2374 18.8712 22.8299C18.7443 22.4223 18.7023 21.9852 18.7489 21.5548L19.1203 17.2109" stroke="white" stroke-width="2.46672" stroke-linecap="round" stroke-linejoin="round"/>
<path d="M6.21875 27.9005V6.93343C6.21875 5.625 6.66334 4.37017 7.45471 3.44497C8.24608 2.51977 9.31941 2 10.4386 2H37.8675C38.9866 2 40.06 2.51977 40.8513 3.44497C41.6427 4.37017 42.0873 5.625 42.0873 6.93343V27.9005" stroke="#F7C154" stroke-width="2.46672" stroke-linecap="round" stroke-linejoin="round"/>
<path fill-rule="evenodd" clip-rule="evenodd" d="M31.5916 31.5977H46.3082C46.3082 34.3234 44.1983 38.9978 37.4234 38.9978H10.8849C4.10991 38.9978 2 34.3234 2 31.5977H16.7167C17.153 31.5971 17.5786 31.7557 17.9341 32.0515L19.833 33.6105C20.1885 33.9063 20.6141 34.065 21.0504 34.0644H27.2747C27.711 34.065 28.1366 33.9063 28.4921 33.6105L30.391 32.0515C30.7418 31.7596 31.161 31.6011 31.5916 31.5977V31.5977Z" stroke="#F7C154" stroke-width="2.46672" stroke-linecap="round" stroke-linejoin="round"/>
</svg>
