<svg width="38" height="27" viewBox="0 0 38 27" fill="none" xmlns="http://www.w3.org/2000/svg">
<path d="M23.3183 0C16.1681 0 10.4805 6.06647 10.4805 13.5C10.4805 21.019 16.2494 27 23.3183 27C30.3872 27 36.1561 20.9335 36.1561 13.5C36.2374 6.06647 30.3872 0 23.3183 0ZM23.3183 18.5411C20.7182 18.5411 18.5244 16.2342 18.5244 13.5C18.5244 10.7658 20.7182 8.45888 23.3183 8.45888C25.9184 8.45888 28.1122 10.7658 28.1122 13.5C28.1122 16.2342 25.9996 18.5411 23.3183 18.5411Z" fill="#8B3FFD"/>
<path d="M10.4815 3.92969V23.5816H5.85015L0 3.92969H10.4815Z" fill="#8B3FFD"/>
</svg>
