<svg width="411" height="318" viewBox="0 0 411 318" fill="none" xmlns="http://www.w3.org/2000/svg">
<g clip-path="url(#clip0)">
<path d="M80.6677 148.374C79.3728 147.922 78.7555 146.627 79.162 145.452C79.5686 144.262 80.8635 143.644 82.053 144.051L80.6677 148.374Z" fill="#F7C154"/>
<path d="M71.8299 144.699C71.5137 144.699 71.2125 144.639 70.9114 144.503C69.6616 143.961 69.1346 142.635 69.6165 141.475C70.1133 140.316 71.4384 139.788 72.5978 140.27C73.9078 140.858 74.4197 142.199 73.9078 143.343C73.5313 144.202 72.7032 144.699 71.8299 144.699ZM62.4944 140.24C62.1481 140.24 61.7867 140.165 61.4555 139.984C60.2057 139.337 59.7691 137.966 60.3563 136.851C60.9435 135.736 62.3137 135.3 63.4129 135.887C64.6476 136.52 65.0843 137.89 64.5121 139.005C64.1055 139.788 63.3226 140.24 62.4944 140.24ZM53.4601 135.194C53.0687 135.194 52.6621 135.089 52.3007 134.863C51.1112 134.14 50.7499 132.754 51.3973 131.669C52.0448 130.6 53.43 130.238 54.5141 130.886C55.7037 131.609 56.065 132.995 55.4176 134.079C54.9809 134.802 54.2281 135.194 53.4601 135.194ZM44.7872 129.56C44.3355 129.56 43.8838 129.425 43.4772 129.154C42.3329 128.34 42.092 126.909 42.8147 125.9C43.5375 124.876 44.9679 124.635 45.9767 125.373C47.106 126.171 47.3469 127.587 46.6393 128.611C46.2026 129.229 45.4949 129.56 44.7872 129.56ZM36.5811 123.264C36.0691 123.264 35.5572 123.098 35.1356 122.752C34.0515 121.818 33.931 120.387 34.7441 119.438C35.5572 118.489 36.9876 118.368 37.9513 119.182C38.9902 120.041 39.1408 121.472 38.3428 122.451C37.876 122.993 37.2285 123.264 36.5811 123.264ZM28.9772 116.275C28.39 116.275 27.8028 116.049 27.351 115.597C26.3723 114.603 26.3874 113.157 27.2758 112.283C28.1641 111.409 29.6096 111.409 30.4829 112.313C31.4616 113.307 31.4466 114.753 30.5582 115.627C30.1366 116.064 29.5644 116.275 28.9772 116.275ZM22.1864 108.502C21.5089 108.502 20.8464 108.201 20.3946 107.628C19.5364 106.484 19.7321 105.053 20.7259 104.299C21.7197 103.546 23.1501 103.742 23.903 104.751C24.7311 105.821 24.5655 107.252 23.5717 108.02C23.1652 108.351 22.6683 108.502 22.1864 108.502ZM16.4346 99.9311C15.6366 99.9311 14.8687 99.5093 14.4471 98.7712C13.7695 97.5963 14.1309 96.2105 15.215 95.5778C16.2991 94.9452 17.6844 95.3067 18.3168 96.3912C19.0244 97.6415 18.6329 99.0273 17.5488 99.6449C17.2025 99.8407 16.811 99.9311 16.4346 99.9311ZM12.0379 90.5919C11.1194 90.5919 10.2612 90.0345 9.91486 89.1307C9.41797 87.7901 10.0353 86.4796 11.2098 86.0578C12.3842 85.6361 13.6942 86.2386 14.1158 87.4135C14.5976 88.6788 14.0104 90.0044 12.8359 90.4412C12.58 90.5467 12.3089 90.5919 12.0379 90.5919ZM9.2674 80.6501C8.19834 80.6501 7.23469 79.8819 7.03894 78.7974C6.78297 77.4266 7.59606 76.2366 8.83074 76.0107C10.0654 75.7847 11.2549 76.5981 11.4808 77.8182C11.7368 79.189 10.9237 80.379 9.689 80.6049C9.53843 80.6351 9.40292 80.6501 9.2674 80.6501ZM8.27363 70.3921C7.03894 70.3921 6.01506 69.3979 6 68.1477C6 66.7317 7.00883 65.7074 8.27363 65.7074C9.52337 65.7074 10.5473 66.7317 10.5473 67.9819C10.5623 69.3527 9.55349 70.377 8.30374 70.3921C8.30374 70.3921 8.28869 70.3921 8.27363 70.3921ZM157.897 68.0723C156.888 68.0723 155.954 67.3945 155.698 66.3702C155.352 65.0446 156.06 63.7944 157.279 63.478C158.484 63.1617 159.734 63.8697 160.065 65.0898C160.411 66.4606 159.688 67.6958 158.469 68.0121C158.273 68.0573 158.077 68.0723 157.897 68.0723ZM9.04154 60.0888C7.46054 59.8779 6.60229 58.7181 6.79803 57.4829C7.02389 56.0669 8.19834 55.2384 9.43303 55.4343C10.6677 55.6301 11.5109 56.805 11.3152 58.0402C11.1194 59.2754 10.1407 60.0888 9.04154 60.0888ZM154.614 58.2812C153.726 58.2812 152.867 57.754 152.506 56.8653C151.979 55.5698 152.536 54.2443 153.696 53.7773C154.855 53.2953 156.18 53.8677 156.662 55.0276C157.189 56.323 156.632 57.6486 155.472 58.1155C155.186 58.221 154.9 58.2812 154.614 58.2812ZM11.3302 50.0115C9.46314 49.5445 8.78557 48.2642 9.162 47.0742C9.55349 45.7637 10.8183 45.0708 12.0229 45.4323C13.2274 45.7938 13.9201 47.0591 13.5587 48.2491C13.2124 49.3939 12.3089 50.0115 11.3302 50.0115ZM150.127 48.9571C149.344 48.9571 148.576 48.5504 148.17 47.7972C147.492 46.5921 147.884 45.2063 148.968 44.5887C150.067 43.9711 151.452 44.3628 152.069 45.4473C152.732 46.6373 152.34 48.0382 151.241 48.6558C150.88 48.8516 150.488 48.9571 150.127 48.9571ZM15.0795 40.4012C14.7331 40.4012 14.3868 40.3258 14.0556 40.1601C12.9413 39.5877 12.4896 38.232 13.0618 37.1023C13.6641 35.8671 15.0343 35.4152 16.1485 35.9726C17.2778 36.5299 17.7295 37.8856 17.1724 39.0153C16.7056 39.9493 15.9076 40.4012 15.0795 40.4012ZM144.676 40.1903C143.954 40.1903 143.246 39.8438 142.794 39.1961C142.011 38.0664 142.252 36.6504 143.276 35.9424C144.3 35.2194 145.715 35.4755 146.438 36.4998C147.236 37.6747 146.98 39.0756 145.941 39.7986C145.565 40.0698 145.113 40.1903 144.676 40.1903ZM138.367 32.0109C137.72 32.0109 137.073 31.7398 136.621 31.1975C135.732 30.1582 135.838 28.7121 136.786 27.8987C137.735 27.0853 139.181 27.1907 139.994 28.1547C140.897 29.2393 140.777 30.6703 139.828 31.4837C139.406 31.8452 138.879 32.0109 138.367 32.0109ZM20.5904 31.6795C20.1086 31.6795 19.6117 31.5289 19.1901 31.1975C18.1963 30.4293 18.0307 28.9983 18.7986 28.0041C19.6117 26.9196 21.0421 26.7237 22.0359 27.4769C23.0447 28.2301 23.2404 29.6611 22.4876 30.6552C21.9455 31.3783 21.268 31.6795 20.5904 31.6795ZM131.351 24.4341C130.764 24.4341 130.191 24.2082 129.74 23.7713C128.761 22.8073 128.746 21.3612 129.619 20.4725C130.493 19.5838 131.938 19.5687 132.826 20.4424C133.82 21.4365 133.82 22.8826 132.947 23.7713C132.51 24.2082 131.938 24.4341 131.351 24.4341ZM27.607 24.1027C26.9897 24.1027 26.3874 23.8617 25.9357 23.3646C25.0925 22.4458 25.1527 20.9997 26.0712 20.1562C27.1252 19.2072 28.5556 19.2825 29.3988 20.2164C30.242 21.1503 30.1667 22.5813 29.2332 23.4249C28.7062 23.9069 28.1491 24.1027 27.607 24.1027ZM35.7529 17.7611C35.0151 17.7611 34.2924 17.3996 33.8557 16.7368C33.1631 15.6974 33.4492 14.2815 34.4881 13.5886C35.6325 12.8204 37.0478 13.0915 37.7405 14.1459C38.4331 15.1853 38.1621 16.6012 37.1231 17.2941C36.6112 17.6255 36.1745 17.7611 35.7529 17.7611ZM123.566 17.6406C123.099 17.6406 122.618 17.49 122.211 17.2038C121.097 16.3904 120.871 14.9744 121.609 13.9501C122.347 12.9409 123.762 12.7149 124.786 13.453C125.915 14.2966 126.141 15.7125 125.388 16.7217C124.951 17.3243 124.259 17.6406 123.566 17.6406ZM44.727 12.6547C43.8838 12.6547 43.0707 12.1726 42.6792 11.3592C42.1372 10.2295 42.619 8.8738 43.7483 8.33152C44.983 7.72899 46.3532 8.19595 46.8952 9.32569C47.4373 10.4554 46.9705 11.8111 45.8412 12.3685C45.3895 12.5794 45.0583 12.6547 44.727 12.6547ZM114.773 12.2329C114.427 12.2329 114.065 12.1576 113.734 11.9768C112.499 11.3592 112.048 9.98848 112.62 8.85873C113.192 7.74405 114.547 7.29216 115.676 7.86456C116.926 8.51228 117.363 9.88303 116.791 10.9977C116.399 11.781 115.601 12.2329 114.773 12.2329ZM54.3033 8.78342C53.3547 8.78342 52.4664 8.18089 52.1502 7.2319C51.7436 6.04191 52.3911 4.74647 53.5806 4.35483C54.9357 3.91799 56.2156 4.58077 56.6071 5.77077C56.9835 6.96077 56.3361 8.24114 55.1315 8.63278C54.7852 8.75329 54.5443 8.78342 54.3033 8.78342ZM105.257 8.2562C105.031 8.2562 104.79 8.22608 104.564 8.15076C103.269 7.72899 102.607 6.44862 102.983 5.24356C103.375 4.05356 104.624 3.39078 105.829 3.78242C107.154 4.20419 107.801 5.48457 107.425 6.67456C107.109 7.63861 106.22 8.2562 105.257 8.2562ZM64.2862 6.13229C63.2322 6.13229 62.2836 5.37913 62.0578 4.30964C61.8169 3.07445 62.6149 1.88445 63.8345 1.64344C65.2047 1.3723 66.3942 2.17066 66.6502 3.40584C66.8911 4.64103 66.0931 5.83102 64.8735 6.07203C64.5723 6.11722 64.4217 6.13229 64.2862 6.13229ZM95.2437 5.71052C93.482 5.43938 92.6539 4.26445 92.8647 3.0142C93.0755 1.77901 94.265 0.950533 95.4997 1.16142C96.9 1.41749 97.7131 2.60749 97.4722 3.84267C97.2764 4.94229 96.3128 5.71052 95.2437 5.71052ZM74.51 4.71634C73.3356 4.71634 72.3418 3.81255 72.2515 2.60749C72.1611 1.35724 73.0947 0.272687 74.3444 0.167244C75.7146 0.0467385 76.8138 0.980659 76.9192 2.23091C77.0246 3.48116 76.1061 4.58077 74.8564 4.68622C74.6305 4.71634 74.5703 4.71634 74.51 4.71634ZM84.9748 4.55065C83.469 4.47533 82.5054 3.4209 82.5656 2.15559C82.6409 0.905343 83.6949 -0.0436409 84.9597 0.00154879C86.3299 0.0467385 87.3086 1.10117 87.2634 2.36648C87.2032 3.5866 86.1944 4.55065 84.9748 4.55065Z" fill="#223549"/>
<path d="M159.644 78.2855C159.327 78.2855 158.996 78.2102 158.68 78.0595C157.867 77.698 157.325 76.8695 157.325 75.9808C157.295 74.7305 158.289 73.6761 159.538 73.646C160.366 73.6159 161.119 74.0527 161.526 74.7155C161.978 75.3632 162.068 76.2218 161.707 76.975C161.315 77.8034 160.487 78.2855 159.644 78.2855Z" fill="#F7C154"/>
<path d="M214.872 217.138C214.616 217.138 214.375 217.092 214.119 217.002C212.93 216.58 212.313 215.285 212.719 214.11C213.156 212.814 214.451 212.182 215.64 212.573C216.83 212.98 217.462 214.261 217.071 215.451C216.679 216.55 215.806 217.138 214.872 217.138ZM218.576 207.572C218.275 207.572 217.974 207.512 217.673 207.377C216.529 206.88 215.987 205.539 216.483 204.394C217.056 203.099 218.411 202.587 219.555 203.099C220.699 203.611 221.211 204.951 220.699 206.096C220.293 207.06 219.465 207.572 218.576 207.572ZM223.244 198.459C222.853 198.459 222.461 198.354 222.1 198.143C221.016 197.51 220.654 196.109 221.287 195.04C222.024 193.82 223.425 193.473 224.494 194.121C225.563 194.769 225.909 196.17 225.247 197.239C224.795 198.053 224.027 198.459 223.244 198.459ZM229.312 190.205C228.755 190.205 228.198 190.009 227.761 189.602C226.843 188.743 226.798 187.312 227.656 186.394C228.604 185.369 230.035 185.324 230.953 186.183C231.872 187.041 231.917 188.472 231.074 189.391C230.517 189.964 229.914 190.205 229.312 190.205ZM237.443 184.119C236.585 184.119 235.757 183.622 235.38 182.793C234.853 181.649 235.35 180.308 236.494 179.781C237.819 179.208 239.159 179.736 239.656 180.88C240.153 182.025 239.626 183.366 238.467 183.863C238.09 184.059 237.759 184.119 237.443 184.119ZM247.591 182.748C246.146 182.718 245.152 181.664 245.182 180.413C245.212 179.178 246.221 178.199 247.456 178.199C248.901 178.229 249.895 179.284 249.865 180.534C249.835 181.769 248.811 182.748 247.591 182.748ZM257.665 182.507C256.49 182.507 255.496 181.603 255.406 180.398C255.316 179.148 256.249 178.064 257.499 177.958C258.854 177.838 259.953 178.772 260.074 180.022C260.179 181.272 259.261 182.372 258.011 182.477C257.785 182.507 257.725 182.507 257.665 182.507ZM267.783 181.046C266.729 181.046 265.796 180.323 265.57 179.254C265.314 178.033 266.082 176.813 267.316 176.557C268.717 176.271 269.906 177.069 270.162 178.305C270.403 179.54 269.62 180.73 268.385 180.986C268.099 181.031 267.934 181.046 267.783 181.046ZM277.751 178.757C276.712 178.757 275.778 178.049 275.538 176.994C275.251 175.774 276.019 174.554 277.239 174.268C278.594 173.951 279.814 174.72 280.1 175.94C280.371 177.16 279.618 178.38 278.383 178.666C278.082 178.741 277.917 178.757 277.751 178.757ZM328.659 177.326C327.409 177.326 326.386 176.301 326.386 175.051C326.386 173.801 327.409 172.776 328.659 172.776C330.044 172.776 331.053 173.771 331.068 175.021C331.083 176.271 330.075 177.31 328.825 177.326H328.659ZM318.571 176.994C317.005 176.889 316.071 175.789 316.162 174.539C316.252 173.289 317.336 172.355 318.601 172.445C319.986 172.55 320.92 173.635 320.829 174.885C320.739 176.075 319.745 176.994 318.571 176.994ZM287.794 176.919C286.68 176.919 285.701 176.09 285.551 174.946C285.385 173.695 286.258 172.55 287.493 172.385C288.908 172.204 290.038 173.093 290.188 174.343C290.339 175.593 289.465 176.723 288.216 176.874C288.005 176.919 287.899 176.919 287.794 176.919ZM338.868 176.798C337.709 176.798 336.715 175.91 336.609 174.72C336.504 173.469 337.422 172.37 338.672 172.264C340.027 172.129 341.142 173.032 341.262 174.283C341.382 175.533 340.479 176.648 339.229 176.768C339.003 176.798 338.943 176.798 338.868 176.798ZM308.362 176.256C306.887 176.196 305.908 175.141 305.953 173.891C305.998 172.641 307.067 171.662 308.302 171.707C309.717 171.782 310.681 172.837 310.621 174.102C310.56 175.322 309.567 176.256 308.362 176.256ZM297.988 176.136C296.753 176.136 295.744 175.156 295.714 173.921C295.684 172.671 296.678 171.632 297.928 171.586C299.313 171.571 300.367 172.55 300.397 173.801C300.427 175.051 299.433 176.09 298.184 176.136C298.018 176.136 298.003 176.136 297.988 176.136ZM349.016 175.382C347.947 175.382 346.984 174.614 346.788 173.53C346.562 172.294 347.375 171.104 348.595 170.878C349.965 170.622 351.155 171.436 351.38 172.656C351.606 173.891 350.808 175.081 349.574 175.307C349.287 175.367 349.152 175.382 349.016 175.382ZM358.969 173.017C357.975 173.017 357.072 172.37 356.786 171.376C356.44 170.17 357.132 168.905 358.352 168.574C359.662 168.182 360.927 168.86 361.288 170.065C361.649 171.27 360.957 172.535 359.767 172.897C359.376 172.987 359.18 173.017 358.969 173.017ZM368.621 169.613C367.748 169.613 366.904 169.101 366.528 168.242C366.031 167.098 366.558 165.757 367.717 165.26C368.997 164.718 370.337 165.26 370.834 166.42C371.316 167.58 370.789 168.905 369.63 169.387C369.223 169.553 368.922 169.613 368.621 169.613ZM377.806 165.094C377.023 165.094 376.27 164.687 375.848 163.964C375.216 162.88 375.577 161.494 376.661 160.861C377.896 160.153 379.281 160.53 379.899 161.63C380.516 162.714 380.14 164.115 379.055 164.733C378.589 165.004 378.197 165.094 377.806 165.094ZM386.283 159.385C385.605 159.385 384.943 159.084 384.491 158.512C383.723 157.517 383.889 156.086 384.883 155.318C385.967 154.46 387.382 154.625 388.165 155.604C388.948 156.583 388.782 158.014 387.804 158.798C387.262 159.235 386.78 159.385 386.283 159.385ZM393.781 152.441C393.239 152.441 392.697 152.245 392.261 151.854C391.327 151.01 391.252 149.579 392.095 148.645C393.028 147.606 394.459 147.53 395.392 148.374C396.326 149.218 396.401 150.649 395.558 151.582C395.031 152.185 394.399 152.441 393.781 152.441ZM399.955 144.307C399.548 144.307 399.142 144.201 398.765 143.96C397.696 143.298 397.365 141.897 398.027 140.827C398.765 139.637 400.166 139.306 401.235 139.969C402.304 140.631 402.62 142.032 401.957 143.102C401.461 143.93 400.723 144.307 399.955 144.307ZM404.532 135.179C404.261 135.179 403.99 135.133 403.719 135.028C402.545 134.576 401.957 133.266 402.409 132.091C402.921 130.78 404.231 130.193 405.405 130.66C406.58 131.111 407.152 132.422 406.7 133.597C406.309 134.606 405.451 135.179 404.532 135.179ZM304.899 126.382C303.454 126.352 302.46 125.312 302.49 124.047C302.52 122.812 303.529 121.833 304.763 121.833C306.209 121.863 307.203 122.902 307.173 124.167C307.143 125.403 306.134 126.382 304.899 126.382ZM314.957 125.689C313.903 125.689 312.955 124.951 312.729 123.866C312.473 122.631 313.271 121.441 314.505 121.185C315.906 120.914 317.095 121.727 317.321 122.962C317.562 124.197 316.749 125.387 315.514 125.613C315.258 125.674 315.108 125.689 314.957 125.689ZM294.705 125.523C293.019 125.312 292.146 124.167 292.311 122.917C292.477 121.667 293.621 120.808 294.871 120.974C296.226 121.14 297.114 122.284 296.949 123.52C296.813 124.695 295.835 125.523 294.705 125.523ZM407.333 125.342C405.676 125.071 404.863 123.881 405.104 122.646C405.36 121.275 406.55 120.462 407.785 120.703C409.019 120.929 409.832 122.119 409.591 123.354C409.365 124.589 408.402 125.342 407.333 125.342ZM284.602 123.821C282.78 123.505 281.982 122.3 282.238 121.064C282.494 119.829 283.683 119.031 284.918 119.287C286.273 119.558 287.071 120.763 286.83 121.983C286.605 123.068 285.656 123.821 284.602 123.821ZM274.604 121.561C272.692 121.14 271.954 119.904 272.27 118.684C272.586 117.464 273.821 116.741 275.041 117.042C276.381 117.389 277.119 118.624 276.817 119.829C276.546 120.869 275.613 121.561 274.604 121.561ZM324.082 121.381C323.464 121.381 322.847 121.125 322.395 120.627C321.552 119.694 321.628 118.263 322.561 117.419C323.645 116.47 325.076 116.575 325.904 117.524C326.732 118.473 326.626 119.904 325.678 120.733C325.166 121.185 324.624 121.381 324.082 121.381ZM264.696 118.91C262.739 118.443 262.031 117.193 262.378 115.988C262.724 114.783 263.974 114.075 265.178 114.421C266.518 114.813 267.226 116.063 266.88 117.268C266.594 118.263 265.69 118.91 264.696 118.91ZM254.879 115.973C254.653 115.973 254.427 115.943 254.202 115.868C252.877 115.446 252.199 114.18 252.575 112.975C252.952 111.77 254.217 111.108 255.421 111.484C256.746 111.906 257.424 113.171 257.047 114.376C256.746 115.355 255.843 115.973 254.879 115.973ZM408.402 115.19C407.092 115.16 406.098 114.12 406.128 112.855C406.158 111.484 407.167 110.505 408.402 110.505C409.712 110.535 410.706 111.574 410.675 112.84C410.645 114.195 409.637 115.19 408.402 115.19ZM332.002 114.888C331.324 114.888 330.647 114.587 330.195 114C329.427 113.005 329.623 111.574 330.617 110.806C331.746 109.963 333.161 110.159 333.914 111.153C334.667 112.162 334.471 113.578 333.462 114.331C332.966 114.723 332.484 114.888 332.002 114.888ZM245.137 112.825C244.896 112.825 244.655 112.795 244.429 112.704C243.089 112.252 242.457 110.957 242.848 109.767C243.255 108.577 244.535 107.944 245.724 108.336C247.034 108.773 247.682 110.053 247.29 111.243C246.974 112.207 246.086 112.825 245.137 112.825ZM235.44 109.481C235.184 109.481 234.943 109.435 234.688 109.345C233.362 108.878 232.745 107.583 233.167 106.393C233.588 105.218 234.883 104.6 236.073 105.007C237.383 105.459 238 106.769 237.578 107.944C237.262 108.893 236.374 109.481 235.44 109.481ZM340.344 108.938C339.606 108.938 338.898 108.592 338.461 107.929C337.769 106.89 338.04 105.474 339.079 104.781C340.268 103.998 341.669 104.299 342.361 105.338C343.054 106.393 342.753 107.794 341.714 108.487C341.217 108.803 340.78 108.938 340.344 108.938ZM225.804 105.971C225.533 105.971 225.277 105.926 225.006 105.82C223.711 105.338 223.109 104.028 223.545 102.853C223.982 101.678 225.292 101.075 226.466 101.512C227.776 102.009 228.379 103.305 227.942 104.48C227.596 105.414 226.737 105.971 225.804 105.971ZM407.935 104.962C406.806 104.962 405.827 104.118 405.677 102.973C405.526 101.557 406.414 100.443 407.664 100.292C408.899 100.141 410.028 101.045 410.179 102.296C410.344 103.651 409.456 104.781 408.221 104.932C408.116 104.962 408.025 104.962 407.935 104.962ZM349.032 103.516C348.249 103.516 347.496 103.109 347.074 102.386C346.442 101.301 346.803 99.9155 347.887 99.2829C349.107 98.5749 350.492 98.9515 351.124 100.036C351.757 101.121 351.38 102.506 350.296 103.139C349.814 103.41 349.423 103.516 349.032 103.516ZM216.227 102.341C215.956 102.341 215.685 102.296 215.414 102.19C214.104 101.678 213.517 100.367 213.969 99.1925C214.421 98.0176 215.731 97.4452 216.905 97.8971C218.2 98.3941 218.787 99.7047 218.335 100.88C218.004 101.783 217.146 102.341 216.227 102.341ZM358.036 98.6502C357.208 98.6502 356.394 98.1833 356.003 97.4C355.446 96.2853 355.898 94.9145 357.012 94.3572C358.277 93.7396 359.632 94.1915 360.189 95.3212C360.746 96.451 360.279 97.8067 359.165 98.364C358.728 98.5749 358.382 98.6502 358.036 98.6502ZM206.696 98.59C206.41 98.59 206.124 98.5297 205.853 98.4243C204.558 97.9121 204.001 96.5866 204.453 95.4116C204.92 94.2518 206.245 93.6794 207.404 94.1463C208.699 94.6585 209.256 95.984 208.804 97.159C208.443 98.0477 207.585 98.59 206.696 98.59ZM405.496 95.0953C404.713 95.0953 403.96 94.6886 403.538 93.9656C402.831 92.8057 403.177 91.4048 404.246 90.7571C405.315 90.1094 406.715 90.4408 407.363 91.5103C408.086 92.7454 407.724 94.1313 406.64 94.779C406.279 95.0049 405.887 95.0953 405.496 95.0953ZM197.195 94.7187C196.909 94.7187 196.623 94.6585 196.337 94.553C195.042 94.0107 194.485 92.6852 194.967 91.5253C195.449 90.3654 196.774 89.8081 197.933 90.2901C199.213 90.8023 199.77 92.1278 199.303 93.3028C198.942 94.1915 198.099 94.7187 197.195 94.7187ZM367.371 94.4325C366.468 94.4325 365.609 93.8902 365.263 93.0015C364.796 91.8416 365.369 90.5161 366.528 90.0491C367.793 89.5219 369.118 90.0792 369.6 91.2391C370.081 92.399 369.524 93.7245 368.365 94.2066C367.928 94.3723 367.657 94.4325 367.371 94.4325ZM377.038 91.0433C376.044 91.0433 375.141 90.3956 374.855 89.3863C374.508 88.1813 375.216 86.916 376.42 86.5846C377.73 86.1929 378.995 86.8858 379.342 88.0758C379.703 89.2809 379.025 90.5462 377.821 90.9077C377.444 91.0132 377.234 91.0433 377.038 91.0433ZM187.739 90.7571C187.453 90.7571 187.152 90.6968 186.866 90.5763C185.556 90.0039 185.029 88.6784 185.526 87.5185C186.023 86.3737 187.363 85.8314 188.507 86.3285C189.757 86.8557 190.314 88.1813 189.832 89.3411C189.486 90.2299 188.628 90.7571 187.739 90.7571ZM397.365 89.3713C395.483 88.9796 394.73 87.7595 395.016 86.5394C395.302 85.3193 396.537 84.5661 397.756 84.8674C399.142 85.2289 399.864 86.4641 399.563 87.6691C399.292 88.6784 398.374 89.3713 397.365 89.3713ZM387.036 88.9495C385.891 88.9495 384.913 88.0909 384.777 86.931C384.642 85.6808 385.53 84.5661 386.78 84.4155C388.135 84.2498 389.279 85.1385 389.43 86.3737C389.58 87.6239 388.692 88.7537 387.457 88.9043C387.216 88.9495 387.126 88.9495 387.036 88.9495ZM178.329 86.7051C178.012 86.7051 177.711 86.6448 177.41 86.5093C176.16 85.967 175.618 84.6263 176.13 83.4815C176.627 82.3217 177.967 81.7945 179.112 82.2916C180.406 82.864 180.918 84.2046 180.406 85.3644C180.03 86.1929 179.202 86.7051 178.329 86.7051ZM168.948 82.5476C168.632 82.5476 168.331 82.4874 168.03 82.3518C166.75 81.7794 166.238 80.4237 166.765 79.2789C167.277 78.1341 168.632 77.6219 169.776 78.1492C171.041 78.7065 171.553 80.0622 171.041 81.207C170.649 82.0355 169.821 82.5476 168.948 82.5476Z" fill="#223549"/>
<path d="M211.996 226.854C210.25 226.507 209.497 225.272 209.783 224.052C210.099 222.756 211.319 222.003 212.538 222.304C213.758 222.591 214.511 223.826 214.225 225.046C213.954 226.161 213.02 226.854 211.996 226.854Z" fill="#F7C154"/>
<path fill-rule="evenodd" clip-rule="evenodd" d="M255.082 270.93H325.444C331.528 270.93 336.466 275.855 336.466 281.956V285.872C336.466 291.958 331.528 296.884 325.444 296.884H255.082C248.999 296.884 244.061 291.958 244.061 285.872V281.956C244.076 275.87 248.999 270.93 255.082 270.93Z" fill="#F7C154"/>
<path d="M325.444 298.464H255.082C248.141 298.464 242.479 292.816 242.479 285.856V281.94C242.479 274.996 248.126 269.332 255.082 269.332H325.444C332.386 269.332 338.047 274.981 338.047 281.94V285.856C338.047 292.816 332.401 298.464 325.444 298.464ZM255.082 272.525C249.888 272.525 245.657 276.758 245.657 281.955V285.871C245.657 291.068 249.888 295.301 255.082 295.301H325.444C330.639 295.301 334.87 291.068 334.87 285.871V281.955C334.87 276.758 330.639 272.525 325.444 272.525H255.082Z" fill="black"/>
<path fill-rule="evenodd" clip-rule="evenodd" d="M260.307 275.328H322.493C327.085 275.328 330.804 279.049 330.804 283.643C330.804 288.237 327.085 291.958 322.493 291.958H260.307C255.714 291.958 251.995 288.237 251.995 283.643C251.995 279.049 255.714 275.328 260.307 275.328Z" fill="white"/>
<path d="M322.493 293.539H260.307C254.856 293.539 250.414 289.096 250.414 283.643C250.414 278.19 254.856 273.746 260.307 273.746H322.493C327.943 273.746 332.385 278.19 332.385 283.643C332.385 289.096 327.943 293.539 322.493 293.539ZM260.307 276.924C256.603 276.924 253.591 279.937 253.591 283.643C253.591 287.348 256.603 290.361 260.307 290.361H322.493C326.197 290.361 329.208 287.348 329.208 283.643C329.208 279.937 326.197 276.924 322.493 276.924H260.307Z" fill="black"/>
<path fill-rule="evenodd" clip-rule="evenodd" d="M274.07 246.195H325.445C331.528 246.195 336.467 251.121 336.467 257.207V258.171C336.467 264.256 331.528 269.182 325.445 269.182H274.07C267.987 269.182 263.063 264.241 263.063 258.171V257.207C263.063 251.121 267.987 246.195 274.07 246.195Z" fill="#F7C154"/>
<path d="M325.446 270.778H274.071C267.129 270.778 261.468 265.129 261.468 258.17V257.206C261.468 250.261 267.114 244.598 274.071 244.598H325.446C332.387 244.598 338.048 250.246 338.048 257.206V258.17C338.048 265.129 332.402 270.778 325.446 270.778ZM274.071 247.776C268.876 247.776 264.645 252.009 264.645 257.206V258.17C264.645 263.366 268.876 267.599 274.071 267.599H325.446C330.64 267.599 334.871 263.366 334.871 258.17V257.206C334.871 252.009 330.64 247.776 325.446 247.776H274.071Z" fill="black"/>
<path fill-rule="evenodd" clip-rule="evenodd" d="M182.944 209.453H284.625C288.194 209.453 290.332 212.496 289.383 216.262L272.61 283.188C271.661 286.953 268.002 289.996 264.434 289.996H162.753C159.184 289.996 157.046 286.953 157.995 283.188L174.783 216.277C175.717 212.496 179.376 209.453 182.944 209.453Z" fill="white"/>
<path d="M284.641 212.616C285.288 212.616 285.77 212.812 286.071 213.204C286.463 213.716 286.568 214.544 286.327 215.493L269.538 282.404C268.951 284.754 266.557 286.818 264.434 286.818H162.753C162.106 286.818 161.624 286.622 161.323 286.23C160.931 285.718 160.826 284.89 161.067 283.941L177.855 217.03C178.443 214.68 180.837 212.616 182.96 212.616H284.641ZM284.641 209.453H182.945C179.376 209.453 175.717 212.496 174.769 216.262L157.98 283.188C157.031 286.953 159.169 289.996 162.738 289.996H264.419C267.987 289.996 271.646 286.953 272.595 283.188L289.384 216.277C290.332 212.496 288.209 209.453 284.641 209.453Z" fill="black"/>
<path fill-rule="evenodd" clip-rule="evenodd" d="M105.038 285.582H267.053C268.573 285.582 269.808 286.817 269.808 288.339V291.818C269.808 295.464 266.842 298.431 263.198 298.431H108.892C105.248 298.431 102.282 295.464 102.282 291.818V288.339C102.282 286.802 103.517 285.582 105.038 285.582Z" fill="white"/>
<path d="M266.646 288.745V291.803C266.646 293.701 265.095 295.253 263.198 295.253H108.892C106.995 295.253 105.444 293.701 105.444 291.803V288.745H266.646ZM267.053 285.582H105.038C103.517 285.582 102.282 286.817 102.282 288.339V291.818C102.282 295.464 105.248 298.431 108.892 298.431H263.198C266.842 298.431 269.808 295.464 269.808 291.818V288.339C269.808 286.802 268.573 285.582 267.053 285.582Z" fill="black"/>
<path fill-rule="evenodd" clip-rule="evenodd" d="M188.562 217.215H274.583C277.61 217.215 279.462 219.595 278.724 222.532L265.594 274.726C264.856 277.664 261.8 280.044 258.788 280.044H172.767C169.74 280.044 167.888 277.664 168.626 274.726L181.756 222.532C182.493 219.595 185.535 217.215 188.562 217.215Z" fill="#F7C154"/>
<path d="M258.772 281.609H172.751C170.823 281.609 169.092 280.826 168.023 279.44C166.954 278.069 166.607 276.202 167.074 274.319L180.204 222.125C181.123 218.479 184.781 215.617 188.546 215.617H274.567C276.495 215.617 278.226 216.4 279.295 217.786C280.364 219.157 280.711 221.025 280.244 222.908L267.114 275.102C266.211 278.747 262.537 281.609 258.772 281.609ZM188.561 218.796C186.257 218.796 183.848 220.678 183.291 222.908L170.161 275.102C169.92 276.036 170.056 276.894 170.537 277.497C171.004 278.099 171.802 278.446 172.766 278.446H258.787C261.076 278.446 263.5 276.563 264.057 274.334L277.187 222.14C277.428 221.206 277.293 220.347 276.811 219.745C276.329 219.142 275.546 218.796 274.582 218.796H188.561Z" fill="black"/>
<path fill-rule="evenodd" clip-rule="evenodd" d="M329.179 213.086C331.392 210.013 333.636 207.377 340.005 206.398C347.052 205.313 351.373 209.742 351.373 209.742C351.373 209.742 349.205 214.908 341.074 216.023C332.943 217.153 329.179 213.086 329.179 213.086Z" fill="white"/>
<path d="M338.304 217.815C331.483 217.815 328.17 214.335 328.02 214.169L327.146 213.221L327.899 212.166C330.339 208.777 332.898 205.9 339.779 204.83C347.549 203.64 352.322 208.43 352.518 208.641L353.256 209.394L352.849 210.359C352.744 210.6 350.229 216.369 341.315 217.604C340.231 217.74 339.222 217.815 338.304 217.815ZM331.362 212.799C332.838 213.763 335.925 215.134 340.864 214.456C345.893 213.763 348.317 211.428 349.326 210.087C347.85 209.018 344.673 207.286 340.261 207.963C335.353 208.717 333.23 210.434 331.362 212.799Z" fill="black"/>
<path fill-rule="evenodd" clip-rule="evenodd" d="M77.0624 55.6602H349.461C363.148 55.6602 374.245 66.7618 374.245 80.4542V168.634C374.245 182.327 363.148 193.429 349.461 193.429H77.0624C63.3754 193.429 52.2783 182.327 52.2783 168.634V80.4392C52.2783 66.7618 63.3754 55.6602 77.0624 55.6602Z" fill="white"/>
<path d="M349.446 55.6588C363.133 55.6588 374.23 66.7604 374.23 80.4529V168.633C374.23 182.326 363.133 193.427 349.446 193.427H77.0623C63.3753 193.427 52.2782 182.326 52.2782 168.633V80.4378C52.2782 66.7454 63.3753 55.6437 77.0623 55.6437H349.446V55.6588ZM349.446 52.4805H77.0623C61.6588 52.4805 49.1162 65.0281 49.1162 80.4378V168.618C49.1162 184.028 61.6588 196.575 77.0623 196.575H349.461C364.865 196.575 377.407 184.028 377.407 168.618V80.4378C377.392 65.0281 364.865 52.4805 349.446 52.4805Z" fill="#F7C154"/>
<path fill-rule="evenodd" clip-rule="evenodd" d="M318.339 222.318C318.339 222.318 319.423 217.438 321.275 214.425C323.127 211.412 325.822 208.535 325.822 208.535L318.339 222.318Z" fill="white"/>
<path d="M318.338 223.898C317.134 223.672 316.607 222.829 316.788 221.97C316.833 221.759 317.962 216.803 319.919 213.595C321.832 210.477 324.542 207.57 324.662 207.449C325.265 206.817 326.259 206.786 326.906 207.374C327.538 207.976 327.568 208.971 326.981 209.618C326.951 209.648 324.376 212.405 322.63 215.252C320.928 218.009 319.889 222.618 319.889 222.663C319.724 223.386 319.076 223.898 318.338 223.898Z" fill="black"/>
<path fill-rule="evenodd" clip-rule="evenodd" d="M317.992 214.953C327.448 214.953 335.067 221.641 335.022 229.896C334.977 238.151 327.268 244.839 317.827 244.839C308.371 244.839 300.752 238.151 300.797 229.896C300.842 221.641 308.536 214.953 317.992 214.953Z" fill="white"/>
<path d="M317.812 246.435C312.452 246.435 307.347 244.401 303.824 240.846C300.827 237.819 299.186 233.932 299.201 229.895C299.262 220.782 307.678 213.371 317.978 213.371C323.338 213.371 328.442 215.405 331.966 218.96C334.962 221.987 336.603 225.874 336.588 229.911C336.543 239.024 328.126 246.435 317.812 246.435ZM317.993 216.534C309.425 216.534 302.424 222.53 302.378 229.911C302.363 233.104 303.673 236.192 306.082 238.602C309.019 241.554 313.31 243.257 317.827 243.257C326.394 243.257 333.396 237.261 333.441 229.88C333.456 226.687 332.146 223.599 329.737 221.189C326.801 218.237 322.51 216.534 317.993 216.534Z" fill="black"/>
<path d="M318.745 285.628H270.863C269.99 285.628 269.282 284.92 269.282 284.046C269.282 283.173 269.99 282.465 270.863 282.465H318.745C319.618 282.465 320.326 283.173 320.326 284.046C320.341 284.92 319.618 285.628 318.745 285.628Z" fill="black"/>
<path d="M318.61 281.276H277.835C276.962 281.276 276.254 280.569 276.254 279.695C276.254 278.821 276.962 278.113 277.835 278.113H318.61C319.483 278.113 320.191 278.821 320.191 279.695C320.191 280.569 319.483 281.276 318.61 281.276Z" fill="black"/>
<path d="M403.847 300.874H19.0468C18.1735 300.874 17.4658 300.166 17.4658 299.293C17.4658 298.419 18.1735 297.711 19.0468 297.711H403.832C404.706 297.711 405.413 298.419 405.413 299.293C405.428 300.166 404.721 300.874 403.847 300.874Z" fill="black"/>
<path fill-rule="evenodd" clip-rule="evenodd" d="M82.0009 59.3945H354.4C368.087 59.3945 379.184 70.4961 379.184 84.1886V172.369C379.184 186.061 368.087 197.163 354.4 197.163H82.0009C68.3139 197.163 57.2168 186.061 57.2168 172.369V84.1886C57.2168 70.4961 68.3139 59.3945 82.0009 59.3945Z" fill="#F7C154"/>
<path fill-rule="evenodd" clip-rule="evenodd" d="M221.942 193.427L231.834 164.536C231.834 164.536 228.537 160.815 225.947 158.511C223.357 156.221 221.264 154.233 221.264 154.233L212.441 147.409C212.441 147.409 208.24 144.381 209.098 141.926C209.956 139.456 211.778 140.585 211.778 140.585C211.778 140.585 213.962 136.368 216.597 137.904C219.216 139.456 220.346 141.519 220.346 141.519L223.975 145.767C224.2 145.722 241.697 149.804 241.862 148.87C242.043 147.921 234.424 143.267 237.451 138.175C239.604 134.545 252.267 147.846 253.095 149.94C253.908 152.033 255.956 156.808 254.827 162.909C253.697 169.025 248.006 193.412 248.006 193.412H262.039L306.834 145.797L312.315 144.185L325.008 127.058V125.191C325.008 125.191 315.025 126.757 310.297 120.114C305.584 113.471 306.412 84.1282 306.412 84.1282L322.328 79.1875L342.655 84.8061L346.796 101.391L348.271 105.804C348.271 105.804 349.34 107.868 347.067 109.675C344.793 111.498 340.923 112.613 340.923 112.613L343.604 123.052C343.604 123.052 340.396 134.138 335.307 134.153C330.218 134.168 325.942 130.809 325.942 130.809L318.052 150.211L294.126 166.524L261.632 193.412H221.942V193.427Z" fill="white"/>
<path fill-rule="evenodd" clip-rule="evenodd" d="M335.322 103.935C336.421 105.682 337.324 107.219 338.393 105.938C339.462 104.658 341.254 101.705 343.212 101.66C345.169 101.615 346.283 103.001 346.283 103.001C346.283 103.001 353.39 87.2597 347.759 79.9993C342.112 72.7388 333.695 74.0945 327.432 73.3112C321.168 72.5279 308.309 70.2383 308.309 70.2383L308.58 77.8603L298.146 79.2009L306.171 86.8229L312.314 83.6144C312.314 83.6144 319.888 84.6237 326.212 84.6839C332.536 84.7442 337.053 84.1567 337.445 87.094C337.851 90.0163 334.222 102.187 335.322 103.935Z" fill="#F7C154"/>
<path fill-rule="evenodd" clip-rule="evenodd" d="M259.916 193.952C259.916 193.952 270.14 173.601 274.491 159.442C278.843 145.282 288.028 138.203 294.819 137.374C301.609 136.531 320.355 134.557 320.355 134.557C320.355 134.557 318.112 136.907 317.284 142.315C316.456 147.723 314.558 152.995 316.215 151.684C317.871 150.374 330.248 139.92 330.248 139.92C330.248 139.92 334.479 153.161 335.729 153.703C336.979 154.245 342.249 145.81 343.89 142.195C345.531 138.579 347.503 130.023 347.503 130.023L375.841 140.056L375.977 171.884C375.977 171.884 373.055 185.712 364.879 189.809C356.703 193.907 349.235 194.886 349.235 194.886L259.916 193.952Z" fill="#F7C154"/>
<path fill-rule="evenodd" clip-rule="evenodd" d="M342.309 113.576C342.685 115.594 343.017 117.643 343.137 119.902C345.622 121.966 346.947 125.189 347.955 128.714C355.966 131.456 365.392 134.318 374.11 137.255C375.932 137.873 382.707 139.093 381.548 141.518C380.931 142.798 378.582 141.879 377.422 141.518C367.996 138.55 358.029 134.995 348.648 132.013C348.347 137.948 345.591 142.166 342.866 146.745C341.902 148.372 340.894 150.134 339.569 152.122C338.891 153.147 336.979 156.702 335.578 156.671C333.696 156.626 332.627 151.475 331.995 149.788C330.971 147.016 330.022 144.711 329.104 142.211C325.912 144.5 322.735 147.829 319.332 150.887C318.624 151.52 316.923 153.553 315.613 153.373C313.309 153.041 314.86 146.504 315.191 144.832C315.808 141.759 316.772 139.273 317.675 136.848C307.045 138.008 298.056 138.053 290.422 141.111C282.984 144.094 279.25 150.465 276.238 158.328C273.362 165.845 270.923 173.783 267.836 181.466C265.804 186.542 263.304 192.567 260.82 197.99C260.007 199.767 259.103 202.735 257.522 202.539C254.827 202.208 257.658 198.065 258.079 197.161C260.714 191.543 263.274 185.367 265.517 179.809C268.664 171.961 271.194 163.119 274.326 155.436C277.729 147.076 281.99 141.217 290.151 138.083C298.282 134.965 307.933 134.95 319.061 133.821C320.672 131.531 321.952 128.91 323.879 126.937C314.348 127.117 308.716 121.77 306.398 113.847C304.365 106.933 304.516 99.4462 305.027 91.1313C305.088 90.0769 305.464 88.7965 305.298 87.968C304.997 86.4617 302.197 84.5938 300.751 83.1478C299.727 82.1235 296.204 79.8037 296.626 78.0564C297.168 75.7969 305.208 77.9058 307.09 77.4991C307.497 76.0831 305.058 69.0787 307.647 69.0938C310.584 69.1239 313.791 70.0578 316.727 70.4645C319.829 70.9014 322.961 71.2026 326.228 71.4286C332.853 71.8955 339.614 71.4738 343.98 74.5919C351.659 80.0749 352.247 92.5171 348.663 102.82C351.027 108.032 347.519 113.335 342.309 113.576ZM343.273 77.6196C339.659 74.3207 333.079 74.5768 327.026 74.3207C321.003 74.0646 314.423 73.0403 309.409 72.1215C309.123 74.3508 310.779 78.3878 309.816 79.6983C308.506 81.4908 304.199 79.4422 301.7 79.9694C302.558 81.0992 303.386 81.9879 304.591 83.1327C305.253 83.7654 307.783 85.3771 308.039 86.1604C308.385 87.2299 307.828 89.3689 307.768 90.7095C307.241 101.962 306.985 114.088 312.586 119.902C316.215 123.683 323.096 125.46 328.547 122.388C329.706 121.74 332.447 119.089 333.636 119.495C335.849 120.249 333.516 122.207 332.537 122.93C330.76 124.27 328.682 125.475 326.89 126.379C327.327 127.916 327.583 129.633 327.854 131.335C331.091 134.589 335.142 132.103 337.491 129.829C338.409 128.94 341.029 126.5 341.21 125.009C341.315 124.18 340.818 122.915 340.653 121.845C340.141 118.411 339.779 115.052 339.282 111.934C340.171 110.397 342.565 111.105 344.236 110.277C346.736 109.057 348.151 103.046 343.965 103.122C341.993 103.152 341.3 105.246 340.246 106.014C338.439 107.354 335.247 107.52 334.193 105.321C331.995 100.757 338.213 91.9899 335.714 87.8324C334.359 85.573 327.613 85.7688 323.322 85.7688C320.898 85.7688 319.302 85.7085 316.576 85.4976C314.769 85.3621 311.261 85.4374 311.351 83.5695C311.442 81.5812 314.664 82.4549 316.727 82.6055C323.247 83.1026 332.703 82.0783 336.542 84.5336C341.466 87.6667 338.063 95.9817 337.099 100.651C336.888 101.676 336.467 103.061 337.099 104.101C338.53 104.613 339.177 102.881 340.126 102.037C341.782 100.561 344.251 99.6119 346.45 100.937C349.13 92.4569 348.272 82.1988 343.273 77.6196ZM330.881 135.884C328.17 135.553 324.271 133.564 324.963 130.371C321.214 134.965 318.729 140.84 317.66 148.131C320.506 146.067 323.533 142.889 326.469 140.283C327.116 139.695 328.833 137.873 329.766 137.948C330.971 138.023 331.302 139.936 331.694 140.976C333.184 144.907 334.675 148.266 335.819 151.987C337.792 149.652 339.463 146.534 341.33 143.31C344.056 138.596 347.639 132.6 344.086 126.515C341.978 129.362 337.069 136.622 330.881 135.884Z" fill="black"/>
<path fill-rule="evenodd" clip-rule="evenodd" d="M310.644 91.6727C319.257 91.5823 321.817 99.1591 319.588 107.504C319.077 109.402 318.384 111.481 317.104 111.496C315.147 111.511 315.824 109.282 316.276 107.911C317.661 103.784 318.263 97.0352 314.349 95.1071C313.325 94.5949 309.696 94.836 309.53 93.179C309.455 92.2903 310.012 91.8836 310.644 91.6727Z" fill="black"/>
<path fill-rule="evenodd" clip-rule="evenodd" d="M326.892 92.0788C327.464 91.9885 328.368 91.8077 329.091 91.9433C330.536 92.2144 333.578 94.6396 332.945 96.6279C332.765 97.1702 332.042 97.5016 331.425 97.4564C330.175 97.366 330.009 95.1517 328.398 94.8354C326.998 94.5643 326.17 95.7242 325.101 95.3928C324.348 95.1518 324.077 94.3835 324.272 93.6002C324.513 92.7115 325.793 92.2747 326.892 92.0788Z" fill="black"/>
<path fill-rule="evenodd" clip-rule="evenodd" d="M314.499 97.8657C314.574 99.8841 315.417 104.162 312.842 103.65C310.87 103.258 311.412 94.5819 314.499 97.8657Z" fill="black"/>
<path fill-rule="evenodd" clip-rule="evenodd" d="M328.954 98.8301C329.451 100.547 329.074 103.455 327.99 104.479C324.663 105.473 326.123 96.1489 328.954 98.8301Z" fill="black"/>
<path fill-rule="evenodd" clip-rule="evenodd" d="M342.445 105.035C342.987 104.944 344.071 104.688 344.237 105.999C344.387 107.279 340.834 109.704 339.554 109.584C338.861 109.508 338.349 108.861 338.319 108.349C338.244 107.339 339.313 106.918 340.111 106.421C340.502 106.149 341.376 105.215 342.445 105.035Z" fill="black"/>
<path fill-rule="evenodd" clip-rule="evenodd" d="M324.271 113.713C322.54 114.18 320.793 116.063 318.354 116.198C316.547 116.289 312.692 115.249 314.364 113.306C315.327 112.177 317.209 113.487 318.083 113.442C320.507 113.336 326.62 107.522 327.162 113.035C327.509 116.545 324.542 119.211 321.651 119.919C320.447 120.22 318.459 120.476 318.76 118.548C319.016 116.967 321.862 117.328 323.022 116.349C324.06 115.445 323.88 115.008 324.271 113.713Z" fill="black"/>
<path fill-rule="evenodd" clip-rule="evenodd" d="M207.684 143.446C207.684 142.708 207.684 141.97 207.684 141.247C208.301 139.485 209.701 138.49 212.095 138.49C214.565 135.387 218.72 137.421 220.497 139.59C221.521 140.855 222.349 143.296 224.081 143.853C224.653 144.034 225.481 143.989 226.144 144.124C231.007 145.103 234.802 146.203 239.635 147.152C238.792 145.992 236.322 144.817 235.645 142.603C234.937 140.298 235.675 137.858 237.843 137.225C240.87 136.336 244.769 138.852 246.516 140.117C248.865 141.819 251.018 144.034 252.433 146.037C255.52 150.421 257.854 157.53 256.288 165.318C255.611 168.692 254.225 171.991 253.262 175.516C250.852 184.298 249.136 193.26 247.344 202.916C247.058 204.422 246.862 207.555 245.146 207.465C243.474 207.375 243.866 205.251 244.182 203.473C246.2 191.995 249.091 179.478 251.891 169.867C252.885 166.448 253.683 163.631 253.683 159.956C253.683 152.409 250.446 147.302 246.245 143.702C244.257 142 241.622 139.891 238.4 140.253C238.039 143.175 241.171 143.958 242.526 145.902C243.143 146.79 244.574 149.08 243.354 150.315C242.496 151.174 240.072 150.345 238.807 150.044C234.561 149.035 229.998 147.965 226.415 147.152C228.718 153.343 239.605 152.213 244.589 156.521C244.98 156.853 250.446 163.782 246.652 163.962C244.89 164.053 244.122 160.227 243.068 159.142C239.484 155.452 231.248 156.039 226.686 152.394C223.358 149.743 223.208 145.646 219.112 143.989C220.151 152.138 226.309 156.958 231.911 161.341C233.025 162.215 237.437 164.625 236.458 166.568C235.524 168.436 233.642 165.981 233.16 166.433C228.583 179.297 223.644 192.387 218.976 205.266C218.48 206.637 217.757 210.161 215.95 209.95C213.676 209.679 215.543 205.673 215.95 204.588C220.979 191.136 226.038 177.504 230.962 164.369C227.183 160.995 222.711 158.314 219.955 153.9C218.163 152.665 216.522 151.159 214.444 149.773C211.704 147.95 208.421 146.896 207.684 143.446ZM214.7 140.283C215.001 141.639 215.498 142.783 216.357 143.582C216.281 142.136 217.17 141.654 217.877 140.961C217.275 140.434 215.604 139.183 214.7 140.283ZM211.674 141.383C211.508 141.639 210.951 141.488 210.71 141.654C210.138 144.486 212.773 145.284 214.429 146.338C213.42 144.772 212.562 143.07 211.674 141.383Z" fill="black"/>
<path fill-rule="evenodd" clip-rule="evenodd" d="M292.606 173.198C294.624 172.776 294.518 176.014 294.94 178.424C296.506 187.221 297.996 195.612 299.622 204.86C300.089 207.542 301.971 214.441 299.893 214.772C297.951 215.088 298.057 212.814 297.695 210.78C295.783 200.146 293.901 189.616 292.184 179.102C291.823 176.858 290.573 173.619 292.606 173.198Z" fill="black"/>
<path fill-rule="evenodd" clip-rule="evenodd" d="M266.331 81.1914C273.047 81.1914 278.497 86.6443 278.497 93.3625C278.497 100.081 273.047 105.534 266.331 105.534C259.616 105.534 254.165 100.081 254.165 93.3625C254.165 86.6443 259.616 81.1914 266.331 81.1914Z" fill="white"/>
<path d="M266.331 81.1906C273.047 81.1906 278.497 86.6435 278.497 93.3617C278.497 100.08 273.047 105.533 266.331 105.533C259.616 105.533 254.165 100.08 254.165 93.3617C254.165 86.6435 259.616 81.1906 266.331 81.1906ZM266.331 78.0273C257.884 78.0273 251.003 84.9112 251.003 93.3617C251.003 101.812 257.884 108.696 266.331 108.696C274.793 108.696 281.659 101.812 281.659 93.3617C281.659 84.9112 274.793 78.0273 266.331 78.0273Z" fill="black"/>
<path fill-rule="evenodd" clip-rule="evenodd" d="M201.554 14.3242C233.927 14.3242 260.187 40.5794 260.187 72.9805C260.187 105.382 233.942 131.637 201.554 131.637C169.182 131.637 142.922 105.382 142.922 72.9805C142.922 40.5794 169.182 14.3242 201.554 14.3242Z" fill="#F7C154"/>
<path d="M201.556 14.3234C233.929 14.3234 260.189 40.5787 260.189 72.9797C260.189 105.366 233.944 131.636 201.556 131.636C169.183 131.636 142.924 105.381 142.924 72.9797C142.924 40.5787 169.183 14.3234 201.556 14.3234ZM201.556 11.1602C167.482 11.1602 139.762 38.8916 139.762 72.9797C139.762 107.068 167.482 134.799 201.556 134.799C235.631 134.799 263.351 107.068 263.351 72.9797C263.351 38.8916 235.631 11.1602 201.556 11.1602Z" fill="black"/>
<path d="M253.202 128.081C251.274 128.081 249.392 128.021 247.601 127.916C233.025 127.087 215.499 123.141 198.273 116.799C128.107 90.9655 95.3727 54.4974 94.0176 52.961L95.2071 51.9065L94.4091 50.5358C95.0565 50.1592 95.8847 50.2948 96.3816 50.8672C97.7216 52.3886 129.944 88.2692 199.357 113.832C234.32 126.711 267.581 128.609 276.751 118.275C280.139 114.449 280.049 108.966 276.48 101.977C276.089 101.193 276.39 100.244 277.173 99.8378C277.956 99.4461 278.904 99.7474 279.311 100.531C284.581 110.819 282.127 116.995 279.13 120.369C273.68 126.5 262.884 128.081 253.202 128.081Z" fill="black"/>
<path fill-rule="evenodd" clip-rule="evenodd" d="M97.54 22.9414C114.75 22.9414 128.693 36.89 128.693 54.1072C128.693 71.3245 114.735 85.2882 97.54 85.2882C80.3296 85.2882 66.3867 71.3396 66.3867 54.1223C66.3867 36.905 80.3296 22.9414 97.54 22.9414Z" fill="white"/>
<path d="M97.5399 86.87C79.4864 86.87 64.8057 72.1833 64.8057 54.1225C64.8057 36.0617 79.4864 21.375 97.5399 21.375C115.593 21.375 130.274 36.0617 130.274 54.1225C130.274 72.1833 115.593 86.87 97.5399 86.87ZM97.5399 24.5232C81.233 24.5232 67.9677 37.7939 67.9677 54.1074C67.9677 70.4209 81.233 83.6916 97.5399 83.6916C113.847 83.6916 127.112 70.4209 127.112 54.1074C127.112 37.7939 113.847 24.5232 97.5399 24.5232Z" fill="black"/>
<path fill-rule="evenodd" clip-rule="evenodd" d="M102.284 25.9531C119.494 25.9531 129.267 40.5343 128.484 53.6394C128.197 58.3993 131.088 66.2021 128.694 70.9771C124.012 80.3013 111.243 85.468 99.875 85.468C82.6646 85.468 71.1309 74.3212 71.1309 57.119C71.1309 39.9167 85.0738 25.9531 102.284 25.9531Z" fill="white"/>
<path d="M97.5399 86.87C79.4864 86.87 64.8057 72.1833 64.8057 54.1225C64.8057 36.0617 79.4864 21.375 97.5399 21.375C115.593 21.375 130.274 36.0617 130.274 54.1225C130.274 72.1833 115.593 86.87 97.5399 86.87ZM97.5399 24.5232C81.233 24.5232 67.9677 37.7939 67.9677 54.1074C67.9677 70.4209 81.233 83.6916 97.5399 83.6916C113.847 83.6916 127.112 70.4209 127.112 54.1074C127.112 37.7939 113.847 24.5232 97.5399 24.5232Z" fill="black"/>
<path fill-rule="evenodd" clip-rule="evenodd" d="M11.2929 37.8555C17.5265 37.8555 22.5857 42.9468 22.5857 49.2282C22.5857 55.5096 17.5265 60.601 11.2929 60.601C5.0592 60.601 0 55.5096 0 49.2282C0 42.9468 5.0592 37.8555 11.2929 37.8555Z" fill="#223549"/>
<path fill-rule="evenodd" clip-rule="evenodd" d="M403.313 84.1445C407.077 84.1445 410.134 87.2024 410.134 90.9682C410.134 94.734 407.077 97.7918 403.313 97.7918C399.549 97.7918 396.492 94.734 396.492 90.9682C396.492 87.2024 399.549 84.1445 403.313 84.1445Z" fill="#223549"/>
<path d="M211.298 155.948H152.695C151.822 155.948 151.114 155.24 151.114 154.367C151.114 153.493 151.822 152.785 152.695 152.785H211.298C212.171 152.785 212.879 153.493 212.879 154.367C212.879 155.24 212.171 155.948 211.298 155.948Z" fill="white"/>
<path d="M167.254 162.097H152.679C151.805 162.097 151.098 161.389 151.098 160.515C151.098 159.642 151.805 158.934 152.679 158.934H167.254C168.127 158.934 168.835 159.642 168.835 160.515C168.85 161.389 168.127 162.097 167.254 162.097Z" fill="white"/>
<path d="M211.387 168.195H152.739C151.866 168.195 151.158 167.487 151.158 166.613C151.158 165.739 151.866 165.031 152.739 165.031H211.387C212.26 165.031 212.968 165.739 212.968 166.613C212.968 167.487 212.26 168.195 211.387 168.195Z" fill="white"/>
<path d="M211.508 174.402H176.35C175.476 174.402 174.769 173.694 174.769 172.82C174.769 171.946 175.476 171.238 176.35 171.238H211.508C212.381 171.238 213.089 171.946 213.089 172.82C213.104 173.694 212.396 174.402 211.508 174.402Z" fill="white"/>
<path d="M211.387 168.195H152.739C151.866 168.195 151.158 167.487 151.158 166.613C151.158 165.739 151.866 165.031 152.739 165.031H211.387C212.26 165.031 212.968 165.739 212.968 166.613C212.968 167.472 212.26 168.195 211.387 168.195Z" fill="white"/>
<path d="M171.666 174.402H168.595C167.721 174.402 167.014 173.694 167.014 172.82C167.014 171.946 167.721 171.238 168.595 171.238H171.666C172.54 171.238 173.247 171.946 173.247 172.82C173.262 173.694 172.555 174.402 171.666 174.402Z" fill="white"/>
<path d="M211.523 180.429H188.26C187.386 180.429 186.679 179.721 186.679 178.847C186.679 177.974 187.386 177.266 188.26 177.266H211.523C212.396 177.266 213.104 177.974 213.104 178.847C213.104 179.721 212.396 180.429 211.523 180.429Z" fill="white"/>
<path d="M211.298 155.948H152.695C151.822 155.948 151.114 155.24 151.114 154.367C151.114 153.493 151.822 152.785 152.695 152.785H211.298C212.171 152.785 212.879 153.493 212.879 154.367C212.879 155.24 212.171 155.948 211.298 155.948Z" fill="white"/>
<path d="M211.388 162.097H176.35C175.476 162.097 174.769 161.389 174.769 160.515C174.769 159.642 175.476 158.934 176.35 158.934H211.388C212.261 158.934 212.969 159.642 212.969 160.515C212.969 161.389 212.261 162.097 211.388 162.097Z" fill="white"/>
<path d="M211.387 168.195H152.739C151.866 168.195 151.158 167.487 151.158 166.613C151.158 165.739 151.866 165.031 152.739 165.031H211.387C212.26 165.031 212.968 165.739 212.968 166.613C212.968 167.487 212.26 168.195 211.387 168.195Z" fill="white"/>
<path d="M163.25 174.402H152.815C151.942 174.402 151.234 173.694 151.234 172.82C151.234 171.946 151.942 171.238 152.815 171.238H163.25C164.123 171.238 164.831 171.946 164.831 172.82C164.831 173.694 164.123 174.402 163.25 174.402Z" fill="white"/>
<path d="M211.387 168.195H152.739C151.866 168.195 151.158 167.487 151.158 166.613C151.158 165.739 151.866 165.031 152.739 165.031H211.387C212.26 165.031 212.968 165.739 212.968 166.613C212.968 167.472 212.26 168.195 211.387 168.195Z" fill="white"/>
<path d="M179.165 180.429H152.83C151.957 180.429 151.249 179.721 151.249 178.847C151.249 177.974 151.957 177.266 152.83 177.266H179.165C180.038 177.266 180.746 177.974 180.746 178.847C180.746 179.721 180.038 180.429 179.165 180.429Z" fill="white"/>
<path fill-rule="evenodd" clip-rule="evenodd" d="M40.7741 313.271H121.526C121.526 313.271 117.776 306.583 114.976 301.898C112.175 297.213 107.492 291.866 107.492 291.866C107.492 291.866 110.534 290.857 115.518 286.247C120.502 281.638 127.142 273.805 127.142 273.805C127.142 273.805 133.285 271.757 136.372 268.458C139.459 265.144 141.988 260.565 141.988 260.565L173.413 287.453C173.413 287.453 183.742 299.834 196.54 296.008C209.339 292.182 233.039 268.593 233.039 268.593C233.039 268.593 237.978 268.88 239.995 262.041C242.013 255.187 243.579 246.149 247.885 246.661C252.192 247.173 256.573 251.723 256.844 249.599C257.115 247.475 255.655 245.065 253.773 244.116C251.89 243.167 248.909 241.254 250.159 241.434C251.424 241.615 258.651 242.278 256.573 238.09C254.495 233.903 244.678 234.083 244.678 234.083C244.678 234.083 244.874 232.366 242.675 231.146C240.477 229.911 240.131 229.278 240.131 229.278C240.131 229.278 245.054 228.269 243.067 225.934C241.094 223.599 237.797 220.496 233.039 223.66C220.858 231.764 217.394 250.005 217.394 250.005L192.264 264.18L157.497 226.597C157.497 226.597 144.292 204.605 134.896 203.731C130.876 203.354 125.335 202.044 120.457 201.456C113.937 200.673 108.546 200.387 108.832 197.585C109.329 192.675 116.993 178.184 116.993 178.184C116.993 178.184 124.748 180.157 127.955 177.777C133.105 173.966 136.236 155.032 136.236 155.032C136.236 155.032 131.81 152.441 130.214 151.688C128.633 150.934 127.533 150.347 127.533 150.347C127.533 150.347 134.475 137.197 128.467 132.422C122.459 127.647 104.15 118.609 95.04 122.118C85.9305 125.643 83.0094 130.012 83.0094 130.012C83.0094 130.012 70.2108 124.619 64.6848 131.081C59.1589 137.543 52.9403 164.597 48.1069 170.938C43.2736 177.28 22.2387 193.518 25.1146 204.243C27.9906 214.968 34.7362 213.07 34.7362 213.07C34.7362 213.07 26.2439 229.369 32.056 239.16C37.868 248.936 38.6058 249.463 38.6058 249.463L24.3016 275.673C24.3016 275.673 17.842 287.889 24.0305 293.056C30.219 298.238 38.7414 297.379 43.4241 294.261C48.1069 291.143 52.88 284.59 53.1812 285.163C53.4974 285.735 56.7949 292.92 56.7949 292.92C56.7949 292.92 53.0908 296.716 49.5674 301.085C46.0892 305.468 40.7741 313.271 40.7741 313.271Z" fill="white"/>
<path fill-rule="evenodd" clip-rule="evenodd" d="M42.657 252.278C42.657 252.278 21.0801 284.513 27.0126 293.747C32.9452 302.98 53.0916 284.784 53.0916 284.784C53.0916 284.784 50.547 279.828 50.291 273.547C50.02 267.281 51.4956 253.618 51.4956 253.618L56.1783 253.076C56.1783 253.076 53.5885 267.085 55.5158 276.077C57.6389 285.989 61.6591 292.27 61.6591 292.27H108.562C108.562 292.27 117.988 287.526 121.27 282.509C124.538 277.493 127.549 272.071 127.549 272.071C127.549 272.071 132.398 272.492 135.846 268.455C139.294 264.434 141.733 260.291 141.733 260.291C141.733 260.291 180.159 294.108 189.464 296.533C199.598 299.184 214.339 285.025 214.339 285.025C214.339 285.025 215.378 274.857 209.129 267.642C202.88 260.427 196.963 261.888 196.963 261.888L192.415 264.027C192.415 264.027 160.78 233.238 153.643 222.422C146.506 211.622 138.36 203.563 130.38 202.629C122.4 201.695 108.11 201.078 108.457 197.417C108.788 193.757 111.257 189.524 111.257 189.524L98.0221 187.656C98.0221 187.656 96.6068 198.366 88.6566 201.168C80.7064 203.97 79.9686 205.31 79.9686 205.31L76.7615 252.262C76.7615 252.262 67.3206 254.085 63.5262 254.13C59.7168 254.191 42.657 252.278 42.657 252.278Z" fill="#F7C154"/>
<path fill-rule="evenodd" clip-rule="evenodd" d="M46.2559 313.407L122.204 313.814C122.204 313.814 119.343 308.436 115.654 302.577C111.95 296.717 106.56 291.746 106.56 291.746L62.0358 292.68C62.0358 292.68 58.8738 296.883 54.6879 301.914C50.502 306.93 46.2559 313.407 46.2559 313.407Z" fill="black"/>
<path fill-rule="evenodd" clip-rule="evenodd" d="M19.876 286.578C19.876 286.065 19.876 285.568 19.876 285.056C20.0868 281.562 21.6226 278.443 23.1735 275.28C27.5852 266.302 32.0873 257.822 37.3573 250.215C33.3973 246.434 29.2716 241.96 28.8199 234.655C28.5941 230.964 29.4072 227.304 30.2052 223.915C30.9731 220.601 31.6356 217.287 33.0962 214.696C25.0255 214.726 22.0291 207.42 23.5951 199.542C24.5889 194.556 27.4497 190.037 30.0697 186.874C35.8366 179.855 44.4944 175.592 48.9212 167.593C53.5438 159.263 54.8989 147.996 58.5578 139.093C60.2894 134.876 62.7889 130.281 66.5381 128.082C70.2723 125.883 78.117 126.049 82.3631 128.082C85.6155 125.25 89.2443 122.358 94.4842 121.198C105.566 118.728 118.124 122.916 124.9 127.54C128.619 130.071 132.308 133.912 132.338 139.244C132.368 143.658 130.561 146.685 129.04 149.849C130.817 152.304 136.885 151.536 137.578 155.076C137.984 157.184 136.494 160.046 135.921 162.095C134.084 168.813 133.241 177.701 127.52 179.99C124.403 181.24 120.443 180.608 117.326 179.99C116.106 183.168 114.872 186.136 113.471 189.073C112.116 191.935 110.279 194.933 110.309 198.578C112.282 200.13 115.218 200.069 117.747 200.235C126.541 200.792 134.34 201.591 140.183 205.191C147.53 209.725 152.319 217.799 157.528 224.472C168.234 238.179 180.054 250.848 192.627 262.476C200.486 258.229 208.196 253.815 216.025 249.537C216.884 240.725 220.618 233.811 225.798 228.193C228.854 224.879 234.922 219.275 241.487 222.815C243.941 224.14 246.953 228.102 242.857 229.699C244.047 229.94 244.679 231.717 246.305 232.184C247.63 232.561 249.242 232.32 250.717 232.591C254.225 233.269 259.119 235.363 258.697 239.475C258.517 241.328 257.177 242.623 254.707 242.503C256.318 243.693 259.526 246.781 258.005 250.215C257.719 250.878 257.056 251.601 256.077 251.736C252.66 252.218 250.853 248.347 247.54 249.115C244.995 249.718 243.926 254.297 243.128 257.385C242.24 260.804 241.276 264.374 239.409 266.333C237.648 268.185 235.524 268.848 233.763 270.053C232.016 271.243 230.465 273.201 228.809 274.738C223.659 279.498 218.826 284.092 213.39 288.506C206.856 293.823 197.34 301.234 185.715 296.625C181.213 294.847 177.524 292.031 173.745 289.184C162.467 280.688 152.921 271.499 142.23 262.476C139.174 267.809 135.123 272.162 128.875 274.316C124.162 282.089 117.612 288.024 109.602 292.497C115.248 298.658 119.675 305.783 122.822 314.671C123.288 315.981 124.041 317.743 122.415 317.969C121.045 318.165 120.473 316.297 120.081 315.213C117.552 308.404 115.097 303.644 111.002 298.553C109.933 297.227 107.433 293.763 105.913 293.326C104.437 292.889 102.058 293.19 99.9951 293.19C87.7988 293.19 76.5963 292.904 64.6108 293.612C62.6835 293.733 59.8678 293.431 58.6933 293.883C58.2115 294.064 58.1061 294.682 57.5941 295.254C57.1424 295.766 56.5401 296.067 56.2239 296.354C50.8034 301.34 46.1055 306.838 42.3262 312.878C41.754 313.782 41.3625 315.469 39.5707 315.213C38.1554 312.758 40.6097 310.317 41.7691 308.6C44.5245 304.548 47.5058 301.053 50.713 297.724C52.3994 295.962 54.402 294.682 55.6668 292.769C54.6279 291.097 53.619 289.394 52.9114 287.391C51.9628 287.903 51.2701 288.897 50.4269 289.726C45.5936 294.561 34.1953 301.987 25.2363 296.339C22.1797 294.426 20.4331 291.277 19.876 286.578ZM126.691 132.902C121.497 127.224 108.532 122.509 98.0527 123.819C92.8429 124.467 88.1903 126.154 85.7962 129.468C86.9556 129.784 87.8891 130.312 88.6872 130.989C89.3647 133.671 91.3824 134.876 91.7136 137.738C92.2557 142.377 88.5366 143.929 85.3896 145.586C84.9229 152.409 84.3356 159.128 83.8689 165.966C87.6934 168.557 91.5631 171.811 94.1981 176.013C94.7401 176.887 95.8694 180.05 96.9535 180.141C97.7666 180.216 98.7604 178.77 99.2874 178.077C101.365 175.411 102.57 172.368 103.699 169.265C100.688 167.096 99.0916 160.378 102.6 157.832C102.374 157.32 102.043 156.913 102.193 156.04C102.961 154.835 104.467 154.699 105.642 154.247C113.456 151.204 118.817 146.64 123.258 140.057C123.876 139.139 124.734 137.256 125.878 137.301C129.131 137.452 125.261 142.317 124.915 142.95C125.698 143.823 126.104 146.264 127.113 147.363C130.049 142.483 130.034 136.548 126.691 132.902ZM82.2276 149.834C82.3933 147.755 82.2879 144.079 82.9203 143.221C83.4473 142.498 85.6306 142.242 86.5039 141.699C87.4976 141.082 88.7173 140.193 88.8377 138.943C88.9883 137.512 88.1903 136.292 87.603 135.358C86.9556 134.333 86.2931 133.384 85.5402 132.601C81.0682 130.507 73.5848 127.901 68.3299 130.538C62.6533 133.384 60.1388 142.543 58.1362 149.397C56.2541 155.889 54.673 163.029 51.8122 168.407C45.6388 179.96 33.2768 183.53 27.9918 195.264C27.1335 197.162 26.3355 199.889 26.2 201.741C25.7633 207.827 28.052 211.066 32.9456 211.517C35.8064 211.789 38.1252 210.825 38.4565 212.346C38.7125 213.506 37.7789 213.928 36.9357 214.681C34.5266 216.835 34.0749 219.938 33.2166 223.628C32.6444 226.114 31.997 228.72 31.8314 231.07C31.0936 242.156 38.6824 248.769 46.6928 251.179C54.929 253.649 65.2883 252.761 74.7743 251.179C76.7017 218.326 79.6529 182.912 82.2276 149.834ZM108.804 156.311C109.782 156.838 111.152 157.727 112.237 159.067C113.004 160.001 115.293 163.918 112.372 163.752C111.062 163.677 109.963 160.83 109.075 160.031C106.997 158.164 104.181 159.489 103.564 161.402C102.781 163.812 104.633 166.207 106.048 167.051C107.448 167.879 112.237 167.307 112.237 169.386C112.237 171.811 108.126 170.892 106.319 170.35C104.316 175.351 102.419 182.219 96.4115 183.153C96.1706 184.238 95.8242 185.217 95.5833 186.317C100.612 186.829 106.169 186.844 111.002 187.552C111.77 185.744 112.613 184.133 113.486 182.039C113.908 181.014 114.751 176.993 116.106 176.661C117.567 176.315 119.78 177.505 121.617 177.625C128.619 178.092 129.793 174.236 131.254 168.813C130.215 167.683 125.577 165.499 125.607 163.586C125.622 162.863 126.375 162.08 127.128 162.08C128.995 162.065 130.531 165.529 132.082 165.801C132.805 162.351 133.798 159.158 134.702 155.889C129.116 154.036 124.478 151.249 122.867 145.42C119.283 150.18 114.45 153.645 108.804 156.311ZM81.264 199C89.0636 196.71 91.8341 189.39 93.927 181.376C91.277 176.646 88.13 172.383 83.5978 169.536C82.7847 179.312 82.1373 189.269 81.264 199ZM80.993 202.299C80.0443 216.036 78.8548 231.687 77.9665 246.088C77.8309 248.332 78.1471 250.998 77.5599 252.429C76.7167 254.478 72.8771 254.448 70.4078 254.764C65.0775 255.457 58.3771 256.135 52.7909 255.457C49.7192 268.366 52.3241 283.219 58.3018 291.127C71.793 289.937 86.5641 290.298 100.974 290.298C103.127 290.298 105.536 290.765 107.162 290.434C108.156 290.238 109.195 289.259 110.189 288.641C115.338 285.478 119.524 281.938 123.123 277.494C124.282 276.048 125.818 272.81 127.113 271.846C128.333 270.942 130.064 270.701 131.374 269.918C135.244 267.643 137.819 264.254 140.047 260.413C139.023 259.087 137.773 258.289 136.328 256.963C135.455 256.165 132.865 254.523 133.301 252.836C133.437 252.279 134.009 251.917 134.401 251.872C135.485 251.736 136.494 253.228 137.427 254.071C144.128 260.157 150.572 265.866 157.107 271.56C164.53 278.037 172.134 285.207 180.506 290.569C184.993 293.446 190.338 296.067 196.617 294.561C202.068 293.251 206.163 290.193 210.244 286.984C217.2 281.516 223.373 275.461 229.788 269.496C230.766 268.592 231.715 267.327 232.543 266.875C233.085 266.574 233.823 266.604 234.335 266.318C235.931 265.474 237.648 263.907 238.461 262.326C241.141 257.144 240.584 248.076 246.17 246.208C247.856 245.651 250.311 246.118 251.545 246.615C252.931 247.187 254.06 248.392 255.264 248.272C254.918 245.651 252.855 245.063 250.853 244.144C248.564 243.09 245.191 241.764 242.737 242.774C240.96 243.497 239.665 246.103 237.919 245.801C237.467 245.726 236.729 245.124 236.684 244.431C236.548 242.503 240.057 240.469 241.502 239.882C243.399 239.128 245.266 239.641 247.42 239.61C248.203 239.595 249.031 239.249 249.753 239.204C252.072 239.038 254.075 239.836 255.535 239.068C255.129 236.507 251.063 235.543 247.962 235.348C243.038 235.031 240.599 237.065 238.19 239.475C237.211 240.454 235.811 243.316 234.335 243.195C233.793 243.15 233.025 242.488 232.965 241.825C232.769 240.032 235.871 237.351 236.684 236.598C238.581 234.82 240.102 233.706 242.195 233.013C239.003 229.88 235.916 232.742 233.943 235.212C233.025 236.357 231.82 239.716 230.224 239.626C227.348 239.445 229.953 235.604 230.495 234.805C231.293 233.63 232.001 232.621 232.694 231.913C233.296 227.921 236.307 225.767 241.367 226.686C240.614 224.547 236.292 224.562 234.064 225.451C231.82 226.355 229.983 228.162 228.146 230.136C223.644 234.956 220.859 240.258 219.338 247.895C218.886 250.185 219.112 253.303 216.312 252.851C209.295 256.888 202.188 260.85 194.976 264.691C194.84 266.513 200.411 268.095 199.794 270.611C199.673 271.093 199.177 271.499 198.695 271.575C197.505 271.755 195.442 269.375 194.283 268.276C190.187 264.389 185.881 260.774 182.448 256.978C172.315 245.816 162.648 236.281 153.538 224.201C148.795 217.919 144.685 211.563 138.948 207.948C135.319 205.658 130.35 204.423 125.05 203.82C120.458 203.293 112.282 203.76 109.09 201.621C105.34 199.105 108.337 193.502 109.647 190.324C104.708 189.947 99.6789 189.661 94.6347 189.359C91.7739 195.37 88.0246 200.476 80.993 202.299ZM26.3506 275.431C24.9954 278.308 23.294 281.019 23.053 284.378C22.526 291.639 27.3443 295.872 34.3459 295.254C39.9321 294.772 44.8558 291.187 48.2436 287.948C49.1471 287.09 51.3454 284.936 51.4056 283.957C51.4508 283.324 50.6227 281.953 50.3065 280.929C47.9425 273.307 48.2135 263.245 49.8999 255.035C46.0302 254.448 42.6574 253.378 39.8568 251.736C35.2794 258.47 30.1751 267.312 26.3506 275.431Z" fill="black"/>
<path fill-rule="evenodd" clip-rule="evenodd" d="M120.909 149.427C122.46 148.674 122.987 150.286 123.665 151.491C124.402 152.832 125.697 155.769 122.972 155.347C122.039 155.197 118.952 150.391 120.909 149.427Z" fill="black"/>
</g>
<defs>
<clipPath id="clip0">
<rect width="411" height="318" fill="white"/>
</clipPath>
</defs>
</svg>
