<svg width="452" height="108" viewBox="0 0 452 108" fill="none" xmlns="http://www.w3.org/2000/svg">
<g clip-path="url(#clip0)">
<path d="M216.954 70.3429C217.948 69.9127 218.717 69.3798 219.513 68.9024C221.997 67.412 224.47 65.905 226.954 64.4118C230.296 62.4052 233.646 60.4068 236.99 58.403C238.747 57.3511 240.476 56.2493 242.266 55.2557C244.337 54.1039 246.321 52.805 248.411 51.6948C250.04 50.8289 251.625 49.8852 253.232 48.9888C255.319 47.8259 257.476 46.7629 259.485 45.4695C261.031 44.4732 262.502 43.3685 264.187 42.597C266.165 41.6894 268.239 41.2786 270.381 41.595C272.163 41.8587 273.529 42.8329 274.617 44.3288C275.53 45.5833 275.979 47.0127 276.59 48.3865C276.768 48.7862 276.768 49.2746 276.792 49.727C276.879 51.2507 276.987 52.7966 276.77 54.2981C276.473 56.352 276.495 58.4613 275.766 60.4485C275.646 60.7704 275.688 61.1507 275.655 61.5059C276.057 61.4254 276.301 61.1285 276.601 60.8787C277.381 60.232 278.186 59.5909 279.066 59.1024C279.565 58.8249 280.02 58.4613 280.445 58.1449C282.449 56.6462 284.55 55.2973 286.615 53.8957C287.855 53.052 289.193 52.347 290.428 51.5061C292.318 50.2211 294.269 49.047 296.234 47.8925C298.507 46.5575 300.789 45.2364 303.145 44.043C304.463 43.3769 305.757 42.6497 307.095 42.028C309.612 40.8568 312.121 39.6606 314.771 38.7891C316.512 38.2173 318.218 37.5179 320.022 37.2099C322.218 36.8324 324.424 36.4189 326.675 36.5909C328.679 36.7436 330.505 37.3625 331.968 38.8002C332.293 39.1194 332.726 39.0777 333.056 39.322C334.31 40.249 335.013 41.4563 335.104 43.0383C335.237 45.3502 334.896 47.5816 334.213 49.7909C333.644 51.6337 332.873 53.3878 332.121 55.1558C331.466 56.6989 330.722 58.2032 329.917 59.6658C329.267 60.8426 328.56 62.0083 327.932 63.1934C327.03 64.9003 326.181 66.6432 325.315 68.3723C324.119 70.7592 322.803 73.0905 321.679 75.5107C320.733 77.5479 319.653 79.5267 318.829 81.6222C318.513 82.4298 318.049 83.1764 317.627 84.0035C318.035 84.0979 318.257 83.8231 318.438 83.6732C319.57 82.7268 320.869 82.0357 322.068 81.2003C323.014 80.5398 323.975 79.9042 324.929 79.2575C327.991 77.1898 331.063 75.1443 334.138 73.0989C335.712 72.0497 337.338 71.0839 338.887 69.9876C340.685 68.7165 342.531 67.5008 344.43 66.3879C345.884 65.5331 347.233 64.5228 348.706 63.6874C350.169 62.8603 351.501 61.7807 352.961 60.912C354.429 60.0377 355.842 59.0691 357.294 58.1643C359.075 57.0514 360.816 55.8579 362.622 54.7783C363.808 54.0678 364.987 53.3379 366.161 52.6162C367.446 51.8252 368.764 51.0814 370.005 50.2072C371.892 48.875 373.818 47.5844 375.795 46.3882C378.756 44.5953 381.762 42.8606 384.903 41.398C388.031 39.9409 391.22 38.6031 394.592 37.8094C397.54 37.1183 400.554 36.7603 403.552 37.2959C405.608 37.665 407.562 38.4782 409.033 40.0963C410.079 41.2481 410.784 42.572 410.848 44.1568C410.89 45.2419 411.178 46.2938 411.153 47.3901C411.101 49.6993 410.812 51.9723 410.387 54.2399C410.224 55.1141 410.332 56.0356 410.01 56.8848C409.63 57.884 409.86 58.9942 409.449 59.9739C409.155 60.6761 409.224 61.4199 409.086 62.1387C408.7 64.1231 408.342 66.1159 408.02 68.1142C407.834 69.266 407.651 70.4456 407.315 71.5307C406.907 72.8546 406.796 74.2229 406.396 75.5357C405.997 76.8512 405.752 78.214 405.433 79.5545C405.35 79.9042 405.231 80.2539 405.111 80.5814C404.767 81.5361 404.59 82.5297 404.306 83.4956C403.965 84.6613 403.471 85.7825 403.157 86.9538C402.922 87.8308 402.641 88.7023 402.339 89.5432C401.875 90.8338 401.467 92.1466 400.954 93.4233C400.576 94.3586 400.193 95.2939 399.849 96.2459C399.527 97.1368 399.128 98.0138 398.761 98.8936C398.331 99.9205 397.976 100.984 397.41 101.958C396.968 102.715 396.538 103.473 396.013 104.184C395.431 104.975 394.728 105.635 393.937 106.187C392.905 106.912 391.334 106.942 390.327 106.049C389.536 105.346 388.87 104.58 388.414 103.637C388.184 103.162 387.751 102.865 387.485 102.399C387.043 101.627 386.774 100.85 386.685 99.9816C386.577 98.9047 386.3 97.8334 386.441 96.7454C386.66 95.0552 386.627 93.3372 387.152 91.672C387.407 90.8643 387.432 89.9762 387.684 89.1464C388.009 88.0834 388.289 87.0065 388.611 85.9435C388.936 84.8722 389.289 83.8064 389.627 82.7407C389.983 81.6166 390.338 80.4926 390.693 79.3658C391.032 78.3 391.356 77.2287 391.712 76.1657C392.164 74.8057 392.533 73.4208 392.994 72.0609C393.332 71.0645 393.585 70.032 393.915 69.0273C394.379 67.6229 394.809 66.2075 395.223 64.792C395.625 63.4071 396.08 62.036 396.463 60.6428C396.927 58.9609 397.521 57.315 398.031 55.647C398.353 54.5951 398.603 53.5182 398.925 52.4664C399.208 51.5477 399.591 50.6596 399.86 49.7354C400.296 48.2311 400.762 46.724 400.315 45.1226C400.113 44.3982 399.441 43.8376 398.678 43.746C397.235 43.5739 395.98 44.1345 394.717 44.6924C391.739 46.008 388.85 47.5095 386.025 49.1137C382.844 50.9205 379.716 52.8216 376.622 54.7755C372.475 57.3927 368.412 60.1293 364.382 62.9214C360.727 65.4526 357.122 68.0531 353.566 70.7148C349.925 73.4402 346.306 76.199 342.737 79.0161C341.019 80.3732 339.295 81.7249 337.608 83.1237C336.131 84.3504 334.618 85.5383 333.117 86.7401C331.571 87.9807 330.053 89.2546 328.521 90.5119C327.455 91.3861 326.384 92.2493 325.332 93.143C323.941 94.3225 322.523 95.4854 321.038 96.5429C319.634 97.542 318.168 98.4523 316.689 99.3488C314.741 100.528 312.723 101.516 310.542 102.058C308.452 102.577 306.273 102.754 304.247 101.708C303.237 101.186 302.476 100.345 302.007 99.2794C301.419 97.95 300.692 96.6622 300.497 95.1995C300.328 93.9201 300.298 92.6295 300.533 91.3417C300.675 90.5757 300.672 89.7847 300.825 89.0215C301.019 88.0417 301.274 87.0703 301.558 86.1128C301.744 85.4772 301.927 84.8389 302.188 84.2172C302.634 83.1514 302.956 82.0329 303.398 80.9644C304.583 78.0891 306.02 75.3331 307.336 72.5188C308.255 70.551 309.251 68.6221 310.128 66.6377C311.072 64.5034 312.088 62.4024 313.081 60.2931C314.225 57.8729 315.349 55.4444 316.514 53.0353C317.486 51.0287 318.377 48.9832 319.295 46.9516C319.609 46.2577 319.817 45.5223 320.275 44.8922C320.478 44.6119 320.444 44.2955 319.953 44.3538C318.971 44.4704 318.094 44.9311 317.169 45.2336C315.54 45.7665 314.055 46.6241 312.562 47.4317C311.507 48.0035 310.472 48.6529 309.47 49.3357C308.249 50.1655 307.025 50.9898 305.785 51.7919C305.318 52.0945 304.896 52.4608 304.444 52.78C302.973 53.818 301.552 54.9309 300.125 56.0272C299.409 56.5768 298.71 57.204 297.994 57.7646C297.197 58.3836 296.562 59.2134 295.604 59.6353C295.377 59.7352 295.232 60.01 295.033 60.182C293.381 61.6114 291.738 63.0491 290.065 64.4506C289.501 64.9225 289.032 65.4886 288.469 65.9549C286.073 67.9393 283.873 70.1375 281.558 72.2135C279.387 74.1618 277.389 76.2878 275.263 78.2806C272.407 80.9561 269.621 83.7037 266.879 86.4986C264.292 89.1325 261.88 91.944 259.132 94.4141C257.964 95.4632 256.801 96.5401 255.524 97.456C254.342 98.3052 253.201 99.2184 251.939 99.9566C249.405 101.439 246.826 102.69 243.751 102.352C242.721 102.238 241.853 101.794 241.023 101.275C240.518 100.959 240.026 100.587 239.566 100.173C237.867 98.6522 237.731 96.726 238.028 94.6861C238.234 93.2762 239.13 92.1743 239.846 91.0059C240.743 89.5432 241.7 88.1222 242.591 86.6512C243.224 85.6049 243.901 84.578 244.539 83.5289C245.513 81.9247 246.529 80.3455 247.531 78.7552C248.355 77.4424 249.194 76.1352 249.954 74.7919C250.914 73.0961 251.98 71.4614 252.882 69.7239C253.351 68.8164 253.981 67.9643 254.461 67.0484C255.022 65.9799 255.622 64.928 256.215 63.8845C257.195 62.1665 258.164 60.4402 259.044 58.6722C259.851 57.0486 260.723 55.4361 261.131 53.6404C261.161 53.5044 261.414 53.3628 261.192 53.2324C261.014 53.1269 260.781 53.1602 260.595 53.2601C260.132 53.5155 259.713 53.8374 259.232 54.0789C257.645 54.8727 256.093 55.7386 254.553 56.6101C252.979 57.501 251.378 58.3558 249.835 59.3078C248.727 59.9905 247.57 60.5873 246.443 61.2339C244.953 62.0888 243.468 62.9547 241.986 63.8206C240.898 64.4534 239.821 65.1056 238.744 65.7523C237.692 66.3851 236.643 67.0373 235.594 67.6812C234.52 68.339 233.435 68.9885 232.366 69.649C231.253 70.3373 230.146 71.0561 229.055 71.7972C227.801 72.6492 226.549 73.5068 225.242 74.2729C224.021 74.9889 222.908 75.8549 221.734 76.6347C220.618 77.3758 219.477 78.0863 218.425 78.9272C217.632 79.5628 216.791 80.1429 215.944 80.7035C214.967 81.3502 214.007 82.0468 213.116 82.7823C211.959 83.7398 210.782 84.689 209.611 85.6216C206.855 87.8225 204.384 90.3037 201.967 92.8515C200.788 94.0921 199.905 95.5437 199.017 96.9925C197.962 98.7132 196.883 100.448 195.273 101.691C193.435 103.112 190.996 103.54 188.67 102.174C187.574 101.53 186.328 101.095 185.423 100.098C184.943 99.5708 184.754 98.9991 184.685 98.3413C184.446 96.0571 185.287 94.0422 186.269 92.0689C187.119 90.3592 188.223 88.805 189.222 87.1841C190.174 85.6382 190.924 83.9674 191.737 82.3382C192.883 80.0402 194.041 77.7477 195.131 75.4219C195.972 73.629 196.827 71.8388 197.635 70.0292C198.251 68.6526 198.786 67.2344 199.491 65.8911C199.558 65.7634 199.583 65.5497 199.447 65.4387C199.314 65.3304 199.133 65.3804 198.992 65.4664C198.048 66.0465 197.127 66.671 196.158 67.2094C194.421 68.1725 192.758 69.2549 191.007 70.1985C189.766 70.8674 188.592 71.6834 187.357 72.3884C186.081 73.1183 184.84 73.9065 183.549 74.6198C182.564 75.1638 181.62 75.7966 180.635 76.3544C178.928 77.3175 177.258 78.3416 175.559 79.3214C174.338 80.0263 173.117 80.7507 171.904 81.4695C170.91 82.0579 169.917 82.6713 168.884 83.2125C167.89 83.7315 166.933 84.3365 165.953 84.8972C164.496 85.7326 163.058 86.5957 161.582 87.3978C160.466 88.0056 159.364 88.6606 158.263 89.3045C156.717 90.2066 155.162 91.0975 153.597 91.969C151.527 93.1235 149.456 94.2726 147.391 95.4327C145.36 96.5734 143.286 97.628 141.227 98.7132C139.867 99.4293 138.496 100.126 137.075 100.698C135.163 101.466 133.162 101.633 131.335 100.567C130.05 99.8178 129.279 98.5301 128.74 97.109C127.755 94.5029 127.577 91.8163 127.788 89.077C127.869 88.0306 128.163 87.0287 128.496 86.0434C129.301 83.6677 130.386 81.414 131.555 79.1992C132.826 76.7902 134.139 74.4061 135.385 71.9859C136.192 70.4206 137.008 68.858 137.805 67.2927C138.413 66.0992 139.007 64.8781 139.617 63.6818C140.072 62.7882 140.561 61.8945 141.052 61.0119C141.854 59.5714 142.679 58.1393 143.508 56.7155C144.349 55.2695 145.235 53.8458 146.076 52.3942C146.881 51.0037 147.708 49.6243 148.732 48.3809C150.416 46.3327 152.487 44.9228 155.14 44.4038C156.511 44.1345 157.827 44.24 159.006 44.9366C160.078 45.5694 160.699 46.6352 160.927 47.8564C161.224 49.4439 161.285 51.0509 160.949 52.6468C160.713 53.7653 160.319 54.8255 159.847 55.8746C159.37 56.9376 158.696 57.8812 158.09 58.8526C157.563 59.6991 156.953 60.5345 156.259 61.2839C155.276 62.3441 154.591 63.6152 153.78 64.7948C152.773 66.2685 151.821 67.7839 150.855 69.2854C150.15 70.3817 149.481 71.5002 148.754 72.5826C148.16 73.468 147.588 74.3783 147.039 75.2859C146.595 76.0158 146.181 76.7818 145.732 77.509C144.743 79.1076 143.869 80.7673 142.964 82.4104C142.254 83.6982 141.746 85.097 141.163 86.4542C141.085 86.6346 141.016 86.9232 141.171 87.0454C141.355 87.1897 141.563 87.0176 141.757 86.8844C142.878 86.1128 144.105 85.505 145.254 84.7917C146.634 83.9397 148.038 83.132 149.423 82.2855C151.479 81.0282 153.555 79.8043 155.631 78.5775C158.093 77.1232 160.561 75.68 163.025 74.2285C164.627 73.2848 166.203 72.2968 167.824 71.3864C170.813 69.7073 173.697 67.845 176.675 66.1492C179.209 64.706 181.659 63.1212 184.199 61.6946C185.759 60.8176 187.293 59.8989 188.834 58.9942C190.235 58.1699 191.631 57.3234 193.014 56.4602C194.418 55.5832 195.842 54.7339 197.266 53.8846C198.601 53.0881 199.935 52.2971 201.287 51.531C202.436 50.8816 203.585 50.221 204.701 49.5272C205.853 48.8139 207.029 48.1367 208.181 47.4234C209.316 46.7185 210.493 46.0635 211.623 45.3613C212.872 44.5842 214.182 43.8764 215.375 43.0022C217.407 41.5146 220.94 41.9475 222.705 43.5351C224.409 45.0643 225.475 46.9211 226.308 48.9999C226.882 50.4292 226.524 51.7309 225.997 53.0242C225.075 55.2779 223.743 57.2956 222.272 59.2245C221.234 60.5845 220.177 61.9417 219.438 63.4931C218.703 65.039 217.909 66.5627 217.523 68.2641C217.379 68.9218 217.196 69.5824 216.954 70.3429Z" fill="#223549"/>
<path d="M78.4277 82.4472C79.5378 81.6007 80.5286 80.793 81.5722 80.0687C82.4714 79.447 83.3401 78.7725 84.2144 78.1259C85.2052 77.3959 86.1489 76.5716 87.1425 75.8361C88.4719 74.8536 89.7652 73.8212 91.1308 72.8803C91.7413 72.4612 92.3159 71.9478 92.9126 71.4898C94.3919 70.3519 95.8934 69.2417 97.381 68.1149C98.5883 67.199 99.7873 66.2693 100.995 65.3561C102.471 64.2404 103.956 63.1358 105.433 62.0229C106.923 60.8988 108.391 59.7442 109.904 58.6535C111.019 57.8514 112.11 57.0132 113.212 56.1889C114.755 55.0316 116.323 53.9075 117.875 52.7557C119.16 51.801 120.431 50.8324 121.713 49.8721C123.226 48.7369 124.736 47.5962 126.259 46.4777C127.9 45.2732 129.54 44.0631 131.216 42.9085C131.996 42.3729 132.657 41.6679 133.548 41.2794C133.861 41.1434 134.03 41.1545 134.233 41.4098C135.102 42.5033 135.982 43.583 136.85 44.6737C137.311 45.251 136.836 45.6756 136.456 45.8338C135.776 46.1169 135.346 46.6776 134.785 47.08C133.539 47.9709 132.429 49.0505 131.188 49.947C130.073 50.7547 129.051 51.6761 127.941 52.4921C127.134 53.086 126.368 53.7854 125.582 54.4349C124.93 54.9761 124.264 55.5145 123.614 56.0585C122.701 56.8245 121.771 57.5766 120.903 58.4009C119.937 59.3196 118.829 60.0828 117.833 60.971C116.912 61.7953 115.979 62.6196 115.03 63.4023C113.126 64.9759 111.297 66.6384 109.429 68.2481C107.975 69.4999 106.559 70.8237 105.136 72.1226C103.967 73.1912 102.879 74.3541 101.658 75.356C100.298 76.4717 99.1684 77.8233 97.8251 78.9335C95.8739 80.5433 94.2059 82.4333 92.3519 84.1319C86.4791 89.5106 81.0116 95.3002 75.3775 100.923C74.1813 102.117 72.949 103.274 71.6001 104.295C69.7378 105.708 67.8117 107.004 65.5552 107.745C63.704 108.356 61.5226 107.837 60.4152 106.296C59.6714 105.261 59.3577 104.009 59.2523 102.733C59.0497 100.288 59.0524 97.8314 59.255 95.3918C59.4271 93.3019 59.6214 91.2148 59.824 89.1276C60.01 87.2265 60.1293 85.317 60.368 83.4241C60.665 81.0928 60.7205 78.7392 61.0757 76.4134C61.2311 75.3921 61.2339 74.3457 61.3449 73.3133C61.6225 70.7238 61.7279 68.1121 62.0332 65.5254C62.197 64.1461 62.2303 62.7695 62.3496 61.3928C62.3635 61.2263 62.4412 61.0903 62.2525 60.996C62.086 60.9127 61.9583 60.9821 61.8084 61.0709C60.6316 61.7759 59.4354 62.4503 58.267 63.1747C57.2512 63.8047 56.2909 64.5207 55.2668 65.1341C54.1233 65.8169 53.0742 66.6412 52.0001 67.41C50.7539 68.2981 49.4939 69.189 48.3004 70.1604C47.3513 70.932 46.3521 71.6453 45.389 72.3974C44.7146 72.9219 44.0624 73.4909 43.3769 74.0016C42.0224 75.0118 40.7263 76.0998 39.4274 77.1683C38.0897 78.2674 36.7325 79.3609 35.4614 80.5516C34.4039 81.5424 33.1661 82.339 32.1142 83.3326C30.9763 84.4066 29.769 85.403 28.6172 86.4604C26.0388 88.8223 23.4077 91.1259 20.8238 93.4823C17.8624 96.1855 14.8705 98.861 12.0479 101.717C11.7593 102.011 11.4262 102.291 11.1043 102.566C10.5575 103.032 9.90527 103.074 9.23084 103.202C8.01243 103.429 6.819 103.815 5.64222 104.218C4.41271 104.637 3.21373 105.156 2.00365 105.63C1.44301 105.85 0.876826 106.049 0.324517 106.285C0.196848 106.341 0.124687 106.385 0.0580767 106.244C0.0192208 106.163 -0.00575804 106.083 0.0775046 105.999C1.55958 104.503 3.0361 103.002 4.52095 101.509C6.64138 99.3773 8.86726 97.3401 10.8517 95.092C12.145 93.6266 13.5522 92.2805 14.8899 90.8651C16.0362 89.6522 17.1991 88.4449 18.4452 87.3181C19.4916 86.3744 20.524 85.3864 21.4066 84.2928C22.8221 82.536 24.4873 81.0401 26.0638 79.4497C27.94 77.5569 29.8606 75.7029 31.6757 73.7518C32.9885 72.3419 34.2984 70.9264 35.6334 69.5387C36.974 68.1454 38.3672 66.8049 39.7299 65.4311C40.5792 64.5763 41.3702 63.6604 42.2029 62.7972C43.5933 61.3512 44.9838 59.8941 46.4215 58.487C48.2755 56.6691 50.1572 54.8678 51.8946 52.9389C53.0214 51.6844 54.1954 50.4799 55.3556 49.2615C56.5074 48.0542 57.7397 46.9218 58.8887 45.7117C59.5548 45.0095 60.3014 44.3878 60.8648 43.5635C61.2755 42.964 61.8889 42.47 62.4162 41.9344C63.729 40.5911 65.0335 39.2367 66.3962 37.9461C67.0984 37.28 67.9477 36.7749 68.8275 36.3585C70.6454 35.4954 72.5826 35.34 74.5643 35.4482C76.9761 35.5786 79.1631 36.4335 81.2336 37.5825C82.91 38.5123 84.4753 39.6224 85.9601 40.852C87.3257 41.9815 87.7725 43.3443 87.4672 45.0456C87.1425 46.8552 86.5097 48.5704 85.9296 50.305C85.5744 51.3652 85.258 52.4393 84.8777 53.4912C84.5253 54.4682 84.0562 55.4063 83.7343 56.3915C83.0737 58.4287 82.1745 60.3743 81.5111 62.4114C81.2003 63.3662 80.7729 64.3098 80.487 65.2757C80.0984 66.5801 79.8542 67.9345 79.6433 69.2834C79.5295 70.0022 79.2742 70.6822 79.1326 71.3955C78.98 72.1781 78.8884 72.9802 78.7551 73.7601C78.5553 74.9286 78.3277 76.1137 78.3555 77.321C78.3832 78.4894 77.9947 79.6385 78.1751 80.818C78.2611 81.3204 78.3361 81.8311 78.4277 82.4472Z" fill="#223549"/>
<path d="M429.985 82.9261C422.936 82.9261 415.883 82.9261 408.834 82.9261C407.996 82.9261 408.01 82.9261 408.179 82.0852C408.573 80.1285 409.139 78.2107 409.544 76.2596C409.914 74.4805 410.477 72.7515 410.743 70.9474C410.849 70.2314 411.154 69.5431 411.404 68.852C411.484 68.63 411.731 68.5495 411.967 68.53C412.151 68.5162 412.336 68.5273 412.522 68.5273C425.375 68.5273 438.228 68.5356 451.081 68.5078C451.825 68.5051 451.95 68.7382 451.947 69.4126C451.917 73.6424 451.917 77.8721 451.947 82.1018C451.953 82.7485 451.831 82.9456 451.137 82.9428C444.087 82.915 437.038 82.9261 429.985 82.9261Z" fill="#EC663D"/>
<path d="M364.601 82.9256C357.571 82.9256 350.541 82.9256 343.511 82.9201C343.297 82.9201 342.973 83.0588 342.889 82.8063C342.795 82.5232 343.122 82.3372 343.314 82.1985C347.039 79.5285 350.538 76.5671 354.152 73.7556C356.253 72.1209 358.329 70.4501 360.422 68.8043C360.691 68.5933 361.01 68.5156 361.376 68.5156C370.974 68.5267 380.571 68.524 390.169 68.5267C390.932 68.5267 390.932 68.5822 390.685 69.3038C390.335 70.328 390.069 71.3771 389.752 72.4123C389.33 73.7834 388.836 75.135 388.473 76.5227C388.137 77.8105 387.624 79.0428 387.388 80.3611C387.263 81.0577 386.946 81.7183 386.724 82.3983C386.566 82.8812 386.214 82.9367 385.764 82.9367C378.709 82.9228 371.657 82.9256 364.601 82.9256Z" fill="#EC663D"/>
<path d="M174.68 24.9205C167.878 25.2619 162.174 19.3142 162.141 12.7059C162.107 5.62856 167.683 -0.00554675 174.65 4.09807e-06C181.56 0.00277952 186.967 5.53142 187.206 12.223C187.453 19.2115 181.369 25.2452 174.68 24.9205Z" fill="#EC663D"/>
</g>
<defs>
<clipPath id="clip0">
<rect width="451.922" height="108" fill="white" transform="translate(0.0292969)"/>
</clipPath>
</defs>
</svg>
