<svg width="302" height="72" viewBox="0 0 302 72" fill="none" xmlns="http://www.w3.org/2000/svg">
<g>
<path d="M144.614 46.8952C145.276 46.6084 145.789 46.2532 146.32 45.9349C147.976 44.9413 149.624 43.9366 151.28 42.9412C153.508 41.6034 155.741 40.2712 157.971 38.9353C159.142 38.2341 160.295 37.4995 161.488 36.8371C162.869 36.0692 164.192 35.2033 165.585 34.4632C166.671 33.8859 167.728 33.2568 168.799 32.6592C170.19 31.8839 171.628 31.1752 172.968 30.313C173.998 29.6488 174.979 28.9124 176.102 28.398C177.421 27.7929 178.803 27.5191 180.232 27.73C181.42 27.9058 182.33 28.5553 183.055 29.5526C183.664 30.3889 183.964 31.3418 184.371 32.2577C184.489 32.5241 184.489 32.8498 184.506 33.1513C184.563 34.1672 184.635 35.1978 184.491 36.1988C184.293 37.568 184.308 38.9742 183.821 40.299C183.742 40.5136 183.769 40.7671 183.747 41.0039C184.016 40.9503 184.178 40.7523 184.378 40.5858C184.898 40.1547 185.435 39.7272 186.021 39.4016C186.354 39.2166 186.658 38.9742 186.941 38.7633C188.277 37.7641 189.677 36.8649 191.054 35.9305C191.881 35.368 192.773 34.898 193.596 34.3374C194.856 33.4807 196.157 32.698 197.467 31.9283C198.982 31.0383 200.503 30.1576 202.074 29.362C202.953 28.9179 203.815 28.4331 204.707 28.0187C206.385 27.2378 208.058 26.4404 209.825 25.8594C210.985 25.4782 212.123 25.012 213.326 24.8066C214.789 24.5549 216.26 24.2792 217.761 24.394C219.097 24.4957 220.314 24.9083 221.289 25.8668C221.506 26.0796 221.795 26.0518 222.015 26.2146C222.851 26.8326 223.319 27.6375 223.38 28.6922C223.469 30.2335 223.241 31.7211 222.786 33.1939C222.407 34.4225 221.893 35.5919 221.391 36.7705C220.955 37.7993 220.459 38.8021 219.922 39.7772C219.489 40.5617 219.017 41.3388 218.599 42.1289C217.998 43.2668 217.432 44.4288 216.854 45.5815C216.057 47.1728 215.18 48.727 214.43 50.3405C213.8 51.6986 213.08 53.0178 212.53 54.4148C212.319 54.9532 212.01 55.4509 211.729 56.0023C212.001 56.0652 212.149 55.8821 212.269 55.7821C213.024 55.1512 213.89 54.6905 214.69 54.1335C215.32 53.6932 215.961 53.2695 216.597 52.8383C218.638 51.4599 220.686 50.0962 222.736 48.7326C223.785 48.0332 224.87 47.3893 225.902 46.6584C227.101 45.811 228.332 45.0006 229.597 44.2586C230.567 43.6887 231.466 43.0152 232.449 42.4583C233.424 41.9069 234.312 41.1871 235.285 40.608C236.264 40.0251 237.206 39.3794 238.173 38.7762C239.361 38.0342 240.521 37.2386 241.726 36.5189C242.516 36.0452 243.302 35.5586 244.085 35.0775C244.942 34.5502 245.82 34.0543 246.648 33.4714C247.906 32.5833 249.19 31.7229 250.507 30.9255C252.481 29.7302 254.485 28.5738 256.58 27.5987C258.665 26.6273 260.791 25.7354 263.039 25.2062C265.004 24.7455 267.014 24.5068 269.012 24.8639C270.383 25.11 271.686 25.6522 272.666 26.7309C273.364 27.4987 273.834 28.3813 273.876 29.4378C273.904 30.1613 274.096 30.8626 274.08 31.5934C274.045 33.1328 273.852 34.6482 273.569 36.1599C273.46 36.7427 273.532 37.357 273.318 37.9232C273.064 38.5893 273.218 39.3294 272.944 39.9826C272.748 40.4507 272.794 40.9466 272.701 41.4258C272.444 42.7488 272.205 44.0773 271.991 45.4095C271.867 46.1773 271.745 46.9637 271.521 47.6872C271.249 48.5697 271.175 49.4819 270.908 50.3571C270.642 51.2342 270.479 52.1426 270.266 53.0363C270.211 53.2695 270.131 53.5026 270.052 53.7209C269.822 54.3574 269.704 55.0198 269.515 55.6637C269.288 56.4408 268.958 57.1884 268.749 57.9692C268.592 58.5539 268.405 59.1349 268.203 59.6955C267.894 60.5559 267.622 61.431 267.28 62.2822C267.028 62.9057 266.773 63.5293 266.544 64.1639C266.329 64.7579 266.063 65.3425 265.818 65.9291C265.532 66.6137 265.295 67.3223 264.917 67.9718C264.623 68.4769 264.336 68.9821 263.987 69.4557C263.598 69.9831 263.13 70.4234 262.603 70.7916C261.914 71.2746 260.867 71.2949 260.195 70.6991C259.668 70.231 259.224 69.7203 258.92 69.0912C258.767 68.7748 258.478 68.5768 258.301 68.266C258.006 67.7516 257.827 67.2335 257.768 66.6544C257.696 65.9365 257.511 65.2223 257.605 64.497C257.751 63.3701 257.729 62.2248 258.079 61.1147C258.249 60.5762 258.265 59.9841 258.434 59.4309C258.65 58.7222 258.837 58.0043 259.052 57.2957C259.268 56.5815 259.503 55.871 259.729 55.1604C259.966 54.4111 260.203 53.6617 260.44 52.9105C260.665 52.2 260.882 51.4858 261.119 50.7771C261.42 49.8705 261.666 48.9472 261.973 48.0406C262.199 47.3763 262.368 46.688 262.588 46.0182C262.897 45.082 263.184 44.1383 263.459 43.1947C263.728 42.2714 264.031 41.3573 264.286 40.4285C264.595 39.3072 264.991 38.21 265.332 37.098C265.546 36.3967 265.713 35.6788 265.927 34.9776C266.116 34.3651 266.372 33.773 266.551 33.1569C266.842 32.154 267.152 31.1493 266.854 30.0817C266.719 29.5988 266.272 29.2251 265.763 29.164C264.801 29.0493 263.964 29.423 263.122 29.7949C261.137 30.672 259.211 31.673 257.327 32.7424C255.207 33.947 253.122 35.2144 251.059 36.517C248.294 38.2618 245.585 40.0862 242.899 41.9476C240.462 43.635 238.059 45.3688 235.688 47.1432C233.261 48.9602 230.848 50.7993 228.469 52.6774C227.323 53.5822 226.174 54.4832 225.049 55.4158C224.065 56.2336 223.056 57.0255 222.055 57.8267C221.025 58.6538 220.013 59.5031 218.991 60.3412C218.281 60.9241 217.567 61.4995 216.865 62.0953C215.938 62.8817 214.993 63.6569 214.003 64.3619C213.067 65.028 212.09 65.6349 211.104 66.2325C209.805 67.0189 208.46 67.6776 207.005 68.0384C205.612 68.3844 204.16 68.5028 202.809 67.8053C202.135 67.4574 201.628 66.8968 201.316 66.1863C200.923 65.3 200.439 64.4415 200.309 63.4664C200.196 62.6134 200.176 61.753 200.333 60.8945C200.428 60.3838 200.426 59.8565 200.527 59.3476C200.657 58.6945 200.827 58.0469 201.016 57.4085C201.14 56.9848 201.262 56.5593 201.436 56.1448C201.734 55.4343 201.948 54.6886 202.243 53.9763C203.033 52.0594 203.991 50.222 204.868 48.3459C205.481 47.034 206.145 45.7481 206.73 44.4251C207.359 43.0022 208.036 41.6016 208.698 40.1954C209.461 38.5819 210.21 36.9629 210.987 35.3569C211.635 34.0191 212.229 32.6555 212.841 31.3011C213.05 30.8385 213.189 30.3482 213.494 29.9282C213.629 29.7413 213.607 29.5303 213.28 29.5692C212.625 29.6469 212.04 29.9541 211.424 30.1557C210.338 30.511 209.348 31.0827 208.352 31.6212C207.649 32.0023 206.959 32.4353 206.291 32.8905C205.477 33.4437 204.661 33.9932 203.834 34.528C203.523 34.7296 203.242 34.9739 202.94 35.1867C201.96 35.8787 201.012 36.6206 200.061 37.3515C199.584 37.7178 199.118 38.136 198.64 38.5098C198.109 38.9224 197.685 39.4756 197.047 39.7569C196.895 39.8235 196.799 40.0066 196.666 40.1214C195.565 41.0743 194.47 42.0327 193.354 42.9671C192.978 43.2816 192.666 43.6591 192.29 43.9699C190.693 45.2929 189.226 46.7583 187.683 48.1423C186.236 49.4412 184.904 50.8585 183.486 52.187C181.582 53.9707 179.725 55.8025 177.897 57.6657C176.172 59.4216 174.564 61.296 172.733 62.9427C171.954 63.6421 171.178 64.3601 170.327 64.9706C169.539 65.5368 168.778 66.1456 167.937 66.6377C166.247 67.6258 164.528 68.4603 162.478 68.2345C161.792 68.1587 161.213 67.8626 160.659 67.5166C160.323 67.3057 159.995 67.0578 159.688 66.7821C158.556 65.7681 158.465 64.484 158.663 63.1241C158.8 62.1841 159.398 61.4496 159.875 60.6706C160.473 59.6955 161.111 58.7481 161.705 57.7675C162.127 57.0699 162.578 56.3853 163.004 55.6859C163.653 54.6165 164.33 53.5637 164.998 52.5034C165.548 51.6283 166.107 50.7568 166.614 49.8612C167.254 48.7307 167.964 47.6409 168.566 46.4826C168.878 45.8776 169.298 45.3095 169.618 44.699C169.992 43.9866 170.392 43.2853 170.788 42.5896C171.441 41.4443 172.087 40.2934 172.673 39.1148C173.212 38.0324 173.793 36.9574 174.065 35.7602C174.085 35.6696 174.253 35.5752 174.105 35.4883C173.987 35.4179 173.832 35.4401 173.708 35.5068C173.399 35.677 173.119 35.8916 172.799 36.0526C171.741 36.5818 170.706 37.1591 169.68 37.74C168.63 38.334 167.563 38.9039 166.534 39.5385C165.796 39.9937 165.024 40.3915 164.273 40.8226C163.279 41.3925 162.29 41.9698 161.301 42.5471C160.576 42.9689 159.858 43.4038 159.14 43.8349C158.439 44.2567 157.74 44.6916 157.04 45.1208C156.324 45.5593 155.601 45.9923 154.888 46.4327C154.146 46.8915 153.408 47.3708 152.681 47.8648C151.845 48.4328 151.01 49.0046 150.139 49.5152C149.325 49.9926 148.583 50.5699 147.8 51.0898C147.056 51.5839 146.296 52.0575 145.594 52.6182C145.065 53.0419 144.505 53.4286 143.94 53.8023C143.289 54.2335 142.649 54.6979 142.055 55.1882C141.283 55.8265 140.499 56.4593 139.718 57.081C137.881 58.5483 136.234 60.2025 134.622 61.901C133.836 62.7281 133.248 63.6958 132.655 64.6616C131.952 65.8088 131.233 66.9652 130.159 67.7942C128.935 68.7415 127.308 69.0265 125.758 68.1161C125.027 67.6869 124.196 67.3964 123.593 66.7321C123.273 66.3806 123.147 65.9994 123.101 65.5609C122.941 64.0381 123.502 62.6948 124.157 61.3792C124.723 60.2395 125.46 59.2033 126.126 58.1227C126.76 57.0921 127.26 55.9783 127.802 54.8922C128.566 53.3601 129.338 51.8318 130.065 50.2813C130.626 49.086 131.196 47.8925 131.734 46.6862C132.145 45.7684 132.502 44.8229 132.972 43.9274C133.016 43.8423 133.033 43.6998 132.942 43.6258C132.853 43.5536 132.733 43.5869 132.639 43.6443C132.01 44.031 131.395 44.4473 130.75 44.8063C129.591 45.4483 128.483 46.1699 127.316 46.799C126.488 47.2449 125.706 47.7889 124.882 48.2589C124.031 48.7455 123.204 49.271 122.344 49.7465C121.687 50.1092 121.058 50.531 120.401 50.9029C119.263 51.545 118.149 52.2277 117.017 52.8809C116.203 53.3509 115.389 53.8338 114.58 54.313C113.918 54.7053 113.255 55.1142 112.567 55.475C111.905 55.821 111.266 56.2244 110.613 56.5981C109.642 57.1551 108.683 57.7305 107.699 58.2652C106.955 58.6704 106.22 59.1071 105.486 59.5364C104.455 60.1377 103.419 60.7316 102.376 61.3126C100.995 62.0824 99.615 62.8484 98.2383 63.6218C96.8839 64.3823 95.5018 65.0854 94.1289 65.8088C93.2222 66.2862 92.3082 66.7506 91.3609 67.1318C90.086 67.6443 88.752 67.7553 87.5345 67.0448C86.6778 66.5452 86.1634 65.6867 85.8045 64.7394C85.1476 63.0019 85.0292 61.2109 85.1698 59.3846C85.2235 58.6871 85.4196 58.0191 85.6416 57.3623C86.1782 55.7784 86.9017 54.276 87.6806 52.7995C88.5281 51.1934 89.4033 49.6041 90.234 47.9906C90.7725 46.947 91.3164 45.9053 91.8475 44.8618C92.2527 44.0662 92.6486 43.252 93.0557 42.4546C93.3592 41.8588 93.6848 41.263 94.0123 40.6746C94.547 39.7143 95.0966 38.7596 95.6498 37.8104C96.2104 36.8464 96.8007 35.8972 97.3613 34.9295C97.8979 34.0025 98.4493 33.0829 99.132 32.254C100.255 30.8885 101.635 29.9485 103.404 29.6025C104.318 29.423 105.195 29.4933 105.982 29.9578C106.696 30.3796 107.11 31.0901 107.262 31.9043C107.46 32.9626 107.501 34.0339 107.277 35.0978C107.12 35.8435 106.857 36.5503 106.542 37.2497C106.224 37.9584 105.775 38.5875 105.371 39.2351C105.02 39.7994 104.613 40.3563 104.15 40.8559C103.495 41.5627 103.038 42.4102 102.498 43.1965C101.826 44.179 101.191 45.1893 100.547 46.1903C100.078 46.9211 99.6316 47.6668 99.1468 48.3884C98.7509 48.9787 98.3697 49.5856 98.0034 50.1906C97.7073 50.6772 97.4316 51.1879 97.1319 51.6727C96.4732 52.7384 95.8903 53.8449 95.2871 54.9403C94.8135 55.7988 94.4749 56.7313 94.0863 57.6361C94.0345 57.7564 93.9883 57.9488 94.0919 58.0302C94.214 58.1264 94.3528 58.0117 94.4823 57.9229C95.2298 57.4085 96.0476 57.0033 96.8136 56.5278C97.7332 55.9598 98.6695 55.4213 99.5928 54.857C100.964 54.0188 102.348 53.2029 103.732 52.385C105.373 51.4155 107.018 50.4533 108.661 49.4856C109.729 48.8565 110.78 48.1978 111.86 47.5909C113.853 46.4715 115.775 45.23 117.761 44.0995C119.45 43.1373 121.084 42.0808 122.777 41.1298C123.817 40.5451 124.84 39.9326 125.867 39.3294C126.801 38.7799 127.732 38.2156 128.653 37.6401C129.59 37.0554 130.539 36.4893 131.488 35.9231C132.378 35.392 133.268 34.8647 134.169 34.354C134.935 33.9211 135.701 33.4807 136.445 33.0181C137.213 32.5426 137.997 32.0911 138.765 31.6156C139.522 31.1456 140.306 30.709 141.059 30.2409C141.892 29.7228 142.765 29.251 143.561 28.6681C144.915 27.6764 147.271 27.965 148.448 29.0234C149.584 30.0429 150.294 31.2807 150.849 32.6666C151.232 33.6195 150.994 34.4873 150.642 35.3495C150.028 36.8519 149.14 38.1971 148.159 39.483C147.467 40.3897 146.762 41.2944 146.27 42.3287C145.779 43.3594 145.25 44.3752 144.993 45.5094C144.897 45.9479 144.775 46.3883 144.614 46.8952Z" fill="#223549"/>
<path d="M52.2656 54.9661C53.0057 54.4018 53.6662 53.8633 54.3619 53.3804C54.9614 52.9659 55.5406 52.5163 56.1234 52.0852C56.784 51.5986 57.4131 51.0491 58.0755 50.5587C58.9617 49.9037 59.824 49.2154 60.7343 48.5882C61.1414 48.3088 61.5244 47.9665 61.9222 47.6612C62.9084 46.9026 63.9094 46.1625 64.9011 45.4112C65.706 44.8007 66.5053 44.1808 67.3102 43.5721C68.2946 42.8283 69.2845 42.0918 70.2688 41.3499C71.2624 40.6005 72.2412 39.8308 73.2496 39.1036C73.9934 38.5689 74.7206 38.0101 75.4551 37.4606C76.4839 36.689 77.5293 35.9397 78.5636 35.1718C79.4203 34.5353 80.2677 33.8895 81.1226 33.2493C82.131 32.4926 83.1375 31.7321 84.1533 30.9865C85.2468 30.1834 86.3404 29.3767 87.4579 28.607C87.9779 28.2499 88.4182 27.7799 89.0122 27.5209C89.2212 27.4302 89.3341 27.4376 89.4692 27.6078C90.0483 28.3369 90.6349 29.0566 91.214 29.7838C91.5211 30.1686 91.2047 30.4517 90.9513 30.5572C90.4979 30.7459 90.2111 31.1197 89.8374 31.388C89.0066 31.9819 88.2665 32.7017 87.4394 33.2993C86.6956 33.8377 86.0147 34.452 85.2746 34.996C84.7362 35.392 84.2255 35.8582 83.7019 36.2912C83.267 36.652 82.823 37.011 82.39 37.3736C81.7813 37.8843 81.1614 38.3857 80.5823 38.9353C79.9384 39.5477 79.2001 40.0565 78.5359 40.6486C77.9216 41.1982 77.2999 41.7477 76.6671 42.2695C75.3978 43.3186 74.1785 44.4269 72.9332 45.5001C71.9637 46.3345 71.02 47.2171 70.0708 48.083C69.2919 48.7954 68.5666 49.5707 67.7524 50.2386C66.8458 50.9824 66.0927 51.8835 65.1972 52.6236C63.8964 53.6968 62.7844 54.9568 61.5484 56.0892C57.6332 59.6751 53.9882 63.5348 50.2321 67.2834C49.4346 68.079 48.6131 68.8506 47.7139 69.5315C46.4723 70.4733 45.1883 71.3374 43.684 71.8314C42.4498 72.2385 40.9955 71.8925 40.2573 70.8656C39.7614 70.1754 39.5523 69.3409 39.482 68.4898C39.3469 66.8597 39.3488 65.2222 39.4838 63.5958C39.5985 62.2025 39.7281 60.8111 39.8631 59.4197C39.9871 58.1523 40.0667 56.8793 40.2258 55.6174C40.4238 54.0632 40.4608 52.4941 40.6976 50.9436C40.8012 50.2627 40.8031 49.5651 40.8771 48.8768C41.0621 47.1505 41.1324 45.4094 41.336 43.6849C41.4451 42.7653 41.4673 41.8476 41.5469 40.9299C41.5561 40.8188 41.608 40.7282 41.4821 40.6653C41.3711 40.6098 41.286 40.656 41.1861 40.7152C40.4016 41.1852 39.6041 41.6348 38.8251 42.1177C38.1479 42.5378 37.5077 43.0151 36.825 43.424C36.0627 43.8792 35.3633 44.4287 34.6472 44.9413C33.8164 45.5334 32.9764 46.1273 32.1808 46.7749C31.548 47.2893 30.8819 47.7648 30.2398 48.2662C29.7902 48.6159 29.3554 48.9952 28.8984 49.3357C27.9954 50.0092 27.1314 50.7345 26.2654 51.4469C25.3736 52.1796 24.4688 52.9086 23.6214 53.7024C22.9164 54.3629 22.0912 54.8939 21.3899 55.5563C20.6313 56.2724 19.8264 56.9366 19.0586 57.6416C17.3397 59.2162 15.5856 60.7519 13.863 62.3228C11.8887 64.125 9.89414 65.9087 8.0124 67.8126C7.81997 68.0087 7.59794 68.1956 7.38331 68.3788C7.0188 68.6896 6.58398 68.7174 6.13437 68.8025C5.32209 68.9542 4.52647 69.2114 3.74195 69.4797C2.92228 69.7591 2.12296 70.1051 1.31623 70.4215C0.942477 70.5677 0.565019 70.7009 0.196814 70.8582C0.111701 70.8952 0.0635933 70.9248 0.0191865 70.8304C-0.00671741 70.7767 -0.0233699 70.7231 0.0321385 70.6676C1.02019 69.6703 2.00454 68.6693 2.99444 67.6738C4.40805 66.2528 5.89198 64.8947 7.21493 63.396C8.07716 62.419 9.01525 61.5216 9.90709 60.578C10.6713 59.7694 11.4465 58.9646 12.2773 58.2133C12.9749 57.5842 13.6632 56.9255 14.2515 56.1965C15.1952 55.0253 16.3054 54.028 17.3563 52.9678C18.6071 51.7059 19.8875 50.4699 21.0976 49.1692C21.9728 48.2292 22.8461 47.2856 23.7361 46.3604C24.6298 45.4316 25.5586 44.5379 26.4671 43.622C27.0333 43.0521 27.5606 42.4415 28.1157 41.8661C29.0427 40.9021 29.9697 39.9307 30.9281 38.9926C32.1641 37.7807 33.4186 36.5799 34.5769 35.2939C35.3281 34.4576 36.1108 33.6546 36.8842 32.8423C37.6521 32.0374 38.4736 31.2825 39.2396 30.4758C39.6837 30.0077 40.1814 29.5932 40.557 29.0437C40.8308 28.644 41.2397 28.3146 41.5913 27.9575C42.4665 27.062 43.3361 26.1591 44.2446 25.2987C44.7127 24.8546 45.2789 24.5179 45.8655 24.2403C47.0774 23.6649 48.3689 23.5613 49.69 23.6334C51.2979 23.7204 52.7559 24.2903 54.1362 25.0563C55.2538 25.6761 56.2973 26.4163 57.2872 27.2359C58.1976 27.989 58.4955 28.8975 58.2919 30.0317C58.0755 31.2381 57.6536 32.3816 57.2669 33.538C57.0301 34.2448 56.8191 34.9609 56.5656 35.6621C56.3306 36.3134 56.0179 36.9388 55.8033 37.5957C55.3629 38.9538 54.7635 40.2508 54.3212 41.6089C54.114 42.2454 53.8291 42.8745 53.6385 43.5184C53.3794 44.388 53.2166 45.291 53.076 46.1902C53.0001 46.6694 52.8299 47.1228 52.7355 47.5983C52.6338 48.1201 52.5727 48.6548 52.4839 49.1747C52.3507 49.9537 52.199 50.7438 52.2175 51.5486C52.236 52.3276 51.9769 53.0936 52.0972 53.88C52.1546 54.2149 52.2045 54.5553 52.2656 54.9661Z" fill="#223549"/>
<path d="M286.638 55.2841C281.938 55.2841 277.237 55.2841 272.537 55.2841C271.978 55.2841 271.988 55.2841 272.1 54.7235C272.363 53.419 272.741 52.1405 273.011 50.8397C273.257 49.6537 273.632 48.501 273.81 47.2983C273.88 46.8209 274.084 46.362 274.25 45.9013C274.304 45.7533 274.469 45.6996 274.626 45.6867C274.748 45.6774 274.872 45.6848 274.996 45.6848C283.565 45.6848 292.133 45.6904 300.702 45.6719C301.198 45.67 301.281 45.8255 301.279 46.2751C301.259 49.0949 301.259 51.9147 301.279 54.7346C301.283 55.1657 301.202 55.2971 300.739 55.2952C296.039 55.2767 291.34 55.2841 286.638 55.2841Z" fill="#223549"/>
<path d="M243.048 55.2863C238.362 55.2863 233.675 55.2863 228.988 55.2826C228.846 55.2826 228.629 55.3752 228.574 55.2068C228.511 55.0181 228.729 54.8941 228.857 54.8016C231.34 53.0216 233.673 51.0474 236.082 49.173C237.483 48.0832 238.867 46.9693 240.262 45.8721C240.441 45.7315 240.654 45.6797 240.898 45.6797C247.297 45.6871 253.695 45.6852 260.093 45.6871C260.602 45.6871 260.602 45.7241 260.437 46.2052C260.204 46.8879 260.027 47.5873 259.816 48.2775C259.534 49.1915 259.205 50.0926 258.963 51.0177C258.739 51.8763 258.396 52.6978 258.239 53.5767C258.156 54.0411 257.945 54.4815 257.797 54.9348C257.692 55.2567 257.457 55.2937 257.157 55.2937C252.453 55.2845 247.752 55.2863 243.048 55.2863Z" fill="#223549"/>
<path d="M116.434 16.6137C111.899 16.8413 108.097 12.8761 108.074 8.47059C108.052 3.75237 111.769 -0.00369783 116.414 2.73205e-06C121.021 0.00185301 124.625 3.68761 124.784 8.14864C124.949 12.8077 120.893 16.8302 116.434 16.6137Z" fill="#223549"/>
</g>
</svg>
