<svg width="76" height="15" viewBox="0 0 76 15" fill="none" xmlns="http://www.w3.org/2000/svg">
<path fill-rule="evenodd" clip-rule="evenodd" d="M0 7.5C0 3.36111 3.35185 0 7.49074 0V2.71296C4.85185 2.71296 2.71296 4.86111 2.71296 7.5C2.71296 10.1481 4.86111 12.287 7.5 12.287C10.1296 12.287 12.287 10.1667 12.287 7.48148H15C15 11.6389 11.6481 15 7.5 15C3.35185 15 0 11.6389 0 7.5Z" fill="#006438"/>
<path d="M4.19531 7.49986C4.19531 5.66652 5.68605 4.17578 7.51939 4.17578C9.35272 4.17578 10.8435 5.66652 10.8435 7.49986C10.8435 9.34245 9.35272 10.8239 7.51939 10.8239C5.68605 10.8239 4.19531 9.33319 4.19531 7.49986Z" fill="#50AE2F"/>
<path d="M9.82422 3.28631C9.82422 2.23076 10.6761 1.37891 11.7316 1.37891C12.7872 1.37891 13.639 2.23076 13.639 3.28631C13.639 4.34187 12.7872 5.19372 11.7316 5.19372C10.6761 5.19372 9.82422 4.34187 9.82422 3.28631Z" fill="#006438"/>
<path d="M68.3776 5.17462L68.1461 6.31351C67.5998 8.78574 67.4054 9.58203 66.9332 12.045L66.8313 12.1376L65.3313 12.1839L65.2572 12.082L65.8591 9.54499L66.035 8.71166C65.3869 8.69314 64.748 8.68388 64.0998 8.68388C63.5998 8.68388 63.2109 8.69314 62.822 8.7024C62.5998 9.7024 62.4146 10.5728 62.1369 12.045L62.035 12.1283L60.535 12.1746L60.4609 12.0728L61.0628 9.53573L61.3035 8.43388C61.7017 6.69314 61.7758 6.31351 62.0072 4.71166L62.1091 4.60981C62.7943 4.51722 62.9609 4.48944 63.6646 4.34129L63.7387 4.44314L63.5813 5.17462L63.3498 6.31351L63.1091 7.38759C63.6554 7.39685 64.1924 7.40611 64.7387 7.40611C65.3128 7.40611 65.6924 7.39685 66.3313 7.37833C66.535 6.43388 66.6183 5.92462 66.8035 4.7024L66.9054 4.60055C67.5998 4.50796 67.7572 4.48018 68.4702 4.33203L68.5443 4.43388L68.3776 5.17462Z" fill="#50AE2F"/>
<path d="M50.2959 8.48119C50.3977 8.05527 50.4718 7.62008 50.4718 7.21267C50.4718 5.71267 49.5088 5.46267 48.9625 5.46267C46.6385 5.46267 46.3422 9.07378 46.3422 9.62008C46.3422 10.8053 47.0551 11.3238 47.8514 11.3238C49.4348 11.3238 50.0273 9.69415 50.2959 8.48119ZM51.8329 8.94415C51.5088 10.2219 50.6014 12.4256 47.8236 12.4256C45.8514 12.4256 44.7773 11.4071 44.7773 9.3886C44.7773 9.12934 44.7959 8.8423 44.8422 8.53675C44.8514 8.46267 44.8607 8.3886 44.8699 8.31452C45.407 4.98119 46.8514 1.81453 50.0273 1.78675C50.4533 1.77749 51.3051 1.74045 51.8885 1.60156L51.6662 2.92564C51.0829 3.07378 50.1477 3.15712 49.6014 3.15712C48.9348 3.16638 48.4718 3.41638 48.1477 3.73119C47.9903 3.87934 47.8607 4.05527 47.7681 4.20341C47.6755 4.35156 47.6014 4.49045 47.5551 4.60156C47.981 4.47193 48.444 4.3886 48.9625 4.3886C50.8977 4.3886 52.0551 5.47193 52.0551 7.37934C52.0551 7.8886 51.9625 8.42564 51.8329 8.94415Z" fill="#50AE2F"/>
<path d="M70.9251 7.57624C71.2769 7.27069 71.4806 7.07624 71.9714 6.60402C72.4806 6.10402 73.7399 4.80773 73.9714 4.55773L74.138 4.47439H75.8325L75.8788 4.60402C75.7306 4.73365 75.6565 4.79847 75.0639 5.29847C74.8325 5.49291 74.6843 5.64106 74.4065 5.89106L72.4899 7.65958L74.7769 12.0114L74.6843 12.1318L73.0454 12.1781L72.9251 12.0855C72.5454 11.1688 72.4436 10.9651 71.9065 9.89106L70.8695 7.79847C70.5454 9.25217 70.3417 10.1596 69.9806 12.0577L69.8788 12.1503L68.3788 12.1966L68.3047 12.0948L68.9065 9.55773L69.138 8.45587C69.5362 6.71513 69.6102 6.3355 69.8417 4.73365L69.9436 4.6318C70.638 4.53921 70.7954 4.51143 71.5084 4.36328L71.5825 4.46513L71.4251 5.19661L71.2028 6.31699L70.9251 7.57624Z" fill="#50AE2F"/>
<path d="M57.8899 10.26C57.7325 10.3896 57.5658 10.5378 57.3992 10.6396C57.0195 10.8804 56.5103 10.9822 56.1121 10.9822C54.7603 10.9822 54.3806 9.84332 54.3806 9.13961C54.3806 9.06554 54.4084 7.15813 55.964 6.10258C56.8343 5.50998 57.7973 5.48221 58.288 5.48221C58.5103 5.48221 58.7325 5.49146 58.9547 5.49146L57.8899 10.26ZM60.7232 4.50072L60.6492 4.38035L58.6029 4.37109C57.2418 4.37109 55.3343 4.45443 53.9547 6.0748C53.3343 6.81554 52.7695 8.08406 52.7695 9.25072C52.7695 11.0933 54.001 12.1581 55.5103 12.1581C56.7695 12.1581 57.4177 11.6118 57.6677 11.4081L57.5658 12.0007L57.6399 12.1026L59.0288 12.0748L59.1306 11.9729C59.4269 10.2137 59.5288 9.64887 60.0473 7.38035L60.7232 4.50072Z" fill="#50AE2F"/>
<path d="M21.7103 12.3759C20.1084 12.3759 17.7936 11.8666 18.6362 8.1629C18.951 6.77402 19.914 3.82031 23.8677 3.82031C27.7103 3.82031 27.1362 6.96846 26.9047 8.07957C26.1918 11.2185 24.2751 12.3759 21.7103 12.3759ZM22.2381 10.737C23.3677 10.737 23.8955 9.56105 24.2381 8.05179C24.4788 6.98698 24.7381 5.42216 23.377 5.42216C22.2196 5.42216 21.701 6.53328 21.3677 8.05179C21.0436 9.4592 20.9696 10.737 22.2381 10.737Z" fill="#006438"/>
<path d="M31.1095 12.1934C30.3688 12.1934 29.1466 12.1934 28.6373 12.2119L28.554 12.1194C28.6929 11.6286 29.0447 10.2953 29.4058 8.67491C29.7021 7.3601 29.9614 6.20269 30.0632 5.67491C29.4429 5.69343 28.4891 5.69343 28.0169 5.70269L27.9336 5.59158C28.054 5.19343 28.2299 4.49899 28.341 4.08232L28.4799 3.99899C28.8966 4.01751 30.4614 4.02676 31.7299 4.02676C33.2577 4.02676 34.7484 3.99899 35.0632 3.98047L35.1651 4.0638C35.054 4.43417 34.8503 5.19343 34.7484 5.57306L34.6003 5.66565C33.9891 5.65639 33.5262 5.65639 32.6373 5.65639C32.5632 5.98973 32.3225 6.98047 31.9243 8.73973C31.628 10.0731 31.378 11.286 31.2392 12.0638L31.1095 12.1934Z" fill="#006438"/>
<path d="M39.693 5.8601C39.193 5.8601 38.6374 5.87862 38.3874 5.87862C38.3134 6.22121 38.0078 7.48973 37.73 8.72121C37.406 10.1749 37.1097 11.536 36.9986 12.1008L36.8504 12.1934C36.0911 12.1934 35.1189 12.1934 34.3411 12.2119L34.2578 12.1194C34.4152 11.4805 34.8226 9.75825 35.2115 8.03602C35.6004 6.30454 35.943 4.6101 36.0448 4.12862L36.1745 4.01751C37.0078 4.01751 37.8504 4.04528 39.9245 4.04528C41.5448 4.04528 43.1189 3.99899 43.9523 3.98047L44.0263 4.07306C43.9152 4.48973 43.4523 6.48047 43.0078 8.45269C42.6467 10.0453 42.3134 11.6286 42.23 12.0823L42.1189 12.1749C41.4523 12.1749 40.2393 12.1749 39.6004 12.1934L39.5356 12.0823C39.6745 11.5453 39.9708 10.2953 40.3226 8.74899C40.5911 7.57306 40.8504 6.32306 40.9615 5.8601C40.7023 5.87862 40.156 5.8601 39.693 5.8601Z" fill="#006438"/>
</svg>
