<svg width="67" height="21" viewBox="0 0 67 21" fill="none" xmlns="http://www.w3.org/2000/svg">
<path d="M13.6391 0L6.82031 6.89301H13.6391V20.6784L20.4584 13.802V0H13.6391Z" fill="#EA5616"/>
<path d="M6.81935 20.6784L13.6387 13.7854H6.81935V0L0 6.87643V20.6784H6.81935Z" fill="#2C2D84"/>
<path d="M27.2773 17.2291H30.8571V6.54517H36.3121V17.2291H39.8919V3.44374H27.2773V17.2291ZM62.0526 8.60889H58.994V6.54517H65.8049V3.44374H55.4143V17.2298C55.4143 17.2298 60.5212 17.2298 62.2233 17.2298C64.9532 17.2298 66.9985 15.8464 66.9985 12.9193C66.9985 9.98676 64.9526 8.60889 62.0526 8.60889ZM61.7118 14.2996H58.9946V11.5451H61.7118C62.5562 11.5451 63.4115 11.8816 63.4115 12.9187C63.4115 13.9558 62.5562 14.2996 61.7118 14.2996ZM48.6545 14.2917C46.2653 14.2917 44.9216 12.5208 44.9216 10.3318C44.9216 8.57451 45.8996 6.36833 48.5864 6.36833C50.2636 6.36833 51.3455 7.4048 51.7294 7.88742L53.9066 5.68676C52.5932 4.10259 50.6214 3.09375 48.4163 3.09375C44.4618 3.09375 41.3413 6.05211 41.3413 10.3312C41.3413 14.3285 44.4618 17.5687 48.4163 17.5687C50.7836 17.5687 52.8818 16.4064 54.1854 14.6165L51.9943 12.4017C51.3018 13.5002 50.1707 14.2917 48.6545 14.2917Z" fill="#2C2D84"/>
</svg>
