<svg width="52" height="22" viewBox="0 0 52 22" fill="none" xmlns="http://www.w3.org/2000/svg">
<g clip-path="url(#clip0)">
<path d="M21.0258 21.2346C20.9269 20.966 20.7475 20.7829 20.6176 20.5448C20.3022 20.1359 19.9311 19.7818 19.5601 19.4278C19.4302 19.385 19.3745 19.2629 19.2508 19.2141C19.1704 19.1103 19.0406 19.0554 18.9354 18.976C18.7252 18.8173 18.4963 18.683 18.2613 18.5487C17.816 18.2679 17.2656 18.0909 16.7213 17.9078C16.1338 17.7674 15.5154 17.6636 14.8722 17.5781C14.2351 17.4866 13.5981 17.4011 13.1157 17.1508C12.8374 17.0715 12.6333 16.9189 12.3921 16.7968C12.1695 16.6503 11.9283 16.5282 11.7428 16.3451C11.5139 16.2108 11.3717 15.9849 11.1923 15.8018C11.1305 15.6797 11.0253 15.6064 10.9759 15.4721C10.914 15.4477 10.8955 15.3745 10.8584 15.3317C10.8151 15.2829 10.8151 15.1852 10.7409 15.1669C10.7037 15.4172 10.7161 15.7163 10.7409 15.9727C10.7718 16.0826 10.7841 16.2169 10.8151 16.3268C10.8336 16.4244 10.9264 16.5831 10.8893 16.6564C8.95969 16.5587 7.5496 15.9544 6.32506 15.1608C5.71897 14.764 5.19946 14.2818 4.71706 13.7629C4.50679 13.476 4.27796 13.2013 4.09242 12.8839C3.9007 12.5726 3.7399 12.2185 3.56673 11.8889C3.28224 11.1747 3.0163 10.4422 2.91735 9.54485C2.78747 8.70856 2.8184 7.6403 3.01012 6.86505C3.07815 6.43775 3.22039 6.07759 3.34409 5.70523C3.42448 5.53431 3.51107 5.36339 3.58528 5.18636C3.69042 5.03986 3.74608 4.83841 3.87596 4.71022C4.22848 4.05706 4.75417 3.56872 5.29223 3.09868C5.87358 2.67748 6.53533 2.33564 7.33314 2.12809C8.10003 1.95717 9.14523 1.92665 9.97396 2.10368C11.6562 2.44552 12.924 3.19025 13.9878 4.14252C15.0639 5.07648 15.8926 6.26072 16.4616 7.70134C17.0491 9.06871 17.2532 11.1991 16.7275 12.7496C16.5111 12.6275 16.2946 12.5116 16.0781 12.3956C15.8184 12.3223 15.5648 12.2369 15.2618 12.2063C14.8969 12.2002 14.5382 12.2063 14.3032 12.3223C14.7794 12.2735 15.1628 12.4017 15.4597 12.5116C15.6329 12.5787 15.7318 12.6214 15.8679 12.7008C16.1338 12.8534 16.3688 12.9938 16.5667 13.2013C17.1295 13.6897 17.5315 14.3367 17.7232 15.1914C17.7232 15.2158 17.7542 15.2097 17.748 15.1669C17.7727 15.1608 17.7851 15.1425 17.7975 15.1181C17.8284 15.0815 17.8655 15.0448 17.8964 15.0021C17.9583 14.9289 18.0201 14.8556 18.0634 14.764C18.1933 14.6114 18.2984 14.4405 18.3974 14.2635C18.6262 13.9339 18.7994 13.5554 18.9973 13.1952C19.3374 12.4261 19.6157 11.5959 19.7889 10.6558C20.1352 8.56816 19.7209 6.59036 18.9973 5.13142C18.2551 3.66028 17.2161 2.48215 15.8741 1.59702C14.5196 0.717995 12.9364 0.0709363 10.7594 0.00989302C10.747 -0.0328373 10.7285 0.0159974 10.6852 0.00989302C9.53486 -0.0267329 8.60717 0.13198 7.68567 0.363944C7.25893 0.504343 6.81364 0.62643 6.43638 0.815664C6.00346 0.956064 5.65712 1.18803 5.26131 1.35895C5.11906 1.49324 4.9026 1.56039 4.75417 1.68858C4.56245 1.78015 4.4202 1.92665 4.22848 2.01822C3.91925 2.28681 3.59147 2.52488 3.28842 2.79957C2.99156 3.06816 2.73181 3.37338 2.44732 3.65418C2.40403 3.75184 2.32981 3.81899 2.2556 3.89224C2.20612 3.98381 2.14428 4.06317 2.06388 4.13031C2.03295 4.24019 1.934 4.28292 1.89689 4.3928C1.81649 4.45384 1.79794 4.57593 1.70517 4.63087C1.62477 4.82621 1.48252 4.96661 1.38976 5.14974C1.27843 5.32676 1.19185 5.5221 1.08053 5.69302C0.907358 6.0898 0.721821 6.47437 0.579575 6.90168C0.431145 7.31677 0.307453 7.75628 0.220869 8.23242C0.1281 8.67803 0.0415161 9.25795 0.0538853 9.72798C-0.0079606 9.8989 0.0415161 10.2163 0.0538853 10.4178C0.0538853 10.4544 0.0291469 10.4666 0.0291469 10.491C0.0291469 10.7169 0.0909928 10.9916 0.103362 11.132C0.152839 11.6508 0.245607 12.1331 0.394038 12.5543C0.486806 13.0243 0.684713 13.3906 0.826959 13.8118C1.04342 14.1658 1.19185 14.587 1.4516 14.9044C1.64332 15.2768 1.91545 15.5698 2.1752 15.875C2.4535 16.168 2.73181 16.4672 3.06578 16.7052C3.67805 17.2302 4.39546 17.6514 5.18091 18.0116C6.64665 18.7135 8.836 19.1714 10.8027 19.0554C11.3036 18.9882 11.8108 18.9272 12.2684 18.8173C12.689 18.6647 13.1776 18.5731 13.6847 18.5121C14.8412 18.4389 15.8431 18.5426 16.7337 18.799C17.6367 19.0371 18.4159 19.3972 19.09 19.8673C19.4487 20.0748 19.7456 20.3434 20.0487 20.5998C20.3579 20.8623 20.6053 21.1858 20.8898 21.4788C20.9269 21.5887 21.0011 21.668 21.0567 21.7657C21.131 21.8451 21.0938 22.0282 21.2732 22.0038C21.3845 21.8939 21.2546 21.7352 21.2485 21.6009C21.1371 21.4849 21.1124 21.3323 21.0258 21.2346Z" fill="#FCB316"/>
<path d="M16.5367 14.7408C16.512 14.7408 16.5058 14.7591 16.4873 14.7652C16.444 14.8568 16.4625 15.0033 16.4873 15.0949C16.6171 15.3574 16.6604 15.6992 16.9449 15.8091C17.081 15.7664 17.0686 15.571 17.0624 15.3818C17.0006 15.1498 16.914 14.9423 16.7717 14.7897C16.6728 14.753 16.6048 14.692 16.5367 14.7408ZM14.8545 15.4062C14.8545 15.394 14.836 15.3818 14.8298 15.4062C14.5948 15.3757 14.5144 15.5039 14.3969 15.5954C14.1928 16.1265 14.5205 16.6454 15.0957 16.6393C15.3245 16.5843 15.4668 16.4378 15.5039 16.1876C15.473 15.7419 15.2813 15.455 14.8545 15.4062Z" fill="#FCB316"/>
<path d="M28.7216 13.7156C28.8144 14.1001 29.0123 14.3748 29.2349 14.6312C29.4576 14.8876 29.7173 15.1012 30.0327 15.26C30.3296 15.4431 30.6512 15.5957 31.0223 15.6995C31.2016 15.7605 31.3748 15.8338 31.5974 15.8582C31.752 15.9436 31.9376 15.9864 31.9499 16.2061C31.9438 16.4686 31.7644 16.5663 31.5356 16.6151C31.3067 16.5663 31.0223 16.5724 30.8305 16.4869C30.3481 16.432 29.9585 16.2794 29.5503 16.139C28.7711 15.8399 28.1155 15.4065 27.5713 14.8754C27.4599 14.6923 27.3053 14.5458 27.1878 14.3687C27.0703 14.1917 26.9899 13.978 26.8662 13.801C25.9138 13.6789 25.2644 13.2516 24.6954 12.7572C24.1697 12.1651 23.7492 11.457 23.576 10.5169C23.3719 9.61345 23.4338 8.48415 23.675 7.61123C24.2007 5.92034 25.3015 4.79714 27.3795 4.64453C27.9547 4.66284 28.4557 4.72999 28.9133 4.90091C29.3772 5.06573 29.8163 5.37095 30.1626 5.68837C30.1935 5.71279 30.2059 5.71889 30.2244 5.74941C30.2987 5.85319 30.478 5.99969 30.577 6.12788C30.5955 6.1523 30.5893 6.19503 30.6079 6.22555C30.645 6.28049 30.7007 6.30491 30.7378 6.35374C30.7563 6.38426 30.7501 6.42089 30.7687 6.44531C30.7934 6.48193 30.8243 6.53687 30.8615 6.60402C30.8738 6.62844 30.9171 6.64675 30.9233 6.66506C30.979 6.76884 31.0037 6.89703 31.0532 7.01301C31.1027 7.1351 31.1707 7.23887 31.214 7.36096C31.3377 7.72111 31.4181 8.14842 31.4675 8.58793C31.5912 9.85763 31.3377 10.993 30.8615 11.8354C30.6388 12.2749 30.3296 12.6351 29.9647 12.9403C29.6307 13.2883 29.1731 13.4958 28.7216 13.7156ZM27.1878 5.76773C26.9095 5.78604 26.7425 5.91423 26.5137 5.98748C26.3653 6.12178 26.1797 6.22555 26.0684 6.39647C25.8829 6.50025 25.8334 6.73221 25.685 6.86651C25.5613 7.17172 25.4438 7.51357 25.3634 7.91035C25.2891 8.30102 25.2397 8.74054 25.2335 9.17394C25.2273 10.2605 25.4623 11.341 25.9014 11.9819C26.1612 12.2933 26.4766 12.5496 26.86 12.7389C27.0827 12.7572 27.2558 12.8304 27.497 12.8365C27.6331 12.7877 27.8557 12.8365 27.9423 12.7389C28.1402 12.7511 28.1835 12.6229 28.3567 12.6107C28.4495 12.5191 28.5484 12.4459 28.6783 12.3909C28.7958 12.2627 28.9071 12.1345 29.0308 12.0125C29.0927 11.9209 29.1298 11.7927 29.2225 11.7256C29.7792 10.6756 29.841 8.75274 29.4761 7.53188C29.34 7.08626 29.1483 6.72611 28.9319 6.427C28.6969 6.18893 28.4185 5.98748 28.1031 5.82877C27.8496 5.77383 27.6084 5.70668 27.2744 5.73721C27.2558 5.73721 27.2373 5.74331 27.2435 5.76773C27.2311 5.76773 27.2126 5.76773 27.1878 5.76773ZM33.9352 4.8826C34.4361 4.90091 35.0237 4.83987 35.469 4.91312C35.5679 5.06573 35.5308 5.24886 35.5308 5.41978C35.5679 7.73332 35.5308 10.2178 35.5308 12.5802C35.5308 12.7694 35.537 12.9647 35.5308 13.1479C35.5246 13.3066 35.5679 13.4775 35.469 13.624C35.2463 13.6789 34.9247 13.6545 34.6402 13.6545C34.3372 13.6545 34.0403 13.6973 33.8424 13.5935C33.7868 10.7977 33.7868 7.78216 33.8424 4.98027C33.8548 4.93143 33.8857 4.90091 33.9352 4.8826ZM37.7696 4.8826H39.2725C39.4086 5.06573 39.4518 5.34042 39.4951 5.60902C39.9466 7.30602 40.3919 9.00913 40.8063 10.7489C40.9052 10.7611 40.8743 10.6451 40.9052 10.5901C40.9485 10.5474 40.9238 10.4436 40.9671 10.4009C40.9856 10.2605 41.0722 10.1873 41.066 10.0224C41.1773 9.80879 41.2145 9.51579 41.3196 9.29603C41.4495 8.78327 41.6226 8.30713 41.7711 7.81268C41.9133 7.29991 42.105 6.83599 42.2164 6.2988C42.4266 5.8654 42.4761 5.27328 42.7297 4.8826H43.3667C43.5955 5.3099 43.6821 5.87761 43.88 6.33543C44.0099 6.84819 44.1892 7.31212 44.3253 7.81878C44.6407 8.80158 44.9685 9.77217 45.253 10.7855C45.3829 10.5963 45.3829 10.2788 45.4756 10.0591C45.5313 9.80879 45.5808 9.55241 45.6674 9.33266C45.9147 8.33155 46.1498 7.32433 46.4342 6.36595C46.5394 5.8654 46.6445 5.35263 46.8177 4.91312C47.1888 4.85818 47.7577 4.85818 48.1288 4.91312C48.1597 5.28549 47.9866 5.68837 47.8753 6.01801C47.8134 6.42089 47.665 6.73221 47.5846 7.12289C47.3558 7.8371 47.1826 8.59403 46.9476 9.30213C46.7682 10.0591 46.527 10.755 46.3415 11.5119C46.2178 11.8598 46.1312 12.2444 46.0199 12.6168C45.8962 12.9586 45.8529 13.3798 45.6674 13.6606H44.7706C44.5418 13.2638 44.4614 12.7267 44.2573 12.3055C43.812 10.9137 43.3172 9.57683 42.8843 8.17283C42.7359 8.32544 42.7359 8.63676 42.6307 8.8321C42.5627 9.07017 42.4947 9.30824 42.4081 9.52799C42.2844 10.0102 42.0989 10.4192 41.9937 10.9137C41.8144 11.3471 41.6845 11.8293 41.5484 12.3055C41.3629 12.7206 41.2949 13.2516 41.066 13.6301C40.831 13.7034 40.4599 13.6423 40.1693 13.6606C39.9466 13.4103 39.9219 12.9586 39.7858 12.6168C39.6807 12.2627 39.6065 11.8721 39.4704 11.5424C39.2972 10.7733 39.0375 10.0957 38.8643 9.33266C38.6355 8.62455 38.4376 7.88593 38.2273 7.15341C38.1098 6.80546 38.0232 6.4331 37.9057 6.07905C37.85 5.70058 37.5903 5.35874 37.6831 4.94364C37.6954 4.91312 37.7325 4.89481 37.7696 4.8826ZM50.3924 4.8826C50.8933 4.90091 51.4747 4.83987 51.9262 4.91312C52.0375 5.24276 51.988 5.59681 51.988 5.95086V12.5741C51.988 12.9342 52.0313 13.2822 51.9262 13.6179C51.5798 13.6545 51.0727 13.6728 50.646 13.6484C50.5223 13.6423 50.3738 13.6789 50.2934 13.5874C50.1821 13.2577 50.2316 12.9098 50.2316 12.5435V5.98748C50.2316 5.5907 50.1945 5.20613 50.2934 4.94364C50.3182 4.91312 50.3553 4.89481 50.3924 4.8826Z" fill="#0269B3"/>
</g>
<defs>
<clipPath id="clip0">
<rect width="52" height="22" fill="white"/>
</clipPath>
</defs>
</svg>
