<svg width="69" height="26" viewBox="0 0 69 26" fill="none" xmlns="http://www.w3.org/2000/svg">
<path fill-rule="evenodd" clip-rule="evenodd" d="M28.6287 19.7823C28.7852 19.7689 29.0133 19.7554 29.1742 19.7554C29.4559 19.7554 30.3904 19.7554 30.3904 20.6072C30.3904 20.9748 30.2384 21.5889 29.295 21.5889C28.9999 21.5889 28.7271 21.5486 28.6243 21.5306V19.7823H28.6287ZM27.6719 17.514C27.9715 17.7247 27.9715 17.9847 27.9715 18.164V21.4186C27.9715 21.5979 27.9715 21.8579 27.6719 22.0686H29.2413C29.6303 22.0686 31.1371 22.0282 31.1371 20.6161C31.1371 19.7599 30.5246 19.2713 29.4738 19.2713C29.2592 19.2713 28.8434 19.3072 28.6287 19.3161V18.034H29.9835C30.2116 18.034 30.462 18.043 30.6632 18.2627V17.4961C30.5916 17.5095 30.5112 17.514 30.4307 17.514H27.6719Z" fill="#1C1201"/>
<path fill-rule="evenodd" clip-rule="evenodd" d="M33.6398 18.1079L34.3463 19.9011H32.9423L33.6398 18.1079ZM33.0362 17.5162C33.3 17.6417 33.2106 17.8883 33.1838 17.951L31.8871 21.2459C31.7664 21.5597 31.6367 21.8511 31.2969 22.0708H32.5175C32.2135 21.8556 32.2716 21.5911 32.3655 21.358L32.7724 20.3359H34.5162L35.0081 21.5597C35.0662 21.7076 35.1154 21.9318 34.8113 22.0708H36.2019C35.8844 21.9004 35.7548 21.6538 35.6475 21.3983L34.0914 17.5117H33.0362V17.5162Z" fill="#1C1201"/>
<path fill-rule="evenodd" clip-rule="evenodd" d="M39.9898 19.3048V18.1617C39.9898 17.9466 39.9808 17.7179 39.6902 17.5117H40.9422C40.6515 17.7224 40.6471 17.9466 40.6471 18.1617V21.4163C40.6471 21.6314 40.6515 21.8556 40.9422 22.0663H39.6902C39.9808 21.8556 39.9898 21.6314 39.9898 21.4163V19.8293H37.4993V21.4163C37.4993 21.6314 37.5082 21.8556 37.7988 22.0663H36.5469C36.8375 21.8556 36.8465 21.6314 36.8465 21.4163V18.1617C36.8465 17.9466 36.8375 17.7179 36.5469 17.5117H37.7988C37.5082 17.7224 37.4993 17.9466 37.4993 18.1617V19.3048H39.9898Z" fill="#1C1201"/>
<path fill-rule="evenodd" clip-rule="evenodd" d="M43.1504 17.5162C42.8553 17.7269 42.8553 17.9869 42.8553 18.1662V21.4207C42.8553 21.6001 42.8553 21.8601 43.1504 22.0708H41.8984C42.198 21.8601 42.198 21.6001 42.198 21.4207V18.1662C42.198 17.9869 42.198 17.7224 41.8984 17.5162H43.1504ZM43.991 18.341C44.1654 18.1035 44.2548 17.9645 44.2548 17.83C44.2548 17.6731 44.1296 17.5655 44.0223 17.5117H45.2653L43.6914 19.5604L44.4381 20.5511C45.0284 21.3401 45.3548 21.7435 45.9182 22.0663L45.2251 22.0977C44.7154 22.1245 44.456 21.7301 44.1296 21.2773L42.9805 19.7038L43.991 18.341Z" fill="#1C1201"/>
<path fill-rule="evenodd" clip-rule="evenodd" d="M17.1385 1.06243C21.8602 2.85108 25.2182 7.43701 25.2182 12.8119C25.2182 19.7468 19.6291 25.3728 12.7298 25.3728C5.83059 25.3728 0.245922 19.7513 0.245922 12.8119C0.245922 5.87698 5.83506 0.255521 12.7298 0.255521C13.4721 0.255521 14.2009 0.318281 14.9118 0.4438L15.3455 0.26897C14.5049 0.0941394 13.6286 0 12.7343 0C5.70092 0 0 5.73353 0 12.8074C0 19.8813 5.70539 25.6194 12.7343 25.6194C19.7677 25.6194 25.4686 19.8813 25.4686 12.8074C25.4686 7.27563 21.981 2.55969 17.0894 0.766563L17.1385 1.06243Z" fill="#1C1201"/>
<path fill-rule="evenodd" clip-rule="evenodd" d="M6.65872 15.2031C6.78391 15.0507 7.03878 14.8355 7.3786 14.6696C7.8615 14.4231 9.23866 14.2662 10.0033 14.2751C10.4549 14.2796 10.7589 14.4858 10.9691 14.6965C11.1792 14.9072 10.817 14.9386 10.6382 14.7862C10.4549 14.6383 10.2537 14.5845 10.0435 14.5845C9.83335 14.5845 9.60978 14.6652 9.48906 14.7548C9.36833 14.8489 9.33703 14.97 9.03745 15.0596C8.67081 15.1627 8.2505 14.831 8.2505 14.831C8.54561 15.3914 9.05534 15.3734 9.33703 15.3062C9.54271 15.2524 9.60531 15.1583 9.90936 15.1493C10.3923 15.1403 10.6024 15.4227 10.6024 15.4227C9.99879 15.3914 8.97486 15.7724 8.49195 15.8755C7.88833 16.01 7.316 16.0279 7.316 16.0279C7.705 16.5121 8.2818 16.5121 8.70658 16.5121C9.12688 16.5121 10.4862 16.4135 11.2999 16.4807C12.3239 16.5659 13.1376 17.2383 13.1376 18.2424C13.1376 19.2421 12.4446 19.789 12.4446 19.789C13.3165 19.5201 13.6787 18.8207 13.6787 18.8207C14.1437 20.6228 13.1779 22.0663 12.2926 22.6535C11.5593 23.1467 9.35492 23.6532 7.66029 22.8373C5.78681 21.9363 5.08034 21.0577 5.08034 21.0577C9.15371 21.3894 11.1434 20.2552 11.1434 20.2552C7.46355 20.4704 4.89702 19.5335 3.23816 18.8028C2.57641 17.7449 2.09351 16.5838 1.80734 15.3286V15.3331C4.8523 17.6373 7.55298 18.0318 7.55298 18.0318C4.26656 16.2386 2.62559 14.2348 1.53906 12.2355C1.59719 11.0654 1.82523 9.97611 2.20529 8.92713L2.21423 8.9092C3.4349 12.1727 4.77629 13.1455 4.77629 13.1455C3.45278 10.1151 3.46173 7.93643 3.58245 6.3002C4.09218 5.57398 4.66898 4.92845 5.33074 4.34568L5.33968 4.33224C4.82548 7.24607 5.44252 9.14231 5.44252 9.14231C5.44252 6.83814 6.73026 4.09465 7.75419 2.696C8.40253 2.36876 9.03298 2.12669 9.74392 1.92496C8.80942 3.10842 8.39806 4.25603 8.39806 4.25603C10.3162 2.41807 13.4954 1.31529 13.9783 1.18977C14.4612 1.07322 15.8517 0.553213 16.2452 0.463557C16.6029 0.378383 16.7818 0.607007 16.7549 0.826666C16.7236 1.11357 16.6029 1.58426 16.6029 1.58426C17.6671 1.84427 18.1321 2.37324 18.1321 2.37324C18.0919 2.22979 18.1097 1.98772 18.1097 1.98772C19.5808 3.30119 19.9788 3.92878 20.0235 5.12121C20.0637 6.31364 20.5869 6.49744 20.8864 6.65882C21.1905 6.8202 21.9327 7.24607 22.1742 7.4478C22.353 7.60022 22.277 7.77056 22.1742 7.8916C22.0758 8.01264 22.0758 8.05298 22.0579 8.19195C21.9685 8.81058 21.6913 9.06162 21.3112 9.20059C20.9267 9.33955 20.5064 9.11989 20.5064 9.11989C20.0861 9.58611 20.0056 9.28127 19.9832 9.10196C19.9653 8.91817 19.7418 9.06162 19.5808 9.11989C19.4198 9.18265 19.3572 8.95851 19.3572 8.95851C18.5926 8.85541 18.2573 9.31266 18.2573 9.31266C18.9235 9.40231 19.2589 9.85956 19.2857 10.0389C19.317 10.2272 19.6166 10.1016 19.6166 10.1016C19.6166 10.1016 19.6434 10.0389 19.7686 9.9806C19.8893 9.91784 19.9206 9.94922 19.8893 10.1016C19.858 10.254 19.8267 10.3751 19.8267 10.3751L20.1621 10.5903C20.0369 11.4106 19.6792 11.3748 19.4959 11.2851C18.3378 10.7023 16.2676 10.5903 16.2676 10.5903C16.3883 10.4065 16.6789 10.1734 16.6789 10.1734C11.3715 10.1734 10.4727 10.8234 10.2 11.1641C10.0122 11.4017 10.1732 11.7692 10.1732 11.7692C9.54271 11.8903 7.93751 12.2982 7.32494 12.8631C6.73473 13.4055 6.53799 14.6786 6.51563 15.1493C6.5201 15.2614 6.614 15.2569 6.65872 15.2031ZM15.9054 1.4453C15.9635 1.37805 15.9054 1.32426 15.7444 1.42736C15.5835 1.52599 14.8725 1.95634 14.3941 2.75876C14.336 2.86187 14.3717 3.0098 14.6266 2.92463C14.9396 2.81256 15.257 2.75876 15.4001 2.73635C15.5432 2.71394 15.5432 2.61531 15.4404 2.57945C15.342 2.53911 15.3152 2.49876 15.3599 2.33738C15.4001 2.176 15.6818 1.70978 15.9054 1.4453ZM14.5774 3.62843C13.5311 4.48017 11.8097 6.51537 11.0004 8.42506C10.9378 8.56851 11.0004 8.59092 11.2016 8.4654C11.4028 8.34436 11.9885 8.06195 12.2657 7.98126C12.2657 7.98126 11.9617 9.0392 11.8633 9.62197C11.7828 10.1016 12.1808 10.0658 12.4267 10.0075C12.6726 9.9537 13.6966 9.90439 13.8754 9.88646C13.8754 9.88646 12.932 9.66232 12.8291 9.27679C12.7308 8.89575 12.999 8.03953 13.1913 7.45677C13.2315 7.33125 13.1689 7.15193 12.9722 7.23262C12.771 7.31331 12.4893 7.37159 12.3462 7.45677C12.3462 7.45677 13.2315 5.26915 14.5998 3.69119L14.5774 3.62843L19.2678 4.60121C19.165 5.39915 18.8743 5.32742 18.7447 5.28708C18.6016 5.24673 18.5658 5.18397 18.141 5.14811C18.0069 5.13466 17.3899 5.06742 17.7207 5.32742C18.2528 5.75329 18.7044 6.62296 18.7044 6.62296C18.767 6.34054 18.6239 5.93709 18.5435 5.79364C18.463 5.65019 18.5658 5.60984 18.6597 5.63226C18.7626 5.65019 18.8207 5.69053 19.004 5.79364C19.1829 5.89226 19.3036 5.87433 19.3438 5.63226C19.3751 5.42156 19.3662 4.99121 19.3259 4.60121C19.3215 4.57431 19.2768 4.56086 19.2633 4.60121L14.5774 3.62843Z" fill="#1C1201"/>
<path fill-rule="evenodd" clip-rule="evenodd" d="M20.6037 20.9145C20.1298 19.3231 18.8241 18.3055 18.0998 17.4269C17.8047 17.0683 17.3665 16.5617 17.3665 16.5617C17.7913 16.8038 18.5961 16.9248 18.5961 16.9248C18.3725 16.741 17.8717 16.1358 17.6705 15.8893C17.1116 15.2169 16.1413 14.4593 15.417 14.132C13.9996 13.4865 12.5196 13.4013 12.3228 13.3654C12.1216 13.3251 11.6969 13.4058 11.9562 12.9979C12.22 12.5944 13.7492 11.402 13.7492 11.402C13.4273 11.402 12.0188 11.5275 11.594 11.5858C11.1737 11.6485 11.0753 11.5051 11.053 11.2227C11.053 11.2227 10.2034 12.0251 10.6103 12.433C10.6729 12.4958 10.8518 12.5137 11.0753 12.4151C11.2944 12.312 11.7371 12.173 11.8981 12.1506C11.8981 12.1506 11.5359 12.7154 11.4554 12.9575C11.3749 13.1996 11.357 13.3206 11.7371 13.4417C12.1216 13.5627 14.0532 14.1724 15.2381 14.9793C16.423 15.7862 17.6526 16.8217 18.5603 18.7224C19.4635 20.6276 18.9672 22.0711 18.8241 22.3311C19.4725 21.9142 20.0627 21.439 20.6127 20.9011L20.6037 20.9145Z" fill="#1C1201"/>
<path fill-rule="evenodd" clip-rule="evenodd" d="M23.2511 16.8766C22.0886 15.9263 20.0452 14.2273 17.5547 13.6445C17.5547 13.6445 21.1094 15.0746 22.3792 18.6698C22.7235 18.1005 23.0097 17.5087 23.2511 16.8766Z" fill="#1C1201"/>
<path fill-rule="evenodd" clip-rule="evenodd" d="M16.2735 23.5594C16.6536 22.6673 17.0739 20.547 16.6312 18.9062C16.6312 18.9062 16.7117 22.766 14.0781 24.0391C14.8204 23.9494 15.5805 23.788 16.2691 23.5594H16.2735Z" fill="#1C1201"/>
<path fill-rule="evenodd" clip-rule="evenodd" d="M23.9979 12.6639C23.658 12.5249 21.5521 11.9242 21.5521 11.9242C22.2585 11.8839 22.5402 11.3594 22.5402 11.3594C21.8785 11.5387 20.868 11.6194 20.0273 11.4983C20.0273 11.4983 21.9768 12.3456 23.9219 14.2015V14.1836C23.9755 13.7353 24.0023 13.278 24.0023 12.8118C24.0023 12.758 24.0023 12.7266 23.9979 12.6639Z" fill="#1C1201"/>
<path fill-rule="evenodd" clip-rule="evenodd" d="M29.6437 6.38174H28.8791V7.38141C28.8791 7.77141 28.973 7.96418 29.0401 8.05383H27.6719C27.7345 7.96418 27.8463 7.77141 27.8463 7.38141V3.26169C27.8463 2.87169 27.7345 2.68341 27.6719 2.59375H29.6437C31.0477 2.59375 31.9062 3.29755 31.9062 4.42723C31.9062 5.76311 30.8152 6.38174 29.6437 6.38174ZM29.3799 3.181H28.8791V5.77656H29.4738C30.1579 5.77656 30.8197 5.5031 30.8197 4.41378C30.8242 3.42756 30.1043 3.181 29.3799 3.181Z" fill="#1C1201"/>
<path fill-rule="evenodd" clip-rule="evenodd" d="M36.9606 3.95719L35.2929 7.88863C34.8055 9.03175 34.3762 9.69073 33.397 9.69073C32.8068 9.69073 32.3865 9.37244 32.1719 9.15727L32.4357 8.59692C32.6905 9.03623 33.017 9.22003 33.4283 9.22003C33.9962 9.22003 34.3539 8.73588 34.7205 7.85277L32.9588 3.95719C32.8426 3.69719 32.7308 3.48201 32.6011 3.37891H33.9828C33.9336 3.50443 33.9336 3.61201 34.0767 3.95719L35.2303 6.65585L36.3436 3.95719C36.4643 3.67477 36.4956 3.54477 36.4375 3.37891H37.2736C37.1484 3.54477 37.068 3.71064 36.9606 3.95719Z" fill="#1C1201"/>
<path fill-rule="evenodd" clip-rule="evenodd" d="M40.307 3.74183C39.2562 3.74183 38.7957 4.73253 38.7957 5.71427C38.7957 7.13981 39.6363 7.69568 40.307 7.69568C40.9687 7.69568 41.389 7.3774 41.7244 6.94256L41.8943 7.31912C41.4829 7.87051 40.848 8.14396 40.1728 8.14396C38.5945 8.14396 37.7852 7.04567 37.7852 5.70979C37.7852 4.26632 38.7331 3.28906 40.2533 3.28906C40.8256 3.28906 41.1699 3.44596 41.4695 3.44596C41.6528 3.44596 41.7646 3.42803 41.9032 3.36527L41.5276 4.23046C41.2594 3.89424 40.848 3.74183 40.307 3.74183Z" fill="#1C1201"/>
<path fill-rule="evenodd" clip-rule="evenodd" d="M45.0843 3.74183C44.0291 3.74183 43.5685 4.73253 43.5685 5.71427C43.5685 7.13981 44.4136 7.69568 45.0843 7.69568C45.7416 7.69568 46.1664 7.3774 46.5017 6.94256L46.6672 7.31912C46.2513 7.87051 45.6254 8.14396 44.9502 8.14396C43.3718 8.14396 42.5625 7.04567 42.5625 5.70979C42.5625 4.26632 43.5104 3.28906 45.0307 3.28906C45.603 3.28906 45.9473 3.44596 46.2469 3.44596C46.4302 3.44596 46.542 3.42803 46.6761 3.36527L46.3005 4.23046C46.0322 3.89424 45.6253 3.74183 45.0843 3.74183Z" fill="#1C1201"/>
<path fill-rule="evenodd" clip-rule="evenodd" d="M48.8494 3.95719C48.8494 3.62098 48.9343 3.4596 48.9925 3.37891H47.7539C47.8076 3.4596 47.897 3.62098 47.897 3.95719V7.47621C47.897 7.80794 47.8076 7.96932 47.7539 8.05001H48.9925C48.9343 7.96932 48.8494 7.80794 48.8494 7.47621V3.95719Z" fill="#1C1201"/>
<path fill-rule="evenodd" clip-rule="evenodd" d="M52.1636 8.04943C52.034 7.9553 51.8283 7.73115 51.6137 7.47563L49.919 5.41802L51.4437 3.9611C51.7791 3.63833 51.8864 3.52626 52.0876 3.38281H50.8133C50.9072 3.5173 50.9385 3.67868 50.6523 3.9611L48.8906 5.64216L50.4109 7.47563C50.6657 7.78495 50.6657 7.91495 50.5718 8.04943H52.1636Z" fill="#1C1201"/>
<path fill-rule="evenodd" clip-rule="evenodd" d="M56.3742 8.05001C56.4323 7.96932 56.5084 7.80794 56.5084 7.47621V4.86272L54.4158 7.35517V7.47621C54.4158 7.80794 54.5052 7.96932 54.5633 8.05001H53.3203C53.374 7.96932 53.4634 7.80794 53.4634 7.47621V3.95719C53.4634 3.62098 53.374 3.4596 53.3203 3.37891H54.5633C54.5052 3.4596 54.4158 3.62098 54.4158 3.95719V6.55275L56.5084 4.0603V3.95719C56.5084 3.62098 56.4323 3.4596 56.3742 3.37891H57.5994C57.5412 3.4596 57.4652 3.62098 57.4652 3.95719V7.47621C57.4652 7.80794 57.5412 7.96932 57.5994 8.05001H56.3742Z" fill="#1C1201"/>
<path fill-rule="evenodd" clip-rule="evenodd" d="M61.4202 2.64318C60.6154 2.64318 60.28 2.33386 60.28 2.05144C60.28 1.89903 60.3605 1.7242 60.4813 1.62109H60.9016C60.83 1.73316 60.7898 1.82282 60.7898 1.96627C60.7898 2.12317 60.982 2.42352 61.4202 2.42352C61.8584 2.42352 62.0417 2.12765 62.0417 1.96627C62.0417 1.82282 62.0015 1.73316 61.93 1.62109H62.3503C62.471 1.7242 62.5515 1.89903 62.5515 2.05144C62.5515 2.33835 62.2251 2.64318 61.4202 2.64318ZM62.3324 8.04947C62.386 7.96877 62.4665 7.80739 62.4665 7.47566V4.86218L60.3695 7.35463V7.47566C60.3695 7.80739 60.4589 7.96877 60.5126 8.04947H59.2695C59.3277 7.96877 59.4126 7.80739 59.4126 7.47566V3.95665C59.4126 3.62043 59.3277 3.45905 59.2695 3.37836H60.5126C60.4589 3.45905 60.3695 3.62043 60.3695 3.95665V6.5522L62.4665 4.05975V3.95665C62.4665 3.62043 62.386 3.45905 62.3324 3.37836H63.553C63.4949 3.45905 63.4189 3.62043 63.4189 3.95665V7.47566C63.4189 7.80739 63.4994 7.96877 63.553 8.04947H62.3324Z" fill="#1C1201"/>
<path fill-rule="evenodd" clip-rule="evenodd" d="M30.1174 10.1506C28.8833 10.1506 28.2707 11.3117 28.2707 12.4638C28.2707 14.1359 29.3304 14.7949 30.1174 14.7949C30.8954 14.7949 31.3917 14.4273 31.7807 13.9162L31.9819 14.3555C31.4946 15.01 30.7568 15.3238 29.9609 15.3238C28.1142 15.3238 27.1484 14.0328 27.1484 12.4638C27.1484 10.7648 28.2618 9.61719 30.0458 9.61719C30.7255 9.61719 31.1234 9.7965 31.4811 9.7965C31.7047 9.7965 31.8299 9.77857 31.9909 9.70684L31.5482 10.7244C31.2263 10.33 30.7568 10.1506 30.1174 10.1506Z" fill="#1C1201"/>
<path fill-rule="evenodd" clip-rule="evenodd" d="M36.4803 11.3023C36.2881 11.0557 36.0064 11.0468 35.7515 11.0468H35.0048V14.6286C35.0048 14.9603 35.0942 15.1217 35.1479 15.2024H33.9049C33.963 15.1217 34.0479 14.9603 34.0479 14.6286V11.0468H33.4175C33.0687 11.0468 32.7334 11.0019 32.3086 11.3023L32.6439 10.5312H36.8067L36.4803 11.3023Z" fill="#1C1201"/>
<path fill-rule="evenodd" clip-rule="evenodd" d="M40.3527 15.2024C40.4108 15.1217 40.46 14.9379 40.3169 14.6286L40.0978 14.113H37.974L37.7504 14.6286C37.6163 14.9379 37.6654 15.1217 37.7191 15.2024H36.7891C36.8919 15.0993 37.0037 14.9603 37.1557 14.6286L38.743 11.0154L38.7296 10.9795C38.6357 10.7599 38.5284 10.6299 38.4166 10.5312H39.5613L41.3498 14.6286C41.5018 14.9603 41.6136 15.0993 41.7164 15.2024H40.3527ZM39.0426 11.6968L38.1931 13.6199H39.8787L39.0426 11.6968Z" fill="#1C1201"/>
<path fill-rule="evenodd" clip-rule="evenodd" d="M45.6223 15.2024C45.6805 15.1217 45.7654 14.9603 45.7654 14.6286V13.0506H43.807V14.6286C43.807 14.9603 43.9009 15.1217 43.9501 15.2024H42.707C42.7652 15.1217 42.8501 14.9603 42.8501 14.6286V11.1095C42.8501 10.7733 42.7607 10.6119 42.707 10.5312H43.9501C43.9009 10.6119 43.807 10.7733 43.807 11.1095V12.5351H45.7654V11.1095C45.7654 10.7733 45.676 10.6119 45.6223 10.5312H46.8654C46.8162 10.6119 46.7223 10.7733 46.7223 11.1095V14.6286C46.7223 14.9603 46.8162 15.1217 46.8654 15.2024H45.6223Z" fill="#1C1201"/>
<path fill-rule="evenodd" clip-rule="evenodd" d="M51.1831 15.2057H49.2962C48.9475 15.2057 48.3662 15.3357 47.9414 15.6316V14.9591C48.7552 14.5826 48.9296 14.085 48.9296 13.2063V11.1173C48.9296 10.7811 48.8446 10.6198 48.7865 10.5391H52.0997C52.0416 10.6198 51.9566 10.7811 51.9566 11.1173V14.1702C51.9566 14.5019 52.0953 14.7888 52.5379 14.9367V15.636C52.1131 15.3357 51.5319 15.2057 51.1831 15.2057ZM50.9953 11.0501H49.7836C49.6316 11.0501 49.5153 11.1711 49.5153 11.3146V13.2063C49.5153 13.8922 49.4169 14.3808 49.1263 14.6946H50.727C50.8791 14.6946 50.9953 14.5736 50.9953 14.4212V11.0501Z" fill="#1C1201"/>
<path fill-rule="evenodd" clip-rule="evenodd" d="M57.0168 15.2024C57.0749 15.1217 57.1196 14.9379 56.9855 14.6286L56.7664 14.113H54.638L54.4145 14.6286C54.2803 14.9379 54.3295 15.1217 54.3832 15.2024H53.4531C53.556 15.0993 53.6677 14.9603 53.8198 14.6286L55.4026 11.0154L55.3803 10.9795C55.2864 10.7599 55.1835 10.6299 55.0717 10.5312H56.2164L58.0094 14.6286C58.1614 14.9603 58.2732 15.0993 58.376 15.2024H57.0168ZM55.7022 11.6968L54.8571 13.6199H56.5383L55.7022 11.6968Z" fill="#1C1201"/>
<path fill-rule="evenodd" clip-rule="evenodd" d="M61.1283 13.7723H60.4666V14.6286C60.4666 14.9603 60.5649 15.1217 60.6096 15.2024H59.3711C59.4247 15.1217 59.5142 14.9603 59.5142 14.6286V11.1095C59.5142 10.7733 59.4247 10.6119 59.3711 10.5312C60.6767 10.5312 61.1283 10.5312 61.1283 10.5312C62.3356 10.5312 63.0644 11.1275 63.0644 12.0958C63.0644 13.2389 62.1299 13.7723 61.1283 13.7723ZM60.9048 11.0378H60.4666V13.2568H60.9852C61.562 13.2568 62.0941 13.0192 62.0941 12.0868C62.0941 11.2395 61.5263 11.0378 60.9048 11.0378Z" fill="#1C1201"/>
<path fill-rule="evenodd" clip-rule="evenodd" d="M67.6575 11.3023C67.4652 11.0557 67.188 11.0468 66.9332 11.0468H66.2669V14.6286C66.2669 14.9603 66.3519 15.1217 66.41 15.2024H65.1715C65.2296 15.1217 65.3145 14.9603 65.3145 14.6286V11.0468H64.769C64.4158 11.0468 64.0849 11.0019 63.6602 11.3023L63.9955 10.5312H68.0018L67.6575 11.3023Z" fill="#1C1201"/>
</svg>
