<svg width="247" height="185" viewBox="0 0 247 185" fill="none" xmlns="http://www.w3.org/2000/svg">
<path d="M186.189 124.262H26.0265C21.9227 124.262 18.5859 120.92 18.5859 116.809V7.45333C18.5859 3.34243 21.9227 0 26.0265 0H186.189C190.293 0 193.629 3.34243 193.629 7.45333V116.8C193.639 120.92 190.293 124.262 186.189 124.262ZM26.0265 1.87028C22.9579 1.87028 20.453 4.37941 20.453 7.45333V116.8C20.453 119.874 22.9486 122.383 26.0265 122.383H186.189C189.257 122.383 191.762 119.883 191.762 116.8V7.45333C191.762 4.37941 189.267 1.87028 186.189 1.87028H26.0265Z" fill="black"/>
<path d="M124.614 29.175H29.6054C29.0878 29.175 28.6719 28.7583 28.6719 28.2398C28.6719 27.7213 29.0878 27.3047 29.6054 27.3047H124.614C125.132 27.3047 125.547 27.7213 125.547 28.2398C125.547 28.7583 125.132 29.175 124.614 29.175Z" fill="#DEDEDE"/>
<path d="M94.7684 42.2101H29.6054C29.0878 42.2101 28.6719 41.7935 28.6719 41.275C28.6719 40.7565 29.0878 40.3398 29.6054 40.3398H94.7591C95.2767 40.3398 95.6927 40.7565 95.6927 41.275C95.7019 41.7842 95.2767 42.2101 94.7684 42.2101Z" fill="#DEDEDE"/>
<path d="M124.614 55.5539H29.6054C29.0878 55.5539 28.6719 55.1372 28.6719 54.6187C28.6719 54.1002 29.0878 53.6836 29.6054 53.6836H124.614C125.132 53.6836 125.547 54.1002 125.547 54.6187C125.557 55.1372 125.132 55.5539 124.614 55.5539Z" fill="#DEDEDE"/>
<path d="M124.614 68.6164H29.6054C29.0878 68.6164 28.6719 68.1997 28.6719 67.6812C28.6719 67.1627 29.0878 66.7461 29.6054 66.7461H124.614C125.132 66.7461 125.547 67.1627 125.547 67.6812C125.547 68.1997 125.132 68.6164 124.614 68.6164Z" fill="#DEDEDE"/>
<path d="M124.61 82.1359H99.3124C98.7948 82.1359 98.3789 81.7192 98.3789 81.2008C98.3789 80.6823 98.7948 80.2656 99.3124 80.2656H124.61C125.128 80.2656 125.544 80.6823 125.544 81.2008C125.553 81.7192 125.128 82.1359 124.61 82.1359Z" fill="#DEDEDE"/>
<path d="M124.614 95.1711H29.6054C29.0878 95.1711 28.6719 94.7544 28.6719 94.2359C28.6719 93.7174 29.0878 93.3008 29.6054 93.3008H124.614C125.132 93.3008 125.547 93.7174 125.547 94.2359C125.557 94.7452 125.132 95.1711 124.614 95.1711Z" fill="#DEDEDE"/>
<path d="M124.614 29.175H29.6054C29.0878 29.175 28.6719 28.7583 28.6719 28.2398C28.6719 27.7213 29.0878 27.3047 29.6054 27.3047H124.614C125.132 27.3047 125.547 27.7213 125.547 28.2398C125.547 28.7583 125.132 29.175 124.614 29.175Z" fill="#DEDEDE"/>
<path d="M124.614 42.2101H100.859C100.342 42.2101 99.9258 41.7935 99.9258 41.275C99.9258 40.7565 100.342 40.3398 100.859 40.3398H124.614C125.131 40.3398 125.547 40.7565 125.547 41.275C125.557 41.7842 125.131 42.2101 124.614 42.2101Z" fill="#DEDEDE"/>
<path d="M124.614 55.5539H29.6054C29.0878 55.5539 28.6719 55.1372 28.6719 54.6187C28.6719 54.1002 29.0878 53.6836 29.6054 53.6836H124.614C125.132 53.6836 125.547 54.1002 125.547 54.6187C125.557 55.1372 125.132 55.5539 124.614 55.5539Z" fill="#DEDEDE"/>
<path d="M124.614 68.6164H29.6054C29.0878 68.6164 28.6719 68.1997 28.6719 67.6812C28.6719 67.1627 29.0878 66.7461 29.6054 66.7461H124.614C125.132 66.7461 125.547 67.1627 125.547 67.6812C125.547 68.1997 125.132 68.6164 124.614 68.6164Z" fill="#DEDEDE"/>
<path d="M87.3648 82.1359H29.6054C29.0878 82.1359 28.6719 81.7192 28.6719 81.2008C28.6719 80.6823 29.0878 80.2656 29.6054 80.2656H87.3555C87.8731 80.2656 88.2891 80.6823 88.2891 81.2008C88.2983 81.7192 87.8824 82.1359 87.3648 82.1359Z" fill="#DEDEDE"/>
<path d="M124.614 95.1711H29.6054C29.0878 95.1711 28.6719 94.7544 28.6719 94.2359C28.6719 93.7174 29.0878 93.3008 29.6054 93.3008H124.614C125.132 93.3008 125.547 93.7174 125.547 94.2359C125.557 94.7452 125.132 95.1711 124.614 95.1711Z" fill="#DEDEDE"/>
<path d="M215.962 13.6476H143.164C142.646 13.6476 142.23 13.231 142.23 12.7125C142.23 12.194 142.646 11.7773 143.164 11.7773H215.962C216.479 11.7773 216.895 12.194 216.895 12.7125C216.895 13.231 216.479 13.6476 215.962 13.6476Z" fill="#B0B0B0"/>
<path d="M132.746 13.6476H19.7695C19.2519 13.6476 18.8359 13.231 18.8359 12.7125C18.8359 12.194 19.2519 11.7773 19.7695 11.7773H132.756C133.273 11.7773 133.689 12.194 133.689 12.7125C133.689 13.231 133.264 13.6476 132.746 13.6476Z" fill="#B0B0B0"/>
<path fill-rule="evenodd" clip-rule="evenodd" d="M139.18 22.2852H184.082V78.6712H139.18V22.2852Z" fill="#F2F2F2"/>
<path d="M60.917 87.366C60.3901 87.366 59.9002 87.0234 59.7431 86.4864C59.2994 84.9587 58.9667 83.4217 58.7633 81.9218C58.7264 81.7366 58.7264 81.607 58.7356 81.4774C58.8095 80.8108 59.4103 80.32 60.0851 80.3941C60.3716 80.4219 61.0463 80.6071 61.185 81.5885C61.3791 82.9773 61.6841 84.3939 62.0908 85.8013C62.2849 86.4494 61.9152 87.1253 61.2682 87.3197C61.148 87.3475 61.0279 87.366 60.917 87.366Z" fill="#FFE380"/>
<path d="M81.2505 103.615C78.6532 103.615 76.2038 103.254 73.9855 102.541C73.3477 102.337 72.9873 101.643 73.1999 101.004C73.4124 100.365 74.0872 100.004 74.7342 100.217C76.897 100.911 79.3002 101.235 81.916 101.171C82.4059 101.161 82.8865 101.106 83.3486 101.022C84.0141 100.902 84.6519 101.337 84.7721 101.995C84.9015 102.661 84.4578 103.3 83.8015 103.421C83.21 103.532 82.6 103.596 81.9807 103.615C81.7311 103.615 81.4908 103.615 81.2505 103.615ZM88.6818 100.782C88.3491 100.782 88.0163 100.652 87.776 100.384C87.3231 99.8837 87.3601 99.1152 87.8592 98.6523C89.6154 97.0505 91.2236 94.6525 92.7857 91.3378C93.0722 90.7267 93.8024 90.4675 94.4125 90.7545C95.0225 91.0415 95.2813 91.773 94.9948 92.384C93.3033 95.995 91.5102 98.6337 89.5045 100.458C89.2641 100.671 88.9776 100.782 88.6818 100.782ZM69.1145 99.93C68.8649 99.93 68.6153 99.8559 68.3935 99.6985C65.8424 97.8282 63.7073 95.3006 62.0528 92.1989C61.7386 91.6063 61.9604 90.8656 62.5519 90.5415C63.1435 90.2267 63.8829 90.449 64.2064 91.0415C65.6946 93.8284 67.5894 96.069 69.8354 97.7264C70.3807 98.1245 70.5009 98.893 70.1035 99.43C69.8631 99.754 69.4934 99.93 69.1145 99.93ZM168.107 99.7633C164.502 98.7171 161.96 96.7912 160.185 93.9951C160.075 93.8192 159.973 93.634 159.871 93.4395C159.557 92.8377 159.797 92.1063 160.389 91.7915C160.99 91.4767 161.72 91.7174 162.034 92.31C162.099 92.4396 162.173 92.56 162.247 92.6803C163.698 94.9765 165.787 96.5505 168.458 97.3653C169.105 97.5597 169.465 98.2449 169.271 98.893C169.114 99.4207 168.624 99.7633 168.107 99.7633ZM159.511 88.3935C158.901 88.3935 158.374 87.9398 158.3 87.3195C157.939 84.403 157.81 80.8846 157.736 77.8292C157.718 77.1533 158.254 76.5978 158.928 76.5793C159.585 76.5608 160.158 77.0978 160.176 77.7737C160.25 80.7643 160.38 84.2085 160.722 87.0232C160.805 87.6898 160.333 88.3009 159.659 88.3842C159.603 88.3842 159.557 88.3935 159.511 88.3935ZM96.1224 87.6065C95.9838 87.6065 95.8451 87.5787 95.7065 87.5324C95.078 87.301 94.7452 86.5973 94.9763 85.9677C96.0762 82.9493 97.0929 79.6439 97.8509 77.107C98.045 76.4589 98.7289 76.0978 99.3667 76.2923C100.014 76.4867 100.374 77.1718 100.18 77.8107C99.4037 80.3754 98.3777 83.7271 97.2593 86.801C97.0929 87.301 96.6215 87.6065 96.1224 87.6065ZM158.827 73.098C158.161 73.098 157.625 72.5702 157.607 71.9036C157.551 69.0982 157.477 65.8391 157.311 62.5615C157.274 61.8856 157.792 61.3115 158.466 61.2745C159.141 61.2374 159.714 61.7559 159.751 62.4318C159.917 65.7465 159.991 69.0334 160.047 71.848C160.056 72.5239 159.52 73.0794 158.854 73.098C158.845 73.098 158.836 73.098 158.827 73.098ZM100.716 72.9961C99.7272 72.7554 99.3575 72.0702 99.5423 71.4221C100.346 68.6908 101.298 65.5243 102.306 62.4226C102.519 61.7837 103.203 61.4319 103.84 61.6356C104.478 61.8485 104.829 62.5337 104.626 63.1725C103.628 66.2465 102.685 69.4037 101.881 72.1165C101.724 72.6535 101.243 72.9961 100.716 72.9961ZM105.412 58.4228C105.273 58.4228 105.125 58.395 104.986 58.3487C104.358 58.1172 104.034 57.4136 104.265 56.7747C105.476 53.4878 106.687 50.6269 107.972 48.0251C108.268 47.4233 108.998 47.1733 109.608 47.4696C110.209 47.7659 110.458 48.4973 110.163 49.1084C108.924 51.6361 107.741 54.4137 106.558 57.6265C106.373 58.1172 105.901 58.4228 105.412 58.4228ZM158.115 57.8024C157.496 57.8024 156.96 57.3302 156.904 56.6914C156.581 53.2378 156.137 50.2565 155.555 47.5622C155.407 46.9048 155.832 46.2475 156.488 46.1086C157.145 45.9604 157.801 46.3863 157.939 47.0437C158.549 49.8306 159.002 52.9138 159.335 56.4692C159.4 57.1451 158.91 57.7376 158.235 57.8024C158.198 57.8024 158.161 57.8024 158.115 57.8024ZM111.919 44.6087C111.697 44.6087 111.475 44.5531 111.272 44.4235C110.699 44.0624 110.523 43.3124 110.883 42.7384C112.714 39.8126 114.729 37.2757 116.864 35.2017C117.344 34.7295 118.121 34.748 118.592 35.2295C119.063 35.7109 119.045 36.4887 118.564 36.9609C116.568 38.896 114.682 41.2755 112.954 44.0439C112.723 44.405 112.325 44.6087 111.919 44.6087ZM155.13 42.831C154.63 42.831 154.168 42.5254 153.983 42.0254C152.837 38.8775 151.358 36.3035 149.593 34.3869C149.14 33.887 149.168 33.1185 149.667 32.6648C150.166 32.2111 150.933 32.2389 151.395 32.7389C153.383 34.8962 155.019 37.7479 156.276 41.2014C156.507 41.831 156.183 42.5347 155.546 42.7661C155.407 42.8124 155.268 42.831 155.13 42.831ZM122.326 33.6555C121.92 33.6555 121.522 33.4518 121.291 33.0814C120.931 32.5074 121.106 31.7574 121.67 31.3963C124.415 29.665 127.438 28.452 130.663 27.7947C131.32 27.6651 131.967 28.0817 132.105 28.7483C132.244 29.4057 131.819 30.0538 131.153 30.1927C128.214 30.7945 125.46 31.8963 122.973 33.4703C122.77 33.5907 122.548 33.6555 122.326 33.6555ZM145.822 31.2852C145.646 31.2852 145.461 31.2482 145.295 31.1649C143.585 30.3408 141.635 29.8501 139.5 29.702C138.677 29.6464 137.854 29.6187 137.06 29.6187C136.089 29.6187 135.544 29.0816 135.534 28.415C135.525 27.7391 136.071 27.1836 136.745 27.1836C137.91 27.1836 138.788 27.2114 139.675 27.2762C142.115 27.4428 144.371 28.0169 146.358 28.9798C146.968 29.2761 147.218 29.9983 146.931 30.6093C146.709 31.026 146.275 31.2852 145.822 31.2852Z" fill="#F7C154"/>
<path d="M174.123 100.458C173.476 100.458 172.931 99.9483 172.903 99.2909C172.876 98.615 173.393 98.0502 174.068 98.0132C176.527 97.9021 178.338 97.3836 178.357 97.3836C179.004 97.1984 179.678 97.5688 179.873 98.2169C180.057 98.865 179.688 99.5409 179.05 99.7353C178.967 99.7631 176.952 100.346 174.179 100.467C174.16 100.458 174.142 100.458 174.123 100.458Z" fill="#FFE380"/>
<path fill-rule="evenodd" clip-rule="evenodd" d="M176.833 56.4258H229.222C229.222 56.4258 222.392 63.8606 222.392 74.2397C222.392 88.9334 222.392 109.525 222.392 123.302C222.392 132.061 229.222 138.07 229.222 138.07H176.842C176.842 138.07 170.012 131.394 170.012 121.858C170.012 107.423 170.012 86.4243 170.012 72.1472C170.002 62.8699 176.833 56.4258 176.833 56.4258Z" fill="white"/>
<path d="M229.224 139.013H176.844C176.603 139.013 176.363 138.921 176.187 138.745C175.901 138.458 169.07 131.68 169.07 121.857V72.137C169.07 62.5727 175.91 56.0175 176.197 55.7397C176.372 55.5731 176.603 55.4805 176.834 55.4805H229.224C229.593 55.4805 229.935 55.7027 230.083 56.0453C230.231 56.3878 230.166 56.786 229.917 57.0545C229.852 57.1285 223.336 64.3597 223.336 74.2295V123.292C223.336 131.532 229.787 137.3 229.852 137.356C230.148 137.615 230.25 138.023 230.111 138.393C229.963 138.773 229.612 139.013 229.224 139.013ZM177.241 137.134H227.024C224.916 134.708 221.459 129.745 221.459 123.301V74.2388C221.459 66.3225 225.231 60.1284 227.273 57.36H177.232C176.03 58.6192 170.947 64.3967 170.947 72.137V121.857C170.937 129.838 176.03 135.828 177.241 137.134Z" fill="black"/>
<path d="M215.924 80.1203H175.578C175.06 80.1203 174.645 79.7036 174.645 79.1851C174.645 78.6666 175.06 78.25 175.578 78.25H215.924C216.441 78.25 216.857 78.6666 216.857 79.1851C216.857 79.7036 216.441 80.1203 215.924 80.1203Z" fill="#A9A9A9"/>
<path d="M195.791 72.4445H175.613C175.096 72.4445 174.68 72.0278 174.68 71.5094C174.68 70.9909 175.096 70.5742 175.613 70.5742H195.791C196.308 70.5742 196.724 70.9909 196.724 71.5094C196.724 72.0186 196.308 72.4445 195.791 72.4445Z" fill="#A9A9A9"/>
<path d="M207.668 88.2453H175.613C175.096 88.2453 174.68 87.8286 174.68 87.3101C174.68 86.7916 175.096 86.375 175.613 86.375H207.659C208.176 86.375 208.592 86.7916 208.592 87.3101C208.601 87.8194 208.185 88.2453 207.668 88.2453Z" fill="#A9A9A9"/>
<path d="M215.924 96.4328H175.578C175.06 96.4328 174.645 96.0161 174.645 95.4976C174.645 94.9791 175.06 94.5625 175.578 94.5625H215.924C216.441 94.5625 216.857 94.9791 216.857 95.4976C216.857 96.0161 216.441 96.4328 215.924 96.4328Z" fill="#A9A9A9"/>
<path d="M218.361 65.0617H178.016C177.498 65.0617 177.082 64.645 177.082 64.1266C177.082 63.6081 177.498 63.1914 178.016 63.1914H218.361C218.879 63.1914 219.295 63.6081 219.295 64.1266C219.295 64.645 218.879 65.0617 218.361 65.0617Z" fill="#A9A9A9"/>
<path d="M215.924 80.1203H175.578C175.06 80.1203 174.645 79.7036 174.645 79.1851C174.645 78.6666 175.06 78.25 175.578 78.25H215.924C216.441 78.25 216.857 78.6666 216.857 79.1851C216.857 79.7036 216.441 80.1203 215.924 80.1203Z" fill="#A9A9A9"/>
<path d="M215.878 72.4445H203.187C202.67 72.4445 202.254 72.0278 202.254 71.5094C202.254 70.9909 202.67 70.5742 203.187 70.5742H215.878C216.396 70.5742 216.812 70.9909 216.812 71.5094C216.821 72.0186 216.396 72.4445 215.878 72.4445Z" fill="#A9A9A9"/>
<path d="M215.875 88.2453H211.484C210.967 88.2453 210.551 87.8286 210.551 87.3101C210.551 86.7916 210.967 86.375 211.484 86.375H215.875C216.392 86.375 216.808 86.7916 216.808 87.3101C216.818 87.8194 216.392 88.2453 215.875 88.2453Z" fill="#A9A9A9"/>
<path d="M215.924 96.4328H175.578C175.06 96.4328 174.645 96.0161 174.645 95.4976C174.645 94.9791 175.06 94.5625 175.578 94.5625H215.924C216.441 94.5625 216.857 94.9791 216.857 95.4976C216.857 96.0161 216.441 96.4328 215.924 96.4328Z" fill="#A9A9A9"/>
<path d="M226.535 83.8836L235.566 91.5406V76.2266L226.535 83.8836Z" fill="#F7C154"/>
<path fill-rule="evenodd" clip-rule="evenodd" d="M201.73 148.179C205.797 152.864 217.36 160.909 221.741 151.354C226.122 141.799 218.238 136.346 222.878 132.041C227.527 127.735 240.671 109.079 234.912 104.579C229.154 100.079 217.018 115.384 213.441 120.717C209.854 126.041 200.824 127.254 196.85 133.105C192.866 138.957 197.663 143.494 201.73 148.179Z" fill="#EC663D"/>
<path d="M215.352 156.753C209.982 156.753 203.835 152.021 201.025 148.79C200.702 148.42 200.378 148.049 200.055 147.679C196.284 143.401 192.004 138.559 196.08 132.569C198.243 129.384 201.718 127.55 205.074 125.773C208.151 124.143 211.054 122.606 212.671 120.19C215.666 115.736 224.872 103.959 231.499 102.903C233.043 102.653 234.383 102.968 235.492 103.839C236.601 104.709 237.202 106.014 237.276 107.718C237.6 115.329 227.063 129.439 223.513 132.726C221.794 134.319 222.155 135.994 222.996 139.05C223.902 142.337 225.02 146.429 222.589 151.734C221.267 154.614 219.234 156.28 216.553 156.66C216.156 156.734 215.758 156.753 215.352 156.753ZM232.479 104.7C232.257 104.7 232.026 104.718 231.786 104.755C226.49 105.598 218.199 115.31 214.215 121.236C212.329 124.041 209.085 125.763 205.942 127.43C202.791 129.106 199.528 130.828 197.624 133.633C194.37 138.42 197.651 142.133 201.45 146.448C201.783 146.818 202.107 147.197 202.43 147.568C205.397 150.984 211.655 155.493 216.285 154.827C218.328 154.53 219.835 153.271 220.888 150.975C223.033 146.29 222.053 142.716 221.193 139.568C220.38 136.605 219.613 133.809 222.247 131.365C226.175 127.726 235.686 114.384 235.409 107.811C235.363 106.662 235.012 105.857 234.346 105.329C233.81 104.903 233.2 104.7 232.479 104.7Z" fill="black"/>
<path d="M201.894 167.279C201.377 167.279 200.961 166.862 200.961 166.344C200.961 165.64 200.933 148.947 207.56 139.484C214.031 130.235 230.132 110.458 230.298 110.254C230.622 109.856 231.213 109.791 231.611 110.124C232.008 110.449 232.073 111.041 231.74 111.439C231.583 111.634 215.519 131.364 209.086 140.558C202.8 149.539 202.828 166.168 202.828 166.335C202.828 166.862 202.412 167.279 201.894 167.279Z" fill="black"/>
<path fill-rule="evenodd" clip-rule="evenodd" d="M194.656 145.157C201.116 149.703 209.99 137.648 203.852 128.13C199.138 120.816 202.595 109.853 200.109 102.141C197.623 94.4094 190.626 95.7983 190.496 106.02C190.367 116.223 187.77 140.315 194.656 145.157Z" fill="#EC663D"/>
<path d="M197.658 147.074C196.42 147.074 195.209 146.694 194.109 145.916C188.027 141.639 188.776 124.816 189.321 112.529C189.432 109.983 189.534 107.789 189.552 105.993C189.635 99.4096 192.399 96.6504 194.737 96.2986C196.799 95.9838 199.516 97.28 200.986 101.845C202.076 105.233 202.067 109.224 202.058 113.085C202.049 118.26 202.039 123.612 204.618 127.612C208.611 133.806 206.716 141.046 202.908 144.713C201.291 146.278 199.451 147.074 197.658 147.074ZM195.338 98.1318C193.277 98.4189 191.484 100.956 191.419 106.02C191.401 107.844 191.299 110.057 191.188 112.613C190.689 123.797 189.94 140.695 195.181 144.389C197.122 145.75 199.525 145.37 201.614 143.361C204.886 140.213 206.504 133.982 203.056 128.63C200.172 124.158 200.182 118.529 200.191 113.085C200.2 109.196 200.209 105.53 199.202 102.419C198.361 99.7706 196.863 98.1318 195.338 98.1318Z" fill="black"/>
<path d="M200.181 169.48C199.672 169.48 199.256 169.082 199.247 168.572C199.238 168.313 198.452 142.148 196.493 130.732C194.589 119.658 195.088 104.372 195.097 104.224C195.115 103.715 195.531 103.316 196.03 103.316C196.576 103.335 196.983 103.77 196.964 104.289C196.955 104.437 196.465 119.529 198.332 130.417C200.319 141.963 201.105 168.258 201.114 168.517C201.133 169.035 200.726 169.461 200.208 169.48C200.199 169.48 200.19 169.48 200.181 169.48Z" fill="black"/>
<path fill-rule="evenodd" clip-rule="evenodd" d="M173.662 112.315C177.905 110.389 181.963 116.879 185.78 122.416C189.607 127.962 197.639 128.916 201.438 136.786C205.81 145.841 199.256 149.554 193.507 151.748C184.532 155.174 179.855 152.711 177.397 145.721C174.947 138.73 179.781 135.147 176.5 129.018C173.228 122.888 169.42 114.25 173.662 112.315Z" fill="#EC663D"/>
<path d="M186.511 154.222C184.94 154.222 183.535 153.935 182.278 153.351C179.708 152.157 177.832 149.768 176.52 146.037C175.263 142.445 175.808 139.639 176.289 137.176C176.797 134.593 177.231 132.362 175.678 129.464C171.63 121.899 170.151 116.788 171.14 113.853C171.519 112.742 172.231 111.937 173.266 111.465C177.943 109.335 181.936 115.168 185.8 120.797C186.049 121.168 186.299 121.529 186.548 121.89C188.083 124.121 190.412 125.594 192.88 127.158C196.216 129.269 199.997 131.667 202.28 136.389C203.916 139.769 204.23 142.778 203.213 145.324C201.67 149.222 197.39 151.277 193.832 152.629C191.059 153.694 188.628 154.222 186.511 154.222ZM175.179 112.928C174.8 112.928 174.421 113.011 174.042 113.178C173.479 113.437 173.127 113.835 172.915 114.455C172.36 116.094 172.675 119.881 177.333 128.584C179.191 132.065 178.655 134.852 178.128 137.537C177.675 139.88 177.194 142.306 178.285 145.417C179.413 148.639 180.975 150.676 183.064 151.648C185.513 152.787 188.822 152.537 193.175 150.879C196.374 149.657 200.2 147.852 201.476 144.63C202.289 142.593 201.984 140.093 200.588 137.204C198.536 132.964 195.153 130.816 191.872 128.742C189.238 127.075 186.752 125.501 184.995 122.955C184.746 122.594 184.496 122.233 184.247 121.862C181.372 117.64 178.146 112.928 175.179 112.928Z" fill="black"/>
<path d="M197.335 169.317C196.864 169.317 196.466 168.965 196.411 168.493C196.392 168.336 194.488 152.698 189.331 141.643C184.155 130.551 176.344 120.412 176.261 120.311C175.947 119.903 176.021 119.311 176.427 118.996C176.834 118.681 177.426 118.755 177.74 119.162C177.823 119.264 185.763 129.56 191.022 140.856C196.309 152.189 198.185 167.623 198.259 168.271C198.324 168.78 197.954 169.253 197.446 169.308C197.409 169.317 197.372 169.317 197.335 169.317Z" fill="black"/>
<path fill-rule="evenodd" clip-rule="evenodd" d="M187.843 161.246H215.859C217.652 161.246 219.112 162.709 219.112 164.505V172.264C219.112 177.662 214.74 182.041 209.352 182.041H194.35C188.962 182.041 184.59 177.662 184.59 172.264V164.505C184.59 162.709 186.041 161.246 187.843 161.246Z" fill="#F2F2F2"/>
<path d="M209.352 182.974H194.35C188.453 182.974 183.656 178.169 183.656 172.262V164.503C183.656 162.188 185.533 160.309 187.843 160.309H215.859C218.169 160.309 220.046 162.188 220.046 164.503V172.262C220.046 178.169 215.249 182.974 209.352 182.974ZM187.843 162.179C186.568 162.179 185.523 163.225 185.523 164.503V172.262C185.523 177.132 189.479 181.104 194.35 181.104H209.352C214.223 181.104 218.179 177.141 218.179 172.262V164.503C218.179 163.225 217.134 162.179 215.859 162.179H187.843Z" fill="#223549"/>
<path d="M184.059 3.29224L179.262 8.09766L180.582 9.42013L185.379 4.61471L184.059 3.29224Z" fill="#A9A9A9"/>
<path d="M180.578 3.28671L179.258 4.60938L184.056 9.41412L185.376 8.09145L180.578 3.28671Z" fill="#A9A9A9"/>
<path fill-rule="evenodd" clip-rule="evenodd" d="M51.2418 90.7273C51.2418 90.7273 50.0679 87.4589 48.8016 85.8386C47.5353 84.2183 45.2431 81.8296 47.0917 80.7092C48.9403 79.5797 51.2048 80.413 53.7651 84.0517C58.821 91.2272 57.0186 96.2733 57.0186 96.2733C57.0186 96.2733 58.1463 96.514 59.2185 99.5324C60.2814 102.551 60.8452 104.014 60.8452 104.014C60.8452 104.014 63.2761 113.411 66.6221 119.087C69.968 124.763 72.7225 128.948 72.7225 128.948C72.7225 128.948 85.6996 117.643 90.5337 114.115C95.3677 110.587 103.788 104.291 110.545 104.578C117.301 104.865 121.285 105.634 121.285 105.634L124.622 103.43L124.215 101.393C124.215 101.393 117.421 103.375 113.724 97.1529C110.027 90.931 112.014 81.8295 112.014 81.8295L112.421 75.154C112.421 75.154 111.256 71.0431 110.554 69.2839C109.851 67.5247 109.103 64.1453 110.554 64.886C112.005 65.6174 112.994 66.1914 112.994 66.1914C112.994 66.1914 113.586 60.3954 114.861 60.9787C116.137 61.5621 115.684 63.386 118.762 63.1823C121.84 62.9786 139.29 58.7566 144.873 65.3026C150.456 71.8486 151.648 79.8574 150.326 84.4498C147.535 94.1252 137.719 97.1621 137.719 97.1621C137.719 97.1621 136.416 99.662 137.396 102.291C138.366 104.93 140.159 107.18 140.159 107.18C140.159 107.18 158.248 107.486 165.947 111.495C173.646 115.513 180.283 128.864 185.228 142.299C190.173 155.733 195.414 168.946 195.229 172.362C195.053 175.788 193.528 180.751 184.415 182.139C172.094 184.01 122.514 182.871 122.514 182.871C122.514 182.871 104.454 180.658 100.23 177.408C95.9963 174.158 97.0315 173.455 95.0257 172.436C93.02 171.427 88.8699 170.14 89.4153 167.464C89.9606 164.788 92.8444 166.344 94.6191 167.547C96.3937 168.751 95.4324 167.714 95.4324 167.714L95.7559 162.501C95.7559 162.501 93.8426 161.27 93.8057 160.381C93.7687 159.492 94.046 158.02 94.046 158.02C94.046 158.02 92.0865 158.076 91.763 157.039C91.4395 156.011 92.2529 154.594 92.2529 154.594C92.2529 154.594 89.1102 155.613 89.406 153.863C89.7018 152.113 89.7665 150.104 91.9294 150.196C94.0922 150.289 97.7062 150.845 97.7062 150.845L97.8726 142.289C97.8726 142.289 85.2744 153.641 75.6617 156.224C66.0583 158.798 58.895 149.706 51.3435 132.271C43.7919 114.828 39.7897 107.828 39.7897 107.828C39.7897 107.828 34.2994 101.19 36.0463 98.6991C37.7933 96.2177 38.5697 97.4769 38.5697 97.4769C38.5697 97.4769 38.3386 93.6901 41.4165 92.4216C44.4944 91.1532 46.8699 90.8754 46.8699 90.8754L51.2418 90.7273Z" fill="white"/>
<path fill-rule="evenodd" clip-rule="evenodd" d="M134.778 83.0705C134.778 83.0705 138.633 84.1168 142.016 86.6537C145.399 89.1999 146.896 91.2183 146.896 91.2183C146.896 91.2183 155.233 79.7466 148.116 68.8953C140.999 58.044 130.869 61.7753 128.188 61.9697C125.517 62.1642 119.481 64.34 118.021 63.6826C116.561 63.0252 116.2 61.4327 115.174 61.729C114.148 62.0253 113.788 66.3769 113.788 66.3769L110.7 65.3955C110.7 65.3955 110.303 67.0528 110.941 69.3027C111.588 71.5619 112.651 73.6173 112.651 73.6173L115.498 70.9323L116.071 72.4785L120.221 70.6082L120.794 72.5618L126.247 72.8859L125.434 75.4968C125.434 75.4968 131.543 74.5062 133.078 77.3671C134.612 80.2373 134.778 83.0705 134.778 83.0705Z" fill="black"/>
<path fill-rule="evenodd" clip-rule="evenodd" d="M122.339 113.384L126.646 110.125L128.68 116.152L126.48 117.699L124.613 145.318L121.359 150.04L117.459 151.428L113.309 143.364L123.799 117.041L122.339 113.384Z" fill="#FFCE1E"/>
<path fill-rule="evenodd" clip-rule="evenodd" d="M107.855 155.512C107.855 155.512 108.437 129.106 111.515 120.069C114.593 111.024 121.849 105.644 121.849 105.644C121.849 105.644 105.258 102.58 96.7174 109.144C88.1677 115.718 73.9427 128.949 73.9427 128.949C73.9427 128.949 69.5338 123.504 68.249 121.532C66.9643 119.56 65.4022 115.912 65.4022 115.912C65.4022 115.912 64.2006 124.236 59.5422 125.532C54.8837 126.828 47.5078 123.329 47.5078 123.329C47.5078 123.329 51.9444 132.365 54.9114 139.059C57.8784 145.753 67.5281 156.244 73.7856 155.762C80.0431 155.281 98.2702 141.911 98.2702 141.911L97.4568 150.383L107.855 155.512Z" fill="#EC663D"/>
<path fill-rule="evenodd" clip-rule="evenodd" d="M130.879 162.928C130.879 162.928 130.86 138.754 133.152 127.643C135.953 114.097 144.946 107.922 144.946 107.922C144.946 107.922 169.385 109.607 173.091 115.422C176.798 121.236 182.436 136.911 187.649 147.448C192.871 157.984 196.994 171.678 194.646 176.78C192.298 181.881 186.447 182.335 182.205 182.89C177.953 183.446 135.519 183.381 135.519 183.381C135.519 183.381 142.617 175.937 140.972 171.159C139.317 166.373 135.195 163.91 135.195 163.91L130.805 163.743L130.879 162.928Z" fill="#EC663D"/>
<path fill-rule="evenodd" clip-rule="evenodd" d="M138.264 98.8087C138.532 101.605 139.28 103.929 140.537 105.734C145.085 106.336 149.466 107.058 154.041 107.771C158.552 108.475 163.016 108.966 166.815 110.456C173.997 113.28 177.842 119.863 181.049 127.159C184.173 134.27 186.706 142.288 189.507 149.723C190.865 153.324 192.4 157.056 193.657 161.046C194.877 164.935 196.337 169.314 196.014 174.166C195.81 177.249 194.359 179.545 192.353 180.925C187.307 184.388 177.703 184.425 169.015 184.425C160.308 184.425 151.167 184.591 142.423 184.591C133.568 184.591 124.778 184.193 116.885 183.369C112.744 182.934 108.973 182.443 105.664 181.166C102.392 179.906 99.8405 178.157 97.4466 176.036C97.5298 177.045 97.7054 178.49 97.8533 180.11C97.9642 181.342 98.5095 183.545 96.9567 183.536C95.3207 183.156 95.635 180.721 95.4963 179.055C95.3392 177.221 95.0896 175.305 95.0064 173.675C93.5276 172.259 89.7842 172.157 88.6658 170.009C87.7322 168.222 88.333 165.861 89.969 165.278C91.642 164.685 93.1763 165.583 94.5258 166.009C94.4426 165.009 94.8955 164.139 94.6922 163.398C94.572 162.972 93.657 162.37 93.3889 161.852C92.9637 161.009 92.8343 160.407 92.9822 159.167C91.6882 158.593 90.2833 157.769 90.7085 155.75C86.965 155.454 88.4347 151.315 90.7916 150.13C92.5108 149.26 94.6644 149.454 96.4021 149.806C96.6979 148.01 96.8735 146.103 97.1323 144.269C91.642 148.714 86.1701 153.343 78.748 155.843C74.7366 157.195 69.7269 157.417 66.307 155.519C63.1459 153.76 60.9091 150.982 58.8202 147.945C54.744 142.001 51.5275 135.149 48.4126 128.224C45.2515 121.206 41.5543 114.715 39.0587 107.53C36.1472 106.271 32.718 99.8919 36.1287 96.9384C36.7202 96.4291 37.4227 96.0958 38.4025 95.8829C38.9016 94.0867 39.6503 92.6516 41.009 91.7257C43.2827 90.1702 46.8413 90.0221 50.2797 89.6054C49.6234 86.4945 45.307 85.9482 45.5658 82.1058C45.6582 80.7262 46.3791 79.6337 47.8395 79.4948C49.6696 79.3282 51.5367 80.5966 52.7198 81.6151C56.0935 84.5223 58.0161 89.1702 58.4967 94.8922C58.5337 95.3459 58.4043 95.9755 58.4967 96.4384C58.5614 96.7717 59.0697 97.2532 59.3101 97.6606C60.0772 98.9661 60.3545 100.614 60.9368 102.058C61.0662 102.383 61.362 102.651 61.5099 102.957C62.0183 103.994 62.2955 105.206 62.73 106.299C65.6692 113.651 69.4496 121.206 73.3871 127.566C80.3563 122.456 86.1517 115.873 92.9915 110.706C99.5817 105.725 108.131 102.966 120.073 103.947C121.432 104.058 122.56 104.568 123.003 103.299C123.466 103.142 123.992 103.003 123.65 102.401C123.392 101.947 122.393 102.401 121.451 102.401C115.905 102.42 112.679 98.9012 111.117 95.0681C109.777 91.7812 109.684 87.6148 110.544 83.6613C110.812 82.4484 110.941 80.8281 112.171 80.8929C113.918 80.9762 112.91 83.0317 112.577 84.8001C111.237 91.9571 113.437 98.142 118.918 99.7068C122.976 100.864 125.804 99.1512 128.189 97.3458C129.011 96.7162 129.936 95.6884 130.712 95.7995C131.1 95.8551 131.562 96.2903 131.609 96.781C131.729 97.9846 129.668 99.0679 129.002 99.5494C127.985 100.29 126.922 101.012 125.665 101.503C125.933 102.568 126.118 103.707 126.312 104.845C131.008 104.577 133.919 102.531 136.156 99.7901C135.907 97.5124 135.444 95.9199 136.156 94.5774C137.228 92.559 140.38 92.5682 141.526 90.4202C142.756 88.1148 141.157 86.013 138.439 87.1611C137.746 87.4574 137.09 87.9111 136.489 88.4666C135.953 88.9573 135.306 89.7998 134.622 89.7721C133.393 89.7165 133.661 88.4573 133.725 87.2444C133.91 84.0316 133.873 79.7818 132.098 78.0412C129.936 75.9117 123.327 78.3838 124.288 74.0506C122.273 74.0877 119.852 73.9025 119.408 72.097C118.16 72.5322 116.182 73.8006 114.851 72.6711C114.297 73.3377 114.019 74.0784 113.797 75.2821C113.603 76.3098 113.594 77.606 112.661 77.7264C110.932 77.9486 111.293 75.3561 111.764 74.0599C111.052 72.8748 110.276 71.2452 109.564 69.3379C109.01 67.8565 108.048 64.8844 109.647 64.1252C110.498 63.7178 111.699 64.0511 112.411 64.4493C113.03 62.903 112.91 60.2273 114.611 59.968C116.533 59.6717 116.792 61.9401 118.105 62.329C119.5 62.7364 121.589 62.0142 122.902 61.755C127.44 60.8846 132.607 60.0236 137.783 61.0235C143.689 62.1623 147.645 65.8844 149.984 70.7175C152.498 75.9117 152.784 83.4113 149.9 88.5592C147.294 93.1886 142.996 96.1514 138.264 98.8087ZM113.381 67.2825C112.365 67.3658 112.014 66.4862 111.025 66.301C111.45 68.1528 112.189 69.699 112.818 71.3563C113.465 71.0508 114.102 69.6712 115.258 69.7268C115.933 69.7638 116.191 70.2823 116.644 70.7823C117.837 70.3842 120.11 68.9398 121.201 70.1342C121.525 70.486 121.432 71.0415 121.774 71.5137C123.401 72.4859 127.153 70.4397 127.301 72.5692C127.357 73.4303 126.627 73.6895 126.488 74.5228C129.418 74.7636 131.895 74.8099 133.485 76.2357C135.666 78.1986 135.981 81.6706 136.008 85.8463C139.077 83.4946 144.29 84.5409 144.299 88.6981C144.308 91.8553 142.053 93.596 139.992 94.5681C139.28 94.9014 138.088 95.1329 138.042 96.281C144.216 92.559 150.326 88.5036 149.753 78.356C149.281 70.1342 143.421 63.3012 134.945 62.8753C132.034 62.7271 129.363 62.9771 126.812 63.366C124.464 63.7178 122.107 64.5141 119.491 64.6715C117.162 64.8104 116.145 63.8104 115.101 62.8753C114.435 64.3011 115.017 67.1436 113.381 67.2825ZM51.5645 83.4113C50.6771 82.5595 48.9394 81.1799 47.7379 81.6984C47.2757 82.7076 47.8673 83.5779 48.3849 84.1427C49.2722 85.1056 50.483 85.9852 51.3981 87.4851C51.7678 88.0962 52.156 88.8184 52.4518 89.6054C52.7383 90.3554 53.2467 91.4201 53.0988 92.2164C53.0156 92.6701 52.6459 92.7627 52.6089 93.1145C53.3761 93.1515 54.0785 93.4848 54.7255 93.7626C55.391 94.0496 56.0565 94.5404 56.4355 94.4941C56.2044 90.198 54.1802 85.9019 51.5645 83.4113ZM45.5473 93.1052C42.1551 95.7533 42.7282 103.799 48.3941 102.799C48.6159 101.633 49.0596 100.697 49.531 99.7808C46.5917 100.614 42.9408 99.2253 44.1608 96.4384C45.1313 94.2348 48.4865 92.7719 51.5645 92.9386C51.2964 92.6053 51.2317 92.0775 50.9174 91.7998C48.7731 91.8831 46.9707 91.9942 45.5473 93.1052ZM43.5138 103.781C41.6652 102.225 40.63 98.4939 41.5636 95.3922C41.7761 94.6792 42.2106 94.1144 42.1366 93.6793C39.3637 95.8551 40.1586 102.873 43.5138 103.781ZM45.1406 116.086C49.9192 118.215 56.112 117.243 58.9681 114.049C60.4562 112.382 60.9646 109.373 60.4285 106.549C60.2344 105.521 59.458 104.484 59.1252 103.457C58.774 102.355 58.6538 101.364 58.3118 100.438C57.2581 97.5865 55.3263 95.5773 52.0451 94.9755C49.2445 94.4663 47.0354 95.781 45.9447 97.5032C46.7951 98.0309 47.4051 98.0957 48.3849 97.9939C49.9007 97.8365 52.7291 95.7625 52.9417 97.8365C53.0156 98.5864 51.7586 100.068 51.3149 100.846C50.7973 101.753 50.0856 103.17 50.2612 104.512C50.4461 105.993 51.6476 106.892 52.6182 107.688C53.3668 108.299 54.2726 108.725 54.2449 109.484C54.1617 111.567 51.3981 109.428 50.825 108.91C49.568 107.78 48.8008 106.512 48.2185 105.077C46.8598 104.966 46.3699 105.447 45.2885 105.725C44.6599 107.105 42.8668 107.317 41.3879 107.845C42.5248 110.715 43.7079 113.53 45.1406 116.086ZM41.4804 105.494C41.2585 105.012 40.6208 104.716 40.2603 104.271C39.1234 102.873 38.3562 100.901 38.2268 98.4846C35.4447 100.086 38.1437 105.947 41.4804 105.494ZM134.687 112.095C135.324 111.438 136.128 110.715 136.886 109.817C137.524 109.058 138.578 107.827 138.513 106.882C138.485 106.438 137.894 105.66 137.533 104.929C137.117 104.077 136.812 103.086 136.554 102.651C134.982 104.521 131.766 106.299 128.503 106.892C126.553 107.243 123.854 107.78 123.706 105.91C121.931 108.345 120.258 110.873 119.315 114.141C120.434 113.289 121.441 112.53 122.652 111.53C123.336 110.965 125.055 108.993 126.146 109.086C127.292 109.188 127.948 111.595 128.42 112.586C129.113 114.03 129.769 115.123 130.287 116.493C131.738 115.512 133.014 113.836 134.687 112.095ZM113.381 106.142C102.955 106.623 96.9937 110.03 91.1798 115.021C85.6248 119.789 80.458 124.974 74.6719 129.603C75.3928 130.437 75.8642 131.409 76.7053 132.622C77.1952 133.325 78.7665 134.761 78.6556 135.798C78.6002 136.335 78.0178 136.788 77.5187 136.779C76.8347 136.76 76.0398 135.548 75.6516 134.983C72.0561 129.927 68.5808 124.067 65.8079 118.771C64.634 123.872 60.6318 127.752 54.097 127.242C52.498 127.122 51.2594 126.585 49.9469 126.02C52.461 131.511 54.4575 136.362 57.5077 141.668C60.1327 146.223 63.4047 152.028 68.322 154.056C72.2687 155.676 77.0288 154.232 80.2731 152.834C86.0592 150.343 90.616 146.927 95.1543 142.973C95.9307 142.297 97.2894 141.26 97.5945 140.445C97.9919 139.353 98.0566 137.696 98.2415 136.288C98.6574 133.251 98.9902 130.872 99.4615 127.816C99.6741 126.418 99.6741 124.418 101.005 124.474C102.65 124.548 101.874 126.872 101.652 128.307C100.515 135.668 99.4615 143.177 98.565 150.389C100.866 151.371 103.427 152.362 105.479 153.565C105.848 153.778 106.181 154.25 106.616 154.139C108.048 135.501 107.494 114.882 119.223 106.558C119.371 106.54 119.916 106.253 119.547 106.234C117.55 105.975 115.341 106.049 113.381 106.142ZM110.858 130.344C109.804 138.39 109.148 147.343 108.742 155.843C110.045 157.139 111.755 158.065 113.381 159.343C114.019 159.852 114.851 160.38 115.738 161.056C116.506 161.648 117.282 162.676 118.021 162.852C118.881 163.055 119.999 162.787 120.951 162.768C124.057 162.722 126.922 162.555 129.982 162.528C130.047 146.112 130.472 129.39 135.592 117.965C137.145 114.493 139.206 111.78 141.526 109.243C141.822 108.919 142.441 108.503 142.257 108.188C141.693 108.132 141.166 108.03 140.63 107.947C139.41 110.715 137.57 112.558 135.26 114.873C134.52 115.613 133.753 116.447 132.819 117.4C132.052 118.187 131.008 119.696 129.973 119.604C128.863 119.502 128.826 117.984 128.179 117.484C127.043 117.937 127.357 119.4 127.283 120.419C126.747 127.724 126.34 134.946 125.823 142.168C125.73 143.455 125.869 144.88 125.573 145.834C125.388 146.436 124.556 147.325 124.029 147.954C123.429 148.658 122.809 149.251 122.236 149.825C121.192 150.871 119.473 152.778 117.522 152.51C115.942 152.297 115.054 149.899 114.352 148.436C113.927 147.556 113.65 146.871 113.298 145.991C112.947 145.121 112.383 144.186 112.402 143.381C112.42 142.519 113.197 141.057 113.622 139.955C116.228 133.168 118.77 126.668 121.432 119.909C121.83 118.9 122.745 117.382 122.735 116.567C122.726 115.984 122.107 115.428 122.162 114.854C121.293 115.373 120.693 116.002 119.805 116.724C119.186 117.234 118.179 118.456 117.199 118.354C115.35 118.169 116.653 115.16 117.116 113.706C117.587 112.243 118.114 110.771 118.336 110.206C113.64 114.845 111.921 122.252 110.858 130.344ZM143.07 110.947C142.386 111.688 141.739 112.373 141.12 113.151C132.496 123.928 132.533 143.066 132.256 162.444C140.787 162.167 149.448 162.018 157.96 161.713C158.284 159.482 158.561 157.371 158.857 155.278C158.959 154.565 159.236 153.695 159.18 153.074C159.134 152.556 158.589 151.612 158.284 150.871C156.408 146.334 154.744 142.168 152.914 137.677C152.562 136.807 151.666 134.798 153.404 134.825C154.393 134.844 154.947 136.677 155.354 137.677C155.89 138.983 156.334 140.112 156.74 141.103C159.559 148.019 162.249 155.037 165.198 161.556C167.139 161.537 168.747 161.537 170.891 161.472C172.093 161.435 175.504 160.731 175.448 162.528C175.411 163.833 173.387 163.667 171.705 163.667C160.456 163.667 148.477 164.435 137.866 164.565C139.724 166.203 141.757 168.129 142.016 171.49C142.34 175.675 140.297 179.064 138.596 181.351C138.338 181.703 137.801 182.036 137.949 182.332C147.608 182.536 157.304 182.249 167.231 182.249C171.899 182.249 177.038 182.258 181.548 181.758C185.708 181.295 190.412 180.388 192.446 177.851C194.951 174.731 193.407 168.12 192.28 164.241C191.143 160.315 189.784 156.852 188.453 153.408C185.689 146.204 183.277 138.909 180.569 131.983C177.823 124.983 174.653 117.947 169.098 114.141C163.312 110.178 153.062 110.512 145.27 108.679C144.493 109.391 143.745 110.225 143.07 110.947ZM46.527 119.021C47.1463 120.058 47.6269 121.224 48.1538 122.363C51.8695 125.678 59.042 126.131 62.1477 121.789C62.7392 120.965 63.0904 119.965 63.4509 118.854C63.7744 117.854 64.3198 116.345 64.1811 115.271C64.024 114.049 62.8871 113.03 62.5543 111.771C61.2326 117.752 53.6534 120.715 46.527 119.021ZM124.039 113.317C124.408 114.354 124.519 115.66 125.342 116.252C126.183 116.178 126.673 115.734 127.292 115.437C126.784 114.215 126.22 113.039 125.582 111.938C125.139 112.465 124.464 112.771 124.039 113.317ZM114.685 143.381C115.637 145.825 116.432 148.417 118.021 150.223C119.103 149.732 120.11 148.954 121.035 147.945C121.719 147.195 123.105 145.917 123.392 145.01C123.65 144.186 123.558 142.843 123.632 141.751C124.011 136.159 124.399 130.418 124.686 124.965C124.806 122.678 125.203 120.502 125.009 118.447C124.76 118.502 124.769 118.308 124.519 118.363C121.173 126.631 118.031 135.112 114.685 143.381ZM90.69 153.399C92.5201 153.519 93.1116 152.408 94.1838 151.769C92.4554 151.75 91.1614 152.158 90.69 153.399ZM92.8806 156.491C93.1209 156.769 93.4536 156.945 93.9435 156.982C95.561 155.454 98.1306 154.167 101.43 154.047C98.3062 152.528 93.6292 153.324 92.8806 156.491ZM95.7274 158.445C95.2005 159.065 94.9325 160.046 95.4039 160.889C97.3726 158.87 100.09 157.121 104.028 157.871C104.906 158.037 105.978 158.158 106.958 157.787C104.194 156 97.8718 155.917 95.7274 158.445ZM160.225 161.704C161.066 161.685 161.926 161.667 162.665 161.537C161.981 160.167 161.528 158.556 160.798 157.222C160.659 158.778 160.419 160.213 160.225 161.704ZM123.789 167.333C123.78 169.305 121.543 167.953 120.619 167.416C119.778 166.926 119.177 166.565 118.502 166.111C116.487 164.75 115.507 163.518 113.788 162.768C112.439 161.056 109.546 159.917 106.385 160.157C103.39 160.389 100.007 161.806 100.044 164.639C101.513 163.87 102.66 162.491 105.164 162.518C106.93 162.537 108.686 163.324 109.878 163.981C110.886 164.537 113.206 165.75 113.132 167C113.104 167.463 112.716 167.926 112.161 167.981C111.394 168.046 110.988 167.407 110.451 167C108.862 165.796 106.976 164.805 104.591 164.796C106.902 168.129 105.451 173.259 100.848 171.888C97.3726 170.851 94.5166 167.509 90.6807 167.407C89.9043 169.75 92.3352 169.898 93.7679 170.425C95.256 170.972 96.4299 171.87 97.5945 173.027C99.7481 175.184 102.151 177.101 105.081 178.49C109.934 180.795 117.689 181.295 124.353 181.832C125.305 181.906 126.765 182.184 127.44 181.999C127.865 181.879 128.54 180.962 128.9 180.536C130.167 179.018 131.498 176.814 131.664 174.509C131.877 171.592 130.906 169.416 129.547 167.99C128.595 166.99 126.266 165.231 124.834 164.972C123.521 164.741 122.486 165.055 121.09 165.139C121.876 165.944 123.798 165.944 123.789 167.333ZM96.9475 162.685C96.8828 164.204 96.7718 165.657 96.7071 167.166C97.3911 167.602 98.3801 168.139 99.4708 168.713C100.34 169.176 101.698 170.129 102.724 169.851C104.157 169.463 103.196 166.611 102.558 165.861C101.689 166.111 101.153 167.203 99.8775 167.166C98.4448 167.12 97.6592 165.426 97.6777 164.074C97.6961 162.778 98.4356 161.805 98.9809 161.139C99.1103 160.972 99.4523 160.787 99.3044 160.565C98.4079 161.157 97.7424 161.991 96.9475 162.685ZM139.733 171.398C139.465 168.768 137.533 167.129 135.749 165.944C135.093 165.509 134.206 164.741 133.476 164.639C132.228 164.463 130.564 164.861 129.242 164.879C132.034 166.666 134.243 169.898 133.956 174.416C133.771 177.333 132.394 179.703 131.11 181.425C130.962 181.619 130.527 181.842 130.703 182.156C131.923 182.323 133.494 182.129 134.687 182.323C137.025 179.721 140.232 176.268 139.733 171.398Z" fill="black"/>
<path fill-rule="evenodd" clip-rule="evenodd" d="M128.264 79.5857C128.643 80.4004 130.399 81.3356 130.057 82.8448C129.974 83.2058 129.503 83.6966 128.754 83.5762C127.959 83.4466 127.821 82.567 127.294 81.8633C126.85 81.28 126.222 80.6134 125.667 80.4004C124.354 79.8819 122.543 80.6874 122.497 79.1783C122.478 78.5394 122.94 78.1876 123.55 78.0394C125.806 77.4654 127.275 78.7246 128.264 79.5857Z" fill="black"/>
<path fill-rule="evenodd" clip-rule="evenodd" d="M115.331 90.181C115.969 90.8384 117.069 93.1901 115.331 93.2734C114.342 93.329 112.614 90.8754 112.725 89.7736C112.836 88.6996 114.601 87.8756 115.248 87.1719C115.747 86.6256 116.921 85.1812 117.041 83.9128C117.198 82.2925 116.256 81.0981 115.331 80.6537C114.647 80.3296 111.089 80.4963 112.401 78.5334C112.993 77.6538 115.433 78.1538 116.468 78.7001C118.049 79.5334 119.297 81.487 119.315 83.5054C119.343 86.9682 117.189 88.0237 115.331 90.181Z" fill="black"/>
<path fill-rule="evenodd" clip-rule="evenodd" d="M115.821 86.3475C115.525 86.7178 114.952 86.8289 114.518 86.6715C113.344 86.2456 113.501 82.3477 115.091 82.431C116.274 82.4958 116.542 85.4586 115.821 86.3475Z" fill="black"/>
<path fill-rule="evenodd" clip-rule="evenodd" d="M124.928 82.5977C126.407 82.3477 126.139 84.1532 125.982 85.1254C125.861 85.9031 125.76 86.8382 125.085 86.9956C124.475 87.1438 123.763 86.8105 123.625 86.1809C123.412 85.2272 123.976 83.0607 124.355 82.7551C124.475 82.6718 124.706 82.6348 124.928 82.5977Z" fill="black"/>
<path fill-rule="evenodd" clip-rule="evenodd" d="M138.429 88.0605C138.873 87.9587 139.658 87.9401 139.815 88.7919C139.982 89.7549 139.011 90.3845 138.512 90.9122C137.884 91.5788 137.394 92.4306 136.562 92.3751C135.98 92.3381 135.573 91.9492 135.582 91.2363C135.601 90.4863 137.773 88.2086 138.429 88.0605Z" fill="black"/>
<path fill-rule="evenodd" clip-rule="evenodd" d="M124.196 92.9464C125.185 92.6594 125.712 93.1964 125.739 93.8445C125.795 94.9371 123.641 96.0574 122.486 96.2055C120.887 96.4092 119.168 96.1685 119.232 94.9001C119.306 93.4742 121.275 94.1686 122.319 93.9186C123.207 93.7149 123.512 93.2149 124.196 92.9464Z" fill="black"/>
<path fill-rule="evenodd" clip-rule="evenodd" d="M22.303 175.281H119.456C120.214 175.281 120.833 175.902 120.833 176.661L120.195 180.364C119.631 182.244 118.337 183.818 116.47 183.818H25.3347C23.4676 183.818 21.998 182.244 21.4064 180.29L20.9258 176.661C20.9258 175.902 21.5451 175.281 22.303 175.281Z" fill="#F5F5F5"/>
<path d="M116.47 184.76H25.3347C23.1811 184.76 21.2863 183.112 20.5099 180.575C20.4729 180.427 19.9922 176.788 19.9922 176.788C19.983 175.39 21.0275 174.344 22.303 174.344H119.456C120.731 174.344 121.767 175.381 121.767 176.668C121.757 176.825 121.12 180.529 121.12 180.529C120.334 183.177 118.559 184.76 116.47 184.76ZM22.3215 180.093C22.7744 181.492 23.8651 182.89 25.3347 182.89H116.47C118.273 182.89 119.058 180.862 119.28 180.149L119.89 176.603C119.863 176.381 119.678 176.214 119.447 176.214H22.303C22.0719 176.214 21.8871 176.39 21.8593 176.612L22.3215 180.093Z" fill="black"/>
<path fill-rule="evenodd" clip-rule="evenodd" d="M4.98105 132.246L66.7241 132.265C68.7391 132.265 71.0036 133.811 71.78 135.709L87.1788 173.327C87.9552 175.225 85.2933 178.781 83.2783 178.772L21.5352 178.753C19.5202 178.753 17.2557 177.207 16.4793 175.309L1.07127 137.681C0.294862 135.774 2.96608 132.246 4.98105 132.246Z" fill="#F5F5F5"/>
<path d="M83.2776 179.714L21.5345 179.695C19.1406 179.695 16.534 177.927 15.6097 175.667L0.210952 138.04C-0.241953 136.919 0.0538216 135.438 1.04282 133.966C1.86544 132.744 3.39054 131.309 4.98957 131.309L66.7326 131.327C69.1266 131.327 71.7331 133.096 72.6574 135.355L88.0562 172.973C88.5183 174.093 88.2133 175.584 87.2243 177.066C86.3924 178.278 84.8766 179.714 83.2776 179.714ZM4.98033 133.179C4.31483 133.179 3.28886 133.966 2.5864 135.003C1.99485 135.892 1.73604 136.818 1.93939 137.318L17.3382 174.945C17.9759 176.501 19.8985 177.816 21.5345 177.816L83.2776 177.834C83.9431 177.834 84.9598 177.047 85.653 176.01C86.2538 175.121 86.5126 174.177 86.3092 173.677L70.9105 136.058C70.2727 134.503 68.3502 133.197 66.7141 133.197L4.98033 133.179Z" fill="black"/>
<path fill-rule="evenodd" clip-rule="evenodd" d="M38.6909 154.805C35.3172 154.852 33.7551 157.277 35.197 160.231C36.6389 163.185 40.5395 165.536 43.9132 165.499C47.2868 165.453 48.8489 163.027 47.407 160.074C45.9651 157.12 42.0646 154.759 38.6909 154.805Z" fill="#223549"/>
<path d="M246.054 184.999H8.77729C8.25968 184.999 7.84375 184.583 7.84375 184.064C7.84375 183.546 8.25968 183.129 8.77729 183.129H246.054C246.571 183.129 246.987 183.546 246.987 184.064C246.996 184.583 246.571 184.999 246.054 184.999Z" fill="black"/>
<path fill-rule="evenodd" clip-rule="evenodd" d="M7.48438 51.2148H74.6716V86.9816H7.48438V51.2148Z" fill="#F7C154"/>
<path d="M74.6715 87.9236H7.48432C6.96672 87.9236 6.55078 87.507 6.55078 86.9885V51.2125C6.55078 50.694 6.96672 50.2773 7.48432 50.2773H74.6715C75.1891 50.2773 75.605 50.694 75.605 51.2125V86.9792C75.605 87.4977 75.1891 87.9236 74.6715 87.9236ZM8.41786 86.0441H73.738V52.1476H8.41786V86.0441Z" fill="black"/>
<path d="M11.9949 82.2077C11.6622 82.2077 11.3387 82.0318 11.1723 81.717C10.932 81.2633 11.0984 80.6892 11.5513 80.4485L34.973 67.8288C35.4259 67.588 35.999 67.7547 36.2393 68.2084C36.4796 68.6621 36.3132 69.2361 35.8603 69.4768L12.4294 82.0966C12.2907 82.1706 12.1428 82.2077 11.9949 82.2077Z" fill="white"/>
<path d="M41.6856 72.8933L10.6569 56.1997C10.204 55.959 10.0284 55.3849 10.278 54.9312C10.5275 54.4775 11.0914 54.3016 11.5443 54.5516L41.6764 70.7545L70.0246 54.959C70.4775 54.709 71.0413 54.8664 71.3001 55.3201C71.5496 55.7738 71.3925 56.3478 70.9396 56.5978L41.6856 72.8933Z" fill="white"/>
<path fill-rule="evenodd" clip-rule="evenodd" d="M47.4815 86.053H50.3098C49.6536 85.3308 48.9603 84.7568 48.3965 84.155C47.8697 83.5902 47.2874 82.7198 47.7495 81.7106C48.9511 81.1921 50.6795 82.5717 51.5761 83.4235C52.3525 84.155 53.0735 85.0531 53.7112 86.053H56.1421C55.2456 84.3124 54.1087 82.8217 52.7222 81.6273C51.5484 80.6088 49.672 79.3404 47.8419 79.5071C46.3723 79.6367 45.6606 80.7292 45.5682 82.118C45.4295 83.979 46.3815 85.0623 47.4815 86.053Z" fill="#737373"/>
<path d="M71.6604 82.6073C71.5126 82.6073 71.3554 82.5703 71.2168 82.4962L47.7858 69.895C47.3329 69.6543 47.1573 69.0802 47.4069 68.6265C47.6472 68.1729 48.2203 67.9969 48.6732 68.2469L72.1134 80.8481C72.5663 81.0889 72.7419 81.6629 72.4923 82.1166C72.3167 82.4221 71.9932 82.6073 71.6604 82.6073Z" fill="white"/>
</svg>
