<svg width="67" height="20" viewBox="0 0 67 20" fill="none" xmlns="http://www.w3.org/2000/svg">
<path d="M16.4431 4.28125C16.8791 4.85256 17.2483 5.47325 17.543 6.13084L9.18185 12.3773L5.6875 10.1573V7.48662L9.18185 9.70656L16.4431 4.28125Z" fill="#21A038"/>
<path d="M2.12056 9.97413C2.12056 9.85429 2.12344 9.73525 2.12921 9.61689L0.0115332 9.51172C0.00432535 9.66512 2.55911e-06 9.82 2.55911e-06 9.9763C-0.000898452 11.1976 0.23613 12.407 0.697498 13.5351C1.15886 14.6634 1.83548 15.6881 2.68854 16.5507L4.19066 15.0291C3.534 14.3663 3.01308 13.5785 2.65782 12.711C2.30256 11.8435 2.11998 10.9134 2.12056 9.97413Z" fill="url(#paint0_linear)"/>
<path d="M9.17821 2.81561C9.29641 2.81561 9.41386 2.81999 9.53063 2.82583L9.63659 0.678933C9.48479 0.671628 9.33195 0.667976 9.17821 0.667976C7.97258 0.666486 6.7786 0.906358 5.66474 1.37382C4.55087 1.84128 3.5391 2.52712 2.6875 3.39197L4.18962 4.9143C4.84365 4.24859 5.62108 3.72046 6.4772 3.3603C7.33333 3.00013 8.25122 2.81502 9.17821 2.81561Z" fill="url(#paint1_linear)"/>
<path d="M9.18177 17.1253C9.06358 17.1253 8.94607 17.1253 8.82862 17.1158L8.72266 19.262C8.87497 19.2697 9.02803 19.2737 9.18177 19.2737C10.3869 19.2749 11.5803 19.0349 12.6936 18.5673C13.8068 18.0997 14.818 17.4138 15.6689 16.5489L14.1697 15.0273C13.5155 15.6927 12.7382 16.2205 11.8822 16.5806C11.0263 16.9406 10.1085 17.1257 9.18177 17.1253Z" fill="url(#paint2_linear)"/>
<path d="M13.1575 4.06475L14.9421 2.73161C13.3109 1.39296 11.2747 0.664253 9.17578 0.667983V2.81634C10.5971 2.81456 11.9854 3.24987 13.1575 4.06475Z" fill="url(#paint3_linear)"/>
<path d="M18.3592 9.96775C18.3603 9.40887 18.3121 8.85096 18.215 8.30078L16.2393 9.77636C16.2393 9.83995 16.2393 9.90348 16.2393 9.96775C16.2399 10.9673 16.0331 11.9557 15.6326 12.8691C15.232 13.7824 14.6465 14.6003 13.9141 15.2696L15.3391 16.8658C16.2913 15.9946 17.0522 14.9303 17.5724 13.742C18.0928 12.5537 18.3608 11.2678 18.3592 9.96775Z" fill="#21A038"/>
<path d="M9.1814 17.1222C8.19509 17.1225 7.21969 16.9129 6.31835 16.507C5.41705 16.1011 4.6099 15.5078 3.94919 14.7656L2.375 16.2091C3.23451 17.1742 4.28459 17.9455 5.45714 18.4729C6.6297 19.0003 7.89852 19.272 9.1814 19.2705V17.1222Z" fill="url(#paint4_linear)"/>
<path d="M4.44582 4.67033L3.02155 3.07422C2.06908 3.94523 1.30789 5.00942 0.787359 6.19775C0.266832 7.38608 -0.00141914 8.67203 5.64603e-06 9.9722H2.12056C2.12012 8.97274 2.32689 7.98426 2.72745 7.07092C3.12802 6.1576 3.71345 5.33973 4.44582 4.67033Z" fill="url(#paint5_linear)"/>
<path d="M52.9681 5.98562L55.5945 4.04688H46.8047V15.697H55.5945V13.7583H49.3128V10.7741H54.6713V8.83535H49.3128V5.98562H52.9681Z" fill="#21A038"/>
<path d="M40.8902 8.58813H37.8386V5.9876H42.7089L45.3336 4.04297H35.332V15.6931H40.5675C43.5027 15.6931 45.1872 14.3601 45.1872 12.0354C45.1872 9.81146 43.6614 8.58813 40.8902 8.58813ZM40.4546 13.7538H37.8386V10.5257H40.4546C42.0421 10.5257 42.7865 11.0666 42.7865 12.1397C42.7865 13.2128 41.9945 13.7538 40.4546 13.7538Z" fill="#21A038"/>
<path d="M62.0541 4.04688H57.2695V15.697H59.7773V12.3967H62.0541C65.1067 12.3967 66.9951 10.7872 66.9951 8.21557C66.9951 5.64397 65.1067 4.04688 62.0541 4.04688ZM62.0012 10.4565H59.7773V5.9871H62.0012C63.6069 5.9871 64.493 6.78123 64.493 8.22268C64.493 9.66413 63.6069 10.4565 62.0012 10.4565Z" fill="#21A038"/>
<path d="M31.5693 12.9468C30.9215 13.2983 30.1957 13.4803 29.4591 13.476C27.2542 13.476 25.6548 11.8988 25.6548 9.72703C25.6548 7.55521 27.2542 5.97463 29.4591 5.97463C30.2541 5.9611 31.0327 6.20267 31.6811 6.6641L33.4353 5.36962L33.3167 5.28517C32.2934 4.3837 30.9261 3.90625 29.3611 3.90625C27.6635 3.90625 26.1243 4.4785 25.0253 5.51958C24.4696 6.05562 24.0302 6.70068 23.7342 7.41449C23.4384 8.12831 23.2924 8.89553 23.3055 9.66839C23.2937 10.4491 23.4391 11.2242 23.7328 11.9474C24.0265 12.6706 24.4626 13.327 25.015 13.8776C26.1191 14.96 27.6549 15.5564 29.3404 15.5564C31.1015 15.5564 32.6408 14.941 33.683 13.8207L32.1128 12.6486L31.5693 12.9468Z" fill="#21A038"/>
<defs>
<linearGradient id="paint0_linear" x1="3.11741" y1="16.2826" x2="0.744893" y2="9.51525" gradientUnits="userSpaceOnUse">
<stop offset="0.14" stop-color="#F1E813"/>
<stop offset="0.3" stop-color="#E6E418"/>
<stop offset="0.58" stop-color="#C9DA26"/>
<stop offset="0.89" stop-color="#A2CC39"/>
</linearGradient>
<linearGradient id="paint1_linear" x1="3.29296" y1="3.77182" x2="9.28037" y2="1.5204" gradientUnits="userSpaceOnUse">
<stop offset="0.06" stop-color="#0FA7DF"/>
<stop offset="0.54" stop-color="#0098F8"/>
<stop offset="0.92" stop-color="#0290EA"/>
</linearGradient>
<linearGradient id="paint2_linear" x1="8.58285" y1="17.977" x2="15.3395" y2="16.4709" gradientUnits="userSpaceOnUse">
<stop offset="0.12" stop-color="#A2CC39"/>
<stop offset="0.28" stop-color="#86C239"/>
<stop offset="0.87" stop-color="#219F38"/>
</linearGradient>
<linearGradient id="paint3_linear" x1="8.73469" y1="1.38751" x2="14.5171" y2="3.14825" gradientUnits="userSpaceOnUse">
<stop offset="0.06" stop-color="#0290EA"/>
<stop offset="0.79" stop-color="#0C89CA"/>
</linearGradient>
<linearGradient id="paint4_linear" x1="2.90694" y1="15.9475" x2="9.20683" y2="18.2708" gradientUnits="userSpaceOnUse">
<stop offset="0.13" stop-color="#F1E813"/>
<stop offset="0.3" stop-color="#EAE616"/>
<stop offset="0.53" stop-color="#D8DF1F"/>
<stop offset="0.8" stop-color="#BAD52D"/>
<stop offset="0.98" stop-color="#A2CC39"/>
</linearGradient>
<linearGradient id="paint5_linear" x1="0.789987" y1="10.2322" x2="3.36988" y2="3.61013" gradientUnits="userSpaceOnUse">
<stop offset="0.07" stop-color="#A2CC39"/>
<stop offset="0.26" stop-color="#81C45E"/>
<stop offset="0.92" stop-color="#0FA7DF"/>
</linearGradient>
</defs>
</svg>
