<svg width="58" height="58" viewBox="0 0 58 58" fill="none" xmlns="http://www.w3.org/2000/svg">
<path d="M28.9995 33.8346C31.6689 33.8346 33.8329 31.6707 33.8329 29.0013C33.8329 26.3319 31.6689 24.168 28.9995 24.168C26.3302 24.168 24.1662 26.3319 24.1662 29.0013C24.1662 31.6707 26.3302 33.8346 28.9995 33.8346Z" stroke="#EB5C29" stroke-width="2.41667" stroke-linecap="round" stroke-linejoin="round"/>
<path d="M42.2577 25.2937C40.8735 23.5062 39.3787 21.8072 37.7821 20.2066C27.5402 9.95753 15.2853 5.58336 10.4302 10.4384C7.55199 13.3167 7.93866 18.7929 10.8435 24.907" stroke="white" stroke-width="2.41667" stroke-linecap="round" stroke-linejoin="round"/>
<path d="M15.7456 32.6758C17.1208 34.4749 18.6101 36.1838 20.2044 37.7919C30.4559 48.0409 42.7011 52.4151 47.5562 47.56C50.4321 44.6842 50.0478 39.2104 47.1381 33.0963" stroke="white" stroke-width="2.41667" stroke-linecap="round" stroke-linejoin="round"/>
<path d="M32.7001 42.2725C34.4876 40.8883 36.1866 39.3935 37.7872 37.7969C48.0362 27.555 52.4104 15.3001 47.5553 10.445C44.6771 7.56678 39.2009 7.95345 33.0867 10.8583" stroke="white" stroke-width="2.41667" stroke-linecap="round" stroke-linejoin="round"/>
<path d="M25.3235 15.75C23.5244 17.1251 21.8155 18.6144 20.2075 20.2088C9.95837 30.4506 5.5842 42.7055 10.4393 47.5606C13.3151 50.4364 18.7889 50.0522 24.903 47.1425" stroke="white" stroke-width="2.41667" stroke-linecap="round" stroke-linejoin="round"/>
</svg>
