<svg width="436" height="328" viewBox="0 0 436 328" fill="none" xmlns="http://www.w3.org/2000/svg">
<path d="M167.135 102.871C166.492 104.366 165.517 105.692 164.245 106.738C163.579 107.293 162.663 107.923 161.76 107.828C161.226 109.57 160.689 111.309 160.185 113.058C160.037 113.577 159.71 114.474 160.126 114.923C160.386 115.197 160.808 115.339 161.081 115.636C161.342 115.923 161.546 116.243 161.701 116.593C163.21 120.035 159.621 122.919 157.45 125.015C154.83 127.55 152.042 129.962 148.694 131.487C145.167 133.094 141.157 133.715 137.341 134.2C134.464 134.569 130.664 134.127 129.241 131.312C128.11 131.942 126.888 132.385 125.602 132.616C124.818 132.754 124.014 132.794 123.22 132.771C122.821 132.757 122.419 132.724 122.023 132.668C121.832 132.639 121.173 132.477 121.13 132.477C120.827 132.55 120.57 132.827 120.264 132.916C119.918 133.018 119.545 133.021 119.206 132.88C118.909 132.754 118.659 132.51 118.534 132.22C115.212 130.507 112.19 128.233 109.616 125.51C104.712 120.312 101.384 113.623 100.461 106.511C100.336 105.534 100.247 104.564 99.9801 103.607C99.7132 102.62 99.3375 101.659 98.9388 100.719C98.1248 98.808 97.1625 96.9631 96.4606 95.0028C95.0534 91.0788 94.6118 86.8611 95.0995 82.7293C94.9974 82.5741 94.9381 82.3794 94.9578 82.1451C95.2973 78.3763 97.436 74.9242 100.666 72.954C102.376 71.9111 104.261 71.2214 106.139 70.5448C108.268 69.7759 110.4 69.0399 112.565 68.3733C119.783 66.1423 127.342 64.6572 134.922 65.3865C138.399 65.7199 141.859 66.5251 145.085 67.8815C148.038 69.1191 151.047 70.6603 152.539 73.6272C153.907 76.3367 154.026 79.4125 154.958 82.2573C155.4 83.5906 156 84.9602 157.021 85.9536C158.25 87.145 159.816 87.3397 161.437 87.5971C163.059 87.8479 164.574 88.3363 165.823 89.4485C166.947 90.4551 167.791 91.7818 168.265 93.2108C169.353 96.4417 168.562 99.8839 167.135 102.871Z" fill="white"/>
<path d="M130.35 110.953C129.918 110.794 129.344 111.019 129.206 111.484C128.438 114.065 126.21 116.029 123.535 116.425C122.398 116.593 122.691 118.352 123.828 118.187C127.077 117.708 129.941 115.26 130.883 112.101C131.018 111.636 130.824 111.124 130.35 110.953Z" fill="#223549"/>
<path d="M189.131 127.763C187.859 130.169 178.14 141.495 176.855 143.888C173.296 147.545 170.03 149.644 168.485 150.489C167.878 150.815 167.539 150.954 167.545 150.918L167.443 140.192L167.371 132.525L167.134 129.615C167.097 129.179 167.43 128.621 167.924 128.628C168.013 128.628 168.043 127.859 168.132 127.859C168.547 127.866 169.338 127.747 169.753 127.757C169.918 127.763 171.197 127.763 173.023 127.763C174.664 127.763 176.743 127.757 178.859 127.757C183.733 127.75 188.791 127.743 189.131 127.763Z" fill="#EC663D"/>
<path d="M132.158 226.349C129.894 230.207 116.049 233.468 117.602 237.583C117.918 238.412 118.254 239.28 118.643 240.148C122.799 242.748 126.964 245.332 131.133 247.903C131.268 247.986 131.4 248.068 131.538 248.154C131.937 248.398 132.329 248.642 132.728 248.887C132.586 249.5 132.461 250.118 132.349 250.738C131.963 250.5 131.581 250.266 131.195 250.028C130.922 251.494 130.648 252.962 130.381 254.428C130.365 254.523 130.329 254.612 130.286 254.688C130.184 255.223 130.085 255.761 129.976 256.296C129.637 258.101 129.294 259.896 128.948 261.701C128.526 263.922 128.091 266.167 127.468 268.345C127.676 268.51 127.788 268.774 127.699 269.124C127.188 271.094 126.397 272.932 125.28 274.635C124.443 275.915 122.825 278.397 120.983 277.41C120.966 277.404 120.953 277.394 120.94 277.381C120.518 277.566 120.09 277.727 119.651 277.846C117.025 278.566 114.277 278.341 111.597 278.143C110.978 278.097 110.362 278.047 109.742 277.995C109.093 275.054 108.397 272.127 107.656 269.203C106.641 265.196 105.939 261.124 105.039 257.107C104.618 255.226 104.232 253.513 103.869 251.929C101.161 240.108 99.6776 235.197 94.0852 217.97C92.1772 212.096 90.4965 205.462 90.9282 205.023C90.8853 205.059 90.8524 205.096 90.803 205.129C90.3976 205.498 89.811 205.987 89.1256 206.541C86.7891 208.436 83.3289 211.089 82.0634 212.214C79.4435 214.554 77.0872 217.257 74.5102 219.666C71.5805 222.399 68.6542 225.131 65.7311 227.864C65.3323 228.234 64.9336 228.607 64.5348 228.976C64.4524 229.049 64.3569 229.095 64.2613 229.118C64.2382 229.125 64.2152 229.131 64.1888 229.135C67.9918 231.63 71.7684 234.201 75.6669 236.547C79.4007 238.791 83.3585 240.748 87.6789 241.511C88.8092 241.705 88.5423 243.474 87.4119 243.273C85.3061 242.903 83.2564 242.273 81.2824 241.451C81.1769 241.517 81.0517 241.563 80.9034 241.583C78.1451 241.9 75.6966 243.421 73.805 245.411C72.0089 247.293 70.6479 249.52 69.366 251.764C68.028 254.111 66.6901 256.467 65.5663 258.926C63.3979 263.695 62.0896 269.19 63.9384 274.272C64.3371 274.348 64.7359 274.42 65.1379 274.493C66.2682 274.684 66.0013 276.45 64.871 276.255C62.7849 275.899 60.7154 275.453 58.6722 274.915C50.2721 272.714 42.3201 269.107 34.7537 264.886C27.1445 260.635 19.8517 255.82 12.6313 250.946C9.34573 248.718 6.0206 246.293 3.7731 242.953C1.42673 239.464 0.67536 235.303 1.02138 231.161C1.37729 226.864 2.80423 222.709 4.47503 218.762C6.07992 214.977 7.98799 211.317 10.1234 207.799C14.4043 200.769 19.5518 194.317 25.1508 188.298C30.8091 182.209 36.9156 176.545 43.1308 171.027C49.4548 165.414 55.8216 159.784 62.663 154.8C69.4583 149.853 76.8401 145.537 84.9008 143.038C94.0358 140.2 103.78 139.787 113.248 138.959C119.223 138.434 125.194 137.936 131.176 137.454C131.284 137.441 131.396 137.431 131.502 137.425C131.789 137.223 132.184 137.194 132.494 137.349L132.902 137.312C132.939 137.415 132.949 137.52 132.939 137.639C132.504 143.81 132.708 150.008 133.522 156.147C134.418 155.193 135.311 154.249 136.208 153.295C136.303 153.592 136.409 153.889 136.504 154.19C140.601 150.79 144.315 146.969 147.604 142.784C147.847 142.474 148.305 142.378 148.655 142.533C151.584 143.824 154.511 145.111 157.441 146.401C158.119 146.698 158.795 146.995 159.474 147.299C160.014 147.536 178.123 152.233 178.663 152.47C172.428 164.061 177.049 170.839 170.682 182.36C166.467 189.987 143.633 202.736 139.358 210.333C135.71 216.798 132.197 226.27 132.158 226.349Z" fill="#EC663D"/>
<path d="M160.362 190.809C160.379 192.202 160.119 193.522 159.364 194.707C158.655 195.816 157.647 196.661 156.714 197.565C154.754 199.459 152.928 201.506 151.27 203.667C149.629 205.806 148.143 208.053 146.835 210.413C146.182 211.584 145.576 212.789 145.009 214.007C144.515 215.073 144.165 216.512 143.249 217.31C142.109 218.317 140.843 217.584 139.779 216.881L135.821 214.274C133.142 212.512 130.459 210.743 127.78 208.981C127.55 208.825 127.395 208.426 127.464 208.159C128.499 204.136 129.557 200.123 130.628 196.116C134.407 182.008 138.421 167.972 142.653 153.995C141.549 153.24 141.387 151.715 141.101 150.365C140.87 149.26 140.629 148.151 140.399 147.045C140.036 147.045 139.726 146.814 139.548 146.474C138.86 145.164 138.204 143.563 138.491 142.059C138.8 140.405 140.142 139.547 141.717 139.296C145.688 138.653 149.955 138.927 153.907 139.577C154.263 139.636 154.661 139.969 154.661 140.362L154.628 151.481C154.628 151.896 154.46 152.243 154.065 152.415C153.857 152.504 153.643 152.583 153.429 152.665C154.665 159.292 155.9 165.909 157.14 172.53C157.723 175.648 158.306 178.774 158.886 181.892C159.176 183.453 159.469 185.011 159.759 186.572C160.02 187.968 160.339 189.38 160.362 190.809Z" fill="#223549"/>
<path d="M166.969 133.804C166.94 134.061 166.831 134.239 166.696 134.358C166.594 135.276 166.376 136.196 165.971 137.107C165.269 138.714 164.284 140.203 163.397 141.714L160.645 146.404C160.379 146.856 159.967 147.018 159.469 146.856C155.659 145.599 151.814 144.262 148.545 141.879C146.178 144.45 143.713 146.922 141.14 149.285C139.838 150.483 138.464 151.612 137.162 152.816C136.058 153.839 134.967 155.037 134.588 156.536C134.351 157.44 132.842 157.582 132.815 156.499C132.743 153.004 132.674 149.516 132.608 146.028C132.571 144.289 132.555 142.556 132.496 140.827C132.453 139.427 132.331 138.054 131.843 136.744C131.738 136.619 131.675 136.47 131.665 136.309C131.289 135.444 132.337 134.873 132.983 135.266C138.75 135.378 144.241 133.157 149.503 131.038C149.896 130.876 150.228 131.002 150.443 131.246C151.161 130.837 151.876 130.411 152.565 129.959C154.43 128.731 156.213 127.365 157.874 125.863C159.413 124.477 160.906 122.827 161.321 120.731C161.542 119.606 163.213 119.857 163.081 120.999C162.85 123.065 164.893 124.745 165.905 126.332C167.368 128.649 167.273 131.18 166.969 133.804Z" fill="white"/>
<path d="M95.2951 68.9696C92.9586 66.9069 90.6221 64.841 88.2856 62.7783C87.1915 61.8114 86.0941 60.8444 85 59.8774C84.2981 59.257 82.4955 58.1514 82.8382 57.0095C83.0129 56.4254 83.5863 55.9139 83.9719 55.465C84.4859 54.8644 84.9967 54.2637 85.5108 53.6631C86.4731 52.5377 87.4354 51.4123 88.3977 50.2837C90.4507 47.8811 92.5005 45.4785 94.5536 43.076C95.2555 42.2575 94.1746 41.3103 93.3442 41.7823C88.2263 44.6964 83.2996 47.9372 78.5805 51.4618C77.1667 48.2639 75.6145 45.1353 73.9207 42.076C73.5384 41.3829 72.3982 41.7394 72.3158 42.4621C71.8709 46.3135 71.4227 50.1682 70.9778 54.0195C68.727 53.31 66.4762 52.5971 64.2254 51.8876C63.563 51.6797 62.6732 52.2473 63.0292 53.0229C64.377 55.9535 66.5982 58.3197 69.4191 59.8609C66.4927 63.5572 63.5663 67.2534 60.6399 70.9464C60.0995 71.6263 60.808 72.6955 61.6484 72.3457C65.6919 70.6692 69.7354 68.9927 73.779 67.3162C75.2092 72.9694 76.6394 78.6227 78.0697 84.276C78.2905 85.144 79.7075 84.9427 79.7833 84.0879C80.3106 78.0551 80.8412 72.0223 81.3684 65.9895C85.524 68.1577 89.9828 69.689 94.5964 70.5306C95.4961 70.7088 95.9311 69.5306 95.2951 68.9696ZM79.7207 64.4515C79.3055 69.1874 78.8902 73.9265 78.475 78.6623C77.3908 74.372 76.3033 70.0817 75.2191 65.7914C75.1038 65.3327 74.471 65.1116 74.0657 65.2766C70.7636 66.6462 67.4649 68.0125 64.1628 69.3821C66.8783 65.9532 69.5937 62.5242 72.3092 59.0953C73.0243 58.1943 71.6435 57.059 70.9317 57.96C70.7933 58.1349 70.6549 58.3098 70.5165 58.4847C70.4571 58.4286 70.3879 58.3725 70.3056 58.3296C68.47 57.3561 66.9013 55.9403 65.7413 54.2307C67.6197 54.8248 69.5014 55.4155 71.3799 56.0096C71.9038 56.1746 72.5498 55.9601 72.6256 55.3264C73.0045 52.0559 73.3835 48.7821 73.7625 45.5115C75.0675 48.0131 76.2769 50.5642 77.3908 53.1549C77.6116 53.6697 78.2707 53.9205 78.7419 53.5608C82.2615 50.8876 85.9096 48.3926 89.6598 46.0594C87.3695 48.7392 85.0791 51.4222 82.7888 54.102C82.1198 54.8842 81.319 55.6828 81.0751 56.7158C80.8412 57.7158 81.2432 58.6761 81.899 59.422C82.68 60.3098 83.6423 61.0523 84.5255 61.8345C85.5108 62.7057 86.4962 63.577 87.4815 64.445C88.8327 65.6396 90.1838 66.8343 91.535 68.0257C87.8506 67.0554 84.3014 65.6264 80.9598 63.7618C80.4721 63.4945 79.7668 63.907 79.7207 64.4515Z" fill="#EB5C29"/>
<path d="M169.989 100.817C170.945 97.6623 171.097 94.1146 169.175 91.3061C168.289 90.0025 167.03 88.9662 165.603 88.3193C165.181 87.1115 164.931 85.8442 164.848 84.5703C164.759 83.2898 164.848 82.006 165.092 80.742C165.616 78.082 167.03 75.7422 168.272 73.3792C170.335 69.4618 172.194 63.8976 168.404 60.3598C167.168 59.1915 165.491 58.5084 163.84 58.6767C164.15 55.5943 162.502 52.4326 159.846 50.7825C156.778 48.8882 152.902 49.0268 149.663 50.4261C148.862 46.2051 146.984 42.1326 143.606 39.3769C141.81 37.905 139.641 36.882 137.351 36.5255C135.038 36.1559 132.691 36.5981 130.546 37.4793C128.377 38.3737 126.413 39.7004 124.518 41.0732C122.485 38.7268 119.061 38.235 116.125 39.1987C112.684 40.3373 110.341 43.4593 108.463 46.4361C104.765 44.3339 99.9409 45.0368 96.6092 47.5978C92.9941 50.3898 91.4188 54.9738 91.2936 59.4258C89.7118 58.8186 87.863 58.9308 86.2944 59.6172C84.1359 60.5644 82.531 62.4917 81.3677 64.4851C78.7478 68.9668 77.7493 74.3891 78.7115 79.511C79.1202 81.7024 80.0067 83.9828 81.8389 85.3392C80.5669 86.4943 79.3838 87.7814 78.6588 89.3457C77.7921 91.2268 78.0228 93.2037 79.074 94.9396C81.0942 98.286 84.2743 101.197 87.9191 102.659C89.5371 103.309 91.2541 103.623 92.9842 103.563C92.5492 105.438 92.938 107.474 94.1013 109.028C95.4624 110.843 97.7758 111.754 100.017 111.546C100.326 113.441 101.032 115.206 101.971 116.88C102.999 118.701 104.159 120.457 105.313 122.206C106.416 123.879 107.576 125.533 108.862 127.071C111.389 130.077 114.461 132.698 118.218 133.975C121.76 135.183 125.652 135.183 128.964 133.42C129.926 134.73 129.653 134.437 130.569 135.777C130.954 136.341 130.767 136.734 131.139 137.308H131.182C131.182 137.324 131.175 137.344 131.175 137.361C131.175 137.39 131.169 137.414 131.169 137.443C130.681 144.367 130.955 151.331 132.002 158.195C132.128 158.981 133.054 159.225 133.578 158.664C134.665 157.509 135.759 156.347 136.847 155.192C140.656 151.149 144.463 147.11 148.272 143.067C149.307 143.912 150.431 144.585 151.607 145.156C152.326 145.506 153.07 145.816 153.825 146.096C158.017 147.69 162.581 148.568 166.101 151.479C166.611 151.902 167.462 151.598 167.551 150.918C167.877 148.341 168.114 145.747 168.262 143.149C168.543 138.315 168.519 133.463 168.19 128.632C168.173 128.374 168.154 128.114 168.137 127.859C168.101 127.401 167.798 127.156 167.455 127.104C166.11 124.318 164.881 121.483 163.758 118.602C163.929 118.173 163.711 117.804 163.365 117.625C162.937 116.507 162.528 115.381 162.136 114.256C162.492 112.507 163.098 110.814 163.932 109.226C164.038 109.025 164.015 108.787 163.916 108.576C164.087 108.487 164.262 108.408 164.42 108.309C167.165 106.662 169.063 103.854 169.989 100.817ZM162.621 120.563C163.672 123.183 164.809 125.77 166.045 128.308C166.134 128.493 166.259 128.618 166.407 128.701C166.872 135.523 166.717 142.367 165.949 149.166C160.633 145.654 153.538 145.582 148.763 141.153C148.394 140.806 147.824 140.945 147.508 141.278C143.738 145.278 139.971 149.284 136.201 153.284C135.305 154.238 134.411 155.182 133.515 156.136C132.701 149.997 132.5 143.803 132.932 137.628C132.945 137.509 132.932 137.4 132.896 137.301C132.853 137.14 132.764 137.004 132.652 136.895C132.48 136.486 132.362 136.044 132.151 135.651C141.912 136.496 151.795 132.622 158.633 125.615C160.139 124.074 161.47 122.378 162.621 120.563ZM156.194 107.477C155.75 107.292 155.219 107.566 155.048 108.009C154.102 110.52 152.85 112.876 151.304 115.074C151.017 115.467 151.119 116.031 151.505 116.319C153.449 117.741 155.624 118.777 157.961 119.361C158.465 119.493 158.877 119.309 159.108 118.83C159.559 117.913 160.083 117.038 160.66 116.186C160.749 116.233 160.851 116.269 160.95 116.276C161.24 117.008 161.52 117.741 161.8 118.467C157.153 126.609 148.562 132.265 139.338 133.665C136.692 134.064 134.019 134.11 131.36 133.79C131.277 133.777 131.198 133.783 131.129 133.79C130.872 133.212 130.714 132.754 129.923 131.688C129.607 131.272 129.06 131.308 128.667 131.556C125.843 133.364 122.254 133.384 119.144 132.394C115.631 131.275 112.77 128.912 110.411 126.137C107.926 123.213 105.78 119.893 103.853 116.583C102.02 113.444 101.177 109.969 101.51 106.325C101.737 103.791 99.6608 101.444 98.5502 99.2596C97.5682 97.3488 96.975 95.4082 96.6586 93.2829C96.1116 89.6229 95.8611 85.9069 95.7919 82.204C96.9321 82.7585 98.1811 83.0984 99.4103 83.1743C103.787 83.4548 107.636 80.8047 110.608 77.7883C111.554 79.0622 113.166 79.8312 114.774 79.6463C115.785 79.5209 116.669 79.0391 117.361 78.3428C118.372 80.6232 120.837 82.2898 123.204 82.9334C127.007 83.963 131.244 83.2733 134.652 81.3262C136.115 80.4912 137.427 79.4516 138.544 78.214C139.18 79.6892 140.34 80.9169 141.826 81.6133C143.115 82.2205 144.548 82.3096 145.903 82.006C145.089 83.8046 144.535 85.732 145.046 87.6626C145.468 89.2863 146.532 90.6757 147.982 91.3127C145.787 93.8835 145.165 97.5864 146.664 100.728C147.073 101.593 147.633 102.408 148.305 103.091C148.958 103.764 149.851 104.622 150.856 104.626C151.861 104.632 152.454 103.811 152.836 102.976C153.36 101.857 153.789 100.685 154.211 99.517C154.952 97.4577 155.578 95.362 156.102 93.2367C157.055 91.2368 159.002 89.778 161.197 89.4216C163.543 89.0355 165.923 90.0817 167.409 91.91C169.175 94.0881 169.156 97.0121 168.48 99.6127C167.801 102.213 166.424 104.679 164.235 106.299C161.948 107.995 158.864 108.563 156.194 107.477Z" fill="#223549"/>
<path d="M388.511 162.72C386.411 164.037 383.769 163.737 381.432 163.433C379.102 163.129 376.818 162.506 374.887 161.129C374.465 160.826 374.508 160.248 374.762 159.872C376.116 157.856 377.471 155.836 378.822 153.819C379.161 152.503 380.229 151.803 381.521 151.687C382.793 151.575 384.25 151.681 385.472 152.027C387.749 152.664 389.117 154.803 390.03 156.862C390.996 159.024 390.593 161.41 388.511 162.72Z" fill="white"/>
<path d="M410.701 104.668C410.685 104.889 410.658 105.107 410.635 105.334C410.582 105.773 410.517 106.216 410.444 106.651C410.378 107.074 410.302 107.496 410.217 107.919C410.18 108.11 410.141 108.298 410.098 108.483C409.996 108.994 409.877 109.499 409.749 110.001C408.197 112.81 406.644 115.621 405.096 118.43C404.776 119.007 404.453 119.598 404.133 120.179C403.372 121.535 402.624 122.898 401.876 124.251C401.431 125.067 400.979 125.882 400.528 126.694C399.905 127.819 399.286 128.944 398.663 130.07C397.677 131.875 396.679 133.664 395.684 135.462C395.394 135.997 395.094 136.528 394.797 137.056C393.604 139.225 392.408 141.389 391.208 143.558C391.192 143.594 391.166 143.63 391.149 143.663L390.342 145.122L388.536 148.396L387.079 151.033L386.193 152.633L381.793 160.587L380.96 162.098L377.763 167.89L332.22 250.287C320.129 271.59 310.796 294.51 296.223 314.325C294.869 316.17 293.435 317.962 291.896 319.658C291.481 320.123 291.059 320.575 290.631 321.014C289.59 322.087 288.502 323.117 287.319 324.008C286.492 324.638 285.612 325.206 284.679 325.668C282.455 326.777 280.109 327.08 277.736 326.978C277.232 326.955 276.721 326.912 276.207 326.853C274.889 326.721 273.58 326.476 272.288 326.199C271.474 325.777 270.647 325.361 269.833 324.925C258.688 319.15 247.595 313.282 236.559 307.312C236.019 307.021 235.471 306.728 234.931 306.431C221.116 298.959 207.374 291.335 193.708 283.58C182.111 276.989 170.567 270.306 159.083 263.514L157.544 262.604C151.988 259.313 146.441 255.997 140.905 252.657C137.257 250.455 133.605 248.241 129.967 246.02C129.961 246.013 126.988 244.185 126.988 244.185C126.543 243.245 126.151 242.291 125.789 241.363C125.716 241.192 125.654 241.007 125.581 240.829C124.76 238.66 124.362 236.416 124.434 234.202C124.507 231.822 125.093 229.499 126.24 227.301C126.253 227.255 126.263 227.212 126.283 227.166C126.29 227.153 126.299 227.143 126.299 227.123C127.054 225.73 127.815 224.344 128.563 222.945C129.242 221.707 129.908 220.463 130.577 219.225L166.474 150.977C164.995 154.155 163.367 157.27 161.736 160.376C158.341 166.847 154.94 173.323 151.546 179.794C148.264 186.038 144.991 192.282 141.716 198.526C150.393 182.256 158.961 165.93 167.394 149.531C167.44 149.449 167.483 149.36 167.526 149.274C170.027 144.409 172.525 139.541 174.996 134.66C175.662 133.363 176.315 132.06 176.977 130.766C179.58 125.624 182.184 120.469 184.764 115.314C200.665 83.5695 216.094 51.5803 231.062 19.3701C230.996 19.1919 231.003 18.9774 231.108 18.7497C231.85 17.2249 232.608 15.6771 233.451 14.1887C234.302 12.6937 235.191 11.3373 236.239 10.0865C236.852 9.3671 237.505 8.69385 238.22 8.08661C239.594 6.90182 241.14 5.94476 242.857 5.29461C245.364 4.34085 248.057 3.97452 250.716 3.95472C251.58 3.94812 252.44 3.96132 253.303 4.00752C255.225 4.12633 257.142 4.36395 259.034 4.74677C261.601 5.95466 264.158 7.18234 266.712 8.40673C267.365 8.71695 268.021 9.03707 268.667 9.3539C295.986 22.5614 322.834 36.7557 349.376 51.5242C365.359 60.4249 381.23 69.5369 397.025 78.7742C398.29 79.5069 399.556 80.2461 400.811 80.9953C400.917 81.0844 401.039 81.1867 401.167 81.2857C401.263 81.3682 401.332 81.4639 401.398 81.5761C403.174 82.8137 404.733 84.3549 406.022 86.1007C406.457 86.6915 406.859 87.302 407.234 87.9291C410.203 92.9718 411.278 98.8759 410.701 104.668Z" fill="white"/>
<path d="M435.038 182.888C423.985 182.307 412.932 181.726 401.875 181.145C406.779 173.525 412.072 166.159 417.746 159.097C419.46 156.961 421.21 154.856 422.99 152.777C423.668 151.985 422.607 150.948 421.78 151.483C411.739 157.981 401.701 164.479 391.66 170.974C389.139 172.608 386.614 174.238 384.093 175.872C380.962 169.152 378.382 162.186 376.388 155.044C376.154 154.209 374.704 154.348 374.675 155.232C374.352 164.997 375.36 174.73 377.67 184.221C377.683 184.274 377.703 184.324 377.73 184.37C369.339 189.224 360.952 194.076 352.562 198.93C351.903 199.313 352.2 200.488 352.951 200.538C363.421 201.264 373.979 199.64 383.737 195.779C382.393 204.792 380.373 213.699 377.66 222.398C377.37 223.329 378.451 224.121 379.163 223.329C384.429 217.474 389.425 211.382 394.154 205.082C400.65 208.557 407.26 211.805 413.986 214.811C414.797 215.174 415.585 214.194 415.074 213.474C410.773 207.432 407.257 200.881 404.578 193.967C414.794 190.845 425.01 187.726 435.226 184.604C436.053 184.35 435.924 182.934 435.038 182.888ZM380.481 219.124C382.801 211.049 384.564 202.825 385.734 194.498C385.827 193.851 385.161 193.267 384.531 193.531C375.574 197.31 365.863 199.152 356.157 198.904C363.859 194.449 371.564 189.99 379.265 185.535C379.852 185.195 379.727 184.558 379.325 184.205C379.387 184.01 379.387 183.792 379.334 183.578C377.562 176.288 376.593 168.796 376.421 161.291C378.227 166.822 380.386 172.235 382.884 177.492C383.137 178.027 383.727 178.228 384.235 177.898C394.276 171.4 404.314 164.902 414.355 158.407C415.515 157.654 416.675 156.905 417.839 156.153C413.001 162.067 408.417 168.192 404.12 174.515C402.581 176.779 401.078 179.07 399.612 181.38C399.289 181.885 399.407 182.789 400.168 182.829C410.052 183.347 419.935 183.868 429.818 184.386C420.904 187.109 411.989 189.835 403.072 192.558C402.607 192.7 402.399 193.284 402.558 193.713C404.947 200.079 408.054 206.168 411.795 211.841C405.863 209.115 400.01 206.217 394.26 203.122C393.93 202.943 393.429 203.075 393.208 203.369C389.171 208.788 384.917 214.036 380.481 219.124Z" fill="#EB5C29"/>
<path d="M410.219 107.92C410.182 108.112 410.143 108.3 410.1 108.484C409.998 108.996 409.879 109.501 409.751 110.003C408.199 112.811 406.646 115.623 405.097 118.431C404.778 119.009 404.455 119.6 404.135 120.18C403.374 121.537 402.626 122.9 401.878 124.253C401.433 125.068 400.981 125.883 400.53 126.695C399.907 127.82 399.288 128.946 398.665 130.071C397.679 131.876 396.681 133.665 395.686 135.464C395.396 135.998 395.096 136.53 394.799 137.058C393.606 139.226 392.41 141.391 391.21 143.559C391.194 143.596 391.168 143.632 391.151 143.665L390.344 145.124L387.081 151.034L386.195 152.635L381.795 160.588L380.962 162.1L332.222 250.289C320.131 271.592 310.798 294.512 296.225 314.326C294.871 316.171 293.437 317.963 291.898 319.66C291.483 320.125 291.061 320.577 290.633 321.016C289.592 322.089 288.504 323.118 287.321 324.009C243.399 302.033 185.985 273.476 185.985 273.476C185.985 273.476 179.114 220.128 180.914 217.306C182.716 214.491 229.202 123.015 233.74 116.253C238.268 109.484 276.686 37.4998 277.698 37.0345C278.71 36.5691 297.26 46.9979 334.09 66.3999C353.952 76.8781 385.443 94.1944 410.219 107.92Z" fill="white"/>
<path d="M235.747 201.656C235.678 201.217 235.25 200.761 234.762 200.867C233.266 201.19 231.766 201.514 230.27 201.834C229.815 201.933 229.403 202.309 229.482 202.821C229.552 203.26 229.98 203.715 230.468 203.609C231.964 203.286 233.463 202.963 234.96 202.643C235.411 202.544 235.826 202.167 235.747 201.656Z" fill="#223549"/>
<path d="M241.269 201.309C252.418 198.85 263.695 197.012 275.044 195.797C276.185 195.675 275.993 193.9 274.85 194.022C263.5 195.236 252.223 197.074 241.075 199.533C239.964 199.777 240.145 201.556 241.269 201.309Z" fill="#223549"/>
<path d="M278.693 201.472C279.804 201.188 279.155 199.525 278.054 199.805C266.016 202.861 253.892 205.561 241.692 207.884C238.208 208.547 234.715 209.181 231.222 209.785C230.098 209.98 230.283 211.755 231.416 211.561C243.867 209.409 256.248 206.878 268.543 203.967C271.934 203.161 275.319 202.33 278.693 201.472Z" fill="#223549"/>
<path d="M234.092 218.224C238.581 217.524 243.072 216.828 247.561 216.128C248.691 215.953 248.503 214.174 247.366 214.352C242.878 215.052 238.386 215.748 233.898 216.448C232.767 216.623 232.955 218.402 234.092 218.224Z" fill="#223549"/>
<path d="M277.591 209.136C269.375 210.878 261.1 212.33 252.779 213.489C251.645 213.647 251.833 215.423 252.973 215.264C261.291 214.106 269.569 212.654 277.785 210.911C278.899 210.674 278.718 208.895 277.591 209.136Z" fill="#223549"/>
<path d="M282.28 218.986C283.381 218.725 283.203 216.946 282.086 217.21C269.81 220.128 257.426 222.57 244.959 224.514C241.41 225.068 237.857 225.58 234.298 226.055C233.161 226.207 233.352 227.982 234.492 227.83C246.999 226.16 259.436 224.005 271.774 221.359C275.287 220.609 278.787 219.814 282.28 218.986Z" fill="#223549"/>
<path d="M285.464 267.845C286.574 267.604 286.39 265.826 285.269 266.07C275.389 268.225 265.453 270.116 255.472 271.74C252.628 272.202 249.777 272.644 246.926 273.063C245.793 273.231 245.984 275.007 247.121 274.839C257.126 273.367 267.091 271.631 277.001 269.624C279.825 269.053 282.646 268.459 285.464 267.845Z" fill="#223549"/>
<path d="M256.885 280.752C256.836 280.319 256.371 279.847 255.9 279.963C253.349 280.577 250.798 281.191 248.251 281.801C247.783 281.913 247.404 282.267 247.463 282.788C247.513 283.22 247.977 283.692 248.449 283.577C250.999 282.963 253.55 282.349 256.097 281.738C256.565 281.626 256.944 281.276 256.885 280.752Z" fill="#223549"/>
<path d="M261.564 281.113C270.58 279.183 279.594 277.252 288.61 275.321C289.72 275.084 289.539 273.305 288.415 273.546C279.399 275.476 270.386 277.407 261.37 279.338C260.259 279.575 260.44 281.354 261.564 281.113Z" fill="#223549"/>
<path d="M290.758 281.452C289.879 282.251 288.814 282.657 287.684 282.97C286.375 283.33 285.044 283.617 283.719 283.927C281.01 284.561 278.298 285.175 275.58 285.762C270.096 286.954 264.589 288.053 259.069 289.062C255.902 289.643 252.726 290.191 249.549 290.709C248.422 290.894 248.606 292.67 249.743 292.485C261.159 290.617 272.508 288.369 283.772 285.736C285.252 285.389 286.738 285.066 288.204 284.67C289.506 284.32 290.785 283.822 291.796 282.904C292.643 282.139 291.612 280.683 290.758 281.452Z" fill="#223549"/>
<path d="M274.996 156.714C273.094 164.242 269.225 171.103 263.534 176.357C257.727 181.72 250.359 185.165 242.68 186.693C234.959 188.238 226.875 187.802 219.345 185.492C215.549 184.33 211.798 182.677 208.506 180.41C205.102 178.053 202.067 174.667 201.724 170.331C201.708 170.106 201.747 169.918 201.82 169.75C200.838 168.496 199.968 167.162 199.193 165.763C194.919 158.008 194.003 148.625 196.29 140.091C198.62 131.428 203.899 123.771 210.747 118.144C217.839 112.313 226.75 108.59 235.895 108.026C244.75 107.488 253.713 109.953 261.016 115.082C267.528 119.659 272.283 126.352 274.577 134.038C276.765 141.361 276.877 149.305 274.996 156.714Z" fill="#EC663D"/>
<path d="M388.532 148.395L387.075 151.031L386.189 152.632L381.79 160.586L380.956 162.097L377.759 167.889C369.936 169.4 362.116 170.905 354.292 172.424C353.715 172.529 353.139 172.645 352.555 172.757C337.06 175.75 321.562 178.747 306.066 181.74C278.569 187.05 251.085 192.367 223.587 197.677C224.481 202.515 225.37 207.363 226.263 212.201C229.17 228.006 232.083 243.804 234.99 259.609C237.903 275.42 240.81 291.225 243.723 307.023C243.93 308.162 242.148 308.297 241.947 307.172C240.299 298.238 238.654 289.295 237.007 280.361C234.1 264.556 231.18 248.745 228.274 232.946C226.135 221.31 223.99 209.66 221.847 198.017C221.735 197.439 221.627 196.849 221.521 196.271C220.862 192.694 220.203 189.109 219.541 185.532C219.481 185.182 219.785 184.694 220.134 184.615C221.739 184.265 223.35 183.918 224.949 183.562C237.877 180.757 250.798 177.955 263.726 175.163C266.521 174.555 269.319 173.955 272.113 173.348C272.69 173.222 273.273 173.097 273.85 172.971C283.397 170.912 292.944 168.853 302.484 166.8C315.406 164.021 328.331 161.246 341.252 158.483C343.753 157.949 346.251 157.411 348.753 156.876C349.329 156.751 349.906 156.625 350.483 156.507C360.392 154.381 370.305 152.269 380.214 150.16C382.986 149.573 385.761 148.985 388.532 148.395Z" fill="#223549"/>
<path d="M230.751 190.732C230.349 190.393 229.944 190.066 229.538 189.732C230.049 188.973 230.557 188.211 231.068 187.452C231.335 187.053 231.341 186.521 230.946 186.195C230.6 185.911 229.96 185.914 229.69 186.317C229.176 187.082 228.662 187.851 228.148 188.617C227.706 188.27 227.265 187.924 226.816 187.587C226.444 187.31 225.861 187.31 225.561 187.709C225.284 188.082 225.284 188.67 225.683 188.967C226.177 189.336 226.668 189.713 227.156 190.092C226.612 190.904 226.068 191.716 225.521 192.528C225.254 192.927 225.248 193.458 225.643 193.785C225.989 194.069 226.629 194.066 226.899 193.663C227.449 192.845 227.996 192.026 228.547 191.208C228.619 191.267 228.692 191.323 228.764 191.383C229.255 191.788 229.726 192.221 230.227 192.617C230.517 192.848 230.847 192.947 231.206 192.812C231.404 192.736 231.578 192.607 231.7 192.439C231.99 192.043 232.023 191.472 231.707 191.076C231.486 190.795 231.097 190.647 230.751 190.732Z" fill="white"/>
<path d="M238.305 184.009C237.392 184.214 236.69 184.748 236.215 185.553C235.916 186.062 235.79 186.649 235.823 187.23C235.438 188.421 235.955 189.854 236.954 190.583C238.186 191.484 239.929 191.306 241.063 190.312C242.266 189.256 242.734 187.507 242.075 186.012C241.455 184.596 239.854 183.666 238.305 184.009ZM240.585 187.652C240.572 187.768 240.549 187.88 240.529 187.992C240.526 188.012 240.526 188.019 240.526 188.032C240.496 188.108 240.48 188.154 240.463 188.204C240.424 188.299 240.378 188.388 240.331 188.477C240.312 188.507 240.282 188.56 240.272 188.576C240.229 188.636 240.186 188.692 240.137 188.745C240.094 188.794 240.048 188.84 240.005 188.887C239.91 188.966 239.814 189.038 239.715 189.104C239.666 189.137 239.616 189.167 239.567 189.197C239.409 189.263 239.28 189.312 239.145 189.355C239.069 189.362 239.01 189.378 238.951 189.385C238.891 189.392 238.835 189.395 238.776 189.398C238.766 189.398 238.75 189.398 238.733 189.398C238.624 189.385 238.519 189.368 238.413 189.352C238.344 189.312 238.262 189.296 238.196 189.263C238.193 189.26 238.17 189.253 238.15 189.243C238.087 189.2 238.051 189.174 238.018 189.147C237.985 189.121 237.952 189.091 237.919 189.062C237.903 189.045 237.886 189.029 237.87 189.012C237.814 188.916 237.728 188.821 237.662 188.728C237.619 188.639 237.593 188.583 237.57 188.52C237.55 188.468 237.534 188.415 237.517 188.362C237.514 188.345 237.511 188.329 237.504 188.306C237.501 188.286 237.501 188.266 237.497 188.246C237.662 188.032 237.721 187.761 237.656 187.481C237.748 187.273 237.728 187.029 237.632 186.817C237.636 186.794 237.639 186.775 237.642 186.751C237.649 186.718 237.662 186.676 237.669 186.656C237.695 186.59 237.721 186.527 237.751 186.464C237.764 186.438 237.817 186.349 237.82 186.339C237.893 186.237 237.955 186.171 238.015 186.105C238.035 186.085 238.084 186.035 238.104 186.019C238.14 185.989 238.176 185.963 238.216 185.936C238.236 185.923 238.308 185.883 238.331 185.87C238.371 185.85 238.41 185.834 238.453 185.817C238.509 185.798 238.568 185.781 238.624 185.761C238.756 185.751 238.858 185.738 238.967 185.732C238.99 185.732 239.017 185.732 239.033 185.735C239.092 185.742 239.152 185.748 239.214 185.758C239.274 185.768 239.333 185.784 239.392 185.794C239.425 185.804 239.452 185.814 239.478 185.821C239.593 185.864 239.699 185.916 239.811 185.973C239.87 186.012 239.923 186.048 239.972 186.088C240.009 186.118 240.048 186.151 240.084 186.18C240.097 186.194 240.144 186.243 240.167 186.27C240.246 186.369 240.322 186.471 240.391 186.58C240.424 186.656 240.457 186.725 240.483 186.794C240.5 186.841 240.516 186.89 240.532 186.94C240.539 186.959 240.546 186.973 240.549 186.982C240.575 187.138 240.595 187.263 240.602 187.392C240.605 187.441 240.605 187.494 240.608 187.543C240.589 187.342 240.589 187.609 240.585 187.652Z" fill="white"/>
<path d="M252.63 185.971C252.532 184.637 252.36 183.307 252.12 181.991C252.037 181.535 251.638 181.119 251.134 181.202C249.101 181.539 247.078 181.911 245.061 182.327C244.589 182.423 244.217 182.803 244.273 183.314C244.234 183.489 244.227 183.67 244.283 183.845C244.639 184.954 244.995 186.06 245.351 187.169C245.525 187.71 245.664 188.284 245.881 188.812C246.02 189.149 246.26 189.403 246.606 189.519C246.923 189.624 247.203 189.552 247.516 189.479C248.656 189.215 249.8 188.954 250.94 188.69C251.576 188.545 252.278 188.429 252.561 187.746C252.789 187.198 252.673 186.545 252.63 185.971ZM250.488 186.974C250.08 187.07 249.671 187.162 249.259 187.258C248.851 187.354 248.442 187.446 248.03 187.542C247.816 187.591 247.602 187.641 247.387 187.69C247.325 187.492 247.259 187.294 247.196 187.096C247.054 186.657 246.913 186.218 246.774 185.779C246.577 185.162 246.379 184.545 246.178 183.928C247.615 183.641 249.058 183.373 250.502 183.129C250.581 183.641 250.656 184.152 250.716 184.667C250.762 185.08 250.805 185.496 250.838 185.911C250.844 185.994 250.851 186.535 250.874 186.868C250.742 186.895 250.6 186.948 250.488 186.974Z" fill="white"/>
<path d="M410.447 106.651C410.351 107.265 410.239 107.879 410.101 108.486C407.128 106.872 404.152 105.265 401.173 103.658C387.5 96.2819 373.818 88.9256 360.118 81.5958C346.482 74.3023 332.829 67.0286 319.162 59.7846C305.562 52.5769 291.939 45.3857 278.309 38.2242C276.72 41.003 275.135 43.7851 273.553 46.5639C260.905 68.814 248.475 91.1896 236.265 113.687C224.055 136.182 212.066 158.801 200.298 181.53C188.534 204.262 176.993 227.11 165.673 250.069C163.468 254.544 161.267 259.029 159.082 263.518L157.543 262.607C161.102 255.303 164.688 248.017 168.303 240.736C179.679 217.806 191.275 194.988 203.099 172.286C214.924 149.587 226.965 126.997 239.228 104.532C251.497 82.0744 263.986 59.7252 276.681 37.5048C276.911 37.1054 277.323 36.98 277.692 37.0394C277.827 36.5642 278.299 36.2012 278.859 36.4982C280.576 37.4025 282.299 38.3034 284.02 39.2077C297.702 46.4121 311.382 53.6363 325.038 60.8869C338.695 68.1375 352.344 75.4112 365.981 82.7146C379.677 90.0477 393.36 97.4105 407.026 104.793C408.163 105.414 409.306 106.024 410.447 106.651Z" fill="#EC663D"/>
<path d="M234.93 306.436C221.115 298.964 207.373 291.34 193.707 283.585C175.977 273.512 158.37 263.202 140.907 252.662C137.259 250.46 133.607 248.246 129.969 246.025C129.963 246.018 126.99 244.19 126.99 244.19C126.545 243.249 126.153 242.296 125.791 241.368C125.718 241.197 125.655 241.012 125.583 240.834C124.762 238.665 124.364 236.421 124.436 234.207C124.509 231.827 125.095 229.504 126.242 227.306C126.255 227.26 126.265 227.217 126.285 227.171C126.291 227.157 126.301 227.147 126.301 227.128C127.056 225.735 127.817 224.349 128.565 222.95C131.037 218.418 133.492 213.871 135.941 209.323C146.611 189.495 157.094 169.565 167.396 149.533C167.442 149.45 167.485 149.361 167.528 149.275C181.233 145.714 194.949 142.15 208.662 138.596C209.1 138.483 209.617 138.929 209.644 139.371C210.56 155.235 212.438 171.017 214.732 186.73C216.521 198.996 218.548 211.224 220.581 223.458C220.278 223.458 219.981 223.464 219.678 223.464C216.366 223.494 212.89 223.458 209.805 224.851C202.071 230.052 203.939 244.213 202.957 252.853C201.791 263.163 207.334 261.942 215.589 262.991C215.938 263.037 216.218 263.037 216.307 263.414C216.403 263.793 216.195 264.407 216.136 264.777C215.968 265.783 215.796 266.793 215.631 267.806C215.269 269.975 214.906 272.139 214.544 274.308C214.432 274.981 215.233 275.463 215.803 275.196C220.314 273.1 224.361 270.176 227.812 266.618C228.049 267.998 228.286 269.387 228.523 270.767C230.576 282.667 232.699 294.561 234.93 306.436Z" fill="#223549"/>
<path d="M383.621 153.66C383.324 154.201 383.028 154.743 382.728 155.281C381.891 156.792 381.05 158.304 380.22 159.815C379.94 160.327 379.65 160.845 379.363 161.363C379.192 161.68 379.017 161.987 378.846 162.303C379.155 162.376 379.469 162.439 379.791 162.488C380.088 162.531 380.381 162.571 380.678 162.6L380.958 162.099L381.792 160.587L384.046 156.508L384.939 154.894C384.494 154.485 384.053 154.076 383.621 153.66ZM383.621 153.66C383.324 154.201 383.028 154.743 382.728 155.281C381.891 156.792 381.05 158.304 380.22 159.815C379.94 160.327 379.65 160.845 379.363 161.363C379.192 161.68 379.017 161.987 378.846 162.303C379.155 162.376 379.469 162.439 379.791 162.488C380.088 162.531 380.381 162.571 380.678 162.6L380.958 162.099L381.792 160.587L384.046 156.508L384.939 154.894C384.494 154.485 384.053 154.076 383.621 153.66Z" fill="#223549"/>
<path d="M379.001 151.512C378.721 152.017 378.441 152.528 378.164 153.043C377.38 154.465 376.596 155.894 375.818 157.323C375.557 157.812 375.284 158.3 375.017 158.789C374.856 159.086 374.691 159.379 374.529 159.676C374.819 159.749 375.119 159.808 375.416 159.855C375.696 159.891 375.969 159.931 376.246 159.96L376.507 159.485L377.284 158.056L379.4 154.205L380.234 152.68C379.822 152.291 379.407 151.904 379.001 151.512ZM379.001 151.512C378.721 152.017 378.441 152.528 378.164 153.043C377.38 154.465 376.596 155.894 375.818 157.323C375.557 157.812 375.284 158.3 375.017 158.789C374.856 159.086 374.691 159.379 374.529 159.676C374.819 159.749 375.119 159.808 375.416 159.855C375.696 159.891 375.969 159.931 376.246 159.96L376.507 159.485L377.284 158.056L379.4 154.205L380.234 152.68C379.822 152.291 379.407 151.904 379.001 151.512Z" fill="#223549"/>
<path d="M178.868 127.758C175.605 135.385 172.129 142.965 168.491 150.49C156.657 174.991 143.116 198.964 129.723 222.319C128.022 225.283 123.125 223.125 124.836 220.141C139.708 194.211 154.758 167.519 167.449 140.19C169.37 136.064 171.236 131.923 173.032 127.761C174.67 127.764 176.752 127.758 178.868 127.758Z" fill="white"/>
<path d="M407.236 87.9369C406.861 87.3131 406.459 86.6993 406.024 86.1085C404.735 84.3627 403.176 82.8215 401.4 81.5839C401.334 81.4717 401.265 81.376 401.169 81.2935C401.038 81.1912 400.919 81.0922 400.813 81.0031C399.558 80.2539 398.292 79.5147 397.027 78.782C381.235 69.5447 365.364 60.4295 349.378 51.532C322.836 36.7635 295.988 22.5725 268.669 9.36171C268.019 9.04489 267.367 8.72476 266.714 8.41454C264.157 7.18686 261.603 5.96247 259.036 4.75459C257.144 4.37506 255.226 4.13414 253.305 4.01533C252.442 3.96913 251.582 3.95593 250.718 3.96253C248.062 3.97903 245.37 4.34866 242.859 5.30242C241.142 5.95257 239.596 6.90964 238.222 8.09442C237.51 8.70166 236.854 9.37491 236.241 10.0944C235.193 11.3451 234.304 12.7015 233.476 14.1536C232.61 15.6849 231.855 17.2328 231.11 18.7542C231.005 18.9819 230.998 19.1931 231.064 19.3746C216.096 51.5848 200.667 83.574 184.766 115.319C182.186 120.474 179.582 125.629 176.979 130.771C176.32 132.061 175.664 133.365 174.998 134.665C172.477 139.628 169.94 144.589 167.396 149.536C157.094 169.565 146.608 189.495 135.941 209.326C133.492 213.874 131.037 218.421 128.565 222.953C127.817 224.352 127.056 225.738 126.301 227.131C126.301 227.147 126.288 227.16 126.285 227.174C126.268 227.22 126.255 227.263 126.242 227.309C125.095 229.507 124.505 231.827 124.436 234.21C124.364 236.424 124.762 238.668 125.583 240.837C125.655 241.015 125.718 241.2 125.791 241.371C126.153 242.299 126.545 243.252 126.99 244.193C126.99 244.193 129.963 246.021 129.969 246.028C133.607 248.249 137.255 250.463 140.907 252.665C158.37 263.205 175.977 273.515 193.707 283.588C207.907 291.653 222.189 299.564 236.558 307.32C247.594 313.29 258.687 319.161 269.832 324.933C270.646 325.369 271.473 325.784 272.287 326.207C273.576 326.487 274.884 326.732 276.205 326.86C276.716 326.92 277.227 326.963 277.734 326.986C280.107 327.088 282.454 326.784 284.678 325.676C286.949 324.544 288.863 322.841 290.626 321.022C291.055 320.58 291.477 320.128 291.892 319.666C293.431 317.969 294.864 316.177 296.219 314.333C310.795 294.515 320.127 271.598 332.215 250.295L379.769 164.261L380.678 162.608C380.382 162.578 380.088 162.535 379.792 162.496C379.472 162.449 379.156 162.383 378.846 162.311C379.017 161.994 379.192 161.687 379.363 161.37C379.65 160.852 379.94 160.334 380.22 159.822C381.054 158.311 381.891 156.799 382.728 155.288C383.025 154.753 383.321 154.212 383.621 153.668C384.056 154.083 384.494 154.496 384.936 154.905L386.191 152.644L387.078 151.044L388.261 148.902L389.164 147.265L390.34 145.133L391.148 143.674C391.164 143.638 391.191 143.602 391.207 143.569C391.702 142.674 392.199 141.777 392.687 140.886C392.99 140.345 393.287 139.803 393.59 139.262C393.995 138.529 394.391 137.803 394.796 137.071C395.093 136.539 395.389 136.011 395.682 135.477C395.91 135.067 396.141 134.648 396.365 134.239C396.681 133.675 396.994 133.101 397.31 132.53C397.762 131.714 398.213 130.899 398.658 130.084C399.281 128.959 399.901 127.833 400.523 126.708C400.754 126.292 400.988 125.873 401.219 125.451C401.44 125.058 401.657 124.659 401.871 124.266C402.043 123.956 402.211 123.645 402.382 123.338C402.965 122.296 403.542 121.243 404.129 120.197C404.448 119.612 404.771 119.025 405.091 118.447C406.643 115.639 408.195 112.827 409.744 110.019C410.136 108.494 410.433 106.936 410.631 105.352C410.654 105.124 410.677 104.907 410.697 104.686C411.277 98.8771 410.202 92.973 407.236 87.9369ZM379.4 154.202L377.284 158.054L376.506 159.483L376.246 159.958C375.966 159.928 375.692 159.885 375.415 159.852C375.119 159.806 374.822 159.747 374.529 159.674C374.262 160.162 374.002 160.638 373.731 161.119C369.213 169.363 364.685 177.614 360.161 185.871C341.752 219.451 323.331 253.031 304.915 286.601C302.853 290.376 300.78 294.142 298.717 297.917C298.591 298.145 298.489 298.34 298.371 298.541C296.331 301.577 294.192 304.547 291.753 307.267C290.201 308.986 288.55 310.666 286.606 311.897C284.741 313.088 282.618 313.63 280.43 313.623C278.707 313.61 277 313.326 275.312 312.97C274.683 312.65 274.057 312.316 273.427 311.986C249.901 299.69 226.582 286.974 203.507 273.806C198.508 270.954 193.529 268.08 188.563 265.186C176.211 258.008 163.942 250.698 151.739 243.269C147.715 240.817 143.701 238.351 139.697 235.87C139.322 235.055 138.995 234.239 138.699 233.464C137.199 229.596 137.196 225.339 139.246 221.665C139.282 221.593 139.318 221.524 139.335 221.451C142.657 215.309 145.969 209.158 149.254 202.993C153.113 195.759 156.946 188.515 160.746 181.261C166.493 170.291 172.181 159.294 177.806 148.258C179.76 144.437 181.705 140.602 183.642 136.77C184.802 134.49 185.943 132.209 187.089 129.919C198.205 107.817 209.09 85.5838 219.728 63.2248C226.457 49.08 233.091 34.8857 239.622 20.6452L239.659 20.5792C241.448 17.4374 243.676 14.6025 247.07 13.1339C251.569 11.1867 256.848 11.5267 261.55 12.4144C261.61 12.4276 261.669 12.4375 261.728 12.4441C275.573 19.0578 289.292 25.9322 302.885 33.0409C328.705 46.5223 354.123 60.8057 379.304 75.495C384.043 78.2573 388.765 81.0361 393.491 83.8215C393.55 83.9601 393.652 84.0822 393.807 84.1779C398.223 86.8874 401.09 91.5605 402.254 96.6264C403.246 100.966 402.985 105.425 401.934 109.692C400.649 112.042 399.36 114.388 398.075 116.728C397.785 117.253 397.498 117.787 397.208 118.322C396.72 119.197 396.233 120.084 395.752 120.966C395.419 121.56 395.099 122.164 394.766 122.758C394.476 123.299 394.173 123.847 393.873 124.388C393.583 124.919 393.29 125.454 392.993 125.989C392.904 126.157 392.815 126.322 392.72 126.493C392.44 126.995 392.166 127.487 391.893 127.995C391.553 128.609 391.22 129.223 390.888 129.833C390.542 130.464 390.192 131.094 389.853 131.721C389.592 132.19 389.335 132.655 389.082 133.13C388.802 133.635 388.521 134.143 388.248 134.648C387.872 135.328 387.506 136.005 387.131 136.685C386.851 137.189 386.57 137.698 386.297 138.203C385.766 139.156 385.252 140.107 384.728 141.061C384.461 141.543 384.194 142.031 383.928 142.533C383.608 143.11 383.285 143.694 382.972 144.272C382.692 144.783 382.408 145.295 382.135 145.806C381.743 146.516 381.364 147.216 380.975 147.919C380.708 148.407 380.434 148.895 380.167 149.377C379.775 150.087 379.396 150.793 379.001 151.509C379.406 151.902 379.821 152.288 380.23 152.677L379.4 154.202Z" fill="#223549"/>
<path d="M385.487 131.622C385.214 134.615 383.602 137.341 381.576 139.493C379.437 141.76 376.731 143.826 373.686 144.678C371.096 145.397 368.354 145.12 365.906 144.024C360.966 141.816 357.726 136.751 358.207 131.309C358.583 127.041 361.061 123.094 364.551 120.649C364.475 120.263 364.61 119.827 365.055 119.613C371.231 116.672 379.272 117.791 383.302 123.672C384.894 125.985 385.744 128.814 385.487 131.622Z" fill="#EC663D"/>
<path d="M401.637 130.55C401.439 131.748 401.103 132.929 400.645 134.055C400.18 135.18 399.307 136.233 399.046 137.417C398.766 138.668 399.112 139.959 399.149 141.216C399.185 142.348 399.053 143.503 398.447 144.483C398.15 144.958 397.735 145.269 397.366 145.675C396.997 146.09 396.96 146.661 396.842 147.18C396.552 148.437 396.13 149.661 395.57 150.823C394.858 152.292 393.586 154.051 391.945 154.259C392.047 154.849 392.123 155.437 392.152 156.034C392.241 157.694 392.086 159.427 391.559 161.017C390.999 162.697 389.104 162.743 387.987 161.559C387.338 160.869 386.833 160.017 386.27 159.262C385.723 158.536 385.159 157.823 384.583 157.126C383.297 155.579 381.936 154.103 380.506 152.691C380.16 152.351 380.167 151.905 380.351 151.566C379.214 150.549 378.212 149.269 377.761 147.863C377.141 145.945 378.041 144.345 379.943 143.767C380.846 143.493 381.748 143.45 382.635 143.569C381.053 141.407 379.343 139.318 377.863 137.087C377.211 136.104 376.637 135.051 376.347 133.903C376.09 132.866 375.942 131.391 376.697 130.517C377.379 129.731 378.789 129.54 379.765 129.464C380.506 129.404 381.238 129.451 381.963 129.583C381.643 128.606 381.254 127.665 380.994 126.672C380.691 125.517 380.799 124.154 381.762 123.332C383.706 121.672 386.599 123.708 388.188 124.962C390.073 126.457 391.641 128.296 393.444 129.88C393.902 130.279 394.37 130.659 394.864 131.015C394.901 131.038 395.151 131.216 395.352 131.355C395.398 131.17 395.435 131.005 395.464 130.83C395.599 130.038 395.576 129.246 395.428 128.48C394.838 127.236 394.09 126.075 393.194 125.028C392.314 123.992 391.269 123.16 390.228 122.296C388.409 120.778 386.642 118.705 387.137 116.154C387.588 113.814 389.971 112.742 392.159 113.303C394.429 113.88 396.413 115.619 397.926 117.345C401.053 120.93 402.427 125.847 401.637 130.55Z" fill="white"/>
<path d="M402.385 123.323C402.125 122.644 401.821 121.983 401.488 121.337C401.169 120.723 400.823 120.129 400.447 119.551C400.091 119.003 399.716 118.469 399.323 117.957C399.317 117.944 399.307 117.927 399.294 117.914C398.035 116.271 396.555 114.753 394.825 113.598C393.19 112.502 391.141 111.561 389.154 112.277C387.621 112.825 386.662 114.284 386.336 115.832C385.944 117.677 386.603 119.521 387.644 121.033C388.976 122.957 390.907 124.313 392.472 126.023C392.924 126.518 393.359 127.082 393.701 127.683C393.968 128.142 394.189 128.63 394.331 129.128C394.021 128.812 393.711 128.508 393.398 128.211C392.083 126.931 390.699 125.723 389.302 124.538C387.292 122.835 384.355 120.162 381.557 121.818C380.338 122.544 379.709 123.957 379.692 125.336C379.679 126.475 380.078 127.534 380.661 128.485C379.722 128.307 378.746 128.336 377.771 128.663C373.164 130.224 375.547 136.801 377.949 139.26L378.503 139.831C379.369 140.725 380.226 141.623 381.129 142.481C380.332 142.465 379.537 142.607 378.812 142.976C377.435 143.679 376.482 145.138 376.328 146.672C376.127 148.762 377.385 150.25 378.812 151.596C379.043 151.811 379.27 152.032 379.501 152.247C379.943 152.662 380.381 153.075 380.819 153.491L382.727 155.283L384.042 156.514L384.494 156.936C385.331 157.722 386.461 156.336 385.627 155.557C385.397 155.342 385.163 155.121 384.932 154.903C384.494 154.494 384.052 154.082 383.617 153.666C382.988 153.082 382.362 152.494 381.739 151.903C381.666 151.837 381.59 151.771 381.518 151.702C381.179 151.385 380.786 151.052 380.388 150.715C379.514 149.96 378.621 149.121 378.249 148.115C377.827 146.989 378.232 145.62 379.158 144.864C380.394 143.851 382.184 144.257 383.469 144.94C383.535 144.976 383.601 145.012 383.66 145.052C384.171 145.333 384.659 145.673 385.13 146.039C385.772 146.54 386.372 147.092 386.962 147.633C387.097 147.752 387.229 147.877 387.361 147.996C387.677 148.283 387.98 148.587 388.257 148.894C389.025 149.722 389.678 150.636 390.129 151.692C390.735 153.108 391.016 154.626 391.052 156.164C391.088 157.6 390.963 159.246 390.432 160.593C389.879 162.015 388.389 162.428 386.995 162.57C384.902 162.791 382.774 162.837 380.678 162.606C380.381 162.576 380.088 162.533 379.791 162.494C379.471 162.448 379.155 162.382 378.845 162.309C378.559 162.821 378.282 163.325 377.995 163.84C378.572 164.012 379.162 164.151 379.765 164.263C380.084 164.322 380.417 164.375 380.75 164.418C383.805 164.804 389.107 165.121 391.342 162.523C392.502 161.177 392.719 158.976 392.798 157.273C392.841 156.421 392.815 155.57 392.723 154.725C395.623 154.2 397.705 151.398 397.877 148.511C397.936 147.577 397.834 146.676 397.62 145.814C399.683 144.333 400.592 141.666 400.329 139.178C400.256 138.488 400.108 137.821 399.89 137.171C402.108 135.207 403.35 132.208 403.449 129.26C403.525 127.211 403.116 125.211 402.385 123.323ZM392.416 152.956C392.334 152.61 392.238 152.266 392.126 151.92C391.526 150.121 390.478 148.587 389.16 147.253L389.042 147.135C388.663 146.758 388.264 146.379 387.858 146.003C387.275 145.468 386.662 144.95 386.026 144.478C385.552 144.121 385.057 143.788 384.553 143.501C384.51 143.471 384.471 143.448 384.428 143.425C384.207 143.3 383.983 143.187 383.746 143.079C383.821 142.758 383.733 142.418 383.459 142.184C381.716 140.702 380.22 138.986 378.667 137.303C377.257 135.772 375.553 131.165 378.506 130.297C380.945 129.587 383.284 131.458 384.902 133.046C385.828 133.95 386.679 134.934 387.572 135.874C387.858 136.178 388.148 136.475 388.445 136.768C388.873 137.198 389.312 137.613 389.753 138.029C390.152 138.399 390.551 138.768 390.943 139.141C391.098 139.283 391.253 139.432 391.408 139.577C391.836 139.999 392.271 140.422 392.686 140.867C394.196 142.481 395.511 144.313 395.962 146.494C396.506 149.121 395.3 152.448 392.416 152.956ZM396.993 144.026C396.189 142.247 394.937 140.643 393.586 139.247C393.527 139.181 393.467 139.122 393.408 139.062C393.039 138.693 392.67 138.33 392.291 137.973C391.757 137.462 391.21 136.96 390.673 136.448C390.228 136.033 389.793 135.613 389.364 135.181C389.305 135.122 389.246 135.062 389.187 135.003C388.092 133.884 387.081 132.686 385.96 131.59C385.153 130.805 384.214 130.043 383.189 129.452C383.265 129.224 383.235 128.963 383.024 128.709C382.269 127.812 381.538 126.762 381.465 125.548C381.412 124.63 381.815 123.591 382.714 123.231C383.785 122.802 385.014 123.475 385.881 124.069C386.939 124.795 387.895 125.683 388.87 126.515C390.099 127.574 391.319 128.647 392.479 129.782C392.917 130.211 393.345 130.647 393.764 131.092C393.942 131.284 394.113 131.472 394.288 131.663C394.341 131.716 394.393 131.775 394.443 131.828C394.7 132.115 394.947 132.406 395.197 132.709C395.3 132.828 395.398 132.947 395.494 133.072C395.797 133.442 396.087 133.821 396.361 134.214C396.895 134.953 397.366 135.726 397.738 136.541C397.976 137.059 398.177 137.587 398.331 138.141C398.345 138.178 398.348 138.214 398.354 138.247C398.885 140.27 398.526 142.593 396.993 144.026ZM399.159 135.376C398.641 134.363 397.999 133.412 397.31 132.511C396.964 132.066 396.608 131.63 396.252 131.208C396.275 131.046 396.295 130.881 396.298 130.719C396.364 129.689 396.13 128.69 395.705 127.742C395.431 127.135 395.082 126.544 394.677 125.993C394.041 125.096 393.279 124.28 392.518 123.558C390.383 121.541 386.718 118.581 388.412 115.225C390.267 111.535 395.112 115.819 396.727 117.601C397.303 118.238 397.85 118.918 398.361 119.624C398.747 120.158 399.109 120.713 399.442 121.284C399.811 121.908 400.151 122.564 400.434 123.231C400.75 123.944 401.017 124.683 401.218 125.432C401.396 126.105 401.535 126.789 401.61 127.482C401.933 130.343 401.113 133.336 399.159 135.376Z" fill="#223549"/>
<path d="M152.778 234.836C152.646 236.895 150.846 238.539 148.955 239.08C146.335 239.836 143.563 238.945 140.973 238.45C138.251 237.938 135.506 237.526 132.748 237.235C130.958 237.044 128.856 236.635 126.994 236.985C129.294 238.503 131.95 239.407 134.537 240.331C137.585 241.413 140.726 242.367 143.708 243.605C144.855 244.08 145.748 245.047 145.544 246.367C145.343 247.657 144.295 248.539 143.105 248.931C140.176 249.902 136.953 249.222 134.069 248.436C133.618 248.311 133.166 248.186 132.715 248.057C132.487 247.997 131.901 247.707 131.67 247.77C131.64 247.783 131.617 247.806 131.594 247.829C131.578 247.935 131.551 248.044 131.535 248.149C131.416 248.773 131.304 249.4 131.189 250.024C130.915 251.489 130.642 252.958 130.375 254.423C130.358 254.519 130.322 254.608 130.279 254.684C129.834 257.024 129.386 259.357 128.941 261.697C128.52 263.918 128.085 266.162 127.462 268.34C127.669 268.505 127.781 268.769 127.692 269.119C127.182 271.089 126.391 272.927 125.274 274.63C124.437 275.911 122.818 278.393 120.976 277.406C120.96 277.399 120.947 277.389 120.933 277.376C120.512 277.561 120.083 277.723 119.645 277.841C117.018 278.561 114.27 278.336 111.591 278.138C110.971 278.092 110.355 278.043 109.735 277.99C107.59 277.805 105.451 277.581 103.309 277.3C97.8059 276.597 92.3354 275.591 86.9408 274.307C85.8368 274.04 86.0905 272.294 87.1912 272.531C88.1304 268.007 89.8177 263.657 92.2201 259.703C93.4262 257.726 94.7708 255.571 96.4581 253.977C97.3314 253.156 98.5012 253.133 99.6382 252.994C100.287 252.918 100.933 252.832 101.589 252.756C101.625 252.733 101.655 252.71 101.695 252.69C102.39 252.357 103.121 252.126 103.863 251.921C105.119 251.575 106.4 251.321 107.607 250.819C109.353 250.1 110.668 248.707 111.528 247.044C113.324 243.562 113.239 239.387 113.525 235.572C113.852 231.285 114.227 227.001 114.662 222.721C114.853 220.833 115.025 218.922 115.733 217.137C116.346 215.576 117.345 214.16 118.528 212.975C119.276 212.233 120.087 211.576 120.94 210.982C120.947 210.725 121.036 210.47 121.243 210.286C122.921 208.81 124.786 207.583 126.783 206.619C127.65 206.19 128.543 205.817 129.459 205.487C130.464 205.131 131.499 204.827 132.543 204.589C136.234 203.745 140.159 203.702 143.85 204.573C145.663 204.995 147.564 205.741 148.362 207.566C149.057 209.16 148.48 210.972 146.918 211.758C145.35 212.543 143.501 212.223 141.83 212.104C139.648 211.956 137.431 212.061 135.285 212.527C131.832 213.269 128.487 215.134 126.417 218.045C131.94 218.134 137.431 218.853 142.769 220.295C145.307 220.978 147.841 221.8 150.023 223.318C151.005 223.998 151.973 224.992 152.181 226.216C152.277 226.8 152.181 227.378 151.901 227.899C151.703 228.275 151.1 228.774 151.169 229.216C151.242 229.615 150.949 229.995 150.606 230.143C150.464 230.209 150.319 230.269 150.177 230.335C151.634 231.45 152.896 232.882 152.778 234.836Z" fill="white"/>
<path d="M151.219 230.806C151.875 230.434 152.452 229.909 152.877 229.259C153.773 227.863 153.833 226.057 153.15 224.569C152.996 224.229 152.6 224.061 152.247 224.104C145.343 219.596 137.187 217.064 128.949 216.827C131.628 214.074 135.569 212.569 139.392 212.926C140.812 213.055 142.206 213.421 143.63 213.5C146.681 213.655 149.351 211.583 149.97 209.236C150.428 207.507 149.773 205.639 147.341 204.401C143.442 202.431 137.504 201.824 133.206 202.56C128.609 203.342 124.648 205.787 121.128 208.758C119.23 210.362 117.306 212.061 115.872 214.101C114.373 216.239 113.954 218.596 113.733 221.143C113.401 224.922 113.134 228.717 112.722 232.49C112.33 236.074 112.656 239.876 111.763 243.397C111.117 245.968 109.654 248.453 107.38 249.789C106.915 249.228 106.332 248.789 105.686 248.483C105.613 248.327 105.478 248.189 105.257 248.103C98.2414 245.304 91.0507 242.928 83.7447 241.017C82.5946 240.38 81.1973 240.176 79.889 240.394C77.3779 240.819 75.3775 242.611 73.7067 244.423C70.0356 248.41 67.4915 253.294 65.5109 258.307C64.2092 261.598 62.8449 264.961 62.4791 268.512C62.255 270.723 62.6966 272.898 63.3128 275.016C63.8895 277 64.3542 279.29 65.7053 280.907C67.0136 282.468 68.9547 283.227 70.843 283.825C75.4764 285.29 80.1823 286.663 84.9574 287.557C87.7355 288.075 90.5432 288.399 93.3707 288.455C93.5915 288.465 93.7662 288.399 93.8947 288.293C94.8043 288.323 95.7138 288.24 96.6069 288.072C101.922 287.062 105.557 282.868 108.668 278.706C110.346 278.937 112.03 279.145 113.717 279.303C116.801 279.59 120.031 279.508 122.878 278.148C125.689 276.818 127.462 274.478 128.332 271.518C129.344 268.083 129.894 264.469 130.626 260.961L133.094 249.116C134.04 249.311 134.979 249.522 135.925 249.727C137.474 250.063 139.039 250.374 140.624 250.532C142.045 250.667 143.567 250.644 144.866 249.984C146.075 249.367 147.024 248.146 147.146 246.776C147.268 245.37 146.385 244.222 145.281 243.46C143.963 242.562 142.371 241.978 140.911 241.357C139.283 240.671 137.625 240.044 135.948 239.476C133.681 238.717 131.377 238.08 129.044 237.559C132.959 237.555 136.874 237.892 140.723 238.595C144.586 239.305 151.14 241.951 153.361 237.011C154.422 234.628 153.384 231.998 151.219 230.806ZM75.9015 283.465C74.5273 283.069 73.1531 282.663 71.7822 282.244C70.6716 281.907 69.5709 281.548 68.5592 280.97C65.8602 279.419 65.0726 275.663 64.6145 272.845C63.9456 268.792 64.9243 264.984 66.3084 261.185C67.9529 256.67 69.9532 252.172 72.8235 248.288C74.3131 246.275 76.0597 244.11 78.2644 242.856C79.5694 242.113 81.3522 241.819 82.6935 242.463C82.7923 242.565 82.9274 242.638 83.0889 242.687C83.9622 242.918 84.8157 243.146 85.6692 243.384C90.8365 244.806 95.9247 246.466 100.937 248.344C99.2663 248.945 97.8361 250.113 96.5904 251.383C96.3729 251.601 96.1686 251.822 95.9643 252.04C95.6545 252.377 95.3546 252.717 95.0679 253.067C91.8713 256.845 89.5842 261.33 87.7684 265.921C85.8011 270.884 83.4679 276.673 85.3232 282.016C85.89 283.653 86.8556 285.141 88.1672 286.244C84.0182 285.686 79.9286 284.633 75.9015 283.465ZM151.153 237.143C149.832 238.506 147.65 238.235 145.97 237.892C143.781 237.45 141.62 236.919 139.415 236.569C137.016 236.189 134.6 235.945 132.178 235.826C129.433 235.697 126.691 235.75 123.959 235.955C123.079 236.021 122.842 237.103 123.313 237.546C123.359 237.942 123.626 238.331 124.121 238.41C130.375 239.384 136.535 241.232 142.285 243.895C143.261 244.347 144.684 244.836 145.212 245.865C145.765 246.945 144.796 248.08 143.828 248.489C142.658 248.978 141.274 248.816 140.051 248.664C138.575 248.476 137.118 248.159 135.668 247.836C132.567 247.153 129.433 246.433 126.24 246.651C125.103 246.73 125.034 248.516 126.18 248.436C127.927 248.314 129.644 248.486 131.354 248.773C129.96 255.439 128.603 262.116 127.182 268.772C126.563 271.673 125.647 274.452 122.984 276.066C120.483 277.587 117.454 277.782 114.61 277.571C112.999 277.452 111.39 277.267 109.789 277.059C109.153 276.97 108.513 276.884 107.877 276.795C106.114 276.541 87.0731 273.403 86.9479 273.924C87.3697 272.152 87.9827 270.413 88.5725 268.805C90.217 264.291 92.2173 259.792 95.0877 255.908C95.7632 254.991 96.4916 254.05 97.2989 253.179C97.5033 252.961 99.385 253.172 99.7508 253.159C100.749 253.116 101.748 253.03 102.74 252.902C106.572 252.397 109.861 251.255 111.921 247.717C113.99 244.163 114.185 240.146 114.28 236.143C114.376 232.259 114.88 228.345 115.226 224.447C115.437 222.067 115.394 219.47 116.215 217.21C117.039 214.932 118.858 213.173 120.601 211.583C123.814 208.659 127.36 205.916 131.621 204.731C135.602 203.629 139.896 203.804 143.768 205.279C145.175 205.814 147.828 206.497 148.112 208.441C148.418 210.556 145.904 211.635 144.147 211.668C142.783 211.685 141.442 211.335 140.087 211.167C135.042 210.54 129.73 212.748 126.599 216.764C126.586 216.781 126.573 216.804 126.559 216.82C124.43 216.876 122.302 217.081 120.199 217.437C119.065 217.632 119.464 219.368 120.591 219.176C122.555 218.846 124.533 218.662 126.52 218.609C126.718 218.698 126.925 218.685 127.139 218.596C133.374 218.513 139.629 219.794 145.34 222.335C147.558 223.322 149.677 224.513 151.697 225.863C151.707 225.869 151.727 225.876 151.743 225.883C151.948 226.688 151.822 227.595 151.358 228.308C151.104 228.698 150.718 229.047 150.31 229.272C150.185 229.341 150.056 229.404 149.921 229.46C149.908 229.467 149.865 229.48 149.852 229.49C149.779 229.51 149.713 229.533 149.637 229.552C149.321 229.638 149.146 229.665 148.873 229.668C148.639 229.671 148.428 229.75 148.263 229.896C139.932 227.305 131.275 225.823 122.555 225.516C121.409 225.477 121.343 227.262 122.493 227.302C131.822 227.628 141.059 229.311 149.904 232.292C150.069 232.344 150.211 232.348 150.343 232.328C152.096 233.242 152.597 235.651 151.153 237.143Z" fill="#223549"/>
<path d="M110.937 99.6944C110.931 99.6515 110.921 99.6086 110.914 99.5657C110.894 99.4601 110.875 99.3545 110.848 99.2489C110.822 99.14 110.786 99.0377 110.749 98.9321C110.736 98.8957 110.73 98.8595 110.716 98.8231C110.713 98.8 110.71 98.7736 110.703 98.7505C110.637 98.4403 110.585 98.0707 110.311 97.8661C109.958 97.6021 109.487 97.5856 109.102 97.777C108.917 97.8364 108.749 97.942 108.614 98.0905C108.489 98.1796 108.38 98.2984 108.307 98.4469C108.248 98.5657 108.202 98.6878 108.159 98.8099C108.139 98.8396 108.113 98.8628 108.096 98.8958C107.612 99.9617 107.731 101.186 108.34 102.17C108.452 102.348 108.65 102.46 108.858 102.509C109.055 102.688 109.299 102.823 109.56 102.846C109.886 102.876 110.192 102.777 110.433 102.552C110.634 102.364 110.736 102.14 110.812 101.882C110.907 101.562 110.977 101.239 111 100.902C111.023 100.5 111.003 100.094 110.937 99.6944Z" fill="#223549"/>
<path d="M130.868 94.3107C130.789 93.6309 130.555 92.829 129.998 92.3867C129.253 91.7927 128.232 92.1392 127.896 92.9907C127.681 93.2811 127.596 93.6441 127.523 93.9906C127.395 94.6177 127.382 95.2909 127.474 95.9246C127.576 96.6011 127.764 97.2909 128.301 97.7529C129 98.3535 129.978 98.1159 130.4 97.3272C130.631 96.8915 130.73 96.3503 130.763 95.8454C130.888 95.3404 130.927 94.8256 130.868 94.3107Z" fill="#223549"/>
<path d="M134.761 82.9519C128.73 81.0674 121.757 81.7836 117.404 86.7768C116.646 87.6448 118.027 88.7768 118.781 87.9121C122.571 83.5657 128.786 82.9453 134.036 84.5855C135.12 84.9221 135.859 83.2951 134.761 82.9519Z" fill="#223549"/>
<path d="M130.431 111.27C127.732 111.27 125.096 110.462 122.815 108.907C119.816 106.861 117.79 103.769 117.111 100.198C116.435 96.627 117.187 93.0067 119.227 90.0035C121.27 87.0003 124.358 84.9706 127.923 84.2908C131.489 83.6109 135.104 84.3634 138.103 86.4095C141.102 88.4557 143.129 91.548 143.807 95.1188C144.486 98.6897 143.732 102.31 141.692 105.313C139.649 108.316 136.561 110.346 132.995 111.026C132.142 111.191 131.281 111.27 130.431 111.27ZM130.484 86.4326C129.782 86.4326 129.073 86.4986 128.368 86.6339C125.425 87.195 122.878 88.8682 121.194 91.3467C119.51 93.8251 118.887 96.8119 119.447 99.759C120.008 102.706 121.678 105.257 124.153 106.944C126.628 108.63 129.611 109.25 132.553 108.693C135.496 108.132 138.044 106.458 139.728 103.98C141.412 101.501 142.034 98.5148 141.474 95.5677C140.914 92.6206 139.243 90.0695 136.768 88.3831C134.883 87.0993 132.708 86.4326 130.484 86.4326Z" fill="#EC663D"/>
<path d="M105.704 119.352C100.83 119.352 95.9065 115.828 93.6853 110.264C92.354 106.927 92.1793 103.35 93.1877 100.195C94.2258 96.9538 96.3777 94.538 99.2514 93.3896C102.122 92.2411 105.348 92.5084 108.327 94.142C111.23 95.736 113.564 98.4488 114.895 101.785C117.673 108.752 115.175 116.323 109.326 118.663C108.152 119.128 106.93 119.352 105.704 119.352ZM102.906 95.0694C101.954 95.0694 101.021 95.2443 100.135 95.5974C97.9332 96.4786 96.269 98.3663 95.455 100.917C94.6114 103.551 94.7696 106.554 95.8933 109.379C98.1837 115.128 103.816 118.296 108.446 116.448C113.076 114.597 114.977 108.416 112.687 102.667C111.56 99.8415 109.609 97.5578 107.187 96.2278C105.783 95.4555 104.323 95.0694 102.906 95.0694Z" fill="#EC663D"/>
<path d="M110.203 93.0718C108.183 91.6197 105.843 90.6824 103.388 90.3128C102.201 90.1346 100.995 90.1115 99.799 90.2105C98.6258 90.3095 97.3142 90.4019 96.7112 91.5537C96.4871 91.9827 96.8331 92.5438 97.2417 92.6989C97.7393 92.887 98.1645 92.5933 98.3853 92.1675C98.3095 92.3128 98.7478 92.1511 98.8367 92.1345C99.0443 92.0982 99.252 92.0652 99.4629 92.0388C99.944 91.9761 100.428 91.9365 100.916 91.9299C101.898 91.9167 102.884 92.0091 103.849 92.1972C105.767 92.5702 107.583 93.3853 109.168 94.5239C110.097 95.1939 111.135 93.7418 110.203 93.0718Z" fill="#223549"/>
<path d="M118.353 107.663C118.102 106.788 117.39 106.012 116.735 105.402C116.698 105.356 116.665 105.306 116.629 105.257C116.567 105.174 116.487 105.105 116.402 105.049C116.567 104.478 116.735 103.907 116.899 103.336C117.034 102.874 116.58 102.385 116.151 102.319C115.624 102.24 115.271 102.603 115.136 103.069L114.105 106.62C113.808 107.636 113.307 108.837 113.775 109.88C114.22 110.877 115.298 111.253 116.3 110.893C116.751 110.732 117.163 110.428 117.469 110.042C117.506 110.029 117.542 110.026 117.578 110.009C118.498 109.613 118.597 108.511 118.353 107.663Z" fill="white"/>
<path d="M118.852 110.015C117.329 110.414 115.346 109.988 114.594 108.454C114.126 107.497 114.38 106.365 114.611 105.375C114.841 104.385 115.095 103.405 115.128 102.381C115.247 98.5796 113.266 94.8041 109.987 92.8471C109.008 92.2629 107.964 93.7117 108.949 94.2992C110.666 95.3223 111.961 96.8569 112.709 98.7149C113.517 100.725 113.421 102.688 112.933 104.758C112.439 106.853 112.287 109.008 114.021 110.576C115.375 111.8 117.389 112.233 119.142 111.771C120.246 111.487 119.963 109.721 118.852 110.015Z" fill="#223549"/>
<path d="M165.234 95.4493C160.986 95.5153 156.784 96.1391 152.691 97.2743C151.584 97.5813 152.233 99.2446 153.331 98.941C157.272 97.8486 161.342 97.2876 165.432 97.2248C166.575 97.2083 166.374 95.4328 165.234 95.4493Z" fill="#223549"/>
<path d="M65.7227 227.858C65.3239 228.227 64.9252 228.6 64.5264 228.97C64.4441 229.042 64.3485 229.089 64.2529 229.112C57.5466 225.749 50.7349 222.6 43.8342 219.67C42.7764 219.218 43.5014 217.587 44.5592 218.039C51.7203 221.079 58.7824 224.353 65.7227 227.858Z" fill="white"/>
<path d="M90.7958 205.127C90.3904 205.497 89.8039 205.985 89.1184 206.54C88.3341 196.801 88.0671 187.022 88.2912 177.253C88.3143 176.105 90.0807 176.389 90.051 177.521C89.9752 180.87 89.962 184.223 90.0049 187.573C90.0906 193.428 90.3509 199.279 90.7958 205.127Z" fill="white"/>
<path d="M379.989 114.437C378.266 116.289 375.547 116.827 373.441 115.292C372.841 114.86 372.354 114.295 371.978 113.658C371.661 113.668 371.342 113.507 371.194 113.111C370.258 110.583 371.434 107.583 373.754 106.299C375.946 105.084 378.641 105.91 380.207 107.768C381.854 109.715 381.709 112.586 379.989 114.437Z" fill="#EC663D"/>
<path d="M308.705 260.148C306.642 262.273 303.574 262.96 300.733 263.211C297.016 263.541 293.246 263.498 289.516 263.607C285.367 263.732 281.211 263.854 277.062 263.973C261.026 264.448 244.984 264.917 228.948 265.392C225.264 269.507 220.815 272.857 215.803 275.19C215.229 275.461 214.425 274.979 214.54 274.306C214.903 272.138 215.262 269.969 215.628 267.804C215.796 266.795 215.971 265.785 216.135 264.775C216.195 264.412 216.399 263.795 216.307 263.412C216.218 263.039 215.941 263.036 215.588 262.993C207.33 261.943 201.794 263.164 202.957 252.854C203.932 244.214 202.067 230.056 209.802 224.852C212.886 223.463 216.36 223.496 219.675 223.469C227.752 223.393 235.829 223.327 243.903 223.36C260.041 223.426 276.251 223.816 292.3 225.598C298.473 226.284 305.532 227.657 309.384 233.063C313.019 238.162 312.64 244.828 311.882 250.732C311.463 254.016 311.131 257.666 308.705 260.148Z" fill="white"/>
<path d="M308.281 295.535C307.229 291.063 306.195 286.588 305.173 282.106C301.143 264.397 297.363 246.629 293.837 228.811C291.002 214.458 288.327 200.072 285.825 185.654C285.219 182.179 284.626 178.7 284.036 175.218C283.845 174.08 285.618 173.898 285.809 175.02C286.386 178.456 286.975 181.885 287.575 185.314C288.715 191.891 289.892 198.459 291.105 205.023C294.387 222.785 297.916 240.5 301.703 258.17C304.217 269.885 306.834 281.581 309.572 293.254L308.281 295.535Z" fill="#223549"/>
<path d="M311.882 250.737C311.466 254.024 311.133 257.664 308.708 260.15C306.638 262.275 303.577 262.965 300.736 263.215C297.016 263.542 293.246 263.503 289.515 263.615C285.366 263.734 281.211 263.859 277.062 263.978C261.026 264.453 244.987 264.925 228.951 265.4C228.575 265.816 228.197 266.222 227.811 266.621C225.646 254.014 223.55 241.394 221.464 228.774C221.174 227.005 220.874 225.233 220.584 223.464C228.358 223.392 236.139 223.326 243.909 223.362C260.047 223.428 276.258 223.821 292.306 225.599C298.476 226.283 305.538 227.659 309.39 233.065C313.022 238.163 312.643 244.83 311.882 250.737Z" fill="#EC663D"/>
<path d="M355.959 100.659C354.476 96.0226 352.42 91.5937 349.859 87.4552C349.497 86.8678 348.581 87.0262 348.32 87.6136C346.346 92.0524 344.705 96.6233 343.38 101.296C342.603 101.59 342.725 102.831 343.532 102.996C343.819 103.131 344.194 103.121 344.491 102.946C348.07 102.587 351.646 102.227 355.224 101.871C355.821 101.808 356.131 101.197 355.959 100.659ZM349.26 89.9238C351.148 93.1877 352.703 96.6332 353.923 100.204C351.042 100.494 348.162 100.782 345.282 101.072C346.386 97.28 347.717 93.5574 349.26 89.9238Z" fill="#EC663D"/>
<path d="M37.4313 80.5164C35.0454 79.4241 32.6627 78.3317 30.2768 77.2393C29.2322 76.7608 28.5072 78.3911 29.5518 78.8696C31.9378 79.962 34.3204 81.0544 36.7063 82.1468C37.7509 82.6253 38.4759 80.995 37.4313 80.5164Z" fill="#EC663D"/>
<path d="M36.343 75.6705C35.9607 75.357 35.4071 75.4296 35.0874 75.7926C33.2749 77.8619 31.9896 80.3106 31.2383 82.9541C31.1065 83.4195 31.5546 83.9046 31.9864 83.9706C32.5103 84.0498 32.8695 83.6868 33.0014 83.2214C33.6539 80.9146 34.8699 78.7463 36.4649 76.9246C36.7846 76.5649 36.7088 75.9708 36.343 75.6705Z" fill="#EC663D"/>
<path d="M25.7188 61.8721C25.3167 60.4134 23.9161 59.3474 22.4101 59.3837C20.8514 59.42 19.52 60.7929 19.3816 62.3077C18.7324 63.377 18.9598 64.8489 19.9616 65.6937C21.1644 66.7135 22.9539 66.6409 24.2193 65.7894C25.5046 64.9314 26.1307 63.3704 25.7188 61.8721ZM24.0414 63.1823C24.0414 63.1889 24.015 63.2714 24.0084 63.3044C23.9952 63.3374 23.9853 63.3671 23.9853 63.3704C23.9458 63.4727 23.8898 63.5651 23.8469 63.6641C23.8107 63.7169 23.7843 63.7565 23.758 63.7961C23.6756 63.905 23.5833 63.9974 23.4976 64.0997C23.4416 64.1492 23.4053 64.1789 23.3658 64.2119C23.2702 64.2878 23.1681 64.3539 23.0626 64.4199C22.9901 64.4595 22.9308 64.4859 22.8715 64.5123C22.7726 64.5519 22.6705 64.5849 22.5716 64.6179C22.5452 64.6245 22.5156 64.6311 22.4991 64.6344C22.4398 64.6443 22.3772 64.6542 22.3178 64.6608C22.2684 64.6674 22.2157 64.6674 22.1663 64.6707C22.0081 64.6608 21.8927 64.6542 21.7774 64.6311C21.7774 64.6311 21.728 64.6212 21.6851 64.6113C21.6522 64.5981 21.5072 64.5519 21.4874 64.5453C21.4413 64.5255 21.3918 64.5057 21.3457 64.4826C21.3028 64.4628 21.2501 64.4265 21.2369 64.4199C21.2007 64.3935 21.1677 64.3703 21.1315 64.3406C21.0952 64.3109 20.914 64.1195 21.0425 64.2713C21.0095 64.2317 20.9766 64.1921 20.9469 64.1525C20.9272 64.1261 20.8645 64.0073 20.8744 64.037C20.8612 64.0106 20.8481 63.9842 20.8382 63.9545C20.8316 63.9347 20.8052 63.8324 20.7953 63.8093C20.792 63.7763 20.7855 63.7433 20.7855 63.74C20.7789 63.6938 20.7789 63.6443 20.7789 63.5981C20.7822 63.575 20.7822 63.542 20.7855 63.5255C20.7888 63.5189 20.792 63.4925 20.7953 63.4661C20.9667 63.3407 21.0886 63.1625 21.1348 62.9546C21.3457 62.6905 21.4215 62.3242 21.2798 62.014C21.3061 61.9579 21.3589 61.8721 21.3687 61.8556C21.3951 61.8193 21.4182 61.783 21.4478 61.75C21.4775 61.7104 21.5105 61.6741 21.5434 61.6378C21.5434 61.6378 21.5994 61.585 21.6291 61.5553C21.662 61.5289 21.7049 61.4926 21.7049 61.4926C21.7444 61.4629 21.784 61.4332 21.8268 61.4035C21.8763 61.3704 21.929 61.3374 21.9817 61.3077C22.0608 61.278 22.1069 61.2549 22.1531 61.2384C22.1827 61.2285 22.2355 61.212 22.2618 61.2021C22.3673 61.1823 22.4727 61.1691 22.5815 61.1592C22.6672 61.1724 22.7331 61.1757 22.7924 61.1856C22.8385 61.1955 22.888 61.2054 22.9341 61.2153C22.8978 61.2087 22.8847 61.2054 22.8715 61.2021C22.8945 61.2087 22.9275 61.2153 22.9473 61.2219C23.0626 61.2648 23.1681 61.3209 23.2768 61.377C23.3427 61.4266 23.402 61.4695 23.4581 61.5157C23.491 61.5454 23.5734 61.6246 23.5965 61.6411C23.6657 61.7203 23.7316 61.7995 23.7909 61.8853C23.8173 61.9249 23.8436 61.9678 23.87 62.0074C23.8964 62.0503 23.903 62.0668 23.9161 62.0965C23.9623 62.1955 23.9952 62.3011 24.0348 62.4034C24.0578 62.4892 24.071 62.5486 24.0776 62.608C24.0842 62.6575 24.0908 62.7037 24.0941 62.7532C24.0941 62.7532 24.0941 62.8192 24.0974 62.8621C24.0941 62.9051 24.0908 62.9612 24.0908 62.9612C24.0677 63.0371 24.0546 63.1097 24.0414 63.1823Z" fill="#EB5C29"/>
<path d="M22.8599 61.2057C22.8289 61.1989 22.822 61.1954 22.8599 61.2057V61.2057Z" fill="#223549"/>
<path d="M298.633 100.19C296.478 107.358 291.746 113.609 285.797 118.074C279.816 122.555 272.464 125.361 264.973 125.615C257.14 125.876 248.437 123.456 243.589 116.899C243.427 116.684 243.388 116.467 243.424 116.265C237.842 111.896 233.897 105.592 231.969 98.8037C230.002 91.9128 229.992 84.4906 232.216 77.6591C234.454 70.7749 239.127 64.9236 245.125 60.927C251.08 56.9535 258.234 54.7259 265.392 54.673C272.652 54.6136 279.737 56.8083 285.553 61.2009C291.337 65.5638 295.667 71.8078 298.017 78.6492C300.393 85.5764 300.755 93.1537 298.633 100.19Z" fill="white"/>
<path d="M323.669 102.125C323.543 104.993 322.528 107.643 319.839 108.96C317.641 110.032 315.001 109.923 312.622 109.841C310.305 109.752 307.949 109.56 305.656 109.923C306.974 114.887 307.86 119.953 308.259 125.078C308.312 125.702 307.636 126.329 307.01 125.989C306.189 125.543 305.412 125.019 304.693 124.418C301.757 121.966 299.832 118.524 296.883 116.091C295.225 114.715 293.347 113.989 291.202 113.752C288.522 113.448 285.774 113.53 283.082 113.471C271.87 113.214 260.656 112.966 249.445 112.715L215.956 111.966L207.51 111.775C204.936 111.722 202.32 111.781 199.759 111.478C197.548 111.217 195.35 110.554 193.59 109.138C192.058 107.907 190.964 106.214 190.225 104.412C188.545 100.287 188.466 95.5838 188.393 91.1912C188.377 89.9041 188.377 88.6138 188.406 87.3234C188.271 86.0627 188.139 84.7987 188.008 83.538C187.658 80.218 186.838 76.3897 188.561 73.304C191.395 68.2216 198.174 67.6243 203.331 67.0963C218.899 65.5121 234.549 64.7564 250.193 64.829C265.82 64.895 281.447 65.7762 296.979 67.4824C300.841 67.9048 304.7 68.38 308.552 68.9114C311.792 69.3503 315.496 69.5054 318.264 71.4361C320.801 73.205 321.8 76.3039 322.317 79.2147C322.983 82.9341 323.286 86.7557 323.514 90.5312C323.741 94.3793 323.847 98.2669 323.669 102.125Z" fill="#223549"/>
<path d="M306.447 96.2144L291.456 78.7924C291.081 78.3568 290.441 78.2776 290.042 78.7462C284.981 84.7197 279.586 90.406 273.885 95.7688C268.012 89.5941 262.136 83.4194 256.264 77.2446C255.921 76.8849 255.295 77.0433 255.008 77.3667C249.512 83.5844 244.015 89.802 238.518 96.0229C232.711 90.6271 227.541 84.5876 223.102 78.0169C222.683 77.3997 221.889 77.6308 221.563 78.1753C217.223 85.3962 212.883 92.6171 208.542 99.8347C207.952 100.818 209.587 101.534 210.17 100.561C214.257 93.7623 218.34 86.9671 222.426 80.1686C226.938 86.6668 232.168 92.6534 238.007 97.9899C238.373 98.3232 238.956 98.2143 239.263 97.8678C244.75 91.66 250.237 85.4556 255.724 79.2479C261.58 85.4028 267.432 91.5577 273.288 97.7127C273.529 97.9668 274.115 97.9932 274.376 97.749C280.14 92.3663 285.603 86.6701 290.735 80.6769L303.834 95.8975C303.346 95.9107 302.855 95.9272 302.368 95.9404C301.221 95.9734 301.422 97.749 302.562 97.716C303.649 97.683 304.737 97.6533 305.824 97.6203C306.464 97.6038 306.869 96.7061 306.447 96.2144Z" fill="white"/>
<path d="M353.124 273.629C354.179 273.411 355.168 272.995 355.28 271.78C355.385 270.629 355.069 269.332 354.947 268.19C354.426 263.302 353.905 258.414 353.385 253.524C353.698 252.649 352.907 251.504 351.968 252.128C351.955 252.137 351.938 252.147 351.925 252.157C351.5 252.174 351.055 252.418 350.93 252.827C344.075 257.388 337.356 262.147 330.801 267.13C330.119 267.648 330.432 268.711 331.15 268.992C335.678 270.761 340.203 272.533 344.731 274.302C344.869 274.79 345.298 275.19 345.94 275.061C346.211 275.008 346.484 274.952 346.754 274.899C346.781 274.892 346.81 274.892 346.837 274.883C348.929 274.463 351.028 274.058 353.124 273.629ZM333.747 267.652C339.119 263.609 344.596 259.708 350.168 255.952C348.84 261.447 347.285 266.883 345.499 272.246C341.584 270.714 337.665 269.183 333.747 267.652Z" fill="#EB5C29"/>
<path d="M305.895 93.971C305.572 93.8951 305.256 93.8786 304.943 93.8852C304.791 93.7994 304.613 93.7598 304.435 93.7928C302.626 94.1295 301.087 95.6475 300.893 97.5188C300.712 99.2712 301.796 101.024 303.417 101.697C304.59 102.317 306.073 102.426 307.214 101.73C307.764 101.397 308.14 100.869 308.367 100.278C308.907 99.4857 309.194 98.5121 309.135 97.5485C309.023 95.74 307.596 94.3704 305.895 93.971Z" fill="#EC663D"/>
<path d="M290.965 76.5252C290.952 76.5252 290.938 76.5285 290.925 76.5285C290.487 76.4229 290.032 76.3899 289.597 76.4559C288.108 76.6902 287.013 77.9113 286.766 79.3799C286.648 80.0994 286.766 80.7891 287.056 81.3964C287.336 82.6538 288.332 83.6009 289.567 83.9639C290.932 84.3633 292.435 84.0102 293.403 82.9475C294.362 81.8947 294.593 80.2974 294.161 78.9674C293.716 77.6011 292.411 76.5648 290.965 76.5252Z" fill="#EC663D"/>
<path d="M255.889 74.5151C254.462 74.6537 253.157 75.492 252.429 76.723C251.645 78.043 251.832 79.8615 252.834 81.0232C252.91 81.1123 252.992 81.1981 253.078 81.2806C253.912 82.2739 255.286 82.769 256.558 82.6931C258.005 82.6073 259.277 81.6601 259.807 80.3169C260.335 78.9902 260.219 77.4721 259.491 76.2477C258.753 75.0002 257.306 74.3765 255.889 74.5151Z" fill="#EC663D"/>
<path d="M276.156 93.767C274.956 92.9782 273.355 92.9155 272.073 93.559C270.873 94.163 269.855 95.3016 269.792 96.7009C269.766 97.3048 269.904 97.8823 270.158 98.4005C270.273 98.6645 270.422 98.912 270.593 99.1397C270.633 99.1958 270.662 99.2321 270.692 99.2684C270.755 99.3542 270.817 99.4434 270.89 99.5226C271.786 100.509 273.292 101.037 274.551 100.42C274.59 100.4 274.623 100.371 274.66 100.351C276.139 99.9219 277.421 98.7371 277.685 97.1629C277.899 95.8692 277.24 94.4765 276.156 93.767Z" fill="#EC663D"/>
<path d="M242.058 95.5901C241.725 95.0621 241.267 94.6925 240.734 94.4648C240.236 94.1248 239.666 93.8971 239.05 93.8674C237.909 93.8113 236.828 94.3295 236.074 95.1578C235.177 95.8245 234.482 96.7848 234.357 97.8739C234.146 99.7286 235.566 101.243 237.263 101.705C237.794 101.851 238.364 101.884 238.924 101.821C239.162 101.867 239.405 101.897 239.656 101.897C240.641 101.897 241.551 101.356 242.124 100.57C243.027 99.3392 243.152 97.5868 242.464 96.2271C242.352 95.9961 242.21 95.7882 242.058 95.5901ZM239.976 96.501C239.959 96.4185 239.946 96.336 239.926 96.2568C239.9 96.1545 239.844 96.0654 239.771 95.9862C239.794 95.9928 239.814 95.9994 239.827 96.0027C239.923 96.0786 240.012 96.1545 240.101 96.2403C240.154 96.303 240.186 96.3426 240.219 96.3822C240.299 96.4812 240.371 96.5868 240.437 96.6957C240.453 96.7254 240.473 96.7551 240.49 96.7848C240.5 96.8013 240.509 96.8211 240.513 96.831C240.562 96.9498 240.615 97.0653 240.658 97.1875C240.476 96.9102 240.243 96.6792 239.976 96.501Z" fill="#EC663D"/>
<path d="M224.892 76.4523C224.655 76.2609 224.381 76.1124 224.091 76.0002C223.238 75.1454 221.969 74.69 220.769 74.9837C220.581 75.0299 220.4 75.0959 220.226 75.1718C219.632 75.2742 219.082 75.5514 218.65 76.0794C218.153 76.6867 217.975 77.4721 217.991 78.251C217.932 78.7724 217.978 79.307 218.156 79.8219C218.416 80.5743 218.924 81.1981 219.56 81.6469C219.629 81.7063 219.692 81.7723 219.764 81.8251C220.588 82.4093 221.593 82.67 222.592 82.4456C222.888 82.3796 223.165 82.2706 223.435 82.1419C223.933 82.0264 224.407 81.8053 224.796 81.472C225.502 80.8647 225.923 79.9704 225.956 79.0364C225.993 78.0629 225.67 77.0728 224.892 76.4523Z" fill="#EC663D"/>
<path d="M210.61 97.4219C209.008 96.5044 206.883 97.0193 205.657 98.3163C204.418 99.6264 204.368 101.768 205.354 103.234C205.851 103.97 206.636 104.491 207.509 104.646C207.924 104.719 208.346 104.705 208.755 104.626C210.337 104.649 211.951 103.706 212.439 102.151C213.003 100.359 212.248 98.3559 210.61 97.4219Z" fill="#EC663D"/>
<path d="M156.971 49.5436V30.1758L88.5078 40.0849V58.1014C93.1621 59.9031 107.515 63.5064 127.694 63.5064C147.872 63.5064 155.619 54.1978 156.971 49.5436Z" fill="#EC663D"/>
<path d="M189.851 16.9483L96.68 54.9519L49.3223 27.0826L114.182 0.902344L189.851 16.9483Z" fill="#223549"/>
</svg>
