<svg width="41" height="45" viewBox="0 0 41 45" fill="none" xmlns="http://www.w3.org/2000/svg">
<path d="M8.7694 12.3219C9.18582 12.4144 9.64852 12.4607 10.0649 12.5532L10.3888 18.0592C10.4351 18.4757 10.759 18.8458 11.2217 18.8458H13.7202C14.1366 18.8458 14.5068 18.5219 14.5531 18.0592L14.877 12.5532C15.3396 12.5069 15.7561 12.4144 16.1725 12.3219C16.4501 12.2756 16.6815 11.9517 16.6352 11.6741L16.3576 9.31434C16.1725 7.88 14.9695 6.76953 13.4889 6.76953H11.453C9.9724 6.76953 8.7694 7.88 8.58432 9.31434L8.30671 11.6741C8.26044 11.998 8.49178 12.2756 8.7694 12.3219Z" fill="black"/>
<path d="M12.4701 5.93634C13.9778 5.93634 15.2 4.71413 15.2 3.20645C15.2 1.69878 13.9778 0.476562 12.4701 0.476562C10.9624 0.476562 9.74023 1.69878 9.74023 3.20645C9.74023 4.71413 10.9624 5.93634 12.4701 5.93634Z" fill="black"/>
<path d="M24.7782 12.3219C25.1946 12.4144 25.6573 12.4607 26.0737 12.5532L26.3976 18.0592C26.4439 18.4757 26.7678 18.8458 27.2305 18.8458H29.729C30.1454 18.8458 30.5156 18.5219 30.5619 18.0592L30.8857 12.5532C31.3484 12.5069 31.7649 12.4144 32.1813 12.3219C32.4589 12.2756 32.6902 11.9517 32.644 11.6741L32.3664 9.31434C32.1813 7.88 30.9783 6.76953 29.4977 6.76953H27.4618C25.9812 6.76953 24.7782 7.88 24.5931 9.31434L24.3155 11.6741C24.2692 11.998 24.5006 12.2756 24.7782 12.3219Z" fill="black"/>
<path d="M28.4809 5.93634C29.9885 5.93634 31.2108 4.71413 31.2108 3.20645C31.2108 1.69878 29.9885 0.476562 28.4809 0.476562C26.9732 0.476562 25.751 1.69878 25.751 3.20645C25.751 4.71413 26.9732 5.93634 28.4809 5.93634Z" fill="black"/>
<path d="M13.488 32.4023H11.4522C9.97156 32.4023 8.76856 33.5128 8.58348 34.9472L8.30586 37.3069C8.25959 37.6308 8.44467 37.9084 8.76856 37.9547C9.18498 38.0472 9.64767 38.0935 10.0641 38.186L10.388 43.6921C10.4343 44.1085 10.7581 44.4786 11.2208 44.4786H13.7194C14.1358 44.4786 14.506 44.1548 14.5522 43.6921L14.8298 38.186C15.2925 38.1397 15.709 38.0472 16.1254 37.9547C16.403 37.9084 16.6343 37.5845 16.5881 37.3069L16.3567 34.9472C16.1716 33.5128 14.9224 32.4023 13.488 32.4023Z" fill="black"/>
<path d="M12.4701 31.5223C13.9778 31.5223 15.2 30.3001 15.2 28.7924C15.2 27.2847 13.9778 26.0625 12.4701 26.0625C10.9624 26.0625 9.74023 27.2847 9.74023 28.7924C9.74023 30.3001 10.9624 31.5223 12.4701 31.5223Z" fill="black"/>
<path d="M29.4978 32.4023H27.4619C25.9813 32.4023 24.7783 33.5128 24.5932 34.9472L24.3156 37.3069C24.2694 37.6308 24.4544 37.9084 24.7783 37.9547C25.1947 38.0472 25.6574 38.0935 26.0739 38.186L26.3977 43.6921C26.444 44.1085 26.7679 44.4786 27.2306 44.4786H29.7291C30.1456 44.4786 30.5157 44.1548 30.562 43.6921L30.8859 38.186C31.3486 38.1397 31.765 38.0472 32.1814 37.9547C32.459 37.9084 32.6904 37.5845 32.6441 37.3069L32.3665 34.9472C32.1814 33.5128 30.9321 32.4023 29.4978 32.4023Z" fill="black"/>
<path d="M28.4809 31.5223C29.9885 31.5223 31.2108 30.3001 31.2108 28.7924C31.2108 27.2847 29.9885 26.0625 28.4809 26.0625C26.9732 26.0625 25.751 27.2847 25.751 28.7924C25.751 30.3001 26.9732 31.5223 28.4809 31.5223Z" fill="black"/>
<path d="M8.63044 24.5842L8.35282 22.2245C8.16774 20.7902 6.96474 19.6797 5.48412 19.6797H3.44827C1.96765 19.6797 0.764651 20.7902 0.579574 22.2245L0.301958 24.5842C0.255688 24.9081 0.440766 25.1857 0.764651 25.232C1.18108 25.3245 1.64377 25.3708 2.06019 25.4634L2.38408 30.9694C2.43035 31.3858 2.75423 31.756 3.21693 31.756H5.71547C6.13189 31.756 6.50205 31.4321 6.54832 30.9694L6.8722 25.4634C7.3349 25.4171 7.75132 25.3245 8.16774 25.232C8.44536 25.1857 8.63044 24.9081 8.63044 24.5842Z" fill="black"/>
<path d="M4.46622 18.8465C5.9739 18.8465 7.19611 17.6243 7.19611 16.1166C7.19611 14.6089 5.9739 13.3867 4.46622 13.3867C2.95854 13.3867 1.73633 14.6089 1.73633 16.1166C1.73633 17.6243 2.95854 18.8465 4.46622 18.8465Z" fill="black"/>
<path d="M24.6392 24.5842L24.3616 22.2245C24.1765 20.7902 22.9735 19.6797 21.4929 19.6797H19.4571C17.9764 19.6797 16.7734 20.7902 16.5884 22.2245L16.3107 24.5842C16.2645 24.9081 16.4496 25.1857 16.7734 25.232C17.1899 25.3245 17.6526 25.3708 18.069 25.4634L18.3929 30.9694C18.4391 31.3858 18.763 31.756 19.2257 31.756H21.7243C22.1407 31.756 22.5108 31.4321 22.5571 30.9694L22.881 25.4634C23.3437 25.4171 23.7601 25.3245 24.1765 25.232C24.4541 25.1857 24.6855 24.9081 24.6392 24.5842Z" fill="black"/>
<path d="M20.475 18.8465C21.9827 18.8465 23.2049 17.6243 23.2049 16.1166C23.2049 14.6089 21.9827 13.3867 20.475 13.3867C18.9673 13.3867 17.7451 14.6089 17.7451 16.1166C17.7451 17.6243 18.9673 18.8465 20.475 18.8465Z" fill="black"/>
<path d="M40.3714 22.2675C40.1863 20.8331 38.9833 19.7227 37.5027 19.7227H35.4668C33.9862 19.7227 32.7832 20.8331 32.5981 22.2675L32.3205 24.6272C32.2742 24.9511 32.4593 25.2287 32.7832 25.275C33.1996 25.3675 33.6623 25.4138 34.0787 25.5063L34.4026 31.0124C34.4489 31.4288 34.7728 31.799 35.2355 31.799H37.734C38.1505 31.799 38.5206 31.4751 38.5669 31.0124L38.8908 25.5063C39.3535 25.4601 39.7699 25.3675 40.1863 25.275C40.4639 25.2287 40.6953 24.9048 40.649 24.6272L40.3714 22.2675Z" fill="black"/>
<path d="M36.4848 18.8465C37.9925 18.8465 39.2147 17.6243 39.2147 16.1166C39.2147 14.6089 37.9925 13.3867 36.4848 13.3867C34.9771 13.3867 33.7549 14.6089 33.7549 16.1166C33.7549 17.6243 34.9771 18.8465 36.4848 18.8465Z" fill="black"/>
</svg>
