<svg width="93" height="30" viewBox="0 0 93 30" fill="none" xmlns="http://www.w3.org/2000/svg">
<g style="mix-blend-mode:luminosity" opacity="0.6">
<path d="M33.0948 13.9463L33.5301 12.5588L32.0901 12.6039C31.9684 12.6039 31.0841 12.5789 30.2263 11.9595C30.2902 11.9658 30.3541 11.9745 30.4194 11.9745C31.3024 11.9745 32.1565 11.445 32.499 10.6882L33.1187 9.32086C32.3422 9.3308 31.6323 9.2334 31.6323 9.2334C31.626 9.23216 31.0666 9.16092 30.4194 8.50289C29.9552 8.03083 29.3808 7.78107 28.7586 7.78107C28.4865 7.78107 28.2431 7.82976 28.0337 7.89598C28.0663 7.78486 28.0976 7.67243 28.1153 7.55628C28.3134 6.27631 27.4856 5.29976 27.4856 5.30099L26.4031 3.96605L25.7321 5.53455C25.7295 5.53956 25.5602 5.90666 25.2567 6.08652C25.1651 5.62571 24.9406 5.10742 24.4602 4.61172C23.5546 3.67763 22.4521 3.539 21.8751 3.539C21.6079 3.539 21.4173 3.56775 21.3708 3.57522L20.0639 3.8312C20.1391 3.54023 20.2997 3.03451 20.5932 2.57872L21.3144 1.45977L19.4994 1.66582L18.9212 0.443309L17.8024 1.01777L16.7676 0L15.7352 1.01777L14.6126 0.443309L14.0356 1.66582L12.222 1.45977L12.9444 2.57872C13.2379 3.03451 13.3985 3.539 13.4725 3.82997L12.2256 3.58524L12.183 3.57768C12.1203 3.56775 11.931 3.539 11.6625 3.539C11.0855 3.539 9.98303 3.67886 9.07986 4.61172C8.59821 5.10619 8.37372 5.62571 8.28091 6.08652C7.97991 5.90921 7.81178 5.54704 7.81178 5.54704L7.13948 3.96983L6.03951 5.31348C5.90524 5.48708 5.24177 6.40488 5.42235 7.55876C5.44121 7.67367 5.47129 7.7861 5.50392 7.89722C5.29571 7.83101 5.05234 7.78231 4.7802 7.78231C4.15804 7.78231 3.58359 8.03207 3.11824 8.50413C2.47346 9.15974 1.91656 9.2334 1.92163 9.2334C1.92163 9.2334 1.33333 9.33831 0.422722 9.32204L1.03857 10.6895C1.38104 11.4474 2.2364 11.9757 3.11824 11.9757C3.18472 11.9757 3.24865 11.967 3.31391 11.9607C2.45846 12.5801 1.57417 12.6051 1.46752 12.6063L0 12.5588L0.444034 13.945C0.667321 14.6593 1.41358 15.8431 2.84356 15.9705C2.68798 16.6199 2.34305 17.3467 1.58547 17.6601L0.49297 18.1084L1.08873 19.1412C1.4249 19.6981 2.21386 20.35 3.33768 20.35C3.58105 20.3487 3.81557 20.325 4.0414 20.2775C4.0991 20.5323 4.17181 20.787 4.25714 21.0393C4.59199 22.0308 4.30354 22.7226 4.29977 22.7301L3.7604 23.8553L4.96455 24.1712C4.97963 24.1762 5.34333 24.2748 5.79868 24.2748C6.00566 24.2748 6.20253 24.2536 6.38821 24.2099C6.52863 24.1774 6.66292 24.1338 6.79205 24.0813C6.9476 24.3598 7.137 24.6133 7.35778 24.8405C8.1292 25.6285 9.22171 26.0281 10.6064 26.0281H10.6114L11.5998 26.0156L9.55779 26.8598L11.1081 27.6054C11.6713 27.8788 12.3398 28.2022 13.0197 28.4495L12.8265 28.9765L13.3609 29.2188C13.4085 29.2399 14.4358 29.6983 16.1442 29.7957C16.1442 29.7957 16.5569 29.8144 16.7838 29.8144C17.0109 29.8144 17.4185 29.7944 17.4185 29.7944C19.1156 29.6945 20.1353 29.2412 20.183 29.2188L20.7186 28.9752L20.5229 28.4469C21.2229 28.1922 21.9152 27.8563 22.4545 27.5941L23.976 26.8586L21.9402 26.0131L22.9324 26.0256C24.3185 26.0256 25.4122 25.6261 26.1823 24.8368C26.4018 24.6108 26.5913 24.3572 26.7481 24.0788C26.8773 24.1312 27.0127 24.1749 27.1532 24.2074C27.3375 24.2511 27.5345 24.2723 27.7414 24.2723C28.1892 24.2723 28.5568 24.1737 28.5667 24.1712L29.7759 23.8527L29.2491 22.7488C29.2366 22.7201 28.9481 22.0296 29.283 21.0367C29.3682 20.7833 29.4397 20.5286 29.4974 20.2751C29.7245 20.3225 29.9615 20.3475 30.2062 20.3475C31.6373 20.3475 32.3234 19.3447 32.4564 19.1274L33.0459 18.1059L31.9534 17.6589C31.1945 17.3454 30.8509 16.6174 30.6966 15.9692C32.1064 15.8494 32.864 14.6655 33.0948 13.9463ZM13.5677 4.30826L13.5528 4.31196L13.5653 4.29579L13.5677 4.30826Z" fill="white"/>
<path d="M16.7931 27.254H16.7905H16.7717H16.7504H16.7491C16.0479 27.259 15.0834 27.1153 14.6181 26.9805L14.0586 28.4877C14.4274 28.6188 15.6767 28.8686 16.7717 28.8686C17.8642 28.8686 19.1147 28.6177 19.4823 28.4877L18.924 26.9805C18.4575 27.1166 17.4941 27.259 16.7931 27.254Z" fill="white"/>
<path d="M21.0271 25.7539C20.6107 25.9887 19.6812 26.3408 19.1406 26.5044L19.5947 27.7494C20.4313 27.5221 21.1211 27.2562 21.6919 26.9715L20.7499 26.6592L21.0271 25.7539Z" fill="white"/>
<path d="M12.5124 25.7539L12.7909 26.6592L11.8477 26.9715C12.4171 27.2562 13.1107 27.5221 13.9436 27.7494L14.3976 26.5044C13.8595 26.3408 12.9288 25.9875 12.5124 25.7539Z" fill="white"/>
<path d="M30.0822 10.888C30.1951 10.9267 30.3104 10.9442 30.4246 10.9442C30.9175 10.9442 31.3942 10.627 31.5585 10.2637C31.5585 10.2637 30.6541 10.2087 29.682 9.22593C29.3723 8.90741 29.0449 8.8125 28.7639 8.8125C28.3274 8.8125 28 9.04226 28 9.04226C29.1741 9.6642 29.4136 10.6632 30.0822 10.888Z" fill="white"/>
<path d="M3.11314 10.9442C3.22724 10.9442 3.34266 10.9267 3.45307 10.888C4.12408 10.6632 4.36491 9.6642 5.53898 9.04226C5.53898 9.04226 5.21027 8.8125 4.77632 8.8125C4.4941 8.8125 4.1667 8.90741 3.85562 9.22593C2.88485 10.2087 1.98047 10.2637 1.98047 10.2637C2.14227 10.627 2.62016 10.9442 3.11314 10.9442Z" fill="white"/>
<path d="M30.3944 14.9476C30.4144 14.9488 30.432 14.9488 30.4533 14.9488C31.6838 14.9488 32.1015 13.6364 32.1015 13.6364H32.0776C31.8519 13.6364 30.0218 13.5839 28.7286 11.9468C27.877 10.8704 27.1795 9.92375 25.801 9.55169L25.6656 9.52797L25.6355 9.39057C25.5978 9.18069 25.7421 8.98466 26.0695 8.77242C27.971 7.53239 26.6803 5.9514 26.6803 5.9514C26.6803 5.9514 26.1372 7.21648 24.9218 7.21648C24.8929 7.21648 24.8616 7.21524 24.8315 7.21524C24.6936 7.20766 24.5606 7.20263 24.4263 7.17399L24.2018 7.13033C24.2018 7.13033 24.5481 6.19244 23.7126 5.33079C23.0829 4.6802 22.3166 4.57031 21.8738 4.57031C21.6505 4.57031 21.5088 4.59897 21.5088 4.59897C21.929 5.146 22.2325 6.05258 21.7472 6.61199C21.3283 7.09275 20.3047 7.11654 20.3047 7.83326C20.3047 8.13675 20.5894 8.49142 21.1012 8.80981C22.6402 9.77512 24.168 11.0551 24.8026 12.771C25.5966 14.9114 24.7023 16.3312 23.4255 17.1454C23.4255 17.1454 23.8255 17.5125 24.4063 17.5587C24.5242 17.57 24.6396 17.575 24.7475 17.575C25.9729 17.575 26.6063 17.003 26.6063 17.003C26.6063 17.003 26.5022 17.7936 25.8638 18.5278C25.2755 19.2059 24.5029 19.6042 23.325 19.6217C23.325 19.6217 23.2874 20.1662 23.8092 20.6369C24.1428 20.9342 24.9143 21.0316 24.9143 21.0316C24.9143 21.0316 23.4706 21.3226 23.3113 23.4455C23.2247 24.5956 22.9299 24.9951 22.9299 24.9951H22.9564C26.3065 24.9951 26.22 22.1343 26.22 22.1343C26.22 22.1343 26.4533 22.9809 27.3878 23.202C27.5006 23.2319 27.621 23.2432 27.7364 23.2432C28.0375 23.2432 28.2984 23.1732 28.2984 23.1732C28.2984 23.1732 27.8092 22.1455 28.2946 20.7082C28.6973 19.5155 28.632 18.6315 28.632 18.6315C28.632 18.6315 29.0836 19.3108 30.2025 19.317H30.2137C31.1457 19.317 31.552 18.614 31.552 18.614C29.3181 17.6912 29.5389 14.7116 29.5389 14.7116C29.5389 14.7116 29.8287 14.9263 30.3944 14.9476ZM29.722 18.0595C28.8139 17.6137 28.2394 16.4299 28.1002 16.0028C27.9496 18.3504 26.7982 19.9801 25.4523 21.5485C24.7537 22.3615 24.5104 23.152 24.5104 23.152C24.5104 23.152 24.6446 22.2566 25.2491 21.5273C26.5047 20.0251 27.6976 18.1556 27.7866 15.994C27.8481 14.4855 27.458 13.2617 26.8497 12.254C27.1896 13.3042 27.1419 14.5905 25.9867 15.7905C25.9867 15.7905 28.2858 13.0469 25.0711 10.2347C23.7841 9.16454 22.3768 8.5039 21.6519 8.03563C24.2708 8.88602 25.549 7.94942 25.549 7.94942C24.7123 8.67124 23.6299 8.65875 22.9588 8.55508C23.1407 8.64378 23.3301 8.73614 23.5345 8.84484C25.7421 10.0387 27.7264 12.0029 28.0651 14.7241V14.7028C28.5793 17.3739 29.722 18.0595 29.722 18.0595Z" fill="white"/>
<path d="M8.62075 21.0316C8.62075 21.0316 9.39218 20.9354 9.72585 20.6369C10.2463 20.1662 10.21 19.6217 10.21 19.6217C9.03099 19.6055 8.25956 19.2059 7.66755 18.5291C7.03407 17.7948 6.92874 17.0043 6.92874 17.0043C6.92874 17.0043 7.5621 17.5762 8.78635 17.5762C8.89676 17.5762 9.0109 17.5712 9.12875 17.56C9.70954 17.5138 10.1109 17.1467 10.1109 17.1467C8.83396 16.3325 7.93848 14.9114 8.73117 12.771C9.36713 11.0564 10.8936 9.77512 12.4327 8.80981C12.9444 8.49142 13.2291 8.13806 13.2291 7.83326C13.2291 7.11654 12.2068 7.09275 11.7879 6.61199C11.3025 6.05258 11.6073 5.14469 12.0262 4.59897C12.0262 4.59897 11.887 4.57031 11.6624 4.57031C11.221 4.57031 10.4546 4.6802 9.82491 5.33079C8.98703 6.19244 9.33452 7.13033 9.33452 7.13033L9.10997 7.17399C8.97581 7.20263 8.84152 7.20766 8.70482 7.21524C8.67351 7.21524 8.64586 7.21648 8.61579 7.21648C7.39787 7.21648 6.85726 5.95263 6.85726 5.95263C6.85726 5.95263 5.56655 7.53363 7.46681 8.7736C7.79421 8.9859 7.93724 9.18206 7.89961 9.39175L7.86941 9.52915L7.73147 9.55287C6.35552 9.92499 5.65689 10.8716 4.80521 11.948C3.5145 13.5827 1.68697 13.6364 1.45876 13.6364H1.43359C1.43359 13.6364 1.85132 14.9488 3.08178 14.9488C3.10186 14.9488 3.1194 14.9488 3.14072 14.9476C3.70639 14.9275 3.99739 14.7116 3.99739 14.7116C3.99739 14.7116 4.21568 17.6899 1.98427 18.614C1.98427 18.614 2.39069 19.317 3.32261 19.317H3.33392C4.45396 19.3108 4.90431 18.6315 4.90431 18.6315C4.90431 18.6315 4.83906 19.5155 5.24047 20.7082C5.72582 22.1455 5.23916 23.1732 5.23916 23.1732C5.23916 23.1732 5.50008 23.2432 5.79984 23.2432C5.91649 23.2432 6.03567 23.2319 6.14732 23.202C7.08044 22.9809 7.31504 22.1343 7.31504 22.1343C7.31504 22.1343 7.22973 24.9951 10.58 24.9951H10.6038C10.6038 24.9951 10.3103 24.5956 10.225 23.4455C10.0645 21.3226 8.62075 21.0316 8.62075 21.0316ZM8.08275 21.5485C6.73686 19.9801 5.58664 18.3504 5.43483 16.0028C5.29564 16.4286 4.72365 17.6137 3.81558 18.0595C3.81558 18.0595 4.95694 17.3739 5.46999 14.7028V14.7241C5.80993 12.0042 7.79297 10.0387 10.0017 8.84484C10.2037 8.73496 10.3956 8.64254 10.5763 8.55508C9.9052 8.65875 8.82274 8.67124 7.98609 7.94942C7.98609 7.94942 9.26422 8.88602 11.882 8.03563C11.157 8.5039 9.75089 9.16454 8.46396 10.2347C5.24793 13.0469 7.54833 15.7905 7.54833 15.7905C6.39191 14.5892 6.34553 13.3042 6.6854 12.254C6.07584 13.263 5.68697 14.4855 5.74968 15.994C5.83746 18.1556 7.03029 20.0251 8.28337 21.5273C8.88926 22.2554 9.02596 23.152 9.02596 23.152C9.02596 23.152 8.78002 22.3615 8.08275 21.5485Z" fill="white"/>
<path d="M14.2866 10.5754C14.3417 10.6341 14.3956 10.6977 14.4472 10.7615C14.4597 10.7764 14.4709 10.7902 14.4834 10.8077C14.5312 10.8713 14.5801 10.9388 14.6265 11.0074C14.6365 11.0212 14.6466 11.0374 14.6578 11.0537C14.7143 11.1386 14.767 11.226 14.8196 11.3159C15.3025 12.1463 16.0765 12.6421 16.7626 12.6434C17.4499 12.6421 18.2213 12.1463 18.7068 11.3159C18.7607 11.2235 18.8146 11.1336 18.871 11.0499C18.8798 11.0374 18.8887 11.0263 18.8961 11.0137C18.9438 10.9426 18.994 10.8726 19.0467 10.8052C19.0579 10.7902 19.068 10.7777 19.078 10.7653C19.1319 10.699 19.1871 10.6341 19.2436 10.5741C19.2536 10.5641 19.2611 10.5554 19.2699 10.548C19.5157 10.2969 19.8093 10.1059 20.193 9.99971L20.0225 9.90107H20.0125L19.3326 9.50771L18.634 9.10938L16.7676 10.1208L16.7626 10.1171L16.7588 10.1208L14.8911 9.10938L14.1938 9.50647L13.5127 9.89983H13.5051L13.332 9.99847C13.7171 10.1046 14.0093 10.2932 14.2565 10.5442C14.2677 10.5542 14.2752 10.5654 14.2866 10.5754ZM16.0074 10.4943H16.7976H17.5866V11.0337C17.4011 10.8077 17.0398 10.8539 17.0398 10.8539V11.6319C17.0398 11.6319 17.0536 12.014 17.1877 12.1801H16.7976H16.4063C16.543 12.0153 16.5556 11.6319 16.5556 11.6319V10.8539C16.5556 10.8539 16.1956 10.8077 16.0074 11.0337V10.4943Z" fill="white"/>
<path d="M16.6054 9.44145V6.28335L14.5859 5.60156L15.119 8.66229L16.6054 9.44145ZM16.1714 7.05884V7.56581L16.0736 7.5209C16.0685 7.51711 15.9256 7.48469 15.6747 7.28735C15.2608 6.96772 15.2533 6.67299 15.2533 6.67299L16.1714 7.05884Z" fill="white"/>
<path d="M18.4173 8.66229L18.9479 5.60156L16.9297 6.28335V9.44145L18.4173 8.66229ZM17.3637 7.05884L18.2818 6.67417C18.2818 6.67417 18.2743 6.96896 17.8591 7.28866C17.6095 7.48593 17.4653 7.51835 17.4603 7.52214L17.3624 7.56705V7.05884H17.3637Z" fill="white"/>
<path d="M13.7496 16.7659C13.9465 16.8371 14.1848 16.8521 14.3065 16.8521C14.3116 16.8371 14.3178 16.8184 14.3241 16.7959C14.3353 16.7597 14.3454 16.7247 14.353 16.6847C14.3868 16.5099 14.3994 16.3113 14.4018 16.1839C14.319 16.1328 14.2024 16.0416 14.1372 15.9055C14.062 15.7482 13.9553 15.6758 13.7985 15.6758C13.5953 15.6758 13.3771 15.7969 13.2842 15.8543C13.2103 16.2901 13.5326 16.686 13.7496 16.7659Z" fill="white"/>
<path d="M18.2157 15.0898C17.8406 15.4958 17.1069 16.2026 17.0705 16.2388L17.0266 16.2837L14.7074 16.2475C14.7061 16.476 14.6685 16.6709 14.6321 16.8132C14.6259 16.8369 14.6196 16.8619 14.6133 16.8869L17.3728 17.3802C17.66 17.1803 18.4502 16.6059 18.7563 16.3811C18.533 16.0565 18.5116 15.6718 18.5618 15.4008C18.4163 15.3072 18.3047 15.2023 18.2157 15.0898Z" fill="white"/>
<path d="M18.5364 12.3085C18.002 12.8367 17.489 13.0315 17.0312 13.0764C16.9484 13.0852 16.8644 13.0902 16.7791 13.0902H16.7728H16.7677C16.6825 13.0902 16.5972 13.0852 16.5144 13.0764C16.4341 13.0689 16.3501 13.0564 16.2661 13.0377C16.2359 13.1563 16.1983 13.4048 16.3062 13.6396C16.4028 13.8532 16.5997 14.0117 16.887 14.1167L16.9835 14.1541L16.9848 14.2578C16.9848 14.289 17.0074 14.9608 17.7436 15.1469C17.864 15.0233 17.9732 14.9121 18.0535 14.8198C17.9029 14.4676 17.9819 14.1079 18.2002 13.9318C18.1902 13.9693 18.0948 14.851 18.8048 15.1782L18.9215 15.2331L18.8863 15.3567C18.875 15.3941 18.6379 16.2471 19.4972 16.5642L19.6489 16.6217L19.5812 16.7691C19.5662 16.8015 19.2288 17.5758 20.0228 18.0153H21.7448V16.6542C21.1328 16.5792 20.8731 16.0897 20.8067 15.7426C20.522 15.6939 20.3012 15.5715 20.1506 15.3717C19.7893 14.8984 20.1004 14.4651 20.1042 14.4413C20.103 14.4451 20.1042 14.9071 20.3902 15.1918C20.5319 15.3292 20.7001 15.4354 20.9546 15.4591L21.0801 15.4704L21.0914 15.5977C21.0938 15.6251 21.1629 16.2496 21.7461 16.3482L21.7448 13.5684C21.7448 13.1376 21.8716 12.7043 22.0233 12.3047H18.5364V12.3085Z" fill="white"/>
<path d="M13.8979 13.5838L13.8516 15.3544L14.0534 15.3844L14.5477 13.6861L14.2968 13.1641L13.8979 13.5838Z" fill="white"/>
<path d="M19.346 21.7072C19.3611 21.7072 19.3786 21.7097 19.3949 21.7135C19.7022 21.8008 19.78 22.9048 20.3193 23.0035C20.372 23.0146 20.4209 23.0172 20.4636 23.0172C20.6191 23.0172 20.7119 22.951 20.8122 22.8336C20.8122 22.8336 20.5414 22.409 20.3382 22.123C20.0685 21.7485 19.859 21.2951 19.3573 21.2951C19.346 21.2951 19.3309 21.2951 19.3184 21.2963C19.1528 21.3052 19.0512 21.385 19.0512 21.385C18.848 21.2577 18.6587 21.214 18.4867 21.214C18.172 21.214 17.9274 21.3575 17.8056 21.3575H17.8007L16.6793 21.2476C16.5037 21.2315 16.3658 21.0554 16.3156 20.9866C16.3031 20.9679 16.2968 20.9567 16.2968 20.9567C16.2968 20.9267 16.2968 20.8955 16.2943 20.8681C16.2566 19.9552 15.5467 19.5644 15.2946 19.5581C15.2946 19.5581 15.3247 19.3845 15.2557 19.3183L15.0086 19.6167L14.1971 19.2109L14.7753 19.8841L14.2848 20.4322C14.2234 20.4946 14.2309 20.5795 14.256 20.6146L14.468 20.8007L14.7364 20.6383C14.7502 20.6282 14.7741 20.6258 14.8041 20.6258C14.8782 20.6258 14.9898 20.6445 15.0901 20.6445C15.1992 20.6445 15.2946 20.6208 15.3059 20.5184C15.272 20.8568 14.9572 21.445 15.1641 21.907L15.3172 22.2554L14.3263 22.1131L13.8621 22.8935C13.7192 23.1533 13.6966 23.4343 13.8346 23.5866L14.0077 23.8026C14.0077 23.8026 14.251 23.5454 14.3062 23.3768L14.2271 23.2907C14.1607 23.2182 14.1644 23.1533 14.2046 23.0746L14.4956 22.5938L15.6658 22.8685L15.7273 22.7637C15.8063 22.6325 15.9205 22.5926 16.0459 22.5926C16.0973 22.5926 16.15 22.5989 16.2052 22.6075C16.4222 22.65 16.7797 22.7075 17.1372 22.7075C17.5298 22.7075 17.9186 22.6375 18.1255 22.4065C18.5495 23.0322 19.4087 23.1321 19.341 23.4492L19.1152 24.5208C19.2645 24.5145 19.4087 24.5045 19.5454 24.4857L19.7599 23.3705C19.7838 23.2494 19.8063 23.0858 19.8063 23.0858C19.7235 23.0022 19.5229 22.8249 19.41 22.6101C19.2582 22.3203 19.341 22.1693 19.1993 21.7921C19.2042 21.7946 19.2469 21.7072 19.346 21.7072ZM14.9685 20.1413C14.9108 20.14 14.8694 20.0913 14.8718 20.0338C14.8769 19.9789 14.9233 19.9352 14.9797 19.9402C15.0374 19.9427 15.0788 19.9926 15.0764 20.0475C15.0713 20.1026 15.0237 20.1451 14.9685 20.1413Z" fill="white"/>
<path d="M13.3725 22.7197C13.3725 22.7197 13.7601 22.5611 13.7951 22.4475L13.7438 22.3188C13.7074 22.2352 13.7124 22.144 13.7826 22.0941L14.2015 21.8056L14.9015 21.9392C14.9015 21.9392 14.7748 21.7818 14.7873 21.5709L14.1201 21.4297L13.4904 21.8118C13.2207 22.0129 13.2006 22.3413 13.2897 22.5362L13.3725 22.7197Z" fill="white"/>
<path d="M18.3164 24.535C18.4418 24.53 18.5798 24.5274 18.7316 24.5274C18.7316 24.5274 19.0916 23.4798 19.1116 23.446C18.9097 23.3574 18.4907 23.1363 18.3289 23.0352C18.4356 23.1939 18.6952 23.3762 18.6438 23.516L18.3164 24.535Z" fill="white"/>
<path d="M21.7473 18.3242H11.7969V22.0505C11.7969 23.574 12.9045 24.528 14.5388 24.528C15.9048 24.528 16.2647 24.5805 16.7727 25.0826C17.1227 24.7353 17.4125 24.6055 18.007 24.5568L18.0207 24.4994L18.3343 23.5341C18.3168 23.5129 17.8038 22.9321 17.8038 22.9321C17.6006 22.9996 17.43 23.0108 17.1428 23.0108C16.848 23.0108 16.5156 22.9771 16.1556 22.9097C16.1192 22.9009 16.0854 22.8984 16.0515 22.8984C16.0076 22.8984 16.0038 22.9022 15.9926 22.9234L15.9298 23.0258L15.8157 23.2132L15.6012 23.1645L14.6467 22.9409L14.5162 23.1557L14.5363 23.1782L14.6529 23.3055L14.6015 23.4716C14.5312 23.6889 14.303 23.9424 14.234 24.0123L13.9957 24.267L13.7787 23.9936L13.6157 23.7901C13.4438 23.599 13.4037 23.3055 13.5002 22.9983C13.4977 23.0009 13.4939 23.0021 13.4903 23.0021L13.2206 23.1132L13.0988 22.851L13.0136 22.6649C12.8669 22.3377 12.9207 21.8595 13.3159 21.571L14.0848 21.139L14.8161 21.2826C14.8336 21.2126 14.8599 20.9629 14.8812 20.8991C14.8674 20.8979 14.8537 20.8942 14.8398 20.8942L14.4184 21.0503L14.012 20.7706C14.012 20.7706 13.8527 20.6182 13.9969 20.4658L14.3908 19.8726L13.3936 18.6264L14.9263 19.2532L15.028 19.1271L15.2349 18.8812L15.4695 19.1034C15.536 19.1671 15.5736 19.2458 15.5924 19.3245C16.0151 19.488 16.7714 19.9713 16.8379 20.7568L16.6009 20.8517V20.858C16.6548 20.9216 16.6999 20.9478 16.7137 20.9504L17.8075 21.0577C17.8351 21.0528 17.8703 21.0403 17.9091 21.0291C18.0446 20.9828 18.2491 20.9166 18.4911 20.9166C18.6881 20.9166 18.8786 20.9616 19.0618 21.0465C19.1295 21.0216 19.2124 21.0028 19.3077 20.9965L19.3603 20.9953C19.9461 20.9953 20.237 21.4311 20.4705 21.7783C20.5093 21.8382 20.5481 21.8957 20.5883 21.9519C20.7927 22.2391 21.0599 22.66 21.0712 22.6774L21.1916 22.8647L21.0436 23.0358C20.9295 23.167 20.7589 23.3205 20.4654 23.3205C20.4052 23.3205 20.3387 23.3143 20.2672 23.3006C20.2046 23.2893 20.1481 23.2706 20.0929 23.2481C20.0841 23.3055 20.0728 23.3742 20.0615 23.4329L19.8696 24.4294C21.0173 24.1485 21.7461 23.2856 21.7461 22.0518L21.7473 18.3242Z" fill="#223549"/>
<path d="M11.7954 18.0178H19.5332C19.1469 17.6207 19.1519 17.1175 19.251 16.7903C19.1381 16.7365 19.0453 16.6716 18.9625 16.6017C18.6603 16.8239 17.7371 17.4933 17.4963 17.6606L17.4449 17.6956L14.4081 17.1487H14.3467C14.274 17.1487 14.1673 17.1462 14.0507 17.1324C14.0181 17.2685 13.9002 17.3622 13.7647 17.3622C13.7496 17.3622 13.7321 17.361 13.7158 17.3572C13.6367 17.3434 13.5678 17.3034 13.5214 17.2374C13.4737 17.1724 13.4549 17.0949 13.4687 17.0151L13.48 16.9501C13.1664 16.7303 12.8779 16.2395 13.0058 15.7225L13.0184 15.6676L13.0623 15.6364C13.0686 15.6314 13.1212 15.5964 13.199 15.5515L12.9783 15.5177C12.8955 15.5028 12.8403 15.4266 12.8529 15.3454C12.8667 15.263 12.9444 15.2043 13.0259 15.2205L13.5515 15.303L13.5991 13.4597L14.3819 12.6356L14.8698 13.6584L14.3542 15.4316L14.8184 15.504C14.8998 15.5165 14.9563 15.5927 14.9438 15.6763C14.9312 15.75 14.8685 15.8012 14.7945 15.8012C14.7869 15.8012 14.7782 15.8012 14.7706 15.8L14.3931 15.7388C14.3982 15.75 14.4056 15.7563 14.4107 15.7688C14.4508 15.8512 14.5399 15.9111 14.5925 15.9361L16.908 15.9723C17.0058 15.8774 17.2492 15.6401 17.4988 15.3891C16.9294 15.1744 16.7224 14.6848 16.6872 14.3601C16.3687 14.2252 16.1491 14.023 16.0275 13.7594C15.8795 13.4336 15.9321 13.1076 15.971 12.9491C15.6625 12.8366 15.3377 12.6319 15.0065 12.3047H11.5195C11.6688 12.7043 11.7954 13.1376 11.7954 13.5684V18.0178Z" fill="#223549"/>
<path d="M14.9792 19.9418C14.9227 19.9368 14.8751 19.9804 14.8713 20.0354C14.8675 20.0928 14.9102 20.1415 14.9679 20.1428C15.023 20.1478 15.072 20.1053 15.077 20.0491C15.077 19.9942 15.0369 19.943 14.9792 19.9418Z" fill="black"/>
<path d="M21.7331 26.6971L21.1599 26.4786L21.318 25.8892L21.4923 25.2461C21.4923 25.2461 20.4763 25.7942 19.0452 26.2064C18.6388 26.3225 18.3314 26.3749 18.3314 26.3749V26.812C18.3314 26.812 17.5663 26.9444 16.7924 26.9444H16.7836H16.7724H16.7573H16.7485C15.9746 26.9444 15.2095 26.812 15.2095 26.812V26.3749C15.2095 26.3749 14.9009 26.3225 14.4958 26.2064C13.0646 25.7942 12.0499 25.2461 12.0499 25.2461L12.2217 25.8892L12.3835 26.4786L11.809 26.6971L11.1719 26.9344C11.9031 27.2853 12.9153 27.7973 13.8423 28.0496L13.624 28.644C13.624 28.644 14.7993 29.1773 16.7573 29.1822V29.1835H16.7636H16.7724H16.7799H16.7849V29.1822C18.7454 29.1773 19.9194 28.644 19.9194 28.644L19.6998 28.0496C20.6268 27.7973 21.6416 27.2853 22.3691 26.9344L21.7331 26.6971ZM11.8517 26.9744L12.7949 26.6622L12.5165 25.7568C12.9316 25.9916 13.8637 26.3438 14.4029 26.5074L13.9477 27.7524C13.1147 27.5238 12.4211 27.2578 11.8517 26.9744ZM16.7724 28.87C15.6773 28.87 14.4268 28.619 14.0593 28.4891L14.6186 26.9819C15.0828 27.1167 16.0486 27.2604 16.7497 27.2553H16.751H16.7724H16.7911H16.7937C17.4949 27.2604 18.4581 27.1167 18.9248 26.9819L19.4829 28.4891C19.1154 28.6203 17.8661 28.87 16.7724 28.87ZM19.5945 27.7524L19.1405 26.5074C19.6811 26.3438 20.6105 25.9916 21.0269 25.7568L20.7498 26.6622L21.6917 26.9744C21.121 27.2578 20.4311 27.5238 19.5945 27.7524Z" fill="black"/>
<path d="M30.4484 15.3509C31.9574 15.3509 32.4616 13.8224 32.4829 13.7575L32.6509 13.2193L32.0853 13.2367H32.0828C31.8834 13.2367 30.2189 13.1931 29.0386 11.6995L28.9269 11.5609C28.1555 10.5844 27.4243 9.65651 26.1173 9.23314C26.1549 9.19948 26.2088 9.15699 26.2829 9.10954C26.9765 8.65499 27.3804 8.10305 27.482 7.46247C27.63 6.49841 27.0129 5.73036 26.9853 5.69915L26.5651 5.18217L26.303 5.79532C26.2854 5.834 25.8438 6.81556 24.9157 6.81556H24.8467C24.7827 6.81177 24.7225 6.80929 24.6623 6.80432C24.6949 6.36599 24.6146 5.6879 23.9975 5.05234C23.2562 4.28677 22.3456 4.17188 21.869 4.17188C21.6143 4.17188 21.4451 4.20317 21.4274 4.20563L20.7928 4.33054L21.1841 4.84374C21.4914 5.23958 21.7699 5.97016 21.44 6.35226C21.3347 6.47344 21.1177 6.57208 20.9094 6.67072C20.4817 6.86681 19.8984 7.13899 19.8984 7.83335C19.8984 8.28287 20.2484 8.75238 20.8831 9.15202C22.7621 10.3284 23.921 11.5559 24.4215 12.9108C25.1954 14.995 24.1856 16.1839 23.2048 16.8095L22.7646 17.0917L23.1496 17.4438C23.201 17.4888 23.6727 17.9022 24.3688 17.9621C24.5005 17.9708 24.6271 17.9784 24.7451 17.9784C25.1916 17.9784 25.5717 17.9084 25.8802 17.8148C25.7949 17.9634 25.6908 18.1144 25.5591 18.2668C24.9985 18.9137 24.3086 19.2084 23.3164 19.2234L22.9476 19.2296L22.9188 19.5979C22.915 19.6717 22.8875 20.3547 23.5372 20.9354C23.6363 21.0254 23.7567 21.099 23.8821 21.1602C23.4419 21.5548 22.9941 22.2416 22.9076 23.4192C22.8348 24.402 22.599 24.7654 22.5965 24.7692L22.1888 25.3886L22.9251 25.3985C24.1418 25.3985 25.0737 25.0639 25.7196 24.402C26.101 24.0099 26.3193 23.5679 26.4485 23.1757C26.6604 23.3556 26.9339 23.5129 27.2901 23.5966C27.4255 23.6277 27.5736 23.6452 27.7329 23.6452C28.0766 23.6452 28.3638 23.5728 28.3964 23.5653L28.8668 23.4405L28.6585 23.0034C28.6435 22.9685 28.2509 22.0917 28.6735 20.8405C28.8554 20.2998 28.9482 19.8153 28.9934 19.4381C29.2894 19.5917 29.6858 19.7191 30.1988 19.7204C31.3628 19.7204 31.8758 18.855 31.8997 18.8187L32.1292 18.4217L31.704 18.2468C30.3168 17.6736 30.0094 16.1339 29.9479 15.2997C30.0734 15.3234 30.2164 15.346 30.3781 15.3509H30.4484ZM31.5484 18.6152C31.5484 18.6152 31.142 19.3182 30.2101 19.3182H30.1988C29.08 19.312 28.6284 18.6326 28.6284 18.6326C28.6284 18.6326 28.6936 19.5168 28.2898 20.7095C27.8043 22.1467 28.2936 23.1745 28.2936 23.1745C28.2936 23.1745 28.0326 23.2444 27.7316 23.2444C27.6162 23.2444 27.4958 23.2331 27.3829 23.2031C26.4485 22.9821 26.2152 22.1355 26.2152 22.1355C26.2152 22.1355 26.3017 24.9964 22.9514 24.9964H22.9251C22.9251 24.9964 23.2199 24.5968 23.3076 23.4467C23.4669 21.3238 24.9107 21.0328 24.9107 21.0328C24.9107 21.0328 24.1405 20.9367 23.8068 20.6382C23.285 20.1674 23.3214 19.623 23.3214 19.623C24.5005 19.6068 25.272 19.2071 25.8602 18.529C26.4974 17.7947 26.6027 17.0043 26.6027 17.0043C26.6027 17.0043 25.9692 17.5762 24.7439 17.5762C24.636 17.5762 24.5206 17.5712 24.4026 17.56C23.8231 17.5138 23.4218 17.1466 23.4218 17.1466C24.6974 16.3325 25.593 14.9114 24.799 12.7709C24.1631 11.0564 22.6354 9.77514 21.0976 8.8099C20.5858 8.49138 20.301 8.13802 20.301 7.83335C20.301 7.11657 21.3246 7.09402 21.7448 6.61208C22.2289 6.05253 21.9254 5.14473 21.5052 4.59901C21.5052 4.59901 21.6469 4.57026 21.8702 4.57026C22.313 4.57026 23.0794 4.68138 23.709 5.33074C24.5457 6.19239 24.1982 7.13023 24.1982 7.13023L24.4227 7.17396C24.557 7.20272 24.6899 7.20769 24.8279 7.21396C24.858 7.21396 24.8881 7.2152 24.9181 7.2152C26.1336 7.2152 26.6767 5.95013 26.6767 5.95013C26.6767 5.95013 27.9687 7.53235 26.0671 8.77114C25.7397 8.98338 25.5955 9.17954 25.6331 9.38929L25.6633 9.52669L25.7987 9.55042C27.1772 9.92248 27.8746 10.8691 28.7262 11.9455C30.0194 13.5826 31.8495 13.6351 32.0752 13.6351H32.0991C32.0991 13.6351 31.6814 14.9476 30.4509 14.9476C30.4308 14.9476 30.4133 14.9476 30.392 14.9463C29.8263 14.9264 29.5365 14.7103 29.5365 14.7103C29.5365 14.7103 29.3146 17.6911 31.5484 18.6152Z" fill="black"/>
<path d="M27.8022 9.39286C28.3653 9.69125 28.6927 10.0909 28.98 10.4456C29.2622 10.7915 29.5306 11.1248 29.9495 11.2635C30.0987 11.3147 30.2568 11.3384 30.4173 11.3384C31.047 11.3384 31.6792 10.955 31.9187 10.4243L32.1596 9.89231L31.5764 9.8574C31.5487 9.8561 30.7987 9.78864 29.9633 8.93825C29.6196 8.58992 29.2044 8.40625 28.7566 8.40625C28.2098 8.40625 27.8046 8.67849 27.7595 8.70601L27.2227 9.08192L27.8022 9.39286ZM28.7579 8.80843C29.0388 8.80843 29.3663 8.90328 29.6761 9.22174C30.6481 10.2046 31.5525 10.2595 31.5525 10.2595C31.3882 10.6216 30.9116 10.94 30.4186 10.94C30.3045 10.94 30.1903 10.9226 30.0762 10.8839C29.4077 10.6591 29.1681 9.66007 27.9928 9.03819C27.9928 9.03819 28.3215 8.80843 28.7579 8.80843Z" fill="black"/>
<path d="M28.0695 14.6999V14.7199C27.7309 12.0001 25.7466 10.0357 23.539 8.84061C23.3346 8.73198 23.1464 8.63962 22.9633 8.55092C23.6356 8.65452 24.718 8.66701 25.5534 7.94531C25.5534 7.94531 24.2752 8.88186 21.6562 8.03146C22.3813 8.49974 23.7899 9.16037 25.0755 10.2305C28.2903 13.0427 25.9899 15.7863 25.9899 15.7863C27.1451 14.5862 27.1928 13.3 26.8529 12.2498C27.4612 13.2576 27.85 14.4813 27.7898 15.9899C27.7008 18.1515 26.5079 20.0208 25.2523 21.5232C24.649 22.2524 24.5136 23.1479 24.5136 23.1479C24.5136 23.1479 24.7569 22.3573 25.4555 21.5444C26.8014 19.9759 27.9516 18.3463 28.1021 15.9986C28.2414 16.4245 28.8146 17.6095 29.724 18.0553C29.7264 18.0566 28.5838 17.371 28.0695 14.6999Z" fill="black"/>
<path d="M10.9332 24.7613C10.932 24.7576 10.6987 24.3942 10.6235 23.4114C10.5357 22.2338 10.089 21.547 9.64757 21.1524C9.77553 21.0925 9.89338 21.0188 9.99252 20.9276C10.641 20.3469 10.6134 19.6638 10.6096 19.5901L10.5845 19.2217L10.2132 19.2155C9.22363 19.1993 8.53243 18.9046 7.97179 18.259C7.84135 18.1066 7.73602 17.9555 7.65071 17.8069C7.95921 17.9006 8.33677 17.9705 8.78457 17.9705C8.90503 17.9705 9.02921 17.963 9.16089 17.9543C9.85699 17.8944 10.3287 17.4822 10.3813 17.436L10.7664 17.0838L10.3261 16.8017C9.34149 16.1748 8.33553 14.986 9.10819 12.9029C9.60863 11.5481 10.7664 10.3206 12.6478 9.14421C13.2826 8.74457 13.6299 8.27505 13.6299 7.82554C13.6299 7.13117 13.048 6.85769 12.6202 6.6629C12.412 6.56427 12.1951 6.46563 12.0897 6.34445C11.7586 5.96358 12.0382 5.23177 12.3443 4.83592L12.7382 4.32264L12.101 4.19781C12.0822 4.19527 11.9153 4.16406 11.6595 4.16406C11.1828 4.16406 10.2747 4.27895 9.53213 5.04444C8.91377 5.68132 8.83231 6.35942 8.86362 6.79651C8.80342 6.80148 8.74322 6.80396 8.68048 6.80775H8.61278C7.68208 6.80775 7.24184 5.82619 7.2243 5.78751L6.96205 5.17436L6.53812 5.69134C6.51431 5.72254 5.89471 6.49178 6.04521 7.45466C6.14554 8.09524 6.5494 8.64718 7.24302 9.10172C7.31829 9.14918 7.37098 9.19166 7.40862 9.22533C6.10292 9.64869 5.37289 10.5778 4.60146 11.5543L4.48982 11.693C3.31083 13.1865 1.64257 13.2301 1.44314 13.2301L0.875 13.2126L1.04804 13.7509C1.06812 13.8159 1.57109 15.3444 3.08124 15.3444L3.15403 15.3418C3.3133 15.3368 3.45633 15.3156 3.58429 15.2906C3.5215 16.1236 3.21419 17.6633 1.8257 18.2377L1.40174 18.4126L1.63134 18.8097C1.65388 18.8459 2.16817 19.7112 3.33461 19.7112C3.84389 19.7101 4.24022 19.5827 4.53753 19.4291C4.58269 19.8062 4.67548 20.2908 4.85737 20.8315C5.2801 22.0827 4.88623 22.9593 4.87114 22.9943L4.66294 23.4313L5.1346 23.5562C5.16591 23.5638 5.45568 23.6362 5.79807 23.6362C5.95865 23.6362 6.10669 23.6187 6.23967 23.5875C6.59714 23.5038 6.87303 23.3464 7.08245 23.1667C7.21041 23.5587 7.42994 24.0008 7.81004 24.393C8.45717 25.0548 9.38786 25.3895 10.6046 25.3895L11.3421 25.3795L10.9332 24.7613ZM10.577 24.9898C7.22672 24.9898 7.31209 22.1289 7.31209 22.1289C7.31209 22.1289 7.07879 22.9756 6.14432 23.1966C6.03267 23.2266 5.91348 23.2378 5.79684 23.2378C5.49584 23.2378 5.23616 23.1679 5.23616 23.1679C5.23616 23.1679 5.72282 22.1401 5.23739 20.7028C4.83607 19.5102 4.90131 18.6261 4.90131 18.6261C4.90131 18.6261 4.45097 19.3054 3.33092 19.3117H3.31961C2.38768 19.3117 1.98128 18.6086 1.98128 18.6086C4.21391 17.6857 3.99439 14.7062 3.99439 14.7062C3.99439 14.7062 3.70471 14.921 3.13771 14.9422C3.11763 14.9435 3.09886 14.9435 3.07878 14.9435C1.847 14.9435 1.4306 13.631 1.4306 13.631H1.45568C1.68274 13.631 3.51027 13.5786 4.80344 11.9414C5.65511 10.8651 6.35374 9.91969 7.7297 9.54627L7.86764 9.52254L7.89783 9.38521C7.93546 9.17539 7.79244 8.97936 7.46509 8.76706C5.56355 7.52696 6.85548 5.94609 6.85548 5.94609C6.85548 5.94609 7.39609 7.20981 8.61402 7.20981C8.64409 7.20981 8.67174 7.20857 8.70305 7.20857C8.83975 7.20111 8.97527 7.19608 9.10819 7.16739L9.33275 7.12366C9.33275 7.12366 8.98526 6.18582 9.82314 5.32424C10.4528 4.67357 11.2192 4.56368 11.6607 4.56368C11.8852 4.56368 12.0245 4.59243 12.0245 4.59243C11.6055 5.13938 11.302 6.04595 11.7861 6.60545C12.2051 7.0862 13.2273 7.10993 13.2273 7.82672C13.2273 8.13021 12.9426 8.48481 12.4309 8.80327C10.8918 9.76857 9.36412 11.0498 8.72939 12.7644C7.9367 14.9047 8.83101 16.3246 10.1091 17.14C10.1091 17.14 9.70777 17.5072 9.12704 17.5534C9.00912 17.5646 8.89499 17.5696 8.78457 17.5696C7.56038 17.5696 6.92696 16.9977 6.92696 16.9977C6.92696 16.9977 7.0323 17.7882 7.66578 18.5225C8.25779 19.2005 9.02921 19.6002 10.2083 19.6164C10.2083 19.6164 10.2459 20.1608 9.72407 20.6316C9.38923 20.9289 8.61898 21.0262 8.61898 21.0262C8.61898 21.0262 10.064 21.3172 10.222 23.4402C10.3086 24.5903 10.6008 24.9898 10.6008 24.9898H10.577Z" fill="black"/>
<path d="M3.11865 11.3449C3.28046 11.3449 3.43849 11.3212 3.58768 11.27C4.00917 11.1314 4.27632 10.798 4.55854 10.4521C4.84708 10.0975 5.17193 9.69788 5.73506 9.39943L6.3146 9.08973L5.77646 8.71382C5.7313 8.68506 5.32742 8.41406 4.78183 8.41406C4.3328 8.41406 3.91638 8.59643 3.57391 8.94606C2.73855 9.79528 1.98975 9.86391 1.96212 9.86516L1.37891 9.89888L1.61851 10.4321C1.85925 10.9603 2.49018 11.3449 3.11865 11.3449ZM3.86114 9.22824C4.17221 8.90985 4.49961 8.81494 4.78183 8.81494C5.21578 8.81494 5.5444 9.0447 5.5444 9.0447C4.37042 9.66788 4.12959 10.6656 3.4585 10.8904C3.34816 10.9292 3.23275 10.9467 3.11865 10.9467C2.62567 10.9467 2.14902 10.6294 1.98598 10.266C1.98598 10.2648 2.88905 10.2098 3.86114 9.22824Z" fill="black"/>
<path d="M5.75182 15.9899C5.68911 14.4814 6.07798 13.2576 6.68752 12.2498C6.34759 13.3 6.39403 14.5863 7.55051 15.7864C7.55051 15.7864 5.25008 13.0428 8.46608 10.2305C9.75307 9.16037 11.1604 8.49974 11.8842 8.03146C9.2664 8.88186 7.98821 7.94531 7.98821 7.94531C8.82356 8.66713 9.90608 8.65458 10.5784 8.54968C10.3965 8.63837 10.2058 8.7308 10.0039 8.83943C7.79385 10.0345 5.81076 11.9988 5.47082 14.7187V14.6974C4.95785 17.3685 3.81641 18.0541 3.81641 18.0541C4.72456 17.6083 5.29655 16.4245 5.43574 15.9973C5.58755 18.345 6.73768 19.9747 8.08356 21.5431C8.78221 22.3561 9.02808 23.1466 9.02808 23.1466C9.02808 23.1466 8.89138 22.2512 8.28555 21.5219C7.03247 20.0222 5.83961 18.1515 5.75182 15.9899Z" fill="black"/>
<path d="M16.0117 10.4922V11.0316C16.1986 10.8056 16.5599 10.8518 16.5599 10.8518V11.6297C16.5599 11.6297 16.5473 12.0119 16.4106 12.178H16.8019H17.192C17.0578 12.0132 17.044 11.6297 17.044 11.6297V10.8518C17.044 10.8518 17.4052 10.8056 17.5909 11.0316V10.4922H16.8019H16.0117Z" fill="black"/>
<path d="M15.6753 7.29014C15.9249 7.48742 16.0692 7.51996 16.0742 7.52363L16.172 7.56866V7.06039L15.2539 6.67578C15.2539 6.67702 15.2626 6.97045 15.6753 7.29014Z" fill="black"/>
<path d="M17.8587 7.29014C18.2739 6.97045 18.2814 6.67578 18.2814 6.67578L17.3633 7.06039V7.56866L17.4598 7.52363C17.4661 7.51996 17.6091 7.48742 17.8587 7.29014Z" fill="black"/>
<path d="M19.514 5.22144C19.514 4.45095 18.2107 3.75781 16.772 3.75781H16.7708H16.7671H16.7633C15.3246 3.75781 14.0214 4.45095 14.0214 5.22144L14.0503 5.41123L14.6247 8.69424L14.0478 9.02766L12.5551 9.89557H12.5602C12.5602 9.89557 12.224 10.0666 12.0684 10.1727C11.5003 10.5661 11.3799 11.1393 11.7097 11.3766C11.7913 10.9096 12.1625 10.42 12.8574 10.42C13.3579 10.42 13.7392 10.6773 14.0478 11.0631C14.1268 11.1606 14.202 11.2642 14.2723 11.3766C14.3588 11.5177 14.4453 11.6413 14.5319 11.7612H10.6875C10.9697 12.3269 11.2381 12.9263 11.2381 13.5769V22.0486C11.2381 24.099 12.8223 25.0781 14.5356 25.0781C15.8602 25.0781 16.0384 25.0182 16.7696 25.7424C17.4971 25.017 17.6752 25.0781 19.001 25.0781C20.7156 25.0781 22.2973 24.099 22.2973 22.0486V13.5769C22.2973 12.9263 22.5658 12.3269 22.8492 11.7612H19.0035C19.0888 11.6426 19.1754 11.5177 19.2618 11.3766C19.3334 11.2642 19.4073 11.1606 19.4852 11.0631C19.7962 10.676 20.1762 10.42 20.6767 10.42C21.3716 10.42 21.7416 10.9083 21.8244 11.3766C22.1544 11.1393 22.0351 10.5661 21.4632 10.1727C21.3102 10.0666 20.9739 9.89557 20.9739 9.89557H20.979L19.4864 9.02766L18.9119 8.69424L19.4864 5.41123L19.514 5.22144ZM14.587 5.60357L16.6065 6.28536V9.44345L15.1202 8.66306L14.587 5.60357ZM15.0048 12.3119C15.336 12.6404 15.6608 12.844 15.9693 12.9563C15.9291 13.1148 15.8766 13.4421 16.0258 13.768C16.1474 14.0302 16.3682 14.2325 16.6855 14.3674C16.7207 14.6921 16.9264 15.1804 17.4971 15.3964C17.2475 15.6475 17.0041 15.8834 16.905 15.9795L14.5908 15.9433C14.5382 15.9172 14.4491 15.8584 14.409 15.7748C14.404 15.7635 14.3965 15.7573 14.3927 15.7449L14.7702 15.806C14.779 15.8073 14.7865 15.8073 14.794 15.8073C14.8668 15.8073 14.9307 15.7573 14.9433 15.6824C14.9559 15.5988 14.8994 15.5225 14.8179 15.5101L14.3538 15.4376L14.8693 13.6656L14.3814 12.6428L13.5987 13.467L13.551 15.3102L13.0255 15.2278C12.9439 15.2116 12.8662 15.2715 12.8524 15.3527C12.8398 15.4339 12.895 15.5101 12.9778 15.525L13.1986 15.5588C13.1196 15.6037 13.0682 15.6386 13.0619 15.6437L13.0167 15.6749L13.0041 15.7298C12.8762 16.2468 13.1659 16.7375 13.4783 16.9573L13.467 17.0223C13.4545 17.1022 13.472 17.1796 13.5197 17.2446C13.5648 17.3108 13.6351 17.3507 13.7128 17.3645C13.7292 17.3669 13.7467 17.3682 13.7618 17.3682C13.8972 17.3682 14.0152 17.2746 14.049 17.1384C14.1656 17.1522 14.2723 17.1546 14.345 17.1546H14.4065L17.4432 17.7004L17.4946 17.6666C17.7366 17.4981 18.6585 16.8287 18.9608 16.6077C19.0436 16.6789 19.1364 16.7438 19.2493 16.7975C19.1515 17.1247 19.1452 17.6279 19.5328 18.025H11.7938V13.5782C11.7938 13.1474 11.6671 12.714 11.5178 12.3144H15.0048V12.3119ZM18.7576 16.3804C18.4504 16.6052 17.6602 17.1796 17.3742 17.3794L14.6147 16.8862C14.621 16.8612 14.6272 16.8375 14.6335 16.8125C14.6699 16.6702 14.7063 16.4753 14.7088 16.2468L17.028 16.2843L17.0719 16.2393C17.107 16.2043 17.8421 15.4976 18.2171 15.0905C18.3061 15.2016 18.4177 15.3078 18.5632 15.4014C18.513 15.6711 18.5344 16.0557 18.7576 16.3804ZM14.1381 15.9047C14.2033 16.0408 14.3211 16.1319 14.4027 16.1831C14.4002 16.3105 14.3877 16.5091 14.3538 16.6838C14.3462 16.7226 14.3363 16.7589 14.3249 16.7951C14.3187 16.8175 14.3124 16.8362 14.3074 16.8512C14.1857 16.8512 13.9461 16.8362 13.7505 16.7651C13.5335 16.6852 13.2099 16.2892 13.2851 15.8535C13.3792 15.796 13.5962 15.6749 13.7994 15.6749C13.9562 15.6736 14.0628 15.7473 14.1381 15.9047ZM13.8508 15.3565L13.8972 13.5869L14.2961 13.1661L14.547 13.6881L14.0527 15.3865L13.8508 15.3565ZM18.7326 24.5299C18.582 24.5299 18.4428 24.5324 18.3174 24.5374L18.646 23.5196C18.6975 23.3786 18.4378 23.1975 18.3311 23.0389C18.493 23.14 18.9119 23.3611 19.1139 23.4497C19.0926 23.4822 18.7326 24.5299 18.7326 24.5299ZM19.7636 23.3736L19.5491 24.4874C19.4124 24.5061 19.2669 24.5162 19.1176 24.5224L19.3434 23.4509C19.4111 23.1326 18.552 23.0339 18.128 22.4083C17.921 22.6405 17.531 22.7092 17.1396 22.7092C16.7822 22.7092 16.4247 22.6518 16.2076 22.6093C16.1525 22.6006 16.0998 22.5943 16.0484 22.5943C15.9229 22.5943 15.8087 22.633 15.7298 22.7653L15.667 22.8703L14.4968 22.5956L14.2058 23.0751C14.1644 23.1525 14.1619 23.2187 14.2284 23.2911L14.3074 23.3773C14.2534 23.5471 14.0102 23.8031 14.0102 23.8031L13.8358 23.5871C13.6978 23.4335 13.7204 23.1537 13.8646 22.894L14.3287 22.1135L15.3197 22.256L15.1653 21.9063C14.9584 21.4442 15.2732 20.856 15.3071 20.5176C15.2958 20.62 15.2017 20.6425 15.0913 20.6425C14.991 20.6425 14.8793 20.6238 14.8053 20.6238C14.7765 20.6238 14.7514 20.6263 14.7376 20.6363L14.4692 20.7985L14.2572 20.6126C14.2321 20.5763 14.2234 20.4926 14.286 20.4302L14.7765 19.8833L14.1971 19.2102L15.0086 19.616L15.2556 19.3175C15.3234 19.3837 15.2945 19.5573 15.2945 19.5573C15.5479 19.5636 16.2578 19.9544 16.2955 20.866C16.298 20.8935 16.298 20.9247 16.298 20.9547C16.298 20.9547 16.3043 20.9659 16.3168 20.9846C16.367 21.0533 16.5049 21.2294 16.6805 21.2456L17.8019 21.3555H17.8068C17.9298 21.3555 18.1744 21.2119 18.4879 21.2119C18.6585 21.2119 18.8492 21.2557 19.0524 21.383C19.0524 21.383 19.154 21.3031 19.3196 21.2943C19.3321 21.2931 19.346 21.2931 19.3585 21.2931C19.8615 21.2931 20.0697 21.7451 20.3393 22.121C20.5426 22.4069 20.8135 22.8316 20.8135 22.8316C20.7131 22.9502 20.6203 23.0152 20.4648 23.0152C20.4222 23.0152 20.3732 23.0114 20.3205 23.0014C19.7811 22.9027 19.7034 21.7989 19.3961 21.7115C19.3798 21.7064 19.3623 21.7052 19.3471 21.7052C19.2481 21.7052 19.2042 21.7926 19.2042 21.7926C19.3446 22.1685 19.2631 22.3208 19.4137 22.6106C19.5265 22.8253 19.7272 23.0027 19.81 23.0863C19.81 23.0888 19.7874 23.2512 19.7636 23.3736ZM13.7417 22.3196L13.7931 22.4482C13.7593 22.5606 13.3705 22.7204 13.3705 22.7204L13.2863 22.5381C13.1973 22.3433 13.2161 22.0149 13.4871 21.8138L14.1167 21.4317L14.7841 21.5728C14.7715 21.7839 14.8981 21.9412 14.8981 21.9412L14.1983 21.8076L13.7793 22.096C13.7091 22.1448 13.7041 22.2359 13.7417 22.3196ZM19.869 24.4263L20.0609 23.4298C20.0709 23.371 20.0834 23.3024 20.0922 23.245C20.1462 23.2674 20.2039 23.2861 20.2666 23.2973C20.338 23.3111 20.4045 23.3173 20.4648 23.3173C20.7583 23.3173 20.9289 23.1637 21.043 23.0327L21.191 22.8615L21.0706 22.6742C21.0593 22.6555 20.7934 22.2359 20.5877 21.9487C20.5475 21.8925 20.5086 21.8363 20.4698 21.7751C20.2365 21.428 19.9442 20.9921 19.3585 20.9921L19.3058 20.9934C19.2092 20.9996 19.1264 21.0184 19.06 21.0434C18.8755 20.9572 18.6861 20.9134 18.4892 20.9134C18.2471 20.9134 18.0427 20.9796 17.9072 21.0259C17.8683 21.0371 17.8332 21.0496 17.8057 21.0546L16.7106 20.9472C16.6968 20.9447 16.6517 20.9185 16.5977 20.8535V20.8486L16.8348 20.7536C16.7683 19.9682 16.0107 19.4849 15.588 19.3213C15.5692 19.2426 15.5316 19.1639 15.4652 19.1003L15.2293 18.878L15.0223 19.1252L14.9208 19.2513L13.388 18.6244L14.3852 19.8708L13.9913 20.4639C13.847 20.6162 14.0064 20.7686 14.0064 20.7686L14.4127 21.047L14.8342 20.891C14.8492 20.891 14.8618 20.8947 14.8756 20.896C14.8555 20.9597 14.8292 21.2094 14.8116 21.2794L14.0803 21.1357L13.3115 21.5678C12.9163 21.8563 12.8624 22.3346 13.0092 22.6617L13.0945 22.8478L13.2161 23.11L13.4845 22.9989C13.4883 22.9977 13.4921 22.9965 13.4945 22.9939C13.398 23.3011 13.4369 23.5933 13.61 23.7857L13.773 23.9904L13.9901 24.2639L14.2284 24.0092C14.2986 23.9392 14.5257 23.6857 14.5959 23.4684L14.6473 23.3024L14.5307 23.175L14.5118 23.1525L14.6423 22.9377L15.5968 23.1613L15.8113 23.21L15.9254 23.0227L15.9882 22.9203C15.9994 22.8991 16.0032 22.8953 16.0471 22.8953C16.081 22.8953 16.1148 22.8991 16.1512 22.9065C16.5112 22.974 16.8435 23.0076 17.1383 23.0076C17.4243 23.0076 17.5949 22.9965 17.7993 22.9289C17.7993 22.9289 18.3124 23.5084 18.3299 23.531L18.0164 24.4949L18.0025 24.5536C17.408 24.6011 17.1183 24.7309 16.7683 25.0794C16.2603 24.5774 15.9003 24.5249 14.5345 24.5249C12.9 24.5249 11.7925 23.5708 11.7925 22.0473V18.3222H21.7416L21.7442 22.0473C21.7454 23.2836 21.0167 24.1453 19.869 24.4263ZM22.0201 12.3119C21.8684 12.7115 21.7416 13.1448 21.7416 13.5757L21.743 16.3554C21.1596 16.258 21.0907 15.6324 21.0881 15.605L21.0769 15.4776L20.9514 15.4663C20.6981 15.4426 20.53 15.3352 20.3883 15.1978C20.1023 14.9132 20.101 14.451 20.1023 14.4474C20.0985 14.4711 19.7874 14.9044 20.1487 15.3776C20.3004 15.5775 20.5199 15.6998 20.8047 15.7485C20.8712 16.0957 21.1308 16.5852 21.743 16.6601V18.0213H20.022C19.228 17.5817 19.5641 16.8076 19.5804 16.775L19.6482 16.6277L19.4964 16.5703C18.6372 16.253 18.8731 15.3989 18.8856 15.3627L18.9207 15.2378L18.8041 15.1828C18.0941 14.8557 18.1907 13.9728 18.1995 13.9366C17.9812 14.1127 17.9022 14.4723 18.0527 14.8245C17.9712 14.9169 17.8621 15.0293 17.7429 15.1517C17.0079 14.9656 16.9854 14.2925 16.9854 14.2613L16.984 14.1576L16.8875 14.1202C16.6003 14.014 16.4033 13.8554 16.3067 13.6419C16.1976 13.4058 16.2365 13.1586 16.2667 13.04C16.3507 13.0587 16.4347 13.0724 16.5149 13.0786C16.5977 13.0875 16.683 13.0924 16.7683 13.0924H16.7734H16.7796C16.8649 13.0924 16.949 13.0875 17.0318 13.0786C17.4895 13.0337 18.0026 12.8377 18.5369 12.3107H22.0201V12.3119ZM19.3384 9.50221L20.0182 9.89557H20.0282L20.1989 9.99421C19.815 10.1004 19.5215 10.2914 19.2757 10.5424C19.2669 10.5499 19.2582 10.5599 19.2493 10.5687C19.1929 10.6286 19.1364 10.6935 19.0838 10.7597C19.0737 10.7722 19.0637 10.7859 19.0524 10.7997C18.9997 10.8671 18.9509 10.9358 18.9031 11.0082C18.8956 11.0207 18.8868 11.0332 18.8781 11.0444C18.8216 11.1281 18.7677 11.218 18.7138 11.3105C18.2296 12.1408 17.4569 12.6366 16.7696 12.6379C16.0835 12.6366 15.3108 12.1408 14.8267 11.3105C14.774 11.2205 14.7213 11.1331 14.6648 11.0482C14.6536 11.0319 14.6435 11.0157 14.6335 11.0019C14.5859 10.9333 14.5382 10.8659 14.4893 10.8022C14.4767 10.7847 14.4654 10.7709 14.4529 10.756C14.4002 10.6922 14.3462 10.6286 14.2923 10.5699C14.2811 10.5611 14.2735 10.5499 14.2622 10.5399C14.0152 10.2889 13.7229 10.0991 13.3378 9.99421L13.5109 9.89557H13.5184L14.1983 9.50221L14.8969 9.10381L16.7633 10.1153L16.7671 10.1115L16.772 10.1153L18.6385 9.10381L19.3384 9.50221ZM18.4177 8.6643L16.9301 9.44469V6.28536L18.9483 5.60357L18.4177 8.6643ZM16.7683 5.93823L14.5557 5.06779C14.7439 4.62447 15.6118 4.24736 16.7683 4.24613C17.9261 4.24736 18.794 4.62447 18.9809 5.06779L16.7683 5.93823Z" fill="black"/>
<path d="M44.1652 19.1584V14.1582H47.1111V12.3386H39.0742V14.1582H42.0201V19.1584H44.1652ZM50.1147 12.3386H47.9696V19.1584H50.1147V12.3386ZM51.6844 12.3386V19.1584H53.6579V15.3904L57.3331 19.1584H59.1636V12.3386H57.19V16.0781L53.6007 12.3386H51.6844ZM63.3798 16.5795L65.8535 19.1584H68.6136L65.1672 15.6052L68.4846 12.3386H65.882L63.3798 14.9032H62.8076V12.3386H60.7339V19.1584H62.8076V16.5795H63.3798ZM72.8802 12.1523C70.0916 12.1523 68.4183 13.7283 68.4183 15.7628C68.4183 17.7973 70.0916 19.3733 72.8802 19.3733C75.6551 19.3733 77.3278 17.7973 77.3278 15.7628C77.3278 13.7283 75.6551 12.1523 72.8802 12.1523ZM72.8802 17.7114C71.4933 17.7114 70.6061 16.8804 70.6061 15.7628C70.6061 14.6453 71.4933 13.8286 72.8802 13.8286C74.2534 13.8286 75.1542 14.6453 75.1542 15.7628C75.1542 16.8804 74.2534 17.7114 72.8802 17.7114ZM85.1915 12.3386H78.3129V19.1584H80.3861V16.7801H84.8914V15.2757H80.3861V14.0722H85.1915V12.3386ZM92.9981 12.3386H86.1189V19.1584H88.1927V16.7801H92.698V15.2757H88.1927V14.0722H92.9981V12.3386Z" fill="white"/>
</g>
</svg>
