<svg width="75" height="25" viewBox="0 0 75 25" fill="none" xmlns="http://www.w3.org/2000/svg">
<path d="M26.6892 11.2469L27.0402 10.128L25.8789 10.1643C25.7808 10.1643 25.0677 10.1442 24.3759 9.64469C24.4274 9.64975 24.479 9.65676 24.5316 9.65676C25.2437 9.65676 25.9325 9.22979 26.2087 8.61948L26.7084 7.51677C26.0823 7.52479 25.5097 7.44624 25.5097 7.44624C25.5046 7.44524 25.0535 7.38779 24.5316 6.85712C24.1573 6.47643 23.6941 6.27501 23.1923 6.27501C22.9728 6.27501 22.7766 6.31428 22.6077 6.36768C22.634 6.27807 22.6592 6.1874 22.6735 6.09373C22.8332 5.06151 22.1656 4.27397 22.1656 4.27497L21.2927 3.19841L20.7515 4.46332C20.7495 4.46736 20.6129 4.7634 20.3681 4.90845C20.2943 4.53684 20.1133 4.11886 19.7258 3.7191C18.9955 2.96581 18.1064 2.85402 17.6411 2.85402C17.4256 2.85402 17.2719 2.8772 17.2344 2.88322L16.1804 3.08966C16.2411 2.85501 16.3706 2.44717 16.6073 2.0796L17.1889 1.17723L15.7252 1.34339L15.2589 0.357505L14.3567 0.820778L13.5222 0L12.6896 0.820778L11.7843 0.357505L11.319 1.34339L9.85637 1.17723L10.4389 2.0796C10.6757 2.44717 10.8052 2.85402 10.8649 3.08867L9.85932 2.8913L9.82497 2.88521C9.77437 2.8772 9.62168 2.85402 9.4052 2.85402C8.93987 2.85402 8.05078 2.96681 7.32242 3.7191C6.93399 4.11787 6.75295 4.53684 6.67811 4.90845C6.43537 4.76546 6.29978 4.47339 6.29978 4.47339L5.75761 3.20145L4.87054 4.28503C4.76226 4.42504 4.22721 5.16519 4.37284 6.09574C4.38804 6.18841 4.4123 6.27907 4.43861 6.36868C4.2707 6.31529 4.07444 6.27601 3.85497 6.27601C3.35324 6.27601 2.88997 6.47743 2.5147 6.85812C1.99471 7.38683 1.5456 7.44624 1.54969 7.44624C1.54969 7.44624 1.07526 7.53085 0.340903 7.51772L0.837551 8.62048C1.11373 9.23174 1.80354 9.65777 2.5147 9.65777C2.56831 9.65777 2.61987 9.6507 2.67249 9.64569C1.98262 10.1452 1.26948 10.1653 1.18348 10.1663L0 10.128L0.358089 11.2459C0.538158 11.8219 1.13998 12.7766 2.29318 12.8793C2.16771 13.403 1.88954 13.9891 1.2786 14.242L0.397554 14.6035L0.878003 15.4363C1.1491 15.8855 1.78536 16.4111 2.69166 16.4111C2.88792 16.4101 3.07705 16.391 3.25917 16.3527C3.30571 16.5582 3.36434 16.7636 3.43316 16.9671C3.7032 17.7667 3.47057 18.3246 3.46753 18.3306L3.03256 19.238L4.00364 19.4928C4.0158 19.4968 4.30911 19.5764 4.67632 19.5764C4.84324 19.5764 5.00201 19.5592 5.15175 19.524C5.26499 19.4978 5.37328 19.4626 5.47743 19.4203C5.60287 19.6448 5.75561 19.8493 5.93365 20.0325C6.55576 20.668 7.43681 20.9903 8.5535 20.9903H8.55755L9.35465 20.9802L7.70785 21.661L8.95812 22.2622C9.4123 22.4828 9.95141 22.7436 10.4997 22.943L10.3439 23.368L10.7748 23.5634C10.8132 23.5804 11.6417 23.9501 13.0194 24.0286C13.0194 24.0286 13.3522 24.0437 13.5353 24.0437C13.7183 24.0437 14.0471 24.0275 14.0471 24.0275C15.4157 23.9471 16.238 23.5814 16.2765 23.5634L16.7084 23.3669L16.5506 22.9409C17.1151 22.7355 17.6734 22.4646 18.1084 22.2532L19.3354 21.66L17.6936 20.9782L18.4938 20.9882C19.6115 20.9882 20.4936 20.666 21.1146 20.0295C21.2916 19.8472 21.4444 19.6428 21.5709 19.4183C21.6751 19.4605 21.7843 19.4958 21.8976 19.522C22.0463 19.5572 22.2051 19.5743 22.372 19.5743C22.7331 19.5743 23.0295 19.4948 23.0375 19.4928L24.0127 19.2359L23.5878 18.3457C23.5777 18.3226 23.3451 17.7657 23.6152 16.965C23.6839 16.7606 23.7416 16.5552 23.7881 16.3507C23.9712 16.389 24.1624 16.4091 24.3597 16.4091C25.5137 16.4091 26.0671 15.6004 26.1743 15.4253L26.6497 14.6014L25.7687 14.241C25.1567 13.9881 24.8796 13.401 24.7551 12.8783C25.8921 12.7817 26.503 11.827 26.6892 11.2469ZM10.9417 3.47438L10.9296 3.47736L10.9397 3.46432L10.9417 3.47438Z" fill="white"/>
<path d="M13.5412 21.9784H13.5391H13.5239H13.5067H13.5057C12.9402 21.9824 12.1624 21.8666 11.7871 21.7578L11.3359 22.9733C11.6334 23.0791 12.6409 23.2805 13.5239 23.2805C14.405 23.2805 15.4135 23.0781 15.7098 22.9733L15.2597 21.7578C14.8834 21.8676 14.1065 21.9824 13.5412 21.9784Z" fill="white"/>
<path d="M16.955 20.7695C16.6191 20.9589 15.8696 21.2428 15.4336 21.3748L15.7998 22.3788C16.4744 22.1955 17.0307 21.981 17.4911 21.7514L16.7314 21.4996L16.955 20.7695Z" fill="white"/>
<path d="M10.0908 20.7695L10.3153 21.4996L9.55469 21.7514C10.0139 21.981 10.5733 22.1955 11.2449 22.3788L11.6111 21.3748C11.1771 21.2428 10.4266 20.9579 10.0908 20.7695Z" fill="white"/>
<path d="M24.2573 8.77921C24.3484 8.81047 24.4414 8.8246 24.5335 8.8246C24.9309 8.8246 25.3154 8.56873 25.4479 8.27575C25.4479 8.27575 24.7185 8.23142 23.9346 7.43888C23.6848 7.18201 23.4208 7.10547 23.1942 7.10547C22.8422 7.10547 22.5781 7.29076 22.5781 7.29076C23.525 7.79232 23.7181 8.59793 24.2573 8.77921Z" fill="white"/>
<path d="M2.51109 8.8246C2.60311 8.8246 2.69619 8.81047 2.78523 8.77921C3.32636 8.59793 3.52058 7.79232 4.4674 7.29076C4.4674 7.29076 4.20232 7.10547 3.85236 7.10547C3.62476 7.10547 3.36074 7.18201 3.10987 7.43888C2.32699 8.23142 1.59766 8.27575 1.59766 8.27575C1.72814 8.56873 2.11354 8.8246 2.51109 8.8246Z" fill="white"/>
<path d="M24.5118 12.0562C24.528 12.0572 24.5421 12.0572 24.5593 12.0572C25.5516 12.0572 25.8885 10.9988 25.8885 10.9988H25.8692C25.6872 10.9988 24.2113 10.9565 23.1684 9.63623C22.4816 8.76815 21.9192 8.00476 20.8075 7.70472L20.6983 7.68558L20.674 7.57478C20.6436 7.40552 20.76 7.24743 21.024 7.07627C22.5575 6.07625 21.5166 4.80128 21.5166 4.80128C21.5166 4.80128 21.0786 5.82149 20.0985 5.82149C20.0752 5.82149 20.0499 5.82049 20.0256 5.82049C19.9144 5.81438 19.8071 5.81032 19.6989 5.78723L19.5178 5.75201C19.5178 5.75201 19.797 4.99566 19.1233 4.30078C18.6155 3.77612 17.9975 3.6875 17.6404 3.6875C17.4603 3.6875 17.346 3.71061 17.346 3.71061C17.6849 4.15176 17.9297 4.88287 17.5383 5.334C17.2005 5.72171 16.375 5.74089 16.375 6.3189C16.375 6.56364 16.6046 6.84966 17.0173 7.10643C18.2585 7.88489 19.4905 8.91717 20.0023 10.3009C20.6426 12.027 19.9214 13.1721 18.8918 13.8287C18.8918 13.8287 19.2144 14.1247 19.6828 14.162C19.7778 14.1711 19.8709 14.1751 19.9579 14.1751C20.9461 14.1751 21.4569 13.7138 21.4569 13.7138C21.4569 13.7138 21.373 14.3514 20.8581 14.9435C20.3837 15.4903 19.7606 15.8116 18.8108 15.8256C18.8108 15.8256 18.7804 16.2647 19.2012 16.6444C19.4703 16.8841 20.0924 16.9626 20.0924 16.9626C20.0924 16.9626 18.9281 17.1973 18.7997 18.9093C18.7299 19.8368 18.4921 20.159 18.4921 20.159H18.5134C21.2152 20.159 21.1454 17.8519 21.1454 17.8519C21.1454 17.8519 21.3335 18.5346 22.0871 18.7129C22.1781 18.7371 22.2753 18.7461 22.3683 18.7461C22.6111 18.7461 22.8215 18.6897 22.8215 18.6897C22.8215 18.6897 22.427 17.8609 22.8184 16.7018C23.1432 15.74 23.0906 15.0271 23.0906 15.0271C23.0906 15.0271 23.4547 15.5749 24.357 15.5799H24.3661C25.1177 15.5799 25.4454 15.013 25.4454 15.013C23.6439 14.2688 23.8219 11.8659 23.8219 11.8659C23.8219 11.8659 24.0556 12.039 24.5118 12.0562ZM23.9696 14.5658C23.2372 14.2063 22.7739 13.2516 22.6617 12.9072C22.5402 14.8004 21.6117 16.1147 20.5263 17.3795C19.9629 18.0352 19.7667 18.6727 19.7667 18.6727C19.7667 18.6727 19.8749 17.9506 20.3624 17.3624C21.375 16.1509 22.337 14.6433 22.4088 12.9001C22.4583 11.6836 22.1438 10.6967 21.6532 9.88398C21.9273 10.7309 21.8889 11.7682 20.9572 12.736C20.9572 12.736 22.8114 10.5234 20.2188 8.25552C19.181 7.3925 18.0461 6.85973 17.4614 6.48209C19.5735 7.16789 20.6043 6.41257 20.6043 6.41257C19.9295 6.99468 19.0566 6.98461 18.5154 6.901C18.6621 6.97253 18.8149 7.04702 18.9797 7.13468C20.76 8.09743 22.3602 9.68151 22.6333 11.876V11.8588C23.0481 14.0129 23.9696 14.5658 23.9696 14.5658Z" fill="white"/>
<path d="M6.95231 16.9626C6.95231 16.9626 7.57442 16.8851 7.84351 16.6444C8.26323 16.2647 8.23398 15.8256 8.23398 15.8256C7.28314 15.8126 6.66103 15.4903 6.1836 14.9445C5.67273 14.3523 5.58779 13.7148 5.58779 13.7148C5.58779 13.7148 6.09856 14.1761 7.08585 14.1761C7.17489 14.1761 7.26694 14.172 7.36198 14.163C7.83036 14.1257 8.15404 13.8297 8.15404 13.8297C7.12425 13.1731 6.40209 12.027 7.04135 10.3009C7.55422 8.91817 8.7852 7.88489 10.0264 7.10643C10.4391 6.84966 10.6687 6.56469 10.6687 6.3189C10.6687 5.74089 9.84429 5.72171 9.50641 5.334C9.11503 4.88287 9.36082 4.15071 9.69865 3.71061C9.69865 3.71061 9.58635 3.6875 9.40526 3.6875C9.04923 3.6875 8.43117 3.77612 7.9234 4.30078C7.24769 4.99566 7.52792 5.75201 7.52792 5.75201L7.34683 5.78723C7.23864 5.81032 7.13035 5.81438 7.0201 5.82049C6.99485 5.82049 6.97256 5.82149 6.94831 5.82149C5.96612 5.82149 5.53014 4.80227 5.53014 4.80227C5.53014 4.80227 4.48926 6.07726 6.02171 7.07723C6.28575 7.24844 6.40109 7.40662 6.37074 7.57573L6.34639 7.68653L6.23515 7.70567C5.12552 8.00576 4.56211 8.76915 3.87528 9.63718C2.83439 10.9555 1.36058 10.9988 1.17655 10.9988H1.15625C1.15625 10.9988 1.49313 12.0572 2.48542 12.0572C2.50162 12.0572 2.51576 12.0572 2.53295 12.0562C2.98914 12.0401 3.22381 11.8659 3.22381 11.8659C3.22381 11.8659 3.39985 14.2678 1.60034 15.013C1.60034 15.013 1.92809 15.5799 2.67964 15.5799H2.68876C3.59202 15.5749 3.9552 15.0271 3.9552 15.0271C3.9552 15.0271 3.90258 15.74 4.22629 16.7018C4.6177 17.8609 4.22524 18.6897 4.22524 18.6897C4.22524 18.6897 4.43565 18.7461 4.6774 18.7461C4.77146 18.7461 4.86758 18.7371 4.95762 18.7129C5.71013 18.5346 5.89932 17.8519 5.89932 17.8519C5.89932 17.8519 5.83052 20.159 8.53236 20.159H8.55151C8.55151 20.159 8.31488 19.8368 8.24608 18.9093C8.11664 17.1973 6.95231 16.9626 6.95231 16.9626ZM6.51843 17.3795C5.43305 16.1147 4.50546 14.8004 4.38303 12.9072C4.27079 13.2506 3.8095 14.2063 3.0772 14.5658C3.0772 14.5658 3.99764 14.0129 4.41139 11.8588V11.876C4.68553 9.68256 6.28475 8.09743 8.06599 7.13468C8.22888 7.04607 8.38362 6.97153 8.52931 6.901C7.98815 6.98461 7.1152 6.99468 6.44049 6.41257C6.44049 6.41257 7.47123 7.16789 9.5823 6.48209C8.99769 6.85973 7.8637 7.3925 6.82587 8.25552C4.23231 10.5234 6.08746 12.736 6.08746 12.736C5.15486 11.7672 5.11747 10.7309 5.39155 9.88398C4.89997 10.6977 4.58637 11.6836 4.63694 12.9001C4.70774 14.6433 5.66968 16.1509 6.68022 17.3624C7.16884 17.9496 7.27909 18.6727 7.27909 18.6727C7.27909 18.6727 7.08075 18.0352 6.51843 17.3795Z" fill="white"/>
<path d="M11.5237 8.52991C11.5682 8.57729 11.6117 8.62859 11.6532 8.67998C11.6633 8.69205 11.6724 8.70317 11.6825 8.7173C11.7209 8.76859 11.7604 8.82299 11.7978 8.87834C11.8059 8.88946 11.814 8.90253 11.8231 8.91566C11.8686 8.98413 11.9111 9.05456 11.9536 9.12709C12.343 9.79681 12.9672 10.1966 13.5204 10.1976C14.0748 10.1966 14.6969 9.79681 15.0883 9.12709C15.1318 9.05261 15.1753 8.98008 15.2208 8.9126C15.2279 8.90253 15.235 8.89352 15.241 8.8834C15.2795 8.82604 15.32 8.76959 15.3625 8.71524C15.3715 8.70317 15.3796 8.6931 15.3877 8.68303C15.4312 8.62964 15.4757 8.57729 15.5213 8.5289C15.5293 8.52084 15.5354 8.51383 15.5425 8.50782C15.7407 8.30535 15.9774 8.15127 16.2869 8.06566L16.1494 7.98612H16.1413L15.593 7.66889L15.0297 7.34766L13.5245 8.16334L13.5204 8.16033L13.5174 8.16334L12.0112 7.34766L11.4489 7.66789L10.8996 7.98512H10.8935L10.7539 8.06466C11.0644 8.15027 11.3001 8.30234 11.4994 8.50476C11.5085 8.51283 11.5146 8.52189 11.5237 8.52991ZM12.9115 8.46449H13.5487H14.185V8.89953C14.0354 8.7173 13.744 8.75451 13.744 8.75451V9.38191C13.744 9.38191 13.7551 9.69007 13.8633 9.82406H13.5487H13.2332C13.3434 9.69112 13.3536 9.38191 13.3536 9.38191V8.75451C13.3536 8.75451 13.0632 8.7173 12.9115 8.89953V8.46449Z" fill="white"/>
<path d="M13.3942 7.61619V5.06936L11.7656 4.51953L12.1955 6.98785L13.3942 7.61619ZM13.0442 5.69474V6.10359L12.9653 6.06737C12.9613 6.06432 12.846 6.03817 12.6436 5.87903C12.3098 5.62126 12.3038 5.38358 12.3038 5.38358L13.0442 5.69474Z" fill="white"/>
<path d="M14.852 6.98785L15.2799 4.51953L13.6523 5.06936V7.61619L14.852 6.98785ZM14.0024 5.69474L14.7427 5.38453C14.7427 5.38453 14.7367 5.62226 14.4019 5.88008C14.2006 6.03917 14.0843 6.06532 14.0802 6.06837L14.0013 6.10459V5.69474H14.0024Z" fill="white"/>
<path d="M11.091 13.5197C11.2498 13.5772 11.442 13.5893 11.5401 13.5893C11.5442 13.5772 11.5492 13.562 11.5543 13.5439C11.5634 13.5147 11.5715 13.4866 11.5776 13.4543C11.6049 13.3133 11.615 13.1532 11.617 13.0504C11.5502 13.0092 11.4562 12.9357 11.4036 12.8259C11.3429 12.699 11.2569 12.6406 11.1305 12.6406C10.9666 12.6406 10.7906 12.7383 10.7157 12.7846C10.6561 13.1361 10.916 13.4553 11.091 13.5197Z" fill="white"/>
<path d="M14.6903 12.168C14.3879 12.4953 13.7961 13.0654 13.7667 13.0946L13.7313 13.1308L11.8611 13.1016C11.86 13.2859 11.8297 13.443 11.8004 13.5578C11.7953 13.5769 11.7903 13.597 11.7852 13.6172L14.0105 14.015C14.2422 13.8538 14.8794 13.3906 15.1263 13.2093C14.9462 12.9475 14.929 12.6373 14.9694 12.4188C14.8521 12.3432 14.7621 12.2586 14.6903 12.168Z" fill="white"/>
<path d="M14.9463 9.92884C14.5153 10.3548 14.1016 10.5119 13.7325 10.5482C13.6657 10.5552 13.5979 10.5593 13.5291 10.5593H13.524H13.52C13.4512 10.5593 13.3824 10.5552 13.3156 10.5482C13.2509 10.5421 13.1832 10.532 13.1155 10.517C13.0911 10.6126 13.0608 10.813 13.1477 11.0023C13.2256 11.1746 13.3845 11.3024 13.6161 11.3871L13.694 11.4172L13.695 11.5008C13.695 11.526 13.7132 12.0678 14.307 12.2178C14.4041 12.1182 14.4921 12.0286 14.5569 11.9541C14.4354 11.6701 14.4991 11.38 14.6752 11.238C14.6671 11.2682 14.5902 11.9792 15.1628 12.2431L15.2568 12.2874L15.2285 12.3871C15.2193 12.4173 15.0282 13.1051 15.7211 13.3609L15.8435 13.4072L15.7888 13.5261C15.7767 13.5522 15.5047 14.1767 16.145 14.5311H17.5337V13.4334C17.0402 13.3729 16.8307 12.9782 16.7771 12.6983C16.5476 12.659 16.3695 12.5603 16.2481 12.3992C15.9567 12.0175 16.2076 11.668 16.2107 11.6489C16.2097 11.6519 16.2107 12.0245 16.4413 12.2541C16.5556 12.3649 16.6912 12.4505 16.8965 12.4697L16.9976 12.4787L17.0068 12.5815C17.0087 12.6035 17.0644 13.1071 17.5347 13.1867L17.5337 10.9449C17.5337 10.5975 17.6359 10.2481 17.7583 9.92578H14.9463V9.92884Z" fill="white"/>
<path d="M11.2093 10.9557L11.1719 12.3836L11.3347 12.4078L11.7332 11.0382L11.531 10.6172L11.2093 10.9557Z" fill="white"/>
<path d="M15.6012 17.5053C15.6134 17.5053 15.6275 17.5073 15.6407 17.5104C15.8885 17.5808 15.9512 18.4711 16.3861 18.5507C16.4286 18.5597 16.4681 18.5617 16.5025 18.5617C16.6279 18.5617 16.7028 18.5083 16.7836 18.4137C16.7836 18.4137 16.5652 18.0713 16.4013 17.8406C16.1838 17.5386 16.0149 17.1729 15.6103 17.1729C15.6012 17.1729 15.5891 17.1729 15.579 17.1739C15.4454 17.1811 15.3635 17.2455 15.3635 17.2455C15.1996 17.1428 15.0469 17.1075 14.9083 17.1075C14.6544 17.1075 14.4572 17.2233 14.359 17.2233H14.355L13.4506 17.1347C13.309 17.1217 13.1978 16.9796 13.1574 16.9242C13.1473 16.9091 13.1422 16.9 13.1422 16.9C13.1422 16.8759 13.1422 16.8507 13.1402 16.8286C13.1098 16.0924 12.5373 15.7772 12.334 15.7721C12.334 15.7721 12.3582 15.6321 12.3026 15.5787L12.1033 15.8194L11.4489 15.4922L11.9152 16.035L11.5197 16.4771C11.4701 16.5274 11.4762 16.5959 11.4964 16.6241L11.6673 16.7742L11.8838 16.6433C11.8949 16.6352 11.9142 16.6332 11.9384 16.6332C11.9981 16.6332 12.0882 16.6483 12.1691 16.6483C12.2571 16.6483 12.334 16.6292 12.3431 16.5466C12.3158 16.8195 12.0619 17.2938 12.2288 17.6664L12.3522 17.9474L11.5531 17.8326L11.1788 18.462C11.0635 18.6715 11.0453 18.8981 11.1566 19.021L11.2961 19.1951C11.2961 19.1951 11.4924 18.9877 11.5369 18.8517L11.4731 18.7823C11.4195 18.7239 11.4226 18.6715 11.455 18.608L11.6896 18.2203L12.6333 18.4419L12.6829 18.3573C12.7466 18.2515 12.8387 18.2193 12.9399 18.2193C12.9813 18.2193 13.0238 18.2244 13.0683 18.2314C13.2434 18.2656 13.5316 18.312 13.8199 18.312C14.1365 18.312 14.4501 18.2556 14.6169 18.0692C14.9589 18.5738 15.6518 18.6544 15.5972 18.9102L15.4151 19.7743C15.5355 19.7692 15.6518 19.7612 15.762 19.746L15.935 18.8467C15.9542 18.749 15.9724 18.6171 15.9724 18.6171C15.9056 18.5496 15.7439 18.4066 15.6528 18.2334C15.5304 17.9997 15.5972 17.8779 15.4829 17.5738C15.4869 17.5758 15.5213 17.5053 15.6012 17.5053ZM12.071 16.2425C12.0244 16.2415 11.9911 16.2022 11.993 16.1558C11.9971 16.1115 12.0346 16.0763 12.08 16.0803C12.1266 16.0823 12.16 16.1226 12.158 16.1669C12.1539 16.2112 12.1155 16.2455 12.071 16.2425Z" fill="white"/>
<path d="M10.7848 18.3216C10.7848 18.3216 11.0973 18.1937 11.1256 18.102L11.0842 17.9983C11.0548 17.9308 11.0589 17.8573 11.1155 17.817L11.4534 17.5844L12.0178 17.6921C12.0178 17.6921 11.9156 17.5652 11.9258 17.3951L11.3877 17.2812L10.8798 17.5894C10.6623 17.7516 10.6461 18.0164 10.718 18.1736L10.7848 18.3216Z" fill="white"/>
<path d="M14.7734 19.7877C14.8746 19.7836 14.9858 19.7816 15.1083 19.7816C15.1083 19.7816 15.3986 18.9367 15.4147 18.9095C15.2519 18.838 14.914 18.6597 14.7835 18.5781C14.8695 18.7061 15.0789 18.8531 15.0375 18.9659L14.7734 19.7877Z" fill="white"/>
<path d="M17.5362 14.7773H9.51172V17.7824C9.51172 19.011 10.405 19.7804 11.7229 19.7804C12.8245 19.7804 13.1148 19.8227 13.5245 20.2276C13.8067 19.9476 14.0404 19.8429 14.5198 19.8036L14.5309 19.7573L14.7838 18.9788C14.7697 18.9617 14.356 18.4934 14.356 18.4934C14.1921 18.5478 14.0546 18.5568 13.8229 18.5568C13.5852 18.5568 13.3171 18.5297 13.0268 18.4753C12.9975 18.4682 12.9702 18.4662 12.9428 18.4662C12.9074 18.4662 12.9044 18.4692 12.8953 18.4863L12.8447 18.5689L12.7527 18.72L12.5797 18.6807L11.8099 18.5005L11.7047 18.6736L11.7209 18.6918L11.815 18.7945L11.7735 18.9284C11.7168 19.1037 11.5327 19.3081 11.4772 19.3645L11.2849 19.5699L11.11 19.3494L10.9785 19.1853C10.8398 19.0312 10.8075 18.7945 10.8854 18.5468C10.8833 18.5488 10.8803 18.5498 10.8773 18.5498L10.6599 18.6394L10.5617 18.4279L10.4929 18.2779C10.3746 18.014 10.418 17.6284 10.7367 17.3957L11.3568 17.0473L11.9465 17.1631C11.9607 17.1067 11.9819 16.9053 11.9991 16.8539C11.988 16.8529 11.9769 16.8499 11.9657 16.8499L11.6258 16.9757L11.2981 16.7502C11.2981 16.7502 11.1696 16.6273 11.2859 16.5044L11.6035 16.0261L10.7994 15.021L12.0355 15.5266L12.1175 15.4248L12.2843 15.2265L12.4735 15.4057C12.5271 15.4571 12.5574 15.5205 12.5726 15.584C12.9135 15.7159 13.5234 16.1056 13.577 16.7391L13.3859 16.8157V16.8207C13.4294 16.872 13.4658 16.8931 13.4769 16.8952L14.359 16.9818C14.3812 16.9778 14.4096 16.9677 14.4409 16.9587C14.5502 16.9213 14.7151 16.868 14.9102 16.868C15.0691 16.868 15.2228 16.9043 15.3705 16.9727C15.4251 16.9526 15.4919 16.9375 15.5688 16.9324L15.6112 16.9314C16.0836 16.9314 16.3183 17.2829 16.5065 17.5629C16.5378 17.6112 16.5692 17.6576 16.6015 17.7029C16.7664 17.9345 16.9818 18.2739 16.991 18.2879L17.0881 18.439L16.9687 18.577C16.8767 18.6828 16.7391 18.8066 16.5024 18.8066C16.4539 18.8066 16.4003 18.8016 16.3426 18.7905C16.2921 18.7814 16.2465 18.7663 16.202 18.7482C16.1949 18.7945 16.1858 18.8499 16.1767 18.8972L16.0219 19.7009C16.9475 19.4743 17.5352 18.7784 17.5352 17.7834L17.5362 14.7773Z" fill="#FFDD2D"/>
<path d="M9.51155 14.5331H15.7517C15.4401 14.2129 15.4442 13.807 15.5241 13.5432C15.433 13.4998 15.3582 13.4474 15.2915 13.3911C15.0477 13.5703 14.3032 14.1101 14.109 14.245L14.0675 14.2733L11.6186 13.8322H11.569C11.5104 13.8322 11.4244 13.8302 11.3303 13.8191C11.304 13.9289 11.2089 14.0044 11.0997 14.0044C11.0875 14.0044 11.0734 14.0034 11.0602 14.0003C10.9965 13.9893 10.9409 13.957 10.9035 13.9037C10.865 13.8513 10.8499 13.7889 10.861 13.7244L10.8701 13.672C10.6172 13.4948 10.3845 13.099 10.4877 12.6821L10.4978 12.6378L10.5332 12.6126C10.5383 12.6086 10.5807 12.5804 10.6435 12.5441L10.4654 12.5169C10.3987 12.5049 10.3542 12.4434 10.3643 12.378C10.3754 12.3115 10.4381 12.2642 10.5039 12.2773L10.9277 12.3437L10.9662 10.8573L11.5974 10.1926L11.9909 11.0175L11.5751 12.4475L11.9494 12.5059C12.0151 12.5159 12.0606 12.5774 12.0505 12.6448C12.0404 12.7042 11.9899 12.7456 11.9302 12.7456C11.9241 12.7456 11.917 12.7456 11.9109 12.7446L11.6064 12.6952C11.6105 12.7042 11.6165 12.7093 11.6206 12.7194C11.653 12.7858 11.7248 12.8342 11.7673 12.8543L13.6346 12.8835C13.7135 12.807 13.9097 12.6156 14.111 12.4132C13.6518 12.24 13.4849 11.8452 13.4565 11.5834C13.1996 11.4746 13.0226 11.3115 12.9245 11.099C12.8051 10.8362 12.8476 10.5733 12.8789 10.4454C12.6301 10.3548 12.3682 10.1897 12.1011 9.92578H9.28906C9.40946 10.2481 9.51155 10.5975 9.51155 10.9449V14.5331Z" fill="#FFDD2D"/>
<path d="M12.0794 16.0823C12.0338 16.0783 11.9954 16.1135 11.9924 16.1578C11.9893 16.2041 12.0237 16.2434 12.0703 16.2444C12.1147 16.2485 12.1542 16.2142 12.1582 16.1689C12.1582 16.1246 12.1259 16.0833 12.0794 16.0823Z" fill="black"/>
<path d="M17.5249 21.5296L17.0626 21.3533L17.1901 20.878L17.3307 20.3594C17.3307 20.3594 16.5113 20.8014 15.3572 21.1338C15.0295 21.2274 14.7816 21.2697 14.7816 21.2697V21.6222C14.7816 21.6222 14.1646 21.729 13.5405 21.729H13.5333H13.5243H13.5121H13.505C12.881 21.729 12.2639 21.6222 12.2639 21.6222V21.2697C12.2639 21.2697 12.015 21.2274 11.6884 21.1338C10.5342 20.8014 9.71587 20.3594 9.71587 20.3594L9.85441 20.878L9.98491 21.3533L9.52163 21.5296L9.00781 21.7209C9.59753 22.0039 10.4138 22.4168 11.1614 22.6202L10.9853 23.0996C10.9853 23.0996 11.9331 23.5296 13.5121 23.5336V23.5347H13.5172H13.5243H13.5304H13.5344V23.5336C15.1155 23.5296 16.0622 23.0996 16.0622 23.0996L15.8852 22.6202C16.6327 22.4168 17.4511 22.0039 18.0377 21.7209L17.5249 21.5296ZM9.55603 21.7532L10.3167 21.5014L10.0921 20.7712C10.4269 20.9606 11.1786 21.2446 11.6135 21.3765L11.2463 22.3806C10.5746 22.1962 10.0153 21.9817 9.55603 21.7532ZM13.5243 23.2818C12.6412 23.2818 11.6327 23.0795 11.3364 22.9747L11.7875 21.7592C12.1617 21.8679 12.9406 21.9838 13.506 21.9797H13.5071H13.5243H13.5394H13.5415C14.107 21.9838 14.8838 21.8679 15.2601 21.7592L15.7102 22.9747C15.4138 23.0805 14.4063 23.2818 13.5243 23.2818ZM15.8002 22.3806L15.4341 21.3765C15.87 21.2446 16.6195 20.9606 16.9554 20.7712L16.7319 21.5014L17.4915 21.7532C17.0312 21.9817 16.4749 22.1962 15.8002 22.3806Z" fill="black"/>
<path d="M24.5587 12.3786C25.7757 12.3786 26.1823 11.146 26.1994 11.0936L26.335 10.6595L25.8788 10.6736H25.8768C25.716 10.6736 24.3737 10.6384 23.4218 9.43394L23.3318 9.32213C22.7097 8.5346 22.12 7.78634 21.0659 7.44492C21.0963 7.41777 21.1398 7.38351 21.1995 7.34524C21.7589 6.97867 22.0846 6.53356 22.1665 6.01697C22.2859 5.23951 21.7882 4.62012 21.766 4.59495L21.4271 4.17803L21.2157 4.6725C21.2015 4.70369 20.8454 5.49527 20.0969 5.49527H20.0413C19.9897 5.49222 19.9411 5.49021 19.8926 5.48621C19.9189 5.13271 19.8541 4.58587 19.3565 4.07333C18.7586 3.45594 18.0243 3.36328 17.6399 3.36328C17.4346 3.36328 17.2981 3.38852 17.2838 3.3905L16.772 3.49124L17.0876 3.9051C17.3355 4.22433 17.56 4.8135 17.294 5.12164C17.209 5.21937 17.034 5.29892 16.8661 5.37846C16.5212 5.5366 16.0508 5.7561 16.0508 6.31607C16.0508 6.67858 16.333 7.05721 16.8448 7.3795C18.3601 8.32818 19.2947 9.31808 19.6984 10.4107C20.3225 12.0916 19.5082 13.0503 18.7172 13.5548L18.3621 13.7824L18.6727 14.0664C18.7141 14.1027 19.0945 14.436 19.6559 14.4844C19.7621 14.4914 19.8642 14.4975 19.9594 14.4975C20.3194 14.4975 20.626 14.441 20.8748 14.3656C20.806 14.4854 20.722 14.6072 20.6158 14.7301C20.1637 15.2518 19.6073 15.4894 18.8072 15.5015L18.5098 15.5065L18.4865 15.8036C18.4835 15.8631 18.4613 16.4139 18.9852 16.8822C19.0652 16.9547 19.1623 17.0141 19.2634 17.0635C18.9084 17.3817 18.5472 17.9355 18.4775 18.8852C18.4188 19.6778 18.2286 19.9709 18.2266 19.9739L17.8979 20.4734L18.4916 20.4814C19.4728 20.4814 20.2244 20.2115 20.7453 19.6778C21.0528 19.3615 21.2288 19.0051 21.333 18.6889C21.504 18.8339 21.7245 18.9608 22.0117 19.0282C22.121 19.0534 22.2404 19.0675 22.3688 19.0675C22.646 19.0675 22.8776 19.0091 22.9039 19.003L23.2833 18.9024L23.1153 18.5499C23.1032 18.5217 22.7866 17.8147 23.1274 16.8056C23.2741 16.3696 23.349 15.9788 23.3854 15.6747C23.6241 15.7986 23.9438 15.9012 24.3575 15.9024C25.2961 15.9024 25.7099 15.2044 25.7291 15.1752L25.9142 14.855L25.5713 14.714C24.4526 14.2517 24.2048 13.01 24.1552 12.3373C24.2563 12.3564 24.3717 12.3746 24.5021 12.3786H24.5587ZM25.4459 15.011C25.4459 15.011 25.1181 15.578 24.3666 15.578H24.3575C23.4552 15.573 23.091 15.0251 23.091 15.0251C23.091 15.0251 23.1436 15.7382 22.8179 16.7C22.4265 17.859 22.821 18.6879 22.821 18.6879C22.821 18.6879 22.6106 18.7442 22.3678 18.7442C22.2748 18.7442 22.1776 18.7352 22.0866 18.711C21.333 18.5327 21.1449 17.85 21.1449 17.85C21.1449 17.85 21.2146 20.1571 18.5128 20.1571H18.4916C18.4916 20.1571 18.7293 19.8349 18.8001 18.9074C18.9286 17.1954 20.0929 16.9607 20.0929 16.9607C20.0929 16.9607 19.4718 16.8832 19.2027 16.6425C18.7819 16.2628 18.8112 15.8238 18.8112 15.8238C19.7621 15.8107 20.3842 15.4884 20.8586 14.9416C21.3725 14.3494 21.4574 13.7119 21.4574 13.7119C21.4574 13.7119 20.9465 14.1732 19.9584 14.1732C19.8714 14.1732 19.7783 14.1691 19.6832 14.1601C19.2158 14.1228 18.8922 13.8267 18.8922 13.8267C19.9209 13.1701 20.6432 12.0241 20.0029 10.298C19.49 8.91529 18.258 7.88201 17.0178 7.1036C16.6051 6.84673 16.3755 6.56176 16.3755 6.31607C16.3755 5.73802 17.2009 5.71983 17.5398 5.33118C17.9302 4.87993 17.6854 4.14783 17.3466 3.70774C17.3466 3.70774 17.4609 3.68456 17.6409 3.68456C17.998 3.68456 18.616 3.77417 19.1238 4.29785C19.7985 4.99272 19.5183 5.74904 19.5183 5.74904L19.6994 5.7843C19.8077 5.80749 19.9149 5.8115 20.0261 5.81656C20.0504 5.81656 20.0746 5.81756 20.0989 5.81756C21.0791 5.81756 21.5171 4.79734 21.5171 4.79734C21.5171 4.79734 22.559 6.07332 21.0255 7.07234C20.7615 7.2435 20.6451 7.40169 20.6755 7.57085L20.6998 7.68165L20.809 7.70079C21.9207 8.00083 22.4831 8.76422 23.1699 9.6323C24.2128 10.9525 25.6887 10.9949 25.8707 10.9949H25.89C25.89 10.9949 25.5531 12.0533 24.5608 12.0533C24.5446 12.0533 24.5304 12.0533 24.5132 12.0523C24.0571 12.0362 23.8234 11.862 23.8234 11.862C23.8234 11.862 23.6444 14.2658 25.4459 15.011Z" fill="black"/>
<path d="M22.4205 7.5769C22.8746 7.81753 23.1387 8.13982 23.3703 8.42589C23.5979 8.70485 23.8144 8.97363 24.1521 9.08544C24.2725 9.12676 24.4 9.1459 24.5295 9.1459C25.0372 9.1459 25.5471 8.83669 25.7403 8.40871L25.9345 7.97968L25.4642 7.95153C25.4419 7.95048 24.837 7.89608 24.1633 7.21028C23.8862 6.92937 23.5513 6.78125 23.1902 6.78125C22.7492 6.78125 22.4224 7.0008 22.386 7.02299L21.9531 7.32614L22.4205 7.5769ZM23.1913 7.10559C23.4178 7.10559 23.6818 7.18208 23.9317 7.4389C24.7156 8.23149 25.4449 8.27577 25.4449 8.27577C25.3124 8.56785 24.928 8.82461 24.5305 8.82461C24.4385 8.82461 24.3464 8.81054 24.2543 8.77933C23.7152 8.59805 23.522 7.79239 22.5742 7.29088C22.5742 7.29088 22.8393 7.10559 23.1913 7.10559Z" fill="black"/>
<path d="M22.6368 11.8574V11.8735C22.3637 9.6801 20.7635 8.09597 18.9832 7.13217C18.8183 7.04456 18.6666 6.97007 18.5189 6.89854C19.0611 6.9821 19.934 6.99216 20.6077 6.41016C20.6077 6.41016 19.5769 7.16543 17.4648 6.47963C18.0496 6.85727 19.1855 7.39004 20.2223 8.25306C22.8149 10.5209 20.9597 12.7335 20.9597 12.7335C21.8913 11.7657 21.9297 10.7285 21.6557 9.88152C22.1462 10.6942 22.4598 11.6811 22.4112 12.8977C22.3395 14.6409 21.3775 16.1484 20.3649 17.36C19.8784 17.9481 19.7692 18.6702 19.7692 18.6702C19.7692 18.6702 19.9653 18.0326 20.5288 17.3771C21.6142 16.1122 22.5417 14.798 22.6631 12.9047C22.7754 13.2481 23.2377 14.2038 23.971 14.5633C23.973 14.5644 23.0515 14.0115 22.6368 11.8574Z" fill="black"/>
<path d="M8.81842 19.9699C8.81742 19.9669 8.62929 19.6739 8.56864 18.8813C8.49784 17.9316 8.13766 17.3778 7.78164 17.0596C7.88483 17.0112 7.97987 16.9518 8.05982 16.8783C8.58279 16.41 8.56049 15.8591 8.55744 15.7997L8.53724 15.5026L8.23781 15.4975C7.43976 15.4845 6.88234 15.2468 6.43021 14.7262C6.32502 14.6033 6.24008 14.4815 6.17128 14.3616C6.42006 14.4371 6.72455 14.4935 7.08568 14.4935C7.18282 14.4935 7.28296 14.4875 7.38916 14.4805C7.95053 14.4321 8.3309 14.0998 8.37335 14.0625L8.68388 13.7785L8.32885 13.5509C7.5348 13.0454 6.72355 12.0867 7.34666 10.4068C7.75024 9.31417 8.68388 8.32427 10.2012 7.37559C10.7131 7.05331 10.9932 6.67467 10.9932 6.31216C10.9932 5.75219 10.5239 5.53164 10.1789 5.37456C10.011 5.29501 9.83606 5.21547 9.75112 5.11774C9.48404 4.81059 9.70957 4.22042 9.95641 3.9012L10.274 3.48726L9.76017 3.38659C9.74502 3.38454 9.61048 3.35938 9.40414 3.35938C9.01971 3.35938 8.28741 3.45203 7.68854 4.06935C7.18987 4.58296 7.12417 5.12981 7.14942 5.4823C7.10088 5.48631 7.05233 5.48831 7.00173 5.49137H6.94713C6.19658 5.49137 5.84155 4.69979 5.8274 4.6686L5.61591 4.17413L5.27403 4.59104C5.25483 4.61621 4.75516 5.23655 4.87653 6.01307C4.95744 6.52966 5.28313 6.97477 5.8425 7.34133C5.9032 7.3796 5.94569 7.41386 5.97604 7.44101C4.92307 7.78243 4.33434 8.5317 3.71222 9.31923L3.62219 9.43103C2.6714 10.6355 1.32603 10.6707 1.1652 10.6707L0.707031 10.6566L0.846578 11.0907C0.862772 11.143 1.26839 12.3757 2.48624 12.3757L2.54494 12.3736C2.67339 12.3696 2.78874 12.3525 2.89193 12.3324C2.84129 13.0041 2.59347 14.2458 1.47372 14.709L1.13182 14.85L1.31698 15.1703C1.33516 15.1995 1.7499 15.8973 2.69057 15.8973C3.10128 15.8964 3.4209 15.7937 3.66066 15.6698C3.69709 15.9739 3.77192 16.3647 3.9186 16.8007C4.25951 17.8098 3.94187 18.5168 3.92971 18.545L3.7618 18.8974L4.14217 18.9981C4.16742 19.0042 4.4011 19.0626 4.67722 19.0626C4.80672 19.0626 4.92611 19.0485 5.03335 19.0233C5.32163 18.9559 5.54412 18.8289 5.71301 18.684C5.8162 19.0001 5.99324 19.3566 6.29977 19.6729C6.82164 20.2066 7.5722 20.4765 8.55344 20.4765L9.1482 20.4685L8.81842 19.9699ZM8.53114 20.1542C5.82935 20.1542 5.8982 17.8471 5.8982 17.8471C5.8982 17.8471 5.71006 18.5298 4.95645 18.7081C4.86642 18.7322 4.7703 18.7413 4.67623 18.7413C4.43349 18.7413 4.22407 18.685 4.22407 18.685C4.22407 18.685 4.61654 17.8561 4.22506 16.697C3.90142 15.7352 3.95404 15.0222 3.95404 15.0222C3.95404 15.0222 3.59086 15.57 2.6876 15.5751H2.67848C1.92693 15.5751 1.59918 15.0081 1.59918 15.0081C3.39968 14.2639 3.22265 11.861 3.22265 11.861C3.22265 11.861 2.98904 12.0343 2.53179 12.0513C2.51559 12.0524 2.50046 12.0525 2.48426 12.0525C1.4909 12.0525 1.15509 10.994 1.15509 10.994H1.17532C1.35843 10.994 2.83224 10.9517 3.8751 9.6314C4.56193 8.76337 5.12534 8.00098 6.23498 7.69983L6.34622 7.6807L6.37057 7.56995C6.40092 7.40074 6.28557 7.24265 6.02159 7.07144C4.4881 6.07137 5.52997 4.79648 5.52997 4.79648C5.52997 4.79648 5.96594 5.81561 6.94813 5.81561C6.97238 5.81561 6.99468 5.81461 7.01993 5.81461C7.13017 5.80859 7.23947 5.80454 7.34666 5.78139L7.52775 5.74613C7.52775 5.74613 7.24752 4.98981 7.92323 4.295C8.43105 3.77026 9.04906 3.68165 9.40509 3.68165C9.58618 3.68165 9.69847 3.70483 9.69847 3.70483C9.36064 4.14592 9.11586 4.87702 9.50623 5.32822C9.84411 5.71593 10.6685 5.73506 10.6685 6.31311C10.6685 6.55786 10.4389 6.84383 10.0263 7.10064C8.78503 7.87911 7.55305 8.91239 7.04118 10.2951C6.40192 12.0211 7.12312 13.1662 8.15386 13.8238C8.15386 13.8238 7.83018 14.1199 7.36186 14.1572C7.26677 14.1662 7.17472 14.1703 7.08568 14.1703C6.09843 14.1703 5.58761 13.709 5.58761 13.709C5.58761 13.709 5.67256 14.3465 6.18343 14.9386C6.66085 15.4855 7.28296 15.8078 8.23381 15.8209C8.23381 15.8209 8.26416 16.2599 7.84333 16.6396C7.5733 16.8793 6.95213 16.9578 6.95213 16.9578C6.95213 16.9578 8.11747 17.1925 8.24491 18.9045C8.3147 19.832 8.55039 20.1542 8.55039 20.1542H8.53114Z" fill="black"/>
<path d="M2.51629 9.14875C2.64678 9.14875 2.77423 9.12962 2.89454 9.08835C3.23445 8.97654 3.44989 8.70765 3.67748 8.42869C3.91018 8.14272 4.17215 7.82049 4.62629 7.5798L5.09366 7.33005L4.65967 7.0269C4.62325 7.0037 4.29755 6.78516 3.85755 6.78516C3.49544 6.78516 3.15962 6.93222 2.88344 7.21419C2.20976 7.89903 1.60589 7.95438 1.58361 7.95538L1.11328 7.98258L1.3065 8.41262C1.50065 8.83859 2.00946 9.14875 2.51629 9.14875ZM3.11507 7.44175C3.36593 7.18498 3.62996 7.10844 3.85755 7.10844C4.20751 7.10844 4.47253 7.29373 4.47253 7.29373C3.52577 7.7963 3.33156 8.60091 2.79036 8.78219C2.70138 8.81345 2.60831 8.82757 2.51629 8.82757C2.11873 8.82757 1.73433 8.5717 1.60285 8.27862C1.60285 8.27767 2.33113 8.23334 3.11507 7.44175Z" fill="black"/>
<path d="M4.63893 12.8977C4.58836 11.6811 4.90196 10.6942 5.39352 9.88152C5.11939 10.7285 5.15684 11.7657 6.08948 12.7336C6.08948 12.7336 4.2343 10.521 6.82784 8.25306C7.86573 7.39004 9.00066 6.85727 9.58433 6.47963C7.47325 7.16543 6.44246 6.41016 6.44246 6.41016C7.11612 6.99226 7.98912 6.98215 8.53134 6.89754C8.38465 6.96907 8.23086 7.04361 8.06797 7.13122C6.28572 8.09497 4.68646 9.6791 4.41232 11.8725V11.8554C3.99864 14.0094 3.07812 14.5623 3.07812 14.5623C3.8105 14.2028 4.27178 13.2481 4.38403 12.9037C4.50646 14.797 5.43397 16.1112 6.51936 17.376C7.08277 18.0317 7.28106 18.6692 7.28106 18.6692C7.28106 18.6692 7.17082 17.9471 6.68225 17.359C5.67171 16.1495 4.70973 14.6409 4.63893 12.8977Z" fill="black"/>
<path d="M12.9141 8.46094V8.89598C13.0648 8.7137 13.3561 8.75091 13.3561 8.75091V9.37831C13.3561 9.37831 13.346 9.68647 13.2357 9.82046H13.5513H13.8659C13.7577 9.68757 13.7465 9.37831 13.7465 9.37831V8.75091C13.7465 8.75091 14.0378 8.7137 14.1876 8.89598V8.46094H13.5513H12.9141Z" fill="black"/>
<path d="M12.6406 5.88217C12.8419 6.04126 12.9582 6.06751 12.9623 6.07046L13.0412 6.10678V5.69688L12.3008 5.38672C12.3008 5.38772 12.3078 5.62435 12.6406 5.88217Z" fill="black"/>
<path d="M14.4034 5.88217C14.7383 5.62435 14.7443 5.38672 14.7443 5.38672L14.0039 5.69688V6.10678L14.0818 6.07046C14.0869 6.06751 14.2021 6.04126 14.4034 5.88217Z" fill="black"/>
<path d="M15.7392 4.21159C15.7392 3.59023 14.6882 3.03125 13.528 3.03125H13.527H13.524H13.5209C12.3607 3.03125 11.3097 3.59023 11.3097 4.21159L11.333 4.36465L11.7962 7.01221L11.331 7.2811L10.1272 7.98102H10.1313C10.1313 7.98102 9.86022 8.11897 9.73473 8.20453C9.27656 8.52181 9.17946 8.98405 9.44544 9.1754C9.51124 8.79876 9.81062 8.40394 10.371 8.40394C10.7746 8.40394 11.0821 8.61147 11.331 8.92259C11.3947 9.00118 11.4554 9.08473 11.512 9.1754C11.5818 9.2892 11.6516 9.38888 11.7214 9.48556H8.62109C8.84868 9.94174 9.06512 10.4252 9.06512 10.9498V17.7817C9.06512 19.4354 10.3427 20.2249 11.7244 20.2249C12.7926 20.2249 12.9363 20.1766 13.526 20.7607C14.1127 20.1756 14.2563 20.2249 15.3255 20.2249C16.7082 20.2249 17.9838 19.4354 17.9838 17.7817V10.9498C17.9838 10.4252 18.2003 9.94174 18.4289 9.48556H15.3275C15.3963 9.38994 15.4661 9.2892 15.5358 9.1754C15.5935 9.08473 15.6532 9.00118 15.7159 8.92259C15.9668 8.61042 16.2732 8.40394 16.6769 8.40394C17.2372 8.40394 17.5357 8.79776 17.6024 9.1754C17.8685 8.98405 17.7724 8.52181 17.3111 8.20453C17.1877 8.11897 16.9166 7.98102 16.9166 7.98102H16.9207L15.7169 7.2811L15.2537 7.01221L15.7169 4.36465L15.7392 4.21159ZM11.7659 4.51975L13.3945 5.06958V7.61641L12.1958 6.98707L11.7659 4.51975ZM12.1027 9.92967C12.3698 10.1945 12.6318 10.3587 12.8806 10.4493C12.8482 10.5772 12.8058 10.8411 12.9261 11.104C13.0242 11.3154 13.2023 11.4785 13.4582 11.5873C13.4865 11.8492 13.6524 12.2429 14.1127 12.4171C13.9114 12.6196 13.7151 12.8099 13.6352 12.8874L11.7689 12.8582C11.7265 12.8371 11.6546 12.7897 11.6223 12.7223C11.6182 12.7132 11.6122 12.7082 11.6092 12.6982L11.9136 12.7475C11.9207 12.7485 11.9267 12.7485 11.9328 12.7485C11.9915 12.7485 12.043 12.7082 12.0532 12.6478C12.0633 12.5803 12.0178 12.5189 11.952 12.5088L11.5778 12.4504L11.9935 11.0214L11.6 10.1965L10.9689 10.8612L10.9304 12.3477L10.5066 12.2811C10.4408 12.2681 10.3781 12.3165 10.367 12.3819C10.3568 12.4473 10.4013 12.5088 10.4681 12.5208L10.6461 12.5481C10.5824 12.5843 10.541 12.6125 10.5359 12.6166L10.4994 12.6417L10.4893 12.686C10.3862 13.1029 10.6198 13.4987 10.8718 13.6759L10.8626 13.7283C10.8525 13.7928 10.8667 13.8552 10.9051 13.9076C10.9415 13.961 10.9982 13.9932 11.0608 14.0043C11.074 14.0063 11.0881 14.0073 11.1003 14.0073C11.2095 14.0073 11.3047 13.9318 11.332 13.822C11.426 13.8331 11.512 13.8351 11.5707 13.8351H11.6203L14.0692 14.2752L14.1106 14.248C14.3058 14.1121 15.0493 13.5722 15.2931 13.394C15.3598 13.4514 15.4347 13.5038 15.5257 13.547C15.4468 13.8109 15.4418 14.2168 15.7544 14.537H9.51324V10.9509C9.51324 10.6034 9.4111 10.254 9.2907 9.93167H12.1027V9.92967ZM15.1292 13.2107C14.8814 13.392 14.2442 13.8552 14.0135 14.0163L11.7882 13.6186C11.7933 13.5984 11.7983 13.5793 11.8034 13.5592C11.8327 13.4444 11.862 13.2872 11.8641 13.1029L13.7343 13.1332L13.7697 13.0969C13.7981 13.0687 14.3909 12.4987 14.6933 12.1704C14.7651 12.2601 14.8551 12.3457 14.9724 12.4211C14.932 12.6386 14.9492 12.9489 15.1292 13.2107ZM11.4038 12.827C11.4564 12.9368 11.5514 13.0103 11.6172 13.0516C11.6152 13.1543 11.6051 13.3145 11.5778 13.4554C11.5717 13.4867 11.5636 13.5159 11.5545 13.5451C11.5495 13.5632 11.5444 13.5783 11.5403 13.5904C11.4422 13.5904 11.249 13.5783 11.0912 13.5209C10.9163 13.4565 10.6553 13.1372 10.7159 12.7858C10.7918 12.7394 10.9668 12.6417 11.1307 12.6417C11.2571 12.6407 11.3431 12.7001 11.4038 12.827ZM11.1721 12.3849L11.2095 10.9579L11.5312 10.6185L11.7336 11.0395L11.335 12.4091L11.1721 12.3849ZM15.109 19.7828C14.9876 19.7828 14.8753 19.7848 14.7742 19.7889L15.0392 18.9681C15.0807 18.8544 14.8713 18.7083 14.7853 18.5804C14.9158 18.662 15.2537 18.8402 15.4165 18.9117C15.3993 18.9379 15.109 19.7828 15.109 19.7828ZM15.9405 18.8503L15.7675 19.7486C15.6573 19.7637 15.5399 19.7718 15.4195 19.7768L15.6016 18.9127C15.6562 18.6559 14.9634 18.5764 14.6215 18.0718C14.4546 18.2591 14.14 18.3145 13.8244 18.3145C13.5361 18.3145 13.2478 18.2682 13.0728 18.234C13.0283 18.2269 12.9858 18.2218 12.9443 18.2218C12.8432 18.2218 12.7511 18.2531 12.6874 18.3598L12.6368 18.4445L11.6931 18.2229L11.4584 18.6096C11.425 18.672 11.423 18.7254 11.4766 18.7838L11.5403 18.8533C11.4968 18.9902 11.3006 19.1967 11.3006 19.1967L11.16 19.0225C11.0487 18.8986 11.0669 18.673 11.1833 18.4636L11.5575 17.8341L12.3567 17.949L12.2322 17.667C12.0653 17.2944 12.3192 16.82 12.3465 16.5471C12.3374 16.6297 12.2615 16.6478 12.1725 16.6478C12.0916 16.6478 12.0016 16.6328 11.9419 16.6328C11.9187 16.6328 11.8984 16.6348 11.8873 16.6428L11.6708 16.7737L11.4999 16.6237C11.4796 16.5945 11.4726 16.527 11.5231 16.4766L11.9187 16.0356L11.4514 15.4927L12.1058 15.82L12.305 15.5793C12.3597 15.6327 12.3364 15.7727 12.3364 15.7727C12.5408 15.7778 13.1132 16.0929 13.1436 16.8281C13.1456 16.8503 13.1456 16.8754 13.1456 16.8996C13.1456 16.8996 13.1507 16.9087 13.1608 16.9237C13.2013 16.9791 13.3125 17.1211 13.4541 17.1342L14.3585 17.2228H14.3625C14.4616 17.2228 14.6589 17.1071 14.9117 17.1071C15.0493 17.1071 15.2031 17.1423 15.3669 17.245C15.3669 17.245 15.4488 17.1806 15.5824 17.1735C15.5925 17.1725 15.6037 17.1725 15.6138 17.1725C16.0194 17.1725 16.1873 17.5371 16.4048 17.8402C16.5687 18.0708 16.7872 18.4132 16.7872 18.4132C16.7062 18.5089 16.6313 18.5613 16.5059 18.5613C16.4716 18.5613 16.4321 18.5582 16.3896 18.5501C15.9546 18.4706 15.892 17.5804 15.6441 17.5099C15.631 17.5058 15.6168 17.5048 15.6046 17.5048C15.5247 17.5048 15.4894 17.5753 15.4894 17.5753C15.6026 17.8785 15.5369 18.0013 15.6583 18.235C15.7493 18.4081 15.9111 18.5512 15.9779 18.6186C15.9779 18.6207 15.9597 18.7516 15.9405 18.8503ZM11.0841 18.0003L11.1256 18.104C11.0983 18.1947 10.7848 18.3236 10.7848 18.3236L10.7169 18.1766C10.6451 18.0195 10.6603 17.7546 10.8788 17.5925L11.3866 17.2843L11.9247 17.3981C11.9146 17.5683 12.0167 17.6952 12.0167 17.6952L11.4523 17.5874L11.1145 17.82C11.0579 17.8593 11.0538 17.9328 11.0841 18.0003ZM16.0255 19.6992L16.1802 18.8956C16.1883 18.8482 16.1984 18.7929 16.2055 18.7466C16.249 18.7647 16.2955 18.7798 16.3461 18.7888C16.4037 18.7999 16.4573 18.805 16.5059 18.805C16.7427 18.805 16.8802 18.6811 16.9723 18.5754L17.0916 18.4373L16.9945 18.2863C16.9854 18.2712 16.771 17.9328 16.6051 17.7012C16.5727 17.6559 16.5413 17.6105 16.51 17.5612C16.3218 17.2813 16.0862 16.9298 15.6138 16.9298L15.5713 16.9308C15.4934 16.9359 15.4266 16.951 15.373 16.9711C15.2243 16.9016 15.0716 16.8663 14.9127 16.8663C14.7175 16.8663 14.5526 16.9197 14.4434 16.957C14.4121 16.9661 14.3838 16.9761 14.3615 16.9802L13.4784 16.8936C13.4673 16.8915 13.4309 16.8704 13.3874 16.818V16.814L13.5786 16.7374C13.5249 16.104 12.914 15.7143 12.5731 15.5823C12.558 15.5189 12.5276 15.4555 12.474 15.4041L12.2838 15.2248L12.1169 15.4243L12.035 15.5259L10.7989 15.0204L11.6031 16.0255L11.2854 16.5038C11.1691 16.6266 11.2976 16.7495 11.2976 16.7495L11.6253 16.9741L11.9652 16.8483C11.9773 16.8483 11.9874 16.8513 11.9985 16.8523C11.9824 16.9037 11.9611 17.105 11.9469 17.1615L11.3572 17.0456L10.7372 17.394C10.4185 17.6267 10.375 18.0124 10.4934 18.2762L10.5622 18.4263L10.6603 18.6378L10.8768 18.5481C10.8798 18.5472 10.8829 18.5462 10.8848 18.5441C10.807 18.7919 10.8384 19.0275 10.9779 19.1826L11.1094 19.3477L11.2844 19.5683L11.4766 19.3629C11.5333 19.3065 11.7164 19.102 11.773 18.9268L11.8145 18.7929L11.7204 18.6902L11.7052 18.672L11.8105 18.4988L12.5802 18.6791L12.7532 18.7184L12.8452 18.5673L12.8958 18.4847C12.9049 18.4676 12.9079 18.4646 12.9433 18.4646C12.9706 18.4646 12.9979 18.4676 13.0273 18.4737C13.3176 18.5281 13.5856 18.5552 13.8233 18.5552C14.054 18.5552 14.1915 18.5462 14.3564 18.4917C14.3564 18.4917 14.7701 18.959 14.7843 18.9772L14.5314 19.7546L14.5202 19.802C14.0408 19.8402 13.8072 19.9449 13.525 20.2259C13.1153 19.8211 12.8249 19.7788 11.7235 19.7788C10.4054 19.7788 9.51224 19.0094 9.51224 17.7807V14.7767H17.5357L17.5377 17.7807C17.5387 18.7778 16.951 19.4727 16.0255 19.6992ZM17.7602 9.92967C17.6379 10.252 17.5357 10.6014 17.5357 10.9488L17.5367 13.1905C17.0663 13.112 17.0107 12.6075 17.0087 12.5853L16.9996 12.4826L16.8984 12.4735C16.6941 12.4544 16.5585 12.3678 16.4442 12.257C16.2136 12.0274 16.2125 11.6548 16.2136 11.6518C16.2106 11.6709 15.9597 12.0204 16.251 12.402C16.3734 12.5632 16.5504 12.6618 16.7801 12.7011C16.8337 12.9811 17.043 13.3759 17.5367 13.4362V14.534H16.1489C15.5085 14.1795 15.7796 13.5552 15.7928 13.5289L15.8474 13.4101L15.725 13.3638C15.0321 13.1079 15.2223 12.4192 15.2324 12.39L15.2607 12.2893L15.1667 12.2449C14.5941 11.9811 14.672 11.2691 14.6791 11.2399C14.5031 11.3819 14.4394 11.6719 14.5607 11.9559C14.495 12.0304 14.4071 12.1211 14.3109 12.2198C13.7181 12.0697 13.7 11.5269 13.7 11.5017L13.6989 11.4181L13.6211 11.3879C13.3894 11.3023 13.2306 11.1744 13.1527 11.0022C13.0647 10.8119 13.096 10.6125 13.1204 10.5168C13.1881 10.5319 13.2559 10.543 13.3206 10.548C13.3874 10.5551 13.4562 10.5591 13.525 10.5591H13.529H13.5341C13.6029 10.5591 13.6706 10.5551 13.7374 10.548C14.1066 10.5118 14.5203 10.3537 14.9512 9.92872H17.7602V9.92967ZM15.5976 7.6638L16.1458 7.98102H16.1539L16.2915 8.06057C15.982 8.14622 15.7453 8.30025 15.547 8.50267C15.5399 8.50873 15.5329 8.51675 15.5257 8.52386C15.4802 8.5722 15.4347 8.62449 15.3922 8.67789C15.3841 8.68796 15.376 8.69903 15.3669 8.71015C15.3244 8.7645 15.2851 8.8199 15.2466 8.8783C15.2405 8.88837 15.2334 8.89844 15.2264 8.90751C15.1808 8.97498 15.1374 9.04751 15.0939 9.12205C14.7034 9.79172 14.0803 10.1915 13.526 10.1925C12.9727 10.1915 12.3496 9.79172 11.9591 9.12205C11.9166 9.04952 11.8742 8.97904 11.8286 8.91056C11.8195 8.89744 11.8114 8.88432 11.8034 8.87325C11.7649 8.8179 11.7265 8.76355 11.687 8.71215C11.6769 8.69803 11.6678 8.68696 11.6577 8.67494C11.6152 8.62349 11.5717 8.5722 11.5282 8.52481C11.5191 8.51775 11.513 8.50873 11.5039 8.50067C11.3047 8.29825 11.0689 8.14512 10.7584 8.06057L10.898 7.98102H10.9041L11.4523 7.6638L12.0157 7.34251L13.5209 8.15825L13.524 8.15519L13.528 8.15825L15.0331 7.34251L15.5976 7.6638ZM14.8551 6.98807L13.6554 7.61741V5.06958L15.283 4.51975L14.8551 6.98807ZM13.525 4.78964L11.7406 4.08768C11.8924 3.73017 12.5923 3.42604 13.525 3.42505C14.4586 3.42604 15.1586 3.73017 15.3093 4.08768L13.525 4.78964Z" fill="black"/>
<path d="M35.6173 15.4508V11.4184H37.993V9.951H31.5117V11.4184H33.8874V15.4508H35.6173ZM40.4153 9.951H38.6854V15.4508H40.4153V9.951ZM41.6811 9.951V15.4508H43.2727V12.4121L46.2365 15.4508H47.7127V9.951H46.1212V12.9667L43.2265 9.951H41.6811ZM51.1129 13.3711L53.1077 15.4508H55.3336L52.5543 12.5853L55.2296 9.951H53.1307L51.1129 12.0192H50.6514V9.951H48.9791V15.4508H50.6514V13.3711H51.1129ZM58.7744 9.80078C56.5255 9.80078 55.1761 11.0717 55.1761 12.7124C55.1761 14.3532 56.5255 15.6241 58.7744 15.6241C61.0123 15.6241 62.3612 14.3532 62.3612 12.7124C62.3612 11.0717 61.0123 9.80078 58.7744 9.80078ZM58.7744 14.2838C57.656 14.2838 56.9405 13.6137 56.9405 12.7124C56.9405 11.8112 57.656 11.1526 58.7744 11.1526C59.8818 11.1526 60.6083 11.8112 60.6083 12.7124C60.6083 13.6137 59.8818 14.2838 58.7744 14.2838ZM68.7028 9.951H63.1556V15.4508H64.8275V13.5328H68.4608V12.3196H64.8275V11.349H68.7028V9.951ZM74.9984 9.951H69.4508V15.4508H71.1232V13.5328H74.7565V12.3196H71.1232V11.349H74.9984V9.951Z" fill="black"/>
</svg>
