<svg width="80" height="24" viewBox="0 0 80 24" fill="none" xmlns="http://www.w3.org/2000/svg">
<path d="M66.5878 4.32422C67.8485 4.32422 69.0479 4.61015 70.1242 5.12164C70.293 5.19703 70.4629 5.28727 70.6311 5.37758L69.8931 6.02476L68.7867 4.89617L66.8803 6.55125L65.7577 5.36235L62.2521 8.44719L64.4965 10.8698L63.6203 11.622L65.8346 14.0447L64.9584 14.7966L68.1258 18.2425L70.0005 16.5571L71.631 18.3633C71.3079 18.6041 70.9543 18.8453 70.5703 19.0556C69.4016 19.7026 68.0484 20.078 66.6033 20.078C62.1595 20.078 58.5469 16.5426 58.5469 12.1944C58.5312 7.87547 62.1445 4.32422 66.5878 4.32422ZM65.1116 11.7125L67.0335 10.0271L68.7559 11.908L66.8335 13.5932L65.1116 11.7125ZM66.4803 14.9628L68.3866 13.2625L70.1242 15.1432L68.2021 16.8287L66.4803 14.9628ZM63.744 8.50758L65.6654 6.82219L67.3874 8.70304L65.4653 10.3884L63.744 8.50758ZM67.2642 7.60445L68.6942 6.34055L69.986 7.74L68.556 9.01884L67.2642 7.60445ZM69.8167 13.3977L71.2463 12.1337L72.538 13.5477L71.1079 14.8125L69.8167 13.3977ZM71.0773 16.2419L72.5074 14.9777L73.7981 16.377L72.3686 17.6557L71.0773 16.2419ZM71.6617 9.74117L72.6148 8.89843L73.4755 9.83171L72.5225 10.6741L71.6617 9.74117ZM70.4316 6.95742L71.3848 6.09991L72.2462 7.04773L71.2923 7.89039L70.4316 6.95742ZM72.8762 12.5252L73.8293 11.6825L74.7056 12.6155L73.7373 13.4579L72.8762 12.5252ZM68.5866 10.4335L70.0167 9.16953L71.3079 10.5687L69.8784 11.8329L68.5866 10.4335Z" fill="#036CB5"/>
<mask id="mask0" mask-type="alpha" maskUnits="userSpaceOnUse" x="5" y="7" width="9" height="8">
<path d="M5.29297 7.59375V14.8669H13.6966V7.59375H5.29297Z" fill="white"/>
</mask>
<g mask="url(#mask0)">
<path d="M9.51033 9.74742H9.43782L8.07631 14.8669H6.96347L5.29297 7.59375H6.4476L7.60251 13.0208H7.67463L9.01484 7.59375H9.93281L11.3661 13.0208H11.4383L12.4901 7.59375H13.6966L12.0257 14.8669H10.912L9.51033 9.74742Z" fill="#036CB5"/>
</g>
<path d="M15.1608 11.7731H17.5216C17.4704 10.6963 16.9442 10.2659 16.3876 10.2659C15.7587 10.2659 15.2738 10.7479 15.1608 11.7731ZM18.3464 13.7023V14.482C17.8825 14.7487 17.2641 14.954 16.5213 14.954C14.7895 14.954 14.0781 13.8871 14.0781 12.2665C14.0781 10.7066 14.8719 9.57812 16.4186 9.57812C17.7071 9.57812 18.5015 10.4096 18.5015 12.0813V12.4609H15.1402C15.1402 13.6916 15.6451 14.2354 16.7075 14.2354C17.2641 14.2354 17.7797 14.0402 18.3464 13.7023Z" fill="#036CB5"/>
<path d="M20.9018 14.1301C21.2318 14.2737 21.593 14.2949 21.8512 14.2949C22.614 14.2949 23.1908 13.8224 23.1908 12.1609C23.1908 10.8581 22.7166 10.4375 22.026 10.4375C21.6133 10.4375 21.3144 10.5507 20.9018 10.7759V14.1301H20.9018ZM20.9127 10.017C21.2212 9.85345 21.747 9.63727 22.304 9.63727C23.5827 9.63727 24.2736 10.5195 24.2736 12.1609C24.2736 14.0794 23.3455 15.0129 21.8512 15.0129C21.3043 15.0129 20.4588 14.8384 19.8398 14.5095V7.34985L20.9127 7.09375V10.017H20.9127Z" fill="#036CB5"/>
<path d="M28.9128 13.3243H28.9644L31.1705 7.58984H32.4497V14.8636H31.3362V9.59039H31.2432L29.1395 14.8636H28.4802L26.376 9.71367H26.2835V14.8636H25.3555V7.58984H26.6035L28.9128 13.3243Z" fill="#036CB5"/>
<path d="M37.0013 12.2662C37.0013 10.8814 36.4347 10.297 35.7335 10.297C35.0533 10.297 34.465 10.8814 34.465 12.2662C34.465 13.6717 35.0018 14.2354 35.7335 14.2354C36.4652 14.2354 37.0013 13.6717 37.0013 12.2662ZM33.3828 12.2662C33.3828 10.4703 34.3729 9.57812 35.7335 9.57812C37.095 9.57812 38.0846 10.4703 38.0846 12.2662C38.0846 14.02 37.1463 14.954 35.7335 14.954C34.321 14.954 33.3828 14.02 33.3828 12.2662Z" fill="#036CB5"/>
<path d="M38.8984 10.3378C39.3624 10.0604 40.3423 9.57812 41.5278 9.57812C42.765 9.57812 43.2281 10.0604 43.2281 11.1167V14.8308H42.1566V11.353C42.1566 10.5427 41.7551 10.3991 41.2286 10.3991C40.8167 10.3991 40.2902 10.5841 39.9708 10.7687V14.8308H38.8984V10.3378H38.8984Z" fill="#036CB5"/>
<path d="M45.4964 11.7731H47.8574C47.8067 10.6963 47.2802 10.2659 46.7234 10.2659C46.0943 10.2659 45.6103 10.7479 45.4964 11.7731ZM48.682 13.7023V14.482C48.2183 14.7487 47.5997 14.954 46.8572 14.954C45.1259 14.954 44.4141 13.8871 44.4141 12.2665C44.4141 10.7066 45.2075 9.57812 46.7543 9.57812C48.0436 9.57812 48.8379 10.4096 48.8379 12.0813V12.4609H45.4762C45.4762 13.6916 45.9814 14.2354 47.0435 14.2354C47.5997 14.2354 48.116 14.0402 48.682 13.7023Z" fill="#036CB5"/>
<path d="M53.1204 9.57812H54.224L52.3576 14.7066C51.8413 16.1224 51.2131 16.8611 50.0275 16.8611V16.0205C50.7291 16.0205 51.1615 15.4663 51.4095 14.7066L49.4297 9.57812H50.5641L51.8838 13.3531H51.9456L53.1204 9.57812Z" fill="#036CB5"/>
</svg>
