<svg width="262" height="230" viewBox="0 0 262 230" fill="none" xmlns="http://www.w3.org/2000/svg">
<path d="M48.1369 172.694C47.2351 172.664 46.6374 172.026 46.6678 171.256C46.6981 170.496 47.3466 169.898 48.0964 169.918C48.9171 169.938 49.525 170.556 49.5149 171.327C49.5149 172.097 48.8968 172.694 48.1369 172.694ZM42.9999 171.945C41.8347 171.701 41.3889 170.952 41.5713 170.212C41.7536 169.472 42.5034 169.016 43.2431 169.199C44.0739 169.401 44.5299 170.151 44.3475 170.891C44.1955 171.529 43.6281 171.945 42.9999 171.945ZM38.1162 170.232C37.9136 170.232 37.7109 170.192 37.5184 170.101C36.7382 169.726 36.4545 168.895 36.7889 168.206C37.1232 167.517 37.9541 167.233 38.6431 167.568C39.403 167.932 39.6968 168.763 39.3726 169.452C39.1294 169.938 38.6329 170.232 38.1162 170.232ZM33.7796 167.426C33.4554 167.426 33.1413 167.314 32.8779 167.091C32.2294 166.524 32.1686 165.642 32.6752 165.075C33.1818 164.497 34.0532 164.447 34.6307 164.953C35.2691 165.501 35.3299 166.382 34.8334 166.96C34.5497 167.264 34.1647 167.426 33.7796 167.426ZM30.4563 163.494C29.9902 163.494 29.5241 163.251 29.2708 162.826C28.8351 162.076 29.0479 161.235 29.7065 160.84C30.3651 160.455 31.2162 160.678 31.6012 161.336C32.0369 162.056 31.8241 162.907 31.1655 163.302C30.9426 163.434 30.6994 163.494 30.4563 163.494ZM28.5312 158.722C27.903 158.722 27.3356 158.297 27.1836 157.658C26.9911 156.817 27.4572 156.067 28.1968 155.895C28.9466 155.723 29.6862 156.189 29.8585 156.929C30.051 157.749 29.595 158.499 28.8554 158.671C28.7439 158.702 28.6426 158.722 28.5312 158.722ZM27.9536 153.585C27.1937 153.585 26.5655 152.977 26.5655 152.217C26.5655 151.366 27.1836 150.748 27.9536 150.748C28.7135 150.748 29.3417 151.366 29.3417 152.136C29.3417 152.947 28.7237 153.585 27.9536 153.585ZM28.0043 148.418C27.2444 148.418 26.6162 147.8 26.6162 147.03C26.6263 146.168 27.2444 145.56 28.0043 145.56C28.7743 145.56 29.3924 146.189 29.3924 146.959C29.3823 147.789 28.7642 148.418 28.0043 148.418ZM27.9739 143.23C27.214 143.23 26.5959 142.612 26.5858 141.852C26.5757 141.011 27.1836 140.383 27.9536 140.373C28.7338 140.373 29.3519 140.981 29.362 141.741C29.3721 142.602 28.7541 143.23 27.9739 143.23C27.984 143.23 27.984 143.23 27.9739 143.23ZM27.903 138.052C27.1532 138.052 26.5351 137.455 26.5149 136.695C26.5047 135.834 27.1127 135.205 27.8827 135.195C28.6426 135.175 29.2708 135.793 29.2809 136.563C29.3012 137.404 28.6933 138.042 27.9232 138.052C27.9232 138.052 27.9131 138.052 27.903 138.052ZM27.7915 132.875C27.0417 132.875 26.4338 132.277 26.4135 131.527C26.3933 130.666 27.0012 130.028 27.7713 130.018C28.5312 130.008 29.1695 130.605 29.1796 131.375C29.1999 132.216 28.6021 132.855 27.832 132.875C27.8219 132.875 27.8016 132.875 27.7915 132.875ZM27.6497 127.697C26.8999 127.697 26.292 127.1 26.2717 126.35C26.2413 125.509 26.8391 124.871 27.6091 124.84C28.3691 124.81 29.0175 125.408 29.0378 126.178C29.058 127.039 28.4602 127.677 27.6902 127.697C27.6801 127.697 27.6598 127.697 27.6497 127.697ZM27.4876 122.52C26.7479 122.52 26.1298 121.932 26.1096 121.182C26.0792 120.331 26.677 119.693 27.447 119.663C28.1968 119.642 28.8554 120.23 28.8757 121C28.9061 121.851 28.3083 122.489 27.5382 122.52C27.5179 122.52 27.4977 122.52 27.4876 122.52ZM27.3052 117.342C26.5655 117.342 25.9475 116.755 25.9272 116.005C25.8968 115.164 26.4845 114.515 27.2545 114.485C28.0246 114.455 28.6629 115.052 28.6933 115.812C28.7237 116.674 28.1259 117.312 27.366 117.342C27.3356 117.342 27.3153 117.342 27.3052 117.342ZM27.1025 112.165C26.3629 112.165 25.755 111.577 25.7246 110.837C25.6942 109.976 26.292 109.338 27.0519 109.308C27.8017 109.277 28.4602 109.875 28.4805 110.645C28.5109 111.486 27.9232 112.134 27.1532 112.165C27.1431 112.165 27.1228 112.165 27.1025 112.165ZM26.8999 106.987C26.1602 106.987 25.5523 106.4 25.5219 105.66C25.4915 104.809 26.0792 104.16 26.8492 104.13C27.6193 104.1 28.2576 104.697 28.288 105.457C28.3184 106.308 27.7307 106.957 26.9607 106.987C26.9404 106.987 26.9201 106.987 26.8999 106.987ZM26.677 101.81C25.9373 101.81 25.3294 101.222 25.299 100.482C25.2585 99.6414 25.8461 98.993 26.6162 98.9524C27.3862 98.9221 28.0246 99.5097 28.0651 100.27C28.1056 101.131 27.5078 101.779 26.7479 101.81C26.7175 101.81 26.6972 101.81 26.677 101.81ZM26.4642 96.6322C25.7246 96.6322 25.1166 96.0445 25.0862 95.3049C25.0457 94.4639 25.6334 93.8154 26.4034 93.7749C27.1735 93.7344 27.8118 94.3322 27.8523 95.0921C27.8928 95.9533 27.295 96.6018 26.5351 96.6322C26.4946 96.6322 26.4845 96.6322 26.4642 96.6322ZM26.2413 91.4546C25.5016 91.4546 24.8937 90.867 24.8633 90.1273C24.8228 89.2864 25.4105 88.6379 26.1805 88.5974C26.9505 88.5568 27.5889 89.1546 27.6294 89.9145C27.6598 90.7758 27.0721 91.4242 26.3021 91.4546C26.2717 91.4546 26.2514 91.4546 26.2413 91.4546ZM26.0083 86.2771C25.2686 86.2771 24.6607 85.6894 24.6303 84.9498C24.5898 84.1088 25.1774 83.4604 25.9475 83.4198C26.7175 83.3793 27.3558 83.9771 27.3964 84.737C27.4369 85.5982 26.8391 86.2467 26.0792 86.2771C26.0488 86.2771 26.0285 86.2771 26.0083 86.2771ZM25.7853 81.1097C25.0457 81.1097 24.4378 80.522 24.4074 79.7824C24.3668 78.9414 24.9545 78.2929 25.7246 78.2524C26.4845 78.222 27.1329 78.8097 27.1735 79.5696C27.214 80.4308 26.6162 81.0793 25.8563 81.1097C25.8259 81.1097 25.8056 81.1097 25.7853 81.1097ZM25.5726 75.9322C24.8329 75.9322 24.225 75.3445 24.1946 74.6048C24.1541 73.7639 24.7417 73.1154 25.5118 73.0749C26.2818 73.0344 26.9202 73.6321 26.9607 74.3921C27.0012 75.2533 26.4034 75.9018 25.6435 75.9322C25.6131 75.9322 25.5928 75.9322 25.5726 75.9322ZM217.78 74.4225C217.04 74.4225 216.432 73.8348 216.402 73.0951C216.371 72.244 216.959 71.5956 217.729 71.5652C218.509 71.5348 219.138 72.1326 219.168 72.8925C219.198 73.7436 218.611 74.3921 217.841 74.4225C217.81 74.4225 217.8 74.4225 217.78 74.4225ZM25.3497 70.7546C24.61 70.7546 24.0021 70.1669 23.9717 69.4273C23.9413 68.5762 24.529 67.9277 25.299 67.8973C26.069 67.8669 26.7074 68.4647 26.7378 69.2247C26.7682 70.0758 26.1805 70.7242 25.4105 70.7546C25.3801 70.7546 25.3699 70.7546 25.3497 70.7546ZM217.567 69.2348C216.817 69.2348 216.209 68.637 216.189 67.8872C216.189 67.8163 218.955 67.7048 218.955 67.7048L217.567 67.7656L218.955 67.715C218.975 68.5863 218.378 69.2247 217.618 69.2449C217.597 69.2348 217.587 69.2348 217.567 69.2348ZM25.1572 65.5771C24.4074 65.5771 23.7893 64.9793 23.769 64.2295C23.7386 63.3885 24.3364 62.7401 25.1065 62.7198C25.8664 62.6894 26.5149 63.2872 26.5351 64.0572C26.5554 64.9185 25.9576 65.5568 25.1876 65.5771C25.1876 65.5771 25.1673 65.5771 25.1572 65.5771ZM217.385 64.0572C216.635 64.0572 216.027 63.4594 216.007 62.7097C215.976 61.8788 216.564 61.2304 217.334 61.2C218.114 61.1696 218.742 61.7674 218.773 62.5273C218.793 63.3987 218.195 64.037 217.435 64.0572C217.405 64.0572 217.395 64.0572 217.385 64.0572ZM25.066 60.3995C24.3061 60.3995 23.6779 59.7815 23.6779 59.0114C23.6677 58.1705 24.2858 57.5423 25.0558 57.5423C25.836 57.5524 26.4439 58.1502 26.4541 58.9202C26.4541 59.7815 25.836 60.3995 25.066 60.3995ZM217.202 58.8696C216.463 58.8696 215.855 58.2819 215.824 57.5423C215.804 56.6709 216.402 56.0326 217.162 56.0123C217.952 56.0123 218.56 56.6101 218.58 57.3599C218.611 58.1907 218.023 58.8392 217.253 58.8696C217.243 58.8696 217.223 58.8696 217.202 58.8696ZM25.1673 55.222C24.3466 55.1916 23.7488 54.5431 23.7792 53.7832C23.8197 52.922 24.4682 52.3242 25.2281 52.3647C25.988 52.4053 26.5757 53.0537 26.5453 53.8136C26.5149 54.6343 25.9069 55.222 25.1673 55.222ZM217.05 53.6819C216.301 53.6819 215.682 53.0841 215.662 52.3343C215.642 51.4832 216.24 50.8449 217.01 50.8246C217.79 50.8246 218.408 51.4224 218.428 52.1722C218.449 53.0233 217.851 53.6616 217.081 53.6819C217.071 53.6819 217.06 53.6819 217.05 53.6819ZM25.5726 50.0546C24.6505 49.9533 24.1034 49.2643 24.1946 48.5145C24.2959 47.6634 24.995 47.1163 25.7448 47.2176C26.5047 47.3088 27.0417 47.9978 26.9505 48.7577C26.8594 49.5378 26.2616 50.0546 25.5726 50.0546ZM216.908 48.5044C216.149 48.5044 215.531 47.8964 215.52 47.1365C215.5 46.3057 216.098 45.6674 216.868 45.6471C217.648 45.6471 218.266 46.2449 218.286 46.9947C218.297 47.866 217.689 48.4942 216.929 48.5044C216.929 48.5044 216.919 48.5044 216.908 48.5044ZM26.4743 44.9581C25.4003 44.7352 24.9444 43.9854 25.1268 43.2458C25.3294 42.4149 26.0792 41.959 26.8188 42.1414C27.5585 42.3237 28.0144 43.0735 27.832 43.8132C27.6598 44.5427 27.0924 44.9581 26.4743 44.9581ZM216.807 43.3167C216.057 43.3167 215.449 42.7189 215.429 41.9691C215.419 41.0977 216.027 40.4696 216.787 40.4594C217.557 40.4594 218.175 41.0674 218.195 41.8273C218.216 42.6581 217.618 43.2964 216.848 43.3167C216.827 43.3167 216.817 43.3167 216.807 43.3167ZM28.1664 40.0845C27.9638 40.0845 27.7611 40.044 27.5686 39.9528C26.8796 39.6185 26.5858 38.7977 26.9202 38.1088C27.295 37.3286 28.1259 37.0449 28.8149 37.3792C29.5039 37.7136 29.7876 38.5444 29.4532 39.2334C29.1796 39.7907 28.6831 40.0845 28.1664 40.0845ZM216.736 38.129C215.976 38.129 215.358 37.5211 215.348 36.7612C215.348 35.8898 215.966 35.2718 216.736 35.2718C217.496 35.2718 218.124 35.8898 218.124 36.6599C218.134 37.4907 217.527 38.1189 216.756 38.129C216.756 38.129 216.746 38.129 216.736 38.129ZM31.0237 35.7885C30.6893 35.7885 30.355 35.6669 30.0814 35.4237C29.5241 34.907 29.4836 34.0255 30.0105 33.4682C30.5981 32.84 31.4695 32.8096 32.0268 33.3365C32.584 33.8634 32.6144 34.7348 32.0977 35.292C31.7633 35.6466 31.3986 35.7885 31.0237 35.7885ZM216.736 32.9515C215.976 32.9515 215.348 32.3334 215.348 31.5634C215.348 30.7123 215.966 30.0942 216.736 30.0942C217.496 30.0942 218.124 30.7123 218.124 31.4823C218.124 32.3233 217.506 32.9515 216.736 32.9515ZM35.1171 32.688C34.6206 32.688 34.1343 32.4145 33.8809 31.9383C33.5263 31.2594 33.7999 30.4286 34.4787 30.0739C35.2387 29.6788 36.0695 29.9524 36.4241 30.6312C36.7788 31.3101 36.5052 32.1409 35.8263 32.4955C35.5528 32.6374 35.3299 32.688 35.1171 32.688ZM39.9907 31.0061C39.3523 31.0061 38.7748 30.5603 38.6329 29.9017C38.4708 29.1519 38.9572 28.4224 39.7069 28.2603C40.5581 28.088 41.2876 28.5744 41.4396 29.3242C41.5915 30.074 41.1052 30.8035 40.3554 30.9554C40.1832 30.996 40.0818 31.0061 39.9907 31.0061ZM60.6704 30.54C59.9105 30.54 59.2924 29.922 59.2823 29.1621C59.2722 28.4021 59.8902 27.7739 60.6603 27.7638C61.5215 27.7638 62.1396 28.3819 62.1396 29.1519C62.1396 29.922 61.5215 30.54 60.7515 30.54C60.6704 30.54 60.6704 30.54 60.6704 30.54ZM55.5739 30.54C54.7127 30.5299 54.0946 29.9118 54.1048 29.1418C54.1048 28.3819 54.733 27.7638 55.4929 27.7638C56.344 27.7638 56.962 28.3819 56.962 29.1519C56.962 29.922 56.3338 30.54 55.5739 30.54ZM50.3964 30.4995C49.525 30.4894 48.9171 29.8612 48.9272 29.0911C48.9374 28.3312 49.5554 27.7233 50.3153 27.7233C51.1766 27.7334 51.7946 28.3515 51.7845 29.1215C51.7744 29.8814 51.1563 30.4995 50.3964 30.4995ZM65.8479 30.4894C65.088 30.4894 64.47 29.8814 64.4598 29.1215C64.4497 28.3616 65.0576 27.7334 65.8277 27.7233C66.6788 27.7132 67.307 28.3211 67.3171 29.0911C67.3272 29.851 66.7193 30.4792 65.9493 30.4894C65.8581 30.4894 65.8581 30.4894 65.8479 30.4894ZM45.1277 30.4488C44.3779 30.4488 43.7598 29.851 43.7396 29.0911C43.7193 28.3312 44.3272 27.6929 45.0973 27.6828C45.9585 27.6726 46.5867 28.2704 46.5968 29.0405C46.6171 29.8004 46.0092 30.4387 45.2391 30.4488C45.1479 30.4488 45.1378 30.4488 45.1277 30.4488ZM71.0356 30.3982C70.2858 30.3982 69.6678 29.8004 69.6475 29.0405C69.6272 28.2806 70.2352 27.6422 71.0052 27.6321C71.8766 27.622 72.4946 28.2198 72.5048 28.9898C72.525 29.7497 71.9171 30.388 71.1471 30.3982C71.0559 30.3982 71.0457 30.3982 71.0356 30.3982ZM76.2132 30.2462C75.4735 30.2462 74.8554 29.6585 74.8352 28.9088C74.8048 28.1488 75.4026 27.5004 76.1726 27.4801C77.0136 27.4497 77.6621 28.0374 77.6925 28.8074C77.7228 29.5673 77.1251 30.2158 76.3651 30.2462C76.2436 30.2462 76.2334 30.2462 76.2132 30.2462ZM81.3907 30.0132C80.6612 30.0132 80.0532 29.4458 80.0127 28.7061C79.9722 27.9462 80.5599 27.2876 81.3198 27.2471C82.181 27.2065 82.8295 27.7942 82.87 28.5541C82.9105 29.314 82.3127 29.9625 81.5528 30.003C81.4414 30.0132 81.4211 30.0132 81.3907 30.0132ZM86.5682 29.6991C85.8489 29.6991 85.2409 29.1418 85.1903 28.4123C85.1396 27.6524 85.7171 26.9836 86.477 26.933C87.3281 26.8722 87.9867 27.4396 88.0374 28.1995C88.0982 28.9594 87.5207 29.6281 86.7607 29.6788C86.629 29.6991 86.5986 29.6991 86.5682 29.6991ZM91.7356 29.2735C91.0264 29.2735 90.4286 28.7365 90.3577 28.0171C90.2867 27.2572 90.844 26.5784 91.6039 26.5074C92.455 26.4264 93.1237 26.9836 93.2048 27.7436C93.2757 28.5035 92.7185 29.1823 91.9585 29.2532C91.8268 29.2735 91.7762 29.2735 91.7356 29.2735ZM96.8828 28.7061C96.1938 28.7061 95.6061 28.1995 95.5149 27.5004C95.4136 26.7405 95.9506 26.0515 96.7105 25.9502C97.5718 25.8488 98.2608 26.3858 98.3519 27.1458C98.4431 27.9057 97.9061 28.5947 97.1462 28.6858C97.0044 28.696 96.9436 28.7061 96.8828 28.7061ZM102.01 27.9259C101.351 27.9259 100.774 27.4599 100.652 26.7911C100.52 26.0413 101.017 25.322 101.766 25.1801C102.618 25.0383 103.337 25.5347 103.469 26.2947C103.6 27.0444 103.094 27.7638 102.344 27.8955C102.172 27.9259 102.091 27.9259 102.01 27.9259ZM216.615 27.7739C215.885 27.7739 215.277 27.2065 215.237 26.4669C215.186 25.6158 215.774 24.9572 216.534 24.9167C217.294 24.8761 217.952 25.4638 217.993 26.2237C218.043 27.0748 217.456 27.7334 216.696 27.7739C216.665 27.7739 216.645 27.7739 216.615 27.7739ZM107.076 26.8317C106.458 26.8317 105.9 26.4162 105.738 25.7982C105.546 25.0585 105.992 24.2986 106.731 24.1061C107.542 23.8832 108.302 24.3189 108.504 25.0585C108.707 25.7982 108.271 26.5581 107.532 26.7607C107.309 26.8215 107.197 26.8317 107.076 26.8317ZM111.98 25.1598C111.453 25.1598 110.956 24.8559 110.723 24.3493C110.399 23.6502 110.713 22.8294 111.402 22.5154C112.172 22.1607 112.993 22.4647 113.317 23.1537C113.641 23.8427 113.337 24.6735 112.638 24.9876C112.365 25.1193 112.172 25.1598 111.98 25.1598ZM215.976 22.6471C215.348 22.6471 214.781 22.2215 214.629 21.5832C214.436 20.7422 214.902 20.0026 215.652 19.8303C216.392 19.6682 217.142 20.1242 217.304 20.8739C217.496 21.6845 217.04 22.4343 216.29 22.6167C216.189 22.6268 216.088 22.6471 215.976 22.6471ZM115.952 22.0189C115.729 22.0189 115.506 21.9682 115.303 21.8568C114.624 21.492 114.371 20.6612 114.736 19.9823C115.111 19.2528 115.941 18.9792 116.62 19.3237C117.299 19.6682 117.573 20.4991 117.228 21.188C116.924 21.7554 116.448 22.0189 115.952 22.0189ZM213.96 17.9255C213.534 17.9255 213.119 17.733 212.856 17.3682C212.349 16.6995 212.471 15.8281 213.089 15.3722C213.697 14.9162 214.568 15.0378 215.024 15.6457C215.531 16.3347 215.399 17.2061 214.781 17.662C214.538 17.8343 214.244 17.9255 213.96 17.9255ZM117.958 17.4797C117.563 17.4797 117.178 17.3175 116.904 16.9933C116.407 16.4057 116.478 15.5343 117.066 15.0378C117.735 14.4805 118.606 14.5616 119.092 15.1493C119.579 15.7369 119.498 16.6083 118.91 17.0946C118.586 17.3682 118.272 17.4797 117.958 17.4797ZM122.537 15.1391C121.96 15.1391 121.423 14.7744 121.23 14.1968C120.987 13.4775 121.372 12.6871 122.092 12.444C122.912 12.1704 123.693 12.5656 123.936 13.2951C124.179 14.0246 123.784 14.8048 123.054 15.0479C122.841 15.1189 122.689 15.1391 122.537 15.1391ZM210.008 14.7034C209.806 14.7034 209.593 14.6528 209.39 14.5616C208.641 14.1968 208.347 13.366 208.681 12.677C209.016 11.988 209.846 11.7043 210.525 12.0387C211.305 12.4237 211.579 13.2545 211.234 13.9435C211.001 14.4197 210.515 14.7034 210.008 14.7034ZM127.553 13.8321C126.904 13.8321 126.327 13.3761 126.195 12.7175C126.043 11.9678 126.53 11.2382 127.279 11.0863C128.12 10.914 128.85 11.4004 129.002 12.1501C129.154 12.8999 128.667 13.6294 127.918 13.7814C127.735 13.8321 127.644 13.8321 127.553 13.8321ZM205.125 13.062C204.02 12.8493 203.534 12.1096 203.696 11.3598C203.858 10.6101 204.588 10.144 205.338 10.3061C206.168 10.4885 206.634 11.2281 206.472 11.9678C206.33 12.6162 205.763 13.062 205.125 13.062ZM132.7 12.9911C132.021 12.9911 131.413 12.4946 131.312 11.7955C131.211 11.0356 131.717 10.3466 132.477 10.2352C133.288 10.1237 134.007 10.6506 134.108 11.4105C134.21 12.1704 133.703 12.8695 132.943 12.9708C132.832 12.981 132.761 12.9911 132.7 12.9911ZM137.817 12.4136C137.107 12.4136 136.51 11.8766 136.439 11.1572C136.368 10.3973 136.925 9.71842 137.685 9.6475C138.546 9.56644 139.215 10.1338 139.286 10.8938C139.357 11.6537 138.789 12.3325 138.03 12.3933C137.898 12.4136 137.857 12.4136 137.817 12.4136ZM200.018 12.2413C199.015 12.14 198.468 11.451 198.549 10.7012C198.63 9.94133 199.319 9.39419 200.079 9.47525C200.93 9.56644 201.477 10.2554 201.396 11.0153C201.315 11.7145 200.717 12.2413 200.018 12.2413ZM143.025 12.0083C142.305 12.0083 141.677 11.451 141.626 10.7215C141.576 9.96159 142.133 9.303 142.893 9.25234C143.704 9.20168 144.382 9.76908 144.433 10.529C144.484 11.2889 143.926 11.9475 143.167 11.9982C143.085 11.9982 143.055 12.0083 143.025 12.0083ZM194.861 11.8259C193.929 11.7753 193.351 11.1268 193.392 10.3567C193.432 9.59684 194.091 9.00917 194.851 9.0497C195.702 9.10036 196.29 9.74882 196.249 10.5087C196.198 11.2484 195.59 11.8259 194.861 11.8259ZM148.152 11.7246C147.412 11.7246 146.804 11.1369 146.774 10.3973C146.743 9.63736 147.331 8.98891 148.101 8.95851C148.932 8.91798 149.59 9.50565 149.631 10.2757C149.671 11.0356 149.084 11.6841 148.314 11.7246C148.192 11.7246 148.172 11.7246 148.152 11.7246ZM189.693 11.6334C188.812 11.6131 188.204 10.9849 188.214 10.2149C188.234 9.46512 188.842 8.85719 189.602 8.85719C190.494 8.87745 191.092 9.51578 191.071 10.2858C191.051 11.0356 190.433 11.6334 189.693 11.6334ZM184.516 11.5422C183.645 11.5321 183.037 10.9039 183.047 10.1338C183.057 9.37393 183.675 8.766 184.435 8.766C185.316 8.78626 185.924 9.41446 185.914 10.1744C185.884 10.9444 185.266 11.5422 184.516 11.5422ZM153.339 11.5422C152.589 11.5422 151.982 10.9444 151.951 10.1946C151.931 9.43472 152.529 8.79639 153.299 8.77613C154.17 8.77613 154.788 9.3638 154.808 10.1237C154.829 10.8836 154.231 11.5219 153.461 11.5422C153.36 11.5422 153.349 11.5422 153.339 11.5422ZM179.328 11.4612C178.457 11.451 177.849 10.8228 177.859 10.0528C177.869 9.29287 178.518 8.68494 179.257 8.68494C180.108 8.69507 180.727 9.32327 180.716 10.0933C180.706 10.8532 180.088 11.4612 179.328 11.4612ZM158.517 11.4308C157.757 11.4308 157.149 10.8228 157.129 10.0629C157.119 9.303 157.726 8.67481 158.497 8.65454C159.358 8.65454 159.976 9.25234 159.986 10.0123C160.006 10.7722 159.398 11.4105 158.628 11.4206C158.527 11.4308 158.527 11.4308 158.517 11.4308ZM174.151 11.4004C173.289 11.3902 172.671 10.7722 172.671 10.0021C172.682 9.24221 173.3 8.62415 174.06 8.62415C174.931 8.63428 175.539 9.26247 175.529 10.0325C175.529 10.7924 174.911 11.4004 174.151 11.4004ZM163.704 11.37C162.945 11.37 162.326 10.7519 162.316 9.99199C162.306 9.23208 162.924 8.60388 163.694 8.59375C164.556 8.59375 165.174 9.21181 165.174 9.98186C165.174 10.7418 164.556 11.37 163.786 11.37C163.704 11.37 163.704 11.37 163.704 11.37ZM168.973 11.37C168.122 11.37 167.504 10.7519 167.504 9.98186C167.504 9.22195 168.122 8.59375 168.892 8.59375C169.753 8.59375 170.371 9.22194 170.361 9.99199C170.351 10.7519 169.733 11.37 168.973 11.37Z" fill="#FDB49D"/>
<path fill-rule="evenodd" clip-rule="evenodd" d="M18.1378 62.9414H199.058C204.975 62.9414 209.778 67.7441 209.778 73.6612V114.403C209.778 120.32 204.975 125.123 199.058 125.123H18.1378C12.2206 125.123 7.41797 120.32 7.41797 114.403V73.6612C7.41797 67.7441 12.2206 62.9414 18.1378 62.9414Z" fill="white"/>
<path fill-rule="evenodd" clip-rule="evenodd" d="M82.4043 110.319C82.1814 109.063 82.0902 107.847 82.0598 106.621H21.7228C19.7571 106.621 18.1562 108.212 18.1562 110.188C18.1562 112.153 19.747 113.754 21.7228 113.754H82.5057C82.5361 112.609 82.5766 111.464 82.4043 110.319Z" fill="#EC663D"/>
<path fill-rule="evenodd" clip-rule="evenodd" d="M94.2698 106.633H82.0605C82.0909 107.859 82.172 109.075 82.405 110.331C82.5773 111.476 82.5368 112.621 82.5064 113.766H94.2698C96.2355 113.766 97.8363 112.175 97.8363 110.199C97.8262 108.224 96.2355 106.633 94.2698 106.633Z" fill="#FDB49D"/>
<path fill-rule="evenodd" clip-rule="evenodd" d="M21.7849 83.7617C19.8193 83.7617 18.2285 85.3525 18.2285 87.3181C18.2285 89.2838 19.8193 90.8846 21.7849 90.8846H36.588C36.5171 88.5036 36.4462 86.1225 36.2739 83.7617H21.7849Z" fill="#EC663D"/>
<path fill-rule="evenodd" clip-rule="evenodd" d="M94.2696 83.7617H36.2832C36.4555 86.1225 36.5264 88.5036 36.5973 90.8846H94.2696C96.2353 90.8846 97.826 89.2939 97.826 87.3181C97.826 85.3525 96.2353 83.7617 94.2696 83.7617Z" fill="#FDB49D"/>
<path fill-rule="evenodd" clip-rule="evenodd" d="M21.7329 95.2109C19.7571 95.2109 18.1562 96.8118 18.1562 98.7876C18.1562 100.763 19.7571 102.364 21.7329 102.364H62.7074C62.2819 100.003 62.2413 97.5819 61.7752 95.2211H21.7329V95.2109Z" fill="#EC663D"/>
<path fill-rule="evenodd" clip-rule="evenodd" d="M94.2209 95.2109H61.7676C62.2337 97.5717 62.2843 99.9933 62.6997 102.354H94.2209C96.1967 102.354 97.7874 100.753 97.7874 98.7775C97.7874 96.8118 96.1967 95.2109 94.2209 95.2109Z" fill="#FDB49D"/>
<path fill-rule="evenodd" clip-rule="evenodd" d="M81.5934 103.59C85.2207 103.59 88.1691 106.528 88.1691 110.155C88.1691 113.783 85.2207 116.721 81.5934 116.721C77.9559 116.721 75.0176 113.783 75.0176 110.155C75.0176 106.528 77.966 103.59 81.5934 103.59Z" fill="#EC663D"/>
<path fill-rule="evenodd" clip-rule="evenodd" d="M35.3004 80.7344C38.9277 80.7344 41.8762 83.6727 41.8762 87.3C41.8762 90.9273 38.9378 93.8657 35.3004 93.8657C31.6731 93.8657 28.7246 90.9273 28.7246 87.3C28.7347 83.6727 31.6731 80.7344 35.3004 80.7344Z" fill="#EC663D"/>
<path fill-rule="evenodd" clip-rule="evenodd" d="M60.3077 90.6328C64.7962 90.6328 68.4337 94.2905 68.4337 98.8095C68.4337 103.318 64.7962 106.986 60.3077 106.986C55.8191 106.986 52.1817 103.328 52.1817 98.8095C52.1715 94.3007 55.8191 90.6328 60.3077 90.6328Z" fill="#EC663D"/>
<path d="M198.915 123.693H18.0053C11.5308 123.693 6.25195 118.424 6.25195 111.949V71.208C6.25195 64.7336 11.5207 59.4648 18.0053 59.4648H198.925C205.4 59.4648 210.668 64.7336 210.668 71.208V111.949C210.668 118.424 205.4 123.693 198.915 123.693ZM18.0053 61.5115C12.6555 61.5115 8.30878 65.8582 8.30878 71.208V111.949C8.30878 117.299 12.6555 121.646 18.0053 121.646H198.925C204.275 121.646 208.622 117.299 208.622 111.949V71.208C208.622 65.8684 204.275 61.5115 198.925 61.5115H18.0053Z" fill="#EC663D"/>
<path d="M161.264 74.4219H0V76.4787H161.264V74.4219Z" fill="#EC663D"/>
<path fill-rule="evenodd" clip-rule="evenodd" d="M151.079 28.4492H247.659C253.576 28.4492 258.379 33.2519 258.379 39.1691V87.5907C258.379 93.5079 253.576 98.3105 247.659 98.3105H151.079C145.162 98.3105 140.359 93.5079 140.359 87.5907V39.1691C140.349 33.2519 145.152 28.4492 151.079 28.4492Z" fill="#EC663D"/>
<path fill-rule="evenodd" clip-rule="evenodd" d="M216.058 45.9688H240.952C246.87 45.9688 251.672 50.7714 251.672 56.6886V81.2591C251.672 87.1763 246.87 91.9789 240.952 91.9789H216.058C210.141 91.9789 205.338 87.1763 205.338 81.2591V56.6886C205.338 50.7613 210.13 45.9688 216.058 45.9688Z" fill="#FDB49D"/>
<path d="M249.486 97.6017H152.906C146.431 97.6017 141.152 92.333 141.152 85.8484V37.4369C141.152 30.9625 146.421 25.6836 152.906 25.6836H249.486C255.96 25.6836 261.229 30.9523 261.229 37.4369V85.8586C261.239 92.333 255.96 97.6017 249.486 97.6017ZM152.906 27.7404C147.566 27.7404 143.209 32.0871 143.209 37.4369V85.8586C143.209 91.2083 147.556 95.555 152.906 95.555H249.486C254.825 95.555 259.182 91.2083 259.182 85.8586V37.4369C259.182 32.0871 254.835 27.7404 249.486 27.7404H152.906Z" fill="#EC663D"/>
<path fill-rule="evenodd" clip-rule="evenodd" d="M61.6244 113.419C61.6244 113.419 57.9667 106.033 56.9433 102.78C55.9301 99.5279 56.9129 93.0434 60.9354 95.8905C64.968 98.7275 71.6046 110.795 72.7596 119.792C73.8438 128.253 72.5165 142.448 72.253 153.826C72.0301 163.442 72.9319 171.102 72.9319 171.102C72.9319 171.102 81.6658 171.649 89.0116 168.974C96.3575 166.299 110.867 157.747 110.867 157.747C110.867 157.747 105.639 144.778 113.754 139.114C123.876 132.052 132.894 131.88 132.894 131.88L132.296 124.899C132.296 124.899 122.904 123.936 120.138 117.583C117.361 111.231 119.287 108.14 119.287 108.14C119.287 108.14 118.02 106.509 117.159 104.483C116.298 102.456 119.135 103.267 120.644 101.929C122.154 100.592 123.876 97.076 123.876 97.076C123.876 97.076 114.798 84.7755 126.855 77.2473C138.913 69.7292 177.699 65.3521 182.906 82.435C188.114 99.5178 179.806 127.341 186.139 135.436C192.471 143.542 193.028 143.177 193.028 143.177C193.028 143.177 193.778 115.233 194.984 108.637C196.19 102.041 195.886 93.9755 202.553 92.557C209.23 91.1385 219.119 88.7372 222.29 88.4737C225.451 88.2103 230.112 89.031 228.582 91.2804C227.052 93.5297 226.455 96.1337 226.455 96.1337C226.455 96.1337 232.22 96.1641 236.151 95.1103C240.082 94.0667 244.307 91.331 245.25 93.4892C246.192 95.6575 245.25 97.0658 245.25 97.0658C245.25 97.0658 251.623 95.6068 249.84 98.4235C248.056 101.24 246.101 103.358 246.101 103.358C246.101 103.358 246.739 106.468 242.615 108.373C238.481 110.278 228.846 111.879 224.752 112.548C220.659 113.206 216.251 114.676 216.251 114.676L219.828 154.667C219.828 154.667 243.446 163.725 238.714 183.422C233.973 203.129 217.366 212.177 217.366 212.177C217.366 212.177 211.043 227.994 199.503 227.659C187.962 227.325 179.684 220.172 179.684 220.172C179.684 220.172 172.957 223.019 167.688 221.448C162.419 219.878 160.545 217.791 160.545 217.791H119.965C119.965 217.791 116.166 215.643 113.754 212.177C111.343 208.712 110.603 202.643 110.603 202.643C110.603 202.643 91.3522 205.45 72.7596 203.747C54.157 202.055 39.8909 196.827 39.8402 179.754C39.7896 162.682 44.7746 137.898 44.7746 137.898C44.7746 137.898 38.0468 132.154 41.1169 127.432C44.1869 122.71 44.9468 123.43 44.9468 123.43C44.9468 123.43 45.8182 118.607 47.3279 117.898C48.8376 117.188 50.479 117.391 50.479 117.391C50.479 117.391 51.0667 112.112 54.4812 111.859C57.8856 111.636 61.6244 113.419 61.6244 113.419Z" fill="white"/>
<path fill-rule="evenodd" clip-rule="evenodd" d="M56.3761 3.52734H146.704C152.622 3.52734 157.424 8.32999 157.424 14.2472V59.9027C157.424 65.8199 152.622 70.6226 146.704 70.6226H56.3761C50.4589 70.6226 45.6562 65.8199 45.6562 59.9027V14.2472C45.6562 8.32999 50.4488 3.52734 56.3761 3.52734Z" fill="white"/>
<path d="M159.207 14.3867H47.4395V16.4435H159.207V14.3867Z" fill="#FDB49D"/>
<path d="M147.321 49.2303H89.7909C89.2235 49.2303 88.7676 48.7743 88.7676 48.2069C88.7676 47.6395 89.2235 47.1836 89.7909 47.1836H147.332C147.899 47.1836 148.355 47.6395 148.355 48.2069C148.355 48.7642 147.889 49.2303 147.321 49.2303Z" fill="#EC663D"/>
<path d="M94.1678 57.8959C93.8639 57.8959 93.5599 57.7642 93.3572 57.5008C93.0026 57.0549 93.0837 56.4065 93.5295 56.062L95.7484 54.3193L93.4788 52.7082C93.0128 52.384 92.9114 51.7356 93.2357 51.2796C93.5599 50.8135 94.2083 50.7122 94.6643 51.0364L98.0586 53.4479C98.322 53.6303 98.4841 53.9342 98.4943 54.2585C98.5044 54.5827 98.3524 54.8867 98.0991 55.0893L94.796 57.6831C94.6136 57.825 94.3907 57.8959 94.1678 57.8959Z" fill="#EC663D"/>
<path d="M147.322 55.574H103.551C102.983 55.574 102.527 55.1181 102.527 54.5507C102.527 53.9833 102.983 53.5273 103.551 53.5273H147.332C147.899 53.5273 148.355 53.9833 148.355 54.5507C148.355 55.108 147.889 55.574 147.322 55.574Z" fill="#EC663D"/>
<path d="M147.323 35.4725H138.295C137.727 35.4725 137.271 35.0165 137.271 34.4491C137.271 33.8817 137.727 33.4258 138.295 33.4258H147.323C147.89 33.4258 148.346 33.8817 148.346 34.4491C148.346 35.0165 147.89 35.4725 147.323 35.4725Z" fill="#EC663D"/>
<path d="M115.517 42.5233H89.7812C89.2138 42.5233 88.7578 42.0673 88.7578 41.4999C88.7578 40.9325 89.2138 40.4766 89.7812 40.4766H115.517C116.084 40.4766 116.54 40.9325 116.54 41.4999C116.54 42.0673 116.084 42.5233 115.517 42.5233Z" fill="#EC663D"/>
<path d="M147.321 49.2303H89.7909C89.2235 49.2303 88.7676 48.7743 88.7676 48.2069C88.7676 47.6395 89.2235 47.1836 89.7909 47.1836H147.332C147.899 47.1836 148.355 47.6395 148.355 48.2069C148.355 48.7642 147.889 49.2303 147.321 49.2303Z" fill="#EC663D"/>
<path d="M147.23 28.1873H89.6991C89.1317 28.1873 88.6758 27.7314 88.6758 27.164C88.6758 26.5966 89.1317 26.1406 89.6991 26.1406H147.24C147.807 26.1406 148.263 26.5966 148.263 27.164C148.263 27.7314 147.797 28.1873 147.23 28.1873Z" fill="#EC663D"/>
<path d="M132.224 35.4725H89.7909C89.2235 35.4725 88.7676 35.0165 88.7676 34.4491C88.7676 33.8817 89.2235 33.4258 89.7909 33.4258H132.224C132.792 33.4258 133.248 33.8817 133.248 34.4491C133.248 35.0165 132.792 35.4725 132.224 35.4725Z" fill="#EC663D"/>
<path d="M147.322 42.5233H123.471C122.903 42.5233 122.447 42.0673 122.447 41.4999C122.447 40.9325 122.903 40.4766 123.471 40.4766H147.322C147.889 40.4766 148.345 40.9325 148.345 41.4999C148.355 42.0673 147.889 42.5233 147.322 42.5233Z" fill="#EC663D"/>
<path d="M147.321 49.2303H89.7909C89.2235 49.2303 88.7676 48.7743 88.7676 48.2069C88.7676 47.6395 89.2235 47.1836 89.7909 47.1836H147.332C147.899 47.1836 148.355 47.6395 148.355 48.2069C148.355 48.7642 147.889 49.2303 147.321 49.2303Z" fill="#EC663D"/>
<path d="M148.785 6.86915L144.143 11.5117L145.597 12.9661L150.24 8.32354L148.785 6.86915Z" fill="#FDB49D"/>
<path d="M145.601 6.86593L144.146 8.32031L148.789 12.9629L150.243 11.5085L145.601 6.86593Z" fill="#FDB49D"/>
<path fill-rule="evenodd" clip-rule="evenodd" d="M64.5929 22.2891H74.3299C80.2471 22.2891 85.0497 27.0917 85.0497 33.0089V49.8992C85.0497 55.8164 80.2471 60.6191 74.3299 60.6191H64.5929C58.6757 60.6191 53.873 55.8164 53.873 49.8992V33.0089C53.873 27.0917 58.6757 22.2891 64.5929 22.2891Z" fill="#FDB49D"/>
<path d="M255.361 41.3194H152.681C151.942 41.3194 151.344 40.7216 151.344 39.982C151.344 39.2423 151.942 38.6445 152.681 38.6445H255.361C256.1 38.6445 256.698 39.2423 256.698 39.982C256.708 40.7216 256.1 41.3194 255.361 41.3194Z" fill="#FDB49D"/>
<path d="M196.725 54.0968H155.892C155.152 54.0968 154.555 53.499 154.555 52.7593C154.555 52.0197 155.152 51.4219 155.892 51.4219H196.725C197.464 51.4219 198.062 52.0197 198.062 52.7593C198.072 53.499 197.464 54.0968 196.725 54.0968Z" fill="#FDB49D"/>
<path d="M196.819 61.7765H155.986C155.246 61.7765 154.648 61.1787 154.648 60.439C154.648 59.6994 155.246 59.1016 155.986 59.1016H196.819C197.558 59.1016 198.156 59.6994 198.156 60.439C198.156 61.1787 197.558 61.7765 196.819 61.7765Z" fill="#FDB49D"/>
<path d="M196.819 69.9132H155.986C155.246 69.9132 154.648 69.3154 154.648 68.5757C154.648 67.8361 155.246 67.2383 155.986 67.2383H196.819C197.558 67.2383 198.156 67.8361 198.156 68.5757C198.156 69.3154 197.558 69.9132 196.819 69.9132Z" fill="#FDB49D"/>
<path d="M248.668 30.7246L244.025 35.3672L245.48 36.8216L250.122 32.179L248.668 30.7246Z" fill="#FDB49D"/>
<path d="M245.488 30.7294L244.033 32.1836L248.675 36.8268L250.13 35.3726L245.488 30.7294Z" fill="#FDB49D"/>
<path fill-rule="evenodd" clip-rule="evenodd" d="M237.781 30.418C239.636 30.418 241.135 31.9175 241.135 33.7717C241.135 35.6259 239.636 37.1255 237.781 37.1255C235.927 37.1255 234.428 35.6259 234.428 33.7717C234.428 31.9175 235.927 30.418 237.781 30.418Z" fill="#FDB49D"/>
<path d="M148.487 69.1521H58.1592C51.6847 69.1521 46.416 63.8833 46.416 57.3987V11.7432C46.416 5.26873 51.6847 0 58.1592 0H148.487C154.962 0 160.231 5.26873 160.231 11.7432V57.3987C160.231 63.8833 154.962 69.1521 148.487 69.1521ZM58.1592 2.05683C52.8195 2.05683 48.4627 6.40353 48.4627 11.7533V57.4089C48.4627 62.7587 52.8094 67.1054 58.1592 67.1054H148.487C153.837 67.1054 158.184 62.7587 158.184 57.4089V11.7432C158.184 6.40353 153.837 2.0467 148.487 2.0467H58.1592V2.05683Z" fill="#EC663D"/>
<path fill-rule="evenodd" clip-rule="evenodd" d="M20.3245 65.8906C22.1786 65.8906 23.6782 67.3902 23.6782 69.2444C23.6782 71.0986 22.1786 72.5981 20.3245 72.5981C18.4703 72.5981 16.9707 71.0986 16.9707 69.2444C16.9707 67.3902 18.4703 65.8906 20.3245 65.8906Z" fill="#EC663D"/>
<path d="M31.2103 66.1869L26.5664 70.8281L28.0204 72.2829L32.6643 67.6417L31.2103 66.1869Z" fill="#EC663D"/>
<path d="M28.0208 66.1823L26.5664 67.6367L31.209 72.2793L32.6634 70.8249L28.0208 66.1823Z" fill="#EC663D"/>
<path fill-rule="evenodd" clip-rule="evenodd" d="M114.798 155.061C114.798 155.061 112.984 151.535 114.453 147.239C115.862 143.146 123.076 138.566 128.314 137.289C142.144 133.905 142.215 134.554 145.498 130.997C148.771 127.441 148.558 123.51 148.558 123.51C148.558 123.51 151.628 123.54 152.216 119.092C152.793 114.735 149.156 113.985 149.156 113.985C149.156 113.985 140.169 110.5 135.295 102.333C130.421 94.1668 130.016 87.4492 130.016 87.4492L125.426 94.4201C125.426 94.4201 121.242 84.6122 130.361 80.2148C139.48 75.8174 166.796 70.3157 176.634 80.8937C186.473 91.4717 184.456 103.772 184.456 103.772C184.456 103.772 177.86 137.137 194.153 144.514C210.445 151.89 236.333 158.293 238.633 176.582C241.561 199.845 216.352 212.308 216.352 212.308C216.352 212.308 210.151 228.469 200.019 228.55C186.371 228.671 177.82 216.472 177.82 216.472C177.82 216.472 164.891 219.512 157.322 208.812C149.754 198.123 146.38 185.073 146.603 171.637C146.825 158.212 152.469 139.914 152.469 139.914L150.341 138.303L145.407 150.887C145.407 150.887 135.275 150.38 129.418 150.887C123.572 151.403 114.798 155.061 114.798 155.061Z" fill="#EC663D"/>
<path fill-rule="evenodd" clip-rule="evenodd" d="M75.6785 175.906C75.6785 175.906 92.6499 175.157 103.836 168.419C115.012 161.681 121.324 157.699 129.187 156.513C137.049 155.318 145.601 156.088 145.601 156.088C145.601 156.088 138.447 184.883 147.05 199.21C155.652 213.537 161.255 218.684 161.255 218.684H127.738C127.738 218.684 120.777 215.999 117.535 209.758C114.282 203.506 113.796 202.017 113.796 202.017L80.542 204.145C80.542 204.145 70.4908 198.511 71.0988 189.514C71.6864 180.516 75.6785 175.906 75.6785 175.906Z" fill="#223549"/>
<path fill-rule="evenodd" clip-rule="evenodd" d="M132.963 103.429C133.835 103.936 134.139 105.05 133.632 105.932L132.649 107.634C132.143 108.505 131.018 108.809 130.147 108.303C129.275 107.796 128.971 106.671 129.478 105.8L130.461 104.098C130.967 103.226 132.082 102.922 132.963 103.429Z" fill="#223549"/>
<path fill-rule="evenodd" clip-rule="evenodd" d="M192.299 140.431C192.765 128.192 192.968 117.026 194.356 105.587C195.004 100.227 195.886 94.9278 199.898 92.9014C203.039 91.3107 208.095 91.5437 212.138 90.5811C216.322 89.5882 219.321 87.6529 224.023 87.9873C227.802 88.2609 232.301 90.6318 230.092 94.5935C232.615 94.4415 235.27 94.0159 237.955 93.3472C241.602 92.4353 248.33 89.9327 247.955 95.7587C249.384 96.5794 251.147 97.1164 251.349 98.9706C251.653 101.777 248.634 103.246 246.972 104.513C247.894 106.225 246.222 107.684 245.007 108.89C242.443 111.443 239.079 112.71 234.915 113.541C229.119 114.696 222.888 114.959 218.207 116.489C219.372 129.316 220.72 141.972 221.956 154.728C227.822 157.2 232.554 160.757 235.979 165.894C239.282 170.858 241.633 177.789 240.173 185.905C237.742 199.451 228.116 208.084 217.842 213.869C214.721 220.932 210.993 227.73 202.654 229.503C192.846 231.591 185.47 226.535 180.14 222.178C176.128 223.698 171.69 223.981 167.992 222.887C164.334 221.813 161.386 219.706 158.974 217.618C153.807 213.16 149.703 207.78 146.735 201.265C143.857 194.953 141.557 186.938 141.557 177.86C141.557 168.781 142.55 160.108 144.597 152.398C137.362 151.972 130.868 152.539 125.214 154.009C119.641 155.457 114.97 158.072 110.563 160.615C101.91 165.62 94.4729 170.929 82.6892 172.763C81.9495 172.875 81.0984 172.875 80.4601 173.118C79.5786 173.462 78.383 175.185 77.694 176.157C75.3636 179.44 73.1548 183.615 73.2257 188.843C73.327 196.26 77.6535 199.887 81.9799 202.957C93.6116 202.805 106.277 201.721 117.534 200.272C119.165 200.059 122.144 199.249 121.82 201.701C121.627 203.18 119.023 203.17 117.797 203.312C115.882 203.535 114.454 203.646 112.792 203.849C114.433 211.428 118.131 216.787 125.214 219.574C126.308 219.999 128.963 220.526 127.625 222.076C127.301 222.461 125.487 222.715 124.586 222.613C123.086 222.441 120.209 220.638 119.043 219.847C115.821 217.649 113.4 214.254 111.809 210.556C110.988 208.651 110.076 206.605 110.117 204.213C99.2249 205.105 87.3196 206.513 75.7284 205.906C64.127 205.298 54.2583 203.079 46.8719 198.134C42.8596 195.449 40.286 192.683 39.1917 187.505C38.1279 182.47 38.8574 176.279 39.4653 170.534C40.6103 159.612 42.5151 148.912 44.6429 139.094C43.194 137.757 41.512 136.318 40.5292 134.18C38.6446 130.056 40.2962 124.494 44.1058 123.278C43.812 119.65 45.5345 116.57 49.2834 116.398C50.4993 114.27 52.1913 111.646 55.3526 111.393C57.2675 111.241 58.8786 112.001 60.449 112.639C59.1724 108.839 53.5288 102.973 56.5178 96.8327C57.0041 95.8296 58.1794 94.4212 60.0032 94.4212C62.9821 94.4212 65.1402 97.7142 66.4372 99.69C68.0583 102.162 69.335 104.878 70.3684 107.461C72.6583 113.206 74.2389 119.316 74.9279 126.216C75.6574 133.562 74.7658 141.201 74.2997 148.284C73.8134 155.731 73.8742 163.543 74.7455 170.443C90.6328 170.372 100.106 163.107 110.391 157.129C108.779 154.231 107.219 150.3 108.334 146.592C109.266 143.501 111.88 140.816 113.957 138.912C118.547 134.707 124.282 131.211 132.448 130.877C132.033 129.235 131.496 127.716 131.111 126.054C124.069 125.801 119.54 121.697 118.517 114.534C118.213 112.426 117.696 108.049 119.854 108.008C121.566 107.978 121.435 109.984 121.374 111.666C121.576 112.375 123.451 114.199 125.66 115.06C127.382 115.729 130.3 114.584 130.31 116.753C130.32 118.83 126.46 118.627 124.596 117.918C123.461 117.482 122.711 116.59 122.002 116.134C123.198 121.636 128.233 123.47 134.951 123.014C136.623 122.903 139.257 121.991 139.237 124.179C139.227 126.206 136.339 125.821 134.323 126.054C134.414 127.422 135.164 128.901 135.397 130.431C139.419 129.864 141.902 127.766 143.969 125.253C142.743 124.635 139.531 123.764 139.683 121.677C139.733 120.998 140.189 120.42 140.929 120.339C141.679 120.258 142.479 120.988 142.803 121.231C143.614 121.839 144.536 122.528 145.752 122.568C147.728 122.639 150.028 120.816 150.484 119.083C151.051 116.915 149.936 114.686 147.444 114.888C146.309 114.979 143.735 116.479 143.249 114.625C143.026 113.774 143.462 113.338 143.786 112.842C139.642 109.782 136.055 106.164 133.158 101.858C131.091 101.514 127.818 102.132 128.061 99.8014C128.203 98.5045 129.875 98.3323 131.455 98.7274C130.837 96.7516 129.723 94.5124 129.307 92.03C128.223 93.2054 127.22 94.7455 126.45 96.6807C125.457 99.1631 125.092 101.96 122.873 103.115C121.495 103.834 117.716 104.168 117.422 102.314C117.037 99.8217 119.55 101.038 121.171 100.531C122.326 100.166 122.083 99.3556 122.691 98.3829C122.174 97.775 121.87 97.7041 121.617 97.2177C120.665 95.3838 120.31 93.0129 120.006 90.6926C118.922 82.3842 123.613 78.4124 128.851 75.778C134.161 73.1031 140.422 71.2591 147.434 70.2357C158.863 68.5741 170.413 70.6005 177.719 75.1498C183.565 78.7974 187.263 84.2891 187.365 93.5499C187.456 102.618 185.814 110.612 185.399 119.63C184.984 129.012 186.797 136.338 192.299 140.431ZM147.363 142.843C147.859 141.374 148.589 137.25 150.575 137.392C153.087 137.574 150.95 141.678 150.575 142.752C148.417 148.922 146.856 155.012 145.752 162.226C144.313 171.557 144.222 183.432 146.461 191.619C148.812 200.171 152.895 207.03 157.9 212.522C160.413 215.278 163.453 217.851 167.191 219.402C170.231 220.658 174.051 220.749 177.465 219.847C178.458 219.584 179.553 218.966 180.677 218.956C181.508 218.946 182.39 220.03 182.906 220.476C187.233 224.143 193.231 227.902 201.215 226.636C208.369 225.501 211.692 220.08 214.164 214.579C214.519 213.798 214.772 212.826 215.238 212.076C215.623 211.448 216.961 210.83 217.741 210.374C226.485 205.267 234.439 197.729 236.951 186.523C237.924 182.196 237.63 176.867 236.151 172.946C233.243 165.245 227.853 160.513 220.426 157.403C213.009 154.292 205.359 151.992 198.277 148.203C191.266 144.454 185.51 139.874 183.362 131.86C181.032 123.156 183.099 112.487 183.899 103.186C184.295 98.5856 184.68 92.8102 183.808 88.5344C182.917 84.1675 180.839 81.2595 177.82 78.8886C172.176 74.4609 163.189 72.2216 152.632 72.7283C146.795 73.0018 140.99 74.2481 135.66 76.2137C131.182 77.8551 125.487 80.1349 123.603 84.2485C122.205 87.2983 122.894 91.2701 124.049 94.7049C124.576 93.4485 125.254 92.3543 126.106 91.1283C126.602 90.4089 128.355 88.727 128.426 87.9974C128.608 86.0521 126.612 81.4419 129.591 81.6547C131.232 81.7662 131.009 84.4512 131.202 86.0318C132.59 97.8256 138.122 105.08 145.853 110.602C146.491 111.058 147.261 111.757 147.636 111.849C148.508 112.071 149.399 111.909 149.957 112.112C152.398 112.994 154.04 115.8 153.614 119.083C153.199 122.396 150.149 124.666 147.454 125.334C146.785 126.976 145.448 128.344 144.151 129.529C142.895 130.674 141.314 131.779 139.591 132.478C135.832 134.008 131.111 133.653 126.815 134.798C122.883 135.852 119.874 137.919 117.169 140.249C114.828 142.265 111.059 145.143 111.009 149.186C110.968 151.891 112.093 153.634 112.974 155.62C121.242 151.121 132.266 148.497 145.316 149.368C146.005 147.21 146.583 145.153 147.363 142.843ZM222.31 91.027C218.774 91.2904 216.11 92.9622 211.864 93.793C208.328 94.482 203.596 94.2085 200.962 95.8499C198.439 97.4204 197.851 102.446 197.385 106.215C195.947 117.999 195.724 130.36 195.237 142.752C202.026 147.362 210.567 150.239 218.734 153.472C217.599 141.414 216.393 129.428 215.157 117.472C214.012 117.867 212.442 117.594 212.482 116.134C212.513 114.817 213.779 114.777 214.985 114.26C215.471 114.047 215.806 113.723 216.15 113.632C216.515 113.541 216.92 113.612 217.315 113.541C219.342 113.196 221.581 112.375 224.013 112.021C230.578 111.058 237.975 110.775 242.058 107.461C242.352 107.218 242.899 107.036 242.859 106.57C240.285 107.938 236.374 108.718 232.676 109.255C230.903 109.508 227.924 110.258 227.944 108.09C227.964 106.347 229.991 106.61 231.693 106.387C236.718 105.749 241.116 104.351 244.561 102.365C245.918 101.575 247.448 100.794 248.137 99.3252C247.803 99.0618 247.347 98.9199 246.972 98.697C246.06 99.2138 245.807 99.8825 245.007 100.48C241.754 102.942 235.786 104.057 230.173 104.412C228.025 104.553 225.411 104.868 225.533 102.892C225.644 101.038 229.119 101.412 230.71 101.281C232.99 101.098 234.996 100.825 236.698 100.48C240.548 99.69 244.024 98.6362 244.915 95.1204C241.977 95.1001 239.292 96.3261 236.252 96.9036C234.793 97.1873 233.223 97.3697 231.612 97.5318C230.011 97.6838 228.136 97.4102 226.515 97.7952C225.735 97.9776 224.793 98.7578 223.83 99.1327C221.652 99.9939 219.94 100.247 217.842 101.19C216.555 101.767 213.688 103.479 213.729 100.835C213.749 99.538 215.654 98.8287 216.768 98.3323C220.801 96.5186 225.725 96.164 227.579 92.5265C226.505 91.4829 224.57 90.8648 222.31 91.027ZM58.838 102.193C59.2838 104.533 60.8341 106.59 62.0499 108.89C63.3164 111.291 64.3398 113.693 65.0896 115.77C65.9913 117.016 68.4129 117.533 68.3927 119.427C68.3825 120.248 67.8759 120.897 66.8728 120.856C65.9812 120.826 65.1098 119.691 64.279 118.982C63.3975 118.232 62.5464 117.553 61.7764 117.016C59.3953 115.334 56.001 113.308 53.7415 115.314C53.3565 115.658 52.6675 116.286 52.8499 116.651C55.6059 117.462 57.5411 118.242 59.9931 119.782C60.9759 120.4 64.1372 122.052 64.1068 123.622C64.0865 124.382 63.5698 125.031 62.6781 125.051C61.6852 125.071 60.3477 123.683 59.4662 123.085C57.3891 121.677 55.2208 120.36 52.4953 119.691C49.2834 118.901 46.7402 119.519 46.953 122.903C51.1984 123.44 53.9138 125.01 56.7812 126.834C57.7539 127.452 59.0609 128.121 59.0103 129.246C58.9799 130.178 58.1794 130.654 57.5816 130.674C56.7305 130.705 55.6059 129.651 54.8156 129.154C53.8631 128.557 52.86 128.04 52.0495 127.634C50.2054 126.733 47.6217 125.294 45.1697 126.023C43.4979 126.52 42.6468 128.901 42.7583 130.846C42.8495 132.376 43.5992 133.46 44.2781 134.332C44.5821 134.717 44.8556 135.467 45.3521 135.315C46.2032 133.744 45.6155 130.37 47.5812 130.137C50.5398 129.783 48.716 134.281 48.2904 136.125C47.8548 138.03 47.4292 140.229 47.0442 142.113C44.5618 154.069 42.3023 166.897 41.6843 180.079C41.4512 185.104 42.1503 189.035 44.2781 191.872C46.3147 194.588 49.4354 196.472 52.6777 197.942C58.8988 200.779 67.0755 202.613 76.62 202.947C76.7821 202.481 75.9715 202.025 75.6372 201.701C72.5773 198.641 70.1354 194.618 70.1861 188.661C70.2367 182.764 72.4861 178.457 74.9178 174.992C75.2623 174.496 75.8601 173.868 75.7182 173.472C72.7292 173.614 69.5883 173.624 66.427 173.381C64.2081 173.209 58.9596 173.422 59.0103 171.152C59.0508 169.257 61.1583 169.805 62.7592 169.987C65.6063 170.311 68.8689 170.544 71.6958 170.524C70.8852 163.877 70.8244 156.866 71.1587 149.804C71.483 142.833 72.4354 135.953 72.1416 129.083C71.868 122.508 70.3583 116.398 68.3927 110.947C67.501 108.475 66.4676 105.86 65.0896 103.358C64.0054 101.392 62.0905 98.1499 59.912 97.4609C58.838 98.2411 58.5138 100.531 58.838 102.193Z" fill="#223549"/>
<path fill-rule="evenodd" clip-rule="evenodd" d="M146.563 116.044C147.475 116.013 148.863 116.763 148.174 118.192C147.87 118.82 146.948 119.002 146.026 119.175C145.175 119.337 144.111 119.691 143.432 119.621C142.409 119.509 141.547 118.192 142.358 117.118C142.935 116.358 145.327 116.084 146.563 116.044Z" fill="#223549"/>
</svg>
