<svg width="261" height="226" viewBox="0 0 261 226" fill="none" xmlns="http://www.w3.org/2000/svg">
<path fill-rule="evenodd" clip-rule="evenodd" d="M73.0209 77.2656C99.1302 77.2656 120.3 98.4349 120.3 124.544C120.3 150.654 99.1302 171.823 73.0209 171.823C46.9115 171.823 25.7422 150.654 25.7422 124.544C25.7422 98.4349 46.9115 77.2656 73.0209 77.2656Z" fill="white"/>
<path fill-rule="evenodd" clip-rule="evenodd" d="M73.0225 86.707C93.9265 86.707 110.869 103.65 110.869 124.554C110.869 145.458 93.9265 162.4 73.0225 162.4C52.1185 162.4 35.1758 145.458 35.1758 124.554C35.1758 103.65 52.1185 86.707 73.0225 86.707Z" fill="#FDB49D"/>
<path d="M54.583 212.89L49.8574 217.609L51.564 219.318L56.2895 214.599L54.583 212.89Z" fill="#EC663D"/>
<path d="M51.5576 212.884L49.8516 214.594L54.5785 219.311L56.2845 217.602L51.5576 212.884Z" fill="#EC663D"/>
<path fill-rule="evenodd" clip-rule="evenodd" d="M53.0779 203.074C54.8893 203.074 56.353 204.538 56.353 206.349C56.353 208.161 54.8801 209.624 53.0779 209.624C51.2665 209.624 49.8028 208.161 49.8028 206.349C49.7936 204.538 51.2665 203.074 53.0779 203.074Z" fill="#EC663D"/>
<path d="M42.9226 203.32L39.373 209.459H46.4722L42.9226 203.32Z" fill="#EC663D"/>
<path d="M180.24 176.445C179.755 176.445 179.298 176.152 179.115 175.667C178.877 175.045 179.188 174.35 179.81 174.112C180.487 173.856 181.183 174.176 181.42 174.798C181.649 175.42 181.329 176.116 180.707 176.344C180.524 176.417 180.378 176.445 180.24 176.445Z" fill="#EC663D"/>
<path d="M186.37 174.156C185.885 174.156 185.428 173.854 185.245 173.378C185.007 172.756 185.327 172.061 185.949 171.823C186.672 171.549 187.367 171.869 187.605 172.491C187.843 173.113 187.523 173.808 186.9 174.046C186.663 174.128 186.516 174.156 186.37 174.156ZM192.545 171.768C192.06 171.768 191.603 171.475 191.42 171C191.182 170.378 191.484 169.682 192.106 169.435C192.801 169.152 193.506 169.454 193.762 170.067C194.009 170.689 193.716 171.384 193.094 171.64C192.838 171.741 192.691 171.768 192.545 171.768ZM198.665 169.28C198.199 169.28 197.75 169.005 197.558 168.548C197.293 167.935 197.577 167.231 198.19 166.965C198.903 166.663 199.608 166.947 199.873 167.56C200.138 168.173 199.845 168.877 199.242 169.143C198.985 169.243 198.83 169.28 198.665 169.28ZM204.612 166.389C204.2 166.389 203.807 166.179 203.578 165.803C203.23 165.236 203.422 164.495 203.99 164.148C204.639 163.754 205.38 163.928 205.728 164.495C206.075 165.062 205.892 165.803 205.325 166.151C205.042 166.334 204.822 166.389 204.612 166.389ZM210.146 162.785C209.771 162.785 209.396 162.611 209.158 162.272C208.774 161.723 208.911 160.973 209.451 160.589C210.082 160.15 210.833 160.278 211.217 160.818C211.601 161.367 211.473 162.117 210.924 162.501C210.622 162.711 210.384 162.785 210.146 162.785ZM215.388 158.768C215.041 158.768 214.702 158.622 214.455 158.329C214.035 157.817 214.099 157.058 214.611 156.628C215.187 156.143 215.947 156.198 216.376 156.71C216.806 157.213 216.752 157.982 216.239 158.412C215.928 158.677 215.654 158.768 215.388 158.768ZM220.255 154.304C219.953 154.304 219.642 154.185 219.414 153.956C218.938 153.49 218.929 152.73 219.405 152.255C219.953 151.706 220.722 151.706 221.189 152.172C221.655 152.639 221.655 153.407 221.189 153.874C220.877 154.185 220.566 154.304 220.255 154.304ZM224.637 149.382C224.372 149.382 224.107 149.291 223.887 149.117C223.366 148.696 223.283 147.946 223.704 147.424C224.18 146.83 224.93 146.738 225.461 147.15C225.982 147.562 226.074 148.321 225.662 148.842C225.342 149.227 224.994 149.382 224.637 149.382ZM228.452 143.985C228.233 143.985 228.013 143.921 227.812 143.802C227.245 143.445 227.071 142.704 227.428 142.137C227.83 141.487 228.571 141.313 229.138 141.661C229.706 142.009 229.879 142.75 229.532 143.317C229.248 143.783 228.855 143.985 228.452 143.985ZM231.59 138.185C231.426 138.185 231.252 138.148 231.087 138.075C230.483 137.791 230.218 137.078 230.502 136.474C230.831 135.769 231.554 135.513 232.148 135.797C232.752 136.08 233.008 136.794 232.725 137.398C232.478 137.919 232.048 138.185 231.59 138.185ZM234.005 132.037C232.999 131.772 232.651 131.095 232.862 130.454C233.109 129.713 233.786 129.375 234.426 129.585C235.057 129.796 235.396 130.482 235.185 131.113C234.984 131.717 234.518 132.037 234.005 132.037ZM52.374 128.689C51.6696 128.661 51.1481 128.112 51.1664 127.444C51.1939 126.676 51.7519 126.136 52.4106 126.173C53.0784 126.191 53.5999 126.749 53.5725 127.417C53.5633 128.176 53.0236 128.689 52.374 128.689ZM235.698 125.661C234.801 125.505 234.38 124.865 234.518 124.215C234.682 123.447 235.323 123.035 235.972 123.172C236.622 123.309 237.043 123.95 236.896 124.599C236.768 125.267 236.265 125.661 235.698 125.661ZM52.4381 122.083C51.7794 122.083 51.2396 121.553 51.2305 120.894C51.2213 120.126 51.7519 119.577 52.4198 119.568C53.0876 119.568 53.6273 120.098 53.6365 120.757C53.6456 121.525 53.115 122.074 52.4472 122.083H52.4381ZM236.713 119.138C235.917 119.055 235.442 118.461 235.515 117.802C235.588 117.052 236.174 116.567 236.841 116.631C237.5 116.695 237.985 117.29 237.921 117.948C237.848 118.68 237.326 119.138 236.713 119.138ZM52.2734 115.478C51.633 115.478 51.1024 114.975 51.0658 114.326C51.0384 113.539 51.5598 112.981 52.2276 112.963C52.8772 112.926 53.4535 113.466 53.4718 114.124C53.5084 114.884 52.987 115.442 52.3283 115.469C52.31 115.478 52.2917 115.478 52.2734 115.478ZM237.125 112.542C236.43 112.523 235.908 111.975 235.917 111.307C235.936 110.547 236.466 110.026 237.125 110.026C237.82 110.044 238.342 110.593 238.333 111.261C238.314 112.02 237.784 112.542 237.125 112.542ZM51.9806 108.882C51.3403 108.882 50.8097 108.379 50.7731 107.73C50.7273 106.97 51.2396 106.403 51.9075 106.367C52.5844 106.321 53.1425 106.842 53.1791 107.501C53.2157 108.288 52.7034 108.846 52.0355 108.873C52.0172 108.882 51.9989 108.882 51.9806 108.882ZM237.015 105.937C236.384 105.937 235.844 105.443 235.817 104.802C235.78 104.016 236.292 103.457 236.96 103.43C237.637 103.412 238.186 103.915 238.214 104.583C238.259 105.342 237.747 105.909 237.079 105.946C237.061 105.937 237.033 105.937 237.015 105.937ZM51.5873 102.286C50.956 102.286 50.4254 101.802 50.3888 101.161C50.3339 100.393 50.8371 99.8164 51.5049 99.7707C52.1728 99.7249 52.74 100.228 52.7857 100.896C52.8406 101.664 52.3374 102.241 51.6696 102.286C51.6422 102.286 51.6147 102.286 51.5873 102.286ZM236.457 99.359C235.853 99.359 235.332 98.9016 235.259 98.2886C235.167 97.5385 235.643 96.9347 236.302 96.8524C236.969 96.77 237.564 97.2457 237.646 97.9044C237.738 98.682 237.253 99.2767 236.594 99.3499C236.549 99.359 236.503 99.359 236.457 99.359ZM51.1298 95.6997C50.4986 95.6997 49.968 95.2148 49.9314 94.5744C49.8765 93.8151 50.3705 93.2388 51.0384 93.1839C51.7062 93.1381 52.2825 93.6321 52.3283 94.2908C52.3832 95.0684 51.88 95.6448 51.2122 95.6905C51.1756 95.6905 51.1481 95.6997 51.1298 95.6997ZM159.172 92.8728C158.522 92.8728 157.992 92.3605 157.964 91.711C157.946 91.0432 158.467 90.4851 159.126 90.4668C159.876 90.4119 160.443 90.9334 160.471 91.6012C160.508 92.269 159.995 92.8362 159.337 92.8728C159.19 92.8728 159.181 92.8728 159.172 92.8728ZM235.533 92.8179C234.957 92.8179 234.444 92.3971 234.344 91.8116C234.216 91.0523 234.655 90.4302 235.314 90.3204C235.972 90.2107 236.594 90.6498 236.704 91.3084C236.832 92.0678 236.384 92.6899 235.734 92.7996C235.661 92.8088 235.597 92.8179 235.533 92.8179ZM152.704 92.3605C151.707 92.1867 151.286 91.5463 151.414 90.8968C151.542 90.2472 152.183 89.8264 152.832 89.9545C153.573 90.1009 154.003 90.7321 153.884 91.3816C153.774 91.958 153.271 92.3605 152.704 92.3605ZM165.676 91.8939C165.146 91.8939 164.652 91.5372 164.514 90.9974C164.341 90.357 164.725 89.6892 165.374 89.5245C166.106 89.3233 166.774 89.7075 166.948 90.3479C167.122 90.9883 166.747 91.6561 166.097 91.8299C165.887 91.8848 165.777 91.8939 165.676 91.8939ZM146.41 90.3845C146.245 90.3845 146.081 90.3479 145.925 90.2838C145.221 89.9819 144.946 89.2684 145.211 88.6554C145.477 88.0425 146.19 87.7589 146.794 88.0333C147.508 88.3444 147.782 89.058 147.517 89.6709C147.316 90.1192 146.876 90.3845 146.41 90.3845ZM171.842 89.552C171.394 89.552 170.973 89.305 170.763 88.8841C170.47 88.2895 170.708 87.5668 171.312 87.274C171.998 86.9355 172.721 87.1734 173.013 87.768C173.315 88.3627 173.068 89.0854 172.474 89.3873C172.208 89.5154 172.025 89.552 171.842 89.552ZM50.645 89.1037C50.0046 89.1037 49.474 88.6005 49.4374 87.951C49.3917 87.1917 49.904 86.6245 50.5718 86.5879C51.2396 86.5513 51.8068 87.0636 51.8434 87.7223C51.88 88.5091 51.3677 89.0671 50.6999 89.0946C50.6816 89.1037 50.6633 89.1037 50.645 89.1037ZM140.628 87.21C140.39 87.21 140.162 87.146 139.951 86.9996C139.32 86.5879 139.164 85.8377 139.53 85.2797C139.896 84.7216 140.646 84.5661 141.204 84.9321C141.854 85.3712 142 86.1213 141.625 86.6794C141.387 87.027 141.012 87.21 140.628 87.21ZM234.298 86.3226C233.74 86.3226 233.237 85.9384 233.118 85.3712C232.953 84.621 233.374 83.9806 234.024 83.8343C234.673 83.697 235.314 84.1087 235.46 84.7582C235.625 85.5175 235.204 86.1579 234.554 86.2952C234.463 86.3135 234.38 86.3226 234.298 86.3226ZM177.478 86.1305C177.103 86.1305 176.737 85.9567 176.499 85.6365C176.105 85.0967 176.224 84.3466 176.764 83.9532C177.386 83.5049 178.136 83.6147 178.53 84.1544C178.923 84.6942 178.804 85.4444 178.264 85.8377C177.972 86.0482 177.725 86.1305 177.478 86.1305ZM135.377 83.203C135.084 83.203 134.801 83.1024 134.563 82.892C133.996 82.398 133.95 81.6295 134.389 81.1355C134.828 80.6323 135.597 80.5866 136.091 81.0257C136.676 81.5563 136.713 82.3156 136.264 82.8096C136.036 83.0658 135.706 83.203 135.377 83.203ZM50.5261 82.4986C49.8491 82.4894 49.3093 81.9405 49.3185 81.2819C49.3368 80.5042 49.8674 79.9828 50.5261 79.9828C51.2213 80.0011 51.7428 80.55 51.7336 81.2178C51.7245 81.968 51.1847 82.4986 50.5261 82.4986ZM182.528 81.8674C182.217 81.8674 181.896 81.7484 181.658 81.5014C181.192 81.0257 181.21 80.2572 181.686 79.7998C182.226 79.2692 182.994 79.2692 183.461 79.7449C183.927 80.2206 183.918 80.98 183.452 81.4465C183.131 81.7576 182.829 81.8674 182.528 81.8674ZM232.789 79.8913C232.258 79.8913 231.773 79.5345 231.627 79.0039C231.426 78.2538 231.81 77.5859 232.45 77.4213C233.09 77.2474 233.758 77.6317 233.923 78.2812C234.124 79.0131 233.749 79.6809 233.1 79.8547C233.008 79.8822 232.898 79.8913 232.789 79.8913ZM130.849 78.4093C130.492 78.4093 130.135 78.2446 129.897 77.9427C129.421 77.3389 129.522 76.5796 130.044 76.1679C130.574 75.7563 131.324 75.8569 131.736 76.3783C132.212 76.9913 132.111 77.7506 131.59 78.1531C131.361 78.327 131.105 78.4093 130.849 78.4093ZM186.965 76.973C186.699 76.973 186.434 76.8907 186.214 76.7077C185.693 76.2869 185.611 75.5275 186.031 75.0152C186.516 74.4115 187.266 74.3291 187.788 74.7499C188.309 75.1616 188.392 75.9209 187.98 76.4424C187.669 76.8266 187.312 76.973 186.965 76.973ZM50.8737 75.9118C50.0869 75.8386 49.6021 75.2531 49.6753 74.5853C49.7393 73.826 50.3339 73.3503 50.9926 73.396C51.6513 73.4509 52.1453 74.0364 52.0904 74.7042C52.0172 75.4452 51.4866 75.9118 50.8737 75.9118ZM230.639 73.6613C230.172 73.6613 229.724 73.3868 229.532 72.9294C229.23 72.2067 229.523 71.5023 230.136 71.2461C230.749 70.99 231.453 71.2827 231.709 71.8957C232.011 72.5909 231.727 73.3045 231.114 73.5607C230.959 73.6247 230.794 73.6613 230.639 73.6613ZM127.418 72.783C126.961 72.783 126.521 72.5177 126.32 72.0786C126 71.3651 126.274 70.6515 126.878 70.377C127.491 70.1117 128.196 70.377 128.47 70.99C128.79 71.6761 128.516 72.3988 127.912 72.6733C127.756 72.7465 127.583 72.783 127.418 72.783ZM190.789 71.5938C190.569 71.5938 190.349 71.5389 190.148 71.4108C189.581 71.054 189.407 70.313 189.764 69.7458C190.194 69.0871 190.935 68.9224 191.493 69.2792C192.051 69.636 192.216 70.3862 191.85 70.9442C191.584 71.3925 191.191 71.5938 190.789 71.5938ZM51.7245 69.3616C50.8554 69.2243 50.4163 68.5931 50.5352 67.9436C50.6633 67.2026 51.2854 66.7543 51.9349 66.8641C52.5936 66.9738 53.0327 67.5959 52.9229 68.2546C52.804 68.9499 52.2917 69.3616 51.7245 69.3616ZM227.675 67.7606C227.263 67.7606 226.86 67.5502 226.632 67.166C226.238 66.4981 226.44 65.7571 227.007 65.4186C227.583 65.0893 228.324 65.2814 228.654 65.8577C229.038 66.5164 228.855 67.2574 228.278 67.5959C228.096 67.7057 227.885 67.7606 227.675 67.7606ZM125.597 66.4615C125.003 66.4615 124.49 66.0224 124.408 65.4186C124.307 64.641 124.783 64.0372 125.442 63.9549C126.101 63.8726 126.704 64.3391 126.787 65.007C126.887 65.7571 126.421 66.3609 125.762 66.4524C125.707 66.4524 125.652 66.4615 125.597 66.4615ZM194.009 65.8212C193.835 65.8212 193.652 65.7846 193.478 65.7022C192.884 65.4095 192.627 64.6868 192.92 64.0921C193.259 63.3968 193.981 63.1498 194.576 63.4426C195.171 63.7353 195.427 64.458 195.134 65.0527C194.887 65.5742 194.457 65.8212 194.009 65.8212ZM53.0784 62.9028C52.127 62.6924 51.7428 62.0337 51.9075 61.3934C52.0996 60.6432 52.7583 60.259 53.4078 60.4328C54.0482 60.5974 54.4415 61.2561 54.2677 61.9057C54.1031 62.546 53.6182 62.9028 53.0784 62.9028ZM224.006 62.2716C223.64 62.2716 223.283 62.1069 223.046 61.7959C222.579 61.1646 222.689 60.4053 223.219 60.012C223.759 59.6186 224.509 59.7284 224.903 60.2681C225.36 60.8627 225.26 61.6221 224.729 62.0246C224.518 62.1984 224.262 62.2716 224.006 62.2716ZM125.826 59.893C124.948 59.7467 124.518 59.1154 124.637 58.4567C124.792 57.6883 125.424 57.2674 126.082 57.3955C126.732 57.5327 127.153 58.164 127.025 58.8135C126.896 59.4905 126.393 59.893 125.826 59.893ZM196.579 59.7375C196.442 59.7375 196.305 59.7101 196.168 59.6643C195.546 59.4356 195.216 58.7495 195.445 58.1182C195.701 57.3955 196.387 57.0662 197.019 57.2949C197.65 57.5145 197.979 58.2097 197.75 58.8318C197.531 59.4356 197.073 59.7375 196.579 59.7375ZM219.734 57.2309C219.414 57.2309 219.094 57.1028 218.856 56.8466C218.325 56.2886 218.353 55.5201 218.837 55.0627C219.322 54.6053 220.082 54.6327 220.539 55.1176C221.07 55.6756 221.042 56.4441 220.557 56.9015C220.329 57.1302 220.036 57.2309 219.734 57.2309ZM54.9813 56.5905C53.9475 56.2977 53.6273 55.6116 53.8469 54.9804C54.1031 54.2576 54.7892 53.9283 55.4113 54.1479C56.0425 54.3674 56.3719 55.0535 56.1523 55.6848C55.9419 56.2794 55.4753 56.5905 54.9813 56.5905ZM128.031 53.6904C127.848 53.6904 127.656 53.6447 127.473 53.5532C126.878 53.2513 126.649 52.5195 126.961 51.9248C127.317 51.2387 128.049 51.01 128.644 51.321C129.229 51.6321 129.458 52.3639 129.147 52.9494C128.882 53.4526 128.461 53.6904 128.031 53.6904ZM198.446 53.3977C197.531 53.2239 197.119 52.5743 197.266 51.9248C197.449 51.1563 198.098 50.7538 198.748 50.9185C199.397 51.074 199.791 51.7235 199.644 52.3731C199.498 53.0226 198.995 53.3977 198.446 53.3977ZM214.977 52.6567C214.693 52.6567 214.41 52.556 214.181 52.3548C213.614 51.8608 213.55 51.1015 213.98 50.5983C214.41 50.0951 215.169 50.0311 215.681 50.4702C216.276 50.9917 216.322 51.751 215.882 52.2542C215.645 52.5195 215.315 52.6567 214.977 52.6567ZM57.4148 50.4519C57.2409 50.4519 57.0763 50.4153 56.9116 50.3421C56.3078 50.0585 56.0425 49.345 56.3261 48.7412C56.6372 48.0551 57.3507 47.7806 57.9545 48.0551C58.5583 48.3295 58.8328 49.0431 58.5675 49.6469C58.3021 50.1958 57.8722 50.4519 57.4148 50.4519ZM209.817 48.5308C209.57 48.5308 209.314 48.4576 209.104 48.2929C208.481 47.8355 208.372 47.0762 208.765 46.5456C209.158 46.015 209.918 45.896 210.448 46.2894C211.07 46.7468 211.18 47.5062 210.787 48.0368C210.549 48.3661 210.183 48.5308 209.817 48.5308ZM131.745 48.2472C131.461 48.2472 131.178 48.1465 130.949 47.9453C130.446 47.5062 130.4 46.7468 130.839 46.2437C131.324 45.6765 132.093 45.6124 132.596 46.0424C133.099 46.4724 133.163 47.2409 132.733 47.744C132.413 48.1099 132.084 48.2472 131.745 48.2472ZM199.516 46.8841C198.729 46.8109 198.244 46.2254 198.318 45.5576C198.382 44.8074 198.967 44.3134 199.635 44.3683C200.294 44.4232 200.788 45.0087 200.733 45.6765C200.65 46.4175 200.129 46.8841 199.516 46.8841ZM204.319 44.8623C204.109 44.8623 203.889 44.8074 203.697 44.6885C203.029 44.2676 202.855 43.5266 203.203 42.9594C203.55 42.3922 204.301 42.2276 204.868 42.5752C205.508 42.9594 205.7 43.7096 205.353 44.2768C205.124 44.661 204.721 44.8623 204.319 44.8623ZM60.3788 44.5512C60.1776 44.5512 59.9763 44.5055 59.7933 44.3957C59.217 44.0664 59.0066 43.3345 59.3359 42.7582C59.711 42.0903 60.4429 41.8799 61.0284 42.2001C61.6139 42.5203 61.8151 43.2613 61.4949 43.8377C61.2113 44.3317 60.7997 44.5512 60.3788 44.5512ZM136.484 43.6547C136.127 43.6547 135.78 43.4992 135.542 43.2064C135.121 42.685 135.203 41.9257 135.725 41.514C136.301 41.0383 137.06 41.1023 137.49 41.6146C137.911 42.1269 137.847 42.8862 137.335 43.3162C137.015 43.5632 136.749 43.6547 136.484 43.6547ZM198.546 41.6421C198.363 41.6421 198.18 41.5963 198.007 41.514C197.32 41.1664 197.083 40.4436 197.384 39.849C197.595 39.4282 198.016 39.1903 198.455 39.1903C198.409 38.3761 198.921 37.8089 199.58 37.7723C200.248 37.7266 200.815 38.248 200.852 38.9067C200.897 39.666 200.394 40.2332 199.745 40.279C199.772 40.5168 199.745 40.7638 199.626 40.9834C199.406 41.4042 198.985 41.6421 198.546 41.6421ZM141.863 39.8215C141.452 39.8215 141.058 39.6111 140.829 39.236C140.482 38.6689 140.674 37.9278 141.241 37.5802C141.881 37.1868 142.622 37.3515 142.979 37.9187C143.336 38.4859 143.162 39.2269 142.595 39.5837C142.284 39.7667 142.074 39.8215 141.863 39.8215ZM63.8552 38.9433C63.6173 38.9433 63.3795 38.8701 63.1691 38.7329C62.6202 38.3578 62.4829 37.5985 62.8672 37.0587C63.2972 36.4275 64.0473 36.2903 64.5962 36.6654C65.1451 37.0404 65.2915 37.7906 64.9164 38.3395C64.6145 38.7603 64.2303 38.9433 63.8552 38.9433ZM192.545 38.8793C192.389 38.8793 192.234 38.8518 192.078 38.7878C191.365 38.495 191.072 37.7815 191.328 37.1685C191.584 36.5556 192.289 36.2628 192.902 36.519C193.615 36.8117 193.908 37.5253 193.652 38.1382C193.469 38.5957 193.021 38.8793 192.545 38.8793ZM147.654 36.6654C147.206 36.6654 146.776 36.4184 146.565 35.9884C146.273 35.3937 146.52 34.671 147.123 34.3783C147.828 34.0398 148.551 34.2959 148.834 34.8997C149.118 35.5035 148.862 36.2171 148.267 36.5098C148.011 36.6196 147.837 36.6654 147.654 36.6654ZM186.352 36.5647C185.235 36.2628 184.897 35.5767 185.107 34.9455C185.318 34.3142 186.004 33.9757 186.635 34.1862C187.367 34.4332 187.706 35.1193 187.495 35.7505C187.33 36.2445 186.855 36.5647 186.352 36.5647ZM180.003 34.7442C178.96 34.5247 178.566 33.8751 178.731 33.2256C178.887 32.5852 179.536 32.1827 180.195 32.3473C180.945 32.5395 181.338 33.189 181.174 33.8385C181.036 34.3783 180.542 34.7442 180.003 34.7442ZM153.756 34.1496C153.235 34.1496 152.759 33.8111 152.603 33.2805C152.411 32.6401 152.777 31.9723 153.418 31.7801C154.149 31.5606 154.826 31.9265 155.019 32.5578C155.211 33.1981 154.845 33.866 154.204 34.0581C153.985 34.1313 153.866 34.1496 153.756 34.1496ZM198.665 33.7562C198.126 33.7562 197.632 33.3903 197.494 32.8414C197.302 32.1003 197.696 31.4417 198.336 31.277C198.985 31.1123 199.635 31.4965 199.809 32.1461C200.001 32.9054 199.608 33.5549 198.958 33.7196C198.857 33.747 198.757 33.7562 198.665 33.7562ZM67.8073 33.6556C67.542 33.6556 67.2767 33.5641 67.0571 33.3903C66.5357 32.9694 66.4533 32.2193 66.8742 31.6978C67.3773 31.094 68.1366 31.0208 68.6489 31.4417C69.1612 31.8625 69.2344 32.6309 68.8045 33.1432C68.5117 33.5092 68.1641 33.6556 67.8073 33.6556ZM173.526 33.4543C172.592 33.3262 172.135 32.7224 172.227 32.0637C172.318 31.4051 172.931 30.9476 173.59 31.0391C174.367 31.1581 174.816 31.771 174.715 32.4297C174.623 33.0243 174.102 33.4543 173.526 33.4543ZM160.242 32.9328C159.629 32.9328 159.108 32.4663 159.044 31.8442C158.98 31.1855 159.465 30.5909 160.123 30.5268C160.901 30.4628 161.486 30.9476 161.55 31.6155C161.605 32.2742 161.12 32.8597 160.453 32.9237C160.315 32.9237 160.279 32.9328 160.242 32.9328ZM166.948 32.7956C166.125 32.759 165.612 32.201 165.64 31.5331C165.667 30.8653 166.234 30.3439 166.893 30.3804C167.662 30.417 168.174 30.9751 168.146 31.6429C168.119 32.2925 167.588 32.7956 166.948 32.7956ZM72.2076 28.7429C71.8966 28.7429 71.5856 28.624 71.3568 28.3861C70.8903 27.9195 70.8903 27.1511 71.3568 26.6845C71.8783 26.1448 72.6468 26.1356 73.1225 26.593C73.5982 27.0596 73.6165 27.8189 73.1499 28.2946C72.8206 28.624 72.5187 28.7429 72.2076 28.7429ZM196.369 27.5811C195.93 27.5811 195.5 27.3432 195.29 26.9224C194.942 26.2454 195.171 25.5227 195.765 25.2116C196.36 24.9006 197.083 25.1384 197.394 25.7239C197.75 26.4192 197.513 27.1511 196.918 27.4438C196.735 27.5353 196.552 27.5811 196.369 27.5811ZM77.0014 24.2053C76.6629 24.2053 76.3335 24.0681 76.0957 23.7936C75.6566 23.2905 75.7115 22.5312 76.2146 22.092C76.8093 21.5889 77.5686 21.6438 77.9986 22.1469C78.4285 22.6501 78.3736 23.4186 77.8705 23.8485C77.5686 24.1138 77.285 24.2053 77.0014 24.2053ZM192.673 22.1286C192.344 22.1286 192.005 21.9914 191.767 21.717C191.255 21.1406 191.31 20.3813 191.804 19.933C192.307 19.4939 193.066 19.5397 193.506 20.0428C194.018 20.6192 193.972 21.3785 193.469 21.8267C193.24 22.028 192.957 22.1286 192.673 22.1286ZM82.161 20.0794C81.786 20.0794 81.4109 19.9056 81.1822 19.5762C80.7979 19.0365 80.9169 18.2772 81.4566 17.893C82.0604 17.4447 82.8197 17.5545 83.2131 18.0942C83.6065 18.634 83.4967 19.3841 82.957 19.7775C82.6459 20.0062 82.4081 20.0794 82.161 20.0794ZM187.724 17.7649C187.477 17.7649 187.239 17.6917 187.019 17.5362C186.397 17.0879 186.269 16.3377 186.653 15.7888C187.038 15.2491 187.797 15.121 188.337 15.5144C188.959 15.9626 189.087 16.7128 188.703 17.2617C188.474 17.5911 188.099 17.7649 187.724 17.7649ZM87.6318 16.3743C87.2292 16.3743 86.8359 16.1731 86.6071 15.798C86.2595 15.2308 86.4333 14.4898 87.0005 14.1421C87.6501 13.7396 88.3911 13.9134 88.7479 14.4715C89.1046 15.0387 88.9308 15.7797 88.3636 16.1365C88.0617 16.3194 87.8422 16.3743 87.6318 16.3743ZM182.198 14.1513C181.988 14.1513 181.777 14.0964 181.585 13.9866C180.917 13.5932 180.734 12.8522 181.073 12.2759C181.411 11.6995 182.152 11.5166 182.729 11.855C183.388 12.2393 183.58 12.9803 183.241 13.5566C183.012 13.9409 182.61 14.1513 182.198 14.1513ZM93.3678 13.0992C92.9378 13.0992 92.517 12.8614 92.2974 12.4497C91.9864 11.855 92.2151 11.1323 92.8006 10.8213C93.4867 10.4645 94.2186 10.6932 94.5205 11.2878C94.8315 11.8825 94.5937 12.6052 94.0082 12.9163C93.752 13.0535 93.5599 13.0992 93.3678 13.0992ZM176.38 11.0317C176.206 11.0317 176.023 10.9951 175.849 10.9128C175.163 10.5834 174.907 9.8607 175.2 9.25691C175.492 8.66227 176.206 8.40611 176.81 8.68971C177.505 9.0282 177.752 9.75092 177.469 10.3456C177.249 10.7847 176.819 11.0317 176.38 11.0317ZM99.3325 10.2632C98.8659 10.2632 98.4177 9.98878 98.2256 9.53136C97.9603 8.91842 98.2438 8.214 98.8568 7.9487C99.5612 7.6468 100.266 7.92125 100.531 8.53419C100.796 9.14713 100.513 9.85155 99.9088 10.1169C99.6527 10.2266 99.488 10.2632 99.3325 10.2632ZM170.324 8.39697C170.177 8.39697 170.031 8.36952 169.885 8.31463C169.162 8.03103 168.86 7.33576 169.098 6.71367C169.345 6.09158 170.04 5.78969 170.662 6.03669C171.376 6.31114 171.687 7.01556 171.44 7.63765C171.257 8.10422 170.799 8.39697 170.324 8.39697ZM105.48 7.85721C104.986 7.85721 104.52 7.54617 104.346 7.05216C104.126 6.42092 104.456 5.7348 105.087 5.51524C105.819 5.25908 106.505 5.59757 106.724 6.21966C106.944 6.85089 106.615 7.53702 105.983 7.75658C105.745 7.82977 105.617 7.85721 105.48 7.85721ZM164.075 6.2471C162.978 5.9635 162.63 5.28653 162.822 4.65529C163.023 4.02405 163.691 3.66727 164.332 3.85938C165.054 4.07894 165.42 4.74677 165.228 5.38716C165.073 5.90861 164.597 6.2471 164.075 6.2471ZM111.793 5.88117C111.262 5.88117 110.777 5.53353 110.631 4.99378C110.457 4.35339 110.832 3.68557 111.472 3.51175C112.223 3.31048 112.881 3.68557 113.055 4.32595C113.229 4.96633 112.854 5.63416 112.204 5.80798C112.003 5.87202 111.893 5.88117 111.793 5.88117ZM157.681 4.5821C156.674 4.38999 156.263 3.7496 156.4 3.10007C156.537 2.45054 157.178 2.02971 157.836 2.17609C158.596 2.34991 159.007 2.99029 158.861 3.63982C158.733 4.19787 158.239 4.5821 157.681 4.5821ZM118.215 4.3534C117.657 4.3534 117.153 3.96002 117.035 3.38367C116.906 2.73414 117.327 2.09375 117.977 1.96568C118.736 1.81015 119.367 2.23098 119.505 2.88966C119.633 3.53919 119.212 4.17958 118.562 4.30765C118.379 4.34425 118.297 4.3534 118.215 4.3534ZM151.185 3.39282C150.243 3.26474 149.795 2.6518 149.886 1.99312C149.978 1.33444 150.591 0.877022 151.249 0.977654C152.009 1.08743 152.466 1.70037 152.375 2.35905C152.292 2.9537 151.78 3.39282 151.185 3.39282ZM124.737 3.25559C124.143 3.25559 123.621 2.81647 123.548 2.21268C123.457 1.554 123.923 0.950209 124.582 0.858725C125.341 0.758094 125.954 1.22466 126.037 1.88334C126.128 2.54202 125.661 3.14581 125.003 3.2373C124.838 3.25559 124.783 3.25559 124.737 3.25559ZM144.617 2.6701C143.766 2.61521 143.263 2.03886 143.309 1.38018C143.354 0.712352 143.931 0.218341 144.589 0.254934C145.367 0.318973 145.87 0.895319 145.815 1.554C145.77 2.18524 145.239 2.6701 144.617 2.6701ZM131.306 2.61521C130.675 2.61521 130.135 2.1212 130.108 1.48081C130.071 0.812984 130.583 0.245786 131.242 0.209193C132.001 0.163451 132.578 0.66661 132.614 1.32529C132.66 1.99312 132.157 2.56032 131.489 2.60606C131.352 2.60606 131.333 2.61521 131.306 2.61521ZM138.021 2.41394C137.234 2.4048 136.704 1.8559 136.713 1.19721C136.722 0.529385 137.252 -0.00121931 137.929 0.00792904C138.689 0.00792904 139.228 0.547682 139.228 1.21551C139.219 1.87419 138.68 2.41394 138.021 2.41394Z" fill="#EC663D"/>
<path d="M51.67 135.332C51.5145 135.332 51.3498 135.295 51.1943 135.231C50.5905 134.966 50.3069 134.28 50.5631 133.676C50.7827 133.045 51.4596 132.724 52.0909 132.944C52.7221 133.154 53.0514 133.859 52.8319 134.49C52.5849 135.057 52.1366 135.332 51.67 135.332Z" fill="#EC663D"/>
<path d="M149.977 224.564H35.1744C34.5065 224.564 33.9668 224.024 33.9668 223.356C33.9668 222.688 34.5065 222.148 35.1744 222.148H149.968C150.636 222.148 151.175 222.688 151.175 223.356C151.175 224.024 150.636 224.564 149.977 224.564Z" fill="#223549"/>
<path d="M259.108 224.564H158.989C158.321 224.564 157.781 224.024 157.781 223.356C157.781 222.688 158.321 222.148 158.989 222.148H259.108C259.776 222.148 260.316 222.688 260.316 223.356C260.316 224.024 259.776 224.564 259.108 224.564Z" fill="#223549"/>
<path fill-rule="evenodd" clip-rule="evenodd" d="M56.665 40.3711C60.8915 40.3711 64.3221 43.8017 64.3221 48.0283C64.3221 52.2548 60.8915 55.6854 56.665 55.6854C52.4384 55.6854 49.0078 52.2548 49.0078 48.0283C49.0078 43.8017 52.4384 40.3711 56.665 40.3711Z" fill="#EC663D"/>
<path fill-rule="evenodd" clip-rule="evenodd" d="M176.076 3.25391C179.141 3.25391 181.63 5.74226 181.63 8.80695C181.63 11.8717 179.141 14.36 176.076 14.36C173.012 14.36 170.523 11.8717 170.523 8.80695C170.523 5.74226 173.012 3.25391 176.076 3.25391Z" fill="#EC663D"/>
<path fill-rule="evenodd" clip-rule="evenodd" d="M237.088 115.223C240.153 115.223 242.641 117.711 242.641 120.776C242.641 123.84 240.153 126.329 237.088 126.329C234.024 126.329 231.535 123.84 231.535 120.776C231.535 117.711 234.024 115.223 237.088 115.223Z" fill="#EC663D"/>
<path fill-rule="evenodd" clip-rule="evenodd" d="M42.5122 146.465C42.5122 146.465 41.3137 130.474 43.6649 121.829C46.016 113.183 48.486 108.307 48.486 108.307C48.486 108.307 50.3889 113.037 53.3072 113.449C56.2256 113.86 57.2959 112.186 57.2959 112.186C57.2959 112.186 60.141 115.05 62.3275 114.281C64.514 113.513 65.3648 112.708 65.3648 112.708C65.3648 112.708 67.1029 114.693 70.1859 113.229C73.2689 111.765 72.4913 109.771 72.4913 109.771C72.4913 109.771 79.0141 113.476 77.0015 102.013C74.9888 90.5505 68.9967 81.3564 67.9812 80.0024C66.9749 78.6484 61.6597 73.3058 51.4135 75.7027C41.1674 78.0995 29.7594 78.9046 20.3823 97.4026C10.9961 115.91 2.79919 146.3 2.03988 158.523C1.28057 170.745 4.31782 184.824 15.1403 188.301C34.6629 194.567 86.7444 173.096 86.7444 173.096L96.0758 221.116H149.438C149.438 221.116 148.413 223.897 150.801 224.363C153.189 224.839 157.196 224.016 160.553 222.79C163.902 221.564 166.051 219.515 169.153 220.484C172.245 221.454 174.34 221.875 177.752 222.058C181.155 222.241 195.317 220.841 203.441 221.006C211.555 221.171 235.899 223.028 240.446 221.317C244.993 219.606 252.394 215.023 249.146 204.127C245.898 193.232 227.693 143.474 204.804 128.333C178.768 111.116 150.289 112.397 150.289 112.397L148.505 108.097C148.505 108.097 165.576 99.6165 164.021 80.8441C162.465 62.0716 152.073 61.0287 152.073 61.0287L154.799 58.3025L150.399 57.7811C150.399 57.7811 150.307 52.658 150.92 52.8501C151.533 53.0514 143.684 55.5763 143.684 55.5763C143.684 55.5763 127.903 47.2605 118.526 49.7031C109.14 52.1457 105.846 55.7684 103.321 54.634C100.796 53.4996 97.0272 52.7495 97.0272 52.7495C97.0272 52.7495 95.6549 53.8747 96.0849 55.9971C96.5149 58.1195 96.9266 60.5073 96.9266 60.5073C96.9266 60.5073 93.6423 60.3152 93.0477 61.8704C92.453 63.4256 91.8309 63.0322 93.2581 65.7493C96.0117 71.0096 102.9 76.0229 102.9 76.0229C102.9 76.0229 103.065 84.4302 105.316 95.6278C107.566 106.825 108.993 111.015 110.978 112.818C112.964 114.629 115.168 117.538 115.168 117.538C115.168 117.538 98.2256 118.691 85.3905 122.78C72.5645 126.851 42.5122 146.465 42.5122 146.465Z" fill="white"/>
<path fill-rule="evenodd" clip-rule="evenodd" d="M146.098 102.111L148.404 107.042C148.404 107.042 157.232 102.743 161.193 94.4633C165.155 86.184 164.789 74.035 161.504 68.6741C158.22 63.3131 150.92 60.7058 150.92 60.7058L154.799 58.1901L150.499 56.9276L152.173 52.207L142.531 58.5011C142.531 58.5011 131.306 50.7341 121.041 53.3597C110.777 55.9944 107.822 60.0746 105.946 59.544C104.062 59.0134 99.8627 55.9762 99.8627 55.9762C99.8627 55.9762 98.8381 57.385 98.9205 59.8551C99.0028 62.3251 100.704 65.8289 100.704 65.8289C100.704 65.8289 96.3589 63.6608 96.4047 65.1977C96.4595 67.192 96.7889 67.192 98.8198 69.287C102.507 73.0836 104.903 73.5867 104.903 73.5867L105.956 70.8605C105.956 70.8605 112.606 74.6662 118.013 74.0075C123.42 73.3489 135.898 69.4242 139.292 73.3763C143.528 78.3073 141.598 91.4077 141.598 91.4077L145.586 87.9496C145.586 87.9496 153.801 84.0433 154.286 89.5231C154.762 95.0122 146.098 102.111 146.098 102.111Z" fill="#EC663D"/>
<path fill-rule="evenodd" clip-rule="evenodd" d="M160.251 190.494C160.251 190.494 150.745 166.644 152.703 152.857C154.661 139.071 158.787 113.547 158.787 113.547C158.787 113.547 197.21 113.968 212.36 134.304C218.352 142.346 226.091 152.125 231.964 162.93C240.93 179.415 245.522 190.677 247.379 197.629C249.355 205.049 250.014 210.364 248.221 214.298C246.419 218.241 240.317 222.357 231.553 222.266C222.789 222.174 197.064 221.214 197.064 221.214C197.064 221.214 202.726 209.422 200.421 202.871C198.106 196.312 194.337 189.972 194.337 189.972C194.337 189.972 175.354 189.753 169.591 190.073C163.818 190.393 160.251 190.494 160.251 190.494Z" fill="#223549"/>
<path fill-rule="evenodd" clip-rule="evenodd" d="M116.53 171.102C116.53 171.102 110.84 154.47 111.709 145.834C112.578 137.198 122.193 119.203 122.193 119.203C122.193 119.203 117.518 118.434 116.43 117.84C115.332 117.245 114.545 118.151 114.545 118.151C114.545 118.151 86.9264 119.688 68.9408 130.519C50.9459 141.36 41.9897 146.465 41.9897 146.465C41.9897 146.465 42.0903 135.341 43.3528 126.961C44.2036 121.316 46.3901 117.318 46.3901 117.318C46.3901 117.318 31.8625 124.701 26.5747 122.451C18.4785 119.002 14.8283 110.082 14.8283 110.082C14.8283 110.082 7.61936 130.172 3.8228 144.471C0.0262315 158.77 -0.175032 177.341 9.90645 184.723C19.9879 192.106 38.7146 190.368 57.7157 182.317C76.7077 174.258 89.4788 185.885 89.4788 185.885L116.53 171.102Z" fill="#223549"/>
<path fill-rule="evenodd" clip-rule="evenodd" d="M245.889 190.798C243.611 184.523 241.123 178.905 238.552 173.188C228.233 150.235 215.425 129.578 192.426 119.624C180.881 114.629 167.176 111.519 151.231 110.924C150.673 109.945 150.106 108.976 149.767 107.777C157.772 103.88 163.243 96.5063 164.862 85.9766C166.71 73.9648 161.834 64.8622 153.957 60.718C155.11 59.8489 156.885 59.2908 156.683 57.5709C156.464 55.7138 153.93 55.9334 151.652 55.8968C151.771 54.4788 154.186 52.4021 152.914 50.9658C151.917 49.8497 149.41 51.4964 148.194 52.0179C146.41 52.7864 144.681 53.4816 143.473 54.0122C135.66 49.9138 121.7 46.1172 111.609 50.3437C109.057 51.4141 106.578 53.5731 104.272 53.7012C101.418 53.8567 99.6251 50.6365 97.1459 51.286C94.5112 51.9813 94.9686 57.1501 95.0509 60.0959C91.8581 59.4738 90.6597 61.7426 91.172 64.606C92.2607 70.6531 98.3626 74.4405 102.388 77.2948C102.461 79.2251 102.214 80.826 102.278 82.7472C102.168 82.8295 102.04 82.8936 101.903 82.9668C101.894 83.4059 101.876 83.845 101.839 84.275C101.848 84.6043 101.51 84.6226 101.491 84.9154C101.482 85.1532 101.528 84.403 101.491 84.65C101.738 84.5311 102.168 84.7049 102.324 84.65C103.037 96.1129 105.041 107.832 110.356 114.501C111.125 115.462 112.094 116.23 112.771 117.227C97.9235 118.718 85.0701 121.518 73.781 126.449C62.4828 131.389 52.7215 137.701 43.1706 143.95C43.1249 130.767 45.7871 120.292 49.3549 110.723C50.5076 112.104 51.7243 114.712 53.9657 115.123C56.0149 115.498 57.1767 114.428 58.366 113.449C59.2992 114.346 61.0831 115.16 62.8762 114.913C64.0655 114.748 64.7333 113.952 65.4926 113.76C68.2554 116.294 72.5368 114.693 73.1406 111.555C77.3123 111.921 78.7851 109.25 78.8034 105.27C78.8217 99.2325 75.8394 93.7892 73.9823 89.5444C71.8598 84.7049 69.7008 79.8197 65.9134 76.9654C61.7784 73.855 55.0269 73.8916 48.8243 74.9711C42.8138 76.0232 37.4986 77.7065 33.5191 80.3137C25.5052 85.5649 20.1717 94.4205 15.9085 103.898C11.5173 113.659 8.27882 124.272 5.53431 134.82C4.18951 139.988 2.66173 145.56 1.445 151.277C0.246567 156.913 -0.640823 163.683 0.603352 169.83C1.69201 175.2 4.07058 180.232 7.30909 183.772C10.7123 187.487 14.582 189.911 20.9401 190.798C27.3623 191.695 33.6563 190.56 39.2826 189.225C56.1613 185.218 70.0942 178.979 86.3508 174.34C89.4155 190.707 92.407 207.137 95.1515 223.815H97.8777C94.7856 205.902 91.5379 186.7 88.025 168.678C87.7231 167.132 87.3205 161.78 85.4085 161.972C83.3959 162.173 84.6584 165.229 84.8871 166.372C85.2713 168.385 85.5092 170.306 85.8294 171.715C73.9731 175.374 62.6017 179.427 50.6082 183.242C40.481 186.462 22.6783 192.271 12.5602 184.916C7.84884 181.494 5.0403 176.536 3.54912 170.553C1.9939 164.314 2.99107 156.41 4.4914 149.905C7.40058 137.262 10.7397 124.665 14.9754 113.531C17.6376 118.197 20.3729 122.881 26.6121 123.805C33.4459 124.82 38.9258 121.518 43.7012 119.615C41.8167 126.184 40.4536 134.893 40.4536 143.931C40.4536 146.182 39.7217 151.909 42.3381 151.268C43.7927 150.912 42.9602 148.496 43.1798 147.289C57.9178 137.262 73.6346 126.989 94.6484 122.652C99.6525 121.619 105.617 120.74 110.996 120.027C112.707 119.798 115.196 119.213 116.659 119.295C117.647 119.35 118.736 120.118 120.017 120.027C115.525 126.623 111.6 132.743 111.006 142.879C110.438 152.54 112.79 162.393 114.363 171.184C117.592 189.28 121.389 207.055 125.579 223.806C126.457 223.732 127.601 223.943 128.305 223.705C123.173 202.929 118.462 181.129 114.885 158.715C113.704 151.305 112.607 142.614 114.985 135.341C120.081 138.616 127.098 140.574 135.011 139.321C142.064 138.214 148.23 135.295 153.253 132.825C150.527 153.501 155.695 173.215 159.227 189.637C151.762 190.56 142.064 190.689 137.216 194.357C136.337 195.025 135.761 195.821 135.432 196.763C134.407 199.718 136.96 202.581 139.201 202.847C141.726 203.139 143.638 201.52 145.907 200.752C148.276 199.947 150.929 199.736 153.664 200.331C150.838 201.374 147.645 202.801 144.754 204.841C142.192 206.643 139.301 209.095 138.881 212.388C138.469 215.645 139.951 218.683 142.97 218.783C142.668 221.802 145.513 222.671 148.102 221.82C148.422 223.641 149.74 224.72 151.139 225.178C157.022 227.09 162.529 221.473 168.96 222.141C170.58 222.305 172.162 222.955 173.782 223.293C179.115 224.419 184.787 223.714 190.761 223.403C198.4 223.001 206.578 222.854 214.556 223.193C221.993 223.504 230.858 223.796 237.719 222.671C244.928 221.491 249.987 218.6 250.399 211.144C250.82 203.542 248.02 196.681 245.889 190.798ZM27.5452 121.298C21.0408 120.731 18.7628 114.812 16.2287 109.973C19.6594 101.209 23.6572 93.5697 29.1188 87.6416C35.0011 81.2743 42.3473 78.109 53.7553 77.0569C58.1373 76.6544 62.6932 77.4046 65.1815 79.6733C68.5573 82.7472 70.4784 88.0258 72.5185 92.7738C73.4882 95.0243 74.5586 97.476 75.3454 100.221C76.1504 103.029 77.3763 109.726 73.2504 108.921C71.5305 103.395 69.9753 98.6745 67.9078 92.9842C67.4961 91.8407 66.7276 88.5655 65.2913 88.5838C62.7847 88.6113 64.9986 92.7921 65.5017 94.1369C67.1118 98.5098 68.1822 101.95 69.6917 106.505C70.2131 108.088 71.4573 111.912 69.2709 112.379C68.109 112.626 67.3131 111.629 66.3342 111.016C65.3096 105.508 62.8213 100.166 60.5708 95.0792C59.8664 93.4874 58.5399 88.8857 56.4815 91.5205C56.6553 93.3959 57.6525 94.9602 58.366 96.5521C59.784 99.7265 61.0922 102.883 62.3456 106.304C62.9402 107.933 63.7178 109.79 63.4983 111.757C61.8058 113.074 59.8755 111.372 58.7777 110.494C57.3506 105.737 55.2922 101.09 53.1149 96.4514C52.5751 95.3079 51.7243 92.6914 50.288 92.7829C47.7722 92.9476 50.1874 96.5338 50.5991 97.3937C52.2549 100.852 53.5083 103.825 54.9994 107.457C55.3928 108.417 57.2042 112.196 55.1001 112.488C53.9382 112.653 52.6941 110.952 52.0628 109.973C49.9678 106.725 48.6871 102.242 46.2994 99.388C45.7047 98.6745 44.6252 97.723 43.6829 97.5035C41.0665 96.8905 39.2734 99.1959 37.0778 99.077C36.2545 99.0313 35.5592 98.6104 34.9829 98.2353C34.2876 97.7871 32.4853 96.6069 32.0462 98.336C31.6163 100.056 35.2664 101.767 37.1876 101.794C39.4015 101.831 41.158 99.9827 42.7407 100.12C44.0672 100.23 45.1284 102.352 45.6773 103.368C46.5006 104.904 46.7476 105.81 47.6716 107.457C46.6927 110.183 45.6224 112.809 44.8448 115.736C39.8498 118.115 34.9005 121.939 27.5452 121.298ZM129.952 137.134C124.252 137.152 119.733 135.103 115.909 132.734C117.721 128.077 120.401 123.741 123.246 120.466C122.651 124.381 127.116 123.988 125.972 119.734C131.141 118.59 135.258 116.175 138.972 113.239C139.823 112.562 142.183 111.253 142.22 109.991C142.247 109.113 141.616 108.664 140.957 108.628C139.795 108.564 138.039 110.613 137.078 111.354C133.437 114.153 129.247 116.989 123.447 117.429C112.799 118.252 109.56 109.323 107.41 101.492C105.983 96.305 105.224 89.9012 105.013 83.5705C111.792 81.4115 115.223 87.4769 114.638 94.1552C114.436 96.424 112.872 98.1622 112.963 100.239C113.027 101.721 114.253 104.118 115.58 104.118C116.074 104.118 116.87 103.551 116.943 102.965C117.062 101.995 115.781 101.254 115.68 100.239C115.598 99.3514 116.293 98.0615 116.623 97.0918C119.349 89.0413 114.363 79.1244 104.986 81.7866C104.336 79.3166 106.596 72.8578 104.044 72.7755C103.047 72.7481 102.836 73.3518 102.571 74.2392C100.631 72.8761 98.5181 71.4307 96.908 69.6285C95.3528 67.8811 93.7152 65.6855 93.761 62.7123C95.1332 62.5293 95.5266 63.371 96.6976 63.1331C99.0579 62.6483 96.7159 56.1163 97.9509 54.0122C100.394 54.9637 102.04 56.8665 105.077 56.3176C107.465 55.8876 109.176 54.3507 111.683 53.1706C113.933 52.1094 116.833 51.2677 119.651 51.0756C127.765 50.5176 134.956 53.1065 140.719 55.6864C141.589 56.0798 142.604 56.711 143.336 56.7384C145.367 56.8116 147.425 54.7715 149.31 54.4331C149.063 55.6132 148.029 56.4548 148.258 57.6807C148.532 59.1079 150.252 58.6779 151.926 58.623C151.112 59.364 149.593 59.3457 149.621 60.718C149.639 61.6328 150.993 62.2549 152.036 62.8129C158.696 66.3991 163.27 72.7206 162.41 83.4608C161.541 94.3382 156.519 101.071 148.679 105.371C148.111 104.676 147.846 103.688 147.626 102.645C150.691 99.9827 155.229 97.412 155.805 92.2706C156.263 88.1813 153.298 85.2447 149.41 85.2447C146.556 85.2447 144.653 87.1567 143.226 88.0715C143.812 78.6304 142.988 70.1591 134.316 69.6193C131.297 69.4363 128.086 70.1133 125.195 70.8818C122.34 71.6411 119.669 72.7663 116.806 72.7663C113.595 72.7663 110.932 71.5954 108.627 70.461C107.74 70.0218 105.178 68.5215 105.059 70.6714C104.977 72.2357 108.307 73.3152 109.569 73.8184C111.5 74.5869 113.348 75.2273 115.653 75.3919C122.734 75.9042 127.5 71.6045 134.837 72.3547C141.159 73.0042 141.241 82.3264 140.39 89.334C140.29 90.1482 139.96 91.0082 140.079 91.6394C140.198 92.2889 140.912 93.1489 141.964 93.1123C143.144 93.0665 143.729 91.5022 144.58 90.5965C145.678 89.4346 147.562 87.7056 149.923 87.98C152.256 88.2453 153.765 90.3678 152.859 93.1214C152.009 95.7196 150.023 97.476 147.828 99.0953C147.023 99.6899 145.147 100.623 144.891 101.922C144.653 103.166 145.385 104.493 145.733 105.38C146.154 106.469 146.602 107.475 146.995 108.317C147.928 110.348 148.349 112.086 149.932 113.769C152.182 113.44 154.552 113.778 156.958 113.87C155.576 118.709 154.588 123.942 153.6 129.175C147.572 132.761 139.576 137.098 129.952 137.134ZM174.193 220.677C172.071 220.21 169.976 219.424 167.799 219.424C162.987 219.414 158.861 222.369 154.488 222.781C152.795 222.937 151.441 222.68 150.719 221.628C152.329 218.664 155.86 217.219 159.519 215.545C161.084 214.831 162.794 214.09 164.761 213.34C166.143 212.818 169.592 212.27 169.583 210.723C169.573 208.116 165.063 210.486 164.13 210.824C159.4 212.562 154.277 214.483 150.609 217.429C149.978 217.932 149.301 219.012 148.514 219.314C148.249 219.414 146.016 220.101 145.477 219.103C144.498 217.301 148.596 214.932 149.456 214.282C153.811 211.016 158.54 208.866 164.13 206.634C165.118 206.241 166.637 205.674 166.646 204.75C166.664 203.021 164.77 203.496 163.709 203.908C157.781 206.232 151.24 209.196 146.62 213.029C146.227 213.358 145.751 213.596 145.257 213.971C144.717 214.383 143.665 216.185 142.531 215.965C141.717 215.81 141.305 214.035 141.589 212.608C141.817 211.437 142.503 210.44 143.263 209.571C147.151 205.125 155.265 202.051 162.236 200.349C163.965 199.928 164.642 199.755 164.642 198.776C164.661 195.995 160.205 198.648 158.559 198.666C157.644 198.675 156.217 197.98 154.79 197.724C151.469 197.138 147.416 197.321 144.626 198.355C143.171 198.895 141.049 200.377 139.494 200.139C138.579 199.992 137.801 198.885 137.92 197.833C138.185 195.537 143.876 194.421 146.831 193.854C154.232 192.418 162.319 191.924 170.314 191.549C172.364 191.457 174.504 191.338 176.599 191.338C180.625 191.338 183.863 191.128 188.236 191.128C189.755 191.128 192.106 190.789 193.167 191.128C194.009 191.393 195.033 193.415 195.582 194.275C197.677 197.541 199.754 201.703 199.772 206.643C199.8 212.379 197.814 216.24 196.003 220.476C188.209 220.329 181.393 222.26 174.193 220.677ZM245.99 216.267C242.44 220.604 232.258 220.96 224.5 220.777C215.708 220.567 207.338 220.32 199.031 220.357C200.906 215.911 202.901 210.76 202.279 204.631C201.712 199.041 198.985 194.65 196.826 191.21C202.608 191.219 208.234 191.457 214.126 191.731C215.864 191.814 218.48 192.454 218.526 190.679C218.572 189.152 216.459 189.298 215.169 189.216C210.677 188.932 206.084 188.685 201.547 188.584C199.141 183.169 196.158 177.917 193.057 172.858C192.316 171.651 191.026 168.367 189.489 168.458C189.251 168.476 188.483 168.806 188.337 169.3C187.925 170.709 190.404 173.389 190.852 174.121C193.67 178.668 196.351 183.772 198.5 188.484C186.077 188.392 173.516 188.42 161.916 189.426C158.211 172.721 153.134 152.97 155.942 132.404C156.583 127.693 157.379 123.238 158.458 118.773C158.833 117.227 159.391 115.379 159.51 114.163C173.123 115.517 186.662 119.121 196.405 124.537C216.596 135.762 227.72 155.568 237.6 177.579C239.97 182.867 242.184 188.401 244.306 194.458C246.246 199.956 250.088 211.281 245.99 216.267Z" fill="#223549"/>
<path fill-rule="evenodd" clip-rule="evenodd" d="M128.067 76.6436C129.732 76.5887 131.736 76.854 133.73 77.6957C134.709 78.1074 138.862 79.937 136.767 81.4739C135.743 82.2241 133.941 80.7604 133.2 80.4219C130.437 79.1594 127.024 78.9947 123.768 80.0011C122.679 80.3396 119.349 82.3065 119.367 79.7907C119.376 78.519 121.737 77.8695 122.935 77.4853C124.756 76.8998 126.293 76.7077 128.067 76.6436Z" fill="#223549"/>
<path fill-rule="evenodd" clip-rule="evenodd" d="M148.615 91.6395C149.155 91.5023 150.06 91.4291 150.289 92.3714C150.618 93.6979 148.002 96.2777 146.932 96.2503C146.209 96.232 145.761 95.802 145.678 95.1982C145.514 94.0272 147.846 91.8407 148.615 91.6395Z" fill="#223549"/>
<path fill-rule="evenodd" clip-rule="evenodd" d="M115.067 106.202C116.558 105.781 117.803 107.821 119.888 107.876C121.608 107.922 124.71 105.881 124.71 108.397C124.71 110.117 121.105 110.675 119.257 110.492C117.181 110.291 114.171 108.891 114.116 107.455C114.098 106.751 114.518 106.357 115.067 106.202Z" fill="#223549"/>
<path fill-rule="evenodd" clip-rule="evenodd" d="M127.756 88.1784C128.707 88.0961 129.54 88.8005 129.622 89.7611L129.833 92.2677C129.915 93.2192 129.21 94.0608 128.259 94.1431C127.308 94.2255 126.475 93.5211 126.393 92.5696L126.182 90.063C126.1 89.1024 126.804 88.2608 127.756 88.1784Z" fill="#223549"/>
<path fill-rule="evenodd" clip-rule="evenodd" d="M110.035 88.1784C110.987 88.0961 111.828 88.8005 111.911 89.7519L112.121 92.2586C112.203 93.21 111.499 94.0517 110.548 94.1248C109.596 94.2072 108.754 93.5028 108.681 92.5513L108.471 90.0447C108.379 89.1024 109.084 88.2608 110.035 88.1784Z" fill="#223549"/>
<path fill-rule="evenodd" clip-rule="evenodd" d="M62.0147 152.44L51.3203 155.376L39.1621 111.034C39.1621 111.034 41.9341 110.284 46.1057 109.168C46.5814 109.04 54.0556 121.134 54.5771 120.997C61.8683 119.039 72.9653 118.938 79.113 113.66C81.0707 111.976 79.0947 102.407 79.1678 100.019C79.1953 99.2144 84.0348 98.9766 84.0348 98.9766L88.2247 111.135L64.9513 138.077L62.0147 152.44Z" fill="white"/>
<path fill-rule="evenodd" clip-rule="evenodd" d="M96.2136 131.279C101.629 129.834 104.84 124.299 103.395 118.901C101.94 113.513 96.3782 110.311 90.9624 111.756C90.9258 111.766 87.7879 100.129 87.7879 100.129L42.4121 112.223L54.5703 157.37L67.4786 153.93C66.0514 148.551 69.2625 143.035 74.6692 141.589C80.0759 140.144 85.6289 143.327 87.1018 148.697L99.9461 145.276L96.1861 131.288C96.2044 131.279 96.2136 131.279 96.2136 131.279Z" fill="#EC663D"/>
<path d="M83.5795 100.137L86.2417 110.036L86.8546 112.332L89.16 111.746C89.9285 111.545 90.6512 111.445 91.3648 111.445C95.0882 111.445 98.3541 113.942 99.3147 117.528C99.8819 119.632 99.5891 121.837 98.5005 123.731C97.4027 125.634 95.6279 126.997 93.4963 127.564C93.478 127.564 91.1086 128.168 91.1086 128.168L91.7399 130.528L95.0607 142.878L86.0221 145.284C83.8723 140.866 79.3255 137.938 74.2757 137.938C73.1413 137.938 72.016 138.085 70.9182 138.377C64.7522 140.024 60.8001 145.797 61.2484 151.899L52.1458 154.332L40.6463 111.591L83.5795 100.137ZM85.2811 97.1914L37.6914 109.889L50.4442 157.287L63.9838 153.673C62.4834 148.029 65.8592 142.229 71.522 140.719C72.446 140.472 73.3791 140.353 74.2848 140.353C78.9779 140.353 83.2685 143.464 84.5584 148.184L98.0248 144.589L94.0727 129.906C99.7904 128.378 103.166 122.56 101.638 116.906C100.367 112.167 96.0579 109.039 91.3556 109.039C90.4408 109.039 89.5168 109.157 88.5928 109.404C88.5745 109.404 85.2811 97.1914 85.2811 97.1914Z" fill="#223549"/>
<path d="M119.779 93.3579C119.194 93.3579 118.681 92.9371 118.59 92.3425C118.571 92.2601 118.462 91.7661 118.032 91.7021C117.666 91.638 117.135 92.2601 116.989 92.5163C116.659 93.0926 115.918 93.2939 115.342 92.9554C114.766 92.6261 114.564 91.885 114.903 91.3087C115.397 90.4396 116.696 89.049 118.398 89.3143C120.145 89.5797 120.831 91.1074 120.968 91.9582C121.069 92.6169 120.621 93.2298 119.962 93.3396C119.907 93.3488 119.843 93.3579 119.779 93.3579Z" fill="#223549"/>
<path fill-rule="evenodd" clip-rule="evenodd" d="M114.966 91.2205C114.966 95.7672 111.28 99.4448 106.742 99.4448C102.195 99.4448 98.5176 95.7581 98.5176 91.2205C98.5176 86.6829 102.204 82.9961 106.742 82.9961C111.289 82.987 114.966 86.6737 114.966 91.2205Z" fill="#223549"/>
<path d="M106.742 85.1891C110.063 85.1891 112.771 87.897 112.771 91.2179C112.771 94.5387 110.063 97.2467 106.742 97.2467C103.421 97.2467 100.713 94.5387 100.713 91.2179C100.713 87.8879 103.421 85.1891 106.742 85.1891ZM106.742 82.9844C102.195 82.9844 98.5176 86.6712 98.5176 91.2087C98.5176 95.7463 102.204 99.4331 106.742 99.4331C111.289 99.4331 114.966 95.7463 114.966 91.2087C114.966 86.6712 111.289 82.9844 106.742 82.9844Z" fill="white"/>
<path d="M134.505 97.0342C137.717 93.8224 137.717 88.6151 134.505 85.4033C131.293 82.1915 126.086 82.1915 122.874 85.4033C119.662 88.6151 119.662 93.8224 122.874 97.0342C126.086 100.246 131.293 100.246 134.505 97.0342Z" fill="#223549"/>
<path d="M128.689 85.1891C132.01 85.1891 134.718 87.897 134.718 91.2179C134.718 94.5387 132.01 97.2467 128.689 97.2467C125.368 97.2467 122.66 94.5387 122.66 91.2179C122.66 87.8879 125.368 85.1891 128.689 85.1891ZM128.689 82.9844C124.142 82.9844 120.465 86.6712 120.465 91.2087C120.465 95.7463 124.152 99.4331 128.689 99.4331C133.236 99.4331 136.914 95.7463 136.914 91.2087C136.914 86.6712 133.236 82.9844 128.689 82.9844Z" fill="white"/>
<path d="M128.69 101.325C123.11 101.325 118.572 96.7871 118.572 91.2157C118.572 85.6352 123.11 81.0977 128.69 81.0977C134.271 81.0977 138.808 85.6352 138.808 91.2157C138.808 96.7871 134.271 101.325 128.69 101.325ZM128.69 83.5037C124.436 83.5037 120.987 86.9617 120.987 91.2066C120.987 95.4514 124.446 98.9095 128.69 98.9095C132.944 98.9095 136.393 95.4514 136.393 91.2066C136.402 86.9617 132.944 83.5037 128.69 83.5037Z" fill="#223549"/>
<path d="M106.88 101.326C101.309 101.326 96.7715 96.7884 96.7715 91.2079C96.7715 85.6274 101.309 81.0898 106.88 81.0898C112.452 81.0898 116.989 85.6274 116.989 91.2079C116.989 96.7884 112.452 101.326 106.88 101.326ZM106.88 83.505C102.636 83.505 99.1866 86.9631 99.1866 91.2079C99.1866 95.4527 102.636 98.9108 106.88 98.9108C111.125 98.9108 114.574 95.4527 114.574 91.2079C114.574 86.9631 111.116 83.505 106.88 83.505Z" fill="#223549"/>
<path d="M163.067 173.379H153.443V193.46H163.067V173.379Z" fill="white"/>
<path fill-rule="evenodd" clip-rule="evenodd" d="M159.146 189.807C158.689 189.807 158.24 189.843 157.801 189.907V174.492H143.813C143.868 174.09 143.896 173.669 143.896 173.248C143.896 168.088 139.706 163.898 134.546 163.898C129.377 163.898 125.197 168.088 125.197 173.248C125.197 173.669 125.224 174.081 125.279 174.492H111.117V221.176H157.801V208.423C158.24 208.487 158.689 208.524 159.146 208.524C164.315 208.524 168.496 204.334 168.496 199.174C168.496 193.987 164.306 189.807 159.146 189.807Z" fill="white"/>
<path d="M134.545 163.9C139.714 163.9 143.895 168.089 143.895 173.249C143.895 173.67 143.867 174.082 143.813 174.493H157.791V189.908C158.23 189.844 158.679 189.808 159.136 189.808C164.305 189.808 168.486 193.998 168.486 199.157C168.486 204.326 164.296 208.507 159.136 208.507C158.679 208.507 158.23 208.47 157.791 208.406V221.159H111.107V174.475H125.269C125.214 174.073 125.186 173.652 125.186 173.231C125.196 168.089 129.376 163.9 134.545 163.9ZM134.545 161.484C128.452 161.484 123.43 166.141 122.835 172.078H111.116H108.701V174.493V221.177V223.593H111.116H157.8H160.216V221.177V210.885C166.208 210.346 170.919 205.296 170.919 199.166C170.919 193.037 166.208 187.987 160.216 187.447V174.493V172.078H157.8H146.255C145.66 166.141 140.638 161.484 134.545 161.484Z" fill="#223549"/>
<path fill-rule="evenodd" clip-rule="evenodd" d="M109.853 189.807C109.396 189.807 108.947 189.843 108.508 189.907V174.492H94.5296C94.5845 174.09 94.6119 173.669 94.6119 173.248C94.6119 168.088 90.422 163.898 85.2623 163.898C80.0935 163.898 75.9127 168.088 75.9127 173.248C75.9127 173.669 75.9401 174.081 75.995 174.492H61.8242V221.176H108.508V208.423C108.947 208.487 109.396 208.524 109.853 208.524C115.022 208.524 119.203 204.334 119.203 199.174C119.212 193.987 115.022 189.807 109.853 189.807Z" fill="white"/>
<path d="M85.2523 163.9C90.4211 163.9 94.6019 168.089 94.6019 173.249C94.6019 173.67 94.5745 174.082 94.5196 174.493H108.498V189.908C108.937 189.844 109.386 189.808 109.843 189.808C115.012 189.808 119.193 193.998 119.193 199.157C119.193 204.326 115.003 208.507 109.843 208.507C109.386 208.507 108.937 208.47 108.498 208.406V221.159H61.8234V174.475H75.985C75.9301 174.073 75.9027 173.652 75.9027 173.231C75.9027 168.089 80.0926 163.9 85.2523 163.9ZM85.2523 161.484C79.1595 161.484 74.137 166.141 73.5515 172.078H61.8234H59.4082V174.493V221.177V223.593H61.8234H108.507H110.923V221.177V210.885C116.915 210.346 121.626 205.296 121.626 199.166C121.626 193.037 116.915 187.987 110.923 187.447V174.493V172.078H108.507H96.9622C96.3675 166.141 91.3451 161.484 85.2523 161.484Z" fill="#223549"/>
<path fill-rule="evenodd" clip-rule="evenodd" d="M112.66 192.178C112.202 192.178 111.754 192.214 111.315 192.278V176.863H97.3362C97.3911 176.461 97.4185 176.04 97.4185 175.619C97.4185 170.45 93.2286 166.27 88.0689 166.27C82.9001 166.27 78.7193 170.459 78.7193 175.619C78.7193 176.04 78.7468 176.452 78.8017 176.863H64.6309V223.547H111.315V210.785C111.754 210.849 112.202 210.886 112.66 210.886C117.829 210.886 122.009 206.696 122.009 201.536C122.018 196.368 117.829 192.178 112.66 192.178Z" fill="#FDB49D"/>
<path d="M163.067 128.285H153.443V174.009H163.067V128.285Z" fill="#EC663D"/>
<path fill-rule="evenodd" clip-rule="evenodd" d="M110.859 125.605V138.367C115.571 138.852 119.258 142.832 119.258 147.671C119.258 152.511 115.58 156.49 110.859 156.975V172.18H157.827V125.605H110.859Z" fill="white"/>
<path d="M157.827 125.607V172.181H110.859V156.976C115.571 156.491 119.248 152.512 119.248 147.672C119.248 142.833 115.571 138.853 110.859 138.369V125.607H157.827ZM160.233 123.191H157.827H110.859H108.453V125.597V138.359V140.537L110.621 140.756C114.171 141.113 116.851 144.086 116.851 147.663C116.851 151.24 114.171 154.204 110.621 154.57L108.453 154.79V156.967V172.172V174.578H110.859H157.827H160.233V172.172V125.607V123.191Z" fill="#223549"/>
<path fill-rule="evenodd" clip-rule="evenodd" d="M114.939 128.285V141.047C119.651 141.532 123.338 145.512 123.338 150.351C123.338 155.19 119.66 159.17 114.939 159.655V174.859H161.907V128.285H114.939Z" fill="#EC663D"/>
<path fill-rule="evenodd" clip-rule="evenodd" d="M181.705 190.027L179.289 190.146C179.289 190.146 148.789 191.436 145.23 192.534C141.662 193.632 137.07 195.452 136.997 196.879C136.914 198.307 136.439 200.365 138.579 201.234C140.72 202.103 144.517 199.414 145.395 199.331C146.264 199.249 156.483 199.569 156.483 199.569L155.293 201.408C155.293 201.408 143.071 205.653 140.958 209.943C138.845 214.234 141.754 217.948 143.336 217.628C144.919 217.308 143.236 220.656 146.346 220.876C149.457 221.095 149.438 220.482 150.701 222.696C151.972 224.91 155.915 224.471 158.257 223.346C160.599 222.22 166.381 219.787 170.974 221.159C172.721 221.681 177.039 221.854 181.705 221.873V190.027Z" fill="white"/>
<path fill-rule="evenodd" clip-rule="evenodd" d="M47.4434 104.627C47.4434 104.627 53.6276 115.129 55.5671 114.315C57.5065 113.5 57.1315 111.506 59.0069 112.503C60.8823 113.5 63.9561 113.336 65.5022 112.439C67.0483 111.543 67.8991 114.937 69.8568 113.693C71.8146 112.439 72.1256 110.628 73.3789 110.381C74.6323 110.134 78.3099 110.491 77.7518 103.757C77.1938 97.0243 74.248 94.0694 74.248 93.8773C74.2572 93.6943 47.4434 104.627 47.4434 104.627Z" fill="white"/>
<path d="M146.83 193.832C154.231 192.396 162.318 191.902 170.314 191.527C172.363 191.435 174.504 191.317 176.599 191.317C180.624 191.317 183.862 191.106 188.235 191.106C188.684 191.106 189.196 191.079 189.727 191.042V188.453C180.221 188.462 170.799 188.654 161.925 189.423C161.861 189.139 159.098 189.139 159.098 189.139C159.134 189.304 159.171 189.469 159.208 189.633C151.743 190.557 142.045 190.685 137.197 194.354C136.319 195.022 135.742 195.818 135.413 196.76C134.388 199.715 136.941 202.578 139.182 202.843C141.707 203.136 143.619 201.517 145.888 200.749C148.257 199.943 150.91 199.733 153.645 200.328C150.819 201.371 147.626 202.798 144.735 204.838C142.173 206.64 139.283 209.092 138.862 212.385C138.45 215.642 139.932 218.679 142.951 218.78C142.649 221.799 145.494 222.668 148.083 221.817C148.403 223.638 149.721 224.717 151.121 225.175C157.003 227.087 162.51 221.47 168.942 222.137C170.561 222.302 172.143 222.952 173.763 223.29C178.794 224.351 184.119 223.784 189.717 223.455V220.701C184.402 221.122 179.389 221.817 174.184 220.664C172.061 220.198 169.966 219.411 167.789 219.411C162.977 219.402 158.851 222.357 154.478 222.769C152.786 222.924 151.432 222.668 150.709 221.616C152.319 218.652 155.85 217.206 159.51 215.532C161.074 214.819 162.785 214.078 164.752 213.327C166.133 212.806 169.582 212.257 169.573 210.711C169.564 208.104 165.053 210.473 164.12 210.812C159.391 212.55 154.268 214.471 150.599 217.417C149.968 217.92 149.291 218.999 148.504 219.301C148.239 219.402 146.007 220.088 145.467 219.091C144.488 217.289 148.586 214.919 149.446 214.27C153.801 211.004 158.531 208.854 164.12 206.622C165.108 206.228 166.627 205.661 166.636 204.737C166.654 203.008 164.761 203.484 163.7 203.896C157.771 206.219 151.23 209.183 146.61 213.016C146.217 213.346 145.741 213.584 145.247 213.959C144.708 214.37 143.655 216.173 142.521 215.953C141.707 215.798 141.295 214.023 141.579 212.596C141.808 211.425 142.494 210.427 143.253 209.558C147.141 205.112 155.256 202.038 162.227 200.337C163.956 199.916 164.633 199.742 164.633 198.763C164.651 195.982 160.196 198.635 158.549 198.654C157.634 198.663 156.207 197.967 154.78 197.711C151.459 197.126 147.406 197.309 144.616 198.342C143.161 198.882 141.039 200.364 139.484 200.126C138.569 199.98 137.791 198.873 137.91 197.821C138.185 195.525 143.875 194.409 146.83 193.832Z" fill="#223549"/>
<path d="M73.9817 89.5415C71.8593 84.702 69.7003 79.8168 65.9129 76.9625C61.7778 73.8521 55.0263 73.8887 48.8237 74.9682C42.8133 76.0203 37.4981 77.7036 33.5186 80.3108C25.5046 85.562 20.1711 94.4176 15.908 103.895C13.6575 108.899 11.7089 114.132 9.9707 119.466H12.8341C13.5203 117.453 14.2247 115.477 14.9566 113.538C16.1458 115.623 17.3534 117.709 18.8812 119.466H22.6412C19.6222 117.215 17.9847 113.336 16.219 109.979C19.6497 101.215 23.6475 93.5759 29.1091 87.6478C34.9914 81.2806 42.3376 78.1152 53.7456 77.0632C58.1276 76.6606 62.6835 77.4108 65.1718 79.6796C68.5476 82.7534 70.4687 88.032 72.5088 92.78C73.4785 95.0305 74.5489 97.4823 75.3357 100.227C76.1407 103.035 77.3666 109.732 73.2407 108.927C71.5208 103.401 69.9656 98.6807 67.8981 92.9904C67.4864 91.8469 66.7179 88.5718 65.2816 88.5901C62.775 88.6175 64.9889 92.7983 65.492 94.1431C67.1021 98.5161 68.1725 101.956 69.682 106.512C70.2034 108.094 71.4476 111.918 69.2612 112.385C68.0993 112.632 67.3034 111.635 66.3245 111.022C65.2999 105.515 62.8116 100.172 60.5611 95.0854C59.8567 93.4936 58.5301 88.892 56.4718 91.5267C56.6456 93.4021 57.6428 94.9665 58.3563 96.5583C59.7743 99.7328 61.0825 102.889 62.3359 106.31C62.9305 107.939 63.7081 109.796 63.4885 111.763C61.7961 113.08 59.8658 111.379 58.768 110.5C57.3409 105.743 55.2825 101.096 53.1052 96.4577C52.5654 95.3141 51.7146 92.6977 50.2783 92.7892C47.7625 92.9539 50.1777 96.54 50.5894 97.4C52.2452 100.858 53.4986 103.831 54.9897 107.463C55.3831 108.424 57.1945 112.202 55.0904 112.495C53.9285 112.659 52.6843 110.958 52.0531 109.979C49.9581 106.731 48.6774 102.249 46.2896 99.3943C45.695 98.6807 44.6155 97.7293 43.6732 97.5097C41.0568 96.8968 39.2637 99.2022 37.0681 99.0832C36.2448 99.0375 35.5495 98.6167 34.9731 98.2416C34.2779 97.7933 32.4756 96.6132 32.0365 98.3422C31.6066 100.062 35.2567 101.773 37.1779 101.8C39.3918 101.837 41.1483 99.9889 42.7309 100.126C44.0575 100.236 45.1187 102.358 45.6676 103.374C46.4909 104.911 46.7379 105.816 47.6619 107.463C47.6619 107.838 47.7168 107.994 47.7168 108.195C47.7168 108.607 47.7168 109.046 47.6802 109.485C48.3206 109.887 48.9427 110.4 49.208 111.077C50.4979 112.101 51.7146 114.709 53.956 115.12C56.0052 115.495 57.167 114.425 58.3563 113.446C59.2895 114.343 61.0734 115.157 62.8665 114.91C64.0557 114.745 64.7236 113.949 65.4829 113.757C68.2457 116.291 72.5271 114.69 73.1309 111.552C77.3026 111.918 78.7754 109.247 78.7937 105.268C78.8212 99.2205 75.8297 93.7863 73.9817 89.5415Z" fill="#223549"/>
<path fill-rule="evenodd" clip-rule="evenodd" d="M143.785 173.367C143.785 178.581 139.558 182.808 134.343 182.808C129.129 182.808 124.902 178.581 124.902 173.367C124.902 168.152 129.129 163.926 134.343 163.926C139.558 163.917 143.785 168.143 143.785 173.367Z" fill="white"/>
<path d="M134.343 184.191C128.37 184.191 123.512 179.333 123.512 173.359C123.512 167.385 128.37 162.527 134.343 162.527C140.317 162.527 145.175 167.385 145.175 173.359C145.166 179.333 140.308 184.191 134.343 184.191ZM134.343 165.308C129.897 165.308 126.284 168.922 126.284 173.368C126.284 177.814 129.897 181.428 134.343 181.428C138.789 181.428 142.403 177.814 142.403 173.368C142.394 168.922 138.78 165.308 134.343 165.308Z" fill="#223549"/>
<path d="M152.091 174.594H116.76V184.803H152.091V174.594Z" fill="white"/>
</svg>
