<svg width="261" height="202" viewBox="0 0 261 202" fill="none" xmlns="http://www.w3.org/2000/svg">
<path d="M51.4333 94.1868C50.611 93.9 50.219 93.0776 50.4771 92.3318C50.7353 91.5764 51.5576 91.1844 52.313 91.4426L51.4333 94.1868Z" fill="#EC663D"/>
<path d="M45.82 91.852C45.6192 91.852 45.428 91.8138 45.2367 91.7277C44.4431 91.3835 44.1084 90.5421 44.4144 89.8058C44.7299 89.0695 45.5714 88.7349 46.3076 89.0408C47.1395 89.4138 47.4646 90.2648 47.1395 90.9915C46.9005 91.5365 46.3746 91.852 45.82 91.852ZM39.8917 89.0217C39.6717 89.0217 39.4422 88.9739 39.2319 88.8592C38.4383 88.448 38.161 87.5779 38.5339 86.8703C38.9068 86.1627 39.7769 85.8854 40.4749 86.2584C41.259 86.66 41.5363 87.5301 41.1729 88.2376C40.9148 88.7349 40.4176 89.0217 39.8917 89.0217ZM34.1545 85.8185C33.9059 85.8185 33.6478 85.7516 33.4183 85.6081C32.6629 85.1492 32.4334 84.2695 32.8446 83.581C33.2557 82.9021 34.1354 82.6727 34.8239 83.0838C35.5793 83.5428 35.8087 84.4225 35.3976 85.1109C35.1203 85.5699 34.6422 85.8185 34.1545 85.8185ZM28.6469 82.2424C28.3601 82.2424 28.0732 82.1563 27.815 81.9842C27.0883 81.4679 26.9354 80.5595 27.3943 79.9189C27.8533 79.2686 28.7617 79.1157 29.4023 79.5842C30.1194 80.091 30.2724 80.9898 29.823 81.64C29.5457 82.032 29.0963 82.2424 28.6469 82.2424ZM23.4357 78.2455C23.1106 78.2455 22.7855 78.1404 22.5178 77.9204C21.8293 77.3276 21.7528 76.4192 22.2692 75.8168C22.7855 75.2144 23.6939 75.1379 24.3059 75.6543C24.9656 76.1993 25.0612 77.1077 24.5545 77.7292C24.258 78.0734 23.8469 78.2455 23.4357 78.2455ZM18.607 73.8088C18.2341 73.8088 17.8612 73.6654 17.5743 73.3785C16.9528 72.7475 16.9624 71.8295 17.5265 71.2749C18.0907 70.7204 19.0086 70.7204 19.5632 71.2941C20.1847 71.9251 20.1751 72.8431 19.611 73.3977C19.3433 73.675 18.9799 73.8088 18.607 73.8088ZM14.2946 68.8749C13.8643 68.8749 13.4436 68.6837 13.1567 68.3203C12.6117 67.5936 12.736 66.6853 13.3671 66.2072C13.9982 65.7291 14.9066 65.8534 15.3847 66.494C15.9106 67.1729 15.8054 68.0813 15.1743 68.5689C14.9161 68.7793 14.6006 68.8749 14.2946 68.8749ZM10.642 63.4342C10.1352 63.4342 9.64755 63.1665 9.37982 62.698C8.94954 61.9522 9.17902 61.0725 9.86747 60.6709C10.5559 60.2693 11.4356 60.4988 11.8372 61.1872C12.2866 61.9808 12.038 62.8605 11.3496 63.2526C11.1296 63.3769 10.881 63.4342 10.642 63.4342ZM7.84992 57.5059C7.26665 57.5059 6.72163 57.1521 6.5017 56.5784C6.18616 55.7274 6.5782 54.8955 7.32402 54.6278C8.06985 54.3601 8.90173 54.7425 9.16946 55.4883C9.47544 56.2915 9.10252 57.133 8.3567 57.4103C8.19415 57.4772 8.02204 57.5059 7.84992 57.5059ZM6.09054 51.1951C5.41165 51.1951 4.7997 50.7074 4.67539 50.019C4.51284 49.1488 5.02918 48.3935 5.81325 48.25C6.59732 48.1066 7.35271 48.6229 7.49614 49.3975C7.65869 50.2676 7.14235 51.023 6.35828 51.1664C6.26266 51.1855 6.1766 51.1951 6.09054 51.1951ZM5.45946 44.6835C4.67539 44.6835 4.02519 44.0524 4.01562 43.2588C4.01562 42.3599 4.65627 41.7097 5.45946 41.7097C6.2531 41.7097 6.9033 42.3599 6.9033 43.1536C6.91286 44.0237 6.27222 44.6739 5.47859 44.6835C5.47859 44.6835 5.46903 44.6835 5.45946 44.6835ZM100.475 43.2109C99.8348 43.2109 99.242 42.7807 99.0795 42.1305C98.8595 41.289 99.3089 40.4954 100.083 40.2946C100.848 40.0938 101.642 40.5432 101.852 41.3177C102.072 42.1878 101.613 42.9719 100.839 43.1727C100.715 43.2014 100.59 43.2109 100.475 43.2109ZM5.94712 38.1432C4.94312 38.0093 4.3981 37.273 4.5224 36.489C4.66583 35.5902 5.41165 35.0643 6.19572 35.1886C6.9798 35.3129 7.51526 36.0587 7.39095 36.8428C7.26665 37.6268 6.64513 38.1432 5.94712 38.1432ZM98.391 36.9957C97.8269 36.9957 97.2818 36.6611 97.0523 36.0969C96.7177 35.2746 97.0715 34.4332 97.8077 34.1368C98.544 33.8308 99.3854 34.1941 99.6914 34.9304C100.026 35.7527 99.6723 36.5942 98.936 36.8906C98.7543 36.9575 98.5727 36.9957 98.391 36.9957ZM7.40052 31.7463C6.21485 31.4499 5.78457 30.6371 6.02361 29.8817C6.27222 29.0499 7.07541 28.61 7.84036 28.8395C8.60531 29.069 9.04515 29.8722 8.81567 30.6276C8.59575 31.3543 8.02204 31.7463 7.40052 31.7463ZM95.5416 31.077C95.0443 31.077 94.5567 30.8188 94.2985 30.3407C93.8682 29.5758 94.1169 28.6961 94.8053 28.304C95.5033 27.912 96.383 28.1606 96.775 28.8491C97.1958 29.6044 96.9472 30.4937 96.2491 30.8857C96.0197 31.01 95.771 31.077 95.5416 31.077ZM9.78141 25.6458C9.56149 25.6458 9.34157 25.598 9.13121 25.4929C8.42363 25.1295 8.13678 24.2689 8.50013 23.5518C8.8826 22.7677 9.75273 22.4809 10.4603 22.8347C11.1774 23.1884 11.4643 24.049 11.1105 24.7662C10.8141 25.359 10.3073 25.6458 9.78141 25.6458ZM92.0802 25.512C91.6212 25.512 91.1718 25.2921 90.885 24.8809C90.3877 24.1638 90.5407 23.2649 91.1909 22.8155C91.8411 22.3566 92.74 22.5191 93.1989 23.1693C93.7057 23.9151 93.5431 24.8044 92.8834 25.2634C92.6443 25.4355 92.3575 25.512 92.0802 25.512ZM88.0738 20.3199C87.6626 20.3199 87.2514 20.1478 86.9646 19.8036C86.4004 19.1438 86.4674 18.2259 87.0698 17.7095C87.6722 17.1932 88.5901 17.2601 89.1065 17.8721C89.6802 18.5605 89.6037 19.4689 89.0013 19.9852C88.7335 20.2147 88.3989 20.3199 88.0738 20.3199ZM13.281 20.1095C12.9751 20.1095 12.6595 20.0139 12.3918 19.8036C11.7607 19.3159 11.6555 18.4075 12.1432 17.7764C12.6595 17.088 13.5679 16.9637 14.199 17.4418C14.8396 17.9199 14.9639 18.8282 14.4858 19.4593C14.1416 19.9183 13.7113 20.1095 13.281 20.1095ZM83.618 15.5103C83.245 15.5103 82.8817 15.3669 82.5948 15.0896C81.9733 14.4776 81.9638 13.5597 82.5183 12.9955C83.0729 12.4314 83.9909 12.4218 84.555 12.9764C85.1861 13.6075 85.1861 14.5254 84.6315 15.0896C84.3542 15.3669 83.9909 15.5103 83.618 15.5103ZM17.7369 15.2999C17.3448 15.2999 16.9624 15.1469 16.6755 14.8314C16.14 14.2481 16.1783 13.3302 16.7616 12.7947C17.4309 12.1923 18.3393 12.2401 18.8747 12.833C19.4102 13.4258 19.3624 14.3342 18.7695 14.8696C18.4349 15.1756 18.0811 15.2999 17.7369 15.2999ZM22.9098 11.2744C22.4413 11.2744 21.9823 11.0449 21.705 10.6242C21.2652 9.96442 21.4469 9.06561 22.1066 8.62576C22.8333 8.13811 23.7321 8.31022 24.172 8.97955C24.6118 9.63932 24.4397 10.5381 23.78 10.978C23.4548 11.1883 23.1776 11.2744 22.9098 11.2744ZM78.6745 11.1979C78.3781 11.1979 78.0721 11.1023 77.8139 10.9206C77.1063 10.4043 76.9629 9.50545 77.4314 8.85525C77.9 8.2146 78.7988 8.07118 79.449 8.53971C80.1661 9.07517 80.3096 9.97398 79.8315 10.6146C79.5542 10.9971 79.1143 11.1979 78.6745 11.1979ZM28.6087 8.03293C28.0732 8.03293 27.5569 7.72695 27.3083 7.21061C26.964 6.49347 27.27 5.63291 27.9872 5.28868C28.7712 4.90621 29.6414 5.20262 29.9856 5.91976C30.3298 6.6369 30.0334 7.49747 29.3163 7.85125C29.0294 7.98512 28.819 8.03293 28.6087 8.03293ZM73.0904 7.7652C72.8704 7.7652 72.641 7.71739 72.4306 7.60265C71.6465 7.21061 71.3597 6.34048 71.723 5.62335C72.0864 4.91577 72.9469 4.62891 73.6641 4.99226C74.4577 5.40342 74.735 6.27355 74.3717 6.98113C74.123 7.47834 73.6163 7.7652 73.0904 7.7652ZM34.69 5.57554C34.0876 5.57554 33.5235 5.19306 33.3227 4.59067C33.0645 3.83528 33.4757 3.01296 34.231 2.76436C35.0916 2.48706 35.9044 2.90778 36.153 3.66317C36.392 4.41855 35.9809 5.23131 35.2159 5.47992C34.996 5.55641 34.843 5.57554 34.69 5.57554ZM67.0473 5.24087C66.9039 5.24087 66.7509 5.22175 66.6074 5.17394C65.7851 4.90621 65.3644 4.09345 65.6034 3.3285C65.8521 2.57312 66.6457 2.1524 67.4106 2.40101C68.2521 2.66874 68.6632 3.48149 68.4242 4.23688C68.2234 4.84884 67.6592 5.24087 67.0473 5.24087ZM41.0295 3.89265C40.3602 3.89265 39.7578 3.41456 39.6144 2.73567C39.4614 1.9516 39.9681 1.19621 40.7427 1.04322C41.6128 0.871111 42.3682 1.37789 42.5307 2.16196C42.6837 2.94603 42.1769 3.70142 41.4024 3.85441C41.2112 3.88309 41.1156 3.89265 41.0295 3.89265ZM60.6887 3.62492C59.5699 3.45281 59.044 2.70698 59.1779 1.91335C59.3117 1.12928 60.0671 0.603379 60.8512 0.737245C61.7405 0.899796 62.2568 1.65518 62.1038 2.43925C61.9795 3.13727 61.3675 3.62492 60.6887 3.62492ZM47.522 2.99384C46.7762 2.99384 46.1451 2.42013 46.0877 1.65518C46.0304 0.861549 46.6232 0.173096 47.4168 0.106163C48.2869 0.0296687 48.985 0.622503 49.0519 1.41614C49.1188 2.20977 48.5356 2.90778 47.7419 2.97472C47.5985 2.99384 47.5602 2.99384 47.522 2.99384ZM54.1675 2.88866C53.2113 2.84085 52.5993 2.17152 52.6376 1.36833C52.6854 0.574694 53.3547 -0.0277024 54.1579 0.000983141C55.028 0.0296687 55.6496 0.698998 55.6209 1.50219C55.5826 2.2767 54.942 2.88866 54.1675 2.88866Z" fill="#EC663D"/>
<path d="M101.584 49.6921C101.383 49.6921 101.173 49.6443 100.972 49.5486C100.456 49.3192 100.112 48.7933 100.112 48.2291C100.093 47.4355 100.724 46.7661 101.517 46.747C102.043 46.7279 102.521 47.0052 102.78 47.4259C103.066 47.8371 103.124 48.3821 102.894 48.8602C102.646 49.3861 102.12 49.6921 101.584 49.6921Z" fill="#EC663D"/>
<path d="M136.657 137.836C136.494 137.836 136.341 137.807 136.179 137.749C135.423 137.482 135.031 136.659 135.29 135.914C135.567 135.091 136.389 134.69 137.145 134.938C137.9 135.196 138.302 136.009 138.053 136.765C137.804 137.463 137.25 137.836 136.657 137.836ZM139.009 131.764C138.818 131.764 138.627 131.726 138.435 131.639C137.709 131.324 137.365 130.473 137.68 129.746C138.043 128.924 138.904 128.599 139.631 128.924C140.357 129.249 140.682 130.1 140.357 130.827C140.099 131.439 139.573 131.764 139.009 131.764ZM141.973 125.979C141.725 125.979 141.476 125.912 141.247 125.778C140.558 125.376 140.329 124.487 140.73 123.808C141.199 123.034 142.088 122.814 142.767 123.225C143.446 123.636 143.666 124.525 143.245 125.204C142.958 125.721 142.471 125.979 141.973 125.979ZM145.827 120.739C145.473 120.739 145.119 120.615 144.842 120.356C144.259 119.811 144.23 118.903 144.775 118.32C145.377 117.67 146.286 117.641 146.869 118.186C147.452 118.731 147.481 119.639 146.945 120.223C146.592 120.586 146.209 120.739 145.827 120.739ZM150.99 116.876C150.445 116.876 149.919 116.56 149.68 116.035C149.345 115.308 149.661 114.457 150.388 114.122C151.229 113.759 152.08 114.093 152.396 114.82C152.711 115.547 152.377 116.398 151.64 116.713C151.401 116.838 151.191 116.876 150.99 116.876ZM157.435 116.006C156.517 115.987 155.886 115.317 155.905 114.524C155.924 113.74 156.565 113.118 157.349 113.118C158.267 113.137 158.898 113.807 158.879 114.6C158.86 115.384 158.209 116.006 157.435 116.006ZM163.832 115.853C163.086 115.853 162.455 115.279 162.397 114.514C162.34 113.721 162.933 113.032 163.726 112.965C164.587 112.889 165.285 113.482 165.362 114.275C165.429 115.069 164.845 115.767 164.052 115.834C163.908 115.853 163.87 115.853 163.832 115.853ZM170.257 114.925C169.588 114.925 168.995 114.466 168.852 113.788C168.689 113.013 169.177 112.238 169.961 112.076C170.85 111.894 171.605 112.401 171.768 113.185C171.921 113.969 171.424 114.725 170.64 114.887C170.458 114.916 170.353 114.925 170.257 114.925ZM176.587 113.472C175.927 113.472 175.335 113.023 175.182 112.353C175 111.579 175.488 110.804 176.262 110.623C177.123 110.422 177.897 110.909 178.079 111.684C178.251 112.458 177.773 113.233 176.989 113.415C176.798 113.462 176.692 113.472 176.587 113.472ZM208.916 112.564C208.122 112.564 207.472 111.913 207.472 111.12C207.472 110.326 208.122 109.676 208.916 109.676C209.795 109.676 210.436 110.307 210.446 111.101C210.455 111.894 209.815 112.554 209.021 112.564H208.916ZM202.509 112.353C201.515 112.286 200.922 111.588 200.979 110.795C201.037 110.001 201.725 109.408 202.528 109.466C203.408 109.532 204.001 110.221 203.944 111.015C203.886 111.77 203.255 112.353 202.509 112.353ZM182.965 112.305C182.257 112.305 181.636 111.78 181.54 111.053C181.435 110.259 181.99 109.532 182.774 109.427C183.672 109.313 184.39 109.877 184.485 110.67C184.581 111.464 184.026 112.181 183.233 112.277C183.099 112.305 183.032 112.305 182.965 112.305ZM215.399 112.229C214.662 112.229 214.031 111.665 213.964 110.909C213.897 110.116 214.481 109.418 215.274 109.351C216.135 109.265 216.843 109.838 216.919 110.632C216.996 111.426 216.422 112.133 215.628 112.21C215.485 112.229 215.446 112.229 215.399 112.229ZM196.026 111.885C195.089 111.846 194.468 111.177 194.496 110.384C194.525 109.59 195.204 108.968 195.988 108.997C196.887 109.045 197.499 109.714 197.461 110.517C197.422 111.292 196.791 111.885 196.026 111.885ZM189.438 111.808C188.654 111.808 188.014 111.187 187.994 110.403C187.975 109.609 188.606 108.949 189.4 108.921C190.28 108.911 190.949 109.532 190.968 110.326C190.987 111.12 190.356 111.78 189.563 111.808C189.457 111.808 189.448 111.808 189.438 111.808ZM221.843 111.33C221.164 111.33 220.553 110.842 220.428 110.154C220.285 109.37 220.801 108.615 221.576 108.471C222.446 108.309 223.201 108.825 223.345 109.599C223.488 110.384 222.981 111.139 222.197 111.282C222.015 111.321 221.929 111.33 221.843 111.33ZM228.164 109.829C227.533 109.829 226.959 109.418 226.777 108.787C226.557 108.022 226.997 107.219 227.772 107.008C228.604 106.76 229.407 107.19 229.636 107.955C229.866 108.72 229.426 109.523 228.671 109.752C228.422 109.81 228.298 109.829 228.164 109.829ZM234.293 107.668C233.738 107.668 233.203 107.343 232.964 106.798C232.648 106.071 232.983 105.22 233.719 104.905C234.532 104.56 235.383 104.905 235.698 105.641C236.004 106.377 235.67 107.219 234.934 107.525C234.675 107.63 234.484 107.668 234.293 107.668ZM240.126 104.799C239.628 104.799 239.15 104.541 238.883 104.082C238.481 103.394 238.71 102.514 239.399 102.113C240.183 101.663 241.063 101.902 241.455 102.6C241.847 103.289 241.608 104.178 240.919 104.57C240.623 104.742 240.374 104.799 240.126 104.799ZM245.509 101.175C245.079 101.175 244.658 100.984 244.371 100.621C243.883 99.9898 243.989 99.0814 244.62 98.5938C245.308 98.0487 246.207 98.1539 246.704 98.7754C247.201 99.3969 247.096 100.305 246.475 100.803C246.13 101.08 245.824 101.175 245.509 101.175ZM250.271 96.7674C249.926 96.7674 249.582 96.6431 249.305 96.3945C248.712 95.8591 248.664 94.9507 249.2 94.3579C249.793 93.6981 250.701 93.6503 251.294 94.1857C251.887 94.7212 251.934 95.6296 251.399 96.2224C251.064 96.6049 250.663 96.7674 250.271 96.7674ZM254.191 91.604C253.933 91.604 253.675 91.5371 253.436 91.3841C252.757 90.9634 252.546 90.0741 252.967 89.3953C253.436 88.6399 254.325 88.4295 255.004 88.8502C255.683 89.271 255.884 90.1602 255.463 90.8391C255.147 91.365 254.679 91.604 254.191 91.604ZM257.098 85.8096C256.926 85.8096 256.754 85.7809 256.582 85.714C255.836 85.4271 255.463 84.5952 255.75 83.8494C256.075 83.0175 256.907 82.6446 257.652 82.941C258.398 83.2279 258.762 84.0598 258.475 84.8056C258.226 85.4462 257.681 85.8096 257.098 85.8096ZM193.827 80.2255C192.909 80.2063 192.278 79.5466 192.297 78.7434C192.316 77.9593 192.957 77.3378 193.741 77.3378C194.659 77.3569 195.29 78.0167 195.271 78.8199C195.252 79.6039 194.611 80.2255 193.827 80.2255ZM200.214 79.7856C199.545 79.7856 198.943 79.3171 198.799 78.6286C198.637 77.8446 199.144 77.0892 199.928 76.9266C200.817 76.7545 201.572 77.2708 201.716 78.0549C201.869 78.839 201.352 79.5944 200.568 79.7378C200.406 79.776 200.31 79.7856 200.214 79.7856ZM187.354 79.6804C186.283 79.5466 185.728 78.8199 185.833 78.0262C185.939 77.2326 186.665 76.6876 187.459 76.7928C188.32 76.8979 188.884 77.6246 188.779 78.4087C188.692 79.1545 188.071 79.6804 187.354 79.6804ZM258.876 79.5657C257.825 79.3936 257.308 78.6382 257.461 77.8541C257.624 76.984 258.379 76.4676 259.163 76.6206C259.947 76.7641 260.464 77.5195 260.311 78.3035C260.167 79.0876 259.555 79.5657 258.876 79.5657ZM180.938 78.5999C179.781 78.3991 179.274 77.6342 179.437 76.8501C179.599 76.0661 180.355 75.5593 181.139 75.7218C181.999 75.8939 182.506 76.6589 182.353 77.4334C182.21 78.1219 181.607 78.5999 180.938 78.5999ZM174.589 77.1657C173.374 76.8979 172.906 76.1139 173.107 75.3394C173.307 74.5648 174.092 74.1059 174.866 74.2971C175.717 74.517 176.186 75.3011 175.994 76.0661C175.822 76.7258 175.229 77.1657 174.589 77.1657ZM206.009 77.0509C205.617 77.0509 205.225 76.8884 204.938 76.5728C204.403 75.98 204.45 75.0716 205.043 74.5362C205.732 73.9338 206.64 74.0007 207.166 74.6031C207.692 75.2055 207.625 76.1139 207.022 76.6398C206.697 76.9266 206.353 77.0509 206.009 77.0509ZM168.297 75.4828C167.054 75.1864 166.605 74.3927 166.825 73.6278C167.044 72.8628 167.838 72.4134 168.603 72.6334C169.454 72.882 169.903 73.6756 169.684 74.4405C169.502 75.0716 168.928 75.4828 168.297 75.4828ZM162.063 73.6182C161.919 73.6182 161.776 73.5991 161.632 73.5513C160.791 73.2836 160.361 72.4804 160.6 71.7154C160.839 70.9505 161.642 70.5298 162.407 70.7688C163.248 71.0365 163.679 71.8397 163.44 72.6047C163.248 73.2262 162.675 73.6182 162.063 73.6182ZM259.555 73.121C258.723 73.1019 258.092 72.4421 258.111 71.6389C258.131 70.7688 258.771 70.1473 259.555 70.1473C260.387 70.1664 261.018 70.8262 260.999 71.6294C260.98 72.4899 260.339 73.121 259.555 73.121ZM211.038 72.9298C210.608 72.9298 210.178 72.7385 209.891 72.3656C209.403 71.7345 209.528 70.8262 210.159 70.3385C210.876 69.803 211.775 69.9274 212.253 70.5584C212.731 71.1991 212.607 72.0979 211.966 72.576C211.65 72.8246 211.344 72.9298 211.038 72.9298ZM155.876 71.6198C155.723 71.6198 155.57 71.6007 155.427 71.5433C154.576 71.2564 154.174 70.4341 154.423 69.6787C154.681 68.9234 155.494 68.5218 156.249 68.7704C157.081 69.0477 157.492 69.8604 157.244 70.6158C157.043 71.2278 156.479 71.6198 155.876 71.6198ZM149.718 69.4971C149.556 69.4971 149.403 69.4684 149.24 69.411C148.399 69.1146 148.007 68.2923 148.275 67.5369C148.542 66.7911 149.365 66.399 150.12 66.6572C150.952 66.9441 151.344 67.7759 151.076 68.5218C150.875 69.1242 150.311 69.4971 149.718 69.4971ZM216.336 69.1528C215.867 69.1528 215.418 68.9329 215.141 68.5122C214.701 67.8524 214.873 66.9536 215.533 66.5138C216.288 66.0166 217.177 66.2078 217.617 66.8676C218.057 67.5369 217.866 68.4261 217.206 68.866C216.89 69.0668 216.613 69.1528 216.336 69.1528ZM143.599 67.2692C143.427 67.2692 143.264 67.2405 143.092 67.1735C142.27 66.8676 141.887 66.0357 142.165 65.2899C142.442 64.544 143.274 64.1616 144.02 64.4389C144.851 64.7544 145.234 65.5767 144.957 66.3225C144.737 66.9154 144.192 67.2692 143.599 67.2692ZM259.259 66.6285C258.542 66.6285 257.92 66.0931 257.825 65.3664C257.729 64.4675 258.293 63.76 259.087 63.6643C259.871 63.5687 260.588 64.1424 260.684 64.9361C260.789 65.7966 260.225 66.5138 259.441 66.6094C259.374 66.6285 259.316 66.6285 259.259 66.6285ZM221.853 65.7106C221.356 65.7106 220.878 65.4524 220.61 64.9934C220.208 64.305 220.438 63.4253 221.126 63.0237C221.901 62.5743 222.78 62.8133 223.182 63.5018C223.584 64.1903 223.345 65.0699 222.656 65.4715C222.35 65.6436 222.102 65.7106 221.853 65.7106ZM137.517 64.9648C137.345 64.9648 137.173 64.9361 137.001 64.8691C136.169 64.544 135.796 63.7122 136.083 62.9663C136.37 62.2205 137.202 61.8572 137.948 62.144C138.77 62.4596 139.143 63.2914 138.856 64.0373C138.646 64.611 138.101 64.9648 137.517 64.9648ZM227.571 62.6221C227.045 62.6221 226.529 62.3257 226.28 61.8285C225.926 61.1209 226.213 60.2508 226.921 59.897C227.724 59.5049 228.584 59.7918 228.938 60.5089C229.292 61.2261 228.996 62.0866 228.288 62.4404C228.011 62.5743 227.791 62.6221 227.571 62.6221ZM131.465 62.5839C131.283 62.5839 131.101 62.5456 130.929 62.4787C130.107 62.1536 129.753 61.3121 130.04 60.5663C130.337 59.83 131.178 59.4667 131.914 59.7631C132.737 60.0882 133.09 60.9297 132.803 61.6755C132.574 62.2396 132.029 62.5839 131.465 62.5839ZM257.71 60.3655C257.213 60.3655 256.735 60.1073 256.467 59.6484C256.017 58.9121 256.237 58.0229 256.916 57.6117C257.595 57.2005 258.484 57.4109 258.896 58.0898C259.354 58.8739 259.125 59.7536 258.437 60.1647C258.207 60.3081 257.958 60.3655 257.71 60.3655ZM125.431 60.1265C125.25 60.1265 125.068 60.0882 124.886 60.0213C124.064 59.6771 123.71 58.8356 124.016 58.0994C124.322 57.3631 125.164 57.0093 125.9 57.3153C126.713 57.6404 127.066 58.4818 126.77 59.2277C126.54 59.7918 126.005 60.1265 125.431 60.1265ZM233.499 59.9448C232.926 59.9448 232.381 59.6006 232.161 59.0364C231.864 58.3002 232.228 57.4587 232.964 57.1623C233.767 56.8276 234.608 57.1814 234.914 57.9177C235.22 58.6539 234.867 59.4954 234.13 59.8014C233.853 59.9065 233.681 59.9448 233.499 59.9448ZM239.638 57.7934C239.007 57.7934 238.433 57.3822 238.251 56.7416C238.032 55.9766 238.481 55.1734 239.246 54.9631C240.078 54.7145 240.881 55.1543 241.101 55.9097C241.33 56.6746 240.9 57.4778 240.135 57.7073C239.896 57.7743 239.762 57.7934 239.638 57.7934ZM119.426 57.6117C119.245 57.6117 119.054 57.5735 118.872 57.497C118.04 57.1336 117.705 56.2922 118.021 55.5559C118.336 54.8292 119.187 54.485 119.914 54.8005C120.708 55.1352 121.062 55.9766 120.756 56.7129C120.536 57.277 119.991 57.6117 119.426 57.6117ZM252.546 56.732C251.351 56.4834 250.873 55.7089 251.055 54.9344C251.236 54.1599 252.021 53.6818 252.795 53.873C253.675 54.1025 254.134 54.8866 253.942 55.6515C253.77 56.2922 253.187 56.732 252.546 56.732ZM245.987 56.4643C245.26 56.4643 244.639 55.9193 244.553 55.183C244.467 54.3894 245.031 53.6818 245.824 53.5862C246.685 53.481 247.412 54.0451 247.507 54.8292C247.603 55.6228 247.039 56.34 246.255 56.4356C246.102 56.4643 246.044 56.4643 245.987 56.4643ZM113.45 55.0396C113.25 55.0396 113.058 55.0013 112.867 54.9153C112.073 54.571 111.729 53.72 112.054 52.9933C112.37 52.2571 113.221 51.9224 113.948 52.2379C114.77 52.6013 115.095 53.4523 114.77 54.1886C114.531 54.7145 114.005 55.0396 113.45 55.0396ZM107.493 52.4005C107.293 52.4005 107.101 52.3622 106.91 52.2762C106.097 51.9128 105.772 51.0523 106.107 50.3256C106.432 49.5989 107.293 49.2738 108.019 49.6084C108.822 49.9622 109.148 50.8228 108.822 51.5495C108.574 52.0754 108.048 52.4005 107.493 52.4005Z" fill="#EC663D"/>
<path d="M134.83 144.004C133.721 143.784 133.243 143 133.424 142.225C133.625 141.403 134.4 140.925 135.174 141.116C135.949 141.298 136.427 142.082 136.245 142.856C136.073 143.564 135.48 144.004 134.83 144.004Z" fill="#EC663D"/>
<path fill-rule="evenodd" clip-rule="evenodd" d="M161.988 171.977H206.67C210.533 171.977 213.669 175.103 213.669 178.976V181.462C213.669 185.325 210.533 188.452 206.67 188.452H161.988C158.125 188.452 154.988 185.325 154.988 181.462V178.976C154.998 175.113 158.125 171.977 161.988 171.977Z" fill="#FDB49D"/>
<path d="M206.668 189.457H161.986C157.578 189.457 153.982 185.872 153.982 181.454V178.968C153.982 174.56 157.568 170.965 161.986 170.965H206.668C211.076 170.965 214.671 174.551 214.671 178.968V181.454C214.671 185.872 211.086 189.457 206.668 189.457ZM161.986 172.992C158.687 172.992 156 175.679 156 178.978V181.464C156 184.763 158.687 187.449 161.986 187.449H206.668C209.967 187.449 212.654 184.763 212.654 181.464V178.978C212.654 175.679 209.967 172.992 206.668 172.992H161.986Z" fill="#223549"/>
<path fill-rule="evenodd" clip-rule="evenodd" d="M165.305 174.773H204.796C207.712 174.773 210.074 177.135 210.074 180.052C210.074 182.968 207.712 185.33 204.796 185.33H165.305C162.389 185.33 160.027 182.968 160.027 180.052C160.027 177.135 162.389 174.773 165.305 174.773Z" fill="white"/>
<path d="M204.796 186.334H165.306C161.844 186.334 159.023 183.513 159.023 180.052C159.023 176.59 161.844 173.77 165.306 173.77H204.796C208.257 173.77 211.078 176.59 211.078 180.052C211.078 183.513 208.257 186.334 204.796 186.334ZM165.306 175.787C162.953 175.787 161.041 177.699 161.041 180.052C161.041 182.404 162.953 184.316 165.306 184.316H204.796C207.148 184.316 209.061 182.404 209.061 180.052C209.061 177.699 207.148 175.787 204.796 175.787H165.306Z" fill="#223549"/>
<path fill-rule="evenodd" clip-rule="evenodd" d="M174.046 156.277H206.671C210.534 156.277 213.671 159.404 213.671 163.267V163.879C213.671 167.742 210.534 170.869 206.671 170.869H174.046C170.183 170.869 167.057 167.732 167.057 163.879V163.267C167.057 159.404 170.183 156.277 174.046 156.277Z" fill="#FDB49D"/>
<path d="M206.669 171.884H174.044C169.636 171.884 166.041 168.298 166.041 163.881V163.269C166.041 158.861 169.627 155.266 174.044 155.266H206.669C211.077 155.266 214.673 158.851 214.673 163.269V163.881C214.673 168.298 211.087 171.884 206.669 171.884ZM174.044 157.283C170.745 157.283 168.059 159.97 168.059 163.269V163.881C168.059 167.18 170.745 169.867 174.044 169.867H206.669C209.968 169.867 212.655 167.18 212.655 163.881V163.269C212.655 159.97 209.968 157.283 206.669 157.283H174.044Z" fill="#223549"/>
<path fill-rule="evenodd" clip-rule="evenodd" d="M116.176 132.957H180.747C183.014 132.957 184.371 134.889 183.769 137.279L173.117 179.762C172.515 182.153 170.191 184.084 167.925 184.084H103.354C101.088 184.084 99.73 182.153 100.332 179.762L110.994 137.289C111.587 134.889 113.91 132.957 116.176 132.957Z" fill="white"/>
<path d="M180.759 134.965C181.17 134.965 181.476 135.089 181.667 135.338C181.916 135.663 181.983 136.189 181.83 136.791L171.168 179.265C170.795 180.757 169.275 182.067 167.927 182.067H103.356C102.945 182.067 102.639 181.942 102.447 181.694C102.199 181.369 102.132 180.843 102.285 180.24L112.946 137.767C113.319 136.275 114.839 134.965 116.188 134.965H180.759ZM180.759 132.957H116.178C113.912 132.957 111.588 134.889 110.986 137.279L100.325 179.762C99.7222 182.153 101.08 184.084 103.346 184.084H167.917C170.183 184.084 172.507 182.153 173.109 179.762L183.771 137.289C184.373 134.889 183.025 132.957 180.759 132.957Z" fill="#223549"/>
<path fill-rule="evenodd" clip-rule="evenodd" d="M66.7029 181.285H169.588C170.554 181.285 171.338 182.069 171.338 183.035V185.244C171.338 187.558 169.454 189.441 167.141 189.441H69.1508C66.8368 189.441 64.9531 187.558 64.9531 185.244V183.035C64.9531 182.06 65.7372 181.285 66.7029 181.285Z" fill="white"/>
<path d="M169.33 183.293V185.234C169.33 186.439 168.345 187.424 167.141 187.424H69.1508C67.946 187.424 66.9611 186.439 66.9611 185.234V183.293H169.33ZM169.588 181.285H66.7029C65.7372 181.285 64.9531 182.069 64.9531 183.035V185.244C64.9531 187.558 66.8368 189.441 69.1508 189.441H167.141C169.454 189.441 171.338 187.558 171.338 185.244V183.035C171.338 182.06 170.554 181.285 169.588 181.285Z" fill="#223549"/>
<path fill-rule="evenodd" clip-rule="evenodd" d="M119.741 137.879H174.368C176.29 137.879 177.466 139.39 176.998 141.254L168.66 174.386C168.191 176.251 166.25 177.761 164.338 177.761H109.711C107.789 177.761 106.613 176.251 107.081 174.386L115.419 141.254C115.888 139.39 117.819 137.879 119.741 137.879Z" fill="#FDB49D"/>
<path d="M164.329 178.758H109.703C108.479 178.758 107.379 178.26 106.7 177.381C106.021 176.511 105.801 175.325 106.098 174.13L114.436 140.998C115.019 138.684 117.342 136.867 119.733 136.867H174.36C175.584 136.867 176.683 137.364 177.362 138.244C178.041 139.114 178.261 140.3 177.965 141.495L169.627 174.627C169.053 176.941 166.72 178.758 164.329 178.758ZM119.743 138.885C118.28 138.885 116.75 140.08 116.396 141.495L108.058 174.627C107.905 175.22 107.991 175.765 108.297 176.147C108.593 176.53 109.1 176.75 109.712 176.75H164.339C165.792 176.75 167.332 175.554 167.686 174.139L176.023 141.007C176.176 140.415 176.09 139.87 175.784 139.487C175.478 139.105 174.981 138.885 174.369 138.885H119.743Z" fill="#223549"/>
<path fill-rule="evenodd" clip-rule="evenodd" d="M209.041 135.264C210.447 133.314 211.871 131.64 215.916 131.019C220.391 130.33 223.135 133.141 223.135 133.141C223.135 133.141 221.758 136.421 216.595 137.129C211.431 137.846 209.041 135.264 209.041 135.264Z" fill="white"/>
<path d="M214.835 138.265C210.504 138.265 208.4 136.056 208.305 135.951L207.75 135.349L208.228 134.679C209.777 132.528 211.403 130.702 215.772 130.023C220.706 129.267 223.737 132.308 223.862 132.442L224.33 132.92L224.072 133.532C224.005 133.685 222.408 137.347 216.748 138.131C216.059 138.217 215.419 138.265 214.835 138.265ZM210.427 135.081C211.364 135.693 213.325 136.563 216.461 136.133C219.654 135.693 221.194 134.211 221.835 133.36C220.898 132.681 218.88 131.581 216.078 132.012C212.961 132.49 211.613 133.58 210.427 135.081Z" fill="#223549"/>
<path fill-rule="evenodd" clip-rule="evenodd" d="M48.9361 35.332H221.919C230.611 35.332 237.658 42.3791 237.658 51.0708V107.046C237.658 115.738 230.611 122.785 221.919 122.785H48.9361C40.2443 122.785 33.1973 115.738 33.1973 107.046V51.0613C33.1973 42.3791 40.2443 35.332 48.9361 35.332Z" fill="white"/>
<path d="M221.91 35.334C230.602 35.334 237.649 42.381 237.649 51.0727V107.048C237.649 115.739 230.602 122.787 221.91 122.787H48.9362C40.2445 122.787 33.1974 115.739 33.1974 107.048V51.0632C33.1974 42.3715 40.2445 35.3244 48.9362 35.3244H221.91V35.334ZM221.91 33.3164H48.9362C39.1545 33.3164 31.1895 41.2814 31.1895 51.0632V107.038C31.1895 116.82 39.1545 124.785 48.9362 124.785H221.919C231.701 124.785 239.666 116.82 239.666 107.038V51.0632C239.657 41.2814 231.701 33.3164 221.91 33.3164Z" fill="#EC663D"/>
<path fill-rule="evenodd" clip-rule="evenodd" d="M202.156 141.124C202.156 141.124 202.845 138.026 204.021 136.114C205.197 134.201 206.908 132.375 206.908 132.375L202.156 141.124Z" fill="white"/>
<path d="M202.157 142.128C201.392 141.984 201.058 141.449 201.172 140.904C201.201 140.77 201.918 137.624 203.161 135.587C204.376 133.608 206.097 131.762 206.173 131.686C206.556 131.284 207.187 131.265 207.598 131.638C208 132.021 208.019 132.652 207.646 133.063C207.627 133.082 205.992 134.832 204.882 136.639C203.802 138.389 203.142 141.315 203.142 141.343C203.037 141.802 202.626 142.128 202.157 142.128Z" fill="#223549"/>
<path fill-rule="evenodd" clip-rule="evenodd" d="M201.935 136.449C207.94 136.449 212.778 140.695 212.75 145.935C212.721 151.174 207.825 155.42 201.83 155.42C195.825 155.42 190.987 151.174 191.016 145.935C191.044 140.695 195.931 136.449 201.935 136.449Z" fill="white"/>
<path d="M201.82 156.434C198.416 156.434 195.175 155.143 192.937 152.886C191.035 150.964 189.992 148.497 190.002 145.935C190.04 140.15 195.385 135.445 201.926 135.445C205.33 135.445 208.571 136.736 210.809 138.993C212.711 140.915 213.754 143.382 213.744 145.944C213.715 151.729 208.37 156.434 201.82 156.434ZM201.935 137.453C196.495 137.453 192.048 141.259 192.02 145.944C192.01 147.971 192.842 149.932 194.372 151.461C196.236 153.336 198.961 154.416 201.83 154.416C207.271 154.416 211.717 150.61 211.746 145.925C211.755 143.898 210.923 141.938 209.393 140.408C207.529 138.534 204.804 137.453 201.935 137.453Z" fill="#223549"/>
<path d="M202.415 181.313H172.008C171.453 181.313 171.004 180.863 171.004 180.309C171.004 179.754 171.453 179.305 172.008 179.305H202.415C202.969 179.305 203.419 179.754 203.419 180.309C203.428 180.863 202.969 181.313 202.415 181.313Z" fill="#223549"/>
<path d="M202.329 178.551H176.436C175.881 178.551 175.432 178.102 175.432 177.547C175.432 176.992 175.881 176.543 176.436 176.543H202.329C202.884 176.543 203.333 176.992 203.333 177.547C203.333 178.102 202.884 178.551 202.329 178.551Z" fill="#223549"/>
<path d="M256.458 190.988H12.0958C11.5412 190.988 11.0918 190.539 11.0918 189.984C11.0918 189.43 11.5412 188.98 12.0958 188.98H256.449C257.003 188.98 257.453 189.43 257.453 189.984C257.462 190.539 257.013 190.988 256.458 190.988Z" fill="#223549"/>
<path fill-rule="evenodd" clip-rule="evenodd" d="M52.0747 37.7031H225.058C233.75 37.7031 240.797 44.7502 240.797 53.4419V109.417C240.797 118.109 233.75 125.156 225.058 125.156H52.0747C43.383 125.156 36.3359 118.109 36.3359 109.417V53.4419C36.3359 44.7502 43.383 37.7031 52.0747 37.7031Z" fill="#FDB49D"/>
<path fill-rule="evenodd" clip-rule="evenodd" d="M140.943 122.783L147.225 104.443C147.225 104.443 145.131 102.081 143.486 100.618C141.841 99.1649 140.512 97.9027 140.512 97.9027L134.909 93.5712C134.909 93.5712 132.241 91.6493 132.786 90.0907C133.331 88.5226 134.488 89.2397 134.488 89.2397C134.488 89.2397 135.875 86.5624 137.548 87.5377C139.212 88.5226 139.929 89.8325 139.929 89.8325L142.233 92.529C142.377 92.5003 153.488 95.0915 153.593 94.4987C153.708 93.8963 148.869 90.9417 150.791 87.7098C152.159 85.4054 160.2 93.8485 160.726 95.1776C161.242 96.5067 162.543 99.5378 161.826 103.41C161.109 107.292 157.494 122.773 157.494 122.773H166.406L194.852 92.5481L198.333 91.525L206.393 80.6532V79.4675C206.393 79.4675 200.054 80.4619 197.051 76.2451C194.059 72.0284 194.585 53.4019 194.585 53.4019L204.691 50.2656L217.6 53.8322L220.229 64.3598L221.166 67.1614C221.166 67.1614 221.845 68.4714 220.401 69.6188C218.958 70.7758 216.5 71.4834 216.5 71.4834L218.202 78.1097C218.202 78.1097 216.166 85.1472 212.934 85.1568C209.702 85.1663 206.986 83.034 206.986 83.034L201.976 95.3497L186.782 105.705L166.148 122.773H140.943V122.783Z" fill="white"/>
<path fill-rule="evenodd" clip-rule="evenodd" d="M212.942 65.9758C213.64 67.0849 214.214 68.0603 214.893 67.2475C215.572 66.4347 216.71 64.5606 217.953 64.5319C219.196 64.5032 219.903 65.3829 219.903 65.3829C219.903 65.3829 224.416 55.3908 220.84 50.782C217.255 46.1732 211.91 47.0338 207.932 46.5366C203.954 46.0393 195.788 44.5859 195.788 44.5859L195.96 49.4242L189.334 50.2752L194.43 55.1135L198.332 53.0768C198.332 53.0768 203.141 53.7175 207.157 53.7557C211.173 53.794 214.042 53.4211 214.29 55.2856C214.549 57.1406 212.244 64.8666 212.942 65.9758Z" fill="#EC663D"/>
<path fill-rule="evenodd" clip-rule="evenodd" d="M165.057 123.12C165.057 123.12 171.549 110.201 174.313 101.213C177.076 92.2252 182.909 87.7311 187.221 87.2052C191.533 86.6698 203.438 85.4172 203.438 85.4172C203.438 85.4172 202.013 86.9088 201.487 90.3415C200.961 93.7742 199.757 97.1209 200.808 96.289C201.86 95.4571 209.72 88.8212 209.72 88.8212C209.72 88.8212 212.407 97.2261 213.201 97.5703C213.994 97.9145 217.341 92.5599 218.383 90.265C219.425 87.9702 220.678 82.5391 220.678 82.5391L238.673 88.9073L238.759 109.111C238.759 109.111 236.904 117.889 231.712 120.49C226.52 123.091 221.777 123.712 221.777 123.712L165.057 123.12Z" fill="#EC663D"/>
<path fill-rule="evenodd" clip-rule="evenodd" d="M217.38 72.0955C217.619 73.3768 217.829 74.6772 217.906 76.1115C219.483 77.4215 220.325 79.4677 220.965 81.7052C226.052 83.4454 232.038 85.2622 237.574 87.1267C238.731 87.5188 243.034 88.2933 242.298 89.8327C241.906 90.6455 240.414 90.0622 239.678 89.8327C233.692 87.949 227.362 85.6924 221.405 83.7992C221.214 87.5666 219.464 90.2439 217.734 93.1507C217.122 94.1834 216.481 95.3021 215.639 96.5643C215.209 97.2145 213.995 99.4711 213.106 99.4519C211.91 99.4232 211.231 96.1531 210.83 95.0822C210.18 93.3228 209.577 91.8598 208.994 90.2726C206.967 91.726 204.949 93.8391 202.788 95.7802C202.339 96.1818 201.258 97.4726 200.427 97.3579C198.964 97.1475 199.948 92.9977 200.159 91.9363C200.551 89.9857 201.163 88.408 201.737 86.8685C194.986 87.6048 189.277 87.6335 184.43 89.5746C179.706 91.4678 177.335 95.5125 175.422 100.504C173.596 105.275 172.047 110.314 170.087 115.191C168.796 118.413 167.209 122.238 165.631 125.68C165.115 126.808 164.541 128.692 163.537 128.568C161.825 128.357 163.623 125.728 163.891 125.154C165.564 121.588 167.19 117.667 168.614 114.139C170.613 109.157 172.219 103.544 174.208 98.6679C176.369 93.361 179.075 89.6415 184.257 87.6526C189.421 85.6733 195.55 85.6638 202.616 84.9466C203.639 83.4932 204.452 81.8295 205.676 80.5769C199.623 80.6916 196.047 77.2971 194.575 72.2676C193.284 67.8787 193.379 63.1265 193.705 57.8484C193.743 57.179 193.982 56.3663 193.877 55.8404C193.685 54.8842 191.907 53.6985 190.989 52.7806C190.339 52.1304 188.101 50.6579 188.369 49.5487C188.713 48.1144 193.819 49.4531 195.015 49.1949C195.273 48.2961 193.724 43.8498 195.368 43.8594C197.233 43.8785 199.27 44.4713 201.134 44.7295C203.104 45.0068 205.093 45.198 207.168 45.3415C211.375 45.6379 215.668 45.3702 218.441 47.3495C223.318 50.83 223.691 58.7281 221.415 65.2684C222.916 68.5768 220.688 71.9425 217.38 72.0955ZM217.992 49.2714C215.697 47.1773 211.518 47.3399 207.674 47.1774C203.85 47.0148 199.671 46.3646 196.487 45.7813C196.305 47.1965 197.357 49.759 196.745 50.5909C195.913 51.7288 193.179 50.4284 191.591 50.763C192.136 51.4802 192.662 52.0443 193.427 52.771C193.848 53.1726 195.454 54.1957 195.617 54.693C195.837 55.3718 195.483 56.7296 195.445 57.5806C195.11 64.7233 194.948 72.4206 198.505 76.1115C200.809 78.5115 205.179 79.6398 208.64 77.6892C209.376 77.278 211.117 75.5951 211.872 75.8533C213.278 76.3314 211.796 77.5744 211.174 78.0334C210.046 78.8844 208.726 79.6494 207.588 80.2231C207.866 81.1984 208.028 82.2884 208.2 83.3689C210.256 85.4343 212.828 83.8566 214.32 82.4127C214.903 81.8486 216.567 80.2996 216.682 79.3529C216.749 78.827 216.433 78.0238 216.328 77.345C216.003 75.1649 215.773 73.0326 215.458 71.0533C216.022 70.078 217.542 70.5274 218.604 70.0015C220.191 69.227 221.09 65.4118 218.432 65.4596C217.179 65.4787 216.739 66.8078 216.07 67.2955C214.922 68.1465 212.895 68.2516 212.226 66.8556C210.83 63.9584 214.779 58.3934 213.192 55.7543C212.331 54.32 208.047 54.4443 205.322 54.4443C203.783 54.4443 202.769 54.4061 201.039 54.2722C199.891 54.1862 197.663 54.234 197.721 53.0483C197.778 51.7862 199.824 52.3407 201.134 52.4364C205.274 52.7519 211.279 52.1017 213.718 53.6603C216.844 55.6491 214.683 60.9273 214.071 63.8914C213.937 64.5417 213.67 65.4213 214.071 66.0811C214.98 66.4062 215.391 65.3066 215.993 64.7711C217.045 63.8341 218.613 63.2317 220.009 64.0731C221.711 58.6898 221.166 52.1782 217.992 49.2714ZM210.122 86.2566C208.401 86.0462 205.925 84.7841 206.364 82.757C203.984 85.6733 202.406 89.4024 201.727 94.0304C203.534 92.7204 205.456 90.7028 207.321 89.0486C207.732 88.6757 208.822 87.5188 209.415 87.5666C210.18 87.6144 210.39 88.8287 210.639 89.4885C211.585 91.9841 212.532 94.1164 213.259 96.4782C214.511 94.9961 215.573 93.0168 216.758 90.9706C218.489 87.9777 220.765 84.1721 218.508 80.3091C217.169 82.1163 214.052 86.7251 210.122 86.2566Z" fill="#223549"/>
<path fill-rule="evenodd" clip-rule="evenodd" d="M197.271 58.1919C202.74 58.1345 204.365 62.9442 202.95 68.2414C202.625 69.4462 202.185 70.7657 201.373 70.7753C200.13 70.7849 200.56 69.3697 200.847 68.4996C201.726 65.8796 202.109 61.5959 199.623 60.372C198.973 60.0469 196.668 60.1999 196.563 59.1481C196.515 58.5839 196.869 58.3258 197.271 58.1919Z" fill="#223549"/>
<path fill-rule="evenodd" clip-rule="evenodd" d="M207.588 58.449C207.951 58.3917 208.525 58.2769 208.984 58.363C209.901 58.5351 211.833 60.0745 211.431 61.3367C211.317 61.6809 210.858 61.8913 210.466 61.8626C209.672 61.8052 209.567 60.3996 208.544 60.1988C207.654 60.0267 207.129 60.763 206.45 60.5526C205.972 60.3996 205.799 59.912 205.924 59.4148C206.077 58.8506 206.89 58.5733 207.588 58.449Z" fill="#223549"/>
<path fill-rule="evenodd" clip-rule="evenodd" d="M199.717 62.1225C199.765 63.4038 200.301 66.1193 198.665 65.7942C197.413 65.5456 197.757 60.038 199.717 62.1225Z" fill="#223549"/>
<path fill-rule="evenodd" clip-rule="evenodd" d="M208.898 62.7345C209.213 63.8246 208.974 65.67 208.286 66.3202C206.173 66.9513 207.1 61.0325 208.898 62.7345Z" fill="#223549"/>
<path fill-rule="evenodd" clip-rule="evenodd" d="M217.466 66.6729C217.81 66.6155 218.499 66.453 218.604 67.2848C218.7 68.0976 216.443 69.637 215.63 69.5606C215.19 69.5127 214.865 69.1016 214.846 68.7765C214.798 68.1358 215.477 67.8681 215.984 67.5526C216.233 67.3805 216.787 66.7876 217.466 66.6729Z" fill="#223549"/>
<path fill-rule="evenodd" clip-rule="evenodd" d="M205.925 72.1815C204.826 72.4779 203.717 73.6731 202.168 73.7592C201.02 73.8165 198.572 73.1568 199.634 71.9233C200.246 71.2062 201.441 72.038 201.996 72.0094C203.535 71.9424 207.417 68.2516 207.761 71.7512C207.981 73.9791 206.098 75.6715 204.262 76.121C203.497 76.3122 202.235 76.4747 202.426 75.2508C202.588 74.2468 204.396 74.4763 205.132 73.8548C205.792 73.2811 205.677 73.0038 205.925 72.1815Z" fill="#223549"/>
<path fill-rule="evenodd" clip-rule="evenodd" d="M131.887 91.0563C131.887 90.5878 131.887 90.1192 131.887 89.6603C132.279 88.5415 133.168 87.9105 134.688 87.9105C136.256 85.9407 138.896 87.2316 140.024 88.6085C140.674 89.4117 141.2 90.9607 142.3 91.3145C142.663 91.4292 143.189 91.4005 143.61 91.4866C146.698 92.1081 149.108 92.8061 152.177 93.4085C151.641 92.6723 150.073 91.9264 149.643 90.5208C149.194 89.0579 149.662 87.5089 151.039 87.1073C152.961 86.5431 155.438 88.1399 156.547 88.9431C158.038 90.0236 159.406 91.4292 160.305 92.7009C162.265 95.4834 163.747 99.9966 162.752 104.94C162.322 107.082 161.442 109.176 160.83 111.413C159.301 116.988 158.21 122.677 157.073 128.806C156.891 129.763 156.767 131.751 155.677 131.694C154.615 131.637 154.864 130.289 155.065 129.16C156.346 121.874 158.182 113.928 159.96 107.828C160.591 105.657 161.098 103.869 161.098 101.536C161.098 96.7456 159.042 93.5041 156.375 91.2189C155.112 90.1384 153.439 88.7997 151.393 89.0292C151.163 90.8842 153.152 91.3814 154.013 92.6149C154.405 93.179 155.313 94.6324 154.539 95.4165C153.994 95.9615 152.454 95.4356 151.651 95.2444C148.955 94.6037 146.057 93.9249 143.782 93.4085C145.245 97.3384 152.158 96.6213 155.323 99.356C155.571 99.5663 159.042 103.965 156.633 104.08C155.514 104.137 155.026 101.708 154.357 101.02C152.081 98.6771 146.851 99.05 143.954 96.736C141.841 95.0531 141.745 92.4523 139.144 91.4005C139.804 96.5735 143.715 99.6333 147.272 102.416C147.979 102.97 150.781 104.5 150.159 105.734C149.567 106.919 148.371 105.361 148.065 105.648C145.159 113.813 142.022 122.123 139.058 130.298C138.743 131.168 138.284 133.406 137.136 133.272C135.692 133.1 136.878 130.556 137.136 129.868C140.33 121.329 143.543 112.676 146.669 104.338C144.269 102.196 141.429 100.494 139.68 97.6922C138.542 96.9081 137.5 95.952 136.18 95.0723C134.44 93.9153 132.355 93.246 131.887 91.0563ZM136.343 89.0483C136.534 89.9089 136.849 90.6356 137.394 91.1424C137.347 90.2244 137.911 89.9184 138.36 89.4786C137.978 89.1439 136.916 88.3503 136.343 89.0483ZM134.421 89.7463C134.315 89.9089 133.962 89.8133 133.809 89.9184C133.445 91.7161 135.119 92.2228 136.17 92.8922C135.53 91.8977 134.985 90.8173 134.421 89.7463Z" fill="#223549"/>
<path fill-rule="evenodd" clip-rule="evenodd" d="M185.815 109.942C187.097 109.674 187.03 111.73 187.297 113.26C188.292 118.844 189.238 124.17 190.271 130.041C190.568 131.743 191.763 136.122 190.443 136.332C189.21 136.533 189.277 135.089 189.047 133.798C187.833 127.048 186.638 120.364 185.548 113.69C185.318 112.265 184.524 110.209 185.815 109.942Z" fill="#223549"/>
<path fill-rule="evenodd" clip-rule="evenodd" d="M169.128 51.5391C173.393 51.5391 176.854 55.0004 176.854 59.265C176.854 63.5296 173.393 66.991 169.128 66.991C164.864 66.991 161.402 63.5296 161.402 59.265C161.402 55.0004 164.864 51.5391 169.128 51.5391Z" fill="white"/>
<path d="M169.128 51.5392C173.393 51.5392 176.854 55.0006 176.854 59.2652C176.854 63.5298 173.393 66.9912 169.128 66.9912C164.864 66.9912 161.403 63.5298 161.403 59.2652C161.403 55.0006 164.864 51.5392 169.128 51.5392ZM169.128 49.5312C163.764 49.5312 159.395 53.901 159.395 59.2652C159.395 64.6294 163.764 68.9992 169.128 68.9992C174.502 68.9992 178.862 64.6294 178.862 59.2652C178.862 53.901 174.502 49.5312 169.128 49.5312Z" fill="#223549"/>
<path fill-rule="evenodd" clip-rule="evenodd" d="M127.996 9.09375C148.553 9.09375 165.229 25.76 165.229 46.3276C165.229 66.8951 148.563 83.5614 127.996 83.5614C107.438 83.5614 90.7617 66.8951 90.7617 46.3276C90.7617 25.76 107.438 9.09375 127.996 9.09375Z" fill="#EC663D"/>
<path d="M127.996 9.09392C148.554 9.09392 165.23 25.7602 165.23 46.3277C165.23 66.8857 148.563 83.5615 127.996 83.5615C107.438 83.5615 90.7619 66.8952 90.7619 46.3277C90.7619 25.7602 107.438 9.09392 127.996 9.09392ZM127.996 7.08594C106.357 7.08594 88.7539 24.6893 88.7539 46.3277C88.7539 67.9662 106.357 85.5695 127.996 85.5695C149.634 85.5695 167.237 67.9662 167.237 46.3277C167.237 24.6893 149.634 7.08594 127.996 7.08594Z" fill="#223549"/>
<path d="M160.793 81.304C159.569 81.304 158.374 81.2657 157.236 81.1988C147.98 80.6729 136.85 78.1677 125.911 74.1422C81.3531 57.7436 60.5656 34.5944 59.7051 33.6191L60.4605 32.9497L59.9537 32.0796C60.3648 31.8406 60.8907 31.9266 61.2063 32.29C62.0573 33.2557 82.5196 56.032 126.6 72.2585C148.802 80.4338 169.924 81.6386 175.748 75.0792C177.899 72.6505 177.842 69.17 175.575 64.7333C175.327 64.2361 175.518 63.6337 176.015 63.3755C176.513 63.1269 177.115 63.3181 177.373 63.8154C180.72 70.3461 179.161 74.2665 177.258 76.4083C173.797 80.3 166.941 81.304 160.793 81.304Z" fill="#223549"/>
<path fill-rule="evenodd" clip-rule="evenodd" d="M61.9417 14.5664C72.8708 14.5664 81.7251 23.4207 81.7251 34.3499C81.7251 45.279 72.8613 54.1429 61.9417 54.1429C51.0125 54.1429 42.1582 45.2886 42.1582 34.3594C42.1582 23.4302 51.0125 14.5664 61.9417 14.5664Z" fill="white"/>
<path d="M61.9398 55.1452C50.4751 55.1452 41.1523 45.8224 41.1523 34.3578C41.1523 22.8931 50.4751 13.5703 61.9398 13.5703C73.4044 13.5703 82.7272 22.8931 82.7272 34.3578C82.7272 45.8224 73.4044 55.1452 61.9398 55.1452ZM61.9398 15.5687C51.5843 15.5687 43.1603 23.9927 43.1603 34.3482C43.1603 44.7037 51.5843 53.1277 61.9398 53.1277C72.2953 53.1277 80.7192 44.7037 80.7192 34.3482C80.7192 23.9927 72.2953 15.5687 61.9398 15.5687Z" fill="#223549"/>
<path fill-rule="evenodd" clip-rule="evenodd" d="M64.9534 16.4766C75.8826 16.4766 82.0882 25.7324 81.591 34.0512C81.4093 37.0728 83.2452 42.0258 81.7248 45.0569C78.7511 50.9757 70.6427 54.2554 63.4235 54.2554C52.4943 54.2554 45.1699 47.1796 45.1699 36.26C45.1699 25.3404 54.0242 16.4766 64.9534 16.4766Z" fill="white"/>
<path d="M61.9398 55.1452C50.4751 55.1452 41.1523 45.8224 41.1523 34.3578C41.1523 22.8931 50.4751 13.5703 61.9398 13.5703C73.4044 13.5703 82.7272 22.8931 82.7272 34.3578C82.7272 45.8224 73.4044 55.1452 61.9398 55.1452ZM61.9398 15.5687C51.5843 15.5687 43.1603 23.9927 43.1603 34.3482C43.1603 44.7037 51.5843 53.1277 61.9398 53.1277C72.2953 53.1277 80.7192 44.7037 80.7192 34.3482C80.7192 23.9927 72.2953 15.5687 61.9398 15.5687Z" fill="#223549"/>
<path fill-rule="evenodd" clip-rule="evenodd" d="M7.17138 24.0312C11.13 24.0312 14.3428 27.2632 14.3428 31.2504C14.3428 35.2377 11.13 38.4696 7.17138 38.4696C3.21278 38.4696 0 35.2377 0 31.2504C0 27.2632 3.21278 24.0312 7.17138 24.0312Z" fill="#EC663D"/>
<path fill-rule="evenodd" clip-rule="evenodd" d="M256.324 53.4141C258.714 53.4141 260.655 55.3551 260.655 57.7456C260.655 60.136 258.714 62.0771 256.324 62.0771C253.933 62.0771 251.992 60.136 251.992 57.7456C251.992 55.3551 253.933 53.4141 256.324 53.4141Z" fill="#EC663D"/>
<path d="M134.182 98.9963H96.9669C96.4123 98.9963 95.9629 98.5469 95.9629 97.9923C95.9629 97.4377 96.4123 96.9883 96.9669 96.9883H134.182C134.736 96.9883 135.186 97.4377 135.186 97.9923C135.186 98.5469 134.736 98.9963 134.182 98.9963Z" fill="white"/>
<path d="M106.213 102.895H96.9571C96.4025 102.895 95.9531 102.445 95.9531 101.891C95.9531 101.336 96.4025 100.887 96.9571 100.887H106.213C106.768 100.887 107.217 101.336 107.217 101.891C107.227 102.445 106.768 102.895 106.213 102.895Z" fill="white"/>
<path d="M134.24 106.77H96.9962C96.4416 106.77 95.9922 106.32 95.9922 105.766C95.9922 105.211 96.4416 104.762 96.9962 104.762H134.24C134.794 104.762 135.244 105.211 135.244 105.766C135.244 106.32 134.794 106.77 134.24 106.77Z" fill="white"/>
<path d="M134.315 110.707H111.988C111.434 110.707 110.984 110.258 110.984 109.703C110.984 109.149 111.434 108.699 111.988 108.699H134.315C134.87 108.699 135.319 109.149 135.319 109.703C135.329 110.258 134.879 110.707 134.315 110.707Z" fill="white"/>
<path d="M134.24 106.77H96.9962C96.4416 106.77 95.9922 106.32 95.9922 105.766C95.9922 105.211 96.4416 104.762 96.9962 104.762H134.24C134.794 104.762 135.244 105.211 135.244 105.766C135.244 106.311 134.794 106.77 134.24 106.77Z" fill="white"/>
<path d="M109.015 110.707H107.065C106.51 110.707 106.061 110.258 106.061 109.703C106.061 109.149 106.51 108.699 107.065 108.699H109.015C109.57 108.699 110.019 109.149 110.019 109.703C110.029 110.258 109.579 110.707 109.015 110.707Z" fill="white"/>
<path d="M134.326 114.531H119.553C118.998 114.531 118.549 114.082 118.549 113.527C118.549 112.973 118.998 112.523 119.553 112.523H134.326C134.88 112.523 135.33 112.973 135.33 113.527C135.33 114.082 134.88 114.531 134.326 114.531Z" fill="white"/>
<path d="M134.182 98.9963H96.9669C96.4123 98.9963 95.9629 98.5469 95.9629 97.9923C95.9629 97.4377 96.4123 96.9883 96.9669 96.9883H134.182C134.736 96.9883 135.186 97.4377 135.186 97.9923C135.186 98.5469 134.736 98.9963 134.182 98.9963Z" fill="white"/>
<path d="M134.239 102.895H111.988C111.434 102.895 110.984 102.445 110.984 101.891C110.984 101.336 111.434 100.887 111.988 100.887H134.239C134.793 100.887 135.243 101.336 135.243 101.891C135.243 102.445 134.793 102.895 134.239 102.895Z" fill="white"/>
<path d="M134.24 106.77H96.9962C96.4416 106.77 95.9922 106.32 95.9922 105.766C95.9922 105.211 96.4416 104.762 96.9962 104.762H134.24C134.794 104.762 135.244 105.211 135.244 105.766C135.244 106.32 134.794 106.77 134.24 106.77Z" fill="white"/>
<path d="M103.669 110.707H97.0431C96.4885 110.707 96.0391 110.258 96.0391 109.703C96.0391 109.149 96.4885 108.699 97.0431 108.699H103.669C104.224 108.699 104.673 109.149 104.673 109.703C104.673 110.258 104.224 110.707 103.669 110.707Z" fill="white"/>
<path d="M134.24 106.77H96.9962C96.4416 106.77 95.9922 106.32 95.9922 105.766C95.9922 105.211 96.4416 104.762 96.9962 104.762H134.24C134.794 104.762 135.244 105.211 135.244 105.766C135.244 106.311 134.794 106.77 134.24 106.77Z" fill="white"/>
<path d="M113.776 114.531H97.0528C96.4982 114.531 96.0488 114.082 96.0488 113.527C96.0488 112.973 96.4982 112.523 97.0528 112.523H113.776C114.331 112.523 114.78 112.973 114.78 113.527C114.78 114.082 114.331 114.531 113.776 114.531Z" fill="white"/>
<path fill-rule="evenodd" clip-rule="evenodd" d="M25.8945 198.857H77.1746C77.1746 198.857 74.7937 194.612 73.0152 191.638C71.2367 188.664 68.263 185.27 68.263 185.27C68.263 185.27 70.1945 184.629 73.3594 181.703C76.5244 178.777 80.7412 173.805 80.7412 173.805C80.7412 173.805 84.6424 172.505 86.6026 170.411C88.5628 168.307 90.1692 165.4 90.1692 165.4L110.125 182.468C110.125 182.468 116.684 190.328 124.812 187.899C132.939 185.47 147.99 170.497 147.99 170.497C147.99 170.497 151.126 170.678 152.407 166.337C153.688 161.987 154.683 156.249 157.418 156.575C160.152 156.9 162.935 159.787 163.107 158.439C163.279 157.091 162.351 155.561 161.156 154.959C159.961 154.356 158.068 153.142 158.861 153.257C159.665 153.371 164.254 153.792 162.935 151.134C161.615 148.476 155.381 148.59 155.381 148.59C155.381 148.59 155.505 147.5 154.109 146.726C152.713 145.942 152.493 145.54 152.493 145.54C152.493 145.54 155.62 144.9 154.358 143.418C153.105 141.935 151.011 139.966 147.99 141.974C140.254 147.118 138.055 158.697 138.055 158.697L122.096 167.695L100.018 143.838C100.018 143.838 91.6321 129.878 85.6655 129.323C83.1125 129.084 79.5938 128.252 76.4957 127.88C72.3554 127.382 68.9323 127.201 69.114 125.422C69.4295 122.305 74.2965 113.106 74.2965 113.106C74.2965 113.106 79.2209 114.359 81.2575 112.848C84.5277 110.429 86.5165 98.4099 86.5165 98.4099C86.5165 98.4099 83.7054 96.7653 82.6918 96.2872C81.6878 95.8091 80.9898 95.4362 80.9898 95.4362C80.9898 95.4362 85.3978 87.0887 81.5826 84.0576C77.7674 81.0265 66.1402 75.2894 60.3553 77.5173C54.5704 79.7548 52.7154 82.5277 52.7154 82.5277C52.7154 82.5277 44.5879 79.1046 41.0787 83.2066C37.5695 87.3086 33.6204 104.482 30.5511 108.507C27.4817 112.533 14.1238 122.84 15.9501 129.648C17.7765 136.456 22.0602 135.252 22.0602 135.252C22.0602 135.252 16.6673 145.598 20.3582 151.813C24.049 158.018 24.5176 158.353 24.5176 158.353L15.4338 174.991C15.4338 174.991 11.3318 182.745 15.2617 186.025C19.1916 189.314 24.6036 188.769 27.5773 186.79C30.5511 184.811 33.5822 180.651 33.7734 181.015C33.9742 181.378 36.0683 185.939 36.0683 185.939C36.0683 185.939 33.716 188.349 31.4786 191.122C29.2698 193.904 25.8945 198.857 25.8945 198.857Z" fill="white"/>
<path fill-rule="evenodd" clip-rule="evenodd" d="M27.0883 160.141C27.0883 160.141 13.3861 180.604 17.1535 186.465C20.9209 192.327 33.7146 180.776 33.7146 180.776C33.7146 180.776 32.0987 177.63 31.9361 173.643C31.764 169.665 32.7011 160.992 32.7011 160.992L35.6748 160.648C35.6748 160.648 34.0302 169.541 35.2541 175.249C36.6023 181.541 39.1553 185.528 39.1553 185.528H68.9404C68.9404 185.528 74.9262 182.516 77.0106 179.332C79.0856 176.148 80.9979 172.706 80.9979 172.706C80.9979 172.706 84.0768 172.973 86.2665 170.411C88.4562 167.858 90.0052 165.228 90.0052 165.228C90.0052 165.228 114.407 186.695 120.316 188.234C126.751 189.917 136.112 180.929 136.112 180.929C136.112 180.929 136.772 174.475 132.804 169.894C128.836 165.314 125.078 166.242 125.078 166.242L122.19 167.6C122.19 167.6 102.101 148.055 97.5686 141.19C93.0363 134.334 87.8633 129.218 82.7955 128.626C77.7278 128.033 68.6536 127.641 68.8735 125.317C69.0839 122.994 70.652 120.307 70.652 120.307L62.2472 119.121C62.2472 119.121 61.3483 125.92 56.2997 127.698C51.251 129.477 50.7825 130.328 50.7825 130.328L48.7458 160.132C48.7458 160.132 42.7506 161.289 40.341 161.318C37.9218 161.356 27.0883 160.141 27.0883 160.141Z" fill="#EC663D"/>
<path fill-rule="evenodd" clip-rule="evenodd" d="M29.375 198.945L77.6049 199.203C77.6049 199.203 75.7882 195.79 73.4455 192.07C71.0933 188.351 67.6702 185.195 67.6702 185.195L39.3958 185.788C39.3958 185.788 37.3878 188.456 34.7296 191.65C32.0714 194.834 29.375 198.945 29.375 198.945Z" fill="#223549"/>
<path fill-rule="evenodd" clip-rule="evenodd" d="M12.6211 181.914C12.6211 181.589 12.6211 181.273 12.6211 180.948C12.755 178.73 13.7303 176.75 14.7151 174.742C17.5168 169.044 20.3757 163.66 23.7224 158.832C21.2076 156.431 18.5877 153.592 18.3008 148.954C18.1574 146.611 18.6737 144.288 19.1805 142.137C19.6682 140.033 20.0889 137.929 21.0164 136.285C15.8912 136.304 13.9884 131.666 14.9829 126.665C15.614 123.501 17.4307 120.632 19.0945 118.624C22.7566 114.168 28.2547 111.462 31.0659 106.385C34.0014 101.097 34.8619 93.9449 37.1855 88.2938C38.2851 85.6165 39.8723 82.7001 42.2532 81.3041C44.6246 79.9081 49.6063 80.0133 52.3027 81.3041C54.3681 79.5065 56.6725 77.6706 60 76.9343C67.0375 75.3662 75.0121 78.0244 79.3149 80.9599C81.6767 82.5663 84.0194 85.0045 84.0385 88.3894C84.0576 91.1911 82.9102 93.113 81.9444 95.121C83.0727 96.6796 86.9262 96.1919 87.366 98.4389C87.6242 99.7776 86.6776 101.594 86.3142 102.895C85.1477 107.159 84.6122 112.801 80.9787 114.254C78.9994 115.048 76.4846 114.646 74.5053 114.254C73.7308 116.272 72.9468 118.155 72.0575 120.02C71.1969 121.837 70.0304 123.74 70.0495 126.054C71.3021 127.038 73.1667 127 74.7731 127.105C80.3572 127.459 85.3102 127.966 89.0202 130.251C93.6864 133.129 96.7271 138.254 100.035 142.49C106.834 151.192 114.34 159.233 122.324 166.615C127.315 163.918 132.211 161.117 137.183 158.401C137.728 152.808 140.1 148.419 143.389 144.852C145.33 142.749 149.183 139.191 153.352 141.439C154.911 142.28 156.823 144.795 154.222 145.808C154.978 145.961 155.379 147.09 156.412 147.386C157.254 147.625 158.277 147.472 159.214 147.644C161.442 148.074 164.549 149.404 164.281 152.014C164.167 153.19 163.316 154.012 161.748 153.936C162.771 154.691 164.807 156.651 163.842 158.832C163.66 159.252 163.239 159.711 162.618 159.797C160.447 160.103 159.3 157.646 157.196 158.134C155.58 158.516 154.901 161.423 154.395 163.383C153.83 165.553 153.218 167.82 152.033 169.063C150.914 170.239 149.566 170.66 148.447 171.424C147.338 172.18 146.353 173.423 145.301 174.398C142.031 177.42 138.962 180.336 135.51 183.138C131.36 186.513 125.317 191.217 117.935 188.292C115.076 187.163 112.734 185.375 110.334 183.568C103.172 178.175 97.1095 172.342 90.3206 166.615C88.3796 170 85.8074 172.763 81.8393 174.13C78.8464 179.064 74.687 182.832 69.6001 185.672C73.1858 189.582 75.997 194.105 77.9954 199.747C78.2918 200.579 78.7699 201.697 77.7372 201.841C76.8671 201.965 76.5038 200.779 76.2552 200.091C74.6488 195.769 73.0902 192.747 70.4894 189.515C69.8105 188.674 68.2232 186.475 67.2575 186.197C66.3204 185.92 64.8096 186.111 63.4997 186.111C55.7546 186.111 48.6405 185.93 41.0293 186.379C39.8054 186.456 38.0173 186.264 37.2715 186.551C36.9655 186.666 36.8986 187.058 36.5735 187.421C36.2867 187.747 35.9042 187.938 35.7034 188.119C32.2611 191.284 29.2778 194.774 26.8778 198.609C26.5145 199.182 26.2658 200.253 25.128 200.091C24.2292 198.532 25.7877 196.983 26.524 195.893C28.2738 193.321 30.1671 191.103 32.2037 188.99C33.2747 187.871 34.5464 187.058 35.3496 185.844C34.6898 184.782 34.0492 183.702 33.5998 182.43C32.9974 182.755 32.5575 183.386 32.0221 183.912C28.9527 186.982 21.7144 191.696 16.0251 188.11C14.0841 186.896 12.9749 184.897 12.6211 181.914ZM80.4528 84.3639C77.154 80.7591 68.9212 77.7662 62.2662 78.5981C58.9578 79.0093 56.0032 80.0802 54.4828 82.1838C55.2191 82.3846 55.8119 82.7193 56.3187 83.1495C56.749 84.8515 58.0303 85.6165 58.2406 87.4332C58.5849 90.3783 56.2231 91.3632 54.2247 92.415C53.9282 96.7465 53.5553 101.011 53.2589 105.352C55.6876 106.997 58.145 109.062 59.8183 111.73C60.1626 112.284 60.8797 114.292 61.5682 114.35C62.0845 114.398 62.7156 113.48 63.0502 113.04C64.3698 111.347 65.1347 109.416 65.8519 107.446C63.9395 106.069 62.9259 101.805 65.1539 100.189C65.0104 99.8636 64.8001 99.6055 64.8957 99.0509C65.3833 98.2859 66.3395 98.1999 67.0853 97.913C72.0479 95.9815 75.452 93.0843 78.2727 88.9058C78.6647 88.3225 79.2098 87.1273 79.9365 87.156C82.0018 87.2516 79.5444 90.34 79.3245 90.7416C79.8217 91.2962 80.0799 92.8452 80.7205 93.5433C82.5851 90.4452 82.5755 86.6779 80.4528 84.3639ZM52.2167 95.1114C52.3219 93.7919 52.2549 91.4588 52.6565 90.9138C52.9912 90.4548 54.3777 90.2922 54.9322 89.948C55.5633 89.556 56.3378 88.9918 56.4143 88.1982C56.5099 87.2898 56.0032 86.5153 55.6303 85.9225C55.2191 85.2723 54.7984 84.6699 54.3203 84.1727C51.4804 82.8436 46.7282 81.1894 43.3911 82.8627C39.7863 84.6699 38.1895 90.4835 36.9177 94.8341C35.7225 98.9553 34.7185 103.488 32.9018 106.901C28.9814 114.235 21.1311 116.501 17.7749 123.95C17.2299 125.155 16.7231 126.885 16.6371 128.062C16.3598 131.924 17.8132 133.98 20.9208 134.267C22.7375 134.439 24.21 133.827 24.4204 134.793C24.583 135.529 23.9901 135.797 23.4547 136.275C21.9248 137.642 21.6379 139.612 21.0929 141.955C20.7295 143.533 20.3184 145.187 20.2132 146.678C19.7447 153.716 24.5638 157.914 29.6507 159.443C34.8811 161.012 41.4596 160.447 47.4836 159.443C48.7075 138.589 50.5816 116.109 52.2167 95.1114ZM69.0933 99.223C69.7149 99.5577 70.585 100.122 71.2734 100.973C71.7611 101.566 73.2145 104.052 71.3595 103.947C70.5276 103.899 69.8296 102.092 69.2654 101.585C67.9459 100.399 66.1578 101.241 65.7658 102.455C65.2686 103.985 66.4447 105.505 67.3435 106.041C68.2328 106.566 71.2734 106.203 71.2734 107.523C71.2734 109.062 68.663 108.479 67.5156 108.135C66.2439 111.309 65.0391 115.669 61.2239 116.262C61.0709 116.951 60.851 117.572 60.698 118.27C63.8917 118.595 67.42 118.605 70.4894 119.054C70.977 117.907 71.5125 116.884 72.0671 115.555C72.3348 114.904 72.8703 112.351 73.7308 112.141C74.6583 111.921 76.0639 112.677 77.2305 112.753C81.6767 113.049 82.4225 110.602 83.35 107.159C82.6903 106.442 79.7452 105.056 79.7643 103.841C79.7739 103.382 80.252 102.885 80.7301 102.885C81.9158 102.876 82.8911 105.075 83.8759 105.247C84.3349 103.057 84.966 101.03 85.5397 98.9553C81.9923 97.7792 79.0472 96.0102 78.0241 92.3098C75.7484 95.3313 72.679 97.5305 69.0933 99.223ZM51.6047 126.321C56.5578 124.868 58.3171 120.221 59.6462 115.134C57.9633 112.131 55.9649 109.425 53.0868 107.618C52.5705 113.824 52.1593 120.144 51.6047 126.321ZM51.4326 128.415C50.8302 137.136 50.0748 147.07 49.5107 156.212C49.4246 157.636 49.6254 159.329 49.2525 160.237C48.717 161.538 46.2788 161.518 44.7106 161.719C41.3257 162.159 37.0707 162.589 33.5233 162.159C31.5727 170.354 33.2269 179.782 37.0229 184.801C45.5903 184.046 54.9705 184.276 64.1212 184.276C65.4885 184.276 67.0184 184.572 68.0511 184.362C68.6822 184.237 69.3419 183.616 69.973 183.224C73.2432 181.216 75.9014 178.969 78.1866 176.148C78.9229 175.23 79.8982 173.174 80.7205 172.562C81.495 171.989 82.5947 171.836 83.4265 171.338C85.8839 169.895 87.519 167.743 88.9342 165.305C88.284 164.463 87.4903 163.957 86.5724 163.115C86.0178 162.608 84.3732 161.566 84.6504 160.495C84.7365 160.141 85.0999 159.912 85.3485 159.883C86.0369 159.797 86.6776 160.744 87.2704 161.279C91.5254 165.142 95.6179 168.766 99.7677 172.381C104.482 176.492 109.31 181.044 114.627 184.448C117.476 186.274 120.871 187.938 124.858 186.982C128.319 186.15 130.92 184.209 133.511 182.172C137.929 178.701 141.849 174.857 145.923 171.071C146.544 170.497 147.147 169.694 147.673 169.407C148.017 169.216 148.485 169.235 148.81 169.053C149.824 168.518 150.914 167.523 151.43 166.519C153.132 163.23 152.779 157.474 156.326 156.288C157.397 155.934 158.956 156.231 159.74 156.546C160.619 156.91 161.336 157.675 162.101 157.598C161.881 155.934 160.571 155.561 159.3 154.978C157.846 154.309 155.704 153.467 154.146 154.108C153.018 154.567 152.195 156.221 151.086 156.03C150.799 155.982 150.331 155.6 150.302 155.16C150.216 153.936 152.444 152.645 153.362 152.272C154.567 151.794 155.752 152.119 157.12 152.1C157.617 152.09 158.143 151.87 158.602 151.842C160.074 151.737 161.346 152.243 162.273 151.756C162.015 150.13 159.434 149.518 157.464 149.394C154.337 149.193 152.788 150.484 151.258 152.014C150.637 152.635 149.747 154.452 148.81 154.376C148.466 154.347 147.979 153.926 147.94 153.506C147.816 152.368 149.786 150.666 150.302 150.188C151.507 149.059 152.473 148.352 153.802 147.912C151.775 145.923 149.814 147.74 148.562 149.308C147.979 150.035 147.214 152.167 146.2 152.11C144.374 151.995 146.028 149.557 146.372 149.05C146.879 148.304 147.328 147.663 147.768 147.214C148.151 144.68 150.063 143.313 153.276 143.896C152.798 142.538 150.053 142.548 148.638 143.112C147.214 143.686 146.047 144.833 144.88 146.086C142.021 149.145 140.253 152.511 139.287 157.359C139 158.812 139.143 160.792 137.365 160.505C132.909 163.067 128.396 165.582 123.816 168.02C123.73 169.177 127.268 170.181 126.876 171.778C126.799 172.084 126.484 172.342 126.178 172.39C125.422 172.505 124.112 170.994 123.376 170.296C120.775 167.829 118.04 165.534 115.86 163.125C109.425 156.039 103.286 149.987 97.5016 142.318C94.4896 138.331 91.8792 134.296 88.2361 132.001C85.9317 130.548 82.7763 129.764 79.4106 129.381C76.4942 129.046 71.3021 129.343 69.275 127.985C66.8941 126.388 68.7969 122.831 69.6288 120.814C66.4925 120.575 63.2989 120.393 60.0956 120.202C58.2789 124.017 55.898 127.258 51.4326 128.415ZM16.7327 174.838C15.8721 176.664 14.7916 178.385 14.6386 180.518C14.304 185.127 17.3638 187.813 21.81 187.421C25.3575 187.115 28.4842 184.84 30.6356 182.784C31.2093 182.239 32.6053 180.872 32.6436 180.25C32.6723 179.848 32.1464 178.978 31.9456 178.328C30.4444 173.49 30.6165 167.103 31.6874 161.891C29.23 161.518 27.0882 160.839 25.3097 159.797C22.4029 164.071 19.1614 169.684 16.7327 174.838Z" fill="#223549"/>
<path fill-rule="evenodd" clip-rule="evenodd" d="M76.78 94.853C77.7649 94.3749 78.0995 95.398 78.5298 96.163C78.9983 97.014 79.8207 98.8785 78.09 98.6108C77.4971 98.5152 75.537 95.465 76.78 94.853Z" fill="#223549"/>
</svg>
