<svg width="46" height="59" viewBox="0 0 46 59" fill="none" xmlns="http://www.w3.org/2000/svg">
<path d="M22.3549 11C18.281 10.5909 15.5509 8.30723 16.0612 7.49074C16.5418 6.72833 18.9232 6.97526 20.4243 7.41684C21.7215 7.82051 22.8956 8.46533 23.8603 9.30395C24.2997 9.68998 24.6824 10.1197 25 10.5836" stroke="#3DC47E" stroke-width="4" stroke-linecap="round" stroke-linejoin="round"/>
<path d="M35 33H7.1C5.3888 33 4 34.79 4 37C4 39.21 5.3888 41 7.1 41H35" stroke="#3DC47E" stroke-width="4" stroke-linecap="round" stroke-linejoin="round"/>
<path d="M39 41H12C10.344 41 9 42.79 9 45C9 47.21 10.344 49 12 49H39" stroke="#3DC47E" stroke-width="4" stroke-linecap="round" stroke-linejoin="round"/>
<path d="M29.9135 30C31.7583 28.0436 33.0618 25.6332 33.694 23.0096C34.844 18.1085 32.6235 15.104 29.1952 14.3333C27.9059 13.9779 26.5416 14.0121 25.2714 14.4316C24.2534 14.7717 23.3131 15.3135 22.5056 16.0252C21.8323 15.1258 20.8795 14.48 19.7996 14.1908C18.4768 13.8948 17.101 13.9439 15.8022 14.3333C12.3978 15.2023 10.1553 18.1085 11.3034 23.0096C11.9372 25.6326 13.2405 28.0426 15.0839 30" stroke="white" stroke-width="4" stroke-linecap="round" stroke-linejoin="round"/>
</svg>
