<svg width="30" height="30" viewBox="0 0 30 30" fill="none" xmlns="http://www.w3.org/2000/svg">
<g clip-path="url(#clip0)">
<path d="M0 15.0007C0 23.2854 6.71394 30 15.0007 30C23.2832 30 30 23.2854 30 15.0007C30 6.71457 23.2832 0 15.0007 0C6.71394 0 0 6.71457 0 15.0007Z" fill="#FFD110"/>
<path fill-rule="evenodd" clip-rule="evenodd" d="M3.77734 5.05173C11.0221 4.43799 18.9732 4.41412 26.2236 5.05173C23.4768 1.95216 19.4647 0 15.0005 0C10.5334 0 6.52555 1.95216 3.77734 5.05173Z" fill="#231F20"/>
<path fill-rule="evenodd" clip-rule="evenodd" d="M26.3729 24.7773C19.336 25.3237 10.9706 25.3616 3.62891 24.7773C6.37992 27.9752 10.4552 30.0004 15.0023 30.0004C19.5508 30.0004 23.6233 27.9766 26.3729 24.7773Z" fill="#231F20"/>
<path fill-rule="evenodd" clip-rule="evenodd" d="M0.491504 11.1872C10.2486 11.0144 19.7627 10.9863 29.5099 11.1872C29.8273 12.4048 29.9986 13.6814 29.9986 14.9988C29.9986 16.142 29.8708 17.2543 29.6307 18.3231C19.7599 18.6096 10.0351 18.5351 0.370734 18.3231C0.1306 17.2543 0 16.142 0 14.9988C0 13.6814 0.171324 12.4048 0.491504 11.1872Z" fill="#231F20"/>
</g>
<defs>
<clipPath id="clip0">
<rect width="30" height="30" fill="white"/>
</clipPath>
</defs>
</svg>
