<svg width="320" height="63" viewBox="0 0 320 63" fill="none" xmlns="http://www.w3.org/2000/svg">
<path d="M-91.0257 62.3242C-71.9095 62.3242 -62.9488 47.3896 -54.5855 34.8446C-47.4169 22.897 -40.8457 12.7416 -28.3007 12.7416C-15.7557 12.7416 -9.78192 22.897 -2.01599 34.8446C6.34735 47.987 15.3081 62.3242 34.4243 62.3242C53.5405 62.3242 62.5012 47.3897 70.8645 34.8447C78.0331 22.897 84.6043 12.7416 97.1493 12.7416C109.694 12.7416 115.668 22.897 123.434 34.8447C131.797 47.987 140.758 62.3242 159.874 62.3242C178.99 62.3242 187.951 47.3897 196.315 34.8447C203.483 22.897 210.054 12.7416 222.599 12.7416C234.547 12.7416 241.118 22.8971 248.884 34.8447C257.247 47.9871 266.208 62.3242 285.324 62.3242C304.44 62.3242 313.401 47.3897 321.764 34.8447C328.933 22.8971 335.504 12.7416 348.049 12.7416C359.997 12.7416 366.568 22.8971 374.334 34.8447C382.697 47.9871 391.658 62.3242 410.774 62.3242C414.359 62.3242 416.748 59.9347 416.748 56.3504C416.748 52.7661 414.359 50.3766 410.774 50.3766C398.827 50.3766 392.255 40.2211 384.489 28.2735C376.126 15.1311 367.165 0.793991 348.049 0.793989C328.933 0.793987 319.972 15.7285 311.609 28.2735C304.44 40.2211 297.869 50.3766 285.324 50.3766C272.779 50.3766 266.805 40.2211 259.04 28.2735C250.676 15.1311 241.715 0.79398 222.599 0.793978C203.483 0.793976 194.522 15.7285 186.159 28.2735C178.99 40.2211 172.419 50.3766 159.874 50.3766C147.329 50.3766 141.355 40.2211 133.59 28.2735C125.226 15.1311 116.265 0.793969 97.1493 0.793967C78.0331 0.793965 69.0724 15.7285 60.709 28.2735C53.5405 40.2211 46.9693 50.3766 34.4243 50.3766C21.8793 50.3766 15.9055 40.2211 8.13953 28.2735C-0.223812 15.1311 -9.1845 0.793958 -28.3007 0.793956C-47.4169 0.793954 -56.3777 15.7285 -64.741 28.2735C-71.9095 40.2211 -78.4807 50.3766 -91.0257 50.3766C-94.61 50.3766 -96.9995 52.7661 -96.9995 56.3504C-96.9995 59.9347 -94.61 62.3242 -91.0257 62.3242Z" fill="#F4F4F4"/>
</svg>
