<svg width="513" height="423" viewBox="0 0 513 423" fill="none" xmlns="http://www.w3.org/2000/svg">
<g clip-path="url(#clip0)">
<path d="M116.166 348.02C114.651 348.02 113.414 346.802 113.414 345.288C113.395 343.774 114.633 342.537 116.148 342.518C117.828 342.463 119.066 343.718 119.084 345.232C119.103 346.746 117.884 348.002 116.369 348.02C116.185 348.02 116.185 348.02 116.166 348.02ZM106.081 347.836C104.252 347.743 103.088 346.469 103.162 344.937C103.236 343.423 104.529 342.26 106.044 342.334C107.725 342.407 108.907 343.681 108.833 345.214C108.759 346.691 107.54 347.836 106.081 347.836ZM126.436 347.67C124.995 347.67 123.776 346.543 123.684 345.085C123.591 343.571 124.737 342.26 126.27 342.167C127.969 342.057 129.262 343.22 129.354 344.734C129.447 346.248 128.302 347.559 126.768 347.651C126.547 347.651 126.491 347.67 126.436 347.67ZM95.8478 347.079C93.8713 346.876 92.7631 345.528 92.9293 344.014C93.0956 342.5 94.4439 341.41 95.9586 341.577C97.6395 341.761 98.7477 343.109 98.5815 344.623C98.4337 346.026 97.2331 347.079 95.8478 347.079ZM136.651 346.765C135.265 346.765 134.083 345.731 133.917 344.328C133.751 342.814 134.84 341.466 136.355 341.281C138.036 341.097 139.384 342.167 139.569 343.663C139.754 345.177 138.664 346.543 137.168 346.709C136.854 346.765 136.761 346.765 136.651 346.765ZM85.6701 345.657C83.5275 345.325 82.53 343.903 82.7886 342.407C83.0472 340.912 84.4695 339.915 85.9657 340.173C87.6466 340.469 88.644 341.89 88.3854 343.386C88.1453 344.715 86.9816 345.657 85.6701 345.657ZM146.81 345.251C145.517 345.251 144.372 344.346 144.113 343.035C143.817 341.54 144.796 340.1 146.274 339.804C147.918 339.472 149.359 340.413 149.673 341.909C149.987 343.386 149.026 344.845 147.549 345.159C147.161 345.232 146.994 345.251 146.81 345.251ZM75.6218 343.534C73.3129 343.035 72.4078 341.558 72.7773 340.081C73.1467 338.604 74.6428 337.699 76.1021 338.069C77.7645 338.493 78.6511 339.989 78.2817 341.447C77.9677 342.703 76.8594 343.534 75.6218 343.534ZM156.618 343.183C155.362 343.183 154.217 342.315 153.94 341.023C153.607 339.546 154.549 338.069 156.027 337.736C157.634 337.385 159.13 338.327 159.444 339.804C159.758 341.281 158.853 342.74 157.375 343.072C157.024 343.164 156.821 343.183 156.618 343.183ZM166.703 340.967C165.447 340.967 164.32 340.1 164.025 338.826C163.692 337.348 164.616 335.871 166.094 335.539C167.682 335.188 169.197 336.093 169.529 337.588C169.862 339.066 168.975 340.543 167.497 340.875C167.11 340.949 166.906 340.967 166.703 340.967ZM65.7767 340.616C65.4811 340.616 65.1856 340.561 64.8901 340.469C63.2831 339.915 62.5257 338.345 63.0245 336.905C63.5232 335.465 65.0932 334.708 66.5155 335.207C68.1225 335.761 68.8798 337.33 68.3811 338.752C67.9932 339.896 66.9219 340.616 65.7767 340.616ZM176.752 338.696C175.514 338.696 174.369 337.847 174.073 336.573C173.722 335.096 174.646 333.619 176.123 333.268C177.804 332.899 179.282 333.822 179.615 335.299C179.947 336.776 179.023 338.253 177.546 338.586C177.176 338.659 176.955 338.696 176.752 338.696ZM56.2456 336.831C55.8577 336.831 55.4882 336.758 55.1188 336.591C53.5672 335.871 52.9577 334.247 53.5857 332.862C54.2137 331.477 55.8577 330.868 57.243 331.514C58.7761 332.216 59.3857 333.84 58.7576 335.225C58.2958 336.241 57.2984 336.831 56.2456 336.831ZM186.781 336.351C185.544 336.351 184.417 335.502 184.103 334.247C183.752 332.77 184.657 331.292 186.135 330.942C187.797 330.554 189.275 331.477 189.626 332.954C189.977 334.431 189.053 335.908 187.576 336.259C187.206 336.333 187.003 336.351 186.781 336.351ZM196.793 333.97C195.555 333.97 194.428 333.12 194.114 331.865C193.763 330.388 194.669 328.911 196.146 328.56C197.79 328.172 199.268 329.077 199.637 330.554C199.988 332.031 199.083 333.508 197.605 333.877C197.218 333.951 197.014 333.97 196.793 333.97ZM47.1393 332.123C46.659 332.123 46.1788 331.994 45.7539 331.754C44.2947 330.905 43.8514 329.206 44.6087 327.895C45.3845 326.584 47.0654 326.141 48.3768 326.917C49.8361 327.766 50.2794 329.465 49.522 330.775C49.0048 331.643 48.0813 332.123 47.1393 332.123ZM206.786 331.532C205.548 331.532 204.421 330.702 204.107 329.446C203.738 327.969 204.643 326.473 206.121 326.123C207.765 325.716 209.261 326.621 209.63 328.098C210 329.575 209.095 331.071 207.617 331.422C207.229 331.514 207.007 331.532 206.786 331.532ZM216.779 329.058C215.541 329.058 214.414 328.227 214.119 326.972C213.749 325.495 214.654 323.999 216.132 323.648C217.758 323.242 219.254 324.129 219.642 325.606C220.011 327.083 219.124 328.578 217.647 328.948C217.222 329.021 217 329.058 216.779 329.058ZM226.735 326.51C225.497 326.51 224.389 325.679 224.075 324.442C223.705 322.965 224.592 321.47 226.07 321.101C226.199 321.064 226.919 323.722 226.919 323.722L227.584 326.4C227.196 326.492 226.956 326.51 226.735 326.51ZM38.624 326.436C38.0514 326.436 37.4604 326.252 36.9616 325.883C35.5948 324.849 35.3731 323.132 36.2782 321.913C37.2018 320.713 38.9196 320.473 40.1387 321.377C41.4871 322.393 41.7272 324.11 40.8221 325.329C40.268 326.049 39.4552 326.436 38.624 326.436ZM236.69 323.907C235.471 323.907 234.345 323.095 234.031 321.839C233.643 320.362 234.529 318.866 236.007 318.479C237.632 318.054 239.129 318.922 239.535 320.38C239.923 321.839 239.055 323.353 237.596 323.741C237.152 323.889 236.912 323.907 236.69 323.907ZM246.628 321.248C245.409 321.248 244.301 320.436 243.968 319.217C243.58 317.74 244.448 316.245 245.908 315.857C247.533 315.414 249.048 316.282 249.436 317.74C249.842 319.199 248.974 320.713 247.515 321.119C247.108 321.23 246.868 321.248 246.628 321.248ZM30.8477 319.771C30.1642 319.771 29.4808 319.513 28.9452 318.996C27.7261 317.796 27.7076 316.06 28.7604 314.971C29.8318 313.881 31.5681 313.881 32.6579 314.934C33.8585 316.097 33.8954 317.832 32.8426 318.922C32.2884 319.476 31.5681 319.771 30.8477 319.771ZM256.547 318.534C255.346 318.534 254.238 317.74 253.887 316.522C253.481 315.063 254.349 313.549 255.808 313.143C257.434 312.681 258.948 313.549 259.355 315.008C259.761 316.466 258.911 317.98 257.452 318.405C257.027 318.497 256.787 318.534 256.547 318.534ZM266.429 315.746C265.228 315.746 264.12 314.952 263.788 313.734C263.381 312.275 264.231 310.761 265.69 310.336C267.297 309.875 268.83 310.724 269.255 312.183C269.68 313.641 268.83 315.174 267.371 315.58C266.928 315.709 266.688 315.746 266.429 315.746ZM276.311 312.903C275.111 312.903 274.021 312.127 273.67 310.909C273.245 309.45 274.095 307.918 275.554 307.511C277.161 307.031 278.694 307.862 279.119 309.321C279.544 310.779 278.712 312.312 277.253 312.737C276.828 312.866 276.57 312.903 276.311 312.903ZM23.9579 312.183C23.1452 312.183 22.3509 311.832 21.8153 311.149C20.7624 309.819 20.9471 308.102 22.1293 307.142C23.3114 306.182 25.0477 306.385 25.9898 307.567C27.0426 308.896 26.8579 310.613 25.6758 311.573C25.1586 311.998 24.5675 312.183 23.9579 312.183ZM286.175 309.967C284.993 309.967 283.903 309.21 283.552 308.01C283.109 306.551 283.94 305.019 285.38 304.576C287.006 304.096 288.539 304.908 288.982 306.367C289.426 307.825 288.594 309.358 287.135 309.801C286.71 309.93 286.433 309.967 286.175 309.967ZM296.001 306.957C294.838 306.957 293.748 306.2 293.379 305.037C292.917 303.579 293.729 302.046 295.17 301.585C296.796 301.086 298.347 301.898 298.791 303.339C299.234 304.797 298.421 306.33 296.98 306.773C296.556 306.921 296.279 306.957 296.001 306.957ZM305.81 303.856C304.646 303.856 303.556 303.117 303.187 301.935C302.725 300.495 303.519 298.944 304.96 298.483C306.567 297.966 308.118 298.76 308.58 300.2C309.042 301.64 308.248 303.191 306.807 303.671C306.382 303.819 306.105 303.856 305.81 303.856ZM18.0287 303.8C17.1236 303.8 16.2185 303.339 15.7198 302.508C14.8332 301.086 15.2211 299.387 16.514 298.575C17.807 297.781 19.5064 298.169 20.3006 299.461C21.1688 300.883 20.7809 302.6 19.4879 303.394C19.0446 303.671 18.5274 303.8 18.0287 303.8ZM315.581 300.68C314.436 300.68 313.364 299.96 312.976 298.815C312.496 297.375 313.272 295.824 314.713 295.325C316.338 294.79 317.89 295.565 318.37 297.006C318.85 298.446 318.074 299.997 316.615 300.477C316.172 300.624 315.876 300.68 315.581 300.68ZM325.315 297.375C324.17 297.375 323.117 296.655 322.711 295.529C322.212 294.088 322.969 292.519 324.41 292.02C326.017 291.467 327.587 292.224 328.086 293.664C328.585 295.104 327.809 296.673 326.387 297.153C325.925 297.319 325.611 297.375 325.315 297.375ZM13.2077 294.808C12.1733 294.808 11.1759 294.218 10.7141 293.221C9.99372 291.651 10.6033 290.026 11.9886 289.399C13.374 288.771 14.9994 289.362 15.6459 290.746C16.3663 292.26 15.7567 293.904 14.3899 294.55C14.002 294.716 13.5956 294.808 13.2077 294.808ZM335.013 293.959C333.886 293.959 332.833 293.257 332.427 292.131C331.909 290.71 332.648 289.122 334.089 288.605C335.677 288.032 337.266 288.771 337.783 290.211C338.3 291.633 337.562 293.221 336.121 293.738C335.641 293.904 335.327 293.959 335.013 293.959ZM344.654 290.414C343.546 290.414 342.493 289.731 342.087 288.642C341.551 287.22 342.272 285.632 343.694 285.097C345.301 284.487 346.871 285.226 347.407 286.648C347.942 288.069 347.222 289.657 345.8 290.193C345.319 290.359 344.987 290.414 344.654 290.414ZM354.259 286.74C353.151 286.74 352.117 286.075 351.692 284.986C351.138 283.564 351.84 281.976 353.262 281.422C354.814 280.813 356.421 281.496 356.975 282.899C357.529 284.303 356.845 285.909 355.442 286.463C354.924 286.666 354.592 286.74 354.259 286.74ZM9.38418 285.318C8.23896 285.318 7.16763 284.598 6.77974 283.472C6.2256 281.865 6.98292 280.315 8.42367 279.816C9.86443 279.318 11.4345 280.075 11.9332 281.515C12.4873 283.121 11.73 284.69 10.2893 285.189C9.97525 285.263 9.67971 285.318 9.38418 285.318ZM363.791 282.881C362.701 282.881 361.685 282.235 361.242 281.182C360.669 279.779 361.334 278.173 362.738 277.582C364.289 276.936 365.896 277.582 366.487 278.985C367.079 280.388 366.414 281.995 365.01 282.586C364.493 282.807 364.142 282.881 363.791 282.881ZM373.229 278.819C372.177 278.819 371.179 278.21 370.717 277.194C370.089 275.809 370.717 274.185 372.103 273.557C373.654 272.874 375.28 273.501 375.908 274.886C376.517 276.271 375.889 277.896 374.504 278.505C373.987 278.745 373.617 278.819 373.229 278.819ZM6.50267 275.477C5.2651 275.477 4.13836 274.628 3.82435 273.372C3.41799 271.747 4.32307 270.252 5.80077 269.883C7.27846 269.513 8.77463 270.418 9.12558 271.895C9.53195 273.557 8.60839 275.052 7.14916 275.403C6.94598 275.459 6.72433 275.477 6.50267 275.477ZM382.576 274.535C381.541 274.535 380.562 273.945 380.082 272.966C379.436 271.6 380.027 269.956 381.394 269.31C382.908 268.59 384.552 269.163 385.217 270.529C385.882 271.895 385.291 273.538 383.924 274.203C383.37 274.443 382.982 274.535 382.576 274.535ZM391.793 269.956C390.796 269.956 389.835 269.421 389.355 268.479C388.653 267.132 389.17 265.47 390.518 264.768C392.015 263.993 393.677 264.51 394.379 265.858C395.081 267.205 394.564 268.867 393.215 269.569C392.661 269.864 392.218 269.956 391.793 269.956ZM4.50778 265.433C3.17786 265.433 1.99571 264.454 1.79252 263.107C1.51545 261.445 2.54984 260.042 4.04601 259.802C5.54217 259.562 6.96445 260.577 7.20458 262.073C7.46317 263.771 6.44726 265.174 4.93262 265.414C4.80332 265.433 4.65555 265.433 4.50778 265.433ZM400.825 265.045C399.865 265.045 398.941 264.547 398.424 263.66C397.667 262.35 398.129 260.669 399.458 259.912C400.918 259.081 402.599 259.525 403.356 260.835C404.113 262.146 403.67 263.827 402.358 264.584C401.749 264.934 401.287 265.045 400.825 265.045ZM409.581 259.672C408.694 259.672 407.807 259.248 407.29 258.435C406.459 257.161 406.792 255.463 408.066 254.632C409.488 253.69 411.206 254.041 412.037 255.315C412.869 256.589 412.518 258.288 411.243 259.118C410.634 259.525 410.116 259.672 409.581 259.672ZM3.28869 255.278C1.86641 255.278 0.66578 254.189 0.554953 252.767C0.425655 251.068 1.5524 249.739 3.06703 249.61C4.58167 249.499 5.91159 250.625 6.02242 252.139C6.17019 253.819 5.04345 255.149 3.52881 255.278C3.45493 255.278 3.36257 255.278 3.28869 255.278ZM417.948 253.709C417.135 253.709 416.341 253.358 415.787 252.675C414.845 251.474 415.048 249.757 416.23 248.816C417.56 247.763 419.297 247.966 420.239 249.148C421.181 250.348 420.977 252.065 419.777 253.007C419.149 253.505 418.539 253.709 417.948 253.709ZM425.614 246.859C424.93 246.859 424.247 246.6 423.711 246.102C422.621 245.049 422.566 243.332 423.619 242.243C424.782 241.024 426.519 240.987 427.627 242.04C428.717 243.092 428.754 244.828 427.719 245.935C427.091 246.563 426.353 246.859 425.614 246.859ZM2.75302 245.049C1.25686 245.049 0.0377603 243.868 0.000817986 242.372C-0.0361244 240.655 1.18297 239.399 2.69761 239.381C4.24919 239.381 5.46829 240.581 5.50523 242.077C5.54217 243.757 4.34154 245.012 2.82691 245.049C2.78997 245.049 2.77149 245.049 2.75302 245.049ZM431.912 238.882C431.432 238.882 430.952 238.753 430.509 238.495C429.197 237.719 428.791 236.02 429.566 234.728C430.416 233.288 432.097 232.845 433.409 233.62C434.72 234.396 435.163 236.076 434.387 237.387C433.759 238.402 432.836 238.882 431.912 238.882ZM2.80844 234.783C1.20144 234.728 0.0192892 233.473 0.0562315 231.94C0.111645 230.241 1.36769 229.041 2.90079 229.097C4.41543 229.152 5.61606 230.408 5.56064 231.922C5.50523 233.62 4.28613 234.783 2.80844 234.783ZM436.087 229.54C435.791 229.54 435.477 229.484 435.182 229.392C433.741 228.894 432.984 227.324 433.501 225.884C434.037 224.315 435.588 223.539 437.029 224.019C438.47 224.499 439.245 226.069 438.747 227.509C438.285 228.82 437.232 229.54 436.087 229.54ZM3.38104 224.555C1.60781 224.407 0.49954 223.059 0.628838 221.545C0.795079 219.846 2.14347 218.739 3.65811 218.886C5.17275 219.034 6.28102 220.382 6.13325 221.896C5.98548 223.484 4.78485 224.555 3.38104 224.555ZM438.691 219.625C436.715 219.329 435.717 217.889 435.976 216.394C436.29 214.695 437.731 213.717 439.227 213.993C440.723 214.27 441.702 215.711 441.425 217.206C441.166 218.683 440.003 219.625 438.691 219.625ZM5.19122 214.51C2.99315 214.012 2.14347 212.498 2.53137 211.039C2.99315 209.396 4.50778 208.528 5.96701 208.953C7.42623 209.359 8.27591 210.873 7.86954 212.35C7.51859 213.717 6.41032 214.51 5.19122 214.51ZM439.947 209.433C438.229 209.322 437.084 207.993 437.195 206.479C437.306 204.817 438.599 203.672 440.114 203.765C441.628 203.857 442.792 205.168 442.681 206.682C442.589 208.344 441.388 209.433 439.947 209.433ZM8.75616 204.946C8.36826 204.946 7.96189 204.854 7.574 204.688C6.20713 204.042 5.61606 202.398 6.26255 201.032C6.96445 199.537 8.62686 198.946 9.99372 199.592C11.3606 200.238 11.9517 201.863 11.3052 203.229C10.7695 204.355 9.77207 204.946 8.75616 204.946ZM440.132 199.186C438.654 199.186 437.435 198.022 437.38 196.545C437.343 194.81 438.544 193.554 440.058 193.517C441.554 193.48 442.829 194.681 442.884 196.195C442.94 197.856 441.757 199.13 440.243 199.186C440.206 199.186 440.169 199.186 440.132 199.186ZM13.8727 196.102C13.337 196.102 12.8013 195.936 12.3211 195.622C11.0651 194.754 10.751 193.056 11.6007 191.8C12.5797 190.397 14.279 190.083 15.5351 190.951C16.7726 191.819 17.0867 193.536 16.2185 194.773C15.609 195.696 14.7408 196.102 13.8727 196.102ZM439.393 188.957C438.008 188.957 436.826 187.923 436.659 186.52C436.475 184.84 437.565 183.473 439.061 183.307C440.557 183.141 441.924 184.23 442.108 185.744C442.293 187.424 441.203 188.791 439.707 188.957C439.596 188.957 439.504 188.957 439.393 188.957ZM20.2268 188.089C19.5618 188.089 18.9153 187.849 18.3796 187.387C17.2529 186.372 17.1605 184.636 18.1765 183.51C19.3032 182.255 21.058 182.162 22.1847 183.178C23.3114 184.193 23.4038 185.929 22.3879 187.055C21.7229 187.775 20.9841 188.089 20.2268 188.089ZM27.4859 180.851C26.7286 180.851 25.9898 180.538 25.4356 179.947C24.4197 178.82 24.5121 177.085 25.6388 176.069C26.8764 174.943 28.6311 175.017 29.6471 176.143C30.663 177.269 30.5891 179.005 29.4623 180.021C28.7974 180.611 28.1509 180.851 27.4859 180.851ZM437.915 178.802C436.604 178.802 435.44 177.86 435.2 176.531C434.886 174.888 435.884 173.466 437.38 173.189C438.876 172.912 440.317 173.891 440.594 175.386C440.889 177.085 439.892 178.507 438.396 178.783C438.229 178.802 438.063 178.802 437.915 178.802ZM35.3731 174.278C34.5604 174.278 33.7477 173.909 33.1935 173.207C32.27 172.007 32.4731 170.272 33.6738 169.349C35.0222 168.315 36.74 168.536 37.682 169.736C38.6056 170.936 38.3839 172.672 37.1833 173.595C36.5553 174.094 35.9642 174.278 35.3731 174.278ZM435.736 168.776C434.498 168.776 433.372 167.927 433.058 166.671C432.651 165.065 433.538 163.57 435.016 163.182C436.493 162.812 437.989 163.699 438.359 165.176C438.765 166.856 437.86 168.333 436.382 168.702C436.179 168.758 435.958 168.776 435.736 168.776ZM43.6667 168.222C42.7985 168.222 41.9304 167.798 41.3947 167.022C40.5266 165.767 40.8591 164.05 42.1151 163.2C43.5004 162.24 45.2183 162.554 46.0864 163.791C46.9545 165.047 46.6405 166.745 45.403 167.613C44.738 168.075 44.2023 168.222 43.6667 168.222ZM52.2373 162.572C51.3322 162.572 50.4271 162.129 49.9099 161.298C49.0972 160.025 49.4666 158.307 50.7596 157.495C52.2004 156.59 53.8997 156.978 54.7124 158.252C55.5252 159.544 55.1373 161.243 53.8443 162.037C53.2532 162.443 52.736 162.572 52.2373 162.572ZM433.002 158.898C431.82 158.898 430.73 158.141 430.379 156.96C429.881 155.353 430.693 153.802 432.134 153.359C433.593 152.916 435.126 153.728 435.57 155.169C436.068 156.793 435.256 158.326 433.796 158.787C433.538 158.843 433.261 158.898 433.002 158.898ZM60.9926 157.2C60.0691 157.2 59.1455 156.72 58.6283 155.87C57.8341 154.578 58.2589 152.879 59.5519 152.104C61.0111 151.217 62.7105 151.661 63.4862 152.953C64.262 154.264 63.8372 155.944 62.5257 156.72C61.9716 157.07 61.4729 157.2 60.9926 157.2ZM69.8219 151.956C68.8798 151.956 67.9563 151.457 67.4391 150.59C66.6818 149.279 67.1251 147.599 68.4365 146.823C69.8773 145.974 71.5582 146.398 72.3339 147.709C73.1097 149.02 72.6849 150.7 71.3734 151.476C70.7639 151.845 70.3021 151.956 69.8219 151.956ZM429.714 149.168C428.588 149.168 427.535 148.485 427.128 147.377C426.537 145.771 427.276 144.201 428.698 143.684C430.121 143.167 431.709 143.887 432.226 145.328C432.817 146.915 432.079 148.485 430.656 149.02C430.361 149.113 430.028 149.168 429.714 149.168ZM78.7065 146.768C77.7645 146.768 76.8409 146.288 76.3237 145.401C75.5479 144.09 75.9912 142.41 77.3027 141.635C78.7619 140.785 80.4428 141.21 81.2186 142.521C81.9944 143.832 81.5511 145.512 80.2396 146.288C79.6485 146.657 79.1683 146.768 78.7065 146.768ZM87.5357 141.524C86.6122 141.524 85.6886 141.044 85.1714 140.195C84.3772 138.902 84.802 137.204 86.095 136.41C87.5357 135.542 89.2166 135.948 90.0109 137.24C90.8051 138.533 90.3988 140.232 89.1058 141.026C88.4962 141.395 88.016 141.524 87.5357 141.524ZM425.946 139.622C424.875 139.622 423.84 138.976 423.397 137.924C422.732 136.391 423.397 134.766 424.782 134.176C426.186 133.585 427.793 134.231 428.384 135.616C429.049 137.204 428.384 138.81 426.981 139.401C426.648 139.548 426.297 139.622 425.946 139.622ZM96.2541 136.096C95.349 136.096 94.4624 135.653 93.9452 134.84C93.1325 133.566 93.5019 131.868 94.7764 131.037C96.1987 130.114 97.8981 130.483 98.7293 131.775C99.542 133.049 99.1726 134.748 97.8981 135.579C97.27 135.948 96.7528 136.096 96.2541 136.096ZM104.788 130.372C103.92 130.372 103.07 129.966 102.534 129.209C101.648 127.972 101.943 126.255 103.199 125.368C104.603 124.39 106.321 124.685 107.189 125.941C108.057 127.178 107.762 128.895 106.506 129.763C105.878 130.206 105.323 130.372 104.788 130.372ZM421.716 130.261C420.7 130.261 419.721 129.689 419.241 128.729C418.502 127.159 419.075 125.516 420.442 124.87C421.809 124.224 423.453 124.796 424.117 126.162C424.856 127.658 424.284 129.301 422.935 129.966C422.547 130.169 422.123 130.261 421.716 130.261ZM112.989 124.224C112.176 124.224 111.382 123.873 110.846 123.19C109.904 122.008 110.089 120.272 111.271 119.331C112.583 118.278 114.319 118.445 115.261 119.626C116.221 120.808 116.037 122.543 114.855 123.485C114.208 124.021 113.599 124.224 112.989 124.224ZM417.061 121.122C416.083 121.122 415.122 120.586 414.623 119.663C413.829 118.205 414.309 116.524 415.658 115.804C416.988 115.084 418.669 115.564 419.389 116.894C420.202 118.426 419.684 120.088 418.354 120.789C417.93 121.011 417.486 121.122 417.061 121.122ZM120.71 117.466C119.99 117.466 119.269 117.189 118.734 116.635C117.681 115.546 117.699 113.81 118.807 112.739C120.045 111.558 121.8 111.595 122.834 112.702C123.887 113.81 123.832 115.546 122.723 116.598C122.095 117.208 121.393 117.466 120.71 117.466ZM411.982 112.204C411.04 112.204 410.135 111.724 409.618 110.875C408.749 109.434 409.156 107.736 410.467 106.96C411.76 106.185 413.46 106.591 414.235 107.883C415.122 109.342 414.697 111.041 413.386 111.816C412.961 112.075 412.462 112.204 411.982 112.204ZM127.674 109.97C127.064 109.97 126.436 109.767 125.937 109.342C124.755 108.382 124.589 106.646 125.549 105.465C126.602 104.154 128.339 103.969 129.521 104.929C130.703 105.889 130.888 107.625 129.927 108.788C129.262 109.619 128.486 109.97 127.674 109.97ZM406.514 103.526C405.628 103.526 404.741 103.101 404.224 102.289C403.282 100.886 403.633 99.1686 404.889 98.3378C406.145 97.4884 407.863 97.8393 408.713 99.0948C409.655 100.516 409.304 102.215 408.048 103.064C407.549 103.378 407.032 103.526 406.514 103.526ZM133.547 101.587C133.067 101.587 132.605 101.458 132.162 101.218C130.851 100.443 130.407 98.7624 131.183 97.4515C132.033 95.9929 133.714 95.5498 135.025 96.3068C136.337 97.0638 136.78 98.744 136.023 100.055C135.413 101.107 134.489 101.587 133.547 101.587ZM400.641 95.0882C399.809 95.0882 398.978 94.7005 398.443 93.9804C397.427 92.5772 397.685 90.86 398.923 89.9738C400.16 89.0875 401.878 89.346 402.765 90.5831C403.762 91.9125 403.504 93.6296 402.285 94.5528C401.786 94.922 401.213 95.0882 400.641 95.0882ZM137.888 92.3556C137.574 92.3556 137.26 92.3002 136.965 92.1894C135.542 91.6724 134.785 90.103 135.302 88.6629C135.856 87.075 137.426 86.3365 138.867 86.835C140.308 87.3335 141.047 88.9029 140.548 90.3431C140.068 91.654 139.015 92.3556 137.888 92.3556ZM394.36 86.9458C393.566 86.9458 392.772 86.6134 392.236 85.9487C391.146 84.6009 391.331 82.8653 392.513 81.9237C393.695 80.982 395.432 81.1667 396.374 82.3483C397.427 83.6223 397.26 85.3579 396.097 86.3365C395.598 86.7427 394.988 86.9458 394.36 86.9458ZM141.508 82.773C141.139 82.773 140.77 82.6992 140.419 82.5514C139.015 81.9606 138.368 80.3358 138.978 78.9326C139.661 77.3632 141.268 76.7354 142.672 77.3263C144.058 77.9356 144.704 79.5419 144.094 80.9451C143.596 82.1452 142.58 82.773 141.508 82.773ZM387.729 79.1357C386.972 79.1357 386.233 78.8218 385.679 78.231C384.534 76.957 384.645 75.2214 385.771 74.2059C386.898 73.1904 388.634 73.3012 389.65 74.4275C390.777 75.683 390.685 77.4186 389.558 78.4341C389.041 78.8957 388.376 79.1357 387.729 79.1357ZM146.015 73.5597C145.554 73.5597 145.11 73.4489 144.686 73.2089C143.356 72.4703 142.875 70.7902 143.614 69.4608C144.408 68.0022 146.089 67.5037 147.419 68.2237C148.749 68.9438 149.248 70.624 148.509 71.9534C147.918 73.0427 146.976 73.5597 146.015 73.5597ZM380.692 71.658C379.99 71.658 379.269 71.381 378.734 70.8456C377.533 69.6454 377.552 67.8914 378.623 66.839C379.694 65.7681 381.449 65.7681 382.52 66.8574C383.721 68.0576 383.703 69.8116 382.631 70.864C382.096 71.3995 381.394 71.658 380.692 71.658ZM151.428 64.8449C150.892 64.8449 150.338 64.6787 149.857 64.3464C148.601 63.4786 148.306 61.7615 149.174 60.5244C150.171 59.1212 151.889 58.8258 153.127 59.6936C154.364 60.5614 154.66 62.2785 153.792 63.534C153.164 64.4387 152.296 64.8449 151.428 64.8449ZM373.285 64.5679C372.62 64.5679 371.973 64.3279 371.438 63.8663C370.182 62.7216 370.089 60.986 371.105 59.8597C372.121 58.7335 373.857 58.6596 374.984 59.6751C376.24 60.8014 376.333 62.537 375.317 63.6632C374.781 64.2541 374.042 64.5679 373.285 64.5679ZM365.508 57.9026C364.899 57.9026 364.308 57.6995 363.791 57.3118C362.461 56.2224 362.276 54.5053 363.218 53.3236C364.179 52.142 365.896 51.9573 367.078 52.9174C368.39 53.9514 368.593 55.687 367.633 56.8871C367.115 57.5333 366.303 57.9026 365.508 57.9026ZM157.745 56.7394C157.098 56.7394 156.47 56.5178 155.953 56.0747C154.808 55.0777 154.66 53.3606 155.657 52.2158C156.766 50.9418 158.502 50.8126 159.647 51.8096C160.792 52.8067 160.922 54.5422 159.943 55.687C159.315 56.4071 158.52 56.7394 157.745 56.7394ZM357.344 51.6988C356.79 51.6988 356.236 51.5327 355.756 51.1819C354.37 50.2033 354.093 48.4862 354.961 47.2491C355.848 46.0121 357.566 45.7167 358.803 46.6029C360.189 47.5815 360.466 49.2986 359.598 50.5356C359.044 51.2927 358.194 51.6988 357.344 51.6988ZM164.893 49.4278C164.154 49.4278 163.415 49.1324 162.88 48.5416C161.845 47.4338 161.919 45.6797 163.027 44.6642C164.283 43.5195 166.02 43.5933 167.054 44.7012C168.089 45.8274 167.996 47.563 166.888 48.5785C166.223 49.1878 165.558 49.4278 164.893 49.4278ZM348.811 46.0121C348.312 46.0121 347.813 45.8828 347.351 45.5874C345.929 44.7012 345.523 43.0025 346.317 41.7101C347.111 40.4176 348.811 40.0114 350.103 40.8054C351.563 41.7101 351.951 43.4087 351.138 44.7012C350.621 45.5505 349.734 46.0121 348.811 46.0121ZM172.817 42.8733C171.967 42.8733 171.136 42.504 170.601 41.7655C169.696 40.5469 169.936 38.8482 171.155 37.9435C172.503 36.928 174.221 37.1865 175.145 38.4051C176.05 39.6237 175.809 41.3408 174.59 42.2455C173.981 42.6886 173.408 42.8733 172.817 42.8733ZM339.926 40.9161C339.501 40.9161 339.058 40.8238 338.651 40.6023C337.137 39.7899 336.62 38.1281 337.34 36.7988C338.06 35.4509 339.723 34.9524 341.053 35.654C342.53 36.4295 343.066 38.0912 342.364 39.4391C341.865 40.3807 340.923 40.9161 339.926 40.9161ZM181.351 37.2604C180.409 37.2604 179.485 36.7803 178.968 35.894C178.192 34.5831 178.636 32.903 179.947 32.1275C181.388 31.2782 183.087 31.7028 183.863 33.0137C184.639 34.3246 184.214 36.0048 182.902 36.7803C182.311 37.1311 181.831 37.2604 181.351 37.2604ZM330.69 36.448C330.321 36.448 329.951 36.3741 329.582 36.2079C328.03 35.5248 327.402 33.9184 328.012 32.5152C328.622 31.1305 330.247 30.4842 331.632 31.0935C333.184 31.7767 333.83 33.4015 333.221 34.7862C332.759 35.8387 331.762 36.448 330.69 36.448ZM321.159 32.6814C320.864 32.6814 320.568 32.626 320.273 32.5337C318.647 31.9613 317.908 30.3919 318.407 28.9518C318.906 27.5116 320.476 26.7731 321.916 27.2716C323.505 27.8255 324.262 29.3764 323.764 30.8166C323.376 31.9613 322.304 32.6814 321.159 32.6814ZM190.439 32.5152C189.404 32.5152 188.407 31.9244 187.945 30.9089C187.317 29.5241 187.908 27.8993 189.293 27.2531C190.808 26.5515 192.452 27.1423 193.098 28.5086C193.745 29.8749 193.154 31.5182 191.787 32.1644C191.214 32.4414 190.827 32.5152 190.439 32.5152ZM311.351 29.6718C309.024 29.1549 308.137 27.6593 308.506 26.1822C308.894 24.7051 310.39 23.8373 311.868 24.2066C313.531 24.6497 314.399 26.1638 314.011 27.6224C313.678 28.8594 312.57 29.6718 311.351 29.6718ZM199.951 28.6563C198.825 28.6563 197.753 27.9547 197.347 26.8284C196.848 25.3883 197.587 23.8189 199.028 23.3204C200.616 22.748 202.186 23.505 202.704 24.9267C203.221 26.3484 202.463 27.9363 201.041 28.4348C200.561 28.6009 200.247 28.6563 199.951 28.6563ZM301.395 27.2531C299.123 26.81 298.199 25.3329 298.532 23.8558C298.864 22.3787 300.342 21.4371 301.82 21.7879C303.464 22.1572 304.406 23.6158 304.073 25.1113C303.796 26.3669 302.651 27.2531 301.395 27.2531ZM209.741 25.6468C208.522 25.6468 207.395 24.8344 207.081 23.5973C206.693 22.1202 207.58 20.6247 209.058 20.237C210.683 19.8123 212.198 20.6801 212.586 22.1387C212.973 23.5973 212.105 25.1113 210.628 25.4991C210.203 25.6098 209.981 25.6468 209.741 25.6468ZM291.347 25.1483C289.167 24.779 288.188 23.3573 288.465 21.8617C288.742 20.3662 290.183 19.3876 291.679 19.6646C293.342 19.9785 294.339 21.4186 294.043 22.9142C293.803 24.2251 292.64 25.1483 291.347 25.1483ZM281.224 23.4311C279.137 23.1542 278.103 21.751 278.324 20.2554C278.546 18.7599 279.95 17.7074 281.446 17.9475C283.127 18.206 284.161 19.6092 283.94 21.1047C283.737 22.4526 282.573 23.4311 281.224 23.4311ZM219.752 23.4127C218.441 23.4127 217.296 22.4895 217.056 21.1601C216.779 19.6646 217.776 18.2429 219.272 17.9659C220.916 17.6521 222.357 18.6491 222.634 20.1262C222.911 21.6217 221.932 23.0619 220.436 23.3388C220.085 23.4127 219.919 23.4127 219.752 23.4127ZM271.047 22.1387C269.07 21.9541 267.981 20.5878 268.128 19.0738C268.295 17.5597 269.643 16.4704 271.158 16.6181C272.839 16.8027 273.947 18.1506 273.781 19.6646C273.633 21.0863 272.432 22.1387 271.047 22.1387ZM229.912 21.9356C228.526 21.9356 227.344 20.9016 227.178 19.4984C227.012 17.9844 228.101 16.6366 229.616 16.4519C231.297 16.2673 232.664 17.3566 232.83 18.8522C232.996 20.3662 231.906 21.714 230.41 21.8987C230.115 21.9356 230.004 21.9356 229.912 21.9356ZM260.832 21.2709C258.967 21.1601 257.822 19.8492 257.914 18.3352C258.006 16.8212 259.318 15.658 260.832 15.7503C262.513 15.8426 263.677 17.1351 263.585 18.6491C263.492 20.1446 262.273 21.2709 260.832 21.2709ZM240.126 21.1232C238.667 21.1232 237.448 19.9785 237.374 18.5014C237.3 16.9874 238.464 15.6949 239.978 15.6211C241.678 15.5287 242.971 16.7104 243.045 18.2244C243.118 19.7384 241.955 21.0309 240.44 21.1047C240.218 21.1232 240.182 21.1232 240.126 21.1232ZM250.562 20.9201C248.844 20.9016 247.625 19.6646 247.625 18.1506C247.625 16.6366 248.863 15.418 250.378 15.418C252.114 15.4364 253.333 16.692 253.296 18.206C253.296 19.7015 252.077 20.9201 250.562 20.9201Z" fill="#F7C154"/>
<path fill-rule="evenodd" clip-rule="evenodd" d="M385.439 2.05078H261.7C250.968 2.05078 242.25 10.7656 242.25 21.5114V93.9254C242.25 104.653 250.95 113.349 261.7 113.349C261.7 113.349 266.004 113.349 273.355 113.349C276.773 113.349 264.157 136.835 264.766 136.373C265.394 135.912 295.022 113.349 300.434 113.349C358.877 113.349 385.439 113.349 385.439 113.349C396.17 113.349 404.87 104.653 404.87 93.9254V21.4929C404.889 10.7471 396.189 2.05078 385.439 2.05078Z" fill="#F5F5F5"/>
<path d="M264.712 138.975L263.455 137.96C262.163 136.889 262.384 136.427 264.545 131.996C266.208 128.617 270.825 119.108 271.749 115.379H261.701C249.861 115.379 240.219 105.741 240.219 93.9056V21.4916C240.219 9.63798 249.861 0 261.701 0H385.439C397.279 0 406.921 9.63798 406.921 21.4916V93.9056C406.921 105.741 397.279 115.379 385.439 115.379H300.435C298.218 115.416 286.563 122.45 266.208 137.849L264.712 138.975ZM261.701 4.08045C252.114 4.08045 244.301 11.8905 244.301 21.4916V93.9056C244.301 103.488 252.114 111.298 261.701 111.298H273.356C274.261 111.298 275.055 111.741 275.536 112.498C276.625 114.234 276.071 117.317 270.124 129.836C282.739 120.53 296.297 111.298 300.435 111.298H385.439C395.026 111.298 402.839 103.507 402.839 93.9056V21.4916C402.839 11.8905 395.026 4.08045 385.439 4.08045H261.701Z" fill="#223549"/>
<path fill-rule="evenodd" clip-rule="evenodd" d="M398.313 235.061C387.36 222.284 357.843 177.731 357.843 177.731C357.843 177.731 357.713 157.163 358.729 150.572C359.745 143.98 367.706 130.631 370.44 126.79C373.174 122.95 369.941 115.952 366.894 115.085C363.827 114.198 349.309 137.444 349.309 137.444C349.309 137.444 351.821 125.11 353.391 118.463C354.98 111.798 355.257 107.681 352.32 104.616C349.383 101.551 343.435 105.317 343.435 105.317C343.435 105.317 341.773 99.7413 337.746 99.2798C333.719 98.8366 328.64 125.11 327.975 128.028C327.31 130.963 324.595 128.378 324.595 128.378C324.595 128.378 323.135 99.9629 320.863 96.7872C318.591 93.6114 314.306 95.2362 313.937 101.754C313.567 108.272 314.121 146.823 314.121 146.823C314.121 146.823 308.026 143.758 305.237 142.208C302.448 140.657 301.469 132.551 297.423 131.388C293.378 130.225 292.307 137.038 294.93 144.515C297.553 151.993 319.072 183.64 329.545 205.205C340.018 226.771 350.842 268.738 350.842 268.738L323.856 280.795C323.856 280.795 260.758 241.486 247.514 207.328C242.305 193.887 243.248 170.955 243.248 170.955C243.248 170.955 247.662 166.136 248.032 160.486C248.401 154.837 242.176 151.088 242.176 151.088C242.176 151.088 242.97 143.777 232.054 121.27C225.349 107.459 205.548 99.6306 187.668 100.498C176.511 101.089 168.088 106.056 157.744 112.075C130.961 127.64 131.294 168.887 128.264 186.428C125.254 203.987 115.852 211.243 95.7736 222.819C75.6955 234.378 64.2988 249.979 63.0981 271.268C61.916 292.556 86.3534 305.167 86.3534 305.167C86.3534 305.167 58.4249 349.387 48.1919 379.003C37.9589 408.618 55.6727 417.222 67.9006 418.755C80.1286 420.287 107.983 415.339 128.264 410.058C148.546 404.796 171.949 389.287 171.949 389.287L165.909 419.641H297.46C297.46 419.641 291.032 377.415 290.885 376.695C290.755 375.975 293.729 358.951 293.729 358.951L394.933 315.47C395.635 315.119 421.033 276.419 421.033 276.419C421.033 276.419 409.266 247.838 398.313 235.061ZM152.591 363.198L124.182 364.97L139.458 336.389L149.931 345.436L152.96 354.834L152.591 363.198Z" fill="white"/>
<path fill-rule="evenodd" clip-rule="evenodd" d="M124.2 364.433C124.2 364.433 135.098 350.659 138.405 336.221C138.719 334.854 134.655 330.46 134.323 329.112C130.905 315.707 131.57 306.383 133.251 301.601C135.819 294.364 138.423 299.441 137.518 306.568C136.724 312.79 139.347 321.893 144.149 328.466C148.97 335.094 153.717 337.79 154.752 339.212C157.411 342.923 155.989 349.865 155.989 349.865C155.989 349.865 164.874 326.786 173.925 319.529C182.976 312.273 189.958 312.292 194.871 314.378C199.784 316.465 201.428 316.612 200.375 318.994C199.323 321.376 189.884 320.213 186.171 323.259C182.458 326.306 178.358 331.42 178.358 331.42C178.358 331.42 186.337 324.995 195.758 328.226C205.178 331.438 209.611 333.913 209.611 333.913C209.611 333.913 214.007 337.162 214.044 343.68C214.081 350.179 212.622 348.702 208.891 346.523C205.178 344.344 199.951 342.313 197.18 343.68C194.409 345.046 192.026 346.874 192.026 346.874C192.026 346.874 198.399 348.443 201.428 356.457C204.458 364.47 204.845 373.498 201.613 372.963C198.381 372.428 191.805 356.106 185.451 358.414C180.26 360.297 178.967 373.314 177.637 378.65C176.308 383.986 170.36 390.005 170.36 390.005L171.542 391.371L292.51 391.777L290.552 378.816C290.552 378.816 286.045 290.117 286.119 289.194C286.193 288.271 281.335 245.897 281.335 245.897L267.315 238.438C267.315 238.438 227.288 255.073 195.222 258.674C163.156 262.256 131.312 259.209 131.312 259.209C131.312 259.209 118.049 264.25 109.128 276.417C99.1534 290.006 88.7541 312.993 76.4523 335.334C53.1417 377.708 49.1889 397.243 55.3213 407.748C57.4824 411.441 63.0423 415.928 70.0613 417.516C83.0465 420.433 92.0789 416.629 92.0789 416.629C92.0789 416.629 84.8752 405.256 88.6987 388.417C92.4668 371.855 109.645 365.873 109.645 365.873L124.2 364.433Z" fill="#F7C154"/>
<path fill-rule="evenodd" clip-rule="evenodd" d="M231.962 230.63C231.962 230.63 225.719 230.612 223.078 226.365C220.436 222.137 218.645 210.21 218.645 210.21C218.645 210.21 231.26 201.661 233.735 190.86C236.211 180.077 237.282 174.889 237.282 174.889L242.602 172.766C242.602 172.766 242.214 195.439 247.755 208.437C254.312 223.78 271.195 235.062 271.195 235.062L232.664 230.28L231.962 230.63Z" fill="#FFBF1E"/>
<path fill-rule="evenodd" clip-rule="evenodd" d="M242.082 153.061C241.048 153.08 234.454 155.905 234.454 155.905C234.454 155.905 231.221 145.196 225.052 138.327C218.864 131.477 211.734 125.901 211.734 125.901C211.734 125.901 175.66 146.636 171.596 166.724C167.533 186.813 168.586 192.093 168.586 192.093L172.483 191.558C172.483 191.558 175.032 196.931 178.523 200.254C182.014 203.578 187.574 209.301 187.574 209.301C187.574 209.301 195.72 229.981 188.811 234.504C181.903 239.028 150.207 244.936 138.57 248.352C126.915 251.767 116.552 257.399 108.203 268.939C99.8543 280.478 90.4525 297.502 90.4525 297.502C90.4525 297.502 77.3195 294.64 71.6303 279.758C67.0679 267.794 66.9941 253.023 88.3283 235.926C109.644 218.829 128.928 213.954 134.839 188.548C140.749 163.142 141.47 135.373 156.505 121.286C173.887 105.001 193.836 101.548 212.972 109.21C220.157 112.091 229.097 115.968 233.382 122.523C242.6 136.666 242.784 153.061 242.082 153.061Z" fill="#F7C154"/>
<path fill-rule="evenodd" clip-rule="evenodd" d="M150.634 422.319C148.916 422.319 147.199 422.319 145.481 422.319C148.75 416.724 151.595 410.687 153.83 404.04C136.892 410.225 118.605 415.764 98.4347 419.124C78.3011 422.485 50.5759 423.999 45.7179 405.646C43.0396 395.546 45.9211 383.637 48.5625 375.126C56.9484 348.021 73.24 328.948 84.0641 304.853C70.4878 298.65 60.7165 287.996 60.9936 269.717C61.4 242.816 81.238 230.575 97.7328 219.146C103.459 215.176 109.37 211.52 114.412 206.72C119.806 201.605 123.223 196.694 125.421 188.625C127.379 181.388 128.136 172.341 129.319 163.423C131.609 146.307 136.301 131.887 144.945 120.846C153.331 110.1 165.984 102.124 181.869 99.5572C190.938 98.0986 199.768 98.8187 207.433 101.33C227.474 107.903 239.905 122.581 243.286 145.513C243.563 147.452 243.286 150.443 243.988 152.086C244.449 153.138 246.37 153.859 247.183 154.929C249.4 157.81 250.748 163.349 248.605 167.872C247.94 169.294 245.89 170.586 245.41 172.137C245.059 173.264 245.336 174.999 245.225 176.569C243.637 201.753 252.41 216.081 264.214 227.86C305.958 222.561 328.345 244.053 348.719 262.461C339.761 241.08 333.721 216.653 322.268 195.217C314.289 180.261 303.963 166.524 296.169 151.034C294.248 147.212 289.408 138.921 291.551 133.29C292.419 131.019 294.488 129.08 297.591 129.394C302.615 129.893 303.557 136.964 306.291 140.399C307.787 142.263 309.486 142.965 311.444 144.128C312.183 135.764 312.035 126.348 311.629 117.338C311.297 110.229 309.394 96.2707 314.64 93.5565C318.667 91.4702 323.007 95.2183 324.226 98.3386C327.016 105.484 323.802 118.796 325.649 126.2C327.348 120.735 328.013 115.251 329.546 109.878C330.747 105.742 332.889 97.9509 337.359 97.2862C343.455 96.363 345.579 103.933 345.173 109.878C344.859 114.568 343.713 118.778 342.679 123.892C342.31 125.702 341.792 128.305 341.257 130.816C340.684 133.567 340.019 136.041 337.71 135.617C335.254 135.155 336.491 131.721 337.008 129.228C337.636 126.2 338.006 123.818 338.431 121.769C339.705 115.713 342.864 105.706 338.431 101.717C334.958 105.299 333.573 111.577 332.224 117.688C331.578 120.55 331.172 123.301 330.266 126.736C329.712 128.84 328.659 133.438 326 133.659C322.878 133.918 321.714 130.077 321.216 127.086C320.68 123.911 320.68 119.701 320.68 116.267C320.68 108.937 322.564 99.2248 316.949 97.4523C315.212 100.536 315.563 104.856 315.711 108.807C316.136 120.883 317.023 133.918 315.896 145.716C321.326 148.449 324.725 151.458 327.44 157.422C328.198 159.102 332.483 168.168 327.976 168.242C325.445 168.279 325.316 164.346 324.596 162.204C323.672 159.434 322.767 157.533 321.585 155.816C317.152 149.464 307.473 149.058 302.763 143.039C300.417 140.029 299.66 135.93 296.723 133.807C294.155 136.392 296.316 139.955 297.258 142.319C298.348 145.107 299.715 147.784 300.99 150.129C309.209 165.324 318.944 178.987 326.738 194.128C337.304 214.696 343.88 238.182 352.838 260.855C361.39 264.751 373.969 266.431 382.669 262.276C391.11 258.233 395.267 250.441 397.409 240.453C388.875 224.057 376.777 210.191 366.341 195.383C362.923 190.527 358.564 185.247 356.569 179.763C354.944 175.295 356.108 168.279 355.867 162.906C355.572 156.757 355.239 151.089 356.569 146.399C357.788 142.134 360.208 138.183 362.609 134.509C365.269 130.428 371.494 122.914 366.507 118.538C363.274 122.304 360.781 126.625 357.641 130.964C356.237 132.884 354.833 134.693 353.023 137.001C352.044 138.238 349.938 142.43 347.519 141.968C344.434 141.396 346.392 136.872 346.983 134.509C349.218 125.665 351.176 117.688 352.303 108.42C351.028 106.629 347.611 107.903 347.149 105.576C346.226 100.868 353.706 103.453 354.962 104.505C358.601 107.607 356.071 114.66 354.962 119.59C354.131 123.227 353.429 126.809 352.654 129.874C354.593 128.139 356.403 124.963 358.509 121.713C360.744 118.279 363.829 111.983 368.797 114.79C370.792 115.916 373.84 119.239 372.695 125.074C371.882 129.228 369.167 132.773 367.19 135.727C365.103 138.848 362.831 141.913 361.335 146.011C358.952 152.566 360.744 160.764 360.448 168.371C360.319 171.694 360.005 175.405 360.633 177.603C361.667 181.277 364.863 185.8 367.209 189.142C374.634 199.759 383.279 210.542 390.464 220.549C398.905 232.292 406.737 247.598 412.482 262.073C413.202 263.92 415.178 267.649 412.131 268.111C409.471 268.517 409.194 265.452 408.4 263.495C405.98 257.476 402.932 251.309 400.586 246.287C397.852 254.946 392.976 262.387 384.96 266.338C376.869 270.327 363.921 270.05 355.147 266.338C358.139 274.259 361.206 281.866 364.549 289.769C365.306 291.56 368.151 296.526 365.436 297.394C362.517 298.336 362.092 295.105 361.169 292.963C359.248 288.458 357.788 284.987 356.015 280.722C355.129 278.58 354.538 276.216 353.522 274.333C352.247 271.914 349.31 269.607 347.131 267.243C340.629 260.153 332.815 253.599 325.298 248.263C317.614 242.797 308.6 237.609 298.496 234.415C295.337 233.418 290.166 231.645 287.321 231.922C285.289 232.126 281.595 234.71 278.972 236.003C259.374 245.622 237.467 254.134 213.824 258.898C187.872 264.123 154.014 263.717 127.01 259.784C125.126 259.507 122.798 258.713 121.505 258.898C120.471 259.045 118.273 261.021 116.721 262.443C106.414 271.951 99.1366 285.061 92.764 297.763C84.9507 313.31 77.3037 327.139 68.9732 341.596C61.049 355.333 52.3306 370.805 49.6154 389.86C47.953 401.639 50.3357 409.985 58.5 413.641C65.87 416.927 77.747 417.056 88.8481 415.764C86.8163 409.32 85.0985 402.433 85.6526 394.291C86.5577 380.646 96.2736 372.947 103.939 366.263C102.258 365.469 97.4927 366.3 97.1971 363.42C96.8277 359.893 100.707 360.89 103.237 361.297C107.43 361.961 111.143 362.552 115.299 362.884C117.238 363.051 120.748 363.586 121.875 363.235C123.297 362.792 124.941 358.472 125.957 356.662C130.279 348.944 133.604 343.276 137.852 336.075C134.195 330.85 131.646 324.185 130.575 316.209C130.205 313.421 129.688 309.709 132.532 309.82C134.306 309.894 134.601 311.851 134.841 314.085C135.488 320.197 136.836 325.33 139.108 329.521C143.153 336.998 150.985 339.916 154.365 347.615C157.358 339.823 160.701 331.939 166.076 324.905C171.082 318.35 177.344 312.165 187.022 311.426C193.58 310.928 200.876 312.387 202.113 317.279C202.945 320.547 201.19 322.855 199.269 323.852C196.184 325.477 191.899 324.019 188.445 324.923C186.561 325.403 185.452 326.234 184.178 327.582C188.315 325.939 193.081 325.773 197.496 326.862C202.52 328.118 207.71 330.629 209.927 333.786C213.843 335.484 217.685 339.731 217.555 345.141C217.518 346.969 216.706 349.074 215.246 349.757C210.943 351.751 206.103 345.695 201.042 345.492C199.066 345.418 197.662 345.935 195.187 346.729C199.971 350.883 207.359 357.493 207.267 367.131C207.23 369.827 206.436 372.135 204.958 373.335C199.62 377.711 195.741 370.399 193.783 367.131C192.176 364.435 189.368 360.226 185.785 360.743C182.552 361.204 181.758 369.051 181.001 372.633C179.763 378.32 178.692 381.976 176.919 385.41C172.837 393.294 166.649 397.264 159.168 401.381C157.173 409.228 153.941 415.819 150.634 422.319ZM224.482 116.396C216.152 108.752 202.335 101.588 186.321 103.435C154.938 107.072 139.164 129.284 134.472 159.342C132.865 169.663 132.569 180.446 129.669 190.583C124.387 209.083 108.428 216.856 94.1678 226.956C80.6469 236.538 65.3528 247.949 65.4082 270.253C65.4636 286.888 74.8839 295.769 86.0036 300.588C96.4767 282.143 104.013 263.827 122.392 252.675C135.192 244.902 153.83 241.819 171.396 238.477C177.048 237.406 184.492 236.723 187.189 233.159C191.862 226.974 187.521 216.173 185.951 210.098C180.613 206.332 176.088 201.328 172.633 195.9C172.172 195.18 171.876 193.592 170.509 193.943C171.082 201.698 170.047 210.043 167.849 215.416C166.723 218.167 165.614 220.733 163.767 223.577C162.677 225.257 160.128 229.965 157.561 229.245C153.516 228.137 158.891 222.709 159.519 221.786C163.878 215.25 166.316 208.548 165.91 198.189C165.633 191.026 165.411 184.785 166.261 179.024C167.129 173.153 168.607 168.131 170.879 163.404C178.027 148.596 191.437 136.023 204.958 126.68C206.842 125.369 209.742 123.043 211.534 123.135C213.51 123.246 216.502 126.68 218.276 128.453C225.738 135.912 232.388 143.593 235.842 153.822C236.821 152.898 238.594 152.788 239.573 151.864C238.317 136.337 233.496 124.686 224.482 116.396ZM177.436 195.014C181.389 200.941 186.21 206 193.063 208.677C204.422 213.145 215.985 209.748 222.709 203.525C232.813 194.201 235.029 178.563 232.646 161.115C230.522 145.55 220.474 137.02 211.515 128.102C201.652 134.084 192.065 142.097 184.88 150.461C184.547 150.849 183.698 151.569 183.993 152.234C187.595 152.104 194.614 151.754 194.466 155.428C194.3 159.25 188.371 156.037 184.344 156.499C181.684 156.794 180.779 158.013 178.84 158.456C173.649 166.395 169.567 176.384 170.14 189.512C174.831 188.293 175.663 192.337 177.436 195.014ZM245.244 162.536C245.207 159.804 243.84 156.499 241.512 156.333C239.518 156.185 237.984 157.773 236.71 158.825C237.319 162.887 237.874 167.005 237.948 171.602C240.958 170.106 245.299 167.429 245.244 162.536ZM237.966 177.086C237.301 193.647 230.541 204.079 220.215 210.985C221.915 216.358 221.305 222.58 224.648 226.069C227.77 229.338 234.475 229.799 240.441 229.799C246.832 229.799 253.075 228.95 258.728 228.562C247.479 217.041 238.686 199.814 240.792 175.498C239.776 176.181 238.446 176.199 237.966 177.086ZM191.64 213.274C194.319 221.121 194.559 232.587 189.516 237.221C185.526 240.896 178.747 241.616 171.95 242.908C156.157 245.881 138.018 248.613 127.213 255.334C153.627 259.101 185.877 259.987 211.183 254.983C236.267 250.017 258.598 241.154 278.289 231.387C261.701 230.722 236.47 238.994 223.614 230.852C218.331 227.51 217.555 220.457 216.152 213.108C209.41 215.914 198.05 215.822 191.659 212.757C191.64 212.923 191.64 213.108 191.64 213.274ZM188.796 320.104C191.271 319.846 197.477 321.046 197.662 318.867C197.773 317.667 195.519 316.707 194.282 316.375C185.545 314.011 178.581 318.424 174.407 322.412C165.854 330.536 160.572 342.39 156.841 355.425C156.379 356.995 155.511 362.423 154.532 363.401C152.999 364.971 147.734 365.118 144.594 365.709C135.691 367.371 126.308 368.183 116.555 367.666C114.56 367.556 112.288 366.817 110.866 367.131C109.499 367.426 107.227 369.697 105.712 370.861C100.374 374.941 95.8672 379.538 92.9303 385.244C88.7927 393.257 89.7532 406.643 93.4659 415.062C115.742 411.167 131.554 407.769 150.099 400.328C158.688 396.876 166.63 392.869 171.396 385.964C173.871 382.382 175.404 377.674 176.365 373.187C177.584 367.426 178.156 359.118 182.94 356.865C189.645 353.69 194.706 360.336 196.96 363.955C198.345 366.189 199.435 369.033 201.929 369.808C203.628 364.38 200.82 359.155 197.847 355.444C195.039 351.935 190.126 348.021 184.529 348.871C181.592 349.314 179.32 353.099 176.9 352.6C176.143 352.434 175.312 351.585 175.293 350.477C175.256 348.206 178.6 346.193 181.149 345.159C183.587 344.162 186.727 343.996 189.313 344.624C192.601 342.851 196.424 340.82 200.857 340.894C205.752 340.987 209.391 343.941 212.938 345.326C212.734 341.264 210.721 339.214 208.32 337.866C198.622 332.438 186.561 338.309 180.28 343.184C178.323 344.698 175.145 348.797 172.818 348.335C172.116 348.187 171.285 347.449 171.23 346.378C171.119 344.532 174.185 342.131 175.663 340.876C181.426 336.02 188.205 332.696 195.907 331.109C184.547 329.428 178.101 335.946 172.652 341.762C171.507 342.981 169.752 346.101 167.683 345.843C166.944 345.75 166.076 345.086 165.91 344.236C165.411 341.725 168.533 339.436 169.807 338.032C171.858 335.798 173.446 334.451 175.127 333.066C177.861 327.656 181.481 320.861 188.796 320.104ZM148.325 345.658C146.46 343.645 142.729 341.024 140.863 339.454C136.504 347.393 131.757 354.945 127.545 363.051C136.06 362.755 143.523 361.389 150.8 359.856C152.389 355.684 150.708 348.224 148.325 345.658Z" fill="#223549"/>
<path fill-rule="evenodd" clip-rule="evenodd" d="M206.9 181.164C203.409 175.736 200.453 172.007 201.044 164.123C201.82 153.82 208.507 148.705 218.611 147.967C221.418 147.764 224.152 147.764 224.3 149.924C224.318 150.183 224.226 151.53 222.877 152.047C221.843 152.454 220.716 152.158 219.497 152.232C210.465 152.675 204.517 157.716 205.478 168.018C205.607 169.329 205.902 170.529 206.364 171.748C207.676 175.256 211.296 177.619 211.333 180.98C211.37 183.509 208.765 188.107 205.829 187.017C203.113 186.002 205.662 182.494 206.9 181.164Z" fill="#223549"/>
<path fill-rule="evenodd" clip-rule="evenodd" d="M197.495 196.249C198.308 197.154 199.859 197.985 202.279 198.557C204.569 199.093 208.43 198.594 208.485 201.216C208.578 205.703 198.806 202.213 197.126 201.401C194.983 200.367 187.761 194.902 190.55 191.117C191.436 189.916 193.413 189.99 194.817 190.415C196.073 190.784 199.434 192.76 203.517 193.074C206.712 193.314 211.404 191.744 211.496 195.031C211.588 197.893 206.878 197.69 203.867 197.523C200.709 197.32 200.044 196.822 197.495 196.249Z" fill="#223549"/>
<path fill-rule="evenodd" clip-rule="evenodd" d="M306.662 422.32C305 422.32 303.356 422.32 301.693 422.32C296.762 412.239 292.015 401.272 289.798 387.719C288.228 378.1 288.32 366.043 288.376 354.707C288.394 350.829 288.191 346.656 288.911 343.536C289.41 341.413 291.442 339.049 292.458 337.332C296.226 330.907 299.2 324.482 300.807 316.044C302.469 307.274 300.53 297.71 298.147 290.49C297.445 288.385 295.339 284.102 298.332 283.566C300.881 283.105 301.878 287.296 302.599 289.419C303.651 292.54 304.298 295.512 304.723 297.58C308.214 314.142 302.949 327.953 297.094 338.385C296.244 339.88 293.529 343.278 293.197 344.773C292.846 346.232 293.067 348.337 293.012 350.275C292.624 363.329 292.606 377.232 294.434 388.07C296.725 401.77 301.897 412.664 306.662 422.32Z" fill="black"/>
<path d="M501.825 423.002H46.437C45.3103 423.002 44.3867 422.098 44.3867 420.953C44.3867 419.827 45.2918 418.922 46.437 418.922H501.825C502.952 418.922 503.876 419.827 503.876 420.953C503.857 422.079 502.952 423.002 501.825 423.002Z" fill="#223549"/>
<path fill-rule="evenodd" clip-rule="evenodd" d="M214.931 160.227C216.963 159.84 218.921 161.169 219.308 163.2L220.01 166.874C220.398 168.905 219.068 170.881 217.055 171.269C215.023 171.656 213.065 170.327 212.677 168.296L211.975 164.622C211.569 162.591 212.899 160.615 214.931 160.227Z" fill="#223549"/>
<path fill-rule="evenodd" clip-rule="evenodd" d="M181.722 166.485C183.735 166.097 185.693 167.427 186.081 169.439L186.783 173.095C187.171 175.108 185.841 177.065 183.828 177.453C181.814 177.84 179.856 176.511 179.468 174.498L178.766 170.843C178.379 168.812 179.709 166.873 181.722 166.485Z" fill="#223549"/>
<path fill-rule="evenodd" clip-rule="evenodd" d="M155.346 392.387H357.753C365.105 392.387 371.071 398.35 371.071 405.699V415.466C371.071 417.423 369.482 419.011 367.525 419.011H145.593C143.635 419.011 142.047 417.423 142.047 415.466V405.699C142.047 398.35 147.995 392.387 155.346 392.387Z" fill="#F5F5F5"/>
<path d="M367.524 421.041H145.593C142.508 421.041 139.996 418.53 139.996 415.446V405.679C139.996 397.223 146.886 390.336 155.346 390.336H357.753C366.213 390.336 373.102 397.223 373.102 405.679V415.446C373.102 418.53 370.59 421.041 367.524 421.041ZM155.346 394.416C149.139 394.416 144.078 399.475 144.078 405.679V415.446C144.078 416.277 144.762 416.96 145.593 416.96H367.524C368.355 416.96 369.039 416.277 369.039 415.446V405.679C369.039 399.475 363.978 394.416 357.771 394.416H155.346Z" fill="black"/>
<path fill-rule="evenodd" clip-rule="evenodd" d="M242.527 227.934H459.304C471.071 227.934 480.602 237.461 480.602 249.222V357.529C480.602 369.291 471.071 378.818 459.304 378.818H242.527C230.761 378.818 221.211 369.291 221.211 357.529V249.222C221.211 237.461 230.761 227.934 242.527 227.934Z" fill="white"/>
<path fill-rule="evenodd" clip-rule="evenodd" d="M248.125 231.863H464.903C476.669 231.863 486.2 241.39 486.2 253.152V361.404C486.2 373.165 476.669 382.692 464.903 382.692H248.125C236.359 382.692 226.828 373.165 226.828 361.404V253.152C226.81 241.39 236.341 231.863 248.125 231.863Z" fill="#F5F5F5"/>
<path d="M459.305 380.885H242.527C229.653 380.885 219.18 370.417 219.18 357.547V249.24C219.18 236.371 229.653 225.902 242.527 225.902H459.305C472.179 225.902 482.652 236.371 482.652 249.24V357.547C482.652 370.417 472.179 380.885 459.305 380.885ZM242.527 229.983C231.906 229.983 223.262 238.624 223.262 249.24V357.547C223.262 368.164 231.906 376.805 242.527 376.805H459.305C469.926 376.805 478.57 368.164 478.57 357.547V249.24C478.57 238.624 469.926 229.983 459.305 229.983H242.527Z" fill="#223549"/>
<path fill-rule="evenodd" clip-rule="evenodd" d="M330.988 356.367H374.562V410.853H330.988V356.367Z" fill="#F5F5F5"/>
<path d="M374.561 412.883H330.988C329.861 412.883 328.938 411.978 328.938 410.833V356.347C328.938 355.221 329.843 354.316 330.988 354.316H374.561C375.688 354.316 376.593 355.221 376.593 356.347V410.833C376.612 411.978 375.688 412.883 374.561 412.883ZM333.038 408.802H372.529V358.397H333.038V408.802Z" fill="black"/>
<path fill-rule="evenodd" clip-rule="evenodd" d="M276.535 400.457H423.177C430.233 400.457 435.959 406.181 435.959 413.234C435.867 416.446 433.484 418.828 430.547 418.828H268.98C266.043 418.828 263.66 416.446 263.66 413.511C263.734 406.181 269.46 400.457 276.535 400.457Z" fill="#F5F5F5"/>
<path d="M430.547 420.878H268.979C264.916 420.878 261.609 417.573 261.609 413.511C261.886 404.888 268.462 398.426 276.516 398.426H423.158C431.323 398.426 437.991 405.073 437.991 413.252C437.714 417.757 434.481 420.878 430.547 420.878ZM265.71 413.787C265.858 415.468 267.262 416.797 268.979 416.797H430.547C432.357 416.797 433.835 415.32 433.835 413.511C433.761 407.159 428.995 402.506 423.177 402.506H276.534C270.605 402.506 265.784 407.325 265.784 413.252C265.784 413.418 265.765 413.603 265.71 413.787Z" fill="#223549"/>
<path fill-rule="evenodd" clip-rule="evenodd" d="M442.903 297.708C438.008 296.711 425.854 282.623 434.388 268.61C442.922 254.577 448.057 258.344 452.674 249.445C457.292 240.545 452.582 227.694 458.53 223.171C464.477 218.666 474.84 215.176 478.94 210.745C483.041 206.314 496.617 196.528 503.803 208.788C510.969 221.048 506.795 226.937 503.267 230.796C499.739 234.655 487.529 238.662 484.98 242.871C482.431 247.063 483.761 262.517 479.827 267.354C475.893 272.21 468.449 270.087 463.849 278.008C459.232 285.928 459.361 289.677 453.912 294.329C448.463 298.982 447.798 298.705 442.903 297.708Z" fill="white"/>
<path fill-rule="evenodd" clip-rule="evenodd" d="M448.149 296.765C443.254 295.768 431.082 281.68 439.616 267.648C448.149 253.615 453.303 257.382 457.92 248.464C462.538 239.565 457.828 226.695 463.776 222.19C469.724 217.667 480.104 214.196 484.205 209.764C488.324 205.333 501.9 195.547 509.067 207.807C516.253 220.067 512.06 225.957 508.532 229.816C505.004 233.675 492.776 237.681 490.227 241.891C487.678 246.082 489.007 261.536 485.073 266.392C481.139 271.248 473.695 269.125 469.096 277.046C464.478 284.966 464.589 288.715 459.14 293.386C453.709 298.057 453.044 297.78 448.149 296.765Z" fill="#F7C154"/>
<path fill-rule="evenodd" clip-rule="evenodd" d="M323.024 314.105H376.683C388.449 314.105 397.98 323.633 397.98 335.394V345.032C397.98 356.793 388.449 366.32 376.683 366.32H323.024C311.258 366.32 301.727 356.793 301.727 345.032V335.394C301.708 323.633 311.258 314.105 323.024 314.105Z" fill="#F5F5F5"/>
<path d="M376.663 368.369H323.004C310.129 368.369 299.656 357.9 299.656 345.031V335.393C299.656 322.524 310.129 312.055 323.004 312.055H376.663C389.537 312.055 400.01 322.524 400.01 335.393V345.031C400.01 357.9 389.537 368.369 376.663 368.369ZM323.022 316.135C312.401 316.135 303.757 324.776 303.757 335.393V345.031C303.757 355.647 312.401 364.288 323.022 364.288H376.681C387.302 364.288 395.947 355.647 395.947 345.031V335.393C395.947 324.776 387.302 316.135 376.681 316.135H323.022Z" fill="#223549"/>
<path fill-rule="evenodd" clip-rule="evenodd" d="M443.657 299.978C441.644 309.709 440.369 320.528 439.926 332.456C439.797 335.89 440.591 342.02 437.802 342.223C434.385 342.463 435.53 335.447 435.678 332.29C436.177 321.784 436.823 313.217 438.338 303.893C438.633 302.12 439.354 300.181 439.224 298.741C439.113 297.486 435.641 293.959 434.606 292.538C432.999 290.34 431.356 287.663 430.524 285.448C427.218 276.53 430.912 267.889 435.142 262.737C437.174 260.245 440.185 257.974 443.306 255.814C446.096 253.875 449.771 251.715 451.12 248.724C453.853 242.631 450.953 232.088 453.78 226.715C456.347 221.859 463.791 220.197 468.52 217.317C476.351 212.535 478.974 203.783 489.466 201.697C493.53 200.884 498.314 202.195 500.826 203.82C505.794 207.033 509.544 214.252 508.99 222.099C508.676 226.493 507.161 230.112 503.836 233.103C498.701 237.719 489.189 239.473 486.086 245.179C482.336 252.065 485.993 263.162 480.766 268.775C477.127 272.671 469.683 272.837 466.377 276.936C463.385 280.647 462.775 286.518 460.171 290.95C456.864 296.581 451.489 298.815 443.657 299.978ZM454.5 291.282C458.342 287.608 459.081 279.484 462.48 274.776C463.791 272.966 465.823 271.471 467.633 270.511C470.865 268.812 475.668 268.092 477.755 265.544C479.824 263.033 479.676 258.048 479.879 253.653C480.046 249.961 480.932 245.345 482.188 243C486.547 234.913 499.016 234.045 502.95 227.029C507.198 219.477 502.839 208.879 496.374 206.442C489.133 203.709 483.814 208.695 480.397 212.295C476.037 216.892 472.195 220.696 465.841 223.465C462.867 224.758 459.155 226.272 457.862 228.432C455.682 232.014 457.012 238.052 456.624 243.701C455.904 254.244 448.386 257.18 442.42 261.796C438.615 264.731 435.105 268.941 433.905 274.573C432.889 279.244 434.329 283.49 436.029 286.629C437.285 288.937 438.67 291.3 440.647 292.667C444.378 278.339 448.201 264.713 458.748 257.346C462.073 255.02 467.762 253.506 469.757 250.422C473.193 245.105 470.662 237.258 473.839 230.555C476 225.995 480.877 222.985 485.735 221.157C487.434 220.511 491.664 218.979 491.775 222.044C491.867 224.333 485.735 225.94 484.682 226.475C482.059 227.786 479.51 229.595 478.291 231.626C474.67 237.627 476.998 247.708 473.322 253.099C470.958 256.552 466.432 257.715 462.498 260.023C458.564 262.331 456.199 265.562 453.983 269.255C449.328 276.936 446.816 285.152 444.581 295.344C448.294 294.753 452.154 293.516 454.5 291.282Z" fill="#223549"/>
<path fill-rule="evenodd" clip-rule="evenodd" d="M429.808 276.216C437.787 277.915 461.19 276.456 463.314 259.783C465.439 243.129 457.736 237.609 459.085 232.42C460.451 227.214 477.205 219.256 475.727 197.986C474.877 185.781 463.536 184.212 464.866 173.614C466.214 163.016 480.603 152.012 477.851 134.767C475.099 117.54 455.095 113.958 445.139 118.352C435.183 122.747 428.977 131 431.895 143.611C434.813 156.221 437.362 159.637 432.634 164.087C427.905 168.555 417.986 175.959 418.577 184.932C419.187 193.905 431.23 206.571 430.159 211.778C429.069 216.985 410.579 239.75 411.761 252.564C412.925 265.378 421.81 274.536 429.808 276.216Z" fill="white"/>
<path fill-rule="evenodd" clip-rule="evenodd" d="M435.037 275.274C443.035 276.972 466.438 275.514 468.562 258.841C470.686 242.187 462.965 236.666 464.332 231.46C465.699 226.253 482.471 218.295 480.975 197.007C480.125 184.802 468.765 183.233 470.114 172.635C471.462 162.037 485.87 151.014 483.099 133.769C480.347 116.524 460.324 112.942 450.368 117.337C440.412 121.731 434.187 129.984 437.124 142.595C440.043 155.205 442.592 158.621 437.863 163.089C433.135 167.557 423.197 174.961 423.807 183.935C424.416 192.908 436.459 205.592 435.388 210.781C434.298 215.987 415.79 238.753 416.972 251.585C418.154 264.436 427.039 273.575 435.037 275.274Z" fill="#F7C154"/>
<path fill-rule="evenodd" clip-rule="evenodd" d="M454.244 114.031C455.611 114.031 456.959 114.031 458.326 114.031C471.496 115.324 479.771 127.159 479.624 141.542C479.513 153.82 474.23 160.209 469.335 167.28C467.728 169.588 465.567 172.764 465.604 175.626C465.659 179.743 469.778 184.322 472.18 187.682C474.581 191.08 477.278 195.511 477.684 200.81C478.7 213.974 471.884 221.471 465.438 227.434C463.627 229.096 460.561 231.349 460.469 233.638C460.34 236.758 463.738 240.045 465.087 243.036C466.527 246.249 467.266 250.348 466.86 255.277C465.567 271.175 453.228 279.612 435.625 278.874C434.776 291.244 432.965 303.264 431.007 314.712C430.527 317.481 430.306 324.719 426.574 323.759C424.893 323.334 425.521 320.934 425.872 319.143C428.403 305.904 430.158 292.592 431.192 278.505C429.77 276.787 427.756 275.938 425.872 274.96C419.98 271.839 414.845 267.943 411.853 261.998C407.087 252.563 410.763 240.34 414.697 232.9C416.674 229.151 419.13 225.477 421.79 221.729C424.025 218.59 428.274 214.122 427.83 209.488C427.609 207.143 425.762 205.13 424.284 203.284C419.98 197.93 415.288 191.597 417.006 181.626C417.893 176.475 421.088 172.339 424.118 169.034C426.907 165.969 432.023 162.627 432.818 158.03C433.298 155.242 431.894 152.048 430.86 149.149C429.899 146.435 428.939 143.665 428.735 140.803C428.034 131.036 432.374 125.349 437.62 121.103C442.09 117.447 447.354 114.825 454.244 114.031ZM457.975 267.002C461.873 262.017 464.015 251.899 460.82 244.827C459.084 240.968 455.205 237.848 456.036 232.937C456.461 230.407 458.696 228.154 460.469 226.363C466.177 220.658 472.512 216.024 473.251 205.777C473.879 196.97 469.871 192.095 466.324 187.332C463.757 183.879 460.635 180.371 461.171 174.906C461.762 169.016 466.657 164.529 469.686 159.821C472.641 155.223 475.209 148.817 475.19 141.542C475.172 135.467 473.214 129.725 470.573 126.106C467.266 121.564 461.688 117.761 453.524 118.481C443.66 119.349 433.963 126.956 433.113 136.04C432.3 144.792 437.639 149.204 437.38 156.627C437.084 165.249 427.812 169.588 423.711 175.976C420.239 181.386 420.867 189.178 423.711 194.422C425.909 198.484 431.044 202.121 432.06 207.549C432.614 210.503 431.839 213.328 430.823 215.544C425.725 226.437 413.035 235.429 413.959 251.917C414.587 263.143 422.658 268.553 431.709 272.67C432.836 261.906 429.751 254.724 428.865 246.23C427.923 237.072 432.411 230.019 436.142 224.942C437.786 222.708 439.763 220.271 441.813 217.667C443.697 215.267 446.006 212.147 446.246 209.155C446.689 203.838 443.679 199.868 441.628 196.194C438.821 191.19 434.868 184.525 437.011 177.38C440.502 165.785 451.972 160.375 452.803 145.253C452.988 141.911 451.584 134.987 455.297 135.32C457.163 135.486 457.255 138.311 457.255 141.007C457.255 155.15 452.101 161.427 446.431 169.034C444.288 171.914 441.647 174.943 440.926 179.152C439.947 184.968 443.623 189.861 445.71 193.701C447.761 197.431 450.291 201.548 450.679 206.294C451.381 214.916 445.396 219.624 441.444 224.573C438.063 228.801 434.831 233.527 433.63 239.306C432.134 246.526 435.053 252.729 435.755 259.007C436.272 263.604 436.216 268.35 435.939 274.443C445.932 274.849 453.616 272.559 457.975 267.002Z" fill="#223549"/>
<path fill-rule="evenodd" clip-rule="evenodd" d="M423.195 298.464C412.445 300.015 393.438 291.817 391.794 283.786C390.169 275.754 397.446 254.742 393.327 246.914C389.227 239.085 375.022 235.522 374.025 226.549C373.046 217.575 379.769 206.479 387.564 205.796C395.359 205.112 417.617 212.849 418.707 227.619C419.796 242.39 415.788 255.795 420 259.598C424.229 263.42 435.848 280.111 433.668 288.272C431.507 296.433 433.945 296.913 423.195 298.464Z" fill="white"/>
<path fill-rule="evenodd" clip-rule="evenodd" d="M428.423 297.521C417.672 299.072 398.647 290.855 397.003 282.842C395.359 274.81 402.655 253.78 398.536 245.952C394.436 238.123 380.213 234.56 379.215 225.587C378.218 216.613 384.96 205.498 392.773 204.815C400.587 204.132 422.844 211.868 423.934 226.657C425.024 241.428 421.016 254.833 425.227 258.655C429.457 262.477 441.075 279.168 438.914 287.347C436.753 295.49 439.191 295.97 428.423 297.521Z" fill="#F7C154"/>
<path fill-rule="evenodd" clip-rule="evenodd" d="M422.603 300.994C419.5 310.595 415.695 319.458 416.563 333.102C416.766 336.204 418.65 342.944 414.605 342.5C412.222 342.242 412.093 335.78 411.945 332.752C411.336 319.624 414.827 310.965 417.801 301.696C407.918 299.24 399.44 296.84 393.843 290.692C389.521 285.965 388.727 278.93 389.946 270.825C390.445 267.501 391.184 263.79 391.904 260.171C392.68 256.239 393.345 251.623 392.255 248.632C389.872 242.114 379.584 240.12 375.391 235.153C367.153 225.386 375.446 209.988 382.853 205.704C393.031 199.814 406.773 207.347 412.315 212.979C416.397 217.133 419.795 222.838 420.83 229.836C422.16 238.772 418.392 250.7 421.532 258.75C423.323 263.347 427.923 266.929 430.934 271.527C434.295 276.659 438.248 284.913 435.182 291.763C432.928 296.84 428.237 299.037 422.603 300.994ZM431.839 285.559C430.638 272.524 417.025 268.222 416.046 254.503C415.547 247.45 417.394 240.157 416.748 232.328C416.12 224.555 412.148 219.533 407.881 215.471C403.818 211.612 396.743 207.421 389.244 208.197C382.576 208.88 377.293 216.099 376.647 223.097C375.298 237.48 391.22 235.689 396.005 245.622C400.438 254.835 392.957 268.166 393.696 278.986C394.527 291.043 408.823 294.994 418.909 296.914C418.743 287.221 413.848 282.845 410.024 276.512C407.069 271.6 405.24 266.541 405.24 258.584C405.24 251.254 405.794 242.963 403.633 237.831C402.71 235.615 401.121 232.975 399.366 230.722C397.999 228.987 394.102 226.586 394.564 223.983C394.619 223.651 395.081 222.321 396.522 222.21C398.646 222.044 401.454 225.903 402.913 227.713C406.644 232.365 409.322 237.591 409.839 244.57C410.412 252.195 408.897 261.224 410.726 267.28C413.94 277.915 423.194 282.715 423.323 296.028C427.793 294.126 432.448 292.298 431.839 285.559Z" fill="#223549"/>
<path fill-rule="evenodd" clip-rule="evenodd" d="M407.752 316.871H452.49C454.448 316.871 456.036 318.459 456.036 320.416V397.612C456.036 409.374 446.505 418.901 434.739 418.901H425.503C413.737 418.901 404.188 409.374 404.188 397.612V320.416C404.206 318.459 405.794 316.871 407.752 316.871Z" fill="white"/>
<path fill-rule="evenodd" clip-rule="evenodd" d="M412.168 314.211H456.905C458.863 314.211 460.451 315.799 460.451 317.756V394.952C460.451 406.713 450.92 416.241 439.154 416.241H429.918C418.152 416.241 408.621 406.713 408.621 394.952V317.756C408.621 315.799 410.21 314.211 412.168 314.211Z" fill="#223549"/>
<path d="M434.739 420.953H425.504C412.629 420.953 402.156 410.484 402.156 397.615V320.419C402.156 317.335 404.668 314.824 407.753 314.824H452.49C455.575 314.824 458.087 317.335 458.087 320.419V397.615C458.087 410.484 447.614 420.953 434.739 420.953ZM407.753 318.923C406.922 318.923 406.238 319.606 406.238 320.437V397.633C406.238 408.25 414.883 416.891 425.504 416.891H434.739C445.36 416.891 454.005 408.25 454.005 397.633V320.437C454.005 319.606 453.321 318.923 452.49 318.923H407.753Z" fill="black"/>
</g>
<defs>
<clipPath id="clip0">
<rect width="513" height="423" fill="white"/>
</clipPath>
</defs>
</svg>
