<svg width="437" height="411" viewBox="0 0 437 411" fill="none" xmlns="http://www.w3.org/2000/svg">
<g clip-path="url(#clip0)">
<path d="M157.915 369.665C156.558 369.665 155.431 368.574 155.412 367.215C155.393 365.837 156.463 364.708 157.819 364.689C159.31 364.689 160.437 365.78 160.456 367.139C160.475 368.516 159.405 369.645 158.049 369.665C157.934 369.665 157.934 369.665 157.915 369.665ZM148.744 369.473C147.101 369.397 146.05 368.248 146.107 366.871C146.164 365.493 147.33 364.44 148.686 364.498C150.253 364.574 151.285 365.761 151.208 367.119C151.151 368.459 150.043 369.473 148.744 369.473ZM167.124 369.378C165.825 369.378 164.736 368.382 164.659 367.062C164.564 365.703 165.596 364.498 166.952 364.402C168.595 364.383 169.684 365.416 169.761 366.737C169.837 368.115 168.786 369.282 167.43 369.358C167.258 369.358 167.181 369.378 167.124 369.378ZM139.496 368.746C137.7 368.555 136.726 367.33 136.86 365.971C137.012 364.612 138.235 363.617 139.592 363.77C141.12 363.943 142.095 365.167 141.942 366.545C141.808 367.808 140.738 368.746 139.496 368.746ZM176.391 368.612C175.13 368.612 174.06 367.655 173.926 366.373C173.792 365.014 174.786 363.79 176.142 363.656C177.652 363.483 178.855 364.479 179.008 365.837C179.161 367.196 178.187 368.44 176.811 368.574C176.543 368.612 176.467 368.612 176.391 368.612ZM185.6 367.445C184.377 367.445 183.326 366.545 183.154 365.301C182.963 363.943 183.919 362.68 185.275 362.507C186.746 362.278 188.026 363.216 188.217 364.555C188.428 365.914 187.491 367.177 186.154 367.387C185.829 367.445 185.715 367.445 185.6 367.445ZM130.306 367.406C128.338 367.081 127.459 365.78 127.708 364.44C127.956 363.101 129.255 362.201 130.593 362.45C132.083 362.718 132.981 364.019 132.733 365.378C132.523 366.564 131.491 367.406 130.306 367.406ZM194.752 365.895C193.586 365.895 192.555 365.072 192.325 363.904C192.058 362.565 192.937 361.244 194.274 360.977C195.822 360.689 197.121 361.589 197.35 362.928C197.599 364.268 196.701 365.569 195.363 365.818C195.077 365.876 194.924 365.895 194.752 365.895ZM121.25 365.397C119.11 364.9 118.346 363.541 118.709 362.22C119.072 360.9 120.428 360.115 121.766 360.479C123.199 360.843 124.001 362.201 123.657 363.541C123.371 364.651 122.358 365.397 121.25 365.397ZM203.846 363.981C202.719 363.981 201.687 363.196 201.439 362.048C201.133 360.709 201.974 359.369 203.311 359.082C204.802 358.738 206.139 359.58 206.445 360.919C206.751 362.259 205.91 363.598 204.572 363.885C204.229 363.962 204.038 363.981 203.846 363.981ZM112.384 362.68C110.111 362.01 109.442 360.594 109.901 359.312C110.359 358.029 111.792 357.36 113.072 357.819C114.505 358.316 115.174 359.752 114.735 361.034C114.352 362.029 113.397 362.68 112.384 362.68ZM212.865 361.742C211.756 361.742 210.744 360.996 210.457 359.886C210.113 358.565 210.916 357.207 212.234 356.862C213.667 356.46 215.043 357.245 215.406 358.565C215.769 359.886 214.985 361.264 213.667 361.627C213.285 361.704 213.075 361.742 212.865 361.742ZM103.787 359.178C103.443 359.178 103.08 359.101 102.755 358.948C101.36 358.297 100.825 356.824 101.398 355.58C101.971 354.336 103.443 353.8 104.685 354.374C106.079 355.025 106.614 356.499 106.041 357.742C105.621 358.642 104.723 359.178 103.787 359.178ZM221.787 359.139C220.717 359.139 219.743 358.45 219.418 357.379C219.017 356.058 219.762 354.681 221.061 354.279C222.475 353.819 223.87 354.547 224.29 355.848C224.711 357.149 224.004 358.546 222.685 358.986C222.265 359.101 222.017 359.139 221.787 359.139ZM230.576 356.116C229.583 356.116 228.646 355.503 228.264 354.527C227.768 353.245 228.398 351.81 229.678 351.312C231.092 350.757 232.544 351.389 233.041 352.671C233.538 353.953 232.907 355.389 231.627 355.886C231.188 356.058 230.882 356.116 230.576 356.116ZM95.5518 354.891C95.1314 354.891 94.7111 354.776 94.3098 354.547C92.9724 353.743 92.5903 352.231 93.2781 351.045C93.985 349.858 95.5135 349.475 96.679 350.183C97.9783 350.93 98.3795 352.461 97.6917 353.647C97.2522 354.432 96.4115 354.891 95.5518 354.891ZM87.8137 349.781C87.2978 349.781 86.7819 349.628 86.3425 349.284C85.1197 348.404 84.8713 346.854 85.6738 345.744C86.4762 344.634 88.0239 344.385 89.132 345.189C90.393 346.107 90.6223 347.676 89.8007 348.767C89.304 349.437 88.5588 349.781 87.8137 349.781ZM80.6106 343.907C80.0183 343.907 79.426 343.696 78.9483 343.256C77.8211 342.222 77.7447 340.653 78.6618 339.639C79.5789 338.625 81.1456 338.548 82.1582 339.467C83.2855 340.5 83.3619 342.069 82.4448 343.084C81.9672 343.639 81.2984 343.907 80.6106 343.907ZM74.2482 337.17C73.5222 337.17 72.7961 336.845 72.3185 336.252C71.3631 335.027 71.5351 333.477 72.605 332.616C73.675 331.774 75.2417 331.946 76.0824 333.018C77.0186 334.204 76.8466 335.754 75.7958 336.615C75.3372 336.979 74.8023 337.17 74.2482 337.17ZM69.1659 329.401C68.2679 329.401 67.4081 328.903 66.9496 328.061C66.2426 326.741 66.7012 325.229 67.924 324.578C69.1277 323.928 70.6371 324.387 71.2867 325.612C72.0128 327.009 71.516 328.501 70.3123 329.133C69.9302 329.324 69.548 329.401 69.1659 329.401ZM124.192 328.042C122.816 328.042 121.708 326.932 121.708 325.554C121.708 324.177 122.816 323.067 124.192 323.067C125.702 323.067 126.81 324.157 126.829 325.516C126.848 326.894 125.759 328.023 124.383 328.042H124.192ZM115.098 327.525C113.359 327.353 112.346 326.109 112.499 324.751C112.652 323.392 113.817 322.397 115.212 322.55C116.664 322.722 117.677 323.966 117.524 325.325C117.371 326.588 116.32 327.525 115.098 327.525ZM133.44 327.334C132.236 327.334 131.185 326.454 130.994 325.229C130.784 323.87 131.72 322.607 133.077 322.397C134.624 322.186 135.885 323.124 136.057 324.483C136.248 325.841 135.312 327.104 133.955 327.296C133.688 327.315 133.554 327.334 133.44 327.334ZM105.965 325.861C103.863 325.401 103.061 324.043 103.404 322.703C103.748 321.383 105.105 320.579 106.423 320.923C107.875 321.268 108.678 322.626 108.353 323.947C108.105 325.095 107.092 325.861 105.965 325.861ZM142.496 325.344C141.426 325.344 140.433 324.636 140.108 323.545C139.726 322.225 140.49 320.847 141.808 320.464C143.241 320.024 144.617 320.77 145.018 322.091C145.419 323.411 144.674 324.789 143.375 325.191C142.974 325.325 142.725 325.344 142.496 325.344ZM97.1185 323.067C96.8128 323.067 96.5071 323.009 96.2205 322.894C94.8257 322.378 94.157 320.942 94.6538 319.66C95.1314 318.378 96.5644 317.727 97.8445 318.206C99.2966 318.78 99.9271 320.215 99.4303 321.497C99.0482 322.454 98.112 323.067 97.1185 323.067ZM151.17 322.033C150.253 322.033 149.374 321.536 148.954 320.655C148.343 319.431 148.839 317.938 150.062 317.326C151.476 316.637 152.966 317.172 153.559 318.416C154.151 319.66 153.616 321.134 152.393 321.727C151.915 321.957 151.533 322.033 151.17 322.033ZM65.8414 320.713C64.7523 320.713 63.7588 319.986 63.4722 318.876C63.1092 317.46 63.8926 316.063 65.23 315.718C66.5483 315.374 67.9049 316.139 68.2488 317.479C68.6118 318.895 67.8285 320.292 66.491 320.636C66.2617 320.694 66.0516 320.713 65.8414 320.713ZM88.6735 319.201C88.2913 319.201 87.9092 319.105 87.5462 318.933C86.1897 318.225 85.712 316.732 86.3425 315.508C86.973 314.283 88.4633 313.804 89.6861 314.436C91.0427 315.144 91.5203 316.637 90.8898 317.861C90.4504 318.723 89.5715 319.201 88.6735 319.201ZM159.138 317.306C158.373 317.306 157.628 316.962 157.151 316.311C156.329 315.201 156.558 313.651 157.666 312.828C158.927 311.91 160.475 312.159 161.278 313.269C162.08 314.379 161.832 315.929 160.723 316.732C160.169 317.153 159.653 317.306 159.138 317.306ZM80.5151 314.8C80.0947 314.8 79.6744 314.685 79.2923 314.474C77.9739 313.728 77.5536 312.216 78.2223 311.01C78.891 309.805 80.4004 309.403 81.6041 310.073C82.9416 310.838 83.3619 312.35 82.6741 313.556C82.2155 314.34 81.3749 314.8 80.5151 314.8ZM64.7141 311.546C63.3385 311.546 62.2303 310.436 62.2303 309.059C62.2303 307.547 63.3385 306.418 64.7141 306.418C66.0898 306.418 67.198 307.528 67.198 308.886C67.198 310.436 66.0707 311.546 64.7141 311.546ZM166.054 311.125C165.462 311.125 164.87 310.915 164.392 310.475C163.379 309.556 163.303 307.987 164.22 306.973C165.213 305.844 166.78 305.748 167.812 306.666C168.844 307.585 168.92 309.154 168.022 310.168C167.411 310.857 166.723 311.125 166.054 311.125ZM72.5477 310.015C72.1083 310.015 71.6497 309.901 71.2485 309.633C69.9302 308.791 69.6054 307.26 70.3314 306.092C71.0765 304.944 72.605 304.6 73.7514 305.346C75.0315 306.15 75.3755 307.681 74.6494 308.829C74.1909 309.613 73.3884 310.015 72.5477 310.015ZM64.8288 304.887C64.332 304.887 63.8543 304.734 63.4149 304.447C62.1348 303.547 61.8864 301.997 62.6698 300.868C63.2238 299.949 63.2238 299.624 63.3003 299.299C63.606 297.844 64.9243 296.983 66.2617 297.27C67.5992 297.557 68.459 298.878 68.1724 300.217C68.0004 301.002 67.6565 301.499 67.2171 301.825C67.3699 302.495 67.2553 303.222 66.8349 303.815C66.3764 304.504 65.6121 304.887 64.8288 304.887ZM171.404 303.566C171.022 303.566 170.621 303.471 170.238 303.279C169.035 302.629 168.576 301.136 169.207 299.911C169.933 298.552 171.442 298.093 172.646 298.744C173.85 299.394 174.308 300.906 173.658 302.112C173.162 303.088 172.302 303.566 171.404 303.566ZM57.3582 299.318C56.8232 299.318 56.2882 299.146 55.8488 298.782C54.6642 297.864 54.454 296.294 55.2947 295.203C56.1354 294.113 57.683 293.921 58.7721 294.763C59.9567 295.701 60.1477 297.289 59.307 298.361C58.8294 298.993 58.1033 299.318 57.3582 299.318ZM174.728 294.916C172.837 294.553 171.996 293.213 172.302 291.874C172.665 290.343 174.021 289.52 175.34 289.864C176.677 290.19 177.48 291.529 177.174 292.869C176.887 294.132 175.875 294.916 174.728 294.916ZM68.6118 293.519C68.287 293.519 67.9431 293.443 67.6183 293.309C66.3573 292.754 65.8032 291.3 66.3382 290.037C66.9305 288.659 68.3826 288.065 69.6436 288.601C70.9046 289.137 71.4969 290.592 70.9619 291.855C70.4842 292.964 69.5671 293.519 68.6118 293.519ZM50.2889 293.366C49.6966 293.366 49.1234 293.156 48.6457 292.735C47.4993 291.682 47.4229 290.113 48.34 289.099C49.2571 288.085 50.8238 288.008 51.8365 288.927C52.9637 289.922 53.0593 291.491 52.1422 292.524C51.6454 293.079 50.9576 293.366 50.2889 293.366ZM43.5634 286.956C42.9329 286.956 42.3024 286.707 41.8056 286.228C40.7166 285.118 40.7357 283.549 41.7101 282.592C42.6845 281.636 44.2513 281.655 45.2066 282.631C46.2765 283.702 46.2765 285.272 45.3021 286.247C44.8244 286.707 44.1939 286.956 43.5634 286.956ZM175.76 285.712C174.404 285.712 173.295 284.621 173.276 283.262C173.257 281.731 174.346 280.602 175.722 280.583C177.117 280.583 178.225 281.674 178.244 283.033C178.263 284.563 177.174 285.693 175.798 285.712C175.779 285.712 175.779 285.712 175.76 285.712ZM72.9681 285.272C72.5286 285.272 72.0701 285.157 71.6879 284.908C70.5225 284.181 70.1594 282.669 70.8855 281.521C71.6497 280.277 73.2164 279.894 74.3628 280.621C75.5283 281.348 75.8913 282.86 75.1653 284.009C74.6303 284.851 73.8087 285.272 72.9681 285.272ZM37.2774 280.124C36.5705 280.124 35.8827 279.837 35.3859 279.263C34.3924 278.095 34.507 276.526 35.5579 275.646C36.6087 274.746 38.1754 274.88 39.0543 275.914C40.0479 277.081 39.9332 278.65 38.8824 279.531C38.4238 279.932 37.8506 280.124 37.2774 280.124ZM78.4325 277.808C77.8784 277.808 77.3052 277.617 76.8467 277.234C75.7958 276.354 75.6621 274.785 76.541 273.732C77.4963 272.565 79.063 272.412 80.1138 273.292C81.1647 274.172 81.3175 275.722 80.4577 276.794C79.8464 277.502 79.1394 277.808 78.4325 277.808ZM174.633 276.507C173.486 276.507 172.455 275.703 172.206 274.536C171.882 273.081 172.703 271.742 174.041 271.436C175.378 271.129 176.715 271.971 177.021 273.311C177.346 274.842 176.486 276.162 175.149 276.449C174.977 276.488 174.805 276.507 174.633 276.507ZM31.4882 272.852C30.724 272.852 29.9788 272.507 29.5012 271.838C28.5841 270.613 28.8133 269.044 29.9215 268.24C31.0297 267.417 32.5773 267.647 33.3989 268.757C34.316 269.981 34.0867 271.55 32.9785 272.354C32.52 272.699 32.0041 272.852 31.4882 272.852ZM84.7567 270.996C84.1071 270.996 83.4574 270.747 82.9607 270.23C82.0054 269.235 82.0436 267.666 83.0371 266.709C84.1453 265.637 85.712 265.676 86.6673 266.671C87.6226 267.666 87.5844 269.235 86.5909 270.192C85.9986 270.766 85.3681 270.996 84.7567 270.996ZM171.862 267.647C170.907 267.647 169.99 267.092 169.589 266.154C168.977 264.719 169.57 263.264 170.831 262.728C172.092 262.193 173.544 262.786 174.079 264.049C174.69 265.427 174.117 266.881 172.856 267.436C172.531 267.589 172.187 267.647 171.862 267.647ZM26.234 265.216C25.4124 265.216 24.6099 264.814 24.1514 264.068C23.3298 262.767 23.6737 261.236 24.8201 260.489C25.9856 259.762 27.5141 260.107 28.2402 261.255C29.0617 262.537 28.7178 264.068 27.5714 264.814C27.1511 265.082 26.6925 265.216 26.234 265.216ZM91.7687 264.91C91.0236 264.91 90.2975 264.585 89.8007 263.934C88.9601 262.843 89.1702 261.293 90.2402 260.451C91.3866 259.533 92.9533 259.686 93.8131 260.757C94.6729 261.829 94.5009 263.398 93.431 264.259C92.8387 264.738 92.3037 264.91 91.7687 264.91ZM167.239 259.609C166.494 259.609 165.768 259.284 165.271 258.652C164.335 257.447 164.545 255.877 165.615 255.035C166.704 254.193 168.251 254.404 169.092 255.476C170.028 256.681 169.818 258.25 168.748 259.092C168.309 259.456 167.774 259.609 167.239 259.609ZM99.373 259.552C98.5514 259.552 97.749 259.15 97.2904 258.404C96.5453 257.255 96.8892 255.705 98.0356 254.978C99.3539 254.155 100.882 254.5 101.608 255.667C102.335 256.834 101.971 258.365 100.825 259.092C100.29 259.437 99.8316 259.552 99.373 259.552ZM21.5338 257.198C20.6549 257.198 19.7952 256.719 19.3557 255.897C18.6297 254.557 19.0691 253.064 20.2728 252.395C21.4765 251.744 22.9859 252.184 23.6355 253.39C24.3616 254.748 23.9221 256.26 22.7184 256.911C22.3363 257.102 21.9351 257.198 21.5338 257.198ZM107.436 254.978C106.519 254.978 105.64 254.48 105.22 253.6C104.608 252.375 105.105 250.883 106.328 250.27C107.684 249.581 109.175 250.079 109.786 251.304C110.397 252.529 109.92 254.021 108.697 254.653C108.2 254.882 107.818 254.978 107.436 254.978ZM160.609 253.141C160.131 253.141 159.634 252.988 159.195 252.682C158.01 251.84 157.724 250.27 158.507 249.141C159.31 248.031 160.819 247.744 161.946 248.529C163.131 249.371 163.417 250.94 162.634 252.069C162.137 252.758 161.373 253.141 160.609 253.141ZM115.938 251.227C114.926 251.227 113.989 250.615 113.607 249.601C113.13 248.318 113.779 246.883 115.059 246.405C116.473 245.869 117.906 246.5 118.384 247.783C118.881 249.065 118.231 250.5 116.951 250.998C116.531 251.189 116.225 251.227 115.938 251.227ZM17.4069 248.893C16.4706 248.893 15.5727 248.357 15.1523 247.438C14.5218 246.022 15.0759 244.549 16.3369 243.994C17.5788 243.439 19.05 243.994 19.6041 245.257C20.2346 246.634 19.6805 248.108 18.4386 248.682C18.0947 248.816 17.7508 248.893 17.4069 248.893ZM152.431 248.873C150.158 248.223 149.489 246.807 149.947 245.505C150.406 244.204 151.82 243.534 153.119 243.994C154.533 244.472 155.24 245.869 154.8 247.17C154.437 248.223 153.463 248.873 152.431 248.873ZM124.804 248.491C123.676 248.491 122.664 247.725 122.396 246.596C122.071 245.257 122.893 243.917 124.211 243.592C125.702 243.228 127.039 244.051 127.364 245.391C127.689 246.73 126.867 248.07 125.53 248.395C125.205 248.452 124.995 248.491 124.804 248.491ZM134.013 246.921C132.752 246.921 131.644 245.965 131.51 244.682C131.376 243.324 132.351 242.099 133.707 241.965C135.178 241.812 136.401 242.807 136.535 244.185C136.669 245.544 135.713 246.768 134.338 246.902C134.166 246.921 134.089 246.921 134.013 246.921ZM143.375 246.921C141.617 246.768 140.604 245.544 140.738 244.185C140.872 242.826 142.076 241.812 143.451 241.946C144.942 242.08 145.954 243.266 145.84 244.644C145.744 245.945 144.655 246.921 143.375 246.921ZM13.834 240.3C12.8213 240.3 11.8851 239.688 11.503 238.674C10.968 237.257 11.5985 235.822 12.8787 235.344C14.1588 234.846 15.5918 235.497 16.0885 236.779C16.6235 238.233 15.9739 239.669 14.6938 240.147C14.4263 240.262 14.1397 240.3 13.834 240.3ZM10.8343 231.516C9.76433 231.516 8.7899 230.827 8.4651 229.756C8.00654 228.34 8.73258 226.943 10.0318 226.522C11.331 226.101 12.7258 226.809 13.1653 228.129C13.6238 229.641 12.8787 231.019 11.5794 231.421C11.3119 231.478 11.0636 231.516 10.8343 231.516ZM8.35046 222.56C7.22319 222.56 6.21055 221.795 5.94306 220.666C5.58004 219.211 6.3634 217.853 7.70084 217.508C9.03829 217.164 10.3757 217.968 10.7196 219.288C11.0827 220.819 10.2802 222.159 8.94275 222.484C8.73258 222.541 8.54152 222.56 8.35046 222.56ZM6.34429 213.49C5.17881 213.49 4.14707 212.667 3.91779 211.48C3.6312 209.949 4.52919 208.648 5.86664 208.399C7.20408 208.15 8.50331 209.031 8.75169 210.389C9.03829 211.863 8.1594 213.164 6.82195 213.432C6.6691 213.47 6.51625 213.49 6.34429 213.49ZM4.79668 204.323C3.57388 204.323 2.52303 203.424 2.35107 202.18C2.1218 200.687 3.05801 199.424 4.41456 199.214C5.7711 199.003 7.03212 199.941 7.24229 201.299C7.47157 202.85 6.51625 204.093 5.1597 204.304C5.02596 204.323 4.91132 204.323 4.79668 204.323ZM3.6503 195.099C2.38928 195.099 1.30022 194.142 1.18558 192.86C1.01363 191.367 2.00716 190.143 3.36371 189.99C4.72026 189.837 5.96217 190.813 6.11502 192.171C6.26787 193.74 5.27434 194.946 3.89868 195.08C3.82226 195.099 3.74583 195.099 3.6503 195.099ZM2.88605 185.837C1.58682 185.837 0.497757 184.842 0.421332 183.521C0.3258 181.952 1.37665 180.785 2.7523 180.708C4.12796 180.632 5.29345 181.684 5.36987 183.043C5.4654 184.536 4.43366 185.722 3.07711 185.818C3.00069 185.837 2.94337 185.837 2.88605 185.837ZM2.48482 176.556C1.12827 176.556 0.0200987 175.465 0.00099241 174.106C-0.0372203 172.613 1.03273 171.465 2.40839 171.427C3.76494 171.389 4.91132 172.46 4.94953 173.838C4.96864 175.407 3.87958 176.537 2.50392 176.556H2.48482ZM2.56124 167.274C1.09005 167.217 0.0200987 166.05 0.0774177 164.691C0.11563 163.198 1.2429 162.127 2.63767 162.146C4.01332 162.184 5.08328 163.332 5.04506 164.691C4.98775 166.222 3.87958 167.274 2.56124 167.274ZM3.15354 157.993C1.54861 157.84 0.555076 156.634 0.68882 155.256C0.822565 153.764 2.02626 152.75 3.38281 152.864C4.73936 152.979 5.7711 154.185 5.65647 155.544C5.48451 157.036 4.41455 157.993 3.15354 157.993ZM4.2617 148.769C2.52303 148.52 1.60592 147.257 1.81609 145.899C2.02626 144.425 3.26818 143.468 4.64383 143.66C6.00038 143.851 6.9557 145.114 6.76463 146.473C6.51625 147.889 5.4654 148.769 4.2617 148.769ZM5.88574 139.622C4.03243 139.277 3.17264 137.957 3.45924 136.617C3.74583 135.144 5.06417 134.283 6.40161 134.531C7.73906 134.799 8.61795 136.101 8.35046 137.459C8.06386 138.818 7.03212 139.622 5.88574 139.622ZM8.02565 130.589C6.03859 130.13 5.27434 128.771 5.63736 127.432C6.01949 125.977 7.37604 125.193 8.69437 125.537C10.0127 125.882 10.8152 127.24 10.4713 128.561C10.1082 129.862 9.11471 130.589 8.02565 130.589ZM10.6814 121.671C8.59884 121.097 7.89191 119.7 8.33135 118.399C8.7899 116.964 10.2038 116.256 11.503 116.677C12.8022 117.098 13.5283 118.495 13.1079 119.796C12.6876 121.021 11.7132 121.671 10.6814 121.671ZM13.834 112.907C13.5474 112.907 13.2417 112.849 12.9551 112.735C11.675 112.237 11.0253 110.821 11.5221 109.539C12.0571 108.18 13.5092 107.51 14.7893 108.008C16.0694 108.505 16.719 109.921 16.2223 111.185C15.8019 112.294 14.8466 112.907 13.834 112.907ZM17.5024 104.41C17.1585 104.41 16.7955 104.334 16.4706 104.18C15.2287 103.606 14.6747 102.133 15.2478 100.889C15.9166 99.4728 17.3878 98.9561 18.6297 99.5302C19.8716 100.104 20.4066 101.597 19.8143 102.841C19.3366 103.874 18.4386 104.41 17.5024 104.41ZM21.6485 96.0665C21.2472 96.0665 20.846 95.9708 20.483 95.7794C19.2793 95.1288 18.8207 93.617 19.4703 92.4114C20.1773 91.0718 21.6867 90.6125 22.8904 91.244C24.0941 91.8947 24.5526 93.3873 23.9221 94.6121C23.3871 95.5881 22.5274 96.0665 21.6485 96.0665ZM26.2531 87.9908C25.8136 87.9908 25.3551 87.876 24.9539 87.6272C23.7884 86.9 23.4254 85.369 24.1514 84.2017C24.9156 82.9195 26.4442 82.5368 27.6096 83.2449C28.7942 83.9529 29.1764 85.4647 28.4694 86.6512C27.8962 87.5698 27.0938 87.9908 26.2531 87.9908ZM31.3163 80.183C30.8386 80.183 30.3418 80.0299 29.9024 79.7428C28.7751 78.9582 28.4885 77.4081 29.2719 76.2791C30.1317 75.0161 31.6793 74.729 32.8066 75.5136C33.9338 76.2982 34.2204 77.8292 33.4371 78.9774C32.883 79.8002 32.0996 80.183 31.3163 80.183ZM36.7998 72.6622C36.2648 72.6622 35.7298 72.49 35.2904 72.1455C34.2013 71.3035 34.0103 69.7535 34.8509 68.6627C35.768 67.457 37.3348 67.2465 38.4238 68.0886C39.5129 68.9114 39.7231 70.4807 38.8824 71.5714C38.271 72.3178 37.5258 72.6622 36.7998 72.6622ZM42.6654 65.4477C42.0922 65.4477 41.519 65.2563 41.0414 64.8353C40.0096 63.9359 39.895 62.3667 40.7739 61.3333C41.7674 60.1659 43.3341 60.0511 44.385 60.9505C45.4167 61.85 45.5314 63.4192 44.6525 64.4526C44.0602 65.1606 43.3724 65.4477 42.6654 65.4477ZM48.9323 58.5776C48.3209 58.5776 47.6904 58.3479 47.2127 57.8887C46.2192 56.9318 46.2001 55.3626 47.1363 54.3675C48.2063 53.2576 49.773 53.2384 50.7474 54.1761C51.7409 55.133 51.76 56.7022 50.8238 57.6973C50.2315 58.3288 49.5819 58.5776 48.9323 58.5776ZM55.5431 52.052C54.8744 52.052 54.2057 51.784 53.728 51.2482C52.7918 50.234 52.8682 48.6648 53.8617 47.7462C54.9508 46.7128 56.5175 46.7511 57.4537 47.7462C58.3899 48.7413 58.3517 50.3105 57.3582 51.2674C56.7659 51.8415 56.1545 52.052 55.5431 52.052ZM280.386 51.2482C279.546 51.2482 278.724 50.8272 278.266 50.0426C277.482 48.7604 277.826 47.2295 278.992 46.5023C280.157 45.7751 281.686 46.1387 282.412 47.306C283.214 48.6265 282.851 50.1574 281.667 50.8655C281.265 51.1334 280.826 51.2482 280.386 51.2482ZM62.4978 45.8899C61.7909 45.8899 61.0839 45.5837 60.6063 45.0096C59.7274 43.9571 59.842 42.3879 60.8929 41.5076C62.0966 40.5125 63.6633 40.6656 64.5422 41.7181C65.402 42.7706 65.2491 44.3398 64.1983 45.2201C63.6442 45.6986 63.071 45.8899 62.4978 45.8899ZM274.922 43.7466C274.234 43.7466 273.527 43.4596 273.05 42.8855C272.056 41.7181 272.171 40.1489 273.222 39.2495C274.272 38.35 275.82 38.484 276.718 39.5174C277.712 40.6656 277.597 42.2348 276.565 43.1342C276.068 43.5552 275.495 43.7466 274.922 43.7466ZM69.7773 40.0915C69.0131 40.0915 68.287 39.747 67.7903 39.0964C66.9687 38.0056 67.198 36.4364 68.287 35.6135C69.5098 34.6949 71.0574 34.9054 71.879 36.0154C72.7006 37.1062 72.4904 38.6754 71.4013 39.4982C70.8091 39.9384 70.2932 40.0915 69.7773 40.0915ZM268.464 37.087C267.872 37.087 267.279 36.8765 266.802 36.4555C265.655 35.403 265.579 33.8338 266.515 32.8195C267.432 31.8053 269.018 31.7287 270.012 32.6664C271.139 33.6807 271.215 35.2499 270.298 36.2641C269.821 36.8 269.133 37.087 268.464 37.087ZM77.3434 34.6949C76.541 34.6949 75.7576 34.3122 75.2799 33.6041C74.5157 32.4751 74.8214 30.925 75.9487 30.1595C77.2097 29.2984 78.7573 29.6046 79.5215 30.7336C80.2858 31.8627 79.9992 33.4128 78.8528 34.1782C78.2987 34.561 77.8211 34.6949 77.3434 34.6949ZM261.261 31.212C260.764 31.212 260.248 31.0589 259.809 30.7528C258.567 29.8342 258.319 28.2841 259.121 27.1742C259.923 26.0643 261.49 25.8346 262.579 26.6384C263.802 27.5186 264.05 29.0687 263.248 30.1978C262.789 30.8484 262.044 31.212 261.261 31.212ZM85.177 29.7002C84.3363 29.7002 83.5148 29.2601 83.0371 28.4946C82.3302 27.3081 82.7123 25.7963 83.8969 25.0883C85.177 24.3037 86.7055 24.6673 87.4125 25.8346C88.1385 27.002 87.7564 28.5329 86.5909 29.2601C86.0368 29.5854 85.5974 29.7002 85.177 29.7002ZM253.542 26.0834C253.122 26.0834 252.682 25.9686 252.281 25.7389C250.963 24.9543 250.561 23.4234 251.268 22.2369C251.975 21.0504 253.504 20.6677 254.669 21.3757C255.968 22.1412 256.37 23.6722 255.682 24.8586C255.204 25.6432 254.383 26.0834 253.542 26.0834ZM93.259 25.1266C92.3801 25.1266 91.5203 24.6481 91.0618 23.8061C90.4121 22.6005 90.8707 21.0887 92.0935 20.438C93.4501 19.7109 94.9403 20.1701 95.59 21.3949C96.2396 22.6005 95.781 24.1123 94.5582 24.763C94.0424 25.0309 93.6411 25.1266 93.259 25.1266ZM245.384 21.6437C245.021 21.6437 244.638 21.5671 244.295 21.3949C242.919 20.7251 242.422 19.2324 243.014 17.9885C243.626 16.7638 245.097 16.2471 246.339 16.8595C247.715 17.5293 248.211 19.0219 247.619 20.2658C247.18 21.1461 246.301 21.6437 245.384 21.6437ZM101.57 20.993C100.634 20.993 99.736 20.4572 99.3157 19.5578C98.7425 18.3139 99.2584 16.8403 100.5 16.2471C101.895 15.5965 103.366 16.1323 103.959 17.3953C104.532 18.6392 103.997 20.1127 102.736 20.6868C102.277 20.9165 101.914 20.993 101.57 20.993ZM236.919 17.8354C236.614 17.8354 236.289 17.778 235.983 17.6441C234.569 17.07 233.958 15.6347 234.474 14.3526C234.99 13.0895 236.442 12.458 237.703 12.9747C239.117 13.5488 239.728 15.0032 239.212 16.2662C238.83 17.2422 237.894 17.8354 236.919 17.8354ZM110.092 17.2805C109.117 17.2805 108.181 16.6872 107.78 15.7304C107.264 14.4674 107.875 13.013 109.155 12.4963C110.569 11.9222 112.021 12.5346 112.537 13.8167C113.053 15.0798 112.442 16.5342 111.162 17.0508C110.703 17.2231 110.397 17.2805 110.092 17.2805ZM228.245 14.5822C225.991 13.9507 225.303 12.5537 225.742 11.2524C226.182 9.95111 227.577 9.26219 228.895 9.70233C230.347 10.1999 231.035 11.616 230.595 12.9173C230.232 13.9316 229.277 14.5822 228.245 14.5822ZM118.785 14.0464C117.753 14.0464 116.798 13.3957 116.435 12.3623C115.996 11.061 116.683 9.64492 117.963 9.20478C119.454 8.70722 120.849 9.41528 121.288 10.7166C121.727 12.0179 121.02 13.434 119.721 13.855C119.32 13.989 119.053 14.0464 118.785 14.0464ZM219.38 11.8456C217.221 11.329 216.457 9.97025 216.839 8.64981C217.202 7.32938 218.577 6.5639 219.896 6.9275C221.348 7.32937 222.131 8.68808 221.768 10.0085C221.482 11.1185 220.488 11.8456 219.38 11.8456ZM127.65 11.2715C126.561 11.2715 125.568 10.5635 125.262 9.47269C124.88 8.15226 125.663 6.77441 126.982 6.41081C128.453 5.9898 129.829 6.75527 130.192 8.07571C130.574 9.39614 129.809 10.774 128.491 11.1567C128.09 11.2333 127.88 11.2715 127.65 11.2715ZM210.4 9.54924C208.356 9.14737 207.515 7.80779 207.821 6.46822C208.126 5.12865 209.464 4.28663 210.782 4.59282C212.272 4.93728 213.113 6.25772 212.807 7.59729C212.559 8.76463 211.527 9.54924 210.4 9.54924ZM136.649 8.97514C135.522 8.97514 134.49 8.19053 134.242 7.04232C133.936 5.70275 134.777 4.38232 136.114 4.07613C137.567 3.7508 138.923 4.59282 139.21 5.93239C139.515 7.27196 138.694 8.5924 137.356 8.89859C137.012 8.956 136.821 8.97514 136.649 8.97514ZM201.324 7.67384C199.376 7.34851 198.478 6.06635 198.726 4.70764C198.974 3.36807 200.254 2.46864 201.611 2.71742C203.12 3.00447 203.999 4.28663 203.77 5.64534C203.541 6.83182 202.49 7.67384 201.324 7.67384ZM145.744 7.19542C144.559 7.19542 143.509 6.33426 143.298 5.12865C143.069 3.76994 143.986 2.48778 145.324 2.25814C146.852 2.00936 148.132 2.92792 148.343 4.28663C148.553 5.64534 147.636 6.90837 146.298 7.13801C146.031 7.17628 145.897 7.19542 145.744 7.19542ZM192.153 6.21944C190.319 6.00894 189.364 4.76505 189.536 3.40634C189.708 2.04763 190.95 1.09079 192.306 1.26303C193.816 1.45439 194.79 2.69828 194.618 4.05699C194.446 5.30088 193.376 6.21944 192.153 6.21944ZM154.953 5.93239C153.711 5.93239 152.622 4.99469 152.489 3.71253C152.336 2.35382 153.31 1.12907 154.686 0.975974C156.233 0.82288 157.437 1.79885 157.59 3.1767C157.743 4.53541 156.749 5.76016 155.393 5.91326C155.125 5.91326 155.03 5.93239 154.953 5.93239ZM182.906 5.32002C181.225 5.22433 180.174 4.03785 180.269 2.67914C180.365 1.3013 181.53 0.267915 182.906 0.344462C184.358 0.440145 185.447 1.62662 185.352 2.98533C185.256 4.30577 184.205 5.32002 182.906 5.32002ZM164.201 5.18606C162.882 5.18606 161.793 4.15267 161.717 2.83224C161.66 1.45439 162.711 0.287051 164.067 0.229641C165.596 0.153094 166.742 1.18648 166.818 2.56432C166.895 3.94217 165.844 5.10951 164.487 5.18606C164.277 5.18606 164.239 5.18606 164.201 5.18606ZM173.639 4.97555C172.092 4.95642 170.984 3.84649 171.003 2.46864C171.003 1.10993 172.111 0 173.467 0C175.015 0.0191367 176.123 1.12907 176.104 2.50691C176.104 3.86562 174.996 4.97555 173.639 4.97555Z" fill="#EC663D"/>
<path fill-rule="evenodd" clip-rule="evenodd" d="M59.8813 29.0273H246.283C253.352 29.0273 259.084 34.7684 259.084 41.849V250.88C259.084 257.96 253.352 263.701 246.283 263.701H59.8813C52.812 263.701 47.0801 257.96 47.0801 250.88V41.849C47.0801 34.7684 52.812 29.0273 59.8813 29.0273Z" fill="#FDB49D"/>
<path d="M246.281 265.559H59.8796C51.7976 265.559 45.2441 258.976 45.2441 250.881V41.8502C45.2441 33.7553 51.8167 27.1914 59.8796 27.1914H246.281C254.363 27.1914 260.916 33.7744 260.916 41.8502V250.881C260.916 258.976 254.344 265.559 246.281 265.559ZM59.8796 30.8848C53.842 30.8848 48.9126 35.8029 48.9126 41.8693V250.9C48.9126 256.947 53.8229 261.885 59.8796 261.885H246.281C252.319 261.885 257.248 256.966 257.248 250.9V41.8502C257.248 35.8029 252.338 30.8657 246.281 30.8657H59.8796V30.8848Z" fill="#EC663D"/>
<path d="M207.763 86.7461H139.916V90.4395H207.763V86.7461Z" fill="white"/>
<path d="M180.307 100.297H140.107V103.99H180.307V100.297Z" fill="white"/>
<path d="M207.858 113.52H140.012V117.213H207.858V113.52Z" fill="white"/>
<path d="M207.763 86.7461H139.916V90.4395H207.763V86.7461Z" fill="white"/>
<path d="M207.858 113.52H140.012V117.213H207.858V113.52Z" fill="white"/>
<path d="M207.763 86.7461H139.916V90.4395H207.763V86.7461Z" fill="white"/>
<path d="M180.307 100.297H140.107V103.99H180.307V100.297Z" fill="white"/>
<path d="M207.858 113.52H140.012V117.213H207.858V113.52Z" fill="white"/>
<path d="M207.763 86.7461H139.916V90.4395H207.763V86.7461Z" fill="white"/>
<path d="M207.954 100.297H189.707V103.99H207.954V100.297Z" fill="white"/>
<path d="M207.858 113.52H140.012V117.213H207.858V113.52Z" fill="white"/>
<path d="M207.763 50.4453H139.916V54.1387H207.763V50.4453Z" fill="white"/>
<path d="M180.307 63.9922H140.107V67.6856H180.307V63.9922Z" fill="white"/>
<path d="M207.858 77.1992H140.012V80.8926H207.858V77.1992Z" fill="white"/>
<path d="M207.763 50.4453H139.916V54.1387H207.763V50.4453Z" fill="white"/>
<path d="M207.954 63.9922H189.707V67.6856H207.954V63.9922Z" fill="white"/>
<path d="M207.858 77.1992H140.012V80.8926H207.858V77.1992Z" fill="white"/>
<path d="M158.029 250.844L142.706 229.392L129.79 245.792L87.1061 237.678L86.7813 236.607L66.5859 170.087L70.1015 169.016L89.9912 234.463L128.28 241.754L142.858 223.249L161.009 248.701L158.029 250.844Z" fill="white"/>
<path fill-rule="evenodd" clip-rule="evenodd" d="M160.817 243.613C164.485 243.613 167.466 246.599 167.466 250.273C167.466 253.947 164.485 256.932 160.817 256.932C157.149 256.932 154.168 253.947 154.168 250.273C154.168 246.579 157.149 243.613 160.817 243.613Z" fill="white"/>
<path fill-rule="evenodd" clip-rule="evenodd" d="M142.571 220.688C146.239 220.688 149.22 223.673 149.22 227.347C149.22 231.021 146.239 234.007 142.571 234.007C138.902 234.007 135.922 231.021 135.922 227.347C135.922 223.654 138.902 220.688 142.571 220.688Z" fill="white"/>
<path fill-rule="evenodd" clip-rule="evenodd" d="M129.045 237.832C132.407 237.832 135.12 240.569 135.12 243.918C135.12 247.286 132.388 250.003 129.045 250.003C125.682 250.003 122.969 247.266 122.969 243.918C122.969 240.569 125.682 237.832 129.045 237.832Z" fill="white"/>
<path fill-rule="evenodd" clip-rule="evenodd" d="M88.788 229.816C92.0169 229.816 94.6345 232.438 94.6345 235.672C94.6345 238.906 92.0169 241.528 88.788 241.528C85.559 241.528 82.9414 238.906 82.9414 235.672C82.9414 232.438 85.559 229.816 88.788 229.816Z" fill="white"/>
<path fill-rule="evenodd" clip-rule="evenodd" d="M68.3044 162.645C72.1448 162.645 75.2591 165.764 75.2591 169.61C75.2591 173.457 72.1448 176.576 68.3044 176.576C64.464 176.576 61.3497 173.457 61.3497 169.61C61.3306 165.783 64.464 162.645 68.3044 162.645Z" fill="white"/>
<path fill-rule="evenodd" clip-rule="evenodd" d="M365.427 376.975H167.447C167.447 376.975 176.714 344.673 185.044 324.234C193.394 303.796 201.361 293.616 201.361 293.616L193.356 264.604C193.356 264.604 169.912 246.884 168.708 234.942C167.505 223.001 174.154 211.863 174.154 211.863C174.154 211.863 131.738 213.375 114.618 206.256C97.4991 199.138 76.2719 176.269 91.4041 152.884C97.2125 143.909 111.905 138.378 127.248 132.197C151.895 122.284 178.949 114.247 178.949 114.247C178.949 114.247 175.663 106.65 177.669 98.5357C179.675 90.4217 179.198 82.7478 183.745 77.6957C188.292 72.6436 194.483 67.8212 201.036 64.3957C207.571 60.9511 216.245 58.9417 216.245 58.9417C216.245 58.9417 224.996 27.8636 240.892 16.7835C256.789 5.70327 309.14 7.25335 328.112 25.2802C347.085 43.307 350.925 58.7504 348.594 92.6033C347.219 112.907 368.178 143.124 381.763 143.584C395.348 144.024 420.262 145.516 424.982 155.295C435.566 177.169 417.454 191.521 417.454 191.521C417.454 191.521 432.204 210.294 428.975 223.575C425.765 236.875 415.218 244.415 415.218 244.415C415.218 244.415 439.158 279.588 434.745 290.745C430.331 301.902 360.651 358.394 360.651 358.394C360.651 358.394 362.026 363.427 363.211 367.216C364.376 370.986 365.427 376.975 365.427 376.975Z" fill="white"/>
<path fill-rule="evenodd" clip-rule="evenodd" d="M363.842 275.186C363.842 275.186 351.461 263.781 345.442 258.039C339.405 252.298 332.966 246.5 332.966 246.5C332.966 246.5 321.445 256.355 315.369 265.101C309.293 273.846 304.65 279.377 304.65 279.377C304.65 279.377 315.445 286.63 332.813 284.18C350.162 281.712 363.842 275.186 363.842 275.186Z" fill="#EC663D"/>
<path fill-rule="evenodd" clip-rule="evenodd" d="M258.205 138.608C258.205 138.608 259.905 156.405 252.759 156.884C245.614 157.362 229.66 152.827 219.476 153.841C209.273 154.855 201.077 155.448 201.077 155.448C201.077 155.448 200.141 151.104 200.121 147.755C200.102 144.406 200.924 138.608 200.924 138.608C200.924 138.608 218.922 131.834 222.056 127.872C225.17 123.911 225.896 118.725 228.456 114.4C231.016 110.094 234.054 106.707 234.054 106.707C234.054 106.707 240.321 128.772 246.531 132.197C252.721 135.604 258.205 138.608 258.205 138.608Z" fill="#EC663D"/>
<path fill-rule="evenodd" clip-rule="evenodd" d="M213.877 80.8907C213.877 80.8907 226.258 30.1401 249.09 19.5C271.922 8.85999 316.249 11.7305 330.559 29.7573C344.87 47.7841 350.105 55.4963 348.481 83.9335C346.857 112.39 360.27 132.579 371.199 138.11C389.77 147.487 417.722 139.334 424.333 154.778C434.077 177.55 418.735 191.96 418.735 191.96C418.735 191.96 436.791 210.944 428.346 227.057C419.901 243.17 415.067 244.051 415.067 244.051C415.067 244.051 371.886 178.813 349.761 170.795C327.636 162.777 295.461 160.404 293.111 156.041C290.761 151.678 292.156 127.986 292.156 127.986L302.721 117.251C302.721 117.251 332.413 122.417 328.802 103.453C326.872 93.3105 317.128 97.0421 317.128 97.0421C317.128 97.0421 292.003 76.3553 276.947 65.4665C261.891 54.5777 247.81 42.5407 247.81 42.5407L242.842 49.7552L239.002 61.4478C239.002 61.4478 223.793 65.3325 221.405 72.1835C219.017 79.0345 218.52 85.4835 218.52 85.4835L213.877 80.8907Z" fill="#EC663D"/>
<path fill-rule="evenodd" clip-rule="evenodd" d="M291.889 85.3867C293.876 85.3867 295.5 86.9942 295.5 88.9844V94.1131C295.5 96.1033 293.895 97.7299 291.889 97.7299C289.902 97.7299 288.297 96.1224 288.297 94.1131V88.9844C288.297 86.9942 289.902 85.3867 291.889 85.3867Z" fill="#223549"/>
<path fill-rule="evenodd" clip-rule="evenodd" d="M252.203 80.8906C254.191 80.8906 255.796 82.4981 255.796 84.5075V89.6361C255.796 91.6264 254.191 93.2338 252.203 93.2338C250.216 93.2338 248.611 91.6264 248.611 89.6361V84.5075C248.592 82.5172 250.216 80.8906 252.203 80.8906Z" fill="#223549"/>
<path fill-rule="evenodd" clip-rule="evenodd" d="M389.597 332.732C389.597 332.732 394.908 320.637 389.749 314.456C384.591 308.294 375.993 306.61 375.993 306.61C375.993 306.61 400.239 280.316 398.882 277.446C397.507 274.556 383.846 286.096 383.846 286.096C383.846 286.096 364.434 273.81 352.626 264.127C340.818 254.443 331.494 247.612 331.494 247.612C331.494 247.612 316.763 261.83 310.84 272.145C304.936 282.441 300.427 292.334 300.427 292.334L210.952 292.487L200.062 257.697C200.062 257.697 178.07 248.09 177.02 231.403C175.625 209.376 194.273 200.401 192.553 197.263C190.833 194.124 185.675 198.545 185.675 198.545L174.306 210.888C174.306 210.888 138.731 213.414 119.567 207.367C100.403 201.301 75.8898 194.737 92.3594 165.209C97.4417 156.138 128.088 142.934 128.088 142.934C128.088 142.934 123.789 157.401 132.578 162.491C141.348 167.582 155.792 166.816 155.792 166.816L163.148 163.927C163.148 163.927 191.196 161.247 206.997 160.559C222.798 159.87 232.772 163.601 232.772 163.601C232.772 163.601 208.602 184.652 225.569 194.067C242.535 203.463 266.896 202.774 282.697 193.416C298.498 184.078 311.031 170.337 311.031 170.337C311.031 170.337 350.906 169.285 375.859 203.195C395.94 230.484 429.796 275.092 429.796 288.966C429.758 314.399 389.597 332.732 389.597 332.732Z" fill="#EC663D"/>
<path fill-rule="evenodd" clip-rule="evenodd" d="M76.8657 41.1445H121.192C128.262 41.1445 133.994 46.8856 133.994 53.9662V108.142C133.994 115.223 128.262 120.964 121.192 120.964H76.8657C69.7964 120.964 64.0645 115.223 64.0645 108.142V53.9662C64.0645 46.8856 69.7964 41.1445 76.8657 41.1445Z" fill="white"/>
<path fill-rule="evenodd" clip-rule="evenodd" d="M94.7866 71.7617C95.6655 71.7617 96.3915 72.7568 96.3915 74.0007C96.3915 75.2446 95.6655 76.2397 94.7866 76.2397C93.9077 76.2397 93.1816 75.2255 93.1816 74.0007C93.1816 72.7568 93.9077 71.7617 94.7866 71.7617Z" fill="#FDB49D"/>
<path fill-rule="evenodd" clip-rule="evenodd" d="M106.632 71.2852C107.511 71.2852 108.237 72.2994 108.237 73.5242C108.237 74.7489 107.511 75.7632 106.632 75.7632C105.753 75.7632 105.027 74.768 105.027 73.5242C105.027 72.2803 105.753 71.2852 106.632 71.2852Z" fill="#FDB49D"/>
<path fill-rule="evenodd" clip-rule="evenodd" d="M210.992 294.265C210.992 294.265 189.65 323.908 182.027 356.134C174.404 388.361 174.021 409.832 174.021 409.832H372.326C372.326 409.832 367.588 380.419 364.416 367.77C361.244 355.12 355.36 349.398 355.36 349.398C355.36 349.398 348.29 348.729 342.558 350.681C336.826 352.632 327.636 356.919 323.834 354.049C320.032 351.178 322.554 350.681 322.554 350.681C322.554 350.681 318.504 352.097 316.631 348.767C314.759 345.418 317.758 339.619 317.758 339.619C317.758 339.619 309.867 339.6 308.473 335.295C307.078 330.989 308.473 329.037 308.473 329.037C308.473 329.037 301.231 320.827 307.517 313.651C313.803 306.475 318.083 302.743 318.083 302.743L304.155 291.031L210.992 294.265Z" fill="#223549"/>
<path fill-rule="evenodd" clip-rule="evenodd" d="M274.827 6.60156C275.63 6.60156 276.432 6.60156 277.235 6.60156C284.438 6.8312 291.125 7.69236 297.239 9.16589C303.181 10.6011 308.435 12.4191 313.728 14.773C333.273 23.461 350.526 38.9044 351.654 65.581C351.94 72.6042 350.526 79.2829 349.896 85.9425C347.794 107.701 357.061 124.082 368.773 133.057C372.881 136.215 377.734 138.932 383.485 140.425C389.351 141.956 396.63 141.535 403.967 142.185C417.475 143.391 426.398 150.089 429.569 160.939C433.677 175.024 426.379 186.028 419.328 192.84C422.443 196.247 425.366 199.959 427.812 204.38C430.162 208.609 432.55 214.006 432.13 220.091C431.308 232.052 423.092 237.907 416.921 244.931C423.436 255.953 432.282 264.603 435.97 277.788C440.575 294.227 428.748 304.944 420.456 312.082C411.265 319.985 401.101 327.276 391.338 335.007C382.3 342.145 373.11 349.551 364.608 356.957C364.149 357.359 363.309 357.991 363.328 358.718C368.811 371.769 372.441 388.648 374.524 405.201C374.811 407.421 375.651 410.425 372.919 410.98C371.18 410.502 370.913 410.062 370.512 407.938C368.639 397.68 367.283 386.849 365.066 377.969C363.175 370.41 360.825 361.952 356.908 355.847C356.182 354.718 353.469 350.508 352.265 350.24C346.457 348.882 341.738 353.685 337.706 355.522C333.14 357.608 325.478 358.507 322.173 354.718C321.313 353.742 321.428 352.958 320.568 351.197C313.517 351.618 311.435 344.308 314.97 339.179C307.805 340.614 304.194 333.878 307.442 328.118C305.225 326.453 302.703 324.386 303.276 319.794C303.945 314.531 308.817 309.001 311.913 305.69C313.25 304.255 314.702 303.106 315.428 301.843C313.709 300.829 312.123 299.47 310.308 298.15C308.34 296.715 306.219 294.591 303.582 294.629C273.375 295.069 237.36 295.413 206.923 295.758C206.083 296.16 206.044 296.772 205.165 297.04C204.573 297.231 204.115 297.231 203.733 297.193C202.949 297.155 203.618 296.83 202.93 297.346C201.879 298.131 200.561 301.575 199.567 303.432C191.81 317.976 184.722 333.132 178.933 349.111C173.22 364.842 169.055 383.385 166.131 402.637C165.864 404.455 165.634 409.966 164.373 410.483C159.788 412.377 161.316 405.794 161.66 403.593C162.119 400.512 162.52 397.278 162.94 394.771C169.532 355.369 182.582 323.908 199.262 294.916C199.797 293.978 201.019 292.447 201.019 291.548C201.019 290.782 200.121 289.366 199.739 288.18C197.676 281.96 195.899 276.774 193.816 270.861C193.052 268.698 192.517 265.388 191.409 263.819C190.893 263.091 189.46 262.517 188.524 261.905C178.073 254.92 167.813 245.16 167.239 228.722C167.067 223.899 168.195 219.594 169.647 216.226C170.163 215.001 170.851 213.795 170.774 213.011C136.65 215.001 101.915 211.748 89.6486 189.606C85.4261 181.971 83.8785 170.91 87.4132 160.595C93.2788 143.468 111.793 137.554 128.702 131.258C146.146 124.771 162.711 118.15 178.952 110.897C177.5 107.491 175.761 103.988 176.067 99.2043C176.162 97.6351 176.926 96.5443 177.022 95.2047C177.137 93.4633 177.251 92.1237 177.5 90.5545C179.009 81.4263 183.422 76.776 188.696 71.4751C195.249 64.9112 203.79 59.0363 214.623 56.8929C222.552 27.5372 238.277 6.63984 274.827 6.60156ZM423.016 231.784C425.404 228.416 427.85 224.091 427.812 218.809C427.792 213.853 425.5 209.355 423.494 205.834C421.315 202.026 419.004 198.524 416.29 195.73C415.335 194.754 413.749 194.314 413.73 192.84C413.711 191.022 417.418 188.535 418.851 186.908C423.876 181.205 428.557 172.881 425.404 162.222C423.704 156.461 420.15 152.347 415.641 149.878C410.711 147.18 404.979 146.568 397.241 146.185C389.752 145.821 383.447 145.171 378.192 143.142C372.862 141.095 368.467 138.53 364.264 134.971C352.877 125.288 343.935 109.404 345.387 87.684C345.845 80.8139 347.03 74.2117 347.145 67.3225C347.374 53.7354 342.177 42.9805 335.299 35.2684C322.192 20.5714 299.608 9.70172 270.968 11.0604C239.576 12.5531 226.966 30.5034 219.438 56.1083C226.45 55.8596 232.984 57.1034 235.124 61.8876C236.653 65.3131 235.621 69.8868 232.411 71.0159C229.526 72.0301 226.335 70.059 223.297 70.059C217.929 70.059 214.967 72.8913 210.974 75.0346C212.12 76.6612 213.362 78.0582 214.489 79.8379C217.948 85.2345 219.801 92.2194 222.973 97.6351C224.979 96.4486 227.329 94.1905 231.131 93.7886C237.474 93.1379 246.072 96.3912 246.492 101.003C246.932 105.94 240.226 105.94 237.856 108.543C239.461 116.734 242.27 122.475 246.817 127.622C251.231 132.617 257.46 136.425 266.822 135.468C274.999 134.646 281.858 131.297 287.304 127.775C291.278 125.211 295.519 121.767 299.15 118.475C300.353 117.384 301.882 115.471 303.143 115.432C304.155 115.394 304.881 116.159 305.856 116.389C313.212 118.111 321.791 114.801 325.383 110.935C326.395 109.844 327.733 107.988 327.943 106.132C328.287 103.089 326.682 100.219 324.255 99.2426C321.676 98.2092 318.218 99.1277 315.925 100.046C313.9 100.85 309.219 104.008 309.199 100.046C309.199 97.8456 311.53 97.5394 313.193 96.6782C303.066 87.4926 292.137 79.0533 281.514 70.2313C270.891 61.4092 260.23 52.5298 249.339 44.4349C248.212 46.8844 246.741 48.9895 245.652 51.4964C260.058 55.1898 268.121 65.1983 269.019 82.4214C269.114 83.2634 268.159 81.7899 268.369 82.8998C268.121 92.9657 264.949 100.085 257.173 102.611C257.402 104.524 260.555 105.003 260.536 107.261C260.517 108.428 259.523 109.634 258.3 109.672C256.848 109.71 255.415 107.701 254.613 106.782C253.619 105.634 252.32 104.333 252.702 102.132C253.275 98.6876 257.307 98.8024 259.752 97.0036C263.402 94.2861 264.548 86.9376 264.72 81.6176C264.873 76.8143 263.211 72.4511 261.529 68.9491C257.517 60.6246 250.333 56.338 240.245 54.6922C237.13 54.1755 231.016 54.941 231.131 51.8026C231.265 48.1666 238.353 50.3673 241.219 50.5204C242.843 47.669 244.314 44.6454 246.015 41.8706C245.461 39.9952 243.264 40.3779 243.455 38.0241C243.55 36.7802 244.544 36.1104 245.537 36.1104C247.047 36.1104 248.804 38.2346 250.333 39.4785C272.859 57.7158 297.067 77.0439 318.504 94.9368C329.414 92.2002 335.604 103.701 330.35 111.777C326.414 117.786 317.74 121.69 308.11 121.078C306.792 121.001 304.939 120.178 303.62 120.427C302.512 120.657 301.003 122.743 299.78 123.795C298.462 124.924 296.456 125.843 295.94 127.163C295.328 128.771 295.405 131.756 295.137 134.052C294.449 139.812 292.29 150.07 295.29 154.414C296.704 156.461 300.735 157.82 304.251 158.739C314.683 161.475 327.637 161.743 337.057 164.346C350.412 168.058 360.92 174.661 370.015 182.775C389.408 200.036 399.955 220.321 414.494 240.95C417.437 238.328 420.513 235.324 423.016 231.784ZM218.177 60.6055C210.362 61.9068 204.191 64.8538 198.975 68.6238C198.249 69.1596 197.16 69.5423 197.37 70.059C201.745 69.7911 204.478 71.169 207.286 72.4703C211.337 69.5997 216.859 65.6958 223.45 65.7341C226.278 65.7533 228.399 66.978 231.131 66.8632C233.137 60.7012 223.794 59.6678 218.177 60.6055ZM213.056 87.0525C212.235 81.5219 206.274 75.0537 199.778 74.3839C194.963 73.8864 190.683 76.2402 187.779 79.1873C189.46 77.9242 191.925 77.3119 194.504 77.5798C201.879 78.3644 208.815 85.8851 210.668 92.6404C212.464 91.5496 213.496 90.0569 213.056 87.0525ZM202.338 86.7463C200.026 84.3925 197.179 82.6893 194.657 82.096C189.9 80.967 187.225 85.1196 185.696 87.8753C195.211 85.311 200.714 91.8366 204.573 97.0036C208.7 94.822 205.299 89.7699 202.338 86.7463ZM191.141 91.5496C185.41 90.4205 180.958 96.0659 180.576 100.372C180.327 103.204 181.378 105.902 182.333 107.912C182.983 109.289 185.715 112.428 185.543 114.169C185.295 116.351 181.951 116.332 181.053 114.648C165.539 121.767 149.318 128.177 133.039 134.531C131.587 138.99 130.269 143.602 130.632 148.788C131.262 157.514 137.701 163.676 146.643 164.652C149.547 164.977 153.769 165.188 156.731 164.327C157.686 164.059 159.291 162.777 160.571 161.915C164.412 159.351 168.5 156.634 172.092 154.376C182.83 147.659 192.288 141.095 204.096 135.468C209.751 132.77 216.878 130.397 220.584 126.493C225.036 121.786 225.743 113.327 230.348 108.371C233.405 105.098 237.856 103.567 241.869 101.482C239.175 98.879 234.838 97.2141 230.5 98.2666C226.221 99.3 222.686 104.084 220.737 107.567C219.858 109.136 219.476 110.954 217.699 110.935C216.706 110.916 215.77 110.189 215.617 109.175C215.196 106.208 219.457 103.108 219.782 101.003C218.616 98.4771 217.413 96.0085 216.266 93.4633C214.623 94.5923 213.247 97.3863 210.018 97.4629C209.197 99.4148 207.401 100.391 205.548 101.309C204.936 107.223 197.389 104.888 193.071 103.395C190.759 102.591 186.46 101.788 186.823 99.0703C187.282 95.798 192.345 98.5536 194.351 99.2234C196.74 100.027 198.688 100.869 201.077 100.831C199.586 96.4486 195.727 92.449 191.141 91.5496ZM233.71 111.107C229.125 116.753 228.533 124.427 223.622 129.536C217.011 136.425 206.427 137.573 198.497 143.64C197.943 146.319 198.077 150.261 198.65 152.768C211.394 150.969 227.864 152.404 240.57 153.897C243.378 154.222 251.556 156.098 253.696 154.05C254.995 152.806 254.937 148.998 255.129 147.008C255.415 144.042 255.53 141.592 255.606 138.837C243.798 134.129 237.283 124.063 233.71 111.107ZM259.943 139.793C258.854 146.549 260.612 154.931 255.778 157.897C252.74 159.772 247.219 159.255 242.652 158.547C242.27 161.016 240.436 161.514 238.812 162.872C235.793 165.398 233.366 167.886 230.806 170.891C227.864 174.335 223.374 179.406 224.081 185.645C224.635 190.487 229.029 193.912 232.564 196.055C236.462 198.428 240.34 199.864 245.365 200.533C256.294 201.988 266.439 198.715 273.853 195.079C281.419 191.367 288.011 185.913 294.01 180.65C299.436 175.885 304.748 171.044 310.174 166.547C310.938 165.915 312.046 165.226 311.932 164.614C303.544 162.93 294.545 162.241 291.125 155.792C287.552 149.036 290.762 138.779 291.125 130.474C283.005 135.755 273.815 140.788 259.943 139.793ZM95.7626 154.05C87.8908 163.753 88.101 181.244 95.6098 190.908C109.462 208.762 142.497 210.714 174.022 208.379C175.684 206.16 177.595 204.131 179.467 202.122C180.843 200.648 183.881 196.783 186.193 197.318C187.32 197.567 187.76 198.371 187.798 199.251C187.855 200.763 186.04 201.777 184.913 202.772C177.366 209.489 169.226 219.211 172.264 234.023C174.443 244.663 181.283 251.227 188.428 256.47C190.836 258.231 193.625 259.532 195.956 261.924C196.071 262.709 196.09 263.551 196.281 264.316C197.351 268.947 199.338 273.425 200.924 277.942C202.51 282.496 204.115 287.089 205.567 291.72C220.374 291.108 236.634 290.916 252.301 290.916C268.14 290.916 284.189 290.38 299.837 290.438C299.493 286.457 301.117 284.18 302.722 281.137C309.887 267.55 319.116 255.781 329.452 246.194C327.981 244.108 326.433 242.845 324.179 240.261C323.109 239.037 319.269 235.822 319.708 233.525C319.861 232.741 320.835 231.956 321.638 231.918C323.032 231.86 324.37 233.85 325.478 235.133C341.814 254.078 361.952 270.516 382.606 284.027C384.574 282.821 385.166 278.707 388.204 279.052C389.045 279.147 389.905 279.874 389.962 280.984C390.057 282.879 387.287 285.041 385.969 286.591C381.632 291.663 376.033 298.112 373.015 302.303C386.79 303.106 396.668 312.388 393.172 327.946C404.043 319.162 417.36 311.335 426.608 299.891C429.646 296.141 432.856 291.395 432.856 285.309C432.837 277.195 428.194 269.942 424.697 264.316C420.761 258.001 416.673 252.432 413.023 246.691C405.285 234.52 397.91 223.038 389.503 211.594C374.085 190.64 357.175 170.948 325.172 166.24C322.937 165.915 319.995 165.13 318.619 165.437C317.836 165.609 316.097 167.369 315.103 168.154C313.804 169.187 312.696 170.125 311.588 171.044C295.156 184.535 282.527 201.854 256.065 204.858C247.582 205.815 240.474 204.629 234.303 201.816C228.609 199.213 223.183 195.271 220.852 189.625C217.852 182.334 222.17 175.215 225.495 170.718C228.685 166.413 232.583 162.585 236.538 159.332C236.901 159.026 238.028 158.624 237.665 157.897C217.508 154.337 193.625 157.227 175.742 160.786C173.01 161.322 169.207 161.686 167.411 162.719C159.253 167.369 150.063 174.029 141.962 179.387C140.204 180.555 136.192 183.1 136.192 179.234C136.192 177.722 137.873 176.995 139.077 176.191C142.306 174.048 145.038 172.134 147.885 170.259C148.458 169.876 149.451 169.494 149.165 169.13C131.931 169.149 122.435 154.242 128.033 136.425C116.149 140.942 103.023 145.113 95.7626 154.05ZM178.168 155.811C183.346 154.816 188.772 154.031 194.179 153.246C193.224 151.371 194.046 148.022 193.549 146.204C188.447 149.438 183.098 152.424 178.168 155.811ZM332.433 249.256C323.472 257.905 315.275 267.34 309.066 278.745C317.625 280.582 327.312 281.635 336.904 280.831C346.266 280.047 354.042 277.08 360.748 274.095C350.928 266.211 341.203 258.231 332.433 249.256ZM364.761 276.985C357.959 280.219 348.425 284.104 338.031 285.156C327.35 286.247 316.555 284.812 306.83 282.592C305.875 284.525 304.92 286.438 303.945 288.371C309.047 291.969 314.167 295.547 319.154 299.279C323.95 296.141 329.242 292.39 336.445 292.543C342.655 292.677 346.629 296.313 349.724 300.083C353.048 304.14 355.303 308.828 357.08 313.555C364.914 305.001 372.269 295.968 379.797 287.108C374.428 284.084 369.786 280.353 364.761 276.985ZM364.13 312.407C362.43 314.378 360.252 316.177 359.01 318.186C358.284 319.353 358.303 320.789 356.602 320.75C354.806 320.693 353.641 316.445 352.915 314.665C351.749 311.737 351.042 310.053 349.877 307.929C346.973 302.666 342.655 296.16 334.668 296.868C328.248 297.442 322.306 301.729 317.702 305.996C315.753 307.795 313.67 309.728 311.454 312.732C310.193 314.435 306.945 318.779 307.461 321.86C307.595 322.607 309.008 324.367 309.696 324.272C310.174 324.195 312.085 321.133 312.409 320.75C318.409 313.67 325.784 308.943 335.452 305.518C337.553 304.771 342.292 302.628 342.177 306.321C342.12 308.159 339.349 308.618 337.706 309.211C328.287 312.56 320.835 317.095 315.294 323.965C313.116 326.645 310.632 329.668 310.652 333.897C311.817 335.62 315.963 334.357 316.25 336.94C321.714 328.654 330.618 322.167 340.094 317.229C341.967 316.253 346.743 313.88 346.17 318.033C345.96 319.526 343.648 320.081 342.005 320.923C333.961 324.961 327.217 330.013 322.001 336.309C319.937 338.796 317.492 341.954 317.683 345.915C318.676 346.834 320.396 347.044 322.326 347.044C326.93 340.136 334.84 334.835 343.132 331.008C345.425 329.955 352.38 326.109 352.246 330.529C352.189 332.252 350.45 332.481 348.883 333.094C344.336 334.873 340.247 336.978 336.885 339.179C331.802 342.528 327.255 345.781 325.211 351.675C325.497 352.135 326.739 352.805 327.771 352.958C336.865 354.278 340.801 346.509 349.208 345.896C353.431 345.59 362.735 346.355 362.334 349.896C362.2 351.159 360.959 352.001 359.296 351.503C359.545 352.23 360.519 353.589 361.207 354.393C369.9 346.796 378.746 339.371 387.937 332.271C387.249 330.185 388.261 328.654 388.739 326.817C390.784 318.99 387.822 312.847 382.816 309.67C379.243 307.393 374.753 306.34 369.06 306.455C367.378 308.197 365.888 310.359 364.13 312.407Z" fill="#223549"/>
<path fill-rule="evenodd" clip-rule="evenodd" d="M322.517 102.287C323.281 102.21 324.829 102.268 325.077 103.722C325.478 106.019 322.689 106.727 320.606 107.569C318.676 108.334 313.059 111.358 312.925 107.569C312.849 105.54 315.772 104.966 317.243 104.354C318.466 103.856 320.377 102.517 322.517 102.287Z" fill="#223549"/>
<path fill-rule="evenodd" clip-rule="evenodd" d="M277.387 115.585C278.762 115.298 280.043 115.853 280.1 117.345C280.234 120.139 273.814 122.742 270.337 122.799C268.158 122.818 265.445 122.55 265.369 120.388C265.292 117.824 267.834 118.474 270.165 118.474C273.317 118.455 274.998 116.656 277.043 115.585C277.138 115.546 277.31 115.604 277.387 115.585Z" fill="#223549"/>
<path fill-rule="evenodd" clip-rule="evenodd" d="M240.932 59.5711C229.239 58.8247 219.17 67.7233 218.425 79.4159C217.679 91.1276 226.564 101.213 238.238 101.959C249.931 102.705 260 93.8067 260.745 82.1142C261.49 70.4025 252.606 60.3174 240.932 59.5711Z" fill="#EC663D"/>
<path fill-rule="evenodd" clip-rule="evenodd" d="M240.932 59.5711C229.239 58.8247 219.17 67.7233 218.425 79.4159C217.679 91.1276 226.564 101.213 238.238 101.959C249.931 102.705 260 93.8067 260.745 82.1142C261.49 70.4025 252.606 60.3174 240.932 59.5711Z" fill="#EC663D"/>
<path d="M239.613 103.854C239.116 103.854 238.619 103.834 238.123 103.815C225.436 103.012 215.768 92.008 216.59 79.3203C216.972 73.1583 219.742 67.5321 224.366 63.4559C228.99 59.3798 234.874 57.3513 241.065 57.7532C253.752 58.5569 263.4 69.5414 262.598 82.2482C262.216 88.4103 259.445 94.0365 254.821 98.1126C250.561 101.844 245.211 103.854 239.613 103.854ZM239.556 61.37C234.836 61.37 230.346 63.0732 226.793 66.2116C222.914 69.6371 220.583 74.3639 220.258 79.5308C219.589 90.2091 227.71 99.433 238.352 100.122C243.511 100.447 248.497 98.7441 252.376 95.3186C256.254 91.8931 258.585 87.1664 258.91 81.9803C259.579 71.302 251.478 62.0781 240.817 61.3892C240.396 61.3892 239.976 61.37 239.556 61.37Z" fill="#223549"/>
<path fill-rule="evenodd" clip-rule="evenodd" d="M292.574 67.0359C280.881 66.2896 270.812 75.1882 270.067 86.8807C269.322 98.5924 278.206 108.677 289.88 109.424C301.573 110.17 311.642 101.291 312.388 89.579C313.133 77.8673 304.248 67.7822 292.574 67.0359Z" fill="#EC663D"/>
<path fill-rule="evenodd" clip-rule="evenodd" d="M292.574 67.0359C280.881 66.2896 270.812 75.1882 270.067 86.8807C269.322 98.5924 278.206 108.677 289.88 109.424C301.573 110.17 311.642 101.291 312.388 89.579C313.133 77.8673 304.248 67.7822 292.574 67.0359Z" fill="#EC663D"/>
<path d="M291.256 111.318C290.759 111.318 290.262 111.299 289.766 111.26C283.613 110.878 277.996 108.103 273.926 103.472C269.857 98.8405 267.832 92.9081 268.214 86.7461C268.596 80.5841 271.366 74.9578 275.99 70.8817C280.614 66.8056 286.498 64.7771 292.689 65.179C298.822 65.5617 304.458 68.3365 308.528 72.9676C312.598 77.5987 314.623 83.5311 314.241 89.6931C313.859 95.8552 311.088 101.481 306.465 105.558C302.204 109.308 296.854 111.318 291.256 111.318ZM291.199 68.8341C286.479 68.8341 281.989 70.5373 278.436 73.6757C274.557 77.1012 272.226 81.8279 271.901 86.9949C271.232 97.6732 279.353 106.897 289.995 107.586C295.173 107.911 300.14 106.208 304.019 102.783C307.898 99.3572 310.228 94.6304 310.553 89.4444C311.222 78.7661 303.102 69.5421 292.46 68.8532C292.039 68.8532 291.619 68.8341 291.199 68.8341Z" fill="#223549"/>
<path d="M239.537 63.2637C239.919 63.2637 240.282 63.2829 240.664 63.302C245.326 63.6082 249.606 65.6941 252.701 69.2153C255.796 72.7364 257.325 77.2527 257.038 81.9221C256.446 91.146 248.784 98.3605 239.575 98.3605C239.193 98.3605 238.83 98.3414 238.448 98.3223C228.799 97.7099 221.462 89.3471 222.074 79.7022C222.647 70.4783 230.328 63.2637 239.537 63.2637ZM239.537 61.6562C229.525 61.6562 221.118 69.464 220.469 79.6065C219.8 90.17 227.806 99.26 238.333 99.9297C238.753 99.9489 239.155 99.968 239.556 99.968C249.568 99.968 257.974 92.1794 258.624 82.0177C259.293 71.4543 251.287 62.3643 240.741 61.6945C240.358 61.6754 239.938 61.6562 239.537 61.6562Z" fill="white"/>
<path d="M291.238 70.8067C291.601 70.8067 291.983 70.8258 292.365 70.845C297.046 71.1512 301.307 73.2371 304.402 76.7582C307.497 80.2794 309.026 84.7957 308.739 89.465C308.147 98.689 300.485 105.904 291.276 105.904C290.894 105.904 290.531 105.884 290.149 105.865C280.5 105.253 273.163 96.8901 273.775 87.2452C274.348 78.0213 282.029 70.8067 291.238 70.8067ZM291.238 69.1992C281.226 69.1992 272.819 77.007 272.17 87.1495C271.501 97.713 279.507 106.803 290.053 107.473C290.474 107.492 290.875 107.511 291.276 107.511C301.288 107.511 309.695 99.7223 310.344 89.5607C311.013 78.9972 303.007 69.9073 292.48 69.2375C292.04 69.2184 291.639 69.1992 291.238 69.1992Z" fill="white"/>
<path fill-rule="evenodd" clip-rule="evenodd" d="M224.862 57.4688L220.047 58.1385L218.213 66.5204L224.518 68.0131C224.518 68.0131 229.791 69.1613 230.04 69.1996C230.307 69.2378 233.498 67.4773 233.498 67.4773V61.6597L224.862 57.4688Z" fill="white"/>
<path fill-rule="evenodd" clip-rule="evenodd" d="M232.429 71.0368C235.639 69.9078 236.689 65.3149 235.142 61.9086C233.384 57.9664 228.588 56.4164 223.028 56.1484C223.028 56.1484 219.341 57.0287 218.366 57.8707C216.876 59.1529 218.003 60.569 219.112 60.4925C220.946 60.3585 223.602 60.3777 223.869 60.3968C228.397 60.7795 232.524 62.5784 231.129 66.865C228.378 66.999 226.276 65.7742 223.449 65.7359C223.315 65.7359 220.525 65.6785 218.194 66.5014C215.864 67.3434 223.028 70.0609 223.028 70.0609C226.334 70.0609 229.544 72.0511 232.429 71.0368Z" fill="#223549"/>
<path fill-rule="evenodd" clip-rule="evenodd" d="M129.292 109.424C131.528 112.122 133.61 115.605 135.368 119.203C135.884 120.255 137.031 121.614 135.693 122.724C134.05 123.221 133.458 121.652 132.98 120.638C129.503 113.442 124.745 106.898 117.466 103.319C112.479 109.404 105.39 115.107 94.7482 115.662C83.4564 116.236 76.5208 110.591 71.706 103.797C65.8403 105.233 63.2419 111.816 62.898 118.705C62.8024 120.599 63.4138 123.681 61.6178 123.834C58.8665 124.063 60.2422 115.777 60.6625 113.729C61.4268 109.921 63.7769 105.022 66.7383 102.994C70.1393 100.678 75.5655 99.9509 80.4949 98.9941C84.8703 98.1521 86.1313 97.8842 86.5707 92.5833C86.8955 88.7751 87.2776 85.5984 85.2906 84.0866C83.4182 84.2779 82.0234 84.1823 80.8197 83.6082C76.2342 81.4266 76.922 72.2601 81.947 71.9156C83.8576 71.7817 84.5646 72.8342 85.9402 73.5231C86.2459 71.3798 86.8573 69.447 87.3732 67.1123C87.7935 65.256 87.8891 61.9071 88.9781 60.8546C90.3538 59.5533 94.6336 60.7206 96.506 61.1799C101.951 62.4812 104.97 64.0887 108.658 67.1123C110.358 68.5093 112.269 69.9828 113.148 71.5903C114.409 73.925 114.695 77.3313 114.428 80.087C113.835 86.1916 109.67 90.9758 101.951 90.6696C102.066 93.655 101.684 96.1619 101.798 99.1663C113.339 97.3675 122.472 101.176 127.554 107.338C128.815 104.869 129.751 103.797 129.312 101.252C128.414 95.9705 122.643 95.9131 120.504 92.124C117.58 86.9188 120.656 77.006 120.504 71.131C120.37 65.7153 118.44 61.2564 115.383 57.831C110.606 52.4727 101.913 48.0329 92.016 48.7027C86.5134 49.0663 82.2145 51.5924 79.3676 54.6351C76.2915 57.9075 74.2662 61.5818 74.2471 67.9352C74.228 74.1737 75.298 80.5463 71.8397 84.2779C69.6043 86.6892 66.4518 88.1627 63.8342 90.2103C60.739 92.6216 55.8477 96.8316 56.6311 103.185C56.9941 106.228 59.8983 108.448 59.1913 112.16C58.6182 115.146 54.7014 115.337 53.746 118.093C52.9436 120.408 54.1664 122.475 55.0262 123.547C56.0961 124.867 58.408 126.015 60.7963 126.589C62.5158 126.991 67.4071 126.876 67.5217 128.503C67.6937 130.819 63.4138 129.919 61.1211 129.46C57.2425 128.694 55.1599 127.833 53.2875 125.939C52.1029 124.733 50.7463 122.13 50.7272 119.853C50.6699 115.279 54.2619 114.074 56.4974 111.356C55.6185 106.993 53.4021 105.902 53.7843 100.927C54.1855 95.6069 57.3762 91.9709 60.6625 89.0621C64.4838 85.6941 71.0755 83.589 71.706 78.0011C72.2219 73.4274 71.3048 68.9685 71.5531 65.5048C71.9353 59.7446 74.6484 54.9987 77.9538 51.8794C81.3547 48.6645 85.8638 46.2341 92.3599 45.7939C105.849 44.8562 118.001 53.3147 121.803 62.6151C122.567 64.4714 123.102 67.0357 123.236 69.1791C123.675 75.6281 121.631 81.2161 122.108 87.3015C122.529 92.6216 126.77 92.679 129.636 95.7983C133.037 99.5491 132.827 105.845 129.292 109.424ZM91.9969 87.3015C92.2835 85.0434 95.7418 86.8997 96.6398 87.1485C100.671 88.2201 106.136 88.1436 108.486 86.1916C110.989 84.1057 112.976 77.5227 110.893 73.2169C110.301 72.0113 108.562 70.71 107.206 69.5235C103.117 65.9641 97.5378 63.7059 91.1944 63.1127C90.392 65.8875 89.8188 68.6049 89.2647 70.9588C88.8253 72.8724 88.6342 77.5609 86.7045 77.6949C84.9849 77.8097 84.0487 74.4799 82.0616 74.8053C80.5522 75.054 80.2083 77.6758 80.4567 78.9771C81.049 81.9624 84.0487 80.7376 86.2268 81.3883C87.3732 81.7328 89.2838 84.1248 89.5895 85.5601C90.029 87.5886 89.5704 90.5931 89.4367 92.7747C89.2838 95.1093 88.8826 97.3101 88.0037 98.7071C85.6727 102.42 79.6733 101.386 74.7248 103.032C78.9091 109.137 85.4626 113.557 95.6844 112.811C103.174 112.256 108.944 108.122 113.129 104.314C113.644 103.855 114.561 103.166 114.409 102.381C110.568 101.195 105.123 101.578 100.805 102.056C97.404 100.831 99.4293 94.1334 99.372 90.5165C97.767 89.9424 91.6912 89.8085 91.9969 87.3015Z" fill="#FDB49D"/>
<path fill-rule="evenodd" clip-rule="evenodd" d="M98.3971 79.7817C100.136 79.0162 100.499 81.4466 102.085 81.5423C103.116 81.5997 105.275 79.4372 105.925 81.3892C106.556 83.2837 103.384 84.4319 102.237 84.4319C100.69 84.4319 97.7475 82.9775 97.5947 81.217C97.5182 80.1644 97.9577 79.9731 98.3971 79.7817Z" fill="#FDB49D"/>
</g>
<defs>
<clipPath id="clip0">
<rect width="437" height="411" fill="white"/>
</clipPath>
</defs>
</svg>
