<svg width="240" height="211" viewBox="0 0 240 211" fill="none" xmlns="http://www.w3.org/2000/svg">
<g clip-path="url(#clip0)">
<path d="M44.2246 158.44C43.3962 158.413 42.847 157.827 42.8749 157.12C42.9028 156.423 43.4986 155.875 44.1874 155.893C44.9414 155.912 45.4999 156.479 45.4906 157.185C45.4906 157.892 44.9228 158.44 44.2246 158.44ZM39.5053 157.753C38.4348 157.529 38.0252 156.842 38.1928 156.163C38.3603 155.484 39.0491 155.066 39.7287 155.233C40.4919 155.419 40.9108 156.107 40.7433 156.786C40.6037 157.371 40.0824 157.753 39.5053 157.753ZM35.0186 156.181C34.8324 156.181 34.6462 156.144 34.4694 156.061C33.7526 155.717 33.492 154.954 33.7992 154.322C34.1063 153.69 34.8696 153.43 35.5026 153.737C36.2007 154.071 36.4707 154.834 36.1728 155.466C35.9494 155.912 35.4933 156.181 35.0186 156.181ZM31.0346 153.607C30.7367 153.607 30.4481 153.504 30.2061 153.3C29.6104 152.779 29.5545 151.97 30.0199 151.45C30.4854 150.92 31.2859 150.873 31.8165 151.338C32.4029 151.84 32.4587 152.649 32.0026 153.179C31.742 153.458 31.3883 153.607 31.0346 153.607ZM27.9814 150C27.5532 150 27.125 149.777 26.8923 149.386C26.492 148.698 26.6875 147.927 27.2926 147.564C27.8976 147.211 28.6795 147.415 29.0332 148.02C29.4335 148.68 29.238 149.46 28.633 149.823C28.4282 149.944 28.2048 150 27.9814 150ZM26.2128 145.621C25.6356 145.621 25.1144 145.231 24.9747 144.645C24.7979 143.874 25.2261 143.186 25.9056 143.028C26.5944 142.87 27.2739 143.297 27.4322 143.976C27.609 144.729 27.1902 145.417 26.5106 145.575C26.4082 145.603 26.3152 145.621 26.2128 145.621ZM25.6822 140.908C24.9841 140.908 24.4069 140.35 24.4069 139.653C24.4069 138.872 24.9747 138.305 25.6822 138.305C26.3803 138.305 26.9574 138.872 26.9574 139.579C26.9574 140.323 26.3896 140.908 25.6822 140.908ZM25.7287 136.167C25.0306 136.167 24.4535 135.6 24.4535 134.894C24.4628 134.104 25.0306 133.546 25.7287 133.546C26.4362 133.546 27.004 134.122 27.004 134.829C26.9947 135.591 26.4269 136.167 25.7287 136.167ZM25.7008 131.408C25.0027 131.408 24.4349 130.841 24.4255 130.143C24.4162 129.372 24.9747 128.796 25.6822 128.786C26.3989 128.786 26.9668 129.344 26.9761 130.041C26.9854 130.831 26.4176 131.408 25.7008 131.408C25.7101 131.408 25.7101 131.408 25.7008 131.408ZM25.6356 126.657C24.9468 126.657 24.379 126.109 24.3604 125.412C24.3511 124.622 24.9096 124.045 25.617 124.036C26.3152 124.017 26.8923 124.584 26.9016 125.291C26.9202 126.063 26.3617 126.648 25.6543 126.657C25.6543 126.657 25.645 126.657 25.6356 126.657ZM25.5333 121.907C24.8444 121.907 24.2859 121.359 24.2673 120.671C24.2487 119.881 24.8072 119.295 25.5146 119.286C26.2128 119.276 26.7992 119.825 26.8085 120.531C26.8271 121.303 26.2779 121.889 25.5705 121.907C25.5612 121.907 25.5426 121.907 25.5333 121.907ZM25.4029 117.157C24.7141 117.157 24.1556 116.609 24.137 115.921C24.1091 115.149 24.6583 114.563 25.3657 114.536C26.0638 114.508 26.6596 115.056 26.6782 115.763C26.6968 116.553 26.1476 117.138 25.4402 117.157C25.4309 117.157 25.4122 117.157 25.4029 117.157ZM25.254 112.407C24.5745 112.407 24.0067 111.868 23.988 111.18C23.9601 110.399 24.5093 109.813 25.2168 109.785C25.9056 109.767 26.5106 110.306 26.5293 111.012C26.5572 111.793 26.008 112.379 25.3005 112.407C25.2819 112.407 25.2633 112.407 25.254 112.407ZM25.0864 107.657C24.4069 107.657 23.8391 107.117 23.8205 106.429C23.7926 105.658 24.3325 105.063 25.0399 105.035C25.7473 105.007 26.3338 105.556 26.3617 106.253C26.3896 107.043 25.8404 107.629 25.1423 107.657C25.1144 107.657 25.0958 107.657 25.0864 107.657ZM24.9003 102.906C24.2208 102.906 23.6623 102.367 23.6343 101.688C23.6064 100.898 24.1556 100.313 24.8537 100.285C25.5426 100.257 26.1476 100.805 26.1662 101.512C26.1942 102.283 25.6543 102.878 24.9468 102.906C24.9375 102.906 24.9189 102.906 24.9003 102.906ZM24.7141 98.156C24.0346 98.156 23.4761 97.6169 23.4482 96.9382C23.4202 96.1574 23.9601 95.5624 24.6676 95.5345C25.375 95.5067 25.9614 96.0551 25.9894 96.7523C26.0173 97.5332 25.4774 98.1281 24.77 98.156C24.7513 98.156 24.7327 98.156 24.7141 98.156ZM24.5093 93.4058C23.8298 93.4058 23.2713 92.8666 23.2434 92.188C23.2061 91.4164 23.746 90.8215 24.4535 90.7843C25.1609 90.7564 25.7473 91.2956 25.7846 91.9928C25.8218 92.7829 25.2726 93.3779 24.5745 93.4058C24.5466 93.4058 24.5279 93.4058 24.5093 93.4058ZM24.3138 88.6555C23.6343 88.6555 23.0758 88.1164 23.0479 87.4378C23.0107 86.6662 23.5506 86.0713 24.258 86.0341C24.9654 85.9969 25.5519 86.5453 25.5891 87.2425C25.6263 88.0327 25.0771 88.6276 24.379 88.6555C24.3418 88.6555 24.3325 88.6555 24.3138 88.6555ZM24.1091 83.9053C23.4295 83.9053 22.871 83.3661 22.8431 82.6875C22.8059 81.9159 23.3458 81.321 24.0532 81.2838C24.7607 81.2466 25.3471 81.7951 25.3843 82.4923C25.4122 83.2824 24.8724 83.8774 24.1649 83.9053C24.137 83.9053 24.1184 83.9053 24.1091 83.9053ZM23.895 79.155C23.2154 79.155 22.6569 78.6159 22.629 77.9373C22.5918 77.1657 23.1317 76.5708 23.8391 76.5336C24.5466 76.4964 25.133 77.0449 25.1702 77.7421C25.2075 78.5322 24.6583 79.1272 23.9601 79.155C23.9322 79.155 23.9136 79.155 23.895 79.155ZM23.6902 74.4141C23.0107 74.4141 22.4522 73.8749 22.4242 73.1963C22.387 72.4248 22.9269 71.8298 23.6343 71.7926C24.3325 71.7647 24.9282 72.3039 24.9654 73.0011C25.0027 73.7913 24.4535 74.3862 23.7553 74.4141C23.7274 74.4141 23.7088 74.4141 23.6902 74.4141ZM23.4947 69.6639C22.8152 69.6639 22.2567 69.1247 22.2287 68.4461C22.1915 67.6745 22.7314 67.0796 23.4388 67.0424C24.1463 67.0052 24.7327 67.5537 24.77 68.2509C24.8072 69.041 24.258 69.636 23.5599 69.6639C23.5319 69.6639 23.5133 69.6639 23.4947 69.6639ZM200.076 68.2788C199.397 68.2788 198.838 67.7396 198.81 67.061C198.782 66.2801 199.322 65.6852 200.03 65.6573C200.746 65.6294 201.324 66.1779 201.351 66.8751C201.379 67.6559 200.839 68.2509 200.132 68.2788C200.104 68.2788 200.095 68.2788 200.076 68.2788ZM23.2899 64.9136C22.6104 64.9136 22.0519 64.3744 22.024 63.6958C21.996 62.915 22.5359 62.32 23.2434 62.2921C23.9508 62.2643 24.5372 62.8127 24.5652 63.5099C24.5931 64.2908 24.0532 64.8857 23.3458 64.9136C23.3178 64.9136 23.3085 64.9136 23.2899 64.9136ZM199.881 63.5192C199.192 63.5192 198.633 62.9708 198.615 62.2829C198.615 62.2178 201.156 62.1155 201.156 62.1155L199.881 62.1713L201.156 62.1248C201.175 62.9243 200.625 63.5099 199.927 63.5285C199.909 63.5192 199.899 63.5192 199.881 63.5192ZM23.1131 60.1634C22.4242 60.1634 21.8564 59.6149 21.8378 58.927C21.8099 58.1554 22.3591 57.5605 23.0665 57.5419C23.7646 57.514 24.3604 58.0625 24.379 58.769C24.3976 59.5591 23.8484 60.1448 23.141 60.1634C23.141 60.1634 23.1224 60.1634 23.1131 60.1634ZM199.713 58.769C199.024 58.769 198.466 58.2205 198.447 57.5326C198.419 56.7703 198.959 56.1754 199.667 56.1475C200.383 56.1196 200.96 56.6681 200.988 57.3653C201.007 58.1647 200.458 58.7504 199.76 58.769C199.732 58.769 199.722 58.769 199.713 58.769ZM23.0293 55.4131C22.3311 55.4131 21.754 54.8461 21.754 54.1396C21.7447 53.368 22.3125 52.7917 23.02 52.7917C23.7367 52.801 24.2952 53.3494 24.3045 54.0559C24.3045 54.8461 23.7367 55.4131 23.0293 55.4131ZM199.546 54.0094C198.866 54.0094 198.308 53.4703 198.28 52.7917C198.261 51.9922 198.81 51.4066 199.508 51.388C200.234 51.388 200.793 51.9364 200.812 52.6243C200.839 53.3866 200.3 53.9815 199.592 54.0094C199.583 54.0094 199.564 54.0094 199.546 54.0094ZM23.1224 50.6629C22.3684 50.635 21.8192 50.0401 21.8471 49.3429C21.8843 48.5527 22.4801 48.0042 23.1782 48.0414C23.8763 48.0786 24.4162 48.6735 24.3883 49.3707C24.3604 50.1237 23.8019 50.6629 23.1224 50.6629ZM199.406 49.2499C198.717 49.2499 198.149 48.7014 198.131 48.0135C198.112 47.2327 198.661 46.647 199.369 46.6284C200.085 46.6284 200.653 47.1769 200.672 47.8648C200.691 48.6457 200.141 49.2313 199.434 49.2499C199.425 49.2499 199.415 49.2499 199.406 49.2499ZM23.4947 45.9219C22.6476 45.829 22.145 45.1969 22.2287 44.5089C22.3218 43.7281 22.9641 43.2261 23.6529 43.3191C24.3511 43.4027 24.8444 44.0349 24.7607 44.7321C24.6769 45.4478 24.1277 45.9219 23.4947 45.9219ZM199.276 44.4997C198.578 44.4997 198.01 43.9419 198 43.2447C197.982 42.4824 198.531 41.8968 199.238 41.8782C199.955 41.8782 200.523 42.4267 200.542 43.1146C200.551 43.914 199.992 44.4904 199.294 44.4997C199.294 44.4997 199.285 44.4997 199.276 44.4997ZM24.3232 41.2461C23.3365 41.0415 22.9176 40.3536 23.0851 39.675C23.2713 38.9128 23.9601 38.4945 24.6396 38.6618C25.3192 38.8291 25.738 39.517 25.5705 40.1956C25.4122 40.8649 24.891 41.2461 24.3232 41.2461ZM199.183 39.7401C198.494 39.7401 197.935 39.1917 197.917 38.5037C197.907 37.7043 198.466 37.1279 199.164 37.1187C199.871 37.1187 200.439 37.6764 200.458 38.3736C200.476 39.1359 199.927 39.7215 199.22 39.7401C199.201 39.7401 199.192 39.7401 199.183 39.7401ZM25.8777 36.7747C25.6915 36.7747 25.5053 36.7375 25.3285 36.6539C24.6955 36.3471 24.4255 35.5941 24.7327 34.962C25.0771 34.2462 25.8404 33.9859 26.4734 34.2927C27.1064 34.5994 27.367 35.3617 27.0598 35.9938C26.8085 36.5051 26.3524 36.7747 25.8777 36.7747ZM199.117 34.9806C198.419 34.9806 197.851 34.4228 197.842 33.7256C197.842 32.9262 198.41 32.3591 199.117 32.3591C199.816 32.3591 200.393 32.9262 200.393 33.6327C200.402 34.3949 199.843 34.9713 199.136 34.9806C199.136 34.9806 199.127 34.9806 199.117 34.9806ZM28.5027 32.8332C28.1955 32.8332 27.8883 32.7217 27.637 32.4986C27.125 32.0245 27.0878 31.2157 27.5718 30.7044C28.1117 30.1281 28.9122 30.1002 29.4242 30.5836C29.9362 31.067 29.9641 31.8664 29.4893 32.3777C29.1822 32.7031 28.8471 32.8332 28.5027 32.8332ZM199.117 30.2303C198.419 30.2303 197.842 29.6633 197.842 28.9568C197.842 28.1759 198.41 27.6089 199.117 27.6089C199.816 27.6089 200.393 28.1759 200.393 28.8824C200.393 29.654 199.825 30.2303 199.117 30.2303ZM32.2633 29.9886C31.8072 29.9886 31.3603 29.7376 31.1276 29.3007C30.8018 28.6779 31.0532 27.9156 31.6768 27.5903C32.375 27.2277 33.1383 27.4787 33.4641 28.1016C33.7899 28.7244 33.5385 29.4867 32.9149 29.812C32.6635 29.9422 32.4587 29.9886 32.2633 29.9886ZM36.7406 28.4455C36.1542 28.4455 35.6236 28.0365 35.4933 27.4322C35.3444 26.7443 35.7912 26.075 36.48 25.9263C37.2619 25.7683 37.9321 26.2145 38.0718 26.9024C38.2114 27.5903 37.7646 28.2596 37.0757 28.399C36.9175 28.4362 36.8244 28.4455 36.7406 28.4455ZM55.7392 28.0179C55.0411 28.0179 54.4733 27.4508 54.4639 26.7536C54.4546 26.0564 55.0225 25.4801 55.7299 25.4708C56.5211 25.4708 57.0889 26.0378 57.0889 26.7443C57.0889 27.4508 56.5211 28.0179 55.8137 28.0179C55.7392 28.0179 55.7392 28.0179 55.7392 28.0179ZM51.057 28.0179C50.2658 28.0086 49.698 27.4415 49.7073 26.735C49.7073 26.0378 50.2844 25.4708 50.9826 25.4708C51.7645 25.4708 52.3323 26.0378 52.3323 26.7443C52.3323 27.4508 51.7552 28.0179 51.057 28.0179ZM46.3004 27.9807C45.4999 27.9714 44.9414 27.3951 44.9507 26.6886C44.96 25.9914 45.5278 25.4336 46.226 25.4336C47.0172 25.4429 47.585 26.01 47.5757 26.7165C47.5664 27.4137 46.9986 27.9807 46.3004 27.9807ZM60.4958 27.9714C59.7977 27.9714 59.2299 27.4137 59.2206 26.7165C59.2113 26.0193 59.7698 25.4429 60.4772 25.4336C61.2591 25.4243 61.8362 25.9821 61.8456 26.6886C61.8549 27.3858 61.2964 27.9621 60.5889 27.9714C60.5051 27.9714 60.5051 27.9714 60.4958 27.9714ZM41.46 27.9342C40.7712 27.9342 40.2034 27.3858 40.1848 26.6886C40.1662 25.9914 40.7247 25.4057 41.4321 25.3964C42.2233 25.3871 42.8004 25.9356 42.8098 26.6421C42.8284 27.3393 42.2699 27.9249 41.5624 27.9342C41.4786 27.9342 41.4693 27.9342 41.46 27.9342ZM65.2618 27.8877C64.5729 27.8877 64.0051 27.3393 63.9865 26.6421C63.9679 25.9449 64.5264 25.3592 65.2338 25.3499C66.0344 25.3407 66.6022 25.8891 66.6115 26.5956C66.6301 27.2928 66.0716 27.8785 65.3642 27.8877C65.2804 27.8877 65.2711 27.8877 65.2618 27.8877ZM70.0184 27.7483C69.3389 27.7483 68.771 27.2091 68.7524 26.5212C68.7245 25.824 69.2737 25.2291 69.9811 25.2105C70.7537 25.1826 71.3495 25.7218 71.3774 26.4283C71.4053 27.1255 70.8561 27.7204 70.158 27.7483C70.0463 27.7483 70.037 27.7483 70.0184 27.7483ZM74.775 27.5345C74.1048 27.5345 73.5463 27.0139 73.5091 26.3353C73.4718 25.6381 74.0117 25.0339 74.7098 24.9967C75.5011 24.9595 76.0968 25.4987 76.134 26.1959C76.1713 26.8931 75.6221 27.488 74.9239 27.5252C74.8215 27.5345 74.8029 27.5345 74.775 27.5345ZM79.5316 27.2463C78.8707 27.2463 78.3122 26.735 78.2657 26.0657C78.2191 25.3685 78.7497 24.755 79.4478 24.7085C80.2298 24.6528 80.8348 25.1733 80.8814 25.8705C80.9372 26.5677 80.4066 27.1813 79.7085 27.2277C79.5875 27.2463 79.5596 27.2463 79.5316 27.2463ZM84.2789 26.8559C83.6273 26.8559 83.0782 26.3632 83.013 25.7032C82.9478 25.006 83.4598 24.3832 84.1579 24.3181C84.9398 24.2437 85.5542 24.755 85.6287 25.4522C85.6938 26.1494 85.1819 26.7722 84.4837 26.8373C84.3627 26.8559 84.3162 26.8559 84.2789 26.8559ZM89.0076 26.3353C88.3747 26.3353 87.8348 25.8705 87.751 25.2291C87.6579 24.5319 88.1513 23.8998 88.8494 23.8068C89.6406 23.7139 90.2736 24.2065 90.3574 24.9037C90.4411 25.6009 89.9478 26.2331 89.2497 26.3167C89.1193 26.326 89.0635 26.3353 89.0076 26.3353ZM93.7177 25.6195C93.1127 25.6195 92.5821 25.1919 92.4704 24.5784C92.3494 23.8905 92.8055 23.2305 93.4943 23.1003C94.2762 22.9702 94.9371 23.4257 95.0581 24.1229C95.1792 24.8108 94.7137 25.4708 94.0249 25.5916C93.8667 25.6195 93.7922 25.6195 93.7177 25.6195ZM199.006 25.4801C198.335 25.4801 197.777 24.9595 197.74 24.2809C197.693 23.5 198.233 22.8958 198.931 22.8586C199.629 22.8214 200.234 23.3606 200.272 24.0578C200.318 24.8387 199.778 25.4429 199.08 25.4801C199.052 25.4801 199.034 25.4801 199.006 25.4801ZM98.3719 24.6156C97.8041 24.6156 97.2922 24.2344 97.1432 23.6674C96.9664 22.9888 97.3759 22.2916 98.0555 22.1149C98.8001 21.9104 99.4983 22.3102 99.6844 22.9888C99.8706 23.6674 99.4703 24.3646 98.7908 24.5505C98.586 24.6063 98.4837 24.6156 98.3719 24.6156ZM102.877 23.0817C102.393 23.0817 101.937 22.8029 101.723 22.3381C101.425 21.6966 101.714 20.9437 102.347 20.6555C103.054 20.3301 103.808 20.609 104.106 21.2411C104.404 21.8733 104.125 22.6355 103.482 22.9237C103.231 23.0445 103.054 23.0817 102.877 23.0817ZM198.419 20.7763C197.842 20.7763 197.321 20.3859 197.181 19.8003C197.004 19.0287 197.433 18.3501 198.121 18.192C198.801 18.0433 199.49 18.4616 199.639 19.1495C199.816 19.8932 199.397 20.5811 198.708 20.7484C198.615 20.7577 198.522 20.7763 198.419 20.7763ZM106.526 20.2C106.321 20.2 106.117 20.1535 105.93 20.0512C105.307 19.7166 105.074 18.9543 105.409 18.3315C105.754 17.6622 106.517 17.4112 107.141 17.7272C107.764 18.0433 108.016 18.8056 107.699 19.4377C107.42 19.9583 106.982 20.2 106.526 20.2ZM196.567 16.4444C196.176 16.4444 195.794 16.2678 195.552 15.9331C195.087 15.3196 195.199 14.5201 195.766 14.1018C196.325 13.6835 197.125 13.7951 197.544 14.3528C198.01 14.9849 197.889 15.7844 197.321 16.2027C197.097 16.3607 196.828 16.4444 196.567 16.4444ZM108.369 16.0354C108.006 16.0354 107.652 15.8866 107.401 15.5892C106.945 15.05 107.01 14.2506 107.55 13.7951C108.164 13.2838 108.965 13.3581 109.412 13.8973C109.859 14.4365 109.784 15.2359 109.244 15.6821C108.946 15.9331 108.658 16.0354 108.369 16.0354ZM112.577 13.888C112.046 13.888 111.553 13.5534 111.376 13.0235C111.152 12.3635 111.506 11.6384 112.167 11.4153C112.921 11.1643 113.638 11.5268 113.861 12.1961C114.085 12.8655 113.722 13.5812 113.051 13.8043C112.856 13.8694 112.716 13.888 112.577 13.888ZM192.937 13.4883C192.75 13.4883 192.555 13.4418 192.369 13.3581C191.68 13.0235 191.41 12.2612 191.717 11.6291C192.024 10.997 192.788 10.7367 193.411 11.0434C194.128 11.3967 194.379 12.159 194.063 12.7911C193.849 13.228 193.402 13.4883 192.937 13.4883ZM117.184 12.6888C116.589 12.6888 116.058 12.2705 115.937 11.6663C115.797 10.9784 116.244 10.3091 116.933 10.1696C117.706 10.0116 118.376 10.4578 118.515 11.1457C118.655 11.8336 118.208 12.5029 117.519 12.6424C117.352 12.6888 117.268 12.6888 117.184 12.6888ZM188.45 11.9823C187.435 11.7871 186.988 11.1085 187.137 10.4206C187.286 9.73271 187.957 9.3051 188.645 9.45383C189.409 9.62116 189.837 10.2998 189.688 10.9784C189.558 11.5733 189.036 11.9823 188.45 11.9823ZM121.913 11.9173C121.289 11.9173 120.731 11.4618 120.638 10.8203C120.545 10.1231 121.01 9.49102 121.708 9.38876C122.453 9.28651 123.114 9.7699 123.207 10.4671C123.3 11.1643 122.835 11.8057 122.136 11.8987C122.034 11.908 121.969 11.9173 121.913 11.9173ZM126.614 11.3874C125.962 11.3874 125.413 10.8947 125.348 10.2347C125.283 9.5375 125.795 8.91467 126.493 8.84959C127.284 8.77523 127.898 9.2958 127.964 9.993C128.029 10.6902 127.507 11.313 126.809 11.3688C126.688 11.3874 126.651 11.3874 126.614 11.3874ZM183.758 11.2294C182.837 11.1364 182.334 10.5043 182.409 9.81638C182.483 9.11918 183.116 8.6172 183.814 8.69156C184.596 8.77523 185.099 9.40735 185.024 10.1046C184.95 10.746 184.401 11.2294 183.758 11.2294ZM131.398 11.0156C130.737 11.0156 130.16 10.5043 130.114 9.83497C130.067 9.13777 130.579 8.53353 131.277 8.48705C132.022 8.44057 132.646 8.96115 132.692 9.65834C132.739 10.3555 132.227 10.9598 131.529 11.0063C131.454 11.0063 131.426 11.0156 131.398 11.0156ZM179.02 10.8482C178.164 10.8017 177.633 10.2068 177.671 9.50031C177.708 8.80311 178.313 8.26395 179.011 8.30113C179.793 8.34761 180.333 8.94255 180.296 9.63975C180.249 10.3184 179.691 10.8482 179.02 10.8482ZM136.108 10.7553C135.429 10.7553 134.87 10.2161 134.842 9.5375C134.815 8.8403 135.354 8.24536 136.062 8.21747C136.825 8.18028 137.43 8.71945 137.467 9.42594C137.505 10.1231 136.965 10.7181 136.257 10.7553C136.146 10.7553 136.127 10.7553 136.108 10.7553ZM174.273 10.6716C173.463 10.653 172.905 10.0767 172.914 9.37017C172.933 8.68227 173.491 8.12451 174.189 8.12451C175.009 8.1431 175.558 8.72875 175.539 9.43524C175.52 10.1231 174.953 10.6716 174.273 10.6716ZM169.517 10.5879C168.716 10.5786 168.157 10.0023 168.167 9.2958C168.176 8.5986 168.744 8.04084 169.442 8.04084C170.252 8.05944 170.81 8.63579 170.801 9.33298C170.773 10.0395 170.205 10.5879 169.517 10.5879ZM140.874 10.5879C140.186 10.5879 139.627 10.0395 139.599 9.35158C139.581 8.65438 140.13 8.06873 140.837 8.05014C141.638 8.05014 142.205 8.58931 142.224 9.2865C142.243 9.9837 141.694 10.5693 140.986 10.5879C140.893 10.5879 140.884 10.5879 140.874 10.5879ZM164.751 10.5136C163.95 10.5043 163.392 9.92793 163.401 9.22143C163.41 8.52424 164.006 7.96648 164.685 7.96648C165.467 7.97577 166.035 8.55212 166.026 9.25862C166.017 9.95582 165.449 10.5136 164.751 10.5136ZM145.631 10.4857C144.933 10.4857 144.374 9.92793 144.356 9.23073C144.346 8.53353 144.905 7.95718 145.612 7.93859C146.404 7.93859 146.971 8.48705 146.981 9.18425C146.999 9.88145 146.441 10.4671 145.733 10.4764C145.64 10.4857 145.64 10.4857 145.631 10.4857ZM159.994 10.4578C159.203 10.4485 158.635 9.88145 158.635 9.17495C158.644 8.47776 159.212 7.9107 159.91 7.9107C160.711 7.92 161.269 8.49635 161.26 9.20284C161.26 9.90004 160.692 10.4578 159.994 10.4578ZM150.397 10.4299C149.699 10.4299 149.131 9.86286 149.122 9.16566C149.112 8.46846 149.68 7.89211 150.388 7.88281C151.179 7.88281 151.747 8.44987 151.747 9.15636C151.747 9.85356 151.179 10.4299 150.471 10.4299C150.397 10.4299 150.397 10.4299 150.397 10.4299ZM155.237 10.4299C154.455 10.4299 153.888 9.86286 153.888 9.15636C153.888 8.45916 154.455 7.88281 155.163 7.88281C155.954 7.88281 156.522 8.45916 156.513 9.16566C156.503 9.86286 155.935 10.4299 155.237 10.4299Z" fill="#FDB49D"/>
<path fill-rule="evenodd" clip-rule="evenodd" d="M16.6628 57.7461H182.875C188.311 57.7461 192.723 62.1524 192.723 67.5812V104.96C192.723 110.389 188.311 114.795 182.875 114.795H16.6628C11.2267 114.795 6.81445 110.389 6.81445 104.96V67.5812C6.81445 62.1524 11.2267 57.7461 16.6628 57.7461Z" fill="white"/>
<path fill-rule="evenodd" clip-rule="evenodd" d="M75.7066 101.213C75.5018 100.061 75.418 98.9451 75.3901 97.8203H19.9582C18.1524 97.8203 16.6816 99.2798 16.6816 101.092C16.6816 102.896 18.1431 104.365 19.9582 104.365H75.7997C75.8276 103.314 75.8648 102.264 75.7066 101.213Z" fill="#EC663D"/>
<path fill-rule="evenodd" clip-rule="evenodd" d="M86.6073 97.832H75.3906C75.4186 98.9568 75.493 100.072 75.7071 101.225C75.8654 102.276 75.8281 103.326 75.8002 104.376H86.6073C88.4132 104.376 89.8839 102.917 89.8839 101.104C89.8746 99.2915 88.4132 97.832 86.6073 97.832Z" fill="#FDB49D"/>
<path fill-rule="evenodd" clip-rule="evenodd" d="M20.0134 76.8516C18.2075 76.8516 16.7461 78.311 16.7461 80.1144C16.7461 81.9179 18.2075 83.3866 20.0134 83.3866H33.613C33.5479 81.2021 33.4827 79.0175 33.3245 76.8516H20.0134Z" fill="#EC663D"/>
<path fill-rule="evenodd" clip-rule="evenodd" d="M86.6063 76.8516H33.334C33.4922 79.0175 33.5574 81.2021 33.6225 83.3866H86.6063C88.4121 83.3866 89.8736 81.9272 89.8736 80.1144C89.8736 78.311 88.4121 76.8516 86.6063 76.8516Z" fill="#FDB49D"/>
<path fill-rule="evenodd" clip-rule="evenodd" d="M19.9675 87.3555C18.1524 87.3555 16.6816 88.8242 16.6816 90.6369C16.6816 92.4497 18.1524 93.9184 19.9675 93.9184H57.6109C57.22 91.7525 57.1828 89.5307 56.7546 87.3648H19.9675V87.3555Z" fill="#EC663D"/>
<path fill-rule="evenodd" clip-rule="evenodd" d="M86.5611 87.3555H56.7461C57.1743 89.5214 57.2208 91.7432 57.6025 93.9091H86.5611C88.3762 93.9091 89.8377 92.4404 89.8377 90.6276C89.8377 88.8242 88.3762 87.3555 86.5611 87.3555Z" fill="#FDB49D"/>
<path fill-rule="evenodd" clip-rule="evenodd" d="M74.9611 95.043C78.2935 95.043 81.0023 97.7388 81.0023 101.067C81.0023 104.395 78.2935 107.091 74.9611 107.091C71.6194 107.091 68.9199 104.395 68.9199 101.067C68.9199 97.7388 71.6287 95.043 74.9611 95.043Z" fill="#EC663D"/>
<path fill-rule="evenodd" clip-rule="evenodd" d="M32.4318 74.0703C35.7642 74.0703 38.473 76.7661 38.473 80.0941C38.473 83.4221 35.7736 86.1179 32.4318 86.1179C29.0994 86.1179 26.3906 83.4221 26.3906 80.0941C26.3999 76.7661 29.0994 74.0703 32.4318 74.0703Z" fill="#EC663D"/>
<path fill-rule="evenodd" clip-rule="evenodd" d="M55.4049 83.1523C59.5285 83.1523 62.8702 86.5082 62.8702 90.6542C62.8702 94.7909 59.5285 98.156 55.4049 98.156C51.2812 98.156 47.9395 94.8002 47.9395 90.6542C47.9302 86.5175 51.2812 83.1523 55.4049 83.1523Z" fill="#EC663D"/>
<path d="M182.745 113.486H16.542C10.5938 113.486 5.74414 108.652 5.74414 102.712V65.3326C5.74414 59.3925 10.5845 54.5586 16.542 54.5586H182.754C188.702 54.5586 193.542 59.3925 193.542 65.3326V102.712C193.542 108.652 188.702 113.486 182.745 113.486ZM16.542 56.4364C11.6271 56.4364 7.63376 60.4244 7.63376 65.3326V102.712C7.63376 107.62 11.6271 111.608 16.542 111.608H182.754C187.669 111.608 191.662 107.62 191.662 102.712V65.3326C191.662 60.4336 187.669 56.4364 182.754 56.4364H16.542Z" fill="#EC663D"/>
<path d="M148.153 68.2773H7V70.1644H148.153V68.2773Z" fill="#EC663D"/>
<path fill-rule="evenodd" clip-rule="evenodd" d="M138.8 26.1016H227.528C232.964 26.1016 237.376 30.5079 237.376 35.9367V80.3622C237.376 85.791 232.964 90.1973 227.528 90.1973H138.8C133.363 90.1973 128.951 85.791 128.951 80.3622V35.9367C128.942 30.5079 133.354 26.1016 138.8 26.1016Z" fill="#EC663D"/>
<path fill-rule="evenodd" clip-rule="evenodd" d="M198.495 42.1758H221.366C226.802 42.1758 231.214 46.5821 231.214 52.0109V74.5537C231.214 79.9825 226.802 84.3888 221.366 84.3888H198.495C193.059 84.3888 188.646 79.9825 188.646 74.5537V52.0109C188.646 46.5728 193.049 42.1758 198.495 42.1758Z" fill="#FDB49D"/>
<path d="M229.204 89.5492H140.476C134.527 89.5492 129.678 84.7153 129.678 78.7659V34.3497C129.678 28.4096 134.518 23.5664 140.476 23.5664H229.204C235.152 23.5664 239.992 28.4003 239.992 34.3497V78.7752C240.002 84.7153 235.152 89.5492 229.204 89.5492ZM140.476 25.4535C135.57 25.4535 131.567 29.4415 131.567 34.3497V78.7752C131.567 83.6835 135.561 87.6714 140.476 87.6714H229.204C234.109 87.6714 238.112 83.6835 238.112 78.7752V34.3497C238.112 29.4415 234.119 25.4535 229.204 25.4535H140.476Z" fill="#EC663D"/>
<path fill-rule="evenodd" clip-rule="evenodd" d="M56.6151 104.058C56.6151 104.058 53.2547 97.2815 52.3146 94.2975C51.3837 91.3135 52.2867 85.3641 55.9821 87.9763C59.6869 90.5791 65.7839 101.651 66.8451 109.905C67.8411 117.668 66.6217 130.691 66.3797 141.131C66.1749 149.953 67.0033 156.98 67.0033 156.98C67.0033 156.98 75.0272 157.482 81.7759 155.028C88.5245 152.574 101.854 144.728 101.854 144.728C101.854 144.728 97.0511 132.829 104.507 127.633C113.806 121.154 122.091 120.996 122.091 120.996L121.542 114.591C121.542 114.591 112.913 113.708 110.371 107.879C107.821 102.05 109.59 99.2151 109.59 99.2151C109.59 99.2151 108.426 97.7184 107.635 95.8593C106.844 94.0001 109.45 94.7437 110.837 93.5167C112.224 92.2896 113.806 89.0639 113.806 89.0639C113.806 89.0639 105.466 77.7786 116.543 70.8717C127.62 63.9741 163.253 59.9582 168.037 75.6312C172.822 91.3042 165.189 116.831 171.007 124.258C176.825 131.695 177.337 131.361 177.337 131.361C177.337 131.361 178.025 105.722 179.133 99.6706C180.241 93.6189 179.962 86.2193 186.086 84.9179C192.221 83.6165 201.306 81.4133 204.219 81.1716C207.124 80.9299 211.405 81.6829 210 83.7466C208.594 85.8103 208.045 88.1994 208.045 88.1994C208.045 88.1994 213.342 88.2273 216.953 87.2605C220.565 86.303 224.447 83.7931 225.312 85.7731C226.178 87.7625 225.312 89.0546 225.312 89.0546C225.312 89.0546 231.167 87.716 229.529 90.3003C227.891 92.8845 226.094 94.8274 226.094 94.8274C226.094 94.8274 226.681 97.6813 222.892 99.4289C219.094 101.177 210.242 102.645 206.481 103.259C202.721 103.863 198.671 105.211 198.671 105.211L201.957 141.902C201.957 141.902 223.655 150.213 219.308 168.284C214.952 186.365 199.695 194.666 199.695 194.666C199.695 194.666 193.887 209.177 183.285 208.87C172.682 208.564 165.077 202.001 165.077 202.001C165.077 202.001 158.896 204.613 154.056 203.172C149.216 201.731 147.494 199.816 147.494 199.816H110.213C110.213 199.816 106.723 197.845 104.507 194.666C102.292 191.487 101.612 185.919 101.612 185.919C101.612 185.919 83.9261 188.494 66.8451 186.932C49.7548 185.379 36.6485 180.583 36.6019 164.919C36.5554 149.255 41.1351 126.517 41.1351 126.517C41.1351 126.517 34.9543 121.247 37.7748 116.915C40.5952 112.583 41.2934 113.243 41.2934 113.243C41.2934 113.243 42.0939 108.818 43.4809 108.167C44.8678 107.516 46.3758 107.702 46.3758 107.702C46.3758 107.702 46.9157 102.859 50.0526 102.627C53.1803 102.422 56.6151 104.058 56.6151 104.058Z" fill="white"/>
<path fill-rule="evenodd" clip-rule="evenodd" d="M51.7937 3.23438H134.779C140.215 3.23438 144.627 7.64067 144.627 13.0695V54.9572C144.627 60.386 140.215 64.7923 134.779 64.7923H51.7937C46.3575 64.7923 41.9453 60.386 41.9453 54.9572V13.0695C41.9453 7.64067 46.3482 3.23438 51.7937 3.23438Z" fill="white"/>
<path d="M146.264 13.1992H43.582V15.0863H146.264V13.1992Z" fill="#FDB49D"/>
<path d="M135.346 45.1708H82.4929C81.9716 45.1708 81.5527 44.7524 81.5527 44.2319C81.5527 43.7113 81.9716 43.293 82.4929 43.293H135.356C135.877 43.293 136.296 43.7113 136.296 44.2319C136.296 44.7431 135.868 45.1708 135.346 45.1708Z" fill="#EC663D"/>
<path d="M86.5142 53.1189C86.2349 53.1189 85.9557 52.9981 85.7695 52.7564C85.4437 52.3474 85.5182 51.7524 85.9278 51.4364L87.9663 49.8374L85.8812 48.3594C85.453 48.0619 85.3599 47.467 85.6578 47.0486C85.9557 46.621 86.5514 46.5281 86.9703 46.8255L90.0886 49.038C90.3307 49.2053 90.4796 49.4842 90.4889 49.7817C90.4982 50.0791 90.3586 50.358 90.1259 50.5439L87.0913 52.9237C86.9238 53.0538 86.719 53.1189 86.5142 53.1189Z" fill="#EC663D"/>
<path d="M135.346 50.9911H95.1335C94.6122 50.9911 94.1934 50.5727 94.1934 50.0522C94.1934 49.5316 94.6122 49.1133 95.1335 49.1133H135.355C135.877 49.1133 136.296 49.5316 136.296 50.0522C136.296 50.5635 135.867 50.9911 135.346 50.9911Z" fill="#EC663D"/>
<path d="M135.345 32.5458H127.051C126.53 32.5458 126.111 32.1274 126.111 31.6069C126.111 31.0863 126.53 30.668 127.051 30.668H135.345C135.867 30.668 136.285 31.0863 136.285 31.6069C136.285 32.1274 135.867 32.5458 135.345 32.5458Z" fill="#EC663D"/>
<path d="M106.127 39.0145H82.4831C81.9619 39.0145 81.543 38.5962 81.543 38.0756C81.543 37.555 81.9619 37.1367 82.4831 37.1367H106.127C106.648 37.1367 107.067 37.555 107.067 38.0756C107.067 38.5962 106.648 39.0145 106.127 39.0145Z" fill="#EC663D"/>
<path d="M135.346 45.1708H82.4929C81.9716 45.1708 81.5527 44.7524 81.5527 44.2319C81.5527 43.7113 81.9716 43.293 82.4929 43.293H135.356C135.877 43.293 136.296 43.7113 136.296 44.2319C136.296 44.7431 135.868 45.1708 135.346 45.1708Z" fill="#EC663D"/>
<path d="M135.262 25.8622H82.4089C81.8876 25.8622 81.4688 25.4438 81.4688 24.9233C81.4688 24.4027 81.8876 23.9844 82.4089 23.9844H135.272C135.793 23.9844 136.212 24.4027 136.212 24.9233C136.212 25.4438 135.784 25.8622 135.262 25.8622Z" fill="#EC663D"/>
<path d="M121.477 32.5458H82.4929C81.9716 32.5458 81.5527 32.1274 81.5527 31.6069C81.5527 31.0863 81.9716 30.668 82.4929 30.668H121.477C121.998 30.668 122.417 31.0863 122.417 31.6069C122.417 32.1274 121.998 32.5458 121.477 32.5458Z" fill="#EC663D"/>
<path d="M135.346 39.0145H113.434C112.913 39.0145 112.494 38.5962 112.494 38.0756C112.494 37.555 112.913 37.1367 113.434 37.1367H135.346C135.868 37.1367 136.287 37.555 136.287 38.0756C136.296 38.5962 135.868 39.0145 135.346 39.0145Z" fill="#EC663D"/>
<path d="M135.346 45.1708H82.4929C81.9716 45.1708 81.5527 44.7524 81.5527 44.2319C81.5527 43.7113 81.9716 43.293 82.4929 43.293H135.356C135.877 43.293 136.296 43.7113 136.296 44.2319C136.296 44.7431 135.868 45.1708 135.346 45.1708Z" fill="#EC663D"/>
<path d="M136.689 6.30308L132.424 10.5625L133.76 11.8969L138.025 7.63744L136.689 6.30308Z" fill="#FDB49D"/>
<path d="M133.764 6.30236L132.428 7.63672L136.693 11.8961L138.029 10.5618L133.764 6.30236Z" fill="#FDB49D"/>
<path fill-rule="evenodd" clip-rule="evenodd" d="M59.3425 20.4492H68.2879C73.7241 20.4492 78.1363 24.8555 78.1363 30.2844V45.7807C78.1363 51.2096 73.7241 55.6159 68.2879 55.6159H59.3425C53.9064 55.6159 49.4941 51.2096 49.4941 45.7807V30.2844C49.4941 24.8555 53.9064 20.4492 59.3425 20.4492Z" fill="#FDB49D"/>
<path d="M234.602 37.9073H140.27C139.59 37.9073 139.041 37.3588 139.041 36.6802C139.041 36.0016 139.59 35.4531 140.27 35.4531H234.602C235.281 35.4531 235.83 36.0016 235.83 36.6802C235.84 37.3588 235.281 37.9073 234.602 37.9073Z" fill="#FDB49D"/>
<path d="M180.734 49.6299H143.221C142.541 49.6299 141.992 49.0815 141.992 48.4028C141.992 47.7242 142.541 47.1758 143.221 47.1758H180.734C181.414 47.1758 181.963 47.7242 181.963 48.4028C181.972 49.0815 181.414 49.6299 180.734 49.6299Z" fill="#FDB49D"/>
<path d="M180.818 56.6768H143.305C142.625 56.6768 142.076 56.1283 142.076 55.4497C142.076 54.7711 142.625 54.2227 143.305 54.2227H180.818C181.497 54.2227 182.047 54.7711 182.047 55.4497C182.047 56.1283 181.497 56.6768 180.818 56.6768Z" fill="#FDB49D"/>
<path d="M180.818 64.1416H143.305C142.625 64.1416 142.076 63.5932 142.076 62.9146C142.076 62.236 142.625 61.6875 143.305 61.6875H180.818C181.497 61.6875 182.047 62.236 182.047 62.9146C182.047 63.5932 181.497 64.1416 180.818 64.1416Z" fill="#FDB49D"/>
<path d="M228.453 28.1898L224.188 32.4492L225.524 33.7836L229.789 29.5242L228.453 28.1898Z" fill="#FDB49D"/>
<path d="M225.53 28.1932L224.193 29.5273L228.458 33.7874L229.794 32.4532L225.53 28.1932Z" fill="#FDB49D"/>
<path fill-rule="evenodd" clip-rule="evenodd" d="M218.452 27.9062C220.156 27.9062 221.533 29.2821 221.533 30.9832C221.533 32.6844 220.156 34.0602 218.452 34.0602C216.749 34.0602 215.371 32.6844 215.371 30.9832C215.371 29.2821 216.749 27.9062 218.452 27.9062Z" fill="#FDB49D"/>
<path d="M136.416 63.445H53.4311C47.483 63.445 42.6426 58.6111 42.6426 52.6617V10.774C42.6426 4.83391 47.483 0 53.4311 0H136.416C142.364 0 147.205 4.83391 147.205 10.774V52.6617C147.205 58.6111 142.364 63.445 136.416 63.445ZM53.4311 1.88708C48.5255 1.88708 44.5229 5.87506 44.5229 10.7833V52.671C44.5229 57.5793 48.5162 61.5672 53.4311 61.5672H136.416C141.331 61.5672 145.324 57.5793 145.324 52.671V10.774C145.324 5.87506 141.331 1.87779 136.416 1.87779H53.4311V1.88708Z" fill="#EC663D"/>
<path fill-rule="evenodd" clip-rule="evenodd" d="M18.6729 60.4531C20.3763 60.4531 21.754 61.8289 21.754 63.5301C21.754 65.2313 20.3763 66.6071 18.6729 66.6071C16.9694 66.6071 15.5918 65.2313 15.5918 63.5301C15.5918 61.8289 16.9694 60.4531 18.6729 60.4531Z" fill="#EC663D"/>
<path d="M28.6746 60.7261L24.4082 64.9844L25.744 66.3191L30.0103 62.0609L28.6746 60.7261Z" fill="#EC663D"/>
<path d="M25.7444 60.7203L24.4082 62.0547L28.6734 66.3141L30.0095 64.9798L25.7444 60.7203Z" fill="#EC663D"/>
<path fill-rule="evenodd" clip-rule="evenodd" d="M105.465 142.265C105.465 142.265 103.799 139.03 105.149 135.089C106.443 131.333 113.07 127.132 117.883 125.96C130.589 122.855 130.654 123.45 133.67 120.188C136.676 116.925 136.481 113.318 136.481 113.318C136.481 113.318 139.301 113.346 139.841 109.265C140.372 105.268 137.03 104.58 137.03 104.58C137.03 104.58 128.774 101.382 124.296 93.8892C119.819 86.3967 119.446 80.2334 119.446 80.2334L115.23 86.6291C115.23 86.6291 111.385 77.6306 119.763 73.5961C128.141 69.5617 153.236 64.514 162.275 74.219C171.313 83.9239 169.461 95.2093 169.461 95.2093C169.461 95.2093 163.401 125.821 178.369 132.588C193.337 139.356 217.12 145.231 219.233 162.01C221.923 183.354 198.764 194.788 198.764 194.788C198.764 194.788 193.067 209.615 183.759 209.689C171.22 209.801 163.364 198.608 163.364 198.608C163.364 198.608 151.486 201.397 144.533 191.581C137.579 181.773 134.48 169.8 134.684 157.474C134.889 145.157 140.074 128.368 140.074 128.368L138.119 126.89L133.586 138.436C133.586 138.436 124.278 137.971 118.897 138.436C113.526 138.91 105.465 142.265 105.465 142.265Z" fill="#EC663D"/>
<path fill-rule="evenodd" clip-rule="evenodd" d="M69.5247 161.387C69.5247 161.387 85.1164 160.699 95.393 154.518C105.66 148.336 111.459 144.682 118.683 143.595C125.906 142.498 133.762 143.204 133.762 143.204C133.762 143.204 127.191 169.624 135.094 182.768C142.996 195.913 148.144 200.635 148.144 200.635H117.352C117.352 200.635 110.957 198.171 107.978 192.445C104.99 186.71 104.543 185.343 104.543 185.343L73.9928 187.295C73.9928 187.295 64.7588 182.127 65.3173 173.872C65.8572 165.617 69.5247 161.387 69.5247 161.387Z" fill="#223549"/>
<path fill-rule="evenodd" clip-rule="evenodd" d="M122.156 94.8932C122.957 95.358 123.236 96.3805 122.77 97.1893L121.868 98.751C121.402 99.5505 120.369 99.8293 119.568 99.3645C118.768 98.8997 118.489 97.8679 118.954 97.0684L119.857 95.5067C120.322 94.7073 121.346 94.4284 122.156 94.8932Z" fill="#223549"/>
<path fill-rule="evenodd" clip-rule="evenodd" d="M176.665 128.841C177.093 117.611 177.28 107.367 178.555 96.8719C179.151 91.9543 179.96 87.0925 183.647 85.2333C186.532 83.7739 191.177 83.9877 194.891 83.1046C198.736 82.1936 201.491 80.418 205.81 80.7248C209.282 80.9758 213.415 83.151 211.386 86.7858C213.704 86.6463 216.142 86.2559 218.609 85.6424C221.96 84.8057 228.141 82.5096 227.797 87.8548C229.109 88.6078 230.729 89.1005 230.915 90.8016C231.194 93.3766 228.42 94.7245 226.894 95.8865C227.741 97.4575 226.205 98.7962 225.088 99.9024C222.733 102.245 219.642 103.407 215.817 104.169C210.492 105.229 204.768 105.471 200.467 106.874C201.537 118.643 202.776 130.254 203.911 141.957C209.301 144.226 213.648 147.488 216.794 152.202C219.829 156.757 221.988 163.115 220.648 170.561C218.414 182.99 209.571 190.91 200.132 196.218C197.265 202.697 193.839 208.935 186.179 210.562C177.168 212.477 170.391 207.838 165.495 203.841C161.809 205.235 157.732 205.495 154.334 204.491C150.974 203.506 148.265 201.572 146.05 199.657C141.302 195.567 137.533 190.631 134.805 184.654C132.162 178.862 130.049 171.509 130.049 163.18C130.049 154.851 130.961 146.894 132.841 139.819C126.195 139.429 120.228 139.949 115.034 141.297C109.914 142.627 105.623 145.025 101.574 147.358C93.6245 151.951 86.7921 156.822 75.9664 158.504C75.2869 158.606 74.505 158.606 73.9185 158.83C73.1087 159.146 72.0103 160.726 71.3773 161.618C69.2364 164.63 67.2071 168.46 67.2723 173.257C67.3654 180.062 71.3401 183.39 75.3148 186.206C86.0009 186.067 97.6365 185.072 107.978 183.743C109.477 183.548 112.214 182.804 111.916 185.053C111.739 186.411 109.347 186.401 108.22 186.532C106.461 186.736 105.148 186.838 103.622 187.024C105.13 193.978 108.527 198.895 115.034 201.452C116.039 201.842 118.478 202.325 117.249 203.748C116.952 204.101 115.285 204.333 114.457 204.24C113.079 204.082 110.436 202.428 109.365 201.703C106.405 199.685 104.18 196.571 102.719 193.178C101.965 191.431 101.127 189.553 101.164 187.359C91.1578 188.177 80.2203 189.469 69.5715 188.911C58.9133 188.354 49.8468 186.318 43.061 181.781C39.3748 179.318 37.0105 176.78 36.0052 172.03C35.0278 167.41 35.698 161.73 36.2565 156.459C37.3083 146.438 39.0583 136.621 41.0131 127.614C39.682 126.387 38.1368 125.067 37.2339 123.105C35.5025 119.322 37.0198 114.218 40.5198 113.103C40.2498 109.775 41.8323 106.949 45.2764 106.791C46.3934 104.839 47.9479 102.431 50.8522 102.198C52.6115 102.059 54.0915 102.756 55.5343 103.342C54.3614 99.8559 49.1766 94.4735 51.9226 88.8402C52.3694 87.9199 53.4492 86.6277 55.1247 86.6277C57.8614 86.6277 59.8441 89.6489 61.0356 91.4616C62.525 93.7299 63.6978 96.2212 64.6473 98.5916C66.751 103.862 68.2031 109.468 68.8361 115.798C69.5063 122.538 68.6872 129.547 68.259 136.045C67.8122 142.878 67.868 150.045 68.6685 156.375C83.2642 156.31 91.9676 149.645 101.416 144.161C99.9357 141.502 98.5022 137.895 99.5261 134.493C100.382 131.657 102.784 129.194 104.692 127.446C108.909 123.589 114.178 120.381 121.68 120.075C121.299 118.569 120.805 117.174 120.451 115.65C113.982 115.417 109.821 111.652 108.881 105.08C108.602 103.147 108.127 99.1308 110.11 99.0936C111.683 99.0657 111.562 100.906 111.506 102.449C111.692 103.1 113.414 104.773 115.444 105.564C117.026 106.177 119.707 105.127 119.716 107.116C119.725 109.022 116.179 108.836 114.466 108.185C113.424 107.785 112.735 106.967 112.083 106.549C113.182 111.597 117.808 113.279 123.979 112.861C125.515 112.759 127.936 111.922 127.917 113.93C127.908 115.789 125.255 115.436 123.402 115.65C123.486 116.905 124.175 118.262 124.389 119.666C128.084 119.145 130.365 117.221 132.264 114.915C131.138 114.348 128.187 113.549 128.326 111.634C128.373 111.011 128.792 110.481 129.471 110.407C130.16 110.332 130.896 111.002 131.193 111.225C131.938 111.783 132.785 112.415 133.902 112.452C135.717 112.517 137.83 110.844 138.249 109.254C138.771 107.265 137.747 105.22 135.457 105.406C134.414 105.489 132.05 106.865 131.603 105.164C131.398 104.383 131.799 103.983 132.096 103.528C128.289 100.72 124.994 97.4018 122.332 93.451C120.433 93.1349 117.426 93.702 117.65 91.5639C117.78 90.374 119.316 90.216 120.768 90.5785C120.2 88.7658 119.176 86.7114 118.795 84.4339C117.799 85.5122 116.877 86.9252 116.17 88.7007C115.257 90.9782 114.922 93.5439 112.884 94.6037C111.618 95.2637 108.146 95.5705 107.876 93.8693C107.522 91.5825 109.831 92.698 111.32 92.2332C112.381 91.8985 112.158 91.1549 112.716 90.2625C112.241 89.7047 111.962 89.6396 111.729 89.1934C110.854 87.5108 110.529 85.3356 110.249 83.2068C109.253 75.5841 113.563 71.9401 118.376 69.5231C123.253 67.069 129.006 65.3771 135.447 64.4382C145.947 62.9137 156.559 64.7729 163.27 68.9468C168.641 72.2933 172.039 77.3318 172.132 85.8283C172.216 94.1482 170.708 101.483 170.326 109.756C169.945 118.364 171.611 125.085 176.665 128.841ZM135.382 131.053C135.838 129.705 136.509 125.922 138.333 126.052C140.642 126.219 138.677 129.984 138.333 130.97C136.35 136.631 134.917 142.218 133.902 148.836C132.58 157.398 132.497 168.293 134.554 175.804C136.713 183.65 140.465 189.943 145.063 194.982C147.372 197.51 150.164 199.871 153.599 201.294C156.391 202.446 159.901 202.53 163.038 201.703C163.95 201.461 164.955 200.894 165.988 200.885C166.752 200.875 167.562 201.87 168.036 202.279C172.011 205.644 177.522 209.093 184.857 207.931C191.429 206.89 194.482 201.916 196.753 196.869C197.079 196.153 197.311 195.26 197.74 194.573C198.093 193.996 199.322 193.429 200.039 193.011C208.072 188.326 215.379 181.409 217.688 171.128C218.581 167.159 218.311 162.269 216.952 158.672C214.281 151.607 209.329 147.265 202.506 144.411C195.692 141.558 188.664 139.447 182.157 135.971C175.716 132.531 170.429 128.329 168.455 120.976C166.314 112.991 168.213 103.202 168.949 94.6687C169.312 90.4484 169.665 85.1497 168.865 81.2268C168.046 77.2202 166.137 74.5523 163.364 72.377C158.179 68.3147 149.922 66.2603 140.223 66.725C134.861 66.976 129.527 68.1194 124.631 69.9229C120.517 71.4288 115.285 73.5204 113.554 77.2946C112.269 80.0927 112.902 83.7367 113.964 86.888C114.448 85.7353 115.071 84.7314 115.853 83.6065C116.309 82.9465 117.92 81.4034 117.985 80.7341C118.152 78.9493 116.319 74.7196 119.055 74.9148C120.563 75.0171 120.358 77.4805 120.535 78.9307C121.811 89.7512 126.893 96.4071 133.995 101.473C134.582 101.892 135.289 102.533 135.634 102.617C136.434 102.821 137.253 102.673 137.765 102.859C140.009 103.667 141.517 106.242 141.126 109.254C140.744 112.294 137.942 114.376 135.466 114.99C134.852 116.496 133.623 117.751 132.431 118.838C131.277 119.889 129.825 120.902 128.243 121.543C124.789 122.947 120.452 122.622 116.505 123.672C112.893 124.639 110.128 126.535 107.643 128.673C105.493 130.523 102.03 133.163 101.984 136.872C101.946 139.354 102.98 140.953 103.789 142.775C111.385 138.648 121.513 136.24 133.502 137.04C134.135 135.06 134.666 133.173 135.382 131.053ZM204.237 83.5136C200.988 83.7553 198.54 85.2891 194.64 86.0514C191.391 86.6835 187.044 86.4325 184.624 87.9385C182.306 89.3793 181.766 93.9901 181.338 97.4482C180.016 108.259 179.812 119.601 179.365 130.97C185.601 135.199 193.448 137.839 200.951 140.805C199.909 129.742 198.801 118.745 197.665 107.776C196.613 108.139 195.171 107.888 195.208 106.549C195.236 105.341 196.399 105.303 197.507 104.829C197.954 104.634 198.261 104.337 198.577 104.253C198.913 104.169 199.285 104.234 199.648 104.169C201.51 103.853 203.567 103.1 205.801 102.775C211.833 101.892 218.628 101.631 222.379 98.5916C222.649 98.3685 223.152 98.2012 223.115 97.7736C220.75 99.0286 217.157 99.7444 213.76 100.237C212.131 100.469 209.394 101.157 209.412 99.168C209.431 97.5691 211.293 97.8108 212.857 97.6063C217.474 97.0206 221.513 95.7378 224.678 93.9158C225.926 93.1907 227.331 92.4749 227.964 91.127C227.657 90.8853 227.238 90.7551 226.894 90.5506C226.056 91.0247 225.823 91.6383 225.088 92.1867C222.1 94.4456 216.617 95.4682 211.46 95.7936C209.487 95.9237 207.085 96.2119 207.197 94.3992C207.299 92.698 210.492 93.042 211.954 92.9211C214.048 92.7538 215.891 92.5028 217.455 92.1867C220.992 91.4616 224.185 90.4949 225.004 87.2691C222.305 87.2506 219.838 88.3754 217.045 88.9052C215.705 89.1655 214.262 89.3329 212.782 89.4816C211.311 89.621 209.589 89.37 208.1 89.7233C207.383 89.8906 206.518 90.6064 205.633 90.9504C203.632 91.7405 202.059 91.9729 200.132 92.8374C198.95 93.3673 196.315 94.9383 196.353 92.5121C196.371 91.3222 198.121 90.6715 199.145 90.216C202.85 88.552 207.374 88.2266 209.077 84.8894C208.091 83.9319 206.313 83.3648 204.237 83.5136ZM54.0543 93.7577C54.4638 95.9051 55.888 97.7922 57.005 99.9024C58.1686 102.106 59.1088 104.309 59.7976 106.214C60.626 107.358 62.8508 107.832 62.8321 109.57C62.8228 110.323 62.3574 110.918 61.4359 110.881C60.6167 110.853 59.8162 109.812 59.0529 109.161C58.2431 108.473 57.4612 107.85 56.7537 107.358C54.5662 105.815 51.4479 103.955 49.3721 105.796C49.0184 106.112 48.3854 106.688 48.553 107.023C51.0849 107.767 52.8628 108.483 55.1154 109.896C56.0183 110.463 58.9226 111.978 58.8947 113.419C58.876 114.116 58.4013 114.711 57.5822 114.729C56.6699 114.748 55.4412 113.475 54.6314 112.926C52.7232 111.634 50.7311 110.425 48.2272 109.812C45.2764 109.087 42.94 109.654 43.1354 112.759C47.0357 113.251 49.5304 114.692 52.1646 116.366C53.0583 116.933 54.2591 117.546 54.2125 118.578C54.1846 119.433 53.4492 119.87 52.9 119.889C52.1181 119.917 51.0849 118.95 50.3588 118.494C49.4838 117.946 48.5623 117.472 47.8176 117.1C46.1235 116.273 43.7498 114.953 41.4972 115.622C39.9613 116.077 39.1793 118.262 39.2817 120.047C39.3655 121.45 40.0543 122.445 40.678 123.245C40.9573 123.598 41.2086 124.286 41.6647 124.146C42.4466 122.705 41.9067 119.61 43.7126 119.396C46.4306 119.071 44.7551 123.198 44.3642 124.89C43.9639 126.638 43.5729 128.655 43.2192 130.384C40.9386 141.353 38.8629 153.122 38.295 165.216C38.0809 169.827 38.7232 173.434 40.678 176.036C42.549 178.528 45.416 180.257 48.3947 181.605C54.1101 184.208 61.622 185.89 70.3906 186.197C70.5395 185.769 69.7949 185.351 69.4877 185.053C66.6765 182.246 64.4332 178.556 64.4797 173.09C64.5263 167.679 66.5928 163.729 68.8268 160.549C69.1433 160.094 69.6925 159.517 69.5622 159.155C66.8162 159.285 63.9305 159.294 61.0263 159.071C58.9877 158.913 54.166 159.108 54.2125 157.026C54.2497 155.288 56.1859 155.79 57.6566 155.957C60.2723 156.255 63.2696 156.468 65.8667 156.45C65.122 150.352 65.0662 143.919 65.3734 137.44C65.6712 131.044 66.5462 124.732 66.2763 118.429C66.0249 112.396 64.638 106.791 62.8321 101.789C62.013 99.5212 61.0635 97.1229 59.7976 94.8268C58.8016 93.0234 57.0423 90.0486 55.041 89.4165C54.0543 90.1323 53.7564 92.2332 54.0543 93.7577Z" fill="#223549"/>
<path fill-rule="evenodd" clip-rule="evenodd" d="M134.646 106.466C135.484 106.438 136.759 107.126 136.126 108.436C135.847 109.013 135 109.18 134.153 109.338C133.371 109.487 132.393 109.812 131.77 109.747C130.83 109.645 130.038 108.436 130.783 107.451C131.314 106.754 133.51 106.503 134.646 106.466Z" fill="#223549"/>
</g>
<defs>
<clipPath id="clip0">
<rect width="240" height="211" fill="white"/>
</clipPath>
</defs>
</svg>
