<svg width="257" height="218" viewBox="0 0 257 218" fill="none" xmlns="http://www.w3.org/2000/svg">
<g clip-path="url(#clip0)">
<path d="M40.1705 151.979C39.2105 151.919 38.6205 151.249 38.6805 150.469C38.7305 149.699 39.4005 149.109 40.1805 149.159C41.0405 149.219 41.6305 149.889 41.5805 150.659C41.5205 151.409 40.9005 151.979 40.1705 151.979ZM45.3305 151.969C44.6005 151.969 43.9805 151.399 43.9305 150.659C43.8805 149.889 44.4605 149.209 45.2405 149.159C46.1105 149.099 46.7705 149.689 46.8305 150.459C46.8805 151.229 46.3005 151.899 45.5205 151.959C45.4005 151.969 45.3605 151.969 45.3305 151.969ZM50.5505 151.299C49.9005 151.299 49.3105 150.839 49.1805 150.179C49.0205 149.419 49.5105 148.679 50.2705 148.519C51.0905 148.339 51.8405 148.809 52.0105 149.569C52.1805 150.329 51.7105 151.079 50.9505 151.249C50.7405 151.299 50.6405 151.299 50.5505 151.299ZM34.9705 151.199C33.8105 150.969 33.3405 150.209 33.5105 149.449C33.6905 148.689 34.4405 148.229 35.2005 148.399C36.0605 148.619 36.5205 149.379 36.3305 150.129C36.1705 150.779 35.6005 151.199 34.9705 151.199ZM30.0405 149.389C29.8205 149.389 29.5905 149.339 29.3805 149.229C28.6105 148.819 28.3505 147.969 28.7205 147.289C29.0805 146.609 29.9305 146.339 30.6205 146.709C31.3905 147.119 31.6505 147.969 31.2805 148.649C31.0405 149.119 30.5505 149.389 30.0405 149.389ZM25.8405 146.269C25.4705 146.269 25.1005 146.129 24.8305 145.839C24.2205 145.199 24.2505 144.309 24.8105 143.779C25.3705 143.249 26.2605 143.269 26.8005 143.839C27.3905 144.459 27.3805 145.349 26.8205 145.879C26.5505 146.139 26.2005 146.269 25.8405 146.269ZM22.9105 141.939C22.3805 141.939 21.8705 141.629 21.6305 141.119C21.2705 140.339 21.5805 139.509 22.2805 139.179C22.9805 138.849 23.8205 139.159 24.1505 139.859C24.5105 140.659 24.2005 141.489 23.5005 141.809C23.3105 141.899 23.1105 141.939 22.9105 141.939ZM21.4105 136.929C20.7305 136.929 20.1405 136.439 20.0205 135.749C19.8705 134.919 20.3805 134.189 21.1505 134.049C21.9205 133.909 22.6405 134.419 22.7805 135.189C22.9205 136.069 22.4005 136.789 21.6405 136.909C21.5605 136.919 21.4905 136.929 21.4105 136.929ZM20.7805 131.699C20.1005 131.699 19.5005 131.199 19.3905 130.499C19.2705 129.619 19.8105 128.919 20.5805 128.809C21.3505 128.709 22.0605 129.239 22.1605 130.019C22.2805 130.859 21.7505 131.569 20.9905 131.689C20.9205 131.699 20.8505 131.699 20.7805 131.699ZM19.8805 126.519C19.2305 126.519 18.6405 126.059 18.5105 125.399C18.3405 124.529 18.8405 123.789 19.6105 123.649C20.3705 123.509 21.1105 124.009 21.2505 124.769C21.4205 125.599 20.9305 126.339 20.1705 126.499C20.0705 126.509 19.9705 126.519 19.8805 126.519ZM18.7605 121.369C18.1205 121.369 17.5405 120.929 17.3905 120.279C17.2005 119.419 17.6805 118.669 18.4405 118.499C19.2005 118.329 19.9505 118.809 20.1105 119.569C20.3005 120.399 19.8305 121.149 19.0805 121.329C18.9805 121.359 18.8705 121.369 18.7605 121.369ZM165.62 116.909C164.77 116.869 164.17 116.199 164.22 115.429C164.27 114.559 164.91 113.959 165.7 114.009C166.47 114.049 167.07 114.709 167.03 115.489C166.98 116.329 166.36 116.909 165.62 116.909ZM17.5305 116.249C16.9005 116.249 16.3205 115.819 16.1705 115.179C15.9605 114.339 16.4205 113.579 17.1705 113.389C17.9205 113.199 18.6905 113.659 18.8705 114.409C19.0805 115.259 18.6205 116.019 17.8605 116.199C17.7505 116.239 17.6405 116.249 17.5305 116.249ZM165.9 111.639C165.05 111.599 164.45 110.939 164.5 110.159C164.55 109.289 165.2 108.689 165.98 108.739C166.75 108.779 167.35 109.439 167.31 110.219C167.26 111.059 166.64 111.639 165.9 111.639ZM16.2205 111.149C15.6005 111.149 15.0305 110.729 14.8605 110.099C14.6405 109.259 15.0905 108.489 15.8405 108.289C16.5905 108.089 17.3605 108.539 17.5505 109.299C17.7705 110.129 17.3205 110.899 16.5705 111.099C16.4605 111.139 16.3405 111.149 16.2205 111.149ZM166.18 106.379C165.33 106.339 164.73 105.679 164.78 104.899C164.83 104.029 165.49 103.429 166.26 103.479C167.03 103.519 167.63 104.179 167.59 104.959C167.54 105.799 166.92 106.379 166.18 106.379ZM14.8705 106.059C14.2505 106.059 13.6805 105.639 13.5105 105.009C13.2905 104.189 13.7305 103.409 14.4705 103.209C15.2205 102.999 15.9905 103.449 16.2005 104.189C16.4305 105.039 15.9805 105.809 15.2305 106.009C15.1105 106.049 14.9905 106.059 14.8705 106.059ZM166.45 101.119C165.6 101.079 165 100.419 165.05 99.6394C165.1 98.7694 165.75 98.1694 166.53 98.2194C167.3 98.2594 167.9 98.9194 167.86 99.6994C167.82 100.539 167.2 101.119 166.45 101.119ZM13.4905 100.979C12.8705 100.979 12.3105 100.569 12.1405 99.9494C11.9105 99.0894 12.3605 98.3194 13.1205 98.1294C13.8705 97.9294 14.6405 98.3794 14.8305 99.1394C15.0605 99.9494 14.6205 100.729 13.8705 100.939C13.7405 100.969 13.6205 100.979 13.4905 100.979ZM12.1105 95.8994C11.4905 95.8994 10.9305 95.4894 10.7605 94.8694C10.5305 94.0094 10.9805 93.2494 11.7305 93.0494C12.4805 92.8494 13.2505 93.2994 13.4505 94.0494C13.6805 94.8694 13.2405 95.6394 12.4905 95.8494C12.3605 95.8894 12.2305 95.8994 12.1105 95.8994ZM166.72 95.8494C165.89 95.8194 165.28 95.1594 165.31 94.3894C165.36 93.5094 166.01 92.8994 166.79 92.9494C167.56 92.9894 168.16 93.6494 168.12 94.4294C168.09 95.2594 167.47 95.8494 166.72 95.8494ZM10.7405 90.8194C10.1205 90.8194 9.55047 90.3994 9.38047 89.7694C9.15047 88.9494 9.59047 88.1694 10.3405 87.9694C11.0905 87.7594 11.8605 88.2094 12.0705 88.9494C12.3005 89.7994 11.8505 90.5694 11.1005 90.7694C10.9805 90.8094 10.8605 90.8194 10.7405 90.8194ZM166.98 90.5894C166.15 90.5594 165.54 89.8994 165.57 89.1294C165.62 88.2494 166.27 87.6394 167.05 87.6894C167.83 87.7294 168.42 88.3894 168.38 89.1694C168.35 89.9994 167.73 90.5894 166.98 90.5894ZM9.39047 85.7294C8.77047 85.7294 8.20047 85.3094 8.03047 84.6794C7.81047 83.8394 8.26047 83.0694 9.01047 82.8694C9.76047 82.6794 10.5305 83.1194 10.7205 83.8794C10.9405 84.7094 10.4905 85.4794 9.74047 85.6794C9.62047 85.7194 9.50047 85.7294 9.39047 85.7294ZM167.23 85.3194C166.38 85.2794 165.78 84.6094 165.82 83.8394C165.85 82.9894 166.51 82.3894 167.28 82.4194C168.05 82.4494 168.66 83.1094 168.63 83.8794C168.59 84.7394 167.97 85.3194 167.23 85.3194ZM8.07047 80.6394C7.44047 80.6394 6.87047 80.2094 6.71047 79.5694C6.50047 78.7494 6.94047 77.9794 7.69047 77.7894C8.44047 77.5894 9.21047 78.0394 9.41047 78.7894C9.62047 79.6494 9.16047 80.4194 8.41047 80.5994C8.29047 80.6194 8.18047 80.6394 8.07047 80.6394ZM167.45 80.0594C166.62 80.0294 166.01 79.3694 166.04 78.5994C166.07 77.7294 166.74 77.1294 167.5 77.1594C168.28 77.1894 168.88 77.8394 168.85 78.6194C168.83 79.4694 168.2 80.0594 167.45 80.0594ZM6.80047 75.5094C6.17047 75.5094 5.61047 75.0994 5.45047 74.4594C5.25047 73.6494 5.71047 72.8694 6.46047 72.6894C7.21047 72.4994 7.97047 72.9494 8.16047 73.6994C8.36047 74.5094 7.90047 75.2894 7.15047 75.4694C7.03047 75.4994 6.91047 75.5094 6.80047 75.5094ZM167.64 74.7894C166.83 74.7694 166.21 74.1194 166.23 73.3494C166.25 72.4794 166.9 71.8594 167.68 71.8894C168.46 71.9094 169.07 72.5594 169.05 73.3294C169.03 74.1794 168.4 74.7894 167.64 74.7894ZM5.62047 70.3994C4.97047 70.3994 4.39047 69.9494 4.25047 69.2994C4.06047 68.4694 4.53047 67.7194 5.28047 67.5394C6.04047 67.3594 6.79047 67.8294 6.97047 68.5894C7.16047 69.4494 6.68047 70.1994 5.92047 70.3694C5.82047 70.3894 5.72047 70.3994 5.62047 70.3994ZM167.85 69.5194C166.96 69.4494 166.39 68.7694 166.45 67.9994C166.53 67.1194 167.21 66.5494 167.99 66.6194C168.76 66.6894 169.33 67.3794 169.26 68.1494C169.19 68.9594 168.58 69.5194 167.85 69.5194ZM4.52047 65.2494C3.87047 65.2494 3.28047 64.7894 3.14047 64.1294C2.97047 63.2594 3.48047 62.5194 4.24047 62.3794C5.00047 62.2394 5.74047 62.7394 5.88047 63.4994C6.05047 64.3294 5.56047 65.0694 4.80047 65.2294C4.71047 65.2394 4.62047 65.2494 4.52047 65.2494ZM168.37 64.2894C167.45 64.1994 166.89 63.4994 166.97 62.7294C167.05 61.8894 167.73 61.3194 168.51 61.3894C169.28 61.4594 169.85 62.1494 169.78 62.9194C169.69 63.7494 169.08 64.2894 168.37 64.2894ZM3.56047 60.0694C2.89047 60.0694 2.30047 59.5894 2.18047 58.9094C2.04047 58.0394 2.56047 57.3094 3.32047 57.1894C4.09047 57.0594 4.81047 57.5894 4.93047 58.3494C5.08047 59.1894 4.56047 59.9094 3.80047 60.0494C3.72047 60.0594 3.64047 60.0694 3.56047 60.0694ZM168.81 59.0394C167.94 58.9794 167.35 58.3094 167.41 57.5394C167.47 56.6794 168.13 56.0894 168.91 56.1394C169.68 56.1894 170.27 56.8594 170.22 57.6394C170.16 58.4694 169.54 59.0394 168.81 59.0394ZM2.78047 54.8694C2.08047 54.8694 1.47047 54.3494 1.39047 53.6294C1.28047 52.7894 1.82047 52.0794 2.59047 51.9794C3.36047 51.8794 4.07047 52.4194 4.17047 53.1894C4.28047 54.0694 3.73047 54.7694 2.96047 54.8594C2.90047 54.8594 2.84047 54.8694 2.78047 54.8694ZM169.03 53.7894C168.24 53.7794 167.61 53.1394 167.62 52.3694C167.63 51.5094 168.26 50.8894 169.03 50.8894C169.83 50.8994 170.45 51.5394 170.44 52.3094C170.43 53.1694 169.8 53.7894 169.03 53.7894ZM2.27047 49.6294C1.54047 49.6294 0.92047 49.0594 0.87047 48.3194C0.81047 47.4594 1.40047 46.7894 2.17047 46.7294C2.95047 46.6694 3.61047 47.2594 3.67047 48.0394C3.73047 48.9094 3.14047 49.5794 2.37047 49.6294C2.33047 49.6294 2.30047 49.6294 2.27047 49.6294ZM168.92 48.5294C168.18 48.5294 167.56 47.9494 167.52 47.1994C167.46 46.3494 168.05 45.6794 168.82 45.6294C169.59 45.5794 170.26 46.1594 170.32 46.9394C170.37 47.8194 169.77 48.4794 169 48.5294C168.97 48.5294 168.94 48.5294 168.92 48.5294ZM2.16047 44.3494C1.35047 44.3294 0.73047 43.6994 0.75047 42.9194C0.77047 42.0894 1.44047 41.4594 2.19047 41.4794C2.97047 41.4994 3.58047 42.1294 3.56047 42.8994C3.54047 43.7294 2.92047 44.3494 2.16047 44.3494ZM168.32 43.2994C167.65 43.2994 167.06 42.8194 166.94 42.1394C166.79 41.2794 167.3 40.5494 168.06 40.4194C168.82 40.2894 169.55 40.7994 169.69 41.5594C169.84 42.4094 169.33 43.1394 168.57 43.2794C168.48 43.2994 168.4 43.2994 168.32 43.2994ZM2.76047 39.1494C1.70047 38.9494 1.22047 38.1994 1.39047 37.4394C1.59047 36.5794 2.35047 36.1094 3.10047 36.2794C3.86047 36.4594 4.33047 37.2094 4.15047 37.9694C3.98047 38.7094 3.40047 39.1494 2.76047 39.1494ZM166.99 38.2194C166.42 38.2194 165.88 37.8694 165.67 37.2994C165.37 36.4894 165.74 35.6794 166.47 35.4094C167.2 35.1394 168.01 35.5094 168.28 36.2394C168.58 37.0594 168.21 37.8694 167.48 38.1294C167.32 38.1894 167.15 38.2194 166.99 38.2194ZM5.05047 34.5294C4.70047 34.5294 4.35047 34.3994 4.08047 34.1394C3.52047 33.5994 3.50047 32.7094 4.04047 32.1494C4.64047 31.5194 5.53047 31.5094 6.09047 32.0494C6.65047 32.5894 6.67047 33.4794 6.13047 34.0394C5.78047 34.3894 5.42047 34.5294 5.05047 34.5294ZM164.55 33.5694C164.13 33.5694 163.72 33.3794 163.45 33.0194C162.95 32.3594 163.07 31.4594 163.69 30.9994C164.31 30.5294 165.18 30.6394 165.65 31.2694C166.15 31.9294 166.03 32.8294 165.41 33.2894C165.14 33.4694 164.85 33.5694 164.55 33.5694ZM9.32047 31.5094C8.81047 31.5094 8.31047 31.2294 8.07047 30.7394C7.72047 30.0494 7.99047 29.1994 8.69047 28.8494C9.46047 28.4594 10.3105 28.7394 10.6605 29.4294C11.0105 30.1194 10.7405 30.9694 10.0405 31.3194C9.75047 31.4594 9.53047 31.5094 9.32047 31.5094ZM160.73 30.0394C160.48 30.0394 160.23 29.9694 160.01 29.8394C159.28 29.4094 159.05 28.5494 159.44 27.8794C159.83 27.2094 160.69 26.9794 161.36 27.3794C162.12 27.8294 162.33 28.6994 161.93 29.3594C161.68 29.7994 161.21 30.0394 160.73 30.0394ZM14.1805 29.5394C13.5905 29.5394 13.0405 29.1594 12.8405 28.5694C12.6005 27.8294 13.0005 27.0394 13.7405 26.7994C14.5605 26.5294 15.3505 26.9294 15.5905 27.6694C15.8305 28.4094 15.4305 29.1994 14.7005 29.4494C14.4705 29.5194 14.3305 29.5394 14.1805 29.5394ZM155.82 28.2894C154.75 28.1394 154.22 27.4194 154.34 26.6494C154.46 25.8794 155.18 25.3594 155.94 25.4794C156.81 25.6194 157.33 26.3394 157.2 27.1094C157.1 27.7994 156.5 28.2894 155.82 28.2894ZM19.2505 28.1394C18.6105 28.1394 18.0305 27.6994 17.8805 27.0494C17.7005 26.2894 18.1705 25.5394 18.9305 25.3594C19.7905 25.1694 20.5405 25.6394 20.7105 26.3994C20.8805 27.1594 20.4105 27.9094 19.6505 28.0794C19.4705 28.1294 19.3605 28.1394 19.2505 28.1394ZM150.58 28.0494C149.68 28.0294 149.06 27.3794 149.08 26.5994C149.1 25.8194 149.74 25.1994 150.52 25.2294C151.39 25.2494 152 25.8994 151.98 26.6794C151.96 27.4394 151.34 28.0494 150.58 28.0494ZM145.32 27.8094C144.38 27.7594 143.78 27.0994 143.83 26.3194C143.87 25.5394 144.53 24.9494 145.31 24.9894C146.19 25.0394 146.77 25.7094 146.73 26.4794C146.67 27.2394 146.05 27.8094 145.32 27.8094ZM140.06 27.4994C139.11 27.4494 138.52 26.7794 138.57 26.0094C138.62 25.2394 139.29 24.6394 140.06 24.6894C140.93 24.7494 141.52 25.4194 141.47 26.1894C141.41 26.9294 140.8 27.4994 140.06 27.4994ZM134.81 27.1694C133.86 27.1094 133.27 26.4494 133.32 25.6694C133.37 24.8994 134.04 24.3094 134.81 24.3494C135.69 24.4094 136.27 25.0794 136.22 25.8494C136.16 26.5994 135.54 27.1694 134.81 27.1694ZM24.4105 27.1094C23.7405 27.1094 23.1405 26.6194 23.0305 25.9394C22.9005 25.1694 23.4205 24.4494 24.1805 24.3194C25.0205 24.1694 25.7505 24.6794 25.8905 25.4394C26.0305 26.1994 25.5205 26.9294 24.7505 27.0694C24.5705 27.1094 24.4905 27.1094 24.4105 27.1094ZM129.56 26.8394C128.61 26.7894 128.02 26.1194 128.07 25.3494C128.12 24.5694 128.79 23.9794 129.56 24.0294C130.43 24.0894 131.02 24.7594 130.97 25.5294C130.91 26.2694 130.29 26.8394 129.56 26.8394ZM124.3 26.5194C123.35 26.4694 122.76 25.7994 122.81 25.0294C122.86 24.2594 123.52 23.6594 124.3 23.7094C125.17 23.7594 125.76 24.4294 125.71 25.1994C125.66 25.9394 125.04 26.5194 124.3 26.5194ZM29.6105 26.3294C28.9105 26.3294 28.3105 25.8094 28.2205 25.0994C28.1205 24.3294 28.6605 23.6294 29.4305 23.5294C30.2905 23.4194 30.9905 23.9594 31.0905 24.7294C31.1905 25.4994 30.6505 26.2094 29.8805 26.3094C29.7305 26.3294 29.6705 26.3294 29.6105 26.3294ZM119.05 26.2094C118.1 26.1594 117.51 25.4894 117.56 24.7194C117.61 23.9494 118.27 23.3494 119.05 23.3994C119.91 23.4494 120.5 24.1094 120.46 24.8794C120.41 25.6294 119.79 26.2094 119.05 26.2094ZM113.79 25.9094C112.85 25.8594 112.25 25.1994 112.3 24.4294C112.34 23.6494 112.99 23.0594 113.78 23.0994C114.66 23.1494 115.25 23.8194 115.2 24.5894C115.15 25.3394 114.53 25.9094 113.79 25.9094ZM34.8405 25.7394C34.1305 25.7394 33.5205 25.1994 33.4405 24.4694C33.3605 23.6994 33.9305 23.0094 34.7005 22.9294C35.5705 22.8494 36.2605 23.4094 36.3305 24.1894C36.4005 24.9594 35.8405 25.6494 35.0605 25.7194C34.9305 25.7394 34.8905 25.7394 34.8405 25.7394ZM108.54 25.6294C107.6 25.5794 107 24.9194 107.05 24.1494C107.09 23.3694 107.75 22.7794 108.53 22.8194C109.39 22.8594 109.99 23.5194 109.95 24.2894C109.9 25.0494 109.28 25.6294 108.54 25.6294ZM103.28 25.3794C102.35 25.3394 101.75 24.6794 101.78 23.8994C101.82 23.1294 102.48 22.5294 103.25 22.5594C104.12 22.5994 104.72 23.2594 104.68 24.0294C104.65 24.7894 104.03 25.3794 103.28 25.3794ZM40.0805 25.2894C39.3505 25.2894 38.7305 24.7294 38.6805 23.9894C38.6205 23.2194 39.2005 22.5394 39.9805 22.4894C40.8405 22.4294 41.5205 23.0094 41.5805 23.7794C41.6405 24.5494 41.0605 25.2294 40.2805 25.2894C40.1505 25.2894 40.1205 25.2894 40.0805 25.2894ZM98.0205 25.1394C97.1005 25.0994 96.4905 24.4494 96.5205 23.6694C96.5505 22.8894 97.2205 22.2894 97.9805 22.3194C98.8605 22.3594 99.4605 23.0194 99.4205 23.7894C99.3905 24.5594 98.7705 25.1394 98.0205 25.1394ZM45.3305 24.9494C44.5905 24.9494 43.9705 24.3694 43.9305 23.6194C43.8905 22.8494 44.4805 22.1794 45.2605 22.1394C46.1305 22.0994 46.7905 22.6894 46.8305 23.4594C46.8705 24.2394 46.2805 24.8994 45.5005 24.9394C45.3805 24.9494 45.3605 24.9494 45.3305 24.9494ZM92.7705 24.9394C91.8605 24.9094 91.2505 24.2594 91.2705 23.4894C91.3005 22.7094 91.9605 22.1094 92.7205 22.1294C93.6005 22.1694 94.2005 22.8194 94.1705 23.5894C94.1405 24.3394 93.5205 24.9394 92.7705 24.9394ZM87.5105 24.7594C86.6005 24.7294 85.9905 24.0794 86.0105 23.3094C86.0405 22.5294 86.6805 21.9394 87.4605 21.9494C88.3205 21.9694 88.9305 22.6194 88.9105 23.3994C88.8905 24.1494 88.2605 24.7594 87.5105 24.7594ZM50.5905 24.7094C49.8405 24.7094 49.2205 24.1194 49.1905 23.3594C49.1605 22.5794 49.7605 21.9294 50.5405 21.8994C51.4205 21.8794 52.0705 22.4794 52.0905 23.2494C52.1205 24.0294 51.5105 24.6794 50.7305 24.6994C50.6305 24.7094 50.6105 24.7094 50.5905 24.7094ZM82.2405 24.6194C81.3305 24.5994 80.7205 23.9494 80.7405 23.1694C80.7605 22.3894 81.4205 21.7794 82.1805 21.7994C83.0405 21.8194 83.6505 22.4594 83.6405 23.2394C83.6305 24.0094 83.0005 24.6194 82.2405 24.6194ZM55.8505 24.5494C55.0905 24.5494 54.4705 23.9394 54.4505 23.1794C54.4305 22.3994 55.0405 21.7594 55.8205 21.7394C56.7105 21.7394 57.3405 22.3494 57.3505 23.1094C57.3705 23.8894 56.7505 24.5294 55.9705 24.5394C55.8705 24.5494 55.8605 24.5494 55.8505 24.5494ZM76.9805 24.5094C76.0905 24.4994 75.4705 23.8594 75.4805 23.0794C75.4905 22.3094 76.1205 21.6894 76.8905 21.6894C77.7905 21.7094 78.4005 22.3494 78.3905 23.1194C78.3705 23.8994 77.7405 24.5094 76.9805 24.5094ZM61.1105 24.4594C60.3405 24.4594 59.7105 23.8394 59.7005 23.0694C59.6905 22.2894 60.3105 21.6594 61.0905 21.6494C61.9705 21.6494 62.6005 22.2694 62.6005 23.0394C62.6105 23.8194 61.9805 24.4494 61.2005 24.4594C61.1205 24.4594 61.1205 24.4594 61.1105 24.4594ZM71.7205 24.4394C70.8405 24.4294 70.2205 23.7994 70.2205 23.0194C70.2305 22.2394 70.8405 21.6194 71.6305 21.6194C72.5105 21.6294 73.1305 22.2694 73.1205 23.0394C73.1105 23.8294 72.4805 24.4394 71.7205 24.4394ZM66.3705 24.4294C65.5905 24.4294 64.9605 23.7994 64.9605 23.0194C64.9605 22.2394 65.5905 21.6094 66.3705 21.6094C67.2305 21.6094 67.8605 22.2294 67.8705 23.0094C67.8805 23.7894 67.2505 24.4194 66.4705 24.4194L66.3705 24.4294Z" fill="#223549"/>
<path fill-rule="evenodd" clip-rule="evenodd" d="M42.1503 54.2188H174.56C180.54 54.2188 185.39 59.0688 185.39 65.0488V186.379C185.39 192.359 180.54 197.209 174.56 197.209H42.1503C36.1703 197.209 31.3203 192.359 31.3203 186.379V65.0587C31.3203 59.0687 36.1703 54.2188 42.1503 54.2188Z" fill="white"/>
<path fill-rule="evenodd" clip-rule="evenodd" d="M45.8603 51.6797H178.3C184.28 51.6797 189.13 56.5297 189.13 62.5097V183.85C189.13 189.83 184.28 194.68 178.3 194.68H45.8603C39.8803 194.68 35.0303 189.83 35.0303 183.85V62.5197C35.0303 56.5297 39.8803 51.6797 45.8603 51.6797Z" fill="white"/>
<path fill-rule="evenodd" clip-rule="evenodd" d="M43.9205 57.2695C43.9205 57.2695 52.7405 57.2695 65.8805 57.2695C104.43 57.2695 180.201 57.2695 180.201 57.2695C185.1 57.2695 189.081 61.2495 189.081 66.1495C189.081 71.0495 190.181 73.4895 187.301 73.5895L38.5905 73.1595C33.6905 73.1595 35.0405 71.0495 35.0405 66.1395C35.0405 61.2395 39.0105 57.2695 43.9205 57.2695Z" fill="#EC663D"/>
<path d="M174.73 80.0409H172.87C172.3 80.0409 171.83 79.5809 171.83 79.0009C171.83 78.4209 172.29 77.9609 172.87 77.9609H174.73C175.3 77.9609 175.77 78.4209 175.77 79.0009C175.77 79.5809 175.31 80.0409 174.73 80.0409Z" fill="#EC663D"/>
<path d="M177.691 87.9902H162.891C162.321 87.9902 161.851 87.5301 161.851 86.9501C161.851 86.3701 162.311 85.9102 162.891 85.9102H177.691C178.261 85.9102 178.731 86.3701 178.731 86.9501C178.731 87.5301 178.271 87.9902 177.691 87.9902Z" fill="#EC663D"/>
<path d="M179.18 96.7792H154.65C154.08 96.7792 153.61 96.3092 153.61 95.7392C153.61 95.1692 154.07 94.6992 154.65 94.6992H179.18C179.75 94.6992 180.22 95.1592 180.22 95.7392C180.22 96.3092 179.75 96.7792 179.18 96.7792Z" fill="#EC663D"/>
<path d="M171.1 104.732H154.61C154.04 104.732 153.57 104.272 153.57 103.692C153.57 103.122 154.03 102.652 154.61 102.652H171.1C171.67 102.652 172.14 103.112 172.14 103.692C172.14 104.272 171.67 104.732 171.1 104.732Z" fill="#EC663D"/>
<path d="M179.18 112.51H154.65C154.08 112.51 153.61 112.05 153.61 111.47C153.61 110.89 154.07 110.43 154.65 110.43H179.18C179.75 110.43 180.22 110.89 180.22 111.47C180.22 112.05 179.75 112.51 179.18 112.51Z" fill="#EC663D"/>
<path d="M179.3 120.463H163.57C163 120.463 162.53 120.003 162.53 119.423C162.53 118.853 162.99 118.383 163.57 118.383H179.3C179.87 118.383 180.34 118.843 180.34 119.423C180.34 119.993 179.88 120.463 179.3 120.463Z" fill="#EC663D"/>
<path d="M179.18 129.252H154.65C154.08 129.252 153.61 128.792 153.61 128.212C153.61 127.632 154.07 127.172 154.65 127.172H179.18C179.75 127.172 180.22 127.632 180.22 128.212C180.22 128.792 179.75 129.252 179.18 129.252Z" fill="#EC663D"/>
<path d="M171.1 137.201H154.61C154.04 137.201 153.57 136.741 153.57 136.161C153.57 135.591 154.03 135.121 154.61 135.121H171.1C171.67 135.121 172.14 135.581 172.14 136.161C172.14 136.741 171.67 137.201 171.1 137.201Z" fill="#EC663D"/>
<path d="M169.49 80.0409H154.61C154.04 80.0409 153.57 79.5809 153.57 79.0009C153.57 78.4209 154.03 77.9609 154.61 77.9609H169.49C170.06 77.9609 170.53 78.4209 170.53 79.0009C170.53 79.5809 170.07 80.0409 169.49 80.0409Z" fill="#EC663D"/>
<path d="M157.4 87.9902H154.61C154.04 87.9902 153.57 87.5301 153.57 86.9501C153.57 86.3701 154.03 85.9102 154.61 85.9102H157.4C157.97 85.9102 158.44 86.3701 158.44 86.9501C158.44 87.5301 157.97 87.9902 157.4 87.9902Z" fill="#EC663D"/>
<path d="M179.18 96.7792H154.65C154.08 96.7792 153.61 96.3092 153.61 95.7392C153.61 95.1692 154.07 94.6992 154.65 94.6992H179.18C179.75 94.6992 180.22 95.1592 180.22 95.7392C180.22 96.3092 179.75 96.7792 179.18 96.7792Z" fill="#EC663D"/>
<path d="M179.18 112.51H154.65C154.08 112.51 153.61 112.05 153.61 111.47C153.61 110.89 154.07 110.43 154.65 110.43H179.18C179.75 110.43 180.22 110.89 180.22 111.47C180.22 112.05 179.75 112.51 179.18 112.51Z" fill="#EC663D"/>
<path d="M158.58 120.463H154.61C154.04 120.463 153.57 120.003 153.57 119.423C153.57 118.853 154.03 118.383 154.61 118.383H158.58C159.15 118.383 159.62 118.843 159.62 119.423C159.62 119.993 159.16 120.463 158.58 120.463Z" fill="#EC663D"/>
<path d="M179.18 129.252H154.65C154.08 129.252 153.61 128.792 153.61 128.212C153.61 127.632 154.07 127.172 154.65 127.172H179.18C179.75 127.172 180.22 127.632 180.22 128.212C180.22 128.792 179.75 129.252 179.18 129.252Z" fill="#EC663D"/>
<path d="M179.22 137.201H174.74C174.17 137.201 173.7 136.741 173.7 136.161C173.7 135.591 174.16 135.121 174.74 135.121H179.22C179.79 135.121 180.26 135.581 180.26 136.161C180.26 136.741 179.79 137.201 179.22 137.201Z" fill="#EC663D"/>
<path d="M179.22 104.732H174.74C174.17 104.732 173.7 104.272 173.7 103.692C173.7 103.122 174.17 102.652 174.74 102.652H179.22C179.79 102.652 180.26 103.112 180.26 103.692C180.26 104.272 179.79 104.732 179.22 104.732Z" fill="#EC663D"/>
<path d="M174.56 198.261H42.1503C35.6003 198.261 30.2803 192.931 30.2803 186.391V65.0614C30.2803 58.5114 35.6103 53.1914 42.1503 53.1914H174.56C181.11 53.1914 186.43 58.5214 186.43 65.0614V186.391C186.43 192.931 181.1 198.261 174.56 198.261ZM42.1503 55.2614C36.7503 55.2614 32.3503 59.6514 32.3503 65.0614V186.391C32.3503 191.791 36.7403 196.191 42.1503 196.191H174.56C179.96 196.191 184.35 191.791 184.35 186.391V65.0614C184.35 59.6614 179.96 55.2614 174.56 55.2614H42.1503Z" fill="#223549"/>
<path fill-rule="evenodd" clip-rule="evenodd" d="M186.4 100.038L186.41 94.2376C186.41 94.2376 178.73 91.0176 176.05 80.0376C173.37 69.0576 181.09 53.9276 184.09 49.6176C187.09 45.2976 193.57 37.6976 193.57 37.6976C193.57 37.6976 186.05 33.5576 189.24 26.0476C192.43 18.5376 194.05 18.6576 196.91 19.4576C199.77 20.2576 202.78 21.5376 202.78 21.5376C202.78 21.5376 205.36 11.6876 211.63 14.1376C217.9 16.5876 223.55 22.4476 223.55 22.4476C223.55 22.4476 227.21 20.1776 233.21 27.3276C239.21 34.4776 248.54 43.4776 250.36 45.8376C252.18 48.1876 253.97 56.6376 249.28 62.0876C244.59 67.5376 229.51 79.3276 229.51 79.3276C229.51 79.3276 232.29 84.0676 228.16 86.8176C224.03 89.5776 216.6 86.0976 216.6 86.0976L212.63 89.0776C212.63 89.0776 212.27 92.6976 215.7 93.9576C219.13 95.2176 242.16 103.318 248.2 116.438C254.63 130.408 256.05 143.988 254.7 167.538C253.35 191.088 253.71 205.458 253.71 205.458H224.01C224.01 205.458 218.84 214.658 188.35 215.118C157.86 215.578 114.96 213.298 105.92 211.868C96.8802 210.438 83.0902 211.048 80.1902 209.518C77.2902 207.988 76.6702 206.808 76.6702 206.808C76.6702 206.808 66.3402 197.598 74.1402 198.138C81.9402 198.678 92.8402 200.948 101.22 198.588C109.61 196.228 117.56 192.538 117.56 192.538C117.56 192.538 115.3 189.348 109.7 186.488C104.11 183.628 97.3902 177.458 107.8 178.548C119.23 179.738 132.63 190.288 132.63 190.288C132.63 190.288 154.59 188.288 168.38 186.318C182.17 184.348 187.34 183.158 187.34 183.158L186.4 100.038Z" fill="white"/>
<path fill-rule="evenodd" clip-rule="evenodd" d="M185.31 98.3603C185.31 98.3603 193.44 109.33 204.33 106.14C215.2 102.96 217.6 95.8203 217.61 95.8203C217.61 95.8203 245.67 99.8703 251.27 123.47C256.87 147.08 252.2 206.6 252.2 206.6H220.74C221.04 207.11 225.57 204.86 232.83 192.14C233.89 190.29 236.13 183.01 236.13 183.01C236.13 183.01 229.68 168.18 220.57 164.58C211.46 160.98 198.25 159.51 198.25 159.51L188.02 182.6L185.23 183.11L185.31 98.3603Z" fill="#223549"/>
<path fill-rule="evenodd" clip-rule="evenodd" d="M226.491 78.4912C226.491 78.4912 222.621 80.1312 221.081 78.4012C219.541 76.6712 218.711 76.6612 220.571 74.0012C222.431 71.3412 225.231 67.3312 225.981 64.6112C226.731 61.8912 225.811 56.3212 225.811 56.3212C225.811 56.3212 221.021 57.9112 218.451 55.6512C215.881 53.3912 214.481 50.6612 214.481 50.6612C214.481 50.6612 203.151 51.6612 200.531 48.7212C197.911 45.7812 201.291 40.5212 201.291 40.5212C201.291 40.5212 193.611 38.1312 191.991 36.0412C190.371 33.9512 191.451 25.5412 196.471 22.4312C200.011 20.2312 203.871 21.7912 204.841 23.4412C204.841 23.4412 206.431 15.8312 211.861 17.6912C217.291 19.5512 218.751 24.8612 221.251 25.3912C223.751 25.9112 230.081 25.5612 234.021 32.7512C237.961 39.9412 242.631 43.5112 246.031 46.9612C249.241 50.2212 251.611 56.4512 248.401 62.1012C245.331 67.4912 230.221 80.0312 230.221 80.0312L226.491 78.4912Z" fill="#EC663D"/>
<path fill-rule="evenodd" clip-rule="evenodd" d="M205.94 63.7812C207.2 63.7812 208.22 64.8012 208.22 66.0612V68.6012C208.22 69.8612 207.2 70.8812 205.94 70.8812C204.68 70.8812 203.66 69.8612 203.66 68.6012V66.0612C203.66 64.8012 204.68 63.7812 205.94 63.7812Z" fill="#223549"/>
<path fill-rule="evenodd" clip-rule="evenodd" d="M188.77 54.6406C190.03 54.6406 191.05 55.6606 191.05 56.9206V59.4606C191.05 60.7206 190.03 61.7406 188.77 61.7406C187.51 61.7406 186.49 60.7206 186.49 59.4606V56.9206C186.49 55.6706 187.51 54.6406 188.77 54.6406Z" fill="#223549"/>
<path fill-rule="evenodd" clip-rule="evenodd" d="M152.67 52.9483C152.67 52.9483 112.45 37.1183 98.7702 35.8883C85.0902 34.6583 76.9902 37.0483 75.4802 43.7483C73.9702 50.4483 72.8002 58.0483 76.9302 60.7183C81.0502 63.3883 85.2402 63.6983 85.2402 63.6983C85.2402 63.6983 88.8302 66.2883 90.2102 65.1383C91.5902 63.9883 92.3802 63.3283 92.3802 63.3283C92.3802 63.3283 94.9302 66.2083 96.8002 64.5883C98.6702 62.9783 99.6902 58.2683 99.6902 58.2683C99.6902 58.2683 101.74 58.4383 102.94 58.1783C104.13 57.9183 111.46 53.8283 114.68 55.4683C117.9 57.1083 122.49 58.8783 125.97 57.1783C129.44 55.4783 134.09 53.0283 134.09 53.0283L152.67 52.9483Z" fill="white"/>
<path d="M185.391 183.5C184.821 183.5 184.351 183.04 184.351 182.46V95.5595C184.351 94.9895 184.811 94.5195 185.391 94.5195C185.971 94.5195 186.431 94.9795 186.431 95.5595V182.46C186.431 183.04 185.961 183.5 185.391 183.5Z" fill="#223549"/>
<path d="M48.3492 59.9113L41.835 66.4219L43.3053 67.8931L49.8195 61.3825L48.3492 59.9113Z" fill="white"/>
<path d="M43.3038 59.9157L41.833 61.3867L48.3463 67.8991L49.8171 66.4281L43.3038 59.9157Z" fill="white"/>
<path fill-rule="evenodd" clip-rule="evenodd" d="M57.3205 60.1406C59.4005 60.1406 61.0805 61.8206 61.0805 63.9006C61.0805 65.9806 59.3905 67.6606 57.3205 67.6606C55.2405 67.6606 53.5605 65.9706 53.5605 63.9006C53.5605 61.8306 55.2405 60.1406 57.3205 60.1406Z" fill="white"/>
<path d="M147.25 182.471C146.5 182.471 145.9 181.861 145.9 181.121V72.3812C145.9 71.6312 146.51 71.0312 147.25 71.0312C148 71.0312 148.6 71.6412 148.6 72.3812V181.121C148.61 181.861 148 182.471 147.25 182.471Z" fill="#223549"/>
<path d="M174.73 71.0312H23.4502V73.1113H174.73V71.0312Z" fill="#223549"/>
<path d="M48.8205 91.1984H39.1005C38.5305 91.1984 38.0605 90.7384 38.0605 90.1584V80.4384C38.0605 79.8684 38.5205 79.3984 39.1005 79.3984H48.8305C49.4005 79.3984 49.8705 79.8684 49.8705 80.4384V90.1584C49.8605 90.7284 49.4005 91.1984 48.8205 91.1984ZM40.1305 89.1184H47.7805V81.4684H40.1305V89.1184Z" fill="#EC663D"/>
<path d="M124.67 84.9394H57.0205C56.4505 84.9394 55.9805 84.4794 55.9805 83.8994C55.9805 83.3294 56.4405 82.8594 57.0205 82.8594H124.67C125.24 82.8594 125.71 83.3194 125.71 83.8994C125.71 84.4794 125.25 84.9394 124.67 84.9394Z" fill="#EC663D"/>
<path d="M124.67 92.8886H57.0205C56.4505 92.8886 55.9805 92.4286 55.9805 91.8486C55.9805 91.2786 56.4405 90.8086 57.0205 90.8086H124.67C125.24 90.8086 125.71 91.2686 125.71 91.8486C125.71 92.4286 125.25 92.8886 124.67 92.8886Z" fill="#EC663D"/>
<path d="M124.67 101.678H57.0205C56.4505 101.678 55.9805 101.218 55.9805 100.638C55.9805 100.058 56.4405 99.5977 57.0205 99.5977H124.67C125.24 99.5977 125.71 100.058 125.71 100.638C125.71 101.218 125.25 101.678 124.67 101.678Z" fill="#EC663D"/>
<path d="M124.67 109.631H57.0205C56.4505 109.631 55.9805 109.171 55.9805 108.591C55.9805 108.021 56.4405 107.551 57.0205 107.551H124.67C125.24 107.551 125.71 108.011 125.71 108.591C125.71 109.171 125.25 109.631 124.67 109.631Z" fill="#EC663D"/>
<path fill-rule="evenodd" clip-rule="evenodd" d="M57.8701 114.848H124.67V157.298H57.8701V114.848Z" fill="#EC663D"/>
<path d="M125.52 165.951H57.8701C57.3001 165.951 56.8301 165.491 56.8301 164.911C56.8301 164.331 57.2901 163.871 57.8701 163.871H125.52C126.09 163.871 126.56 164.341 126.56 164.911C126.56 165.481 126.09 165.951 125.52 165.951Z" fill="#EC663D"/>
<path d="M125.52 173.9H57.8701C57.3001 173.9 56.8301 173.44 56.8301 172.86C56.8301 172.28 57.2901 171.82 57.8701 171.82H125.52C126.09 171.82 126.56 172.28 126.56 172.86C126.56 173.44 126.09 173.9 125.52 173.9Z" fill="#EC663D"/>
<path d="M49.7502 175.679H40.0302C39.4602 175.679 38.9902 175.219 38.9902 174.639V164.919C38.9902 164.349 39.4502 163.879 40.0302 163.879H49.7502C50.3202 163.879 50.7902 164.349 50.7902 164.919V174.639C50.7902 175.209 50.3202 175.679 49.7502 175.679ZM41.0702 173.599H48.7202V165.949H41.0702V173.599Z" fill="#EC663D"/>
<path fill-rule="evenodd" clip-rule="evenodd" d="M255.48 132.54C253.56 121.68 247.98 113.21 241.76 106.99C236.66 101.89 231.35 97.7495 223.8 95.4295C221.59 94.7495 217.96 94.4195 216.22 93.1695C215.07 92.3495 214.88 91.2295 214.23 89.4695C214.83 88.8895 215.53 88.4195 216.22 87.9395C222.17 93.3195 233.09 89.1795 231.48 80.5395C236.4 76.3895 241.62 72.6495 246.19 67.8995C250.21 63.7195 254.92 56.1895 252.24 48.0395C251.19 44.8495 248.84 42.3795 246.55 40.0995C244.23 37.7795 241.72 35.5895 239.78 33.1495C235.73 28.0695 232.56 21.5595 223.89 21.5895C221.09 17.9895 217.89 12.4095 211.07 13.0095C206.68 13.3995 203.87 16.1495 203.04 20.4095C200.65 19.0595 197.23 17.2595 193.83 18.2395C187.69 20.0095 184.96 30.8695 189.41 36.0195C190.09 36.8095 190.96 37.3195 191.76 38.0895C190.25 39.6795 188.94 41.4695 187.33 42.9695C185.72 42.3795 183.25 42.2395 183.45 44.1395C183.55 45.0895 184.43 45.3595 185.53 45.4895C181.73 50.4895 178.46 55.9195 175.96 62.4595C173.57 68.7295 172.29 77.9695 175.24 84.6695C177.83 90.5595 183.89 94.5295 190.68 95.7695C199.22 97.3295 206.38 94.3895 211.8 91.0795C212.48 93.7695 214.09 95.5295 216.5 96.4995C212.29 101.02 208.46 105.53 200.07 105.53C193.42 105.53 190.07 102.85 186.98 99.4795C186.9 99.3895 186.51 98.8795 186.42 98.7595L186.47 103.05C189.95 106.23 194.69 108.66 201.16 108.42C209.23 108.12 213.95 103.69 217.95 99.2995C218.48 98.7095 219.1 97.4295 219.76 97.3095C220.47 97.1895 221.37 97.6795 222.02 97.8495C222.73 98.0395 223.27 98.1895 224.19 98.4795C222.3 101.53 219.87 103.96 217.06 106.24C216.27 106.88 214.6 107.73 214.8 109.04C214.87 109.5 215.36 110.05 215.97 110.12C217.26 110.28 218.6 108.71 219.31 108.13C222.41 105.62 224.91 102.43 227.07 99.6395C234.68 103.71 240.85 108.95 245.49 115.71C247.83 119.12 249.96 122.86 251.27 127.18C255.41 140.78 252.72 159.38 251.99 174.93C251.63 182.73 251.36 191.78 251.36 200.12C251.36 202.48 250.89 207.58 252.17 207.97C253.01 208.23 253.88 207.73 253.98 207.61C254.5 206.94 254.16 204.06 254.16 202.92C254.16 197.85 254.25 193.03 254.34 188.39C254.47 181.69 254.8 175.74 255.15 169.52C255.8 157.48 257.54 144.23 255.48 132.54ZM207.54 90.1995C204.4 91.8695 200.05 93.3395 195.44 93.3595C189.62 93.3795 184.49 91.2495 181.09 88.0295C177.58 84.7095 175.92 79.7095 176.4 73.3195C176.83 67.4395 178.71 62.5295 180.91 58.1495C183.1 53.7995 185.62 49.9395 188.67 46.3195C192.72 48.1595 195.78 51.3895 196.16 56.3395C196.53 61.1695 194.24 64.1395 190.83 65.7295C189.82 66.1995 187.97 66.5895 187.58 67.4495C187.2 68.2895 187.47 69.6195 187.58 70.9695C187.69 72.2495 187.86 73.2895 189.02 73.3195C191.02 73.3595 190.4 70.7495 190.28 69.0795C195.46 67.2795 199.41 63.4595 199.04 56.6195C198.69 50.3895 194.95 46.1795 190.46 44.0695C191.6 42.3595 192.96 40.8595 194.52 39.5595C195.93 40.1895 197.36 40.8095 199.12 41.0895C199.02 41.8495 198.52 42.5095 198.31 43.3495C196.22 51.4695 205.79 52.9495 213.02 51.6595C214.55 55.9695 218.61 58.2195 224.66 57.7095C225.02 59.2595 225.2 60.2495 225.2 61.5895C225.19 66.8295 220.55 69.0295 218.79 72.9595C218.09 74.5295 218.25 78.5495 220.33 78.6495C221.02 78.6795 221.66 78.1495 221.77 77.7495C222.11 76.4895 221.13 76.2195 221.23 74.8595C221.33 73.4095 223.16 71.7595 224.3 70.4395C226.44 67.9495 228.31 65.3495 228 60.3295C227.88 58.2695 227.47 55.4095 226.47 54.9095C225.85 54.6095 225 54.8695 224.12 54.9095C220.16 55.0795 217.37 53.9895 216 51.3895C215.44 50.3295 215.32 49.0695 214.47 48.7695C213.67 48.4895 212.06 48.9295 210.86 49.0395C207.16 49.3695 202.1 49.2095 201.11 46.5995C199.91 43.4595 203.23 41.8795 202.92 40.0095C202.72 38.8295 201.12 38.6395 200.03 38.3895C195.58 37.3395 190.49 35.3595 190.01 30.4495C189.62 26.4595 191.76 21.2795 195.34 20.8795C198.28 20.5495 200.74 22.2895 202.56 23.4995C203.45 24.0895 205.27 25.5795 205.9 23.7695C206.14 23.0695 205.72 22.2595 205.72 21.6895C205.72 18.2695 208.67 15.3695 212.94 15.9095C215.43 16.2195 217.01 17.8995 218.45 19.3395C219.04 19.9295 219.87 20.8495 220.53 21.7795C221.1 22.5895 221.61 23.9295 222.42 24.3095C223.37 24.7495 225.03 24.5895 226.03 24.7595C230.46 25.4995 232.71 28.5295 234.97 31.5295C236.73 33.8595 238.22 35.9495 240.2 37.9395C242.05 39.7895 244.2 41.6695 246.07 43.7195C247.92 45.7495 249.6 48.1695 249.95 51.4795C250.7 58.5295 246.38 63.7095 242.73 67.3695C238.72 71.3795 234.53 74.0695 230 77.9295C229.09 76.8395 223.02 76.0295 223.14 78.6495C223.24 80.8595 227 79.1195 228.19 80.1795C229.04 80.9395 228.89 83.0895 228.37 84.2395C227.61 85.9395 224.77 88.0395 221.78 87.4895C220.69 87.2895 218.89 86.6595 218.26 85.9595C217.92 85.5795 217.86 84.3695 216.91 84.2495C216.03 84.1395 215.21 85.0895 214.47 85.6895C212.41 87.3695 209.84 88.9795 207.54 90.1995Z" fill="#223549"/>
<path fill-rule="evenodd" clip-rule="evenodd" d="M78.7293 59.8697C77.1193 53.7997 79.9193 47.4197 82.1593 43.1697C82.7293 42.0897 83.4593 39.8597 84.8693 39.9197C87.5093 40.0397 85.2993 43.1897 84.5993 44.5297C82.8893 47.7597 80.8193 52.3397 81.0793 56.9897C81.2293 59.7797 82.0693 61.7997 84.8693 62.2297C83.2493 56.0597 85.7993 49.3097 88.3893 45.0797C88.9793 44.1097 89.9593 41.8797 91.1893 41.8297C91.6393 41.8097 92.5093 42.2097 92.6393 42.8197C92.8793 43.9297 92.0393 44.5297 91.5593 45.2597C89.2893 48.6897 85.8193 54.9497 87.6793 61.2397C88.1293 62.7697 88.8793 64.1297 90.7493 62.9497C89.9493 56.5097 92.6293 51.2097 95.0793 46.7897C95.7993 45.4897 96.5893 43.3497 97.8793 43.3597C98.3993 43.3597 99.1293 43.8697 99.2293 44.4397C99.3693 45.2097 98.7293 45.9897 98.4193 46.5197C97.3893 48.2297 96.3493 50.1797 95.5293 52.0297C94.3593 54.6597 93.0793 57.6897 93.3593 61.0597C93.4693 62.3497 94.0093 64.2197 95.9793 63.7697C97.2593 63.4797 97.4993 60.8397 97.8793 59.7097C98.4393 58.0197 99.0293 57.0797 99.8693 55.8297C100.419 50.7097 104.509 48.5097 109.169 47.0697C110.549 46.6397 112.689 46.1497 112.329 48.3297C112.169 49.2897 110.969 49.4197 109.799 49.7697C107.139 50.5897 103.839 52.1797 102.939 54.5597C102.729 55.1197 102.509 56.0297 102.849 57.1797C106.029 56.3897 108.459 53.8597 112.689 53.8397C116.109 53.8197 119.279 55.5597 122.619 55.5597C126.179 55.5597 129.159 53.7997 131.469 52.3097C132.399 51.7097 134.229 51.3197 134.269 53.0297C134.309 54.4697 131.859 55.5197 130.569 56.1897C128.869 57.0797 127.049 57.6597 125.519 57.9997C120.819 59.0097 117.759 57.0797 113.869 56.7397C111.049 56.4897 109.249 57.4297 107.369 58.3597C105.529 59.2697 103.259 60.9097 100.959 59.5297C100.049 61.2497 100.199 63.3297 99.0593 64.9497C97.6893 66.8997 94.0693 67.2097 92.1093 65.3997C90.7193 66.3897 87.5193 66.5897 86.5093 65.1297C83.9893 65.4497 82.6293 64.2597 81.1793 63.7797C79.6793 63.2797 78.6093 63.2497 77.4793 62.6097C71.8793 59.4097 71.7493 49.7197 74.7693 43.5597C77.6493 37.6897 83.1193 34.4797 91.4693 34.0797C98.0893 33.7697 104.119 34.9897 109.339 36.5197C114.559 38.0497 119.399 40.0097 124.229 41.8497C132.629 45.0497 141.479 48.1197 150.049 51.4197C151.429 51.9497 153.069 52.2397 153.119 53.4097C153.249 56.2497 148.889 53.9597 147.159 53.3197C135.379 48.9597 124.649 44.6797 112.499 40.4997C105.729 38.1797 97.6893 36.0697 89.2093 37.1597C85.3093 37.6597 81.9893 38.8697 79.7293 41.2197C76.6593 44.4197 73.8793 52.0297 76.7493 57.7397C77.2093 58.6397 77.4993 59.2197 78.7293 59.8697Z" fill="#223549"/>
<path fill-rule="evenodd" clip-rule="evenodd" d="M205.469 56.4398C205.559 56.4098 206.389 56.3198 206.819 56.3498C211.769 56.6998 214.889 58.7298 216.659 62.5798C217.289 63.9398 219.089 68.5498 216.479 68.5398C214.819 68.5298 214.819 65.8098 214.309 64.4798C213.869 63.3198 213.429 62.2698 212.499 61.4098C210.819 59.8398 208.759 59.5098 206.359 59.1498C205.409 59.0098 204.769 58.9098 204.549 58.2498C204.309 57.4698 204.619 56.7098 205.469 56.4398Z" fill="#223549"/>
<path fill-rule="evenodd" clip-rule="evenodd" d="M197.61 82.1692C194.62 81.4992 192.02 81.0192 189.49 79.6392C188.73 79.2292 187.67 78.8192 187.5 78.0992C187.32 77.3092 187.76 76.3292 188.58 76.2992C189.72 76.2492 190.4 77.0292 191.56 77.5592C192.46 77.9692 193.55 78.2892 194.72 78.5492C197.69 79.2192 201.29 79.0892 200.86 82.1592C200.52 84.5692 197.09 86.3692 194.36 86.5792C191.19 86.8192 187.99 86.0392 187.95 84.4992C187.89 81.9092 191.98 83.9292 194.36 83.6892C196.09 83.5292 196.67 82.8392 197.61 82.1692Z" fill="#223549"/>
<path fill-rule="evenodd" clip-rule="evenodd" d="M219.819 81.7197C220.669 81.5297 225.329 81.9097 225.869 82.7997C226.439 83.7497 225.849 84.9197 224.789 85.0597C223.959 85.1597 219.889 84.6397 219.279 84.2497C218.159 83.5097 218.789 81.9497 219.819 81.7197Z" fill="#223549"/>
<path fill-rule="evenodd" clip-rule="evenodd" d="M202.399 111.958C201.679 112.078 199.759 112.258 198.609 112.318C193.149 112.608 189.229 110.338 186.439 107.848V111.638C189.239 113.678 192.899 115.208 197.799 115.208C200.329 115.208 204.989 115.218 204.929 113.128C204.889 111.758 203.539 111.768 202.399 111.958Z" fill="#223549"/>
<path fill-rule="evenodd" clip-rule="evenodd" d="M203.48 148.43C213.42 148.17 220.53 150.9 226.68 154.75C227.53 155.28 228.72 155.93 228.39 157.19C228.27 157.64 227.74 158.05 227.13 158.09C226.33 158.14 226.05 157.69 225.69 157.46C219.63 153.7 212.5 150.68 202.4 151.41C201.32 153.4 200.6 155.75 199.69 157.91C218.36 158.86 230.73 165.82 236.61 179.57C237.41 178.11 238 176.45 238.69 174.88C237.82 171.52 236.64 168.7 234.72 166.03C234.1 165.18 231.95 162.7 234.36 162.33C236.05 162.07 237.36 164.88 237.97 165.85C239.07 167.61 239.82 168.95 240.32 170.63C242.76 165.39 244.74 159.79 246.91 153.93C247.43 152.53 248.12 149.04 249.71 149.06C252.25 149.08 250.15 153.61 249.8 154.57C244.84 167.93 239.32 182.14 233.01 194.2C229.35 201.19 224.93 207.54 218.11 211.53C211.74 215.26 201.11 216.42 191.3 216.95C164.7 218.38 139.88 214.8 114.84 213.52C109.77 213.26 104.56 213.23 99.3097 212.98C91.2997 212.6 83.7597 212.73 78.2797 209.82C76.6297 208.94 74.7797 207.61 73.7697 206.3C73.5497 206.01 73.5297 205.48 73.2297 205.04C72.7697 204.37 71.6997 203.89 71.2397 203.05C69.6097 200.06 71.3697 197.17 74.4897 196.82C78.1597 196.41 81.9497 197.38 85.6797 197.72C97.8997 198.83 107.53 196.02 115.74 192.12C112.9 187.4 105.41 188.01 102.2 183.63C101.02 182.03 100.38 179.05 102.47 177.85C105.05 176.37 110.3 177.73 113.03 178.39C119.53 179.97 124.77 182.84 129.28 186.51C129.97 187.07 131.15 188.52 131.9 188.68C132.73 188.86 134.22 188.49 135.42 188.41C152.81 187.31 170.11 185.55 185.88 183.08C188.58 177.15 191.07 171.23 193.64 165.11C194.48 163.12 195.45 161.08 195.9 158.88C197.18 156.84 198.08 154.22 199.06 151.75C201.43 145.78 203.88 139.62 206.28 133.24C206.79 131.89 207.18 129.79 208.36 129.63C211.39 129.23 209.11 133.89 208.63 135.14C206.94 139.58 205.01 144.28 203.48 148.43ZM189.4 182.55C190.88 182.16 192.78 182.06 192.74 183.72C192.7 185.48 188.66 185.61 186.69 185.89C170.08 188.18 152.07 190.45 134.69 191.4C134.6 191.9 135.91 192.58 135.77 193.66C135.7 194.24 135.14 194.85 134.33 194.83C133.25 194.81 132.15 193.01 131.35 192.21C126.47 187.33 120.86 183.63 113.57 181.56C110.65 180.73 107.41 179.83 103.91 180.39C104.3 182.03 105.18 182.86 106.53 183.64C109.4 185.29 114.09 186.08 116.64 188.61C117.75 189.71 118.85 191.29 119.62 193.12C120.08 194.23 121.77 198.22 119.17 198.08C117.54 197.99 117.82 195.91 117.18 194.65C111.11 197.13 105.17 199.71 97.3197 200.61C91.2197 201.31 84.9097 200.48 79.0797 199.89C77.3997 199.72 74.0097 199.16 73.5697 200.43C72.8897 202.4 76.4197 203.4 78.0797 203.77C82.8797 204.85 86.7897 205.23 92.4297 205.49C94.8997 205.6 98.9597 205.02 98.9297 207.02C98.9097 208.75 96.6297 208.4 94.7797 208.37C89.1197 208.28 83.5297 207.58 79.1597 207.02C84.7397 209.99 92.5197 210.09 100.37 210.09C108.07 210.09 116.33 210.79 123.57 211.26C138.9 212.26 154.07 213.62 169.25 214.33C181.11 214.88 193.43 214.44 203.82 212.8C207.31 212.25 210.85 211.67 213.75 210.54C219.51 208.3 223.36 203.87 226.66 199.08C230.02 194.2 232.56 188.8 235.06 183.1C232.06 176.23 228.32 170.36 222.15 166.67C215.99 162.98 208.13 161.28 198.59 160.8C195.48 167.98 192.45 175.27 189.4 182.55Z" fill="#223549"/>
</g>
<defs>
<clipPath id="clip0">
<rect width="256.46" height="217.27" fill="white"/>
</clipPath>
</defs>
</svg>
