<svg width="261" height="246" viewBox="0 0 261 246" fill="none" xmlns="http://www.w3.org/2000/svg">
<path d="M133.5 224.5L135 221.5V217.5C134.833 215.833 134.5 212 134.5 210C134.5 208 137.833 205.167 139.5 204C141.667 204.167 146.5 204.6 148.5 205C150.5 205.4 158.333 206.833 162 207.5L174.5 211.5L175.5 213.5V218.5L176 222.5V228C175.333 228.667 174 230.1 174 230.5C174 230.9 163 234.667 157.5 236.5L146.5 232L138 227.5L133.5 224.5Z" fill="white"/>
<path d="M81.1594 190.999C80.0874 190.772 79.6441 190.03 79.8194 189.298C79.9946 188.494 80.7265 188.03 81.4686 188.195C82.2108 188.36 82.685 189.092 82.52 189.834C82.3345 190.576 81.7779 190.999 81.1594 190.999ZM165.859 188.143C165.282 188.143 164.736 187.772 164.55 187.185C164.313 186.463 164.715 185.69 165.436 185.453C166.251 185.195 167.024 185.587 167.261 186.319C167.488 187.041 167.096 187.824 166.364 188.051C166.137 188.123 165.993 188.143 165.859 188.143ZM170.755 186.515C170.178 186.515 169.642 186.154 169.446 185.577C169.209 184.855 169.59 184.072 170.322 183.835C171.095 183.556 171.889 183.938 172.137 184.649C172.394 185.371 172.013 186.154 171.291 186.401C171.044 186.484 170.9 186.515 170.755 186.515ZM81.6233 185.876C80.8192 185.855 80.2214 185.216 80.242 184.464C80.2523 183.629 80.8914 183.041 81.6439 183.031C82.4067 183.041 83.0148 183.67 83.0045 184.422C82.9736 185.288 82.3654 185.876 81.6233 185.876ZM175.61 184.773C175.054 184.773 174.528 184.433 174.322 183.876C174.054 183.165 174.415 182.371 175.126 182.103C175.93 181.804 176.724 182.175 176.981 182.886C177.239 183.598 176.878 184.391 176.167 184.659C175.94 184.742 175.775 184.773 175.61 184.773ZM180.434 182.917C179.878 182.917 179.362 182.588 179.146 182.041C178.868 181.33 179.218 180.536 179.929 180.258C180.702 179.949 181.506 180.289 181.785 180.99C182.073 181.691 181.723 182.495 181.022 182.783C180.764 182.897 180.599 182.917 180.434 182.917ZM185.207 180.959C184.671 180.959 184.166 180.65 183.939 180.124C183.64 179.423 183.96 178.619 184.661 178.31C185.454 177.98 186.258 178.299 186.557 179C186.856 179.701 186.526 180.505 185.825 180.804C185.578 180.928 185.392 180.959 185.207 180.959ZM81.5614 180.722C80.8295 180.722 80.2214 180.145 80.1905 179.402C80.1595 178.557 80.7471 177.908 81.5099 177.877C82.2623 177.846 82.9117 178.433 82.9427 179.196C82.9736 180.041 82.386 180.691 81.6233 180.722C81.6026 180.722 81.582 180.722 81.5614 180.722ZM189.928 178.887C189.412 178.887 188.907 178.588 188.681 178.083C188.361 177.392 188.66 176.578 189.351 176.258C190.134 175.908 190.948 176.207 191.268 176.898C191.587 177.588 191.278 178.403 190.588 178.722C190.32 178.846 190.124 178.887 189.928 178.887ZM194.587 176.681C194.082 176.681 193.597 176.403 193.35 175.918C193.01 175.238 193.288 174.413 193.969 174.073C194.742 173.692 195.566 173.97 195.896 174.661C196.236 175.341 195.948 176.166 195.267 176.506C195.01 176.63 194.793 176.681 194.587 176.681ZM81.2419 175.578C80.5306 175.578 79.9328 175.032 79.8709 174.321C79.7988 173.475 80.3657 172.805 81.1182 172.744C81.8706 172.682 82.5407 173.238 82.6025 174.001C82.6747 174.846 82.1077 175.516 81.3553 175.578C81.314 175.578 81.2831 175.578 81.2419 175.578ZM199.184 174.331C198.69 174.331 198.215 174.073 197.968 173.609C197.607 172.939 197.855 172.104 198.525 171.744C199.287 171.342 200.122 171.599 200.473 172.269C200.834 172.939 200.576 173.774 199.906 174.135C199.628 174.269 199.401 174.331 199.184 174.331ZM203.679 171.805C203.215 171.805 202.751 171.568 202.493 171.135C202.101 170.486 202.318 169.641 202.967 169.249C203.71 168.816 204.555 169.033 204.936 169.692C205.318 170.352 205.091 171.197 204.441 171.579C204.163 171.744 203.926 171.805 203.679 171.805ZM80.7265 170.455C80.0358 170.455 79.438 169.94 79.3658 169.239C79.2628 168.414 79.7988 167.724 80.5512 167.631C81.3037 167.538 81.9943 168.074 82.0871 168.827C82.1799 169.682 81.6439 170.362 80.8811 170.455C80.8296 170.445 80.778 170.455 80.7265 170.455ZM208.07 169.105C207.626 169.105 207.183 168.888 206.915 168.486C206.503 167.847 206.678 166.992 207.307 166.579C208.018 166.116 208.874 166.291 209.296 166.93C209.709 167.569 209.533 168.425 208.894 168.837C208.595 169.033 208.327 169.105 208.07 169.105ZM212.317 166.167C211.894 166.167 211.471 165.971 211.203 165.6C210.76 164.982 210.894 164.126 211.513 163.673C212.183 163.178 213.048 163.302 213.502 163.91C213.956 164.518 213.832 165.384 213.213 165.837C212.873 166.085 212.595 166.167 212.317 166.167ZM80.0668 165.342C79.3864 165.342 78.7989 164.848 78.7061 164.157C78.5927 163.312 79.1184 162.621 79.8709 162.518C80.6234 162.415 81.3243 162.941 81.4274 163.693C81.5408 164.528 81.0254 165.229 80.2626 165.332C80.1905 165.342 80.1286 165.342 80.0668 165.342ZM216.347 162.961C215.966 162.961 215.584 162.807 215.306 162.487C214.801 161.91 214.863 161.044 215.44 160.539C216.079 159.982 216.955 160.044 217.45 160.611C217.945 161.188 217.893 162.054 217.316 162.549C216.986 162.848 216.666 162.961 216.347 162.961ZM79.8709 160.199C79.0566 160.168 78.4587 159.529 78.4897 158.766C78.5206 157.921 79.1803 157.323 79.9225 157.354C80.6852 157.385 81.2728 158.024 81.2419 158.787C81.2212 159.622 80.6028 160.199 79.8709 160.199ZM220.068 159.405C219.738 159.405 219.398 159.281 219.13 159.034C218.573 158.519 218.532 157.643 219.058 157.086C219.666 156.457 220.532 156.436 221.089 156.962C221.635 157.488 221.655 158.364 221.13 158.91C220.81 159.261 220.439 159.405 220.068 159.405ZM223.418 155.498C223.13 155.498 222.841 155.406 222.604 155.23C221.996 154.777 221.862 153.911 222.315 153.303C222.851 152.612 223.717 152.499 224.315 152.963C224.913 153.427 225.026 154.292 224.562 154.89C224.263 155.303 223.841 155.498 223.418 155.498ZM80.2214 155.066C79.3452 154.993 78.7886 154.334 78.8504 153.571C78.9226 152.726 79.5926 152.159 80.3451 152.221C81.1079 152.282 81.6645 152.952 81.6026 153.705C81.5305 154.519 80.9326 155.066 80.2214 155.066ZM226.325 151.241C226.078 151.241 225.84 151.179 225.614 151.045C224.964 150.654 224.758 149.809 225.15 149.159C225.583 148.438 226.428 148.221 227.077 148.613C227.727 149.005 227.943 149.85 227.552 150.499C227.242 151.004 226.789 151.241 226.325 151.241ZM80.6543 149.922C79.7781 149.85 79.2215 149.19 79.2834 148.427C79.3452 147.603 79.9946 147.036 80.7574 147.077C81.5202 147.128 82.0871 147.788 82.0356 148.551C81.9634 149.376 81.3656 149.922 80.6543 149.922ZM228.737 146.696C228.541 146.696 228.345 146.654 228.16 146.572C227.469 146.252 227.17 145.438 227.49 144.747C227.84 143.985 228.655 143.675 229.345 143.985C230.036 144.304 230.345 145.118 230.025 145.809C229.757 146.397 229.252 146.696 228.737 146.696ZM80.9842 144.778C80.1698 144.747 79.572 144.108 79.6029 143.346C79.6545 142.48 80.3142 141.902 81.0563 141.944C81.8191 141.985 82.3963 142.634 82.3551 143.397C82.3345 144.201 81.716 144.778 80.9842 144.778ZM230.623 141.902C229.469 141.593 229.077 140.81 229.314 140.088C229.572 139.295 230.345 138.893 231.077 139.13C231.798 139.367 232.2 140.14 231.963 140.861C231.737 141.542 231.201 141.902 230.623 141.902ZM81.0872 139.624C80.3348 139.624 79.7163 139.016 79.706 138.264C79.706 137.398 80.3245 136.779 81.0872 136.779C81.85 136.779 82.4685 137.398 82.4685 138.161C82.4788 138.996 81.8706 139.614 81.1079 139.624C81.1079 139.624 81.0976 139.624 81.0872 139.624ZM231.974 136.934C230.933 136.738 230.458 135.996 230.634 135.254C230.809 134.44 231.541 133.965 232.283 134.12C233.025 134.275 233.499 135.017 233.345 135.759C233.18 136.501 232.613 136.934 231.974 136.934ZM80.8399 134.481C80.1389 134.481 79.5411 133.945 79.4689 133.234C79.3968 132.368 79.9534 131.708 80.7162 131.636C81.4789 131.574 82.1386 132.131 82.2005 132.893C82.283 133.718 81.7263 134.398 80.9739 134.47C80.9223 134.481 80.8811 134.481 80.8399 134.481ZM232.829 131.852C231.901 131.749 231.365 131.059 231.458 130.306C231.551 129.481 232.221 128.935 232.984 129.018C233.736 129.1 234.283 129.78 234.2 130.543C234.107 131.347 233.51 131.852 232.829 131.852ZM80.0565 129.389C79.4174 129.389 78.8504 128.945 78.7061 128.296L80.0565 128.007L78.7061 128.265C78.5412 127.461 79.0154 126.729 79.7575 126.575C80.4997 126.42 81.2316 126.894 81.3862 127.636C81.5614 128.461 81.0872 129.193 80.3451 129.358C80.2523 129.378 80.1595 129.389 80.0565 129.389ZM233.211 126.719C232.407 126.698 231.809 126.059 231.829 125.307C231.85 124.462 232.489 123.853 233.252 123.884C234.015 123.905 234.612 124.544 234.592 125.296C234.561 126.121 233.953 126.719 233.211 126.719ZM78.5515 124.472C78.0052 124.472 77.4898 124.142 77.2733 123.606C76.9538 122.823 77.294 122.019 78.0052 121.73C78.7061 121.441 79.5101 121.792 79.7988 122.493C80.1183 123.276 79.7781 124.08 79.0669 124.369C78.902 124.441 78.7267 124.472 78.5515 124.472ZM233.159 121.565C232.437 121.565 231.829 120.998 231.788 120.266C231.747 119.4 232.345 118.761 233.097 118.73C233.85 118.699 234.499 119.287 234.53 120.05C234.571 120.874 233.994 121.524 233.231 121.575C233.211 121.565 233.19 121.565 233.159 121.565ZM76.0879 119.957C75.6653 119.957 75.2427 119.761 74.9747 119.39C74.4696 118.669 74.6242 117.813 75.253 117.38C75.8818 116.947 76.7373 117.102 77.1703 117.73C77.6547 118.401 77.5104 119.256 76.9023 119.699C76.6549 119.875 76.3662 119.957 76.0879 119.957ZM232.747 116.421C232.066 116.421 231.469 115.916 231.386 115.215C231.293 114.35 231.829 113.669 232.592 113.587C233.345 113.504 234.025 114.051 234.118 114.803C234.221 115.628 233.685 116.318 232.932 116.411C232.87 116.421 232.809 116.421 232.747 116.421ZM72.573 116.226C72.274 116.226 71.9648 116.122 71.7071 115.927C71.0371 115.38 70.9546 114.514 71.4391 113.927C71.9236 113.339 72.7894 113.257 73.377 113.741C74.0264 114.267 74.1191 115.133 73.645 115.72C73.377 116.05 72.975 116.226 72.573 116.226ZM68.1921 113.546C67.9963 113.546 67.8107 113.504 67.6252 113.422C66.8624 113.082 66.5429 112.267 66.8521 111.566C67.1613 110.876 67.9757 110.556 68.6663 110.876C69.4497 111.226 69.7589 112.051 69.4394 112.741C69.2126 113.247 68.7178 113.546 68.1921 113.546ZM63.3165 111.927C62.162 111.69 61.7085 110.948 61.894 110.206C62.0693 109.464 62.8217 109.01 63.5536 109.196C64.3782 109.391 64.8318 110.144 64.6565 110.876C64.5019 111.505 63.935 111.927 63.3165 111.927ZM232.015 111.329C231.365 111.329 230.788 110.865 230.665 110.195C230.52 109.34 231.025 108.629 231.778 108.505C232.53 108.381 233.242 108.886 233.365 109.629C233.51 110.443 233.015 111.164 232.273 111.298C232.18 111.319 232.097 111.329 232.015 111.329ZM58.3481 110.556C57.1215 110.237 56.7195 109.464 56.9462 108.732C57.173 108.01 57.9461 107.608 58.678 107.835C59.4717 108.082 59.884 108.845 59.6572 109.577C59.482 110.175 58.9357 110.556 58.3481 110.556ZM53.4828 108.855C53.3179 108.855 53.153 108.825 52.988 108.763C52.184 108.443 51.8439 107.639 52.1222 106.928C52.4108 106.227 53.2045 105.876 53.9157 106.165C54.6888 106.464 55.0393 107.268 54.7713 107.969C54.5548 108.526 54.0394 108.855 53.4828 108.855ZM48.7721 106.784C48.566 106.784 48.3598 106.742 48.164 106.639C47.4115 106.268 47.1229 105.444 47.4527 104.763C47.7826 104.073 48.6072 103.794 49.2875 104.124C50.0606 104.506 50.3389 105.33 49.9988 106.01C49.7617 106.505 49.2772 106.784 48.7721 106.784ZM231.005 106.268C230.376 106.268 229.809 105.835 229.665 105.196C229.479 104.372 229.943 103.629 230.685 103.464C231.427 103.299 232.169 103.763 232.334 104.495C232.52 105.33 232.056 106.062 231.314 106.237C231.201 106.258 231.097 106.268 231.005 106.268ZM44.2573 104.31C44.0099 104.31 43.7625 104.238 43.5357 104.104C42.8245 103.681 42.6183 102.836 43.01 102.186C43.4017 101.537 44.247 101.32 44.8964 101.712C45.6385 102.176 45.8344 103.021 45.4324 103.671C45.1644 104.083 44.7108 104.31 44.2573 104.31ZM40.0208 101.382C39.7321 101.382 39.4332 101.289 39.1755 101.094C38.4952 100.558 38.3921 99.6917 38.8663 99.0939C39.3404 98.496 40.2063 98.393 40.8041 98.8671C41.4638 99.3722 41.5772 100.238 41.1134 100.846C40.8454 101.197 40.4331 101.382 40.0208 101.382ZM229.747 101.279C229.139 101.279 228.582 100.877 228.417 100.259C228.191 99.4444 228.624 98.6919 229.355 98.4857C230.087 98.2796 230.85 98.7125 231.046 99.4444C231.273 100.269 230.84 101.021 230.108 101.228C229.984 101.259 229.861 101.279 229.747 101.279ZM36.1656 97.9806C35.8151 97.9806 35.4647 97.8466 35.1967 97.5786C34.5988 96.9808 34.5988 96.1046 35.1348 95.5686C35.6708 95.0326 36.547 95.0326 37.083 95.5686C37.6809 96.1665 37.6809 97.0426 37.1449 97.5786C36.8665 97.8466 36.5161 97.9806 36.1656 97.9806ZM228.283 96.3314C227.696 96.3314 227.15 95.95 226.964 95.3521C226.706 94.5687 227.108 93.7957 227.83 93.5586C228.551 93.3215 229.335 93.7235 229.562 94.4451C229.819 95.28 229.407 96.0531 228.675 96.2695C228.551 96.3108 228.417 96.3314 228.283 96.3314ZM32.7846 94.0946C32.3723 94.0946 31.9703 93.909 31.692 93.5586C31.1869 92.8886 31.3003 92.0124 31.8982 91.5589C32.5063 91.1053 33.3619 91.2084 33.8257 91.8165C34.3411 92.4762 34.2277 93.3421 33.6196 93.806C33.3722 94.0018 33.0733 94.0946 32.7846 94.0946ZM135.111 93.7544C134.42 93.7544 133.822 93.239 133.74 92.5278C133.657 91.7753 134.193 91.095 134.956 91.0022C135.812 90.9095 136.482 91.4558 136.564 92.2082C136.647 92.9607 136.1 93.641 135.348 93.7338C135.214 93.7544 135.162 93.7544 135.111 93.7544ZM130.06 93.7029C129.05 93.5895 128.514 92.8989 128.606 92.1464C128.699 91.3939 129.38 90.8476 130.142 90.9507C131.008 91.0744 131.534 91.765 131.421 92.5175C131.328 93.2081 130.74 93.7029 130.06 93.7029ZM140.141 92.6824C139.564 92.6824 139.028 92.3216 138.832 91.7444C138.584 91.0228 138.976 90.2394 139.698 90.0024C140.533 89.7344 141.306 90.1364 141.533 90.8579C141.759 91.5795 141.368 92.3629 140.636 92.5896C140.44 92.6515 140.285 92.6824 140.141 92.6824ZM125.122 92.301C124.937 92.301 124.741 92.2598 124.555 92.1773C123.772 91.8165 123.473 91.0022 123.793 90.3116C124.112 89.621 124.927 89.322 125.617 89.6416C126.38 89.9921 126.689 90.8064 126.37 91.497C126.143 92.0021 125.648 92.301 125.122 92.301ZM226.644 91.4558C226.078 91.4558 225.542 91.1053 225.346 90.5384C225.067 89.7344 225.438 88.951 226.16 88.6933C226.882 88.4356 227.665 88.817 227.912 89.5385C228.191 90.3425 227.82 91.1259 227.098 91.3836C226.943 91.4249 226.789 91.4558 226.644 91.4558ZM144.893 90.693C144.398 90.693 143.924 90.425 143.677 89.9611C143.316 89.2911 143.573 88.4562 144.243 88.0954C145.017 87.7037 145.841 87.9614 146.192 88.6417C146.542 89.322 146.274 90.1467 145.594 90.4971C145.326 90.6414 145.109 90.693 144.893 90.693ZM29.9809 89.7859C29.4964 89.7859 29.0223 89.5282 28.7749 89.0747C28.3626 88.3119 28.61 87.4769 29.28 87.1162C29.95 86.7554 30.7849 87.0028 31.1457 87.6728C31.5477 88.4046 31.3106 89.2396 30.6406 89.6107C30.4344 89.7241 30.2077 89.7859 29.9809 89.7859ZM120.803 89.5179C120.484 89.5179 120.164 89.4045 119.896 89.1777C119.247 88.6005 119.195 87.7346 119.711 87.1677C120.216 86.6008 121.082 86.5492 121.659 87.0543C122.288 87.6006 122.35 88.4768 121.845 89.0437C121.577 89.3633 121.195 89.5179 120.803 89.5179ZM149.274 87.982C148.851 87.982 148.428 87.7862 148.16 87.4151C147.717 86.7966 147.851 85.9411 148.459 85.4875C149.15 84.9824 150.016 85.1267 150.459 85.7452C150.902 86.3637 150.768 87.2192 150.15 87.6728C149.841 87.8893 149.552 87.982 149.274 87.982ZM224.851 86.6214C224.294 86.6214 223.779 86.2915 223.573 85.7452C223.263 84.9515 223.614 84.1578 224.325 83.8795C225.036 83.6012 225.83 83.9517 226.108 84.6629C226.418 85.4566 226.067 86.2503 225.356 86.5286C225.181 86.5905 225.016 86.6214 224.851 86.6214ZM117.402 85.6731C116.969 85.6731 116.536 85.4669 116.268 85.0855C115.783 84.3846 115.938 83.529 116.567 83.0961C117.196 82.6632 118.051 82.8178 118.484 83.4466C118.969 84.1475 118.814 85.0031 118.185 85.436C117.948 85.6009 117.67 85.6731 117.402 85.6731ZM27.8369 85.1061C27.2802 85.1061 26.7442 84.7557 26.5484 84.199C26.2495 83.426 26.6102 82.6219 27.3215 82.3539C28.0327 82.0756 28.8264 82.4364 29.1047 83.1476C29.4037 83.962 29.0429 84.7557 28.3213 85.0134C28.1564 85.0752 27.9915 85.1061 27.8369 85.1061ZM153.211 84.6629C152.861 84.6629 152.51 84.5289 152.242 84.2609C151.706 83.7249 151.706 82.8487 152.242 82.3127C152.871 81.7045 153.747 81.7252 154.273 82.2715C154.799 82.8178 154.788 83.694 154.232 84.2197C153.923 84.5289 153.572 84.6629 153.211 84.6629ZM222.923 81.8385C222.377 81.8385 221.862 81.519 221.645 80.983C221.315 80.2202 221.645 79.4059 222.346 79.1173C223.047 78.8183 223.851 79.1482 224.15 79.8491C224.48 80.6531 224.14 81.4572 223.439 81.7458C223.274 81.8076 223.099 81.8385 222.923 81.8385ZM114.907 81.1788C114.382 81.1788 113.877 80.8696 113.65 80.3542C113.31 79.5708 113.629 78.7565 114.33 78.4576C115.031 78.1586 115.835 78.4782 116.144 79.1688C116.484 79.9419 116.165 80.7562 115.474 81.0551C115.278 81.1376 115.093 81.1788 114.907 81.1788ZM156.654 80.8284C156.355 80.8284 156.067 80.7356 155.809 80.5397C155.211 80.0759 155.098 79.21 155.562 78.6122C156.077 77.9422 156.943 77.8288 157.551 78.2926C158.149 78.7565 158.262 79.6224 157.798 80.2202C157.468 80.6428 157.066 80.8284 156.654 80.8284ZM26.3938 80.1584C25.7547 80.1584 25.1877 79.7151 25.0434 79.0657C24.8579 78.2617 25.3217 77.5196 26.0639 77.3546C26.8061 77.1897 27.5482 77.6536 27.7132 78.3854C27.8987 79.241 27.4142 79.9728 26.6721 80.1274C26.5896 80.1481 26.4865 80.1584 26.3938 80.1584ZM220.872 77.1072C220.357 77.1072 219.852 76.8083 219.625 76.3032C219.274 75.5198 219.573 74.7055 220.264 74.3963C220.955 74.0767 221.769 74.386 222.088 75.0766C222.439 75.8394 222.14 76.664 221.449 76.9732C221.264 77.066 221.068 77.1072 220.872 77.1072ZM159.489 76.53C159.272 76.53 159.046 76.4785 158.839 76.3651C158.169 76.0043 157.922 75.1694 158.283 74.4993C158.705 73.7469 159.54 73.4995 160.21 73.8706C160.88 74.2417 161.117 75.0766 160.746 75.7466C160.458 76.2723 159.984 76.53 159.489 76.53ZM113.289 76.2929C112.66 76.2929 112.093 75.86 111.949 75.2209C111.763 74.386 112.227 73.6541 112.969 73.4789C113.712 73.3139 114.443 73.7778 114.619 74.52C114.804 75.3446 114.34 76.0868 113.598 76.2517C113.495 76.2826 113.392 76.2929 113.289 76.2929ZM25.6516 75.0457C24.9404 75.0457 24.3425 74.52 24.2807 73.7984C24.2085 72.9841 24.7754 72.3038 25.5279 72.2419C26.2907 72.1801 26.9504 72.7264 27.0122 73.4789C27.0844 74.2932 26.5175 74.9735 25.765 75.0354C25.7341 75.0457 25.6928 75.0457 25.6516 75.0457ZM218.646 72.4687C218.14 72.4687 217.646 72.1904 217.409 71.6956C217.027 70.9638 217.295 70.1288 217.976 69.7887C218.656 69.4382 219.481 69.7062 219.831 70.3865C220.223 71.1699 219.934 71.9945 219.254 72.3347C219.058 72.4172 218.852 72.4687 218.646 72.4687ZM161.592 71.8193C160.437 71.4998 160.045 70.737 160.293 70.0154C160.551 69.2423 161.344 68.8403 162.066 69.0877C162.787 69.3351 163.179 70.0979 162.932 70.8194C162.715 71.4482 162.179 71.8193 161.592 71.8193ZM112.65 71.1802C111.908 71.1802 111.3 70.5927 111.269 69.8402C111.248 68.995 111.846 68.3559 112.609 68.3353C113.361 68.294 114 68.9125 114.021 69.6753C114.041 70.5205 113.444 71.1596 112.681 71.1802C112.681 71.1802 112.671 71.1802 112.65 71.1802ZM25.5898 69.902C24.7754 69.8711 24.1776 69.2423 24.2188 68.4796C24.2497 67.6652 24.8888 67.0468 25.6516 67.088C26.4144 67.1189 27.0019 67.7477 26.971 68.5002C26.9401 69.3042 26.3216 69.902 25.5898 69.902ZM216.182 67.9126C215.718 67.9126 215.265 67.6756 215.007 67.2426C214.605 66.5417 214.811 65.6861 215.471 65.3047C216.13 64.9234 216.965 65.1295 217.347 65.7892C217.749 66.4901 217.543 67.3457 216.883 67.7271C216.656 67.8508 216.419 67.9126 216.182 67.9126ZM162.829 66.8406C161.88 66.7272 161.355 66.0263 161.458 65.2738C161.581 64.4286 162.272 63.9029 163.024 64.0163C163.777 64.1193 164.303 64.8203 164.199 65.5728C164.086 66.3458 163.499 66.8406 162.829 66.8406ZM113 66.0366C112.042 65.9026 111.526 65.2223 111.64 64.4698C111.763 63.6658 112.475 63.1401 113.227 63.2535C113.98 63.3669 114.495 64.0575 114.382 64.81C114.268 65.5315 113.67 66.0366 113 66.0366ZM26.1464 64.7997C25.1671 64.6553 24.662 63.9441 24.7857 63.1916C24.9094 62.367 25.6104 61.8516 26.3731 61.9753C27.1256 62.0887 27.641 62.7999 27.5276 63.5421C27.3833 64.3152 26.8061 64.7997 26.1464 64.7997ZM213.523 63.5318C213.079 63.5318 212.636 63.3153 212.378 62.9133C211.904 62.1918 212.09 61.3362 212.729 60.9239C213.368 60.5116 214.224 60.6868 214.636 61.3259C215.1 62.0165 214.924 62.8721 214.296 63.2947C214.048 63.4596 213.78 63.5318 213.523 63.5318ZM163.004 61.7073C162.293 61.7073 161.695 61.161 161.633 60.4394C161.571 59.5736 162.148 58.9139 162.901 58.8623C163.653 58.8005 164.313 59.3777 164.375 60.1405C164.447 60.9651 163.88 61.6351 163.117 61.697C163.086 61.7073 163.045 61.7073 163.004 61.7073ZM114.258 61.0682C113.093 60.7487 112.712 59.9653 112.949 59.254C113.227 58.4397 114.011 58.0583 114.732 58.3057C115.454 58.5531 115.835 59.3365 115.577 60.058C115.361 60.6971 114.825 61.0682 114.258 61.0682ZM27.2596 59.7694C26.1567 59.522 25.7341 58.7593 25.9299 58.0274C26.167 57.2028 26.9298 56.7698 27.6616 56.9863C28.3935 57.1925 28.8161 57.9552 28.61 58.6871C28.4141 59.3674 27.8575 59.7694 27.2596 59.7694ZM210.575 59.3056C210.162 59.3056 209.75 59.12 209.472 58.7593C208.956 58.0686 209.09 57.2028 209.698 56.7492C210.307 56.2957 211.172 56.4297 211.626 57.0378C212.131 57.7079 212.007 58.5737 211.399 59.0273C211.152 59.2231 210.863 59.3056 210.575 59.3056ZM162.086 56.6462C161.489 56.6462 160.932 56.2545 160.767 55.6463C160.54 54.8114 160.963 54.0589 161.705 53.8527C162.437 53.6466 163.2 54.0795 163.395 54.8113C163.622 55.6154 163.2 56.3781 162.468 56.5843C162.344 56.6255 162.22 56.6462 162.086 56.6462ZM116.268 56.3266C116.051 56.3266 115.845 56.2751 115.639 56.172C114.959 55.8215 114.701 54.9969 115.041 54.3166C115.433 53.5641 116.258 53.2961 116.938 53.6466C117.618 53.997 117.876 54.8217 117.536 55.502C117.247 56.0586 116.773 56.3266 116.268 56.3266ZM207.348 55.2958C206.967 55.2958 206.596 55.1412 206.317 54.832C205.75 54.162 205.812 53.2961 206.39 52.8013C206.967 52.3065 207.843 52.3787 208.327 52.9559C208.874 53.5744 208.822 54.4403 208.255 54.9454C207.998 55.1824 207.678 55.2958 207.348 55.2958ZM28.878 54.8732C28.713 54.8732 28.5481 54.8423 28.3832 54.7804C27.6719 54.5021 27.3215 53.7084 27.5998 52.9972C27.8987 52.2138 28.6924 51.853 29.4037 52.121C30.1149 52.389 30.4654 53.193 30.1974 53.9043C29.95 54.5433 29.4346 54.8732 28.878 54.8732ZM118.917 51.9148C118.649 51.9148 118.371 51.8324 118.134 51.6675C117.505 51.2345 117.35 50.379 117.794 49.7502C118.268 49.0596 119.123 48.8946 119.752 49.3276C120.381 49.7605 120.546 50.6161 120.113 51.2448C119.783 51.7087 119.36 51.9148 118.917 51.9148ZM160.355 51.8118C159.829 51.8118 159.324 51.5025 159.097 50.9974C158.747 50.2347 159.056 49.4203 159.746 49.1008C160.437 48.7916 161.251 49.0905 161.571 49.7811C161.921 50.5645 161.612 51.3788 160.911 51.6881C160.726 51.7705 160.54 51.8118 160.355 51.8118ZM203.843 51.5128C203.493 51.5128 203.143 51.3788 202.875 51.1108C202.277 50.513 202.277 49.6368 202.813 49.1008C203.349 48.5648 204.225 48.5648 204.761 49.1008C205.359 49.6987 205.359 50.5748 204.823 51.1108C204.555 51.3788 204.204 51.5128 203.843 51.5128ZM30.9808 50.1522C30.7746 50.1522 30.5581 50.1007 30.3623 50.0079C29.682 49.6677 29.414 48.8431 29.7541 48.1628C30.1252 47.4206 30.9498 47.132 31.6302 47.4722C32.3105 47.8123 32.5991 48.6369 32.2589 49.3173C31.9703 49.8739 31.4858 50.1522 30.9808 50.1522ZM200.061 47.9979C199.751 47.9979 199.442 47.8948 199.184 47.668C198.566 47.1423 198.483 46.2558 198.978 45.6786C199.473 45.1014 200.329 45.0189 200.906 45.5137C201.524 46.0394 201.607 46.9258 201.112 47.5031C200.834 47.8329 200.452 47.9979 200.061 47.9979ZM122.092 47.8535C121.772 47.8535 121.453 47.7402 121.185 47.5134C120.608 47.0186 120.546 46.1424 121.051 45.5755C121.607 44.9364 122.484 44.8746 123.051 45.3797C123.628 45.8847 123.679 46.7506 123.185 47.3278C122.855 47.6886 122.473 47.8535 122.092 47.8535ZM157.901 47.2866C157.448 47.2866 157.005 47.0702 156.747 46.6578C156.283 45.9363 156.469 45.0807 157.108 44.6684C157.747 44.2561 158.602 44.4417 159.015 45.091C159.468 45.792 159.293 46.6475 158.654 47.0598C158.417 47.2145 158.159 47.2866 157.901 47.2866ZM33.5268 45.6786C33.2691 45.6786 33.0114 45.6064 32.7846 45.4621C32.1455 45.0498 31.96 44.2046 32.362 43.5552C32.8052 42.8439 33.6505 42.6481 34.2999 43.0501C34.9493 43.4521 35.1451 44.2973 34.7431 44.9467C34.4236 45.4621 33.9803 45.6786 33.5268 45.6786ZM196.071 44.7715C195.783 44.7715 195.494 44.6787 195.247 44.4932C194.577 43.9984 194.443 43.1326 194.896 42.5244C195.35 41.9162 196.216 41.7822 196.824 42.2358C197.514 42.7512 197.628 43.617 197.174 44.2252C196.896 44.586 196.484 44.7715 196.071 44.7715ZM125.679 44.153C125.308 44.153 124.937 43.9984 124.669 43.7098C124.153 43.1532 124.184 42.277 124.741 41.7616C125.349 41.1844 126.225 41.2153 126.741 41.7719C127.266 42.3285 127.236 43.1944 126.679 43.7201C126.349 44.0293 126.009 44.153 125.679 44.153ZM154.819 43.1635C154.438 43.1635 154.057 43.0089 153.789 42.6996C153.242 42.0605 153.294 41.1844 153.871 40.6896C154.448 40.1948 155.304 40.2464 155.799 40.8133C156.355 41.4421 156.304 42.3079 155.737 42.813C155.469 43.0501 155.139 43.1635 154.819 43.1635ZM191.825 41.8235C191.577 41.8235 191.33 41.7513 191.103 41.607C190.423 41.1741 190.217 40.3082 190.629 39.6691C191.041 39.03 191.876 38.8342 192.515 39.2362C193.195 39.6691 193.402 40.535 192.989 41.1741C192.721 41.5967 192.278 41.8235 191.825 41.8235ZM36.4852 41.4627C36.1862 41.4627 35.8976 41.3699 35.6399 41.1741C35.0421 40.7102 34.9287 39.8443 35.3925 39.2465C35.9388 38.5662 36.8047 38.4734 37.4026 38.9476C38.0004 39.4217 38.0932 40.2876 37.6087 40.8854C37.3098 41.2874 36.8975 41.4627 36.4852 41.4627ZM129.627 40.8442C129.215 40.8442 128.792 40.6587 128.524 40.2979C128.07 39.6897 128.184 38.8239 128.792 38.3703C129.452 37.8652 130.318 37.9683 130.781 38.5765C131.245 39.1743 131.132 40.0402 130.534 40.504C130.204 40.7514 129.916 40.8442 129.627 40.8442ZM151.201 39.5042C150.871 39.5042 150.542 39.3908 150.274 39.1434C149.645 38.5868 149.593 37.7209 150.098 37.1437C150.603 36.5768 151.469 36.5252 152.047 37.0303C152.686 37.6075 152.727 38.4837 152.222 39.0403C151.954 39.3496 151.572 39.5042 151.201 39.5042ZM187.433 39.1743C187.207 39.1743 186.97 39.1125 186.753 38.9888C186.021 38.5868 185.784 37.7415 186.155 37.0818C186.526 36.4118 187.361 36.1748 188.031 36.5458C188.784 36.9788 189.01 37.8137 188.639 38.4734C188.371 38.9166 187.908 39.1743 187.433 39.1743ZM133.874 37.9271C133.41 37.9271 132.967 37.7003 132.699 37.2777C132.297 36.6283 132.493 35.7831 133.142 35.381C133.863 34.9378 134.709 35.1337 135.111 35.7727C135.513 36.4221 135.317 37.2674 134.667 37.6694C134.369 37.8549 134.121 37.9271 133.874 37.9271ZM39.8661 37.5766C39.526 37.5766 39.1755 37.4529 38.9075 37.1952C38.3612 36.6695 38.3406 35.7934 38.8663 35.247C39.4538 34.6389 40.33 34.6183 40.8763 35.144C41.4226 35.6697 41.4432 36.5458 40.9175 37.0921C40.5877 37.4323 40.2269 37.5766 39.8661 37.5766ZM182.867 36.7829C182.661 36.7829 182.465 36.7417 182.269 36.6489C181.496 36.2675 181.218 35.4429 181.558 34.7626C181.898 34.0823 182.723 33.8039 183.403 34.1338C184.155 34.5049 184.444 35.3295 184.114 36.0098C183.877 36.4943 183.382 36.7829 182.867 36.7829ZM147.171 36.2984C146.903 36.2984 146.625 36.216 146.388 36.0511C145.687 35.546 145.542 34.6904 145.975 34.0719C146.418 33.4535 147.274 33.3092 147.892 33.7524C148.573 34.2266 148.727 35.0821 148.294 35.7109C148.037 36.0923 147.604 36.2984 147.171 36.2984ZM138.378 35.4223C137.873 35.4223 137.378 35.144 137.141 34.6492C136.801 33.9689 137.09 33.1442 137.77 32.8041C138.523 32.4227 139.347 32.701 139.687 33.3813C140.028 34.0616 139.749 34.8863 139.069 35.2264C138.78 35.381 138.574 35.4223 138.378 35.4223ZM178.187 34.6389C178.002 34.6389 177.816 34.5976 177.641 34.5255C176.868 34.1956 176.538 33.3916 176.837 32.6907C177.136 31.9898 177.94 31.6599 178.641 31.9588C179.434 32.299 179.754 33.1133 179.445 33.8039C179.228 34.3193 178.723 34.6389 178.187 34.6389ZM43.6491 34.0823C43.2471 34.0823 42.8554 33.907 42.5874 33.5772C42.1029 32.9896 42.1854 32.1238 42.7729 31.6393C43.4326 31.1033 44.2985 31.1857 44.783 31.7733C45.2674 32.3608 45.1747 33.2267 44.5871 33.7112C44.2676 33.9792 43.9583 34.0823 43.6491 34.0823ZM142.831 33.5359C142.605 33.5359 142.367 33.4741 142.151 33.3607C141.409 32.9381 141.172 32.0928 141.553 31.4331C141.749 31.0827 142.079 30.8559 142.44 30.7734C143.409 30.4024 144.202 30.7631 144.47 31.4744C144.728 32.1753 144.377 32.9484 143.697 33.2267C143.45 33.4226 143.141 33.5359 142.831 33.5359ZM173.404 32.7216C173.239 32.7216 173.075 32.6907 172.91 32.6288C172.126 32.3402 171.765 31.5465 172.023 30.8353C172.281 30.124 173.075 29.753 173.796 30.021C174.61 30.3302 174.961 31.1239 174.693 31.8351C174.487 32.3815 173.961 32.7216 173.404 32.7216ZM147.996 31.7733C147.387 31.7733 146.831 31.3713 146.666 30.7528C146.47 30.021 146.903 29.2582 147.635 29.0623C148.47 28.8459 149.222 29.2788 149.418 30.021C149.614 30.7528 149.171 31.5053 148.428 31.7011C148.243 31.763 148.119 31.7733 147.996 31.7733ZM168.488 31.1961C167.354 30.9693 166.89 30.2374 167.055 29.4953C167.22 28.7531 167.962 28.2892 168.704 28.4645C169.549 28.6706 170.003 29.4128 169.817 30.155C169.673 30.7734 169.106 31.1961 168.488 31.1961ZM138.255 31.1651C138.059 31.1651 137.863 31.1239 137.667 31.0311C136.904 30.6807 136.605 29.856 136.925 29.1654C137.244 28.4748 138.059 28.1759 138.749 28.4954C139.522 28.8562 139.821 29.6808 139.502 30.3714C139.265 30.8765 138.77 31.1651 138.255 31.1651ZM47.8341 31.0827C47.3702 31.0827 46.927 30.8559 46.659 30.4333C46.257 29.7839 46.4529 28.9386 47.1022 28.5366C47.8547 28.0831 48.7 28.2995 49.0917 28.9489C49.4834 29.5983 49.2669 30.4436 48.6175 30.8353C48.3392 31.0208 48.0815 31.0827 47.8341 31.0827ZM153.036 30.7116C152.366 30.7116 151.779 30.2271 151.675 29.5468C151.562 28.7943 152.077 28.0934 152.83 27.98C153.675 27.8563 154.376 28.3717 154.489 29.1242C154.603 29.8767 154.087 30.5776 153.335 30.691C153.18 30.7116 153.108 30.7116 153.036 30.7116ZM163.406 30.3714C162.427 30.2787 161.87 29.6086 161.942 28.8562C162.014 28.1037 162.695 27.5471 163.447 27.6192C164.272 27.6914 164.839 28.3511 164.777 29.1139C164.715 29.8251 164.117 30.3714 163.406 30.3714ZM158.2 30.2168C157.468 30.2168 156.84 29.6396 156.809 28.8974C156.778 28.1346 157.355 27.4955 158.108 27.4646C158.912 27.4337 159.582 28.0212 159.613 28.784C159.643 29.5468 159.066 30.1859 158.314 30.2168C158.242 30.2168 158.221 30.2168 158.2 30.2168ZM133.503 29.1551C133.348 29.1551 133.183 29.1242 133.029 29.0726C132.214 28.7531 131.864 27.9594 132.132 27.2481C132.41 26.5369 133.204 26.1864 133.915 26.4648C134.688 26.7534 135.059 27.5368 134.791 28.2583C134.595 28.8149 134.07 29.1551 133.503 29.1551ZM52.4211 28.7325C51.8748 28.7325 51.3594 28.4026 51.1429 27.8666C50.8543 27.1657 51.2048 26.3617 51.9057 26.0731C52.6685 25.7535 53.4725 26.0834 53.7714 26.774C54.0704 27.4749 53.7405 28.2789 53.0396 28.5779C52.7613 28.7016 52.586 28.7325 52.4211 28.7325ZM128.637 27.4749C127.421 27.1657 127.009 26.3926 127.236 25.671C127.452 24.9392 128.225 24.5372 128.957 24.7536C129.792 25.0217 130.184 25.7947 129.946 26.5163C129.761 27.1038 129.215 27.4749 128.637 27.4749ZM57.2761 27.0214C56.6886 27.0214 56.1422 26.64 55.9567 26.0421C55.7299 25.3103 56.1422 24.5475 56.8741 24.3207C57.6884 24.0733 58.4512 24.4856 58.678 25.2072C58.9047 25.9391 58.4924 26.7018 57.7606 26.9286C57.5441 27.0111 57.4101 27.0214 57.2761 27.0214ZM123.679 26.0731C122.515 25.8154 122.071 25.0629 122.257 24.331C122.442 23.5992 123.195 23.1456 123.937 23.3415C124.741 23.5373 125.195 24.2795 125.019 25.0217C124.865 25.6504 124.298 26.0731 123.679 26.0731ZM62.2548 25.6814C61.6363 25.6814 61.0694 25.2587 60.9148 24.63C60.7395 23.8878 61.1931 23.1456 61.9249 22.9704C62.7702 22.7745 63.5124 23.2384 63.6773 23.9806C63.8422 24.7227 63.3783 25.4649 62.6465 25.6298C62.4713 25.671 62.3579 25.6814 62.2548 25.6814ZM118.649 24.9289C117.546 24.7433 117.062 24.0115 117.206 23.2693C117.35 22.5272 118.082 22.0427 118.824 22.187C119.68 22.3725 120.154 23.1044 119.989 23.8466C119.855 24.4856 119.288 24.9289 118.649 24.9289ZM67.2953 24.6196C66.6459 24.6196 66.0687 24.1558 65.945 23.4858C65.811 22.7333 66.3058 22.0221 67.048 21.8881C67.8829 21.7334 68.5941 22.2282 68.7384 22.9704C68.8724 23.7229 68.3777 24.4341 67.6355 24.5784C67.4603 24.6093 67.3778 24.6196 67.2953 24.6196ZM113.578 24.0321C112.526 23.8878 112.011 23.1869 112.124 22.4344C112.238 21.6819 112.939 21.1665 113.691 21.2799C114.526 21.4036 115.041 22.1148 114.928 22.857C114.825 23.5373 114.248 24.0321 113.578 24.0321ZM72.3874 23.795C71.7174 23.795 71.1196 23.3002 71.0268 22.6096C70.9237 21.8571 71.4494 21.1562 72.2019 21.0531C73.0471 20.9294 73.7377 21.4654 73.8408 22.2179C73.9439 22.9704 73.4182 23.6713 72.6657 23.7744C72.5111 23.795 72.4493 23.795 72.3874 23.795ZM108.465 23.3415C107.465 23.2384 106.919 22.5581 107.001 21.8056C107.084 21.0531 107.764 20.5068 108.516 20.5893C109.382 20.7027 109.918 21.383 109.815 22.1458C109.743 22.8261 109.145 23.3415 108.465 23.3415ZM77.5001 23.1765C76.7992 23.1765 76.2013 22.6405 76.1292 21.9293C76.057 21.1768 76.6136 20.4965 77.3661 20.4243C78.1907 20.3316 78.8711 20.8779 78.9535 21.6304C79.036 22.3828 78.5 23.0632 77.7372 23.1559C77.5929 23.1765 77.5413 23.1765 77.5001 23.1765ZM103.332 22.8467C102.383 22.7848 101.816 22.1251 101.868 21.3624C101.919 20.5996 102.579 20.0223 103.342 20.0842C104.208 20.1563 104.775 20.816 104.713 21.5788C104.641 22.3107 104.043 22.8467 103.332 22.8467ZM82.6334 22.7539C81.9119 22.7539 81.314 22.1973 81.2625 21.4757C81.2109 20.713 81.7779 20.0636 82.5407 20.0017C83.4065 19.9399 84.0559 20.5377 84.0971 21.2902C84.1384 22.053 83.5611 22.7024 82.7984 22.7436C82.6953 22.7436 82.6643 22.7539 82.6334 22.7539ZM98.188 22.5478C97.2809 22.5168 96.6933 21.8674 96.7243 21.115C96.7552 20.3522 97.4046 19.7646 98.1571 19.7956C98.992 19.8162 99.5899 20.4553 99.5692 21.2181C99.5383 21.9602 98.9302 22.5478 98.188 22.5478ZM87.7873 22.5065C87.0452 22.5065 86.437 21.919 86.4164 21.1665C86.3958 20.4037 86.9936 19.775 87.7564 19.7543C88.5914 19.7234 89.2305 20.311 89.2614 21.0737C89.2923 21.8365 88.7048 22.4756 87.942 22.5065C87.808 22.5065 87.7977 22.5065 87.7873 22.5065ZM93.0237 22.4344C92.1785 22.4344 91.56 21.8159 91.56 21.0531C91.56 20.2903 92.1785 19.6719 92.9413 19.6719C93.8071 19.6822 94.4153 20.311 94.405 21.0634C94.3947 21.8365 93.7762 22.4344 93.0237 22.4344Z" fill="#223549"/>
<path fill-rule="evenodd" clip-rule="evenodd" d="M31.0631 192.861C31.0631 192.861 35.1141 197.943 41.8761 197.118C48.638 196.293 55.3484 191.531 55.3484 191.531C55.3484 191.531 60.626 178.244 61.729 174.688C62.8422 171.132 62.9659 159.618 62.9659 159.618C62.9659 159.618 75.1601 137.466 85.3031 133.92C95.7449 130.271 105.774 130.725 105.774 130.725C105.774 130.725 106.352 148.083 123.679 146.857C141.007 145.63 151.51 132.859 151.51 132.859C151.51 132.859 174.724 140.909 183.856 154.217C193 167.524 204.915 194.84 205.987 214.816C206.956 232.835 203.431 238.401 193.783 242.4C183.341 246.73 170.477 241.689 170.477 241.689C170.477 241.689 174.713 233.917 175.26 227.773C175.816 221.63 174.466 211.374 174.466 211.374L167.817 208.096L139.718 202.066C139.718 202.066 138.76 181.965 132.358 176.894C125.957 171.822 119.865 174.502 119.865 174.502L106.836 175.739L103.383 180.79L98.0642 194.974L108.083 208.353L126.071 213.755C126.071 213.755 125.359 217.414 126.957 219.342C128.545 221.259 150.005 234.072 152.211 234.762C154.428 235.453 155.664 238.927 155.664 238.927L81.7468 230.155L81.1284 194.345C81.1284 194.345 70.7999 217.311 59.0592 223.145C47.3186 228.979 29.486 233.309 22.8993 218.002C19.3019 209.652 28.1254 189.459 28.1254 189.459L31.0631 192.861Z" fill="#F7C154"/>
<path fill-rule="evenodd" clip-rule="evenodd" d="M87.7155 92.8231L79.7578 87.7104L86.0044 87.0507L83.448 83.3605C83.448 83.3605 87.3238 83.3708 89.4163 79.5672C91.5088 75.7739 99.1572 61.1676 113.372 62.4252C123.185 63.2911 123.979 64.6002 123.979 64.6002L126.823 57.3125L128.05 62.8994C128.05 62.8994 134.915 59.6008 134.585 60.1575C134.255 60.7038 132.029 66.3113 132.029 66.3113C132.029 66.3113 145.326 77.6087 144.811 86.8548C144.295 96.1113 141.306 103.43 141.306 103.43C141.306 103.43 138.203 97.9976 135.626 99.0696C133.039 100.142 131.843 103.523 131.843 103.523L129.194 107.306L124.37 91.0192C124.37 91.0192 124.133 84.8654 119.732 84.8654C115.33 84.8654 109.692 88.6381 103.559 90.411C97.4152 92.184 90.0966 88.8442 90.0966 88.8442L87.7155 92.8231Z" fill="#223549"/>
<path fill-rule="evenodd" clip-rule="evenodd" d="M115.311 104.08C116.404 103.792 117.527 104.441 117.826 105.534L118.579 108.368C118.878 109.461 118.228 110.584 117.125 110.883C116.033 111.172 114.909 110.523 114.61 109.43L113.848 106.606C113.569 105.503 114.219 104.379 115.311 104.08Z" fill="#223549"/>
<path fill-rule="evenodd" clip-rule="evenodd" d="M98.0257 103.897C99.1183 103.608 100.242 104.257 100.541 105.35L101.304 108.174C101.592 109.267 100.943 110.391 99.8501 110.69C98.7575 110.978 97.634 110.329 97.335 109.236L96.5825 106.412C96.2836 105.309 96.933 104.185 98.0257 103.897Z" fill="#223549"/>
<path fill-rule="evenodd" clip-rule="evenodd" d="M29.6101 121.074H53.0502C54.8231 121.074 56.2662 122.363 56.2662 123.94L53.7923 156.997C53.7923 157.791 53.1945 158.43 52.4523 158.43H31.6717C30.9295 158.43 31.2284 157.131 31.2284 156.348L29.8678 152.4L30.2492 148.895L28.4865 141.071L26.4044 123.95C26.394 122.352 27.8371 121.074 29.6101 121.074Z" fill="#223549"/>
<path d="M52.4429 159.62H31.6726C31.2087 159.62 30.7861 159.434 30.4768 159.114C29.8893 158.475 29.9511 157.558 30.0027 156.826C30.0233 156.527 28.642 152.538 28.642 152.538L29.0337 148.961L27.2917 141.21L25.1992 123.944C25.1992 121.697 27.1783 119.883 29.611 119.883H53.051C55.4837 119.883 57.4628 121.707 57.4628 123.944L54.9786 157.084C54.9786 158.434 53.8447 159.62 52.4429 159.62ZM32.3735 157.228H52.4429C52.5872 156.991 55.0611 123.851 55.0611 123.851C55.0611 123.016 54.154 122.264 53.0407 122.264H29.611C28.5287 122.264 27.6319 122.985 27.6009 123.872L29.6728 140.849L31.4664 148.817L31.0953 152.249L32.4353 156.136C32.4353 156.538 32.425 156.764 32.4044 156.991C32.3838 157.053 32.3838 157.135 32.3735 157.228Z" fill="#223549"/>
<path fill-rule="evenodd" clip-rule="evenodd" d="M28.7773 135.156L54.5779 135.435L53.4544 147.742L30.3132 147.722L28.7773 135.156Z" fill="#F7C154"/>
<path fill-rule="evenodd" clip-rule="evenodd" d="M129.091 60.4491C130.163 60.1914 131.225 59.4905 132.462 58.8514C133.431 58.3463 136.451 56.3363 136.977 58.3154C137.276 59.4493 136.09 61.0779 135.554 62.1293C134.864 63.4797 134.317 64.5826 133.781 65.5825C139.1 70.6333 144.811 76.5294 146.367 85.4354C147.645 92.754 144.831 99.8045 142.028 104.752C140.44 107.546 139.43 110.329 136.441 111.669C136.637 117.555 138.812 121.472 142.11 124.255C144.852 124.399 147.439 125.42 149.913 126.296C167.055 132.377 181.62 140.933 190.763 155.189C193.33 159.188 195.422 163.775 197.494 168.393C201.607 177.577 205.555 186.823 208.307 197.461C209.688 202.78 210.987 208.418 211.317 214.387C212.09 228.282 208.204 237.033 199.174 241.95C194.752 244.362 189.454 245.826 182.867 245.578C176.59 245.341 171.312 244.042 166.21 242.3C156.562 239.012 147.553 234.353 139.09 229.539C135.183 227.313 130.339 224.787 127.308 221.386C125.721 219.613 124.535 217.355 124.205 214.562C123.834 211.377 124.36 208.686 125.092 205.697C120.433 204.604 116.33 207.759 111.795 207.295C109.857 207.099 107.558 205.883 108.166 203.13C104.775 203.069 102.445 199.203 104.445 196.214C103.27 194.956 101.507 194.286 101.879 191.606C102.26 188.803 105.126 186.545 107.723 185.226C110.681 183.731 114.114 182.896 117.299 182.566C114.537 181.474 111.259 182.68 108.702 182.391C105.239 181.999 102.002 177.01 105.868 174.856C109.115 173.042 115.938 173.093 120.752 173.351C128.937 173.784 134.74 175.804 137.585 181.329C138.595 183.288 138.873 185.401 139.183 187.978C139.76 192.74 140.76 197.224 141.842 201.801C150.15 203.543 158.592 205.14 167.014 206.769C165.231 198.801 162.272 190.318 159.304 182.669C158.85 181.505 157.304 178.618 159.479 178.505C160.685 178.443 161.025 180.031 161.52 181.257C163.777 186.885 165.952 192.812 167.725 198.987C168.436 201.461 169.385 204.007 169.766 206.429C169.849 206.975 169.849 207.47 169.673 207.934C172.549 208.882 176.476 209.944 180.311 210.593C181.569 210.81 183.084 210.882 183.146 212.098C183.28 214.758 178.404 212.706 176.94 212.634C177.786 217.5 177.981 224.004 176.94 228.849C175.899 233.734 173.642 237.734 171.353 241.074C178.157 243.197 187.176 243.578 193.598 241.424C199.917 239.301 204.854 235.363 207.07 229.281C209.441 222.757 208.936 213.861 207.606 206.511C204.988 191.998 200.009 180.247 194.577 168.321C191.918 162.487 189.011 156.601 185.269 152.014C177.569 142.562 167.086 136.119 155.046 131.006C152.037 133.645 148.985 136.531 145.481 139.067C142.131 141.489 138.286 143.747 134.132 145.355C129.937 146.994 124.298 148.334 119.154 147.478C110.764 146.087 104.961 141.036 104.445 131.439C104.414 130.79 104.332 130.027 104.713 129.398C103.889 128.533 102.703 128.852 101.611 128.862C92.7148 128.976 85.5097 130.697 79.6342 134.356C74.1504 137.779 69.7283 142.922 66.0793 148.54C65.5536 149.344 64.7187 150.282 64.5744 150.931C64.3373 152.004 64.5641 153.385 64.4816 154.56C63.9766 162.466 62.5644 169.661 61.111 176.887C59.9359 182.711 58.4103 188.844 56.8538 194.699C56.3487 196.595 55.957 200.636 53.8439 199.481C52.1019 198.533 54.7098 194.389 54.6376 193.008C52.9162 194.224 51.1845 195.688 49.0508 196.729C46.8758 197.801 44.3092 198.492 41.4333 198.409C35.5372 198.255 32.218 194.884 28.7649 192.204C27.1672 196.008 25.8272 199.626 24.951 203.904C24.0542 208.305 23.7862 213.593 25.0438 217.634C27.4043 225.272 35.599 228.745 45.7832 227.292C58.8535 225.426 66.4195 216.984 72.6351 207.707C74.0679 205.563 75.6553 203.058 76.9748 200.44C77.3871 199.626 78.1292 198.43 78.2117 197.873C78.3457 197.049 77.9849 195.606 77.8612 194.42C77.2737 188.854 76.6552 183.36 75.9955 177.588C75.7687 175.567 74.8719 171.547 76.882 171.733C78.6859 171.908 78.5519 176.227 78.7477 178.113C80.531 195.286 82.6132 213.273 84.3346 230.219C83.4687 230.137 82.5925 230.065 81.6751 230.044C80.6959 221.015 79.7579 211.933 78.7477 202.924C74.0576 210.954 68.7079 218.695 61.0285 224.107C57.3589 226.694 52.6276 228.89 47.1129 229.776C34.6507 231.797 24.1058 226.88 22.0339 216.665C20.8691 210.944 21.9617 204.604 23.3636 199.378C25.7138 190.627 30.1256 183.442 33.9085 175.722C34.3312 174.866 35.4135 172.99 35.331 172.269C35.197 171.125 32.2387 169.661 31.0739 168.816C27.0538 165.878 23.3017 162.116 22.6524 155.972C22.6008 155.467 22.7554 154.859 22.6524 154.292C22.5493 153.684 21.6319 152.519 21.3226 151.808C20.9309 150.901 20.5805 149.993 20.5289 148.88C20.498 148.169 20.7763 147.685 20.7042 147.014C20.6423 146.448 20.1682 145.85 19.9929 145.242C19.7352 144.365 19.5703 143.407 19.7249 142.407C19.8177 141.819 20.2712 141.077 20.2609 140.551C20.2403 140.067 19.7043 139.345 19.5497 138.954C18.3024 135.8 19.7455 131.584 23.3636 131.419C26.0539 131.305 28.198 133.295 28.5072 136.202C28.5897 136.995 28.2495 138.047 28.4144 138.954C28.5381 139.634 29.3525 140.129 29.6514 140.995C29.8782 141.654 29.9915 142.458 30.0019 143.211C30.0122 143.757 29.7235 144.448 29.8266 145.077C29.94 145.808 30.8471 146.427 31.1563 147.2C31.7645 148.767 31.6511 150.705 30.9811 152.158C31.3419 152.849 31.8676 153.426 32.1356 154.199C32.7334 155.92 33.1045 161.425 31.1666 161.641C29.3525 161.848 29.7029 159.971 29.8369 158.271C29.9503 156.858 29.7957 155.106 29.0432 154.106C28.7546 153.725 27.528 152.529 26.1158 153.045C24.3016 153.704 25.7344 157.982 26.2086 159.075C28.332 163.981 32.115 165.981 35.9598 169.084C36.939 169.877 38.0523 170.589 37.908 172.537C37.7843 174.258 36.8875 175.681 36.2278 177.052C34.1972 181.268 32.0222 185.195 30.0225 189.369C31.5171 191.307 33.4859 192.73 35.6918 193.977C37.9286 195.245 40.6086 196.173 43.8453 195.657C47.9169 195.008 51.0299 192.544 53.679 190.07C54.5242 189.287 55.689 188.277 56.0704 187.411C56.493 186.463 56.5755 185.061 56.8641 183.783C58.6989 175.619 60.575 166.888 61.5645 157.992C62.1727 152.447 61.915 147.118 60.946 141.861C60.4203 139.057 60.2554 136.47 60.678 133.882C61.08 131.46 61.9356 129.275 62.183 126.883C57.6475 127.151 56.4003 131.656 56.0704 136.191C55.988 137.304 55.9777 138.913 56.0704 140.356C56.1735 142.067 56.4518 143.788 54.9159 143.809C53.1121 143.84 53.2255 139.747 53.3182 137.603C53.5656 132.367 54.3799 128.728 57.2146 126.079C58.6886 124.708 63.523 122.76 64.6569 125.811C65.2032 127.275 64.5126 129.501 64.1312 130.862C63.6982 132.367 63.1828 134.13 63.0695 135.645C62.7705 139.696 64.1002 142.263 64.3064 146.097C71.9136 135.181 81.6751 126.419 99.9303 126.162C99.3325 125.358 98.5079 124.585 97.7142 123.678C93.2818 118.658 90.509 111.659 88.9422 103.474C88.6742 102.093 88.3443 99.8973 90.1791 100.289C91.2924 100.526 91.3954 102.309 91.6841 103.66C93.6941 112.854 97.3018 121.121 103.734 125.636C105.754 127.048 107.836 128.161 110.826 128.295C118.34 128.615 123.03 123.853 126.154 119.255C126.659 118.513 127.473 116.812 128.462 116.771C128.937 116.751 129.535 117.122 129.699 117.565C130.194 118.884 128.504 120.709 127.844 121.637C125.38 125.09 121.927 128.141 117.835 129.697C118.093 130.553 118.515 131.47 118.99 132.532C119.464 133.604 120.917 136.202 118.722 136.253C117.505 136.284 117.021 134.635 116.598 133.686C116.031 132.439 115.743 131.481 115.176 130.491C112.846 131.223 109.197 131.017 107.022 130.316C107.3 136.181 109.372 140.428 113.403 142.726C117.423 145.025 123.443 145.654 128.998 144.231C138.667 141.768 145.883 135.655 152.037 129.873C150.573 129.161 148.944 128.728 147.336 128.192C145.388 127.543 143.667 126.718 141.224 126.687C140.502 126.677 138.956 124.873 138.296 124.121C135.843 121.265 134.163 117.854 133.957 112.865C133.214 112.71 132.142 112.792 132.008 111.71C131.833 110.236 133.328 110.185 134.4 109.669C136.41 108.711 138.018 107.092 138.657 105.154C139.018 104.041 139.214 102.557 138.75 101.433C138.069 99.7839 136.008 99.6705 134.853 100.547C133.833 101.32 133.74 102.701 133.256 104.361C132.864 105.732 131.112 108.906 129.184 108.793C127.184 108.669 126.968 105.587 126.617 103.299C126.236 100.815 125.813 98.2996 125.38 96.4751C124.484 92.723 122.659 87.1362 119.536 86.2806C117.845 85.8168 116.485 86.5796 115.021 87.1671C111.31 88.6514 107.672 90.3316 103.414 91.249C100.621 91.8469 97.2606 92.0324 94.0239 91.249C92.5293 90.8882 91.5604 90.4862 90.3028 89.7441C89.5813 89.3214 87.6021 88.569 87.8186 87.0846C88.1485 84.8685 90.6945 86.9919 91.8078 87.6207C97.3843 90.7542 105.703 88.0433 110.681 86.0229C112.671 85.2189 115.227 83.8067 117.598 83.5387C123.175 82.9203 125.556 88.404 126.906 92.1355C128.37 96.1865 128.751 100.227 129.658 105.34C130.967 104.392 130.71 101.979 131.782 100.114C133.142 97.7533 136.101 96.4339 139.049 97.9903C140.069 98.5264 140.657 99.1964 141.265 100.299C144.357 94.8052 144.8 86.9919 142.419 81.1576C140.811 77.22 138.224 73.602 135.328 70.6952C134.338 69.7056 133.276 68.5099 132.318 67.8605C131.761 67.4894 130.885 67.4276 130.72 66.7988C130.266 65.0258 132.689 63.1292 132.761 61.7479C131.039 61.9644 129.308 64.4383 127.535 63.7889C126.267 63.3147 126.659 61.0882 126.38 59.4493C125.226 60.3667 125.442 62.7478 123.896 63.088C123.092 63.2632 122.649 62.6963 122.03 62.4695C114.145 59.4596 105.6 61.3459 99.6108 64.5929C95.1681 67.0049 91.6428 70.5096 89.5091 75.3131C87.8701 79.0136 85.6849 82.0132 80.3764 82.1369C80.5516 83.7758 83.0976 85.0952 82.8605 86.9197C82.6441 88.6102 79.7063 88.3216 78.2529 89.0431C79.2322 89.9708 79.9537 90.5069 81.3556 91.1666C81.7473 91.3521 84.448 91.9809 84.4583 93.2075C84.4789 95.3515 81.7061 94.2177 80.4691 93.6507C78.6137 92.8055 77.3252 91.9912 75.8615 90.6409C75.2636 90.0945 74.2535 89.1668 74.2638 88.4247C74.2844 86.3734 77.9334 86.8269 79.4074 85.9405C79.1085 85.1468 78.4282 84.3324 77.8097 83.3738C77.3149 82.6007 76.4387 81.6009 76.6552 80.6216C76.9541 79.3228 78.6859 79.7145 80.6443 79.4671C85.118 78.9208 85.8498 76.6943 87.4681 73.2618C89.839 68.2213 93.5086 64.8609 98.6316 62.0056C104.672 58.635 114.815 56.6559 122.917 59.9647C123.546 59.2534 124.02 57.8413 124.69 56.5115C125.38 55.1406 126.36 52.2029 128.06 53.6769C129.102 54.6561 128.514 58.8824 129.091 60.4491ZM24.1676 134.181C21.9308 133.748 21.2093 136.624 22.2194 138.438C23.0544 137.923 24.5181 137.634 25.8478 137.902C25.9096 136.016 25.5386 134.449 24.1676 134.181ZM23.3636 140.83C22.4153 141.51 22.1885 143.108 22.5699 144.644C23.7862 143.994 25.6107 143.592 27.3527 143.757C27.8063 141.191 25.1469 139.562 23.3636 140.83ZM23.2811 147.829C22.7967 149.055 23.6934 150.189 23.8996 151.199C24.8685 150.313 27.1981 150.014 28.6824 150.663C30.4142 146.685 24.4047 144.984 23.2811 147.829ZM137.245 192.586C136.523 188.328 136.626 184.061 134.503 181.247C132.379 178.433 128.432 176.794 123.958 176.196C121.484 175.866 118.031 175.588 115.186 175.928C112.114 176.299 108.774 176.052 106.764 177.608C107.331 181.051 112.073 179.206 115.629 179.464C117.237 179.577 118.794 180.061 120.154 180.525C121.546 181 122.876 181.999 124.051 182.206C125.813 182.515 127.586 181.824 127.597 183.535C127.607 185.452 124.216 184.772 122.103 184.865C115.372 185.154 109.104 186.267 105.888 189.741C105.383 190.287 104.466 191.307 104.559 192.307C104.651 193.286 105.517 193.4 106.239 194.08C109.991 191.307 115.949 189.637 122.639 189.38C124.793 189.297 128.359 188.885 128.225 190.885C128.143 191.998 127.112 192.039 125.659 192.039C118.794 192.039 114.289 192.75 109.97 194.967C108.311 195.812 106.187 197.008 106.342 198.781C106.414 199.636 107.641 200.78 109.352 200.378C109.939 200.244 110.733 199.347 111.125 199.049C112.949 197.678 114.66 196.853 117.773 196.296C119.948 195.915 128.37 195.152 128.411 197.533C128.442 199.389 126.071 198.667 124.422 198.595C119.969 198.399 115.341 199.152 112.898 200.904C111.857 201.646 110.98 202.584 110.774 204.007C111.455 204.718 112.351 204.697 113.341 204.625C115.33 204.481 117.196 203.594 119.629 203.203C120.577 203.048 121.907 202.935 123.267 202.935C124.535 202.935 126.112 202.687 126.988 203.11C128.689 203.934 127.679 206.099 127.339 207.717C127.112 208.82 126.978 209.965 126.896 210.995C126.215 219.149 131.266 221.716 136.286 224.725C146.501 230.869 156.366 236.281 168.632 240.239C170.9 237.012 173.394 233.034 174.394 228.271C175.446 223.231 175.085 217.025 174.126 211.964C171.075 211.366 168.076 209.882 164.994 209.037C162.984 208.491 160.798 208.233 158.706 207.8C152.387 206.491 145.976 205.45 139.739 204.079C138.781 200.615 137.935 196.657 137.245 192.586Z" fill="#223549"/>
<path fill-rule="evenodd" clip-rule="evenodd" d="M113.227 93.1571C115.608 92.92 117.567 93.4045 119.257 94.394C120.36 95.0537 121.69 95.8577 121.742 96.7854C121.773 97.4658 121.278 98.1461 120.587 98.2079C119.422 98.3007 118.556 96.9504 117.577 96.435C115.835 95.5176 112.918 95.6413 110.929 96.3422C109.733 96.7648 107.599 97.9605 107.476 95.9917C107.393 94.6826 109.104 94.1982 109.774 93.9508C111.021 93.4972 111.887 93.2911 113.227 93.1571Z" fill="#223549"/>
<path fill-rule="evenodd" clip-rule="evenodd" d="M89.6536 94.0293C94.9725 93.3799 98.539 96.4516 101.178 99.2553C104.322 102.605 106.93 108.8 104.806 114.583C104.538 115.305 103.58 116.81 103.652 117.593C103.775 118.809 105.404 118.418 105.507 119.809C105.672 122.005 103.198 121.046 102.404 120.428C99.1781 117.923 102.672 114.583 102.94 111.12C103.27 106.883 101.271 103.502 99.3121 101.193C97.4979 99.0595 94.4468 96.0908 90.0041 96.5856C88.9321 96.699 87.5096 97.3484 86.4582 97.9978C85.7985 98.4101 84.2008 99.9769 83.2731 99.8635C83.3658 99.8738 82.2938 99.7295 82.2114 98.709C82.098 97.3999 84.242 96.2867 85.2213 95.6991C86.8087 94.7714 88.0765 94.2251 89.6536 94.0293Z" fill="#223549"/>
<path fill-rule="evenodd" clip-rule="evenodd" d="M116.411 119.295C119.555 119.058 117.617 122.047 116.411 123.108C115.05 124.304 112.834 125.149 110.741 124.974C109.814 124.799 109.494 123.17 110.391 122.583C111.216 122.047 112.751 122.263 113.669 121.789C115.071 121.057 115.308 120.047 116.235 119.398C116.235 119.295 116.349 119.315 116.411 119.295Z" fill="#223549"/>
<path fill-rule="evenodd" clip-rule="evenodd" d="M30.2006 116.071C29.3863 116.071 28.7266 115.452 28.7266 114.689C28.7266 114.463 29.4172 112.978 29.4172 112.978C30.149 111.267 31.3448 110.309 32.7569 110.309H48.93C50.7132 110.309 51.476 111.649 52.146 112.834L52.8676 114.483C52.8676 115.463 52.2079 116.081 51.3935 116.081H30.2006V116.071Z" fill="#223549"/>
<path d="M48.9169 111.326C50.1126 111.326 50.6074 112.202 51.2465 113.336L51.834 114.697C51.834 114.903 51.6279 115.058 51.3805 115.058H30.1978C29.9401 115.058 29.7443 114.893 29.7443 114.697L30.3421 113.408C30.7751 112.398 31.5585 111.326 32.7542 111.326H48.9169ZM48.9169 109.285H32.7542C30.94 109.285 29.3732 110.491 28.4661 112.594L27.8992 113.831C27.7136 116.016 28.8269 117.088 30.2081 117.088H51.3908C52.7617 117.088 53.8853 116.006 53.8853 114.686C53.7204 113.872 53.1225 112.512 53.1225 112.512C52.2979 111.037 51.298 109.285 48.9169 109.285Z" fill="#223549"/>
<path fill-rule="evenodd" clip-rule="evenodd" d="M24.5721 124.962C23.6135 124.962 22.8301 124.179 22.8301 123.21C22.8301 123.024 23.8299 120.293 23.8299 120.293C24.8813 117.19 26.5821 115.469 28.6025 115.469H54.1763C56.7223 115.469 57.7222 117.716 58.7942 120.087L59.8147 123.045C59.8147 124.179 59.0313 124.973 58.0726 124.973H24.5721V124.962Z" fill="#223549"/>
<path d="M54.1856 116.48C56.072 116.48 56.8554 118.232 57.8655 120.49L58.8036 123.201C58.8036 123.603 58.484 123.932 58.082 123.932H24.5712C24.1692 123.932 23.8496 123.603 23.8496 123.201L24.7876 120.634C25.468 118.614 26.7152 116.48 28.6015 116.48H54.1856ZM54.1856 114.449H28.6015C26.107 114.449 24.0661 116.418 22.8601 119.995L21.9324 122.52C21.8087 124.747 23.0456 125.994 24.5712 125.994H58.082C59.6076 125.994 60.8445 124.747 60.8445 123.221C60.7311 122.551 59.7931 119.84 59.7931 119.84C58.6386 117.222 57.3914 114.449 54.1856 114.449Z" fill="#223549"/>
<path fill-rule="evenodd" clip-rule="evenodd" d="M54.5039 162.958L112.939 168.669C115.867 168.957 118.454 170.194 118.712 171.442L127.865 214.58C128.133 215.827 125.968 216.611 123.051 216.322L64.6159 210.612C61.6885 210.323 59.1012 209.086 58.8435 207.839L49.6901 164.7C49.4118 163.453 51.5765 162.67 54.5039 162.958Z" fill="#223549"/>
<path d="M124.226 217.413C123.814 217.413 123.391 217.393 122.948 217.351L64.513 211.641C61.5134 211.352 58.2562 210.022 57.8438 208.064L48.6905 164.926C48.5565 164.297 48.7317 163.678 49.1749 163.173C50.082 162.163 52.1024 161.71 54.6072 161.957L113.042 167.667C116.042 167.956 119.299 169.286 119.712 171.244L128.865 214.383C128.999 215.011 128.824 215.63 128.38 216.125C127.638 216.949 126.133 217.413 124.226 217.413ZM53.329 163.926C51.7004 163.926 50.7933 164.338 50.6696 164.555L59.8333 207.631C59.926 208.085 61.7093 209.311 64.7089 209.6L123.144 215.31C125.453 215.537 126.731 215.001 126.876 214.733L117.712 171.657C117.619 171.203 115.836 169.976 112.836 169.688L54.401 163.977C54.0196 163.946 53.6589 163.926 53.329 163.926Z" fill="#223549"/>
<path fill-rule="evenodd" clip-rule="evenodd" d="M84.6659 184.461C88.6654 184.461 92.5308 187.471 93.3039 191.171C94.077 194.882 91.4485 197.882 87.4491 197.882C83.4496 197.882 79.5842 194.872 78.8111 191.171C78.038 187.471 80.6562 184.461 84.6659 184.461Z" fill="#EC663D"/>
<path fill-rule="evenodd" clip-rule="evenodd" d="M248.21 140.125C248.21 140.125 241.479 133.116 242.365 127.715C243.252 122.324 243.881 122.509 242.541 122.22C241.201 121.932 238.345 122.303 237.582 125.406C236.82 128.508 236.428 130.817 236.428 130.817C236.428 130.817 226.378 125.849 223.997 129.591C222.286 132.281 224.028 134.178 224.11 134.188C224.11 134.188 221.997 134.064 221.358 136.229C220.719 138.393 222.688 141.104 222.688 141.104C222.688 141.104 219.564 142.475 220.203 145.001C220.842 147.526 224.811 150.577 232.697 151.917C240.582 153.257 240.85 154.484 240.85 154.484C240.85 154.484 242.242 157.432 245.19 158.205C248.138 158.978 249.045 158.947 250.416 155.371C251.787 151.794 256.013 143.723 253.962 141.548C251.91 139.362 251.436 138.981 250.148 139.424C248.87 139.847 248.21 140.125 248.21 140.125Z" fill="#223549"/>
<path fill-rule="evenodd" clip-rule="evenodd" d="M251.733 137.507C251.733 137.507 245.002 130.498 245.889 125.097C246.775 119.706 247.404 119.891 246.064 119.603C244.724 119.314 241.869 119.695 241.106 122.788C240.343 125.89 239.951 128.189 239.951 128.189C239.951 128.189 229.901 123.221 227.52 126.962C225.809 129.653 227.551 131.549 227.634 131.56C227.634 131.56 225.52 131.436 224.881 133.601C224.242 135.765 226.211 138.476 226.211 138.476C226.211 138.476 223.088 139.847 223.727 142.373C224.366 144.898 228.334 147.949 236.22 149.289C244.105 150.629 244.373 151.856 244.373 151.856C244.373 151.856 245.765 154.804 248.713 155.577C251.661 156.35 252.568 156.319 253.939 152.742C255.31 149.165 259.536 141.094 257.485 138.919C255.434 136.734 254.96 136.363 253.671 136.796C252.393 137.229 251.733 137.507 251.733 137.507Z" fill="#F7C154"/>
<path fill-rule="evenodd" clip-rule="evenodd" d="M221.091 26.329C220.432 27.6999 222.194 33.8331 223.751 39.3581C225.307 44.8934 223.895 49.2639 232.523 47.8724C241.151 46.4808 257.128 41.2444 256.458 38.7396C255.788 36.2348 252.365 17.9281 249.809 18.0002C248.541 18.0414 241.573 20.8143 234.832 22.7006C228.008 24.6075 221.421 25.6383 221.091 26.329Z" fill="#223549"/>
<path fill-rule="evenodd" clip-rule="evenodd" d="M224.615 23.7065C223.955 25.0774 225.718 31.2106 227.274 36.7356C228.831 42.2606 227.419 46.6414 236.046 45.2396C244.674 43.848 260.651 38.6116 259.981 36.1068C259.301 33.602 255.889 15.2952 253.333 15.3674C252.065 15.4086 245.097 18.1814 238.355 20.0678C231.531 21.985 224.945 23.0158 224.615 23.7065Z" fill="#F7C154"/>
<path fill-rule="evenodd" clip-rule="evenodd" d="M153.995 48.4752C153.995 48.4752 154.345 50.1554 153.644 51.7531C152.944 53.3508 152.222 56.3607 152.222 56.3607C152.222 56.3607 154.892 54.9485 157.448 52.99C160.004 51.0316 161.788 48.6504 161.788 48.6504C161.788 48.6504 172.982 51.382 174.91 45.723C176.827 40.064 180.187 28.4367 174.91 25.7773C169.632 23.1282 159.386 24.7878 153.727 24.6228C148.058 24.4579 139.574 20.6852 138.389 26.839C137.214 32.9928 136.42 44.1459 139.987 46.2487C143.553 48.3618 153.995 48.4752 153.995 48.4752Z" fill="#223549"/>
<path fill-rule="evenodd" clip-rule="evenodd" d="M157.523 45.8594C157.523 45.8594 157.873 47.5396 157.172 49.1373C156.471 50.735 155.75 53.7449 155.75 53.7449C155.75 53.7449 158.42 52.3328 160.976 50.3743C163.532 48.4158 165.316 46.0347 165.316 46.0347C165.316 46.0347 176.51 48.7662 178.427 43.1072C180.344 37.4482 183.705 25.821 178.427 23.1718C173.15 20.5227 162.914 22.1823 157.245 22.0174C151.575 21.8524 143.092 18.0798 141.906 24.2336C140.731 30.3873 139.938 41.5404 143.504 43.6432C147.081 45.746 157.523 45.8594 157.523 45.8594Z" fill="#F7C154"/>
<path fill-rule="evenodd" clip-rule="evenodd" d="M94.1696 2.6623C89.3249 2.23967 65.658 4.81664 60.4938 9.13563C55.3296 13.4546 57.0922 14.7225 58.1024 21.2783C59.1023 27.8341 56.0614 35.0186 67.7608 34.8434C79.4603 34.6579 101.437 32.318 101.169 25.453C100.911 18.5673 99.0143 3.08492 94.1696 2.6623Z" fill="#223549"/>
<path fill-rule="evenodd" clip-rule="evenodd" d="M97.7067 0.0451082C92.862 -0.377514 69.1952 2.19945 64.0309 6.51844C58.8667 10.8374 60.6293 12.1053 61.6395 18.6611C62.6394 25.2169 59.5985 32.4015 71.298 32.2159C82.9974 32.0304 104.974 29.6905 104.706 22.8255C104.438 15.9501 102.541 0.478038 97.7067 0.0451082Z" fill="#F7C154"/>
<path fill-rule="evenodd" clip-rule="evenodd" d="M49.7665 90.3166C49.7665 90.3166 64.3624 92.5018 65.9807 85.2657C67.6094 78.0296 67.2074 64.1655 59.4249 61.9597C51.6425 59.7538 10.4317 58.0427 5.80346 61.5164C1.17523 64.9902 -2.03051 81.524 5.18498 86.4202C12.4005 91.3164 25.4915 91.5123 30.8825 91.2958C36.2838 91.0793 37.7784 91.7803 39.8297 92.8935C41.8809 94.0068 44.5198 97.0682 47.9007 98.0371C51.2714 99.0061 52.7764 99.1916 52.7764 99.1916C52.7764 99.1916 50.7869 95.8519 50.1169 94.1408C49.4572 92.4091 49.7665 90.3166 49.7665 90.3166Z" fill="#223549"/>
<path fill-rule="evenodd" clip-rule="evenodd" d="M53.3036 87.6999C53.3036 87.6999 67.8995 89.8851 69.5178 82.649C71.1465 75.4129 70.7445 61.5488 62.962 59.343C55.1796 57.1371 13.9688 55.4157 9.34057 58.8997C4.71234 62.3735 1.5066 78.9073 8.72209 83.8035C15.9376 88.6997 29.0286 88.8956 34.4196 88.6791C39.8209 88.4627 41.3155 89.1636 43.3668 90.2768C45.4181 91.3901 48.0569 94.4515 51.4275 95.4205C54.7982 96.3894 56.3032 96.5749 56.3032 96.5749C56.3032 96.5749 54.3137 93.2352 53.6437 91.5241C52.984 89.7924 53.3036 87.6999 53.3036 87.6999Z" fill="#F7C154"/>
<path fill-rule="evenodd" clip-rule="evenodd" d="M49.5908 69.7539C51.5493 69.7539 53.1367 71.3413 53.1367 73.2998C53.1367 75.2583 51.5493 76.8457 49.5908 76.8457C47.6323 76.8457 46.0449 75.2583 46.0449 73.2998C46.0449 71.3413 47.6323 69.7539 49.5908 69.7539Z" fill="#223549"/>
<path fill-rule="evenodd" clip-rule="evenodd" d="M34.8838 69.4883C36.8423 69.4883 38.4297 71.0757 38.4297 73.0342C38.4297 74.9927 36.8423 76.5801 34.8838 76.5801C32.9253 76.5801 31.3379 74.9927 31.3379 73.0342C31.3379 71.0757 32.9253 69.4883 34.8838 69.4883Z" fill="#223549"/>
<path fill-rule="evenodd" clip-rule="evenodd" d="M19.7295 69.582C21.688 69.582 23.2754 71.1694 23.2754 73.1279C23.2754 75.0864 21.688 76.6738 19.7295 76.6738C17.771 76.6738 16.1836 75.0864 16.1836 73.1279C16.1836 71.1694 17.771 69.582 19.7295 69.582Z" fill="#223549"/>
<path fill-rule="evenodd" clip-rule="evenodd" d="M127.01 204.469C127.01 204.469 127.917 207.407 128.721 210.324H136.421V189.76H138.018C137.184 185.513 136.163 181.349 135.06 179.277C132.308 174.102 117.898 175.123 111.764 175.205C105.631 175.288 105.044 177.854 105.992 179.37C106.94 180.885 112.331 180.699 115.269 180.225C118.207 179.751 123.701 183.73 123.701 183.73C123.701 183.73 117.331 183.884 112.146 184.771C106.961 185.657 102.889 189.461 103.24 191.873C103.601 194.285 105.415 196.893 105.415 196.893C105.415 196.893 104.466 198.903 105.229 200.49C105.982 202.078 109.868 202.758 109.868 202.758C109.868 202.758 109.249 204.809 110.435 206.067C111.62 207.324 115.733 204.923 119.238 204.552C122.753 204.191 127.01 204.469 127.01 204.469Z" fill="white"/>
<path fill-rule="evenodd" clip-rule="evenodd" d="M141.204 199.764C140.451 196.558 139.74 193.507 139.255 190.301C138.596 186.003 138.627 182.426 136.328 179.406C133.442 175.602 128.082 173.541 121.794 173.201C119.64 173.087 117.145 172.85 114.97 173.108C111.187 173.561 105.343 173.366 104.075 176.293C102.766 179.303 106.074 181.952 108.507 182.23C111.136 182.529 114.424 181.292 117.104 182.406C113.95 182.777 110.455 183.498 107.538 184.972C104.93 186.281 102.116 188.632 101.694 191.353C101.292 193.909 102.972 194.765 104.178 196.053C102.322 199.166 104.58 202.825 107.899 202.97C107.744 203.887 107.837 204.464 108.074 205.011C109.754 208.814 115.609 206.474 118.97 205.804C120.98 205.402 124.113 204.99 125.257 205.629C126.371 206.248 126.34 207.918 126.855 209.082C126.876 206.99 128.772 204.464 127.03 203.145C125.804 202.217 121.268 202.774 119.763 202.97C117.227 203.3 115.114 204.31 113.207 204.475C111.95 204.578 110.971 204.526 110.455 203.681C112.228 199.372 117.939 198.032 124.546 198.455C126.164 198.558 127.834 199.084 128.092 197.744C128.463 195.826 126.371 196.012 124.639 195.888C118.774 195.445 113.898 196.599 110.898 198.816C110.187 199.341 109.857 200.073 109.043 200.238C107.404 200.558 106.167 199.548 106.116 198.558C106.043 196.95 108.146 195.579 109.744 194.744C113.475 192.806 116.764 192.136 121.887 191.909C124.319 191.796 128.164 192.6 127.999 190.487C127.865 188.827 124.422 189.178 122.33 189.25C115.506 189.487 109.816 191.167 106.023 193.95C103.601 192.992 104.394 191.044 105.755 189.611C107.785 187.467 110.785 186.426 113.816 185.714C116.774 185.024 120.773 184.467 124.711 184.653C126.226 184.725 127.339 184.715 127.37 183.498C127.412 181.674 125.711 182.457 123.742 182.076C123.247 181.983 122.557 181.488 121.876 181.189C119.938 180.323 117.753 179.488 115.321 179.324C111.692 179.076 107.157 180.787 106.456 177.551C107.744 176.427 109.847 176.149 111.857 175.953C120.918 175.077 130.174 176.128 134.009 180.828C136.328 183.673 136.215 188.054 136.936 192.167C137.668 196.373 138.513 200.434 139.503 203.949C140.059 204.073 140.626 204.186 141.193 204.31V199.764H141.204Z" fill="#223549"/>
<path fill-rule="evenodd" clip-rule="evenodd" d="M126.577 210.504C126.845 210.7 126.495 210.999 126.577 211.298C126.34 211.267 126.422 210.927 126.227 210.854C126.257 210.648 126.505 210.659 126.577 210.504Z" fill="#223549"/>
<path fill-rule="evenodd" clip-rule="evenodd" d="M170.302 82.866C169.488 83.9895 164.231 100.029 161.705 104.842C159.18 109.666 156.85 115.429 158.871 117.603C160.891 119.778 182.898 129.076 186.702 130.282C190.505 131.478 192.392 132.107 193.701 129.664C195.01 127.221 208.122 98.8947 207.173 97.5753C206.225 96.2559 194.68 92.442 189.186 90.5763C183.682 88.7105 171.116 81.7527 170.302 82.866Z" fill="#223549"/>
<path fill-rule="evenodd" clip-rule="evenodd" d="M173.829 80.2488C173.015 81.3724 167.758 97.4114 165.233 102.225C162.707 107.049 160.378 112.811 162.398 114.986C164.418 117.161 186.426 126.459 190.229 127.665C194.033 128.861 195.919 129.489 197.228 127.046C198.537 124.604 211.649 96.2775 210.701 94.9684C209.752 93.649 198.207 89.8351 192.713 87.9694C187.209 86.0933 174.644 79.1355 173.829 80.2488Z" fill="#F7C154"/>
<path fill-rule="evenodd" clip-rule="evenodd" d="M203.898 106.533C203.898 106.533 201.064 103.132 199.384 104.224C197.693 105.317 196.456 106.44 196.456 106.44C196.456 106.44 192.91 103.75 190.601 104.843C188.292 105.935 187.674 107.059 187.674 107.059L200.703 112.202L203.898 106.533Z" fill="#223549"/>
<path fill-rule="evenodd" clip-rule="evenodd" d="M185.013 95.4503C186.384 98.4293 185.941 103.356 181.468 103.161C176.994 102.965 174.427 99.7178 175.087 96.3368C175.747 92.9661 183.643 92.4714 185.013 95.4503Z" fill="#223549"/>
<path fill-rule="evenodd" clip-rule="evenodd" d="M203.534 65.6746C200.452 70.0348 195.319 81.3734 209.647 84.909C223.975 88.4343 229.252 75.5804 226.304 67.6227C223.367 59.6754 217.687 59.2115 212.482 59.8197C206.977 60.4794 206.616 61.3246 203.534 65.6746Z" fill="#223549"/>
<path fill-rule="evenodd" clip-rule="evenodd" d="M207.071 63.0574C203.989 67.4176 198.856 78.7665 213.184 82.2918C227.512 85.8171 232.79 72.9632 229.841 65.0056C226.904 57.0582 221.224 56.5943 216.019 57.2025C210.504 57.8622 210.143 58.7075 207.071 63.0574Z" fill="#F7C154"/>
<path fill-rule="evenodd" clip-rule="evenodd" d="M212.571 72.6837C212.571 72.6837 217.323 66.2413 219.127 67.7153C220.931 69.1996 216.911 78.621 216.911 78.621C216.911 78.621 211.334 77.7345 209.108 75.9616C206.881 74.1886 206.933 72.1168 207.603 71.354C208.283 70.5809 212.571 72.6837 212.571 72.6837Z" fill="#223549"/>
<path fill-rule="evenodd" clip-rule="evenodd" d="M89.9842 1.60107C91.1077 1.53922 92.0457 1.55984 92.0251 2.75555C91.9839 4.34296 89.376 4.0028 87.768 4.17803C79.0888 5.08512 71.3063 6.2396 64.3692 8.78565C61.9159 9.68243 58.4112 11.208 57.8134 13.3933C57.401 14.9085 58.0607 16.8155 58.2566 18.2689C58.4731 19.8563 58.6998 21.6498 58.8751 23.1445C59.2255 26.1441 59.6791 30.1023 61.4417 31.566C63.2559 33.071 67.8326 33.339 71.3682 33.339C75.3161 33.339 78.6971 32.7308 82.0059 32.2772C85.8095 31.7515 89.0049 31.1537 91.7571 30.3291C94.767 29.422 97.8903 28.1335 98.8489 25.8142C99.5189 24.1856 99.1272 21.7632 98.8489 19.8769C98.2614 15.8981 97.5295 12.8882 96.2823 9.15673C95.9627 8.21871 94.2001 4.85835 95.9318 4.45635C97.5811 4.07495 98.0655 6.79623 98.4985 8.09502C99.9828 12.5068 101.787 18.207 101.694 23.5156C101.601 28.8653 97.8491 30.8238 93.6332 32.2876C90.3449 33.4317 86.8094 34.0708 83.1707 34.5965C79.6557 35.1016 75.615 35.6891 71.564 35.8335C67.3481 35.9881 62.2251 35.3387 59.9574 33.5245C56.9887 31.1537 56.7001 25.1236 56.061 20.1449C55.7415 17.6195 54.8138 14.5684 55.7106 12.2594C56.6383 9.85766 59.3802 8.21871 61.8231 7.11577C64.4104 5.95098 67.4615 5.13666 70.3271 4.45635C76.5634 2.9514 83.1913 1.99277 89.9842 1.60107Z" fill="#F7C154"/>
<path fill-rule="evenodd" clip-rule="evenodd" d="M222.83 26.9373C224.882 28.7102 228.108 30.308 230.633 31.8129C232.427 32.8849 234.54 34.2971 236.664 35.3588C237.364 35.7093 238.272 36.2968 238.972 36.1525C239.941 35.967 240.374 33.7508 240.745 32.6994C241.683 30.0399 242.776 28.0402 244.199 25.7828C244.683 25.02 245.57 22.9172 246.858 23.4738C248.373 24.1335 246.229 26.6487 245.879 27.195C244.209 29.8647 243.364 31.9263 242.25 35.0805C241.797 36.3484 241.055 37.9151 239.766 38.2656C237.653 38.8532 235.303 37.173 234.004 36.4102C230.469 34.3177 227.892 32.7509 224.253 30.6481C223.037 29.9472 220.295 28.7205 220.356 26.8342C220.429 24.7623 224.304 24.1129 226.387 23.6388C229.386 22.9585 231.51 22.5564 233.829 21.8658C239.003 20.3403 242.828 18.0725 247.569 17.2582C251.249 16.6294 252.301 18.5776 253.063 21.7834C253.909 25.3293 254.929 29.7101 256.073 33.1323C256.671 34.9156 258.114 37.6059 257.31 39.5953C256.62 41.3167 254.187 42.2341 251.991 43.0485C247.528 44.7286 243.281 46.0893 238.962 47.4808C236.756 48.1921 234.324 48.9549 231.963 49.161C227.098 49.5836 225.748 47.7592 224.521 44.2029C223.284 40.6158 222.109 37.039 221.243 32.7715C221.016 31.6377 221.099 30.9573 221.861 30.8233C223.346 30.5656 223.542 32.9983 223.902 34.3692C224.83 37.8739 225.315 39.7706 226.387 42.966C226.789 44.1514 227.263 45.9862 228.242 46.5944C230.149 47.7798 233.86 46.615 235.86 46.0687C240.766 44.708 244.58 43.4092 249.414 41.7291C250.342 41.4095 251.476 40.9972 252.692 40.4921C253.537 40.1416 255.166 39.4201 255.352 38.7192C255.537 37.9976 255.073 36.7813 254.816 36.0597C253.434 32.1324 252.373 28.5144 251.363 23.9171C251.053 22.5152 250.723 20.0001 249.59 19.4847C247.734 18.6498 244.157 20.4846 242.766 20.9897C240.498 21.8246 238.509 22.6183 236.478 23.2986C231.943 24.8036 227.17 25.6076 222.83 26.9373Z" fill="#F7C154"/>
<path fill-rule="evenodd" clip-rule="evenodd" d="M152.997 49.4469C146.658 49.6943 139.556 49.0037 137.226 44.5713C136.123 42.4685 136.123 38.4278 136.165 34.9128C136.206 30.8103 136.577 26.9964 138.474 24.8111C141.308 21.5229 147.462 22.3785 152.564 22.8629C155.069 23.1 157.626 23.3989 160.45 23.3989C167.346 23.3989 174.984 22.7599 177.551 27.0376C180.128 31.336 178.788 41.7057 176.839 45.7361C174.994 49.5706 170.83 51.0446 164.965 50.1684C164.14 50.0447 163.058 49.6427 162.398 49.7252C161.594 49.8283 160.347 51.3126 159.739 51.8486C157.924 53.4773 156.615 54.7864 154.781 56.4562C154.1 57.0747 152.915 58.4147 151.946 58.2292C150.235 57.8993 151.431 55.3224 151.771 54.0648C152.214 52.364 152.637 50.9931 152.997 49.4469ZM160.172 48.2924C160.749 47.7667 161.677 46.7565 162.481 46.7875C163.12 46.8184 163.367 47.4575 163.903 47.6739C164.934 48.0863 166.975 48.1687 168.511 48.1172C171.5 48.0141 173.407 47.0761 174.448 45.2825C176.159 42.3551 177.468 33.5419 176.046 29.3363C174.52 24.8214 166.202 25.6976 160.357 25.6976C154.812 25.6976 149.565 24.4916 144.761 24.8111C143.566 24.8936 141.906 25.0688 141.04 25.6048C138.948 26.9036 138.731 30.3052 138.556 33.9336C138.391 37.3352 138.102 40.8914 139.175 43.2416C140.803 46.7978 147.452 47.4162 152.822 47.1379C153.935 47.0761 155.028 46.8596 155.482 47.4884C156.347 48.7047 154.337 52.1682 154.327 53.5185C156.193 52.0857 158.213 50.0757 160.172 48.2924Z" fill="#F7C154"/>
<path fill-rule="evenodd" clip-rule="evenodd" d="M50.2884 91.4536C50.5461 93.9584 51.6799 95.6489 53.123 97.1229C53.793 97.8136 54.7826 98.5351 54.5455 99.6071C54.2157 101.05 51.3707 100.349 49.9379 99.8751C48.2371 99.3082 46.8249 98.5763 45.7735 98.0094C43.0213 96.5251 41.1865 94.4841 38.6817 93.0513C35.8161 91.4124 31.1261 91.5155 26.6318 91.7216C14.8603 92.2576 5.36673 90.4641 1.72806 82.7744C-0.76644 77.4968 -0.560283 68.6836 2.34653 64.2512C5.4595 59.4993 11.1185 58.6231 19.004 58.3139C26.0649 58.0355 34.5998 58.7571 42.1349 58.7571C49.7317 58.7571 57.5657 59.4271 61.9878 62.3855C65.4203 64.6841 67.1417 69.034 67.9251 74.3529C68.7394 79.9088 68.2447 85.7224 64.9152 88.4437C61.6579 91.1031 56.4422 91.8659 50.2884 91.4536ZM49.7524 96.5045C49.4431 96.02 49.1133 95.35 48.8659 94.7315C48.4845 93.7832 47.3197 90.5156 48.2474 89.5879C48.804 89.0313 50.8038 89.3714 51.7933 89.4127C57.0916 89.6085 62.1012 88.6705 64.2864 86.042C66.6882 83.1661 66.2862 76.9298 65.5234 73.0129C64.7194 68.9103 63.1835 65.6943 60.3798 63.9729C53.659 59.86 39.7125 61.1898 29.1882 60.695C20.6224 60.3033 10.3042 59.5817 5.62443 63.6327C2.24345 66.5498 1.42913 73.6004 2.61454 78.7028C4.74826 87.9077 12.9842 89.7219 24.4157 89.5982C29.817 89.5363 35.4038 88.9282 39.125 90.7527C41.0835 91.7113 42.6709 93.3812 44.5263 94.649C46.4332 95.9478 48.3402 97.0405 50.6388 97.8445C50.7213 97.4115 50.0719 96.9992 49.7524 96.5045Z" fill="#F7C154"/>
<path fill-rule="evenodd" clip-rule="evenodd" d="M212.196 59.0131C216.855 58.6317 221.442 60.1058 224.163 62.3838C227.018 64.7752 228.668 68.3933 228.327 73.4647C227.843 80.6184 223.215 85.3394 216.803 86.5763C209.547 87.9782 202.712 84.8652 199.971 79.5773C198.754 77.2374 198.651 73.64 199.703 70.7125C200.022 69.8364 200.424 68.218 201.744 68.5891C203.31 69.022 201.713 71.4959 201.476 72.403C198.734 82.7418 212.917 87.772 220.885 82.68C225.4 79.8041 228.461 70.9084 223.895 65.3112C221.174 61.9715 213.659 59.6934 208.65 62.2086C207.609 62.7343 206.31 63.6826 205.372 64.6927C204.702 65.404 203.589 67.8366 202.176 67.0842C200.744 66.3214 203.094 63.8166 203.681 63.1878C205.547 61.1778 208.526 59.3224 212.196 59.0131Z" fill="#F7C154"/>
<path fill-rule="evenodd" clip-rule="evenodd" d="M218.308 69.2091C216.04 68.9617 214.772 70.6419 214.05 72.487C213.782 73.1776 213.659 74.1053 212.989 74.26C212.03 74.4867 211.133 73.6003 210.505 73.1982C209.721 72.6829 209.134 72.219 208.288 71.9613C209.165 74.9197 211.607 76.5792 214.576 77.3626C215.731 77.6719 216.844 77.5997 216.885 78.6923C216.926 80.156 215.153 79.8056 213.782 79.4036C210.278 78.3728 207.154 76.3215 206.165 72.9302C205.742 71.4871 205.979 69.7348 207.67 69.5596C209.463 69.374 210.494 70.7244 212.009 71.4253C213.061 69.374 214.535 67.1991 217.153 66.9001C219.493 66.6424 220.895 67.9 220.699 70.5285C220.617 71.6727 220.111 73.157 219.545 74.6929C219.07 75.9917 218.606 77.8677 217.596 77.9708C215.092 78.2182 217.359 74.2909 217.689 73.3632C218.194 71.9304 218.637 70.7244 218.308 69.2091Z" fill="#F7C154"/>
<path fill-rule="evenodd" clip-rule="evenodd" d="M170.898 84.4575C168.899 89.3434 167.074 94.3943 165.054 99.2596C168.528 100.692 171.61 101.898 174.001 104.661C176.114 107.104 177.382 111.413 179.938 113.082C182.526 114.773 186.803 114.154 189.597 115.567C192.39 116.968 193.813 119.092 195.534 121.772C197.111 119.03 198.441 116.051 199.791 113.082C196.297 111.619 192.627 110.567 188.71 109.186C187.69 108.825 185.67 108.351 185.608 107.32C185.525 105.939 189.02 104.125 190.308 103.774C192.565 103.156 194.555 104.135 195.72 105.279C196.616 104.733 197.513 103.702 198.73 103.331C200.523 102.795 201.997 103.61 203.244 104.486C203.636 103.548 203.863 102.857 204.224 101.826C204.523 100.971 204.718 99.7028 205.904 99.8781C207.584 100.125 206.038 103.146 205.811 103.774C203.368 110.557 200.451 117.092 197.482 122.999C196.915 124.132 196.256 125.38 195.709 126.72C194.555 129.554 194.534 132.523 190.215 132.214C186.876 131.977 183.752 130.451 180.907 129.286C178 128.101 175.568 126.977 172.403 125.658C169.672 124.514 166.703 123.432 163.899 122.019C161.044 120.587 157.354 118.69 156.808 115.907C156.436 114 157.56 112.062 158.312 110.237C161.838 101.641 165.208 92.7759 168.682 83.9215C168.981 83.169 169.311 81.9939 170.105 81.9733C171.496 81.9424 173.527 83.0144 174.98 83.571C184.855 87.3437 195.142 91.3122 205.11 95.1777C206.028 95.5385 206.914 95.6828 206.883 96.6002C206.811 98.5793 203.43 96.8166 202.626 96.5074C192.143 92.5183 181.268 88.2817 170.898 84.4575ZM160.168 111.753C159.735 112.835 158.818 114.237 158.931 115.299C159.065 116.566 160.786 117.608 161.858 118.308C165.466 120.669 170.197 122.359 174.176 123.978C178.464 125.72 182.319 127.74 186.937 129.204C188.257 129.627 190.793 130.482 191.988 129.822C192.669 129.441 192.895 127.936 193.225 127.07C193.658 125.957 194.143 125.029 194.38 124.236C192.658 121.205 191.122 118.329 187.824 117.144C184.732 116.041 181.258 116.515 178.691 114.835C175.826 112.969 174.65 108.64 172.311 105.97C170.197 103.558 167.548 102.568 164.332 101.455C162.982 104.228 161.559 108.3 160.168 111.753ZM200.224 105.372C198.008 105.156 197.163 107.959 195.792 107.939C194.565 107.928 193.885 106.083 192.514 105.815C191.061 105.537 190.04 106.166 188.968 106.97C192.988 108.207 196.72 109.732 200.75 110.959C201.245 109.475 201.884 108.135 202.43 106.702C201.647 106.094 201.09 105.455 200.224 105.372Z" fill="#F7C154"/>
<path fill-rule="evenodd" clip-rule="evenodd" d="M186.673 95.8875C186.694 99.2067 185.807 101.784 183.838 103.062C179.581 105.835 173.685 101.876 174.005 97.2172C174.18 94.6403 176.375 92.321 179.324 91.9912C183.137 91.5582 184.879 94.0424 186.673 95.8875ZM176.211 98.1037C176.674 101.382 181.787 102.959 183.57 100.227C183.91 99.7014 184.776 97.6296 184.632 96.8565C184.56 96.4648 183.787 95.9288 183.385 95.6195C182.436 94.8671 181.127 94.1043 179.839 94.197C177.417 94.3826 175.943 96.1658 176.211 98.1037Z" fill="#F7C154"/>
<path fill-rule="evenodd" clip-rule="evenodd" d="M241.882 122.916C239.408 123.4 238.12 125.183 237.893 127.791C237.749 129.42 238.48 131.945 237.182 132.224C236.192 132.43 234.357 130.976 233.285 130.544C231.502 129.822 229.636 129.183 227.348 129.389C226.049 129.513 224.307 130.059 224.163 131.337C224.06 132.193 224.915 132.976 224.781 133.821C224.596 134.997 222.163 135.697 222.039 137.192C221.978 137.955 222.431 138.728 222.833 139.408C223.153 139.934 223.926 140.676 223.895 141.356C223.833 142.82 221.019 143.418 221.06 145.253C221.091 146.603 223.276 147.531 224.431 148.087C227.389 149.52 229.976 150.293 233.564 151.19C235.017 151.551 237.81 151.829 237.821 153.056C237.841 154.963 234.45 153.633 232.945 153.231C230.811 152.664 229.162 152.242 227.626 151.726C224.616 150.716 220.215 149.077 219.122 146.675C218.091 144.397 219.937 142.511 221.338 141.088C219.133 138.986 219.792 134.553 222.4 133.203C222.112 132.44 221.844 131.409 222.132 130.451C223.575 125.802 232.254 127.08 235.687 129.214C235.687 126.389 236.336 124.184 237.728 122.751C238.862 121.565 243.758 118.927 244.108 122.658C244.273 124.503 243.294 126.627 243.49 129.214C243.686 131.791 244.871 133.863 245.974 135.502C246.283 135.965 247.665 137.831 246.149 138.161C244.655 138.491 243.438 135.553 242.872 134.44C242.057 132.822 241.408 130.997 241.274 129.039C241.099 126.668 241.789 125.039 241.882 122.916Z" fill="#F7C154"/>
<path fill-rule="evenodd" clip-rule="evenodd" d="M249.324 138.428C251.912 137.954 255.262 140.139 255.354 143.211C255.396 144.726 254.612 146.53 254.025 147.994C253.437 149.457 252.901 151.024 252.427 152.426C251.489 155.24 250.355 159.487 247.727 159.786C246.088 159.971 243.418 158.745 243.83 157.302C244.273 155.735 246.562 157.673 247.376 157.57C248.397 157.436 248.953 155.673 249.417 154.467C250.345 152.055 251.128 149.416 252.076 147.025C252.489 145.994 253.324 144.448 253.138 143.036C252.973 141.83 251.54 140.211 249.685 140.551C248.531 140.768 247.665 142.881 247.118 144.005C245.624 147.107 244.943 149.055 243.748 152.509C243.315 153.766 242.872 156.374 241.532 156.054C240.078 155.704 241.264 152.972 241.707 151.622C242.81 148.282 243.861 145.86 245.345 142.85C246.325 140.84 247.046 138.84 249.324 138.428Z" fill="#F7C154"/>
</svg>
