<svg width="55" height="14" viewBox="0 0 55 14" fill="none" xmlns="http://www.w3.org/2000/svg">
<g clip-path="url(#clip0)">
<path d="M4.85097 0.257812C3.8455 0.257812 2.6531 1.22942 1.67028 2.86108C0.644984 4.5525 0.0332031 6.64507 0.0332031 8.46309C0.0332031 11.1247 1.52017 13.8076 4.85097 13.8076C8.17753 13.8076 9.66874 11.1247 9.66874 8.46309C9.66874 6.64507 9.05838 4.5525 8.03733 2.86251C7.0446 1.22942 5.85361 0.257812 4.85097 0.257812Z" fill="#E30611"/>
<path d="M30.8613 4.25056H34.2332V13.0818H37.8458V4.25056H41.2191V0.984375H30.8613V4.25056Z" fill="#E30611"/>
<path d="M48.9259 4.25056H54.2251V0.984375H48.9259C44.0571 0.984375 41.457 3.41552 41.457 7.03307C41.457 10.6506 44.0557 13.0818 48.9259 13.0818H54.2251V9.81558H48.9259C46.6727 9.81558 45.1914 9.00615 45.1914 7.03307C45.1914 5.05999 46.6727 4.25056 48.9259 4.25056Z" fill="#E30611"/>
<path d="M23.5143 0.984375L21.5869 8.20525L19.6609 0.984375H13.2783V13.0818H16.8924V3.24197L19.5165 13.0818H23.6588L26.2857 3.23628V13.0818H29.8984V0.984375H23.5143Z" fill="#E30611"/>
</g>
<defs>
<clipPath id="clip0">
<rect width="54.1936" height="13.5484" fill="white" transform="translate(0.0322266 0.257812)"/>
</clipPath>
</defs>
</svg>
