<svg width="52" height="21" viewBox="0 0 52 21" fill="none" xmlns="http://www.w3.org/2000/svg">
<g clip-path="url(#clip0)">
<path d="M24.5961 10.2582V16.414H22.6758V1.21196H27.7688C28.3767 1.19904 28.9811 1.30869 29.5472 1.53457C30.1132 1.76046 30.6297 2.0981 31.0667 2.52802C31.5082 2.93184 31.8595 3.42708 32.0971 3.98046C32.3348 4.53384 32.4532 5.13253 32.4443 5.7363C32.457 6.34331 32.3404 6.94591 32.1026 7.50281C31.8649 8.05972 31.5115 8.55775 31.0667 8.96278C30.1761 9.82641 29.0768 10.2578 27.7688 10.257H24.5961V10.2582ZM24.5961 3.08356V8.39026H27.8165C28.1696 8.40091 28.5209 8.3365 28.8481 8.20115C29.1752 8.06581 29.471 7.86251 29.7165 7.60426C29.9608 7.36281 30.1549 7.07401 30.2874 6.75493C30.42 6.43586 30.4883 6.093 30.4883 5.74661C30.4883 5.40023 30.42 5.05737 30.2874 4.7383C30.1549 4.41922 29.9608 4.13042 29.7165 3.88896C29.4741 3.62528 29.1794 3.417 28.8518 3.27793C28.5242 3.13887 28.1713 3.0722 27.8165 3.08235H24.5961V3.08356Z" fill="#5F6368"/>
<path d="M36.8658 5.67188C38.2851 5.67188 39.4055 6.0576 40.2269 6.82904C41.0483 7.60048 41.4586 8.65819 41.4578 10.0021V16.4126H39.621V14.9692H39.5375C38.7424 16.1579 37.6848 16.7523 36.3648 16.7523C35.2381 16.7523 34.2954 16.4126 33.5368 15.7334C33.1728 15.4216 32.8817 15.0312 32.6849 14.5905C32.488 14.1499 32.3904 13.6701 32.399 13.1862C32.399 12.1099 32.7989 11.2539 33.5989 10.6183C34.3988 9.98274 35.4667 9.66414 36.8026 9.66252C37.9428 9.66252 38.8819 9.87479 39.6198 10.2993V9.85295C39.622 9.52305 39.552 9.19679 39.4148 8.89782C39.2776 8.59886 39.0767 8.3347 38.8267 8.12448C38.3188 7.65856 37.657 7.40433 36.9731 7.41247C35.9005 7.41247 35.0516 7.87259 34.4266 8.79282L32.7353 7.70965C33.6657 6.35113 35.0425 5.67188 36.8658 5.67188ZM34.3813 13.2286C34.38 13.4772 34.4371 13.7224 34.5479 13.944C34.6587 14.1655 34.82 14.3569 35.0182 14.5022C35.4429 14.842 35.9701 15.022 36.5103 15.0117C37.3207 15.0103 38.0974 14.6823 38.6704 14.0995C39.3065 13.4906 39.6246 12.7762 39.6246 11.9562C39.0258 11.471 38.1909 11.2285 37.1198 11.2285C36.3398 11.2285 35.6893 11.4197 35.1685 11.8022C34.6425 12.1903 34.3813 12.6622 34.3813 13.2286Z" fill="#5F6368"/>
<path d="M52.0048 6.01562L45.5926 21.0018H43.6103L45.9898 15.7581L41.7734 6.01562H43.8607L46.9082 13.4875H46.9499L49.9139 6.01562H52.0048Z" fill="#5F6368"/>
<path d="M16.8326 8.93202C16.8333 8.33689 16.7838 7.74278 16.6847 7.15625H8.58594V10.5198H13.2245C13.1296 11.057 12.9287 11.5691 12.6339 12.0252C12.3391 12.4813 11.9566 12.872 11.5093 13.1737V15.3571H14.2777C15.8986 13.8372 16.8326 11.5896 16.8326 8.93202Z" fill="#4285F4"/>
<path d="M8.58697 17.4681C10.9045 17.4681 12.8558 16.6942 14.2787 15.36L11.5104 13.1767C10.7399 13.7079 9.74751 14.0112 8.58697 14.0112C6.347 14.0112 4.44577 12.4756 3.76591 10.4062H0.914062V12.6563C1.62883 14.1027 2.72486 15.3187 4.07977 16.1683C5.43468 17.018 6.99516 17.468 8.58697 17.4681Z" fill="#34A853"/>
<path d="M3.76629 10.4055C3.40687 9.32113 3.40687 8.14688 3.76629 7.06254V4.8125H0.914442C0.313152 6.02929 0 7.37221 0 8.734C0 10.0958 0.313152 11.4387 0.914442 12.6555L3.76629 10.4055Z" fill="#FBBC04"/>
<path d="M8.58697 3.45751C9.81167 3.43717 10.995 3.90774 11.8813 4.76751L14.3324 2.27488C12.7782 0.790303 10.7191 -0.0247525 8.58697 0.000572988C6.99516 0.000646766 5.43468 0.450648 4.07977 1.30034C2.72486 2.15003 1.62883 3.36596 0.914062 4.81239L3.76591 7.06243C4.44577 4.99312 6.347 3.45751 8.58697 3.45751Z" fill="#EA4335"/>
</g>
<defs>
<clipPath id="clip0">
<rect width="52" height="21" fill="white"/>
</clipPath>
</defs>
</svg>
