<svg width="674" height="535" viewBox="0 0 674 535" fill="none" xmlns="http://www.w3.org/2000/svg">
<g clip-path="url(#clip0)">
<path d="M421.483 472.982H19.5809C18.4744 472.982 17.5786 472.087 17.5786 470.98V146.342C17.5786 145.236 18.4744 144.34 19.5809 144.34H421.483C422.59 144.34 423.486 145.236 423.486 146.342V470.98C423.486 472.087 422.59 472.982 421.483 472.982ZM21.5832 468.978H419.464V148.344H21.5832V468.978Z" fill="#D6D6D6"/>
<path d="M421.483 440.489H19.5804C18.4739 440.489 17.5781 439.593 17.5781 438.487C17.5781 437.38 18.4739 436.484 19.5804 436.484H421.483C422.589 436.484 423.485 437.38 423.485 438.487C423.485 439.593 422.589 440.489 421.483 440.489Z" fill="#D6D6D6"/>
<path d="M421.483 408.083H19.5804C18.4739 408.083 17.5781 407.187 17.5781 406.08C17.5781 404.974 18.4739 404.078 19.5804 404.078H421.483C422.589 404.078 423.485 404.974 423.485 406.08C423.485 407.169 422.589 408.083 421.483 408.083Z" fill="#D6D6D6"/>
<path d="M421.483 375.571H19.5804C18.4739 375.571 17.5781 374.675 17.5781 373.569C17.5781 372.462 18.4739 371.566 19.5804 371.566H421.483C422.589 371.566 423.485 372.462 423.485 373.569C423.485 374.675 422.589 375.571 421.483 375.571Z" fill="#D6D6D6"/>
<path d="M421.483 343.165H19.5804C18.4739 343.165 17.5781 342.269 17.5781 341.162C17.5781 340.056 18.4739 339.16 19.5804 339.16H421.483C422.589 339.16 423.485 340.056 423.485 341.162C423.485 342.251 422.589 343.165 421.483 343.165Z" fill="#D6D6D6"/>
<path d="M421.483 310.673H19.5804C18.4739 310.673 17.5781 309.777 17.5781 308.67C17.5781 307.564 18.4739 306.668 19.5804 306.668H421.483C422.589 306.668 423.485 307.564 423.485 308.67C423.485 309.759 422.589 310.673 421.483 310.673Z" fill="#D6D6D6"/>
<path d="M421.483 278.161H19.5804C18.4739 278.161 17.5781 277.265 17.5781 276.159C17.5781 275.052 18.4739 274.156 19.5804 274.156H421.483C422.589 274.156 423.485 275.052 423.485 276.159C423.485 277.265 422.589 278.161 421.483 278.161Z" fill="#D6D6D6"/>
<path d="M421.483 245.755H19.5804C18.4739 245.755 17.5781 244.859 17.5781 243.752C17.5781 242.646 18.4739 241.75 19.5804 241.75H421.483C422.589 241.75 423.485 242.646 423.485 243.752C423.485 244.859 422.589 245.755 421.483 245.755Z" fill="#D6D6D6"/>
<path d="M421.483 213.262H19.5804C18.4739 213.262 17.5781 212.367 17.5781 211.26C17.5781 210.154 18.4739 209.258 19.5804 209.258H421.483C422.589 209.258 423.485 210.154 423.485 211.26C423.485 212.349 422.589 213.262 421.483 213.262Z" fill="#D6D6D6"/>
<path d="M421.483 180.837H19.5804C18.4739 180.837 17.5781 179.941 17.5781 178.834C17.5781 177.728 18.4739 176.832 19.5804 176.832H421.483C422.589 176.832 423.485 177.728 423.485 178.834C423.485 179.941 422.589 180.837 421.483 180.837Z" fill="#D6D6D6"/>
<path d="M381.244 472.982C380.137 472.982 379.241 472.087 379.241 470.98V146.342C379.241 145.236 380.137 144.34 381.244 144.34C382.35 144.34 383.246 145.236 383.246 146.342V470.98C383.263 472.087 382.35 472.982 381.244 472.982Z" fill="#D6D6D6"/>
<path d="M341.11 472.982C340.003 472.982 339.107 472.087 339.107 470.98V146.342C339.107 145.236 340.003 144.34 341.11 144.34C342.216 144.34 343.112 145.236 343.112 146.342V470.98C343.13 472.087 342.216 472.982 341.11 472.982Z" fill="#D6D6D6"/>
<path d="M300.888 472.982C299.781 472.982 298.885 472.087 298.885 470.98V146.342C298.885 145.236 299.781 144.34 300.888 144.34C301.994 144.34 302.89 145.236 302.89 146.342V470.98C302.89 472.087 301.994 472.982 300.888 472.982Z" fill="#D6D6D6"/>
<path d="M260.754 472.982C259.647 472.982 258.751 472.087 258.751 470.98V146.342C258.751 145.236 259.647 144.34 260.754 144.34C261.86 144.34 262.756 145.236 262.756 146.342V470.98C262.774 472.087 261.86 472.982 260.754 472.982Z" fill="#D6D6D6"/>
<path d="M220.532 472.982C219.425 472.982 218.529 472.087 218.529 470.98V146.342C218.529 145.236 219.425 144.34 220.532 144.34C221.638 144.34 222.534 145.236 222.534 146.342V470.98C222.534 472.087 221.638 472.982 220.532 472.982Z" fill="#D6D6D6"/>
<path d="M180.292 472.982C179.186 472.982 178.29 472.087 178.29 470.98V146.342C178.29 145.236 179.186 144.34 180.292 144.34C181.399 144.34 182.295 145.236 182.295 146.342V470.98C182.312 472.087 181.399 472.982 180.292 472.982Z" fill="#D6D6D6"/>
<path d="M140.176 472.982C139.069 472.982 138.173 472.087 138.173 470.98V146.342C138.173 145.236 139.069 144.34 140.176 144.34C141.282 144.34 142.178 145.236 142.178 146.342V470.98C142.178 472.087 141.282 472.982 140.176 472.982Z" fill="#D6D6D6"/>
<path d="M99.9364 472.982C98.8299 472.982 97.9341 472.087 97.9341 470.98V146.342C97.9341 145.236 98.8299 144.34 99.9364 144.34C101.043 144.34 101.939 145.236 101.939 146.342V470.98C101.956 472.087 101.043 472.982 99.9364 472.982Z" fill="#D6D6D6"/>
<path d="M59.8021 472.982C58.6956 472.982 57.7998 472.087 57.7998 470.98V146.342C57.7998 145.236 58.6956 144.34 59.8021 144.34C60.9087 144.34 61.8044 145.236 61.8044 146.342V470.98C61.822 472.087 60.9087 472.982 59.8021 472.982Z" fill="#D6D6D6"/>
<path d="M19.5807 373.712C19.1416 373.712 18.6849 373.554 18.3161 373.255C17.4554 372.552 17.3325 371.288 18.035 370.427L127.46 236.747C128.092 235.956 129.216 235.781 130.077 236.325L182.506 269.469L211.416 248.62C212.207 248.058 213.278 248.128 213.981 248.796L252.797 286.102L419.288 141.935C420.131 141.215 421.395 141.303 422.115 142.146C422.836 142.989 422.748 144.254 421.905 144.974L254.027 290.352C253.254 291.037 252.077 291.002 251.322 290.282L212.382 252.87L183.717 273.526C183.05 274 182.172 274.035 181.469 273.596L129.427 240.681L21.1263 372.992C20.7399 373.466 20.1603 373.712 19.5807 373.712Z" fill="#EC663D"/>
<path fill-rule="evenodd" clip-rule="evenodd" d="M201.053 314.921H205.497L221.937 323.37H227.838L236.62 321.596L248.107 320.015L254.641 324.16L263.476 339.74L231.246 373.638L225.134 367.579L217.476 356.847L216.035 348.399L218.74 339.95L219.214 335.946L213.945 329.429L200.052 319.541C200.087 319.558 197.224 313.341 201.053 314.921Z" fill="white"/>
<path fill-rule="evenodd" clip-rule="evenodd" d="M182.927 429.301L168.788 398.406L175.427 374.501L164.783 339.074L146.991 326.867L134.766 330.362C134.766 330.362 121.751 347.926 125.176 366.667C128.601 385.408 130.972 398.968 133.379 417.797C135.785 436.625 140.808 479.376 165.135 487.245C189.479 495.131 206.551 488.018 222.727 475.547C238.904 463.077 268.096 440.121 268.096 440.121L279.793 533.667H421.325C421.325 533.667 419.182 502.333 422.203 486.367C425.224 470.419 426.911 455.647 426.911 455.647C426.911 455.647 456.576 406.591 457.455 393.523C458.333 380.455 450.341 357.165 430.757 347.101C411.173 337.037 376.642 321.545 371.425 315.854C366.209 310.164 360.694 296.745 362.696 292.652C364.698 288.542 378.328 265.691 376.66 240.118C374.991 214.544 368.703 205.569 344.201 202.25C332.942 200.721 317.662 201.687 307.72 204.867C296.058 208.608 290.613 214.808 290.613 214.808L277.528 211.488L280.32 221.956L269.676 220.727C269.676 220.727 271.819 225.241 275.613 229.105C279.407 232.952 283.816 233.461 283.816 233.461C283.816 233.461 277.44 241.611 278.581 251.956C279.723 262.319 283.57 269.959 281.023 273.946C278.476 277.933 275.56 282.201 275.613 284.59C275.666 286.979 282.533 288.665 283.464 291.563C284.413 294.479 290.367 311.569 304.401 311.463C318.452 311.34 320.279 305.351 320.279 305.351C320.279 305.351 326.268 316.978 322.544 320.017C318.821 323.056 274.261 326.955 256.749 345.327C239.238 363.734 182.927 429.301 182.927 429.301Z" fill="white"/>
<path fill-rule="evenodd" clip-rule="evenodd" d="M209.976 405.922C209.976 405.922 209.379 424.224 215.034 436.466C221.919 451.343 244.173 458.632 244.173 458.632L277.158 435.764L287.592 533.666H420.956C420.956 533.666 420.991 468.205 426.173 458.615C462.583 391.204 471.33 372.392 418.146 339.934C399.458 328.517 377.309 322.299 377.309 322.299C377.309 322.299 366.946 320.315 344.851 323.002C325.39 325.356 277.931 333.892 261.263 349.173C230.087 377.802 209.976 405.922 209.976 405.922Z" fill="#EC663D"/>
<path fill-rule="evenodd" clip-rule="evenodd" d="M331.414 280.355C331.414 280.355 334.277 296.532 339.037 297.48C343.814 298.429 345.43 297.919 349.453 297.832C353.475 297.744 361.273 296.848 361.273 296.848C361.273 296.848 360.536 294.09 362.836 290.736C366.279 285.73 370.916 280.566 374.78 265.97C378.644 251.374 382.42 222.762 371.144 213.559C359.868 204.373 332.89 198.717 316.046 202.09C308.598 203.582 300.976 205.743 296.286 208.588C290.349 212.189 288.189 216.369 286.889 216.071C284.553 215.526 277.422 210.977 277.422 210.977L287.82 224.15L274.577 221.586C274.577 221.586 281.883 227.048 284.869 227.417C287.855 227.786 289.682 229.033 295.39 228.313C303.364 227.294 308.194 226.591 310.285 229.156C312.304 231.615 312.866 244.647 314.149 254.87C315.396 264.811 310.653 272.416 313.323 271.696C316.291 270.888 319.26 265.759 319.26 265.759C319.26 265.759 320.893 255.063 327.111 255.151C333.311 255.221 337.614 261.649 337.544 267.305C337.439 272.978 331.414 280.355 331.414 280.355Z" fill="black"/>
<path fill-rule="evenodd" clip-rule="evenodd" d="M128.724 291.351L171.774 292.669C175.954 292.791 180.363 296.076 181.645 299.975L205.462 372.849C206.744 376.766 204.39 379.822 200.228 379.681L157.178 378.364C152.998 378.241 148.589 374.974 147.307 371.057L123.49 298.201C122.208 294.302 124.561 291.228 128.724 291.351Z" fill="#F5F5F5"/>
<path d="M198.752 382.069C198.542 382.069 156.318 380.769 156.318 380.769C151.382 380.611 146.324 376.888 144.795 372.268L121.435 301.256C120.627 298.78 121.224 295.759 123.016 293.37C124.702 291.104 127.108 289.752 129.673 289.857L172.512 290.753C177.465 290.911 182.541 294.635 184.051 299.254L207.201 370.863C207.974 373.199 207.394 375.992 205.673 378.293C203.881 380.664 201.317 382.069 198.752 382.069ZM129.48 293.879C128.338 293.879 127.126 294.582 126.23 295.776C125.229 297.111 124.843 298.78 125.247 300.009L148.589 371.021C149.59 374.042 153.174 376.659 156.423 376.765L198.647 378.047C200.017 378.047 201.422 377.239 202.423 375.904C203.354 374.657 203.706 373.217 203.354 372.11L180.222 300.501C179.239 297.498 175.656 294.863 172.406 294.775L129.567 293.879C129.532 293.862 129.515 293.879 129.48 293.879Z" fill="black"/>
<path fill-rule="evenodd" clip-rule="evenodd" d="M137.77 295.11L171.142 296.128C174.69 296.234 178.448 299.009 179.537 302.311L199.789 363.996C200.878 367.298 198.875 369.898 195.327 369.792L161.956 368.774C158.408 368.668 154.649 365.893 153.56 362.591L133.308 300.888C132.22 297.586 134.222 294.987 137.77 295.11Z" fill="#EC663D"/>
<path fill-rule="evenodd" clip-rule="evenodd" d="M138.77 369.3C138.77 369.3 145.41 343.885 155.966 348.416C166.522 352.948 150.591 359.095 152.066 369.809C153.542 380.523 158.916 384.388 153.542 393.679C148.167 402.97 136.733 388.094 136.733 388.094L138.77 369.3Z" fill="white"/>
<path fill-rule="evenodd" clip-rule="evenodd" d="M443.297 354.601C427.683 339.601 404.814 331.697 383.614 321.439C378.697 319.051 373.164 316.557 370.002 311.849C368.457 309.531 367.491 306.703 366.507 303.647C365.541 300.591 364.03 296.516 364.593 293.179C365.049 290.404 367.35 287.523 368.79 284.625C373.023 276.054 375.886 266.868 377.695 255.486C380.172 239.907 380.102 223.028 371.583 213.965C367.403 209.521 362.186 206.886 355.705 204.375C349.259 201.863 342.918 200.265 335.12 199.667C327.111 199.053 319.014 199.948 311.918 201.582C304.945 203.198 297.498 205.534 292.544 209.082C291.877 209.556 290.806 210.364 290.103 211.172C289.418 211.945 289.102 213.157 287.837 213.262C286.292 213.385 284.36 211.839 282.954 211.172C281.321 210.399 279.969 209.556 277.545 209.784C273.997 211.26 276.315 216.933 277.193 219.55C274.717 219.427 268.763 214.948 267.252 218.672C265.935 221.886 270.958 226.927 272.838 228.789C275.981 231.915 279.213 233.672 282.094 235.428C277.668 242.243 274.998 252.377 277.387 263.004C278.177 266.516 280.302 270.433 279.301 273.999C278.37 277.371 273.522 280.023 273.891 283.94C274.295 288.085 279.354 289.49 281.391 292.494C282.884 294.689 283.868 297.394 285.238 299.818C288.715 306.053 294.845 314.027 304.26 314.133C310.776 314.203 313.428 311.34 318.399 308.723C318.996 310.163 319.558 311.41 320.138 313.255C320.577 314.607 321.596 316.978 321.016 318.313C320.085 320.421 312.919 321.457 309.318 322.16C296.198 324.671 283.253 327.394 273.206 332.452C252.358 342.938 238.57 359.782 224.694 376.942C213.155 391.239 202.036 405.642 190.146 419.693C188.969 421.081 187.634 422.345 186.475 423.698C185.351 425.015 184.525 426.649 182.979 427.544C181.012 423.083 178.887 418.077 176.691 412.878C174.636 408.013 171.598 402.849 170.93 397.879C170.614 395.507 172.441 391.678 173.547 388.798C174.004 387.621 177.429 381.702 174.074 381.122C171.088 380.613 170.07 386.304 169.192 388.622C167.945 391.924 166.399 395.016 166.574 398.212C166.733 401.093 168.419 404.114 169.543 406.942C171.809 412.615 173.951 417.884 176.34 423.347C177.517 426.034 178.641 428.756 180.362 430.846C178.553 433.218 175.602 436.449 173.214 439.225C172.283 440.296 170.755 442.948 173.038 443.756C175.111 444.494 177.201 441.139 178.272 439.91C188.266 428.598 197.259 417.164 207.235 405.888C207.376 405.73 207.604 404.658 208.114 405.185C203.406 435.483 219.074 451.414 239.694 458.58C239.255 459.546 238.254 460.214 237.428 460.846C231.193 465.641 224.554 470.647 217.879 475.336C210.309 480.658 201.949 486.121 191.533 487.895C165.538 492.321 150.714 476.636 144.075 458.932C140.632 449.763 138.56 438.575 137.436 426.649C136.329 414.951 134.432 403.359 132.201 392.978C130.006 382.791 126.563 371.743 127.143 359.132C127.547 350.104 130.41 343.377 134.292 336.966C134.801 336.106 135.591 334.999 136.03 333.963C135.398 333.014 134.819 332.048 134.397 330.994C132.272 331.047 130.603 334.613 129.76 336.088C126.089 342.464 122.945 350.227 122.963 359.641C122.787 359.993 122.787 362.083 122.787 362.083C123.209 374.518 126.388 385.531 128.724 396.456C131.165 407.873 132.149 419.079 133.607 431.883C136.294 455.612 143.355 476.478 159.602 486.507C168.331 491.882 180.837 494.148 192.763 491.917C203.863 489.827 212.434 484.4 220.163 479.007C232.018 470.699 243.505 461.742 254.536 452.837C258.242 449.851 261.579 446.426 265.531 443.932C269.483 470.506 273.119 496.817 275.999 524.375C276.262 526.87 275.876 534.651 279.494 533.966C280.97 533.685 281.128 531.313 280.882 529.083C277.861 500.541 274.366 473.475 270.238 446.549C269.922 444.529 269.149 441.613 269.36 440.612C269.764 438.785 275.911 436.941 273.891 433.815C272.521 431.69 270.15 433.903 268.833 435.027C260.244 442.439 252.428 449.078 243.699 455.612C232.809 451.186 223.008 446.461 217.001 437.117C211.152 428.019 210.379 412.176 213.33 398.546C213.734 396.702 217.054 393.628 218.564 391.749C223.816 385.197 229.208 377.943 234.091 372.2C248.371 355.409 263.722 338.477 286.959 331.539C296.04 328.834 306.367 327.692 315.747 325.251C318.943 324.425 321.402 322.827 324.125 321.931C333.469 318.858 346.256 317.242 358.673 317.751C362.643 317.909 367.719 317.962 370.547 318.981C372.022 319.507 373.322 321.018 374.903 321.949C376.519 322.897 378.363 323.6 379.961 324.39C402.953 335.666 430.001 344.343 445.212 363.119C449.866 368.863 453.608 374.975 454.468 383.529C455.346 392.241 452.167 400.531 449.234 407.609C443.438 421.608 436.711 434.763 429 446.865C430.124 437.31 430.704 427.825 431.266 417.726C431.442 414.442 432.197 409.524 429.352 409.524C426.893 409.524 427.191 413.353 427.086 415.812C426.172 435.747 424.152 452.907 421.5 470.945C418.989 488 417.478 507.549 418.181 528.011C418.233 529.469 417.97 531.12 418.356 532.192C418.76 533.333 420.201 534.036 420.973 533.93C423.327 533.597 422.396 527.871 422.379 525.201C422.343 521.671 422.326 516.84 422.379 515.611C422.66 507.865 422.572 501.366 423.081 495.026C424.135 481.8 426.155 469.786 427.788 457.158C434.533 446.812 440.663 436.186 446.108 424.875C451.535 413.616 457.612 402.112 459.017 387.182V385.268C457.788 371.48 451.078 362.065 443.297 354.601ZM325.337 317.084C324.933 312.605 323.422 309.215 321.666 306.088C322.491 305.632 324.687 301.697 321.666 301.206C319.576 300.872 316.66 304.56 314.693 305.913C311.953 307.792 308.141 310.093 303.522 309.759C297.252 309.303 294.389 304.701 290.788 300.854C291.578 299.467 293.317 298.22 294.459 296.323C295.653 294.32 297.989 288.63 294.459 288.472C292.369 288.384 292 291.071 291.315 292.652C290.472 294.602 289.523 296.042 288.347 296.657C286.344 290.931 282.568 286.961 278.23 283.571C279.881 280.006 283.569 277.617 283.815 272.752C283.991 269.379 282.533 266.112 281.725 262.635C279.108 251.359 282.48 241.523 287.837 234.55C293.054 235.446 297.568 234.216 302.661 234.023C307.65 239.081 306.157 253.045 306.157 263.337C306.157 267.781 305.963 274.087 309.476 274.859C312.638 275.544 315.044 272.717 316.449 271.189C318.364 269.116 319.786 267.377 321.156 265.252C321.139 259.965 323.44 254.538 328.656 257.049C331.993 258.665 335.19 263.759 333.89 269.081C333.311 271.47 331.361 273.735 329.535 275.369C327.778 276.932 323.949 278.548 323.949 280.427C323.949 283.185 327.69 282.482 328.656 281.639C330.272 287.611 331.765 293.6 336.507 296.815C340.336 299.432 345.412 297.517 351.683 297.517C354.95 297.517 358.322 297.868 358.322 295.427C358.322 292.898 354.054 293.021 350.471 293.161C345.939 293.337 342.954 294.637 340.178 293.864C336.788 292.915 334.681 287.348 333.539 283.571C333.082 282.043 332.31 280.252 332.485 279.04C332.661 277.933 335.436 275.263 336.156 274.157C337.245 272.453 338.194 270.626 338.422 268.045C338.879 262.828 336.736 258.402 334.242 255.837C332.433 253.976 327.971 250.955 323.598 252.342C318.873 253.853 317.661 258.806 316.625 264.374C314.798 266.271 313.147 269.274 310.864 270.135C309.406 257.559 312.655 241.909 307.895 233.496C306.578 231.16 304.611 229.386 300.571 229.649C298.938 229.755 296.935 230.387 294.81 230.528C289.629 230.879 285.255 228.578 282.252 230.703C279.951 229.158 277.51 227.067 275.455 224.942C274.928 224.398 273.698 223.853 274.067 223.028C276.227 223.713 282.006 225.434 282.796 222.676C283.639 219.726 280.232 217.846 280.355 214.825C283.323 215.879 286.134 218.338 289.787 217.267C292.246 216.547 292.632 214.614 294.143 213.262C297.217 210.504 302.89 208.537 308.106 206.974C320.226 203.373 335.26 202.513 348.065 206.271C351.033 207.15 354.107 208.344 356.97 209.591C359.85 210.856 363.029 212.12 365.172 213.613C380.646 224.257 374.745 255.943 369.177 272.769C368.14 275.878 366.841 278.794 365.506 281.499C363.644 285.257 360.131 289.139 360.096 294.233C360.079 297.904 361.326 301.715 362.362 305.052C363.381 308.337 364.821 311.428 366.384 314.133C352.052 312.218 337.122 314.308 325.337 317.084Z" fill="black"/>
<path fill-rule="evenodd" clip-rule="evenodd" d="M288.171 245.529C290.103 245.265 292.14 245.265 293.756 246.056C295.917 247.109 299.939 250.903 299.517 253.204C299.342 254.188 298.341 254.785 297.427 254.785C295.038 254.785 295.425 253.274 294.459 252.168C293.791 251.395 292.615 250.078 291.315 249.727C288.75 249.024 284.342 251.887 284.342 248.163C284.324 245.845 286.836 245.722 288.171 245.529Z" fill="black"/>
<path fill-rule="evenodd" clip-rule="evenodd" d="M292.878 266.816C291.982 267.676 290.647 268.484 289.383 267.167C288.715 266.464 287.644 260.141 287.995 258.789C288.347 257.384 290.296 256.734 291.491 257.559C293.054 258.666 292.808 264.497 292.878 266.816Z" fill="black"/>
<path fill-rule="evenodd" clip-rule="evenodd" d="M326.197 261.071C327.146 260.861 328.586 261.124 328.814 262.635C329.043 264.198 327.831 265.497 327.251 266.815C326.742 267.956 326.443 269.836 324.985 270.134C321.033 270.925 322.684 266.551 323.598 264.549C324.177 263.267 324.652 261.405 326.197 261.071Z" fill="black"/>
<path fill-rule="evenodd" clip-rule="evenodd" d="M152.576 345.345C156.826 344.589 160.322 347.259 159.9 352.669C159.514 357.587 154.701 360.801 154.139 365.403C153.753 368.67 155.211 371.937 156.054 374.483C157.16 377.786 158.653 380.982 158.319 385.479C158.126 388.236 157.107 390.941 155.878 393.154C154.947 394.84 153.243 398.546 150.82 398.037C147.219 397.299 151.03 393.101 151.873 391.591C152.787 389.905 153.788 387.534 153.963 385.83C154.771 378.541 149.45 374.431 149.783 365.947C149.924 362.347 151.68 359.589 153.454 356.691C154.174 355.514 154.877 355.268 155.369 353.371C156.616 348.559 153.015 349.314 150.837 350.93C145.603 354.777 143.197 360.959 141.756 368.547C141.282 371.076 141.159 376.257 138.964 376.398C135.978 376.591 136.628 371.691 137.225 368.371C138.823 359.466 143.934 346.873 152.576 345.345Z" fill="black"/>
<path fill-rule="evenodd" clip-rule="evenodd" d="M223.184 322.265C224.764 321.369 226.451 321.193 228.418 321.211C229.401 321.228 230.526 321.738 231.386 321.562C232.124 321.404 232.528 320.526 233.301 320.175C235.479 319.138 238.113 319.437 240.625 319.823C241.872 318.576 245.051 317.891 247.949 318.085C255.344 318.541 259.945 325.813 262.773 332.048C263.81 334.349 267.094 340.953 262.773 340.777C260.349 340.672 259.383 334.911 258.242 332.575C255.976 327.973 252.92 322.353 246.035 322.458C246.228 323.494 248.3 324.689 248.125 326.48C248.019 327.516 247.124 328.447 245.859 328.395C243.312 328.289 242.012 322.23 236.778 323.863C236.919 325.145 239.922 326.691 239.922 328.746C239.922 330.151 238.746 331.117 237.481 331.012C235.461 330.836 234.864 327.622 232.598 326.48C230.701 325.514 229.173 325.602 226.837 325.778C226.837 327.323 233.617 331.662 231.544 334.507C229.718 337.019 227.434 333.664 226.31 332.241C223.728 328.974 220.725 325.813 217.756 323.336C212.944 319.332 208.711 316.223 201.878 316.363C202.704 321.966 209.273 322.757 213.4 326.129C220.145 331.644 222.587 341.585 227.013 349.507C227.944 351.193 230.789 354.758 230.332 356.655C230.104 357.586 229.033 358.113 228.067 358.043C225.906 357.902 223.851 352.949 223.008 351.404C221.445 348.576 220.444 346.17 219.179 343.552C214.208 356.989 226.275 365.244 232.791 371.638C232.001 372.885 230.842 373.763 229.999 374.957C224.431 369.231 214.525 362.574 213.594 351.931C213.19 347.381 214.648 341.269 216.738 338.143C215.297 335.701 214.648 333.769 212.909 331.679C209.326 327.393 202.493 325.918 199.472 322.089C195.959 317.628 197.136 311.024 204.706 311.797C212.329 312.587 218.775 318.401 223.184 322.265Z" fill="black"/>
<path fill-rule="evenodd" clip-rule="evenodd" d="M16.5244 362.293C23.9891 362.293 30.0488 368.353 30.0488 375.817C30.0488 383.282 23.9891 389.342 16.5244 389.342C9.05963 389.342 3 383.282 3 375.817C3 368.335 9.05963 362.293 16.5244 362.293Z" fill="#EC663D"/>
<path fill-rule="evenodd" clip-rule="evenodd" d="M128.917 231.406C136.382 231.406 142.442 237.466 142.442 244.931C142.442 252.395 136.382 258.455 128.917 258.455C121.453 258.455 115.393 252.395 115.393 244.931C115.393 237.448 121.435 231.406 128.917 231.406Z" fill="#EC663D"/>
<path fill-rule="evenodd" clip-rule="evenodd" d="M212.153 236.992C219.618 236.992 225.678 243.052 225.678 250.517C225.678 257.981 219.618 264.041 212.153 264.041C204.689 264.041 198.629 257.981 198.629 250.517C198.629 243.034 204.689 236.992 212.153 236.992Z" fill="#EC663D"/>
<path fill-rule="evenodd" clip-rule="evenodd" d="M417.742 130.008C425.206 130.008 431.266 136.067 431.266 143.532C431.266 150.997 425.206 157.057 417.742 157.057C410.277 157.057 404.217 150.997 404.217 143.532C404.217 136.067 410.259 130.008 417.742 130.008Z" fill="#EC663D"/>
<path fill-rule="evenodd" clip-rule="evenodd" d="M181.697 260.895C186.808 260.895 190.954 265.04 190.954 270.151C190.954 275.262 186.808 279.407 181.697 279.407C176.586 279.407 172.441 275.262 172.441 270.151C172.458 265.04 176.586 260.895 181.697 260.895Z" fill="#EC663D"/>
<path fill-rule="evenodd" clip-rule="evenodd" d="M253.43 276.773C258.541 276.773 262.686 280.919 262.686 286.03C262.686 291.141 258.541 295.286 253.43 295.286C248.318 295.286 244.173 291.141 244.173 286.03C244.173 280.919 248.318 276.773 253.43 276.773Z" fill="#EC663D"/>
</g>
<g clip-path="url(#clip1)">
<path d="M323.524 104.668C325.003 104.027 326.146 103.235 327.332 102.524C331.028 100.307 334.707 98.0642 338.403 95.8424C343.376 92.8567 348.36 89.8833 353.336 86.9017C355.95 85.3365 358.523 83.697 361.187 82.2186C364.268 80.5048 367.22 78.5721 370.33 76.9202C372.754 75.6318 375.112 74.2277 377.503 72.8938C380.609 71.1634 383.817 69.5818 386.807 67.6573C389.108 66.1748 391.296 64.5312 393.803 63.3831C396.748 62.0327 399.832 61.4215 403.021 61.8923C405.672 62.2846 407.704 63.7341 409.322 65.96C410.681 67.8267 411.35 69.9534 412.259 71.9976C412.523 72.5923 412.523 73.3191 412.56 73.9923C412.688 76.2595 412.849 78.5597 412.527 80.7939C412.085 83.8498 412.118 86.9884 411.032 89.9452C410.855 90.4243 410.916 90.99 410.867 91.5186C411.466 91.3989 411.829 90.957 412.275 90.5853C413.436 89.6231 414.633 88.6692 415.942 87.9423C416.686 87.5294 417.363 86.9884 417.995 86.5176C420.976 84.2876 424.103 82.2805 427.175 80.1951C429.021 78.9396 431.012 77.8907 432.849 76.6394C435.662 74.7274 438.565 72.9805 441.488 71.2626C444.871 69.2762 448.265 67.3104 451.771 65.5347C453.733 64.5436 455.657 63.4616 457.648 62.5365C461.394 60.7938 465.127 59.0139 469.071 57.7172C471.66 56.8665 474.2 55.8258 476.884 55.3674C480.151 54.8058 483.434 54.1904 486.783 54.4465C489.764 54.6736 492.482 55.5945 494.658 57.7337C495.141 58.2086 495.786 58.1467 496.277 58.5101C498.144 59.8894 499.188 61.6858 499.325 64.0397C499.523 67.4798 499.015 70.8 497.999 74.0873C497.152 76.8294 496.004 79.4393 494.885 82.0699C493.911 84.366 492.804 86.6043 491.606 88.7807C490.64 90.5316 489.587 92.2661 488.654 94.0295C487.311 96.5692 486.048 99.1627 484.759 101.735C482.979 105.287 481.022 108.756 479.349 112.357C477.941 115.388 476.335 118.333 475.108 121.451C474.637 122.652 473.948 123.763 473.32 124.994C473.927 125.134 474.258 124.725 474.526 124.502C476.211 123.094 478.144 122.066 479.928 120.823C481.336 119.84 482.765 118.894 484.185 117.932C488.74 114.855 493.312 111.812 497.888 108.768C500.229 107.207 502.649 105.77 504.953 104.139C507.629 102.248 510.376 100.439 513.2 98.7827C515.364 97.5108 517.371 96.0076 519.564 94.7646C521.741 93.5339 523.723 91.9275 525.895 90.6349C528.08 89.334 530.182 87.8928 532.341 86.5465C534.993 84.8905 537.582 83.1147 540.271 81.5083C542.034 80.4511 543.789 79.365 545.536 78.2913C547.448 77.1143 549.409 76.0076 551.255 74.7067C554.064 72.7245 556.93 70.8042 559.87 69.0243C564.276 66.3565 568.749 63.7754 573.424 61.5991C578.078 59.431 582.823 57.4405 587.84 56.2594C592.226 55.2311 596.711 54.6984 601.171 55.4954C604.231 56.0447 607.138 57.2547 609.327 59.6623C610.884 61.3761 611.933 63.346 612.028 65.704C612.09 67.3187 612.519 68.8839 612.482 70.5151C612.404 73.951 611.974 77.3332 611.342 80.7071C611.099 82.008 611.26 83.379 610.781 84.6427C610.215 86.1294 610.558 87.7813 609.946 89.2391C609.509 90.2839 609.612 91.3906 609.405 92.4602C608.831 95.4129 608.299 98.378 607.82 101.351C607.543 103.065 607.27 104.82 606.771 106.435C606.164 108.405 605.999 110.441 605.404 112.394C604.809 114.352 604.446 116.379 603.971 118.374C603.847 118.894 603.669 119.415 603.492 119.902C602.98 121.323 602.715 122.801 602.294 124.238C601.786 125.973 601.051 127.641 600.584 129.384C600.233 130.689 599.816 131.985 599.366 133.237C598.677 135.157 598.07 137.11 597.306 139.01C596.744 140.402 596.174 141.793 595.662 143.21C595.183 144.535 594.588 145.84 594.043 147.15C593.403 148.678 592.874 150.259 592.032 151.709C591.375 152.836 590.735 153.964 589.955 155.021C589.087 156.198 588.043 157.181 586.866 158.002C585.329 159.08 582.992 159.126 581.493 157.796C580.316 156.751 579.325 155.611 578.648 154.207C578.305 153.501 577.661 153.059 577.264 152.365C576.608 151.217 576.207 150.061 576.075 148.768C575.914 147.166 575.501 145.572 575.711 143.953C576.038 141.438 575.988 138.882 576.769 136.404C577.149 135.202 577.186 133.881 577.561 132.646C578.045 131.064 578.462 129.462 578.941 127.88C579.424 126.286 579.948 124.701 580.452 123.115C580.981 121.442 581.509 119.77 582.038 118.093C582.542 116.507 583.025 114.913 583.554 113.332C584.227 111.308 584.776 109.247 585.462 107.224C585.965 105.741 586.341 104.205 586.833 102.71C587.522 100.62 588.162 98.5143 588.778 96.4082C589.377 94.3475 590.054 92.3074 590.624 90.2343C591.313 87.7317 592.197 85.2828 592.957 82.8009C593.436 81.2357 593.808 79.6334 594.287 78.0683C594.708 76.7013 595.278 75.3798 595.678 74.0047C596.327 71.7664 597.021 69.524 596.356 67.1411C596.054 66.0633 595.055 65.2291 593.919 65.0928C591.772 64.8368 589.905 65.671 588.026 66.501C583.595 68.4585 579.296 70.6927 575.092 73.0796C570.359 75.768 565.705 78.5969 561.101 81.5042C554.931 85.3985 548.885 89.4703 542.889 93.6248C537.45 97.3911 532.085 101.261 526.795 105.221C521.377 109.276 515.992 113.381 510.681 117.573C508.125 119.592 505.561 121.603 503.05 123.685C500.853 125.51 498.602 127.278 496.368 129.066C494.068 130.912 491.809 132.807 489.529 134.678C487.943 135.979 486.349 137.263 484.784 138.593C482.715 140.348 480.605 142.078 478.395 143.652C476.306 145.138 474.125 146.493 471.924 147.827C469.025 149.582 466.023 151.052 462.777 151.857C459.667 152.63 456.426 152.894 453.411 151.337C451.908 150.561 450.776 149.309 450.078 147.724C449.203 145.745 448.121 143.829 447.832 141.653C447.58 139.749 447.534 137.829 447.885 135.913C448.096 134.773 448.092 133.596 448.319 132.46C448.608 131.003 448.988 129.557 449.409 128.132C449.686 127.187 449.958 126.237 450.347 125.312C451.012 123.726 451.491 122.062 452.147 120.472C453.911 116.193 456.05 112.093 458.007 107.905C459.374 104.977 460.857 102.107 462.162 99.1544C463.566 95.9787 465.077 92.8525 466.556 89.714C468.257 86.1129 469.93 82.4994 471.664 78.9149C473.109 75.9291 474.435 72.8855 475.802 69.8626C476.269 68.8302 476.578 67.7358 477.26 66.7984C477.561 66.3813 477.512 65.9105 476.781 65.9972C475.319 66.1707 474.014 66.8562 472.639 67.3063C470.215 68.0992 468.005 69.3753 465.783 70.577C464.214 71.4277 462.674 72.3941 461.183 73.41C459.366 74.6448 457.545 75.8713 455.699 77.0648C455.005 77.5149 454.377 78.06 453.704 78.5349C451.515 80.0794 449.401 81.7354 447.278 83.3666C446.213 84.1843 445.172 85.1176 444.107 85.9518C442.921 86.8727 441.976 88.1075 440.551 88.7352C440.212 88.8839 439.998 89.2927 439.7 89.5488C437.243 91.6756 434.798 93.8147 432.308 95.9002C431.47 96.6023 430.772 97.4447 429.934 98.1385C426.37 101.091 423.095 104.362 419.651 107.451C416.421 110.35 413.448 113.513 410.285 116.478C406.035 120.459 401.889 124.548 397.809 128.706C393.96 132.625 390.371 136.809 386.283 140.484C384.544 142.045 382.814 143.648 380.914 145.01C379.155 146.274 377.458 147.633 375.579 148.731C371.808 150.937 367.972 152.799 363.396 152.295C361.864 152.126 360.572 151.465 359.337 150.693C358.585 150.222 357.854 149.669 357.169 149.053C354.641 146.79 354.439 143.924 354.881 140.889C355.186 138.791 356.52 137.152 357.586 135.413C358.92 133.237 360.344 131.122 361.67 128.934C362.612 127.377 363.619 125.849 364.569 124.288C366.019 121.901 367.53 119.551 369.021 117.185C370.247 115.231 371.495 113.286 372.626 111.287C374.055 108.764 375.641 106.332 376.983 103.747C377.681 102.396 378.618 101.128 379.333 99.7656C380.167 98.1757 381.059 96.6105 381.943 95.0578C383.4 92.5015 384.842 89.9328 386.151 87.3022C387.352 84.8864 388.649 82.487 389.256 79.8151C389.302 79.6128 389.677 79.4022 389.347 79.2081C389.083 79.0511 388.736 79.1007 388.459 79.2494C387.77 79.6293 387.146 80.1083 386.432 80.4676C384.069 81.6487 381.761 82.9372 379.469 84.2339C377.127 85.5595 374.745 86.8315 372.448 88.2479C370.801 89.2638 369.079 90.1517 367.402 91.1139C365.184 92.3859 362.975 93.6743 360.77 94.9628C359.151 95.9044 357.549 96.8748 355.946 97.8371C354.381 98.7786 352.82 99.7491 351.259 100.707C349.661 101.686 348.046 102.652 346.456 103.635C344.8 104.659 343.153 105.729 341.53 106.832C339.663 108.099 337.8 109.375 335.855 110.515C334.038 111.581 332.382 112.869 330.635 114.03C328.975 115.132 327.278 116.189 325.713 117.441C324.532 118.386 323.28 119.249 322.021 120.084C320.567 121.046 319.138 122.082 317.813 123.177C316.091 124.602 314.34 126.014 312.597 127.401C308.496 130.676 304.821 134.368 301.224 138.159C299.469 140.005 298.156 142.165 296.834 144.321C295.265 146.881 293.658 149.462 291.263 151.312C288.529 153.427 284.899 154.063 281.439 152.031C279.807 151.073 277.953 150.424 276.607 148.942C275.892 148.157 275.612 147.307 275.508 146.328C275.153 142.929 276.404 139.931 277.866 136.995C279.13 134.451 280.774 132.138 282.26 129.726C283.677 127.426 284.792 124.94 286.002 122.516C287.707 119.097 289.43 115.686 291.052 112.225C292.304 109.557 293.576 106.893 294.777 104.201C295.694 102.153 296.491 100.042 297.54 98.0435C297.639 97.8536 297.676 97.5356 297.474 97.3704C297.276 97.2093 297.007 97.2837 296.797 97.4117C295.393 98.2748 294.022 99.204 292.58 100.005C289.995 101.438 287.522 103.049 284.916 104.453C283.07 105.448 281.323 106.662 279.485 107.711C277.586 108.797 275.74 109.97 273.819 111.031C272.353 111.841 270.949 112.782 269.483 113.612C266.943 115.045 264.457 116.569 261.93 118.027C260.113 119.076 258.296 120.154 256.491 121.223C255.013 122.099 253.534 123.012 251.998 123.817C250.52 124.589 249.095 125.489 247.637 126.324C245.469 127.567 243.33 128.851 241.133 130.044C239.473 130.949 237.833 131.923 236.194 132.882C233.894 134.224 231.581 135.549 229.252 136.846C226.171 138.564 223.09 140.274 220.018 142C216.995 143.697 213.91 145.266 210.846 146.881C208.822 147.947 206.782 148.983 204.668 149.834C201.822 150.978 198.845 151.226 196.128 149.64C194.216 148.525 193.068 146.609 192.266 144.494C190.8 140.616 190.536 136.619 190.85 132.543C190.97 130.986 191.407 129.495 191.903 128.029C193.101 124.494 194.715 121.141 196.454 117.845C198.345 114.261 200.299 110.713 202.153 107.112C203.355 104.783 204.569 102.458 205.754 100.129C206.658 98.3533 207.542 96.5362 208.451 94.7563C209.128 93.4266 209.855 92.0968 210.586 90.7836C211.779 88.6403 213.006 86.5093 214.24 84.3908C215.492 82.2392 216.809 80.1207 218.06 77.9609C219.258 75.8919 220.489 73.8395 222.012 71.9894C224.519 68.9417 227.6 66.8438 231.548 66.0715C233.588 65.671 235.545 65.8279 237.301 66.8644C238.895 67.806 239.82 69.3918 240.158 71.2089C240.6 73.571 240.691 75.9621 240.191 78.3367C239.84 80.001 239.254 81.5785 238.552 83.1395C237.842 84.7212 236.838 86.1253 235.938 87.5707C235.153 88.8302 234.245 90.0732 233.212 91.1883C231.75 92.7658 230.73 94.6572 229.524 96.4123C228.025 98.6052 226.609 100.86 225.172 103.094C224.123 104.725 223.127 106.39 222.045 108C221.162 109.318 220.311 110.672 219.493 112.023C218.833 113.109 218.217 114.248 217.548 115.33C216.078 117.709 214.777 120.179 213.431 122.623C212.374 124.54 211.618 126.621 210.751 128.64C210.635 128.909 210.532 129.338 210.763 129.52C211.036 129.735 211.345 129.479 211.635 129.28C213.303 128.132 215.128 127.228 216.838 126.167C218.89 124.899 220.98 123.697 223.041 122.438C226.101 120.567 229.19 118.746 232.279 116.92C235.942 114.756 239.613 112.609 243.28 110.449C245.663 109.045 248.009 107.575 250.421 106.22C254.868 103.722 259.159 100.951 263.59 98.4276C267.36 96.2802 271.007 93.9221 274.786 91.7995C277.107 90.4945 279.39 89.1276 281.682 87.7813C283.768 86.5548 285.845 85.2952 287.902 84.0109C289.991 82.7059 292.11 81.4422 294.228 80.1785C296.215 78.9933 298.201 77.8164 300.212 76.6766C301.922 75.7102 303.631 74.7274 305.292 73.6949C307.005 72.6336 308.756 71.626 310.47 70.5646C312.159 69.5157 313.91 68.5411 315.591 67.4963C317.449 66.34 319.399 65.2869 321.174 63.9861C324.197 61.7725 329.454 62.4168 332.081 64.779C334.616 67.0544 336.202 69.8172 337.441 72.9103C338.296 75.0371 337.763 76.9739 336.979 78.8983C335.608 82.2516 333.625 85.2539 331.437 88.124C329.892 90.1476 328.319 92.167 327.22 94.4755C326.126 96.7757 324.945 99.0429 324.371 101.574C324.156 102.553 323.883 103.536 323.524 104.668Z" fill="#223549"/>
<path d="M117.411 122.676C119.063 121.417 120.537 120.215 122.09 119.137C123.428 118.212 124.721 117.209 126.021 116.246C127.496 115.16 128.9 113.934 130.378 112.839C132.356 111.377 134.281 109.841 136.313 108.441C137.221 107.818 138.076 107.054 138.964 106.372C141.165 104.679 143.399 103.027 145.613 101.351C147.409 99.9878 149.193 98.6043 150.99 97.2456C153.187 95.5855 155.396 93.9419 157.593 92.2859C159.811 90.6134 161.995 88.8954 164.246 87.2725C165.906 86.079 167.529 84.8318 169.168 83.6053C171.464 81.8832 173.798 80.2107 176.106 78.4969C178.018 77.0763 179.91 75.635 181.818 74.2062C184.068 72.5171 186.315 70.8198 188.582 69.1556C191.023 67.3633 193.463 65.5627 195.958 63.8448C197.118 63.0478 198.101 61.9988 199.427 61.4207C199.893 61.2183 200.145 61.2348 200.447 61.6148C201.739 63.2419 203.048 64.8483 204.341 66.4713C205.026 67.3302 204.32 67.9621 203.754 68.1975C202.743 68.6187 202.103 69.4529 201.268 70.0517C199.414 71.3773 197.762 72.9838 195.916 74.3177C194.256 75.5194 192.736 76.8905 191.085 78.1046C189.883 78.9883 188.743 80.029 187.574 80.9954C186.604 81.8006 185.613 82.6018 184.646 83.4112C183.288 84.551 181.904 85.6702 180.612 86.8967C179.175 88.2636 177.527 89.3993 176.044 90.7207C174.673 91.9473 173.286 93.1738 171.873 94.3384C169.04 96.6799 166.319 99.1536 163.54 101.549C161.376 103.411 159.27 105.381 157.151 107.314C155.412 108.904 153.794 110.634 151.977 112.125C149.953 113.785 148.272 115.796 146.273 117.448C143.37 119.843 140.888 122.656 138.13 125.183C129.391 133.186 121.256 141.801 112.873 150.168C111.093 151.943 109.259 153.665 107.252 155.185C104.481 157.287 101.615 159.216 98.2576 160.318C95.5031 161.227 92.2572 160.455 90.6095 158.163C89.5027 156.622 89.036 154.76 88.8791 152.86C88.5777 149.222 88.5818 145.567 88.8832 141.937C89.1393 138.827 89.4284 135.722 89.7298 132.616C90.0065 129.788 90.1841 126.946 90.5393 124.13C90.9811 120.661 91.0637 117.159 91.5923 113.698C91.8236 112.179 91.8277 110.622 91.9929 109.085C92.4059 105.232 92.5628 101.346 93.0171 97.4976C93.2607 95.4451 93.3103 93.3968 93.4878 91.3485C93.5085 91.1007 93.6241 90.8983 93.3433 90.7579C93.0955 90.634 92.9056 90.7373 92.6826 90.8694C90.9316 91.9184 89.1517 92.9219 87.4131 93.9997C85.9016 94.9372 84.4727 96.0026 82.9489 96.9153C81.2475 97.9312 79.6864 99.1577 78.0883 100.302C76.234 101.623 74.3592 102.949 72.5834 104.394C71.171 105.542 69.6844 106.604 68.2514 107.723C67.2478 108.503 66.2774 109.35 65.2573 110.11C63.2421 111.613 61.3135 113.232 59.3808 114.822C57.3903 116.457 55.3709 118.084 53.4795 119.856C51.9061 121.33 50.0643 122.515 48.4991 123.994C46.8059 125.592 45.0095 127.074 43.2957 128.648C39.4592 132.162 35.5443 135.59 31.6996 139.096C27.2932 143.118 22.8414 147.099 18.6415 151.349C18.212 151.786 17.7165 152.203 17.2374 152.612C16.4239 153.306 15.4534 153.368 14.4499 153.558C12.6369 153.897 10.8612 154.471 9.1102 155.069C7.28075 155.693 5.49673 156.465 3.69619 157.171C2.86199 157.498 2.01954 157.795 1.19773 158.146C1.00776 158.229 0.900392 158.295 0.801279 158.084C0.743464 157.964 0.706297 157.845 0.830187 157.721C3.03544 155.495 5.23243 153.261 7.44181 151.039C10.5969 147.867 13.9089 144.836 16.8616 141.491C18.786 139.311 20.8798 137.308 22.8703 135.202C24.5759 133.397 26.3062 131.6 28.1604 129.924C29.7173 128.52 31.2535 127.05 32.5668 125.422C34.6729 122.808 37.1507 120.582 39.4964 118.216C42.2881 115.4 45.1458 112.641 47.8466 109.738C49.7999 107.64 51.7492 105.534 53.7355 103.469C55.7302 101.396 57.8033 99.4013 59.8309 97.3572C61.0946 96.0852 62.2716 94.7224 63.5105 93.4381C65.5795 91.2865 67.6484 89.1184 69.7876 87.0247C72.5462 84.3197 75.3462 81.6396 77.9313 78.7695C79.608 76.9028 81.3548 75.1106 83.081 73.2976C84.7949 71.5012 86.6284 69.8163 88.3381 68.0158C89.3293 66.971 90.4401 66.0459 91.2785 64.8194C91.8897 63.9274 92.8023 63.1923 93.587 62.3953C95.5403 60.3965 97.4812 58.3812 99.5089 56.4609C100.554 55.4698 101.817 54.7182 103.127 54.0987C105.831 52.8144 108.714 52.5831 111.663 52.7442C115.251 52.9383 118.505 54.2102 121.586 55.9199C124.081 57.3034 126.41 58.9552 128.619 60.7847C130.651 62.4655 131.316 64.4931 130.861 67.0246C130.378 69.7172 129.437 72.2693 128.574 74.8504C128.045 76.4279 127.574 78.0261 127.008 79.5913C126.484 81.0449 125.786 82.4407 125.307 83.9068C124.324 86.938 122.986 89.8329 121.999 92.8641C121.537 94.2847 120.901 95.6888 120.475 97.1259C119.897 99.0668 119.534 101.082 119.22 103.089C119.051 104.159 118.671 105.171 118.46 106.232C118.233 107.396 118.097 108.59 117.898 109.75C117.601 111.489 117.262 113.252 117.304 115.049C117.345 116.787 116.767 118.497 117.035 120.252C117.163 121 117.275 121.759 117.411 122.676Z" fill="#223549"/>
<path d="M640.51 123.391C630.02 123.391 619.527 123.391 609.037 123.391C607.79 123.391 607.811 123.391 608.063 122.14C608.649 119.229 609.492 116.375 610.094 113.472C610.644 110.825 611.482 108.252 611.878 105.568C612.035 104.502 612.49 103.478 612.861 102.45C612.981 102.119 613.349 101.999 613.7 101.971C613.972 101.95 614.249 101.966 614.526 101.966C633.65 101.966 652.775 101.979 671.899 101.938C673.006 101.933 673.192 102.28 673.188 103.284C673.142 109.577 673.142 115.871 673.188 122.165C673.196 123.127 673.014 123.42 671.982 123.416C661.492 123.375 651.003 123.391 640.51 123.391Z" fill="#EC663D"/>
<path d="M543.221 123.391C532.76 123.391 522.3 123.391 511.839 123.382C511.521 123.382 511.038 123.589 510.914 123.213C510.774 122.792 511.261 122.515 511.546 122.309C517.088 118.336 522.295 113.929 527.672 109.746C530.798 107.314 533.887 104.828 537.001 102.379C537.402 102.065 537.877 101.949 538.422 101.949C552.702 101.966 566.983 101.962 581.263 101.966C582.399 101.966 582.399 102.048 582.031 103.122C581.511 104.646 581.114 106.207 580.644 107.747C580.016 109.787 579.281 111.799 578.74 113.863C578.24 115.78 577.476 117.613 577.125 119.575C576.939 120.611 576.469 121.594 576.138 122.606C575.903 123.324 575.378 123.407 574.709 123.407C564.212 123.386 553.718 123.391 543.221 123.391Z" fill="#EC663D"/>
<path d="M260.626 37.0804C250.505 37.5884 242.018 28.7385 241.968 18.9057C241.919 8.375 250.215 -0.00825327 260.581 6.09771e-06C270.864 0.00413578 278.908 8.23046 279.264 18.1871C279.631 28.5857 270.579 37.5636 260.626 37.0804Z" fill="#EC663D"/>
</g>
<defs>
<clipPath id="clip0">
<rect width="456" height="404.01" fill="white" transform="translate(3 130.008)"/>
</clipPath>
<clipPath id="clip1">
<rect width="672.436" height="160.698" fill="white" transform="translate(0.757324)"/>
</clipPath>
</defs>
</svg>
