<svg width="296" height="996" viewBox="0 0 296 996" fill="none" xmlns="http://www.w3.org/2000/svg">
<path d="M131 332L213.043 332C257.202 332 293 296.407 293 252.5C293 208.593 257.202 173 213.043 173L131 173" stroke="#F7C154" stroke-width="5"/>
<path d="M166 14L83.9568 14C39.7979 14 4 49.5934 4 93.5C4 137.407 39.7979 173 83.9568 173L166 173" stroke="#F7C154" stroke-width="5"/>
<path d="M131 675L213.043 675C257.202 675 293 639.407 293 595.5C293 551.593 257.202 516 213.043 516L131 516" stroke="#F7C154" stroke-width="5"/>
<path d="M165 675L82.9568 675C38.7979 675 2.99999 710.593 3 754.5C3 798.407 38.7979 834 82.9568 834L165 834" stroke="#F7C154" stroke-width="5"/>
<path d="M190 332L95.2959 332C44.3223 332 3 373.19 3 424C3 474.81 44.3223 516 95.2959 516L190 516" stroke="#F7C154" stroke-width="5"/>
<path d="M90.0659 83.48C96.5059 83.48 99.9859 79.76 101.706 76.32L95.7859 73.52C94.9059 75.64 92.6259 77.4 90.0659 77.4C85.7059 77.4 82.6259 74.04 82.6259 69.68C82.6259 65.32 85.7059 61.96 90.0659 61.96C92.6259 61.96 94.9059 63.72 95.7859 65.84L101.706 63.04C99.9459 59.52 96.5059 55.88 90.0659 55.88C81.8659 55.88 75.6259 61.44 75.6259 69.68C75.6259 77.88 81.8659 83.48 90.0659 83.48ZM113.801 83.48C116.761 83.48 119.961 82.64 121.881 80.92L119.281 77.08C118.201 78.12 115.841 78.72 114.481 78.72C111.681 78.72 110.001 77.08 109.641 75.28H123.401V73.96C123.401 67.4 119.241 63.2 113.521 63.2C107.481 63.2 103.241 67.72 103.241 73.32C103.241 79.6 107.841 83.48 113.801 83.48ZM117.521 71.28H109.561C109.801 69.88 110.841 67.96 113.521 67.96C116.361 67.96 117.361 69.92 117.521 71.28ZM132.315 83L139.515 72.36V83H145.675V63.68H139.475L132.595 73.8V63.68H126.435V83H132.315ZM143.075 58.36L140.435 56.2C139.435 57.68 137.915 58.52 136.075 58.52C134.155 58.52 132.675 57.56 131.675 56.2L129.035 58.36C130.675 60.52 133.235 61.88 136.075 61.88C138.955 61.88 141.475 60.52 143.075 58.36ZM149.666 63.68V71C149.666 75.08 151.666 77.6 156.946 77.6C159.506 77.6 161.546 76.96 162.746 76.24V83H168.866V63.68H162.746V71.36C161.986 71.8 160.946 72.16 159.226 72.16C157.026 72.16 155.826 71.36 155.826 69V63.68H149.666ZM190.948 83V70.92C190.948 64.92 186.588 63.2 181.948 63.2C178.988 63.2 175.668 64.08 173.188 66.2L175.388 70.08C176.948 68.76 178.948 68.04 180.868 68.04C183.348 68.04 184.788 69.16 184.788 70.84V73.16C183.628 71.72 181.348 70.92 178.788 70.92C175.828 70.92 172.148 72.44 172.148 77.12C172.148 81.48 175.828 83.48 178.788 83.48C181.268 83.48 183.588 82.52 184.788 81.08V83H190.948ZM181.348 79.44C179.708 79.44 178.268 78.72 178.268 77.2C178.268 75.68 179.708 74.96 181.348 74.96C182.708 74.96 184.148 75.44 184.788 76.32V78.04C184.148 78.96 182.708 79.44 181.348 79.44ZM204.7 83.48C208.86 83.48 211.46 81.6 212.62 79.92L208.62 76.16C207.86 77.24 206.62 78.04 204.98 78.04C202.42 78.04 200.46 76.24 200.46 73.32C200.46 70.4 202.42 68.64 204.98 68.64C206.62 68.64 207.86 69.36 208.62 70.48L212.62 66.76C211.46 65.04 208.86 63.2 204.7 63.2C198.66 63.2 194.14 67.28 194.14 73.32C194.14 79.4 198.66 83.48 204.7 83.48ZM76.4316 123V109.04H81.6716V103.68H64.9916V109.04H70.2716V123H76.4316ZM84.5603 103.68V123H97.0803C101.56 123 104.12 119.96 104.12 116.44C104.12 112.88 101.76 109.88 97.0803 109.88H90.7203V103.68H84.5603ZM96.0003 114.84C97.1603 114.84 97.8803 115.52 97.8803 116.44C97.8803 117.36 97.1603 118.04 96.0003 118.04H90.7203V114.84H96.0003ZM112.36 123V103.68H106.2V123H112.36ZM134.22 123.48C140.1 123.44 143.82 121.08 143.78 117.64C143.78 114.84 140.82 113.24 138.42 113.08C141.1 112.64 143.42 110.84 143.42 108.6C143.38 105.32 140.1 103.2 133.7 103.24C130.18 103.24 127.26 104.56 125.34 106.48L128.3 110C129.74 108.64 131.66 107.92 134.02 107.92C135.82 107.92 137.06 108.52 137.06 109.36C137.06 110.36 136.3 110.96 133.94 110.96H130.14V115.56H133.94C136.22 115.56 137.42 116.16 137.42 117.24C137.42 118.16 136.42 118.76 134.22 118.76C132.22 118.76 129.66 118.12 127.86 116.76L125.1 120.4C126.98 122.2 130.18 123.48 134.22 123.48ZM145.462 127.92H151.622V123H162.182V127.92H168.342V117.64H166.222V103.68H149.702L148.422 112.96C147.862 117.16 146.902 117.76 145.462 117.88V127.92ZM155.022 109.04H160.062V117.64H152.622C153.622 116.6 154.262 115.12 154.502 113.16L155.022 109.04ZM180.481 123.48C183.441 123.48 186.641 122.64 188.561 120.92L185.961 117.08C184.881 118.12 182.521 118.72 181.161 118.72C178.361 118.72 176.681 117.08 176.321 115.28H190.081V113.96C190.081 107.4 185.921 103.2 180.201 103.2C174.161 103.2 169.921 107.72 169.921 113.32C169.921 119.6 174.521 123.48 180.481 123.48ZM184.201 111.28H176.241C176.481 109.88 177.521 107.96 180.201 107.96C183.041 107.96 184.041 109.92 184.201 111.28ZM202.395 123.48C206.555 123.48 209.155 121.6 210.315 119.92L206.315 116.16C205.555 117.24 204.315 118.04 202.675 118.04C200.115 118.04 198.155 116.24 198.155 113.32C198.155 110.4 200.115 108.64 202.675 108.64C204.315 108.64 205.555 109.36 206.315 110.48L210.315 106.76C209.155 105.04 206.555 103.2 202.395 103.2C196.355 103.2 191.835 107.28 191.835 113.32C191.835 119.4 196.355 123.48 202.395 123.48ZM213.115 103.68V123H225.635C230.115 123 232.675 119.96 232.675 116.44C232.675 112.88 230.315 109.88 225.635 109.88H219.275V103.68H213.115ZM224.555 114.84C225.715 114.84 226.435 115.52 226.435 116.44C226.435 117.36 225.715 118.04 224.555 118.04H219.275V114.84H224.555Z" fill="#223549"/>
<path d="M74.7548 393V379.66H62.3348V393H65.7748V382.66H71.3148V393H74.7548ZM81.699 393.24C85.019 393.24 86.979 390.88 86.979 388.16C86.979 385.44 85.019 383.1 81.699 383.1C78.419 383.1 76.439 385.44 76.439 388.16C76.439 390.88 78.419 393.24 81.699 393.24ZM81.699 390.52C80.359 390.52 79.619 389.46 79.619 388.16C79.619 386.88 80.359 385.82 81.699 385.82C83.059 385.82 83.819 386.88 83.819 388.16C83.819 389.46 83.059 390.52 81.699 390.52ZM87.8424 395.46H90.9224V393H96.2024V395.46H99.2824V390.32H98.2224V383.34H89.9624L89.3224 387.98C89.0424 390.08 88.5624 390.38 87.8424 390.44V395.46ZM92.6224 386.02H95.1424V390.32H91.4224C91.9224 389.8 92.2424 389.06 92.3624 388.08L92.6224 386.02ZM105.332 390.52C103.992 390.52 103.252 389.46 103.252 388.14C103.252 386.88 103.992 385.82 105.332 385.82C106.692 385.82 107.452 386.88 107.452 388.14C107.452 389.46 106.692 390.52 105.332 390.52ZM105.332 393.24C108.672 393.24 110.612 390.86 110.612 388.14C110.612 385.46 108.832 383.1 106.072 383.1C104.772 383.1 103.732 383.56 102.952 384.52C103.232 383.48 104.072 382.64 106.312 382.32C107.872 382.1 110.252 381.54 110.252 379.66H106.932C106.932 379.96 106.392 380.2 105.252 380.38C101.852 380.86 100.092 383.02 100.092 387.72C100.092 390.86 102.032 393.24 105.332 393.24ZM116.895 393.24C118.375 393.24 119.975 392.82 120.935 391.96L119.635 390.04C119.095 390.56 117.915 390.86 117.235 390.86C115.835 390.86 114.995 390.04 114.815 389.14H121.695V388.48C121.695 385.2 119.615 383.1 116.755 383.1C113.735 383.1 111.615 385.36 111.615 388.16C111.615 391.3 113.915 393.24 116.895 393.24ZM118.755 387.14H114.775C114.895 386.44 115.415 385.48 116.755 385.48C118.175 385.48 118.675 386.46 118.755 387.14ZM129.152 393.24C131.572 393.24 133.392 391.44 133.392 388.16C133.392 384.9 131.572 383.1 129.152 383.1C128.052 383.1 127.052 383.54 126.292 384.46V383.34H123.212V396.68H126.292V391.86C127.092 392.82 128.072 393.24 129.152 393.24ZM128.132 390.52C127.472 390.52 126.672 390.14 126.292 389.64V386.7C126.672 386.18 127.472 385.82 128.132 385.82C129.332 385.82 130.252 386.72 130.252 388.16C130.252 389.62 129.332 390.52 128.132 390.52ZM137.929 393L141.529 387.68V393H144.609V383.34H141.509L138.069 388.4V383.34H134.989V393H137.929ZM161.882 393L158.142 387.74L161.702 383.34H157.982L155.042 387.2V383.34H151.962V393H155.042V390.68L155.962 389.58L158.082 393H161.882ZM162.68 396.76C163 396.86 163.72 396.92 164 396.92C165.84 396.88 167.3 396.42 168.08 394.38L172.44 383.34H169.18L166.98 389.46L164.8 383.34H161.56L165.4 393.14L165.18 393.66C165.02 394.06 164.58 394.2 163.88 394.2C163.64 394.2 163.34 394.14 163.12 394.02L162.68 396.76ZM179.308 393.24C181.728 393.24 183.548 391.44 183.548 388.16C183.548 384.9 181.728 383.1 179.308 383.1C178.208 383.1 177.208 383.54 176.448 384.46V383.34H173.368V396.68H176.448V391.86C177.248 392.82 178.228 393.24 179.308 393.24ZM178.288 390.52C177.628 390.52 176.828 390.14 176.448 389.64V386.7C176.828 386.18 177.628 385.82 178.288 385.82C179.488 385.82 180.408 386.72 180.408 388.16C180.408 389.62 179.488 390.52 178.288 390.52ZM189.785 393.24C191.865 393.24 193.165 392.3 193.745 391.46L191.745 389.58C191.365 390.12 190.745 390.52 189.925 390.52C188.645 390.52 187.665 389.62 187.665 388.16C187.665 386.7 188.645 385.82 189.925 385.82C190.745 385.82 191.365 386.18 191.745 386.74L193.745 384.88C193.165 384.02 191.865 383.1 189.785 383.1C186.765 383.1 184.505 385.14 184.505 388.16C184.505 391.2 186.765 393.24 189.785 393.24ZM199.503 395.46H202.583V393H207.863V395.46H210.943V390.32H209.883V383.34H201.623L200.983 387.98C200.703 390.08 200.223 390.38 199.503 390.44V395.46ZM204.283 386.02H206.803V390.32H203.083C203.583 389.8 203.903 389.06 204.023 388.08L204.283 386.02ZM211.612 393.24C214.452 393.24 215.692 391.54 216.092 388.38L216.392 386.02H218.912V393H221.992V383.34H213.732L213.092 387.98C212.812 390.08 212.332 390.72 211.612 390.72V393.24ZM227.407 393L229.027 389.9H230.727V393H233.807V383.34H227.547C225.307 383.34 224.027 384.86 224.027 386.62C224.027 388.4 225.127 389.32 226.047 389.64L223.967 393H227.407ZM228.087 387.42C227.507 387.42 227.147 387.08 227.147 386.62C227.147 386.16 227.527 385.82 228.087 385.82H230.727V387.42H228.087ZM58.8186 418.24C60.8986 418.24 62.1986 417.3 62.7786 416.46L60.7786 414.58C60.3986 415.12 59.7786 415.52 58.9586 415.52C57.6786 415.52 56.6986 414.62 56.6986 413.16C56.6986 411.7 57.6786 410.82 58.9586 410.82C59.7786 410.82 60.3986 411.18 60.7786 411.74L62.7786 409.88C62.1986 409.02 60.8986 408.1 58.8186 408.1C55.7986 408.1 53.5386 410.14 53.5386 413.16C53.5386 416.2 55.7986 418.24 58.8186 418.24ZM69.0986 418V411.02H71.7186V408.34H63.3786V411.02H66.0186V418H69.0986ZM81.943 418V411.96C81.943 408.96 79.763 408.1 77.443 408.1C75.963 408.1 74.303 408.54 73.063 409.6L74.163 411.54C74.943 410.88 75.943 410.52 76.903 410.52C78.143 410.52 78.863 411.08 78.863 411.92V413.08C78.283 412.36 77.143 411.96 75.863 411.96C74.383 411.96 72.543 412.72 72.543 415.06C72.543 417.24 74.383 418.24 75.863 418.24C77.103 418.24 78.263 417.76 78.863 417.04V418H81.943ZM77.143 416.22C76.323 416.22 75.603 415.86 75.603 415.1C75.603 414.34 76.323 413.98 77.143 413.98C77.823 413.98 78.543 414.22 78.863 414.66V415.52C78.543 415.98 77.823 416.22 77.143 416.22ZM90.1186 418.24C92.5386 418.24 94.3586 416.44 94.3586 413.16C94.3586 409.9 92.5386 408.1 90.1186 408.1C89.0186 408.1 88.0186 408.54 87.2586 409.46V408.34H84.1786V421.68H87.2586V416.86C88.0586 417.82 89.0386 418.24 90.1186 418.24ZM89.0986 415.52C88.4386 415.52 87.6386 415.14 87.2586 414.64V411.7C87.6386 411.18 88.4386 410.82 89.0986 410.82C90.2986 410.82 91.2186 411.72 91.2186 413.16C91.2186 414.62 90.2986 415.52 89.0986 415.52ZM100.876 418V411.02H103.496V408.34H95.1559V411.02H97.7959V418H100.876ZM113.72 418V411.96C113.72 408.96 111.54 408.1 109.22 408.1C107.74 408.1 106.08 408.54 104.84 409.6L105.94 411.54C106.72 410.88 107.72 410.52 108.68 410.52C109.92 410.52 110.64 411.08 110.64 411.92V413.08C110.06 412.36 108.92 411.96 107.64 411.96C106.16 411.96 104.32 412.72 104.32 415.06C104.32 417.24 106.16 418.24 107.64 418.24C108.88 418.24 110.04 417.76 110.64 417.04V418H113.72ZM108.92 416.22C108.1 416.22 107.38 415.86 107.38 415.1C107.38 414.34 108.1 413.98 108.92 413.98C109.6 413.98 110.32 414.22 110.64 414.66V415.52C110.32 415.98 109.6 416.22 108.92 416.22ZM124.013 418L127.613 412.68V418H130.693V408.34H127.593L124.153 413.4V408.34H121.073V418H124.013ZM132.169 418.24C135.009 418.24 136.249 416.54 136.649 413.38L136.949 411.02H139.469V418H142.549V408.34H134.289L133.649 412.98C133.369 415.08 132.889 415.72 132.169 415.72V418.24ZM147.724 418L151.324 412.68V418H154.404V408.34H151.304L147.864 413.4V408.34H144.784V418H147.724ZM168.497 418C170.557 418 171.577 416.78 171.577 415.36C171.577 414.18 170.797 413.24 169.697 413.02C170.637 412.74 171.357 411.96 171.357 410.82C171.357 409.6 170.377 408.34 168.317 408.34H161.757V418H168.497ZM167.717 415.62H164.837V414.28H167.717C168.177 414.28 168.477 414.58 168.477 414.96C168.477 415.36 168.157 415.62 167.717 415.62ZM167.597 411.92H164.837V410.72H167.597C167.997 410.72 168.257 410.96 168.257 411.32C168.257 411.66 167.997 411.92 167.597 411.92ZM173.788 408.34V418H180.048C182.288 418 183.568 416.48 183.568 414.72C183.568 412.94 182.388 411.44 180.048 411.44H176.868V408.34H173.788ZM179.508 413.92C180.088 413.92 180.448 414.26 180.448 414.72C180.448 415.18 180.088 415.52 179.508 415.52H176.868V413.92H179.508ZM187.688 418V408.34H184.608V418H187.688ZM194.561 418.24C196.641 418.24 197.941 417.3 198.521 416.46L196.521 414.58C196.141 415.12 195.521 415.52 194.701 415.52C193.421 415.52 192.441 414.62 192.441 413.16C192.441 411.7 193.421 410.82 194.701 410.82C195.521 410.82 196.141 411.18 196.521 411.74L198.521 409.88C197.941 409.02 196.641 408.1 194.561 408.1C191.541 408.1 189.281 410.14 189.281 413.16C189.281 416.2 191.541 418.24 194.561 418.24ZM204.841 418V411.02H207.461V408.34H199.121V411.02H201.761V418H204.841ZM214.845 418.24C217.265 418.24 219.085 416.44 219.085 413.16C219.085 409.9 217.265 408.1 214.845 408.1C213.745 408.1 212.745 408.54 211.985 409.46V408.34H208.905V421.68H211.985V416.86C212.785 417.82 213.765 418.24 214.845 418.24ZM213.825 415.52C213.165 415.52 212.365 415.14 211.985 414.64V411.7C212.365 411.18 213.165 410.82 213.825 410.82C215.025 410.82 215.945 411.72 215.945 413.16C215.945 414.62 215.025 415.52 213.825 415.52ZM225.303 418.24C228.623 418.24 230.582 415.88 230.582 413.16C230.582 410.44 228.623 408.1 225.303 408.1C222.023 408.1 220.043 410.44 220.043 413.16C220.043 415.88 222.023 418.24 225.303 418.24ZM225.303 415.52C223.963 415.52 223.223 414.46 223.223 413.16C223.223 411.88 223.963 410.82 225.303 410.82C226.663 410.82 227.423 411.88 227.423 413.16C227.423 414.46 226.663 415.52 225.303 415.52ZM235.146 418L238.746 412.68V418H241.826V408.34H238.726L235.286 413.4V408.34H232.206V418H235.146ZM240.526 405.68L239.206 404.6C238.706 405.34 237.946 405.76 237.026 405.76C236.066 405.76 235.326 405.28 234.826 404.6L233.506 405.68C234.326 406.76 235.606 407.44 237.026 407.44C238.466 407.44 239.726 406.76 240.526 405.68ZM90.3909 443.24C92.4709 443.24 93.7709 442.3 94.3509 441.46L92.3509 439.58C91.9709 440.12 91.3509 440.52 90.5309 440.52C89.2509 440.52 88.2709 439.62 88.2709 438.16C88.2709 436.7 89.2509 435.82 90.5309 435.82C91.3509 435.82 91.9709 436.18 92.3509 436.74L94.3509 434.88C93.7709 434.02 92.4709 433.1 90.3909 433.1C87.3709 433.1 85.1109 435.14 85.1109 438.16C85.1109 441.2 87.3709 443.24 90.3909 443.24ZM100.371 443.24C103.691 443.24 105.651 440.88 105.651 438.16C105.651 435.44 103.691 433.1 100.371 433.1C97.0909 433.1 95.1109 435.44 95.1109 438.16C95.1109 440.88 97.0909 443.24 100.371 443.24ZM100.371 440.52C99.0309 440.52 98.2909 439.46 98.2909 438.16C98.2909 436.88 99.0309 435.82 100.371 435.82C101.731 435.82 102.491 436.88 102.491 438.16C102.491 439.46 101.731 440.52 100.371 440.52ZM111.894 440.52C110.554 440.52 109.814 439.46 109.814 438.14C109.814 436.88 110.554 435.82 111.894 435.82C113.254 435.82 114.014 436.88 114.014 438.14C114.014 439.46 113.254 440.52 111.894 440.52ZM111.894 443.24C115.234 443.24 117.174 440.86 117.174 438.14C117.174 435.46 115.394 433.1 112.634 433.1C111.334 433.1 110.294 433.56 109.514 434.52C109.794 433.48 110.634 432.64 112.874 432.32C114.434 432.1 116.814 431.54 116.814 429.66H113.494C113.494 429.96 112.954 430.2 111.814 430.38C108.414 430.86 106.654 433.02 106.654 437.72C106.654 440.86 108.594 443.24 111.894 443.24ZM123.457 443.24C125.537 443.24 126.837 442.3 127.417 441.46L125.417 439.58C125.037 440.12 124.417 440.52 123.597 440.52C122.317 440.52 121.337 439.62 121.337 438.16C121.337 436.7 122.317 435.82 123.597 435.82C124.417 435.82 125.037 436.18 125.417 436.74L127.417 434.88C126.837 434.02 125.537 433.1 123.457 433.1C120.437 433.1 118.177 435.14 118.177 438.16C118.177 441.2 120.437 443.24 123.457 443.24ZM133.737 443V436.02H136.357V433.34H128.017V436.02H130.657V443H133.737ZM144.542 443C146.602 443 147.622 441.78 147.622 440.36C147.622 439.18 146.842 438.24 145.742 438.02C146.682 437.74 147.402 436.96 147.402 435.82C147.402 434.6 146.422 433.34 144.362 433.34H137.802V443H144.542ZM143.762 440.62H140.882V439.28H143.762C144.222 439.28 144.522 439.58 144.522 439.96C144.522 440.36 144.202 440.62 143.762 440.62ZM143.642 436.92H140.882V435.72H143.642C144.042 435.72 144.302 435.96 144.302 436.32C144.302 436.66 144.042 436.92 143.642 436.92ZM154.473 443.24C155.953 443.24 157.553 442.82 158.513 441.96L157.213 440.04C156.673 440.56 155.493 440.86 154.813 440.86C153.413 440.86 152.573 440.04 152.393 439.14H159.273V438.48C159.273 435.2 157.193 433.1 154.333 433.1C151.313 433.1 149.193 435.36 149.193 438.16C149.193 441.3 151.493 443.24 154.473 443.24ZM156.333 437.14H152.353C152.473 436.44 152.993 435.48 154.333 435.48C155.753 435.48 156.253 436.46 156.333 437.14ZM163.87 443V439.34H167.33V443H170.41V433.34H167.33V436.66H163.87V433.34H160.79V443H163.87ZM175.725 443V439.34H179.185V443H182.265V433.34H179.185V436.66H175.725V433.34H172.645V443H175.725ZM184.501 433.34V443H190.761C193.001 443 194.281 441.48 194.281 439.72C194.281 437.94 193.101 436.44 190.761 436.44H187.581V433.34H184.501ZM190.221 438.92C190.801 438.92 191.161 439.26 191.161 439.72C191.161 440.18 190.801 440.52 190.221 440.52H187.581V438.92H190.221ZM198.401 443V433.34H195.321V443H198.401ZM203.574 443L207.174 437.68V443H210.254V433.34H207.154L203.714 438.4V433.34H200.634V443H203.574ZM208.954 430.68L207.634 429.6C207.134 430.34 206.374 430.76 205.454 430.76C204.494 430.76 203.754 430.28 203.254 429.6L201.934 430.68C202.754 431.76 204.034 432.44 205.454 432.44C206.894 432.44 208.154 431.76 208.954 430.68ZM43.1541 468.24C46.4741 468.24 48.4341 465.88 48.4341 463.16C48.4341 460.44 46.4741 458.1 43.1541 458.1C39.8741 458.1 37.8941 460.44 37.8941 463.16C37.8941 465.88 39.8741 468.24 43.1541 468.24ZM43.1541 465.52C41.8141 465.52 41.0741 464.46 41.0741 463.16C41.0741 461.88 41.8141 460.82 43.1541 460.82C44.5141 460.82 45.2741 461.88 45.2741 463.16C45.2741 464.46 44.5141 465.52 43.1541 465.52ZM54.6775 465.52C53.3375 465.52 52.5975 464.46 52.5975 463.14C52.5975 461.88 53.3375 460.82 54.6775 460.82C56.0375 460.82 56.7975 461.88 56.7975 463.14C56.7975 464.46 56.0375 465.52 54.6775 465.52ZM54.6775 468.24C58.0175 468.24 59.9575 465.86 59.9575 463.14C59.9575 460.46 58.1775 458.1 55.4175 458.1C54.1175 458.1 53.0775 458.56 52.2975 459.52C52.5775 458.48 53.4175 457.64 55.6575 457.32C57.2175 457.1 59.5975 456.54 59.5975 454.66H56.2775C56.2775 454.96 55.7375 455.2 54.5975 455.38C51.1975 455.86 49.4375 458.02 49.4375 462.72C49.4375 465.86 51.3775 468.24 54.6775 468.24ZM67.5405 468.24C69.9605 468.24 71.7805 466.44 71.7805 463.16C71.7805 459.9 69.9605 458.1 67.5405 458.1C66.4405 458.1 65.4405 458.54 64.6805 459.46V458.34H61.6005V471.68H64.6805V466.86C65.4805 467.82 66.4605 468.24 67.5405 468.24ZM66.5205 465.52C65.8605 465.52 65.0605 465.14 64.6805 464.64V461.7C65.0605 461.18 65.8605 460.82 66.5205 460.82C67.7205 460.82 68.6405 461.72 68.6405 463.16C68.6405 464.62 67.7205 465.52 66.5205 465.52ZM82.1578 468V461.96C82.1578 458.96 79.9778 458.1 77.6578 458.1C76.1778 458.1 74.5178 458.54 73.2778 459.6L74.3778 461.54C75.1578 460.88 76.1578 460.52 77.1178 460.52C78.3578 460.52 79.0778 461.08 79.0778 461.92V463.08C78.4978 462.36 77.3578 461.96 76.0778 461.96C74.5978 461.96 72.7578 462.72 72.7578 465.06C72.7578 467.24 74.5978 468.24 76.0778 468.24C77.3178 468.24 78.4778 467.76 79.0778 467.04V468H82.1578ZM77.3578 466.22C76.5378 466.22 75.8178 465.86 75.8178 465.1C75.8178 464.34 76.5378 463.98 77.3578 463.98C78.0378 463.98 78.7578 464.22 79.0778 464.66V465.52C78.7578 465.98 78.0378 466.22 77.3578 466.22ZM87.9734 468.24C90.9134 468.22 92.7734 467.04 92.7534 465.32C92.7534 463.92 91.2734 463.12 90.0734 463.04C91.4134 462.82 92.5734 461.92 92.5734 460.8C92.5534 459.16 90.9134 458.1 87.7134 458.12C85.9534 458.12 84.4934 458.78 83.5334 459.74L85.0134 461.5C85.7334 460.82 86.6934 460.46 87.8734 460.46C88.7734 460.46 89.3934 460.76 89.3934 461.18C89.3934 461.68 89.0134 461.98 87.8334 461.98H85.9334V464.28H87.8334C88.9734 464.28 89.5734 464.58 89.5734 465.12C89.5734 465.58 89.0734 465.88 87.9734 465.88C86.9734 465.88 85.6934 465.56 84.7934 464.88L83.4134 466.7C84.3534 467.6 85.9534 468.24 87.9734 468.24ZM98.9744 468.24C102.294 468.24 104.254 465.88 104.254 463.16C104.254 460.44 102.294 458.1 98.9744 458.1C95.6944 458.1 93.7144 460.44 93.7144 463.16C93.7144 465.88 95.6944 468.24 98.9744 468.24ZM98.9744 465.52C97.6344 465.52 96.8944 464.46 96.8944 463.16C96.8944 461.88 97.6344 460.82 98.9744 460.82C100.334 460.82 101.094 461.88 101.094 463.16C101.094 464.46 100.334 465.52 98.9744 465.52ZM112.618 468C114.678 468 115.698 466.78 115.698 465.36C115.698 464.18 114.918 463.24 113.818 463.02C114.758 462.74 115.478 461.96 115.478 460.82C115.478 459.6 114.498 458.34 112.438 458.34H105.878V468H112.618ZM111.838 465.62H108.958V464.28H111.838C112.298 464.28 112.598 464.58 112.598 464.96C112.598 465.36 112.278 465.62 111.838 465.62ZM111.718 461.92H108.958V460.72H111.718C112.118 460.72 112.378 460.96 112.378 461.32C112.378 461.66 112.118 461.92 111.718 461.92ZM126.689 468V461.96C126.689 458.96 124.509 458.1 122.189 458.1C120.709 458.1 119.049 458.54 117.809 459.6L118.909 461.54C119.689 460.88 120.689 460.52 121.649 460.52C122.889 460.52 123.609 461.08 123.609 461.92V463.08C123.029 462.36 121.889 461.96 120.609 461.96C119.129 461.96 117.289 462.72 117.289 465.06C117.289 467.24 119.129 468.24 120.609 468.24C121.849 468.24 123.009 467.76 123.609 467.04V468H126.689ZM121.889 466.22C121.069 466.22 120.349 465.86 120.349 465.1C120.349 464.34 121.069 463.98 121.889 463.98C122.569 463.98 123.289 464.22 123.609 464.66V465.52C123.289 465.98 122.569 466.22 121.889 466.22ZM133.845 468V461.02H136.465V458.34H128.125V461.02H130.765V468H133.845ZM142.549 468.24C144.029 468.24 145.629 467.82 146.589 466.96L145.289 465.04C144.749 465.56 143.569 465.86 142.889 465.86C141.489 465.86 140.649 465.04 140.469 464.14H147.349V463.48C147.349 460.2 145.269 458.1 142.409 458.1C139.389 458.1 137.269 460.36 137.269 463.16C137.269 466.3 139.569 468.24 142.549 468.24ZM144.409 462.14H140.429C140.549 461.44 141.069 460.48 142.409 460.48C143.829 460.48 144.329 461.46 144.409 462.14ZM148.106 468.24C150.946 468.24 152.186 466.54 152.586 463.38L152.886 461.02H155.406V468H158.486V458.34H150.226L149.586 462.98C149.306 465.08 148.826 465.72 148.106 465.72V468.24ZM160.722 458.34V468H166.982C169.222 468 170.502 466.48 170.502 464.72C170.502 462.94 169.322 461.44 166.982 461.44H163.802V458.34H160.722ZM166.442 463.92C167.022 463.92 167.382 464.26 167.382 464.72C167.382 465.18 167.022 465.52 166.442 465.52H163.802V463.92H166.442ZM175.188 468V464.34H178.648V468H181.728V458.34H178.648V461.66H175.188V458.34H172.108V468H175.188ZM183.964 458.34V468H190.224C192.464 468 193.744 466.48 193.744 464.72C193.744 462.94 192.564 461.44 190.224 461.44H187.044V458.34H183.964ZM189.684 463.92C190.264 463.92 190.624 464.26 190.624 464.72C190.624 465.18 190.264 465.52 189.684 465.52H187.044V463.92H189.684ZM197.864 468V458.34H194.784V468H197.864ZM203.037 468L206.637 462.68V468H209.717V458.34H206.617L203.177 463.4V458.34H200.097V468H203.037ZM208.417 455.68L207.097 454.6C206.597 455.34 205.837 455.76 204.917 455.76C203.957 455.76 203.217 455.28 202.717 454.6L201.397 455.68C202.217 456.76 203.497 457.44 204.917 457.44C206.357 457.44 207.617 456.76 208.417 455.68ZM221.989 468V461.02H224.609V458.34H216.269V461.02H218.909V468H221.989ZM231.994 468.24C234.414 468.24 236.234 466.44 236.234 463.16C236.234 459.9 234.414 458.1 231.994 458.1C230.894 458.1 229.894 458.54 229.134 459.46V458.34H226.054V471.68H229.134V466.86C229.934 467.82 230.914 468.24 231.994 468.24ZM230.974 465.52C230.314 465.52 229.514 465.14 229.134 464.64V461.7C229.514 461.18 230.314 460.82 230.974 460.82C232.174 460.82 233.094 461.72 233.094 463.16C233.094 464.62 232.174 465.52 230.974 465.52ZM242.471 468.24C243.951 468.24 245.551 467.82 246.511 466.96L245.211 465.04C244.671 465.56 243.491 465.86 242.811 465.86C241.411 465.86 240.571 465.04 240.391 464.14H247.271V463.48C247.271 460.2 245.191 458.1 242.331 458.1C239.311 458.1 237.191 460.36 237.191 463.16C237.191 466.3 239.491 468.24 242.471 468.24ZM244.331 462.14H240.351C240.471 461.44 240.991 460.48 242.331 460.48C243.751 460.48 244.251 461.46 244.331 462.14ZM258.708 468L254.968 462.74L258.528 458.34H254.808L251.868 462.2V458.34H248.788V468H251.868V465.68L252.788 464.58L254.908 468H258.708Z" fill="#223549"/>
<path d="M55.662 234.24C59.742 234.24 62.782 231.4 62.782 227.34C62.782 223.28 59.742 220.44 55.662 220.44C51.582 220.44 48.522 223.28 48.522 227.34C48.522 231.4 51.582 234.24 55.662 234.24ZM55.662 231.2C53.442 231.2 52.022 229.5 52.022 227.34C52.022 225.16 53.442 223.48 55.662 223.48C57.862 223.48 59.282 225.16 59.282 227.34C59.282 229.5 57.862 231.2 55.662 231.2ZM74.0545 234V224.34H64.4345V234H67.5145V227.02H70.9745V234H74.0545ZM82.2299 234.24C84.6499 234.24 86.4699 232.44 86.4699 229.16C86.4699 225.9 84.6499 224.1 82.2299 224.1C81.1299 224.1 80.1299 224.54 79.3699 225.46V224.34H76.2899V237.68H79.3699V232.86C80.1699 233.82 81.1499 234.24 82.2299 234.24ZM81.2099 231.52C80.5499 231.52 79.7499 231.14 79.3699 230.64V227.7C79.7499 227.18 80.5499 226.82 81.2099 226.82C82.4099 226.82 83.3299 227.72 83.3299 229.16C83.3299 230.62 82.4099 231.52 81.2099 231.52ZM92.7073 234.24C94.1873 234.24 95.7873 233.82 96.7473 232.96L95.4473 231.04C94.9073 231.56 93.7273 231.86 93.0473 231.86C91.6473 231.86 90.8073 231.04 90.6273 230.14H97.5073V229.48C97.5073 226.2 95.4273 224.1 92.5673 224.1C89.5473 224.1 87.4273 226.36 87.4273 229.16C87.4273 232.3 89.7273 234.24 92.7073 234.24ZM94.5673 228.14H90.5873C90.7073 227.44 91.2273 226.48 92.5673 226.48C93.9873 226.48 94.4873 227.46 94.5673 228.14ZM98.2643 236.46H101.344V234H106.624V236.46H109.704V231.32H108.644V224.34H100.384L99.7443 228.98C99.4643 231.08 98.9843 231.38 98.2643 231.44V236.46ZM103.044 227.02H105.564V231.32H101.844C102.344 230.8 102.664 230.06 102.784 229.08L103.044 227.02ZM115.774 234.24C117.254 234.24 118.854 233.82 119.814 232.96L118.514 231.04C117.974 231.56 116.794 231.86 116.114 231.86C114.714 231.86 113.874 231.04 113.694 230.14H120.574V229.48C120.574 226.2 118.494 224.1 115.634 224.1C112.614 224.1 110.494 226.36 110.494 229.16C110.494 232.3 112.794 234.24 115.774 234.24ZM117.634 228.14H113.654C113.774 227.44 114.294 226.48 115.634 226.48C117.054 226.48 117.554 227.46 117.634 228.14ZM121.331 234.24C124.171 234.24 125.411 232.54 125.811 229.38L126.111 227.02H128.631V234H131.711V224.34H123.451L122.811 228.98C122.531 231.08 122.051 231.72 121.331 231.72V234.24ZM136.886 234L140.486 228.68V234H143.566V224.34H140.466L137.026 229.4V224.34H133.946V234H136.886ZM150.442 234.24C152.522 234.24 153.822 233.3 154.402 232.46L152.402 230.58C152.022 231.12 151.402 231.52 150.582 231.52C149.302 231.52 148.322 230.62 148.322 229.16C148.322 227.7 149.302 226.82 150.582 226.82C151.402 226.82 152.022 227.18 152.402 227.74L154.402 225.88C153.822 225.02 152.522 224.1 150.442 224.1C147.422 224.1 145.162 226.14 145.162 229.16C145.162 232.2 147.422 234.24 150.442 234.24ZM155.802 224.34V234H162.062C164.302 234 165.582 232.48 165.582 230.72C165.582 228.94 164.402 227.44 162.062 227.44H158.882V224.34H155.802ZM161.522 229.92C162.102 229.92 162.462 230.26 162.462 230.72C162.462 231.18 162.102 231.52 161.522 231.52H158.882V229.92H161.522ZM176.946 234.24C179.026 234.24 180.326 233.3 180.906 232.46L178.906 230.58C178.526 231.12 177.906 231.52 177.086 231.52C175.806 231.52 174.826 230.62 174.826 229.16C174.826 227.7 175.806 226.82 177.086 226.82C177.906 226.82 178.526 227.18 178.906 227.74L180.906 225.88C180.326 225.02 179.026 224.1 176.946 224.1C173.926 224.1 171.666 226.14 171.666 229.16C171.666 232.2 173.926 234.24 176.946 234.24ZM192.226 234L188.486 228.74L192.046 224.34H188.326L185.386 228.2V224.34H182.306V234H185.386V231.68L186.306 230.58L188.426 234H192.226ZM197.687 234.24C201.007 234.24 202.967 231.88 202.967 229.16C202.967 226.44 201.007 224.1 197.687 224.1C194.407 224.1 192.427 226.44 192.427 229.16C192.427 231.88 194.407 234.24 197.687 234.24ZM197.687 231.52C196.347 231.52 195.607 230.46 195.607 229.16C195.607 227.88 196.347 226.82 197.687 226.82C199.047 226.82 199.807 227.88 199.807 229.16C199.807 230.46 199.047 231.52 197.687 231.52ZM203.831 234.24C206.671 234.24 207.911 232.54 208.311 229.38L208.611 227.02H211.131V234H214.211V224.34H205.951L205.311 228.98C205.031 231.08 204.551 231.72 203.831 231.72V234.24ZM216.446 224.34V234H222.706C224.946 234 226.226 232.48 226.226 230.72C226.226 228.94 225.046 227.44 222.706 227.44H219.526V224.34H216.446ZM222.166 229.92C222.746 229.92 223.106 230.26 223.106 230.72C223.106 231.18 222.746 231.52 222.166 231.52H219.526V229.92H222.166ZM237.753 234L234.013 228.74L237.573 224.34H233.853L230.913 228.2V224.34H227.833V234H230.913V231.68L231.833 230.58L233.953 234H237.753ZM243.215 234.24C246.535 234.24 248.495 231.88 248.495 229.16C248.495 226.44 246.535 224.1 243.215 224.1C239.935 224.1 237.955 226.44 237.955 229.16C237.955 231.88 239.935 234.24 243.215 234.24ZM243.215 231.52C241.875 231.52 241.135 230.46 241.135 229.16C241.135 227.88 241.875 226.82 243.215 226.82C244.575 226.82 245.335 227.88 245.335 229.16C245.335 230.46 244.575 231.52 243.215 231.52ZM70.1881 259C72.2481 259 73.2681 257.78 73.2681 256.36C73.2681 255.18 72.4881 254.24 71.3881 254.02C72.3281 253.74 73.0481 252.96 73.0481 251.82C73.0481 250.6 72.0681 249.34 70.0081 249.34H63.4481V259H70.1881ZM69.4081 256.62H66.5281V255.28H69.4081C69.8681 255.28 70.1681 255.58 70.1681 255.96C70.1681 256.36 69.8481 256.62 69.4081 256.62ZM69.2881 252.92H66.5281V251.72H69.2881C69.6881 251.72 69.9481 251.96 69.9481 252.32C69.9481 252.66 69.6881 252.92 69.2881 252.92ZM81.4194 259.24C83.8394 259.24 85.6594 257.44 85.6594 254.16C85.6594 250.9 83.8394 249.1 81.4194 249.1C80.3194 249.1 79.3194 249.54 78.5594 250.46V249.34H75.4794V262.68H78.5594V257.86C79.3594 258.82 80.3394 259.24 81.4194 259.24ZM80.3994 256.52C79.7394 256.52 78.9394 256.14 78.5594 255.64V252.7C78.9394 252.18 79.7394 251.82 80.3994 251.82C81.5994 251.82 82.5194 252.72 82.5194 254.16C82.5194 255.62 81.5994 256.52 80.3994 256.52ZM91.8967 259.24C93.3767 259.24 94.9767 258.82 95.9367 257.96L94.6367 256.04C94.0967 256.56 92.9167 256.86 92.2367 256.86C90.8367 256.86 89.9967 256.04 89.8167 255.14H96.6967V254.48C96.6967 251.2 94.6167 249.1 91.7567 249.1C88.7367 249.1 86.6167 251.36 86.6167 254.16C86.6167 257.3 88.9167 259.24 91.8967 259.24ZM93.7567 253.14H89.7767C89.8967 252.44 90.4167 251.48 91.7567 251.48C93.1767 251.48 93.6767 252.46 93.7567 253.14ZM110.374 259V249.34H106.314L104.294 254.56L102.274 249.34H98.2138V259H101.294V253.22L103.514 259H105.094L107.314 253.22V259H110.374ZM117.248 259.24C118.728 259.24 120.328 258.82 121.288 257.96L119.988 256.04C119.448 256.56 118.268 256.86 117.588 256.86C116.188 256.86 115.348 256.04 115.168 255.14H122.048V254.48C122.048 251.2 119.968 249.1 117.108 249.1C114.088 249.1 111.968 251.36 111.968 254.16C111.968 257.3 114.268 259.24 117.248 259.24ZM119.108 253.14H115.128C115.248 252.44 115.768 251.48 117.108 251.48C118.528 251.48 119.028 252.46 119.108 253.14ZM126.645 259V255.34H130.105V259H133.185V249.34H130.105V252.66H126.645V249.34H123.565V259H126.645ZM138.361 259L141.961 253.68V259H145.041V249.34H141.941L138.501 254.4V249.34H135.421V259H138.361ZM157.313 259V252.02H159.933V249.34H151.593V252.02H154.233V259H157.313ZM161.378 249.34V259H167.638C169.878 259 171.158 257.48 171.158 255.72C171.158 253.94 169.978 252.44 167.638 252.44H164.458V249.34H161.378ZM167.098 254.92C167.678 254.92 168.038 255.26 168.038 255.72C168.038 256.18 167.678 256.52 167.098 256.52H164.458V254.92H167.098ZM175.278 259V249.34H172.198V259H175.278ZM190.288 249.34H182.628V259H185.708V252.02H190.288V249.34ZM196.349 259.24C199.669 259.24 201.629 256.88 201.629 254.16C201.629 251.44 199.669 249.1 196.349 249.1C193.069 249.1 191.089 251.44 191.089 254.16C191.089 256.88 193.069 259.24 196.349 259.24ZM196.349 256.52C195.009 256.52 194.269 255.46 194.269 254.16C194.269 252.88 195.009 251.82 196.349 251.82C197.709 251.82 198.469 252.88 198.469 254.16C198.469 255.46 197.709 256.52 196.349 256.52ZM208.173 259V252.02H210.793V249.34H202.453V252.02H205.093V259H208.173ZM216.857 259.24C220.177 259.24 222.137 256.88 222.137 254.16C222.137 251.44 220.177 249.1 216.857 249.1C213.577 249.1 211.597 251.44 211.597 254.16C211.597 256.88 213.577 259.24 216.857 259.24ZM216.857 256.52C215.517 256.52 214.777 255.46 214.777 254.16C214.777 252.88 215.517 251.82 216.857 251.82C218.217 251.82 218.977 252.88 218.977 254.16C218.977 255.46 218.217 256.52 216.857 256.52ZM230.501 259C232.561 259 233.581 257.78 233.581 256.36C233.581 255.18 232.801 254.24 231.701 254.02C232.641 253.74 233.361 252.96 233.361 251.82C233.361 250.6 232.381 249.34 230.321 249.34H223.761V259H230.501ZM229.721 256.62H226.841V255.28H229.721C230.181 255.28 230.481 255.58 230.481 255.96C230.481 256.36 230.161 256.62 229.721 256.62ZM229.601 252.92H226.841V251.72H229.601C230.001 251.72 230.261 251.96 230.261 252.32C230.261 252.66 230.001 252.92 229.601 252.92ZM59.8595 287.76C60.1795 287.86 60.8995 287.92 61.1795 287.92C63.0195 287.88 64.4795 287.42 65.2595 285.38L69.6195 274.34H66.3595L64.1595 280.46L61.9795 274.34H58.7395L62.5795 284.14L62.3595 284.66C62.1995 285.06 61.7595 285.2 61.0595 285.2C60.8195 285.2 60.5195 285.14 60.2995 285.02L59.8595 287.76ZM69.7877 286.46H72.8677V284H78.1477V286.46H81.2277V281.32H80.1677V274.34H71.9077L71.2677 278.98C70.9877 281.08 70.5077 281.38 69.7877 281.44V286.46ZM74.5677 277.02H77.0877V281.32H73.3677C73.8677 280.8 74.1877 280.06 74.3077 279.08L74.5677 277.02ZM87.2971 284.24C88.7771 284.24 90.3771 283.82 91.3371 282.96L90.0371 281.04C89.4971 281.56 88.3171 281.86 87.6371 281.86C86.2371 281.86 85.3971 281.04 85.2171 280.14H92.0971V279.48C92.0971 276.2 90.0171 274.1 87.1571 274.1C84.1371 274.1 82.0171 276.36 82.0171 279.16C82.0171 282.3 84.3171 284.24 87.2971 284.24ZM89.1571 278.14H85.1771C85.2971 277.44 85.8171 276.48 87.1571 276.48C88.5771 276.48 89.0771 277.46 89.1571 278.14ZM92.8541 284.24C95.6941 284.24 96.9341 282.54 97.3341 279.38L97.6341 277.02H100.154V284H103.234V274.34H94.9741L94.3341 278.98C94.0541 281.08 93.5741 281.72 92.8541 281.72V284.24ZM108.65 284L110.27 280.9H111.97V284H115.05V274.34H108.79C106.55 274.34 105.27 275.86 105.27 277.62C105.27 279.4 106.37 280.32 107.29 280.64L105.21 284H108.65ZM109.33 278.42C108.75 278.42 108.39 278.08 108.39 277.62C108.39 277.16 108.77 276.82 109.33 276.82H111.97V278.42H109.33ZM122.147 284V277.02H124.767V274.34H116.427V277.02H119.067V284H122.147ZM126.212 274.34V284H132.472C134.712 284 135.992 282.48 135.992 280.72C135.992 278.94 134.812 277.44 132.472 277.44H129.292V274.34H126.212ZM131.932 279.92C132.512 279.92 132.872 280.26 132.872 280.72C132.872 281.18 132.512 281.52 131.932 281.52H129.292V279.92H131.932ZM147.336 284.24C150.656 284.24 152.616 281.88 152.616 279.16C152.616 276.44 150.656 274.1 147.336 274.1C144.056 274.1 142.076 276.44 142.076 279.16C142.076 281.88 144.056 284.24 147.336 284.24ZM147.336 281.52C145.996 281.52 145.256 280.46 145.256 279.16C145.256 277.88 145.996 276.82 147.336 276.82C148.696 276.82 149.456 277.88 149.456 279.16C149.456 280.46 148.696 281.52 147.336 281.52ZM158.859 281.52C157.519 281.52 156.779 280.46 156.779 279.14C156.779 277.88 157.519 276.82 158.859 276.82C160.219 276.82 160.979 277.88 160.979 279.14C160.979 280.46 160.219 281.52 158.859 281.52ZM158.859 284.24C162.199 284.24 164.139 281.86 164.139 279.14C164.139 276.46 162.359 274.1 159.599 274.1C158.299 274.1 157.259 274.56 156.479 275.52C156.759 274.48 157.599 273.64 159.839 273.32C161.399 273.1 163.779 272.54 163.779 270.66H160.459C160.459 270.96 159.919 271.2 158.779 271.38C155.379 271.86 153.619 274.02 153.619 278.72C153.619 281.86 155.559 284.24 158.859 284.24ZM165.582 287.76C165.902 287.86 166.622 287.92 166.902 287.92C168.742 287.88 170.202 287.42 170.982 285.38L175.342 274.34H172.082L169.882 280.46L167.702 274.34H164.462L168.302 284.14L168.082 284.66C167.922 285.06 167.482 285.2 166.782 285.2C166.542 285.2 166.242 285.14 166.022 285.02L165.582 287.76ZM176.03 274.34V278C176.03 280.04 177.03 281.3 179.67 281.3C180.95 281.3 181.97 280.98 182.57 280.62V284H185.63V274.34H182.57V278.18C182.19 278.4 181.67 278.58 180.81 278.58C179.71 278.58 179.11 278.18 179.11 277V274.34H176.03ZM192.531 284.24C194.011 284.24 195.611 283.82 196.571 282.96L195.271 281.04C194.731 281.56 193.551 281.86 192.871 281.86C191.471 281.86 190.631 281.04 190.451 280.14H197.331V279.48C197.331 276.2 195.251 274.1 192.391 274.1C189.371 274.1 187.251 276.36 187.251 279.16C187.251 282.3 189.551 284.24 192.531 284.24ZM194.391 278.14H190.411C190.531 277.44 191.051 276.48 192.391 276.48C193.811 276.48 194.311 277.46 194.391 278.14ZM201.929 284V280.34H205.389V284H208.469V274.34H205.389V277.66H201.929V274.34H198.849V284H201.929ZM213.644 284L217.244 278.68V284H220.324V274.34H217.224L213.784 279.4V274.34H210.704V284H213.644ZM232.299 284.24C235.619 284.24 237.579 281.88 237.579 279.16C237.579 276.44 235.619 274.1 232.299 274.1C229.619 274.1 227.839 275.64 227.239 277.66H225.639V274.34H222.559V284H225.639V280.34H227.159C227.639 282.54 229.479 284.24 232.299 284.24ZM232.299 281.52C230.959 281.52 230.199 280.46 230.199 279.16C230.199 277.88 230.959 276.82 232.299 276.82C233.659 276.82 234.419 277.88 234.419 279.16C234.419 280.46 233.659 281.52 232.299 281.52Z" fill="#223549"/>
<path d="M51.3173 577V563.66H38.8973V577H42.3373V566.66H47.8773V577H51.3173ZM58.2615 577.24C61.5815 577.24 63.5415 574.88 63.5415 572.16C63.5415 569.44 61.5815 567.1 58.2615 567.1C54.9815 567.1 53.0015 569.44 53.0015 572.16C53.0015 574.88 54.9815 577.24 58.2615 577.24ZM58.2615 574.52C56.9215 574.52 56.1815 573.46 56.1815 572.16C56.1815 570.88 56.9215 569.82 58.2615 569.82C59.6215 569.82 60.3815 570.88 60.3815 572.16C60.3815 573.46 59.6215 574.52 58.2615 574.52ZM64.4049 579.46H67.4849V577H72.7649V579.46H75.8449V574.32H74.7849V567.34H66.5249L65.8849 571.98C65.6049 574.08 65.1249 574.38 64.4049 574.44V579.46ZM69.1849 570.02H71.7049V574.32H67.9849C68.4849 573.8 68.8049 573.06 68.9249 572.08L69.1849 570.02ZM84.9343 567.34H77.2743V577H80.3543V570.02H84.9343V567.34ZM90.9959 577.24C94.3159 577.24 96.2759 574.88 96.2759 572.16C96.2759 569.44 94.3159 567.1 90.9959 567.1C87.7159 567.1 85.7359 569.44 85.7359 572.16C85.7359 574.88 87.7159 577.24 90.9959 577.24ZM90.9959 574.52C89.6559 574.52 88.9159 573.46 88.9159 572.16C88.9159 570.88 89.6559 569.82 90.9959 569.82C92.3559 569.82 93.1159 570.88 93.1159 572.16C93.1159 573.46 92.3559 574.52 90.9959 574.52ZM102.819 577V570.02H105.439V567.34H97.0993V570.02H99.7393V577H102.819ZM111.504 577.24C114.824 577.24 116.784 574.88 116.784 572.16C116.784 569.44 114.824 567.1 111.504 567.1C108.224 567.1 106.244 569.44 106.244 572.16C106.244 574.88 108.224 577.24 111.504 577.24ZM111.504 574.52C110.164 574.52 109.424 573.46 109.424 572.16C109.424 570.88 110.164 569.82 111.504 569.82C112.864 569.82 113.624 570.88 113.624 572.16C113.624 573.46 112.864 574.52 111.504 574.52ZM125.147 577C127.207 577 128.227 575.78 128.227 574.36C128.227 573.18 127.447 572.24 126.347 572.02C127.287 571.74 128.007 570.96 128.007 569.82C128.007 568.6 127.027 567.34 124.967 567.34H118.407V577H125.147ZM124.367 574.62H121.487V573.28H124.367C124.827 573.28 125.127 573.58 125.127 573.96C125.127 574.36 124.807 574.62 124.367 574.62ZM124.247 570.92H121.487V569.72H124.247C124.647 569.72 124.907 569.96 124.907 570.32C124.907 570.66 124.647 570.92 124.247 570.92ZM130.438 567.34V577H136.698C138.938 577 140.218 575.48 140.218 573.72C140.218 571.94 139.038 570.44 136.698 570.44H133.518V567.34H130.438ZM136.158 572.92C136.738 572.92 137.098 573.26 137.098 573.72C137.098 574.18 136.738 574.52 136.158 574.52H133.518V572.92H136.158ZM146.182 579.46H149.262V577H154.542V579.46H157.622V574.32H156.562V567.34H148.302L147.662 571.98C147.382 574.08 146.902 574.38 146.182 574.44V579.46ZM150.962 570.02H153.482V574.32H149.762C150.262 573.8 150.582 573.06 150.702 572.08L150.962 570.02ZM163.672 577.24C166.992 577.24 168.952 574.88 168.952 572.16C168.952 569.44 166.992 567.1 163.672 567.1C160.392 567.1 158.412 569.44 158.412 572.16C158.412 574.88 160.392 577.24 163.672 577.24ZM163.672 574.52C162.332 574.52 161.592 573.46 161.592 572.16C161.592 570.88 162.332 569.82 163.672 569.82C165.032 569.82 165.792 570.88 165.792 572.16C165.792 573.46 165.032 574.52 163.672 574.52ZM180.495 577L176.755 571.74L180.315 567.34H176.595L173.655 571.2V567.34H170.575V577H173.655V574.68L174.575 573.58L176.695 577H180.495ZM181.293 580.76C181.613 580.86 182.333 580.92 182.613 580.92C184.453 580.88 185.913 580.42 186.693 578.38L191.053 567.34H187.793L185.593 573.46L183.413 567.34H180.173L184.013 577.14L183.793 577.66C183.633 578.06 183.193 578.2 182.493 578.2C182.253 578.2 181.953 578.14 181.733 578.02L181.293 580.76ZM204.141 577V567.34H200.081L198.061 572.56L196.041 567.34H191.981V577H195.061V571.22L197.281 577H198.861L201.081 571.22V577H204.141ZM211.016 577.24C212.496 577.24 214.096 576.82 215.056 575.96L213.756 574.04C213.216 574.56 212.036 574.86 211.356 574.86C209.956 574.86 209.116 574.04 208.936 573.14H215.816V572.48C215.816 569.2 213.736 567.1 210.876 567.1C207.856 567.1 205.736 569.36 205.736 572.16C205.736 575.3 208.036 577.24 211.016 577.24ZM212.876 571.14H208.896C209.016 570.44 209.536 569.48 210.876 569.48C212.296 569.48 212.796 570.46 212.876 571.14ZM220.413 577V573.34H223.873V577H226.953V567.34H223.873V570.66H220.413V567.34H217.333V577H220.413ZM234.108 577V570.02H236.728V567.34H228.388V570.02H231.028V577H234.108ZM238.173 567.34V577H244.433C246.673 577 247.953 575.48 247.953 573.72C247.953 571.94 246.773 570.44 244.433 570.44H241.253V567.34H238.173ZM243.893 572.92C244.473 572.92 244.833 573.26 244.833 573.72C244.833 574.18 244.473 574.52 243.893 574.52H241.253V572.92H243.893ZM252.073 577V567.34H248.993V577H252.073ZM73.1147 602L76.7147 596.68V602H79.7947V592.34H76.6947L73.2547 597.4V592.34H70.1747V602H73.1147ZM91.7673 602.24C95.0873 602.24 97.0473 599.88 97.0473 597.16C97.0473 594.44 95.0873 592.1 91.7673 592.1C88.4873 592.1 86.5073 594.44 86.5073 597.16C86.5073 599.88 88.4873 602.24 91.7673 602.24ZM91.7673 599.52C90.4273 599.52 89.6873 598.46 89.6873 597.16C89.6873 595.88 90.4273 594.82 91.7673 594.82C93.1273 594.82 93.8873 595.88 93.8873 597.16C93.8873 598.46 93.1273 599.52 91.7673 599.52ZM108.291 602V592.34H98.6708V602H101.751V595.02H105.211V602H108.291ZM116.466 602.24C118.886 602.24 120.706 600.44 120.706 597.16C120.706 593.9 118.886 592.1 116.466 592.1C115.366 592.1 114.366 592.54 113.606 593.46V592.34H110.526V605.68H113.606V600.86C114.406 601.82 115.386 602.24 116.466 602.24ZM115.446 599.52C114.786 599.52 113.986 599.14 113.606 598.64V595.7C113.986 595.18 114.786 594.82 115.446 594.82C116.646 594.82 117.566 595.72 117.566 597.16C117.566 598.62 116.646 599.52 115.446 599.52ZM126.944 602.24C128.424 602.24 130.024 601.82 130.984 600.96L129.684 599.04C129.144 599.56 127.964 599.86 127.284 599.86C125.884 599.86 125.044 599.04 124.864 598.14H131.744V597.48C131.744 594.2 129.664 592.1 126.804 592.1C123.784 592.1 121.664 594.36 121.664 597.16C121.664 600.3 123.964 602.24 126.944 602.24ZM128.804 596.14H124.824C124.944 595.44 125.464 594.48 126.804 594.48C128.224 594.48 128.724 595.46 128.804 596.14ZM132.501 604.46H135.581V602H140.861V604.46H143.941V599.32H142.881V592.34H134.621L133.981 596.98C133.701 599.08 133.221 599.38 132.501 599.44V604.46ZM137.281 595.02H139.801V599.32H136.081C136.581 598.8 136.901 598.06 137.021 597.08L137.281 595.02ZM150.01 602.24C151.49 602.24 153.09 601.82 154.05 600.96L152.75 599.04C152.21 599.56 151.03 599.86 150.35 599.86C148.95 599.86 148.11 599.04 147.93 598.14H154.81V597.48C154.81 594.2 152.73 592.1 149.87 592.1C146.85 592.1 144.73 594.36 144.73 597.16C144.73 600.3 147.03 602.24 150.01 602.24ZM151.87 596.14H147.89C148.01 595.44 148.53 594.48 149.87 594.48C151.29 594.48 151.79 595.46 151.87 596.14ZM155.567 602.24C158.407 602.24 159.647 600.54 160.047 597.38L160.347 595.02H162.867V602H165.947V592.34H157.687L157.047 596.98C156.767 599.08 156.287 599.72 155.567 599.72V602.24ZM171.123 602L174.723 596.68V602H177.803V592.34H174.703L171.263 597.4V592.34H168.183V602H171.123ZM184.678 602.24C186.758 602.24 188.058 601.3 188.638 600.46L186.638 598.58C186.258 599.12 185.638 599.52 184.818 599.52C183.538 599.52 182.558 598.62 182.558 597.16C182.558 595.7 183.538 594.82 184.818 594.82C185.638 594.82 186.258 595.18 186.638 595.74L188.638 593.88C188.058 593.02 186.758 592.1 184.678 592.1C181.658 592.1 179.398 594.14 179.398 597.16C179.398 600.2 181.658 602.24 184.678 602.24ZM190.038 592.34V602H196.298C198.538 602 199.818 600.48 199.818 598.72C199.818 596.94 198.638 595.44 196.298 595.44H193.118V592.34H190.038ZM195.758 597.92C196.338 597.92 196.698 598.26 196.698 598.72C196.698 599.18 196.338 599.52 195.758 599.52H193.118V597.92H195.758ZM211.182 602.24C213.262 602.24 214.562 601.3 215.142 600.46L213.142 598.58C212.762 599.12 212.142 599.52 211.322 599.52C210.042 599.52 209.062 598.62 209.062 597.16C209.062 595.7 210.042 594.82 211.322 594.82C212.142 594.82 212.762 595.18 213.142 595.74L215.142 593.88C214.562 593.02 213.262 592.1 211.182 592.1C208.162 592.1 205.902 594.14 205.902 597.16C205.902 600.2 208.162 602.24 211.182 602.24ZM221.162 602.24C224.482 602.24 226.442 599.88 226.442 597.16C226.442 594.44 224.482 592.1 221.162 592.1C217.882 592.1 215.902 594.44 215.902 597.16C215.902 599.88 217.882 602.24 221.162 602.24ZM221.162 599.52C219.822 599.52 219.082 598.46 219.082 597.16C219.082 595.88 219.822 594.82 221.162 594.82C222.522 594.82 223.282 595.88 223.282 597.16C223.282 598.46 222.522 599.52 221.162 599.52ZM69.3362 627.24C71.4162 627.24 72.7162 626.3 73.2962 625.46L71.2962 623.58C70.9162 624.12 70.2962 624.52 69.4762 624.52C68.1962 624.52 67.2162 623.62 67.2162 622.16C67.2162 620.7 68.1962 619.82 69.4762 619.82C70.2962 619.82 70.9162 620.18 71.2962 620.74L73.2962 618.88C72.7162 618.02 71.4162 617.1 69.3362 617.1C66.3162 617.1 64.0562 619.14 64.0562 622.16C64.0562 625.2 66.3162 627.24 69.3362 627.24ZM84.3162 627V617.34H74.6962V627H77.7762V620.02H81.2362V627H84.3162ZM91.1716 627.24C94.4916 627.24 96.4516 624.88 96.4516 622.16C96.4516 619.44 94.4916 617.1 91.1716 617.1C87.8916 617.1 85.9116 619.44 85.9116 622.16C85.9116 624.88 87.8916 627.24 91.1716 627.24ZM91.1716 624.52C89.8316 624.52 89.0916 623.46 89.0916 622.16C89.0916 620.88 89.8316 619.82 91.1716 619.82C92.5316 619.82 93.2916 620.88 93.2916 622.16C93.2916 623.46 92.5316 624.52 91.1716 624.52ZM102.715 627.24C104.795 627.24 106.095 626.3 106.675 625.46L104.675 623.58C104.295 624.12 103.675 624.52 102.855 624.52C101.575 624.52 100.595 623.62 100.595 622.16C100.595 620.7 101.575 619.82 102.855 619.82C103.675 619.82 104.295 620.18 104.675 620.74L106.675 618.88C106.095 618.02 104.795 617.1 102.715 617.1C99.6951 617.1 97.4351 619.14 97.4351 622.16C97.4351 625.2 99.6951 627.24 102.715 627.24ZM112.695 627.24C116.015 627.24 117.975 624.88 117.975 622.16C117.975 619.44 116.015 617.1 112.695 617.1C109.415 617.1 107.435 619.44 107.435 622.16C107.435 624.88 109.415 627.24 112.695 627.24ZM112.695 624.52C111.355 624.52 110.615 623.46 110.615 622.16C110.615 620.88 111.355 619.82 112.695 619.82C114.055 619.82 114.815 620.88 114.815 622.16C114.815 623.46 114.055 624.52 112.695 624.52ZM124.219 624.52C122.879 624.52 122.139 623.46 122.139 622.14C122.139 620.88 122.879 619.82 124.219 619.82C125.579 619.82 126.339 620.88 126.339 622.14C126.339 623.46 125.579 624.52 124.219 624.52ZM124.219 627.24C127.559 627.24 129.499 624.86 129.499 622.14C129.499 619.46 127.719 617.1 124.959 617.1C123.659 617.1 122.619 617.56 121.839 618.52C122.119 617.48 122.959 616.64 125.199 616.32C126.759 616.1 129.139 615.54 129.139 613.66H125.819C125.819 613.96 125.279 614.2 124.139 614.38C120.739 614.86 118.979 617.02 118.979 621.72C118.979 624.86 120.919 627.24 124.219 627.24ZM135.761 627.24C139.081 627.24 141.041 624.88 141.041 622.16C141.041 619.44 139.081 617.1 135.761 617.1C132.481 617.1 130.501 619.44 130.501 622.16C130.501 624.88 132.481 627.24 135.761 627.24ZM135.761 624.52C134.421 624.52 133.681 623.46 133.681 622.16C133.681 620.88 134.421 619.82 135.761 619.82C137.121 619.82 137.881 620.88 137.881 622.16C137.881 623.46 137.121 624.52 135.761 624.52ZM154.825 627V617.34H150.765L148.745 622.56L146.725 617.34H142.665V627H145.745V621.22L147.965 627H149.545L151.765 621.22V627H154.825ZM166.797 627.24C170.117 627.24 172.077 624.88 172.077 622.16C172.077 619.44 170.117 617.1 166.797 617.1C163.517 617.1 161.537 619.44 161.537 622.16C161.537 624.88 163.517 627.24 166.797 627.24ZM166.797 624.52C165.457 624.52 164.717 623.46 164.717 622.16C164.717 620.88 165.457 619.82 166.797 619.82C168.157 619.82 168.917 620.88 168.917 622.16C168.917 623.46 168.157 624.52 166.797 624.52ZM183.32 627V617.34H173.7V627H176.78V620.02H180.24V627H183.32ZM184.796 627.24C187.636 627.24 188.876 625.54 189.276 622.38L189.576 620.02H192.096V627H195.176V617.34H186.916L186.276 621.98C185.996 624.08 185.516 624.72 184.796 624.72V627.24ZM206.191 627V620.96C206.191 617.96 204.011 617.1 201.691 617.1C200.211 617.1 198.551 617.54 197.311 618.6L198.411 620.54C199.191 619.88 200.191 619.52 201.151 619.52C202.391 619.52 203.111 620.08 203.111 620.92V622.08C202.531 621.36 201.391 620.96 200.111 620.96C198.631 620.96 196.791 621.72 196.791 624.06C196.791 626.24 198.631 627.24 200.111 627.24C201.351 627.24 202.511 626.76 203.111 626.04V627H206.191ZM201.391 625.22C200.571 625.22 199.851 624.86 199.851 624.1C199.851 623.34 200.571 622.98 201.391 622.98C202.071 622.98 202.791 623.22 203.111 623.66V624.52C202.791 624.98 202.071 625.22 201.391 625.22ZM213.347 627V620.02H215.967V617.34H207.627V620.02H210.267V627H213.347ZM217.411 617.34V627H223.671C225.911 627 227.191 625.48 227.191 623.72C227.191 621.94 226.011 620.44 223.671 620.44H220.491V617.34H217.411ZM223.131 622.92C223.711 622.92 224.071 623.26 224.071 623.72C224.071 624.18 223.711 624.52 223.131 624.52H220.491V622.92H223.131ZM231.311 627V617.34H228.231V627H231.311Z" fill="#223549"/>
<path d="M81.5145 736V722.66H69.0945V736H72.5345V725.66H78.0745V736H81.5145ZM88.4588 736.24C91.7788 736.24 93.7387 733.88 93.7387 731.16C93.7387 728.44 91.7788 726.1 88.4588 726.1C85.1788 726.1 83.1988 728.44 83.1988 731.16C83.1988 733.88 85.1788 736.24 88.4588 736.24ZM88.4588 733.52C87.1188 733.52 86.3788 732.46 86.3788 731.16C86.3788 729.88 87.1188 728.82 88.4588 728.82C89.8188 728.82 90.5788 729.88 90.5788 731.16C90.5788 732.46 89.8188 733.52 88.4588 733.52ZM103.022 726.34H95.3622V736H98.4422V729.02H103.022V726.34ZM110.404 736.24C112.824 736.24 114.644 734.44 114.644 731.16C114.644 727.9 112.824 726.1 110.404 726.1C109.304 726.1 108.304 726.54 107.544 727.46V726.34H104.464V739.68H107.544V734.86C108.344 735.82 109.324 736.24 110.404 736.24ZM109.384 733.52C108.724 733.52 107.924 733.14 107.544 732.64V729.7C107.924 729.18 108.724 728.82 109.384 728.82C110.584 728.82 111.504 729.72 111.504 731.16C111.504 732.62 110.584 733.52 109.384 733.52ZM116.041 739.76C116.361 739.86 117.081 739.92 117.361 739.92C119.201 739.88 120.661 739.42 121.441 737.38L125.801 726.34H122.541L120.341 732.46L118.161 726.34H114.921L118.761 736.14L118.541 736.66C118.381 737.06 117.941 737.2 117.241 737.2C117.001 737.2 116.701 737.14 116.481 737.02L116.041 739.76ZM130.309 736.24C133.249 736.22 135.109 735.04 135.089 733.32C135.089 731.92 133.609 731.12 132.409 731.04C133.749 730.82 134.909 729.92 134.909 728.8C134.889 727.16 133.249 726.1 130.049 726.12C128.289 726.12 126.829 726.78 125.869 727.74L127.349 729.5C128.069 728.82 129.029 728.46 130.209 728.46C131.109 728.46 131.729 728.76 131.729 729.18C131.729 729.68 131.349 729.98 130.169 729.98H128.269V732.28H130.169C131.309 732.28 131.909 732.58 131.909 733.12C131.909 733.58 131.409 733.88 130.309 733.88C129.309 733.88 128.029 733.56 127.129 732.88L125.749 734.7C126.689 735.6 128.289 736.24 130.309 736.24ZM139.63 736L143.23 730.68V736H146.31V726.34H143.21L139.77 731.4V726.34H136.69V736H139.63ZM153.186 736.24C155.266 736.24 156.566 735.3 157.146 734.46L155.146 732.58C154.766 733.12 154.146 733.52 153.326 733.52C152.046 733.52 151.066 732.62 151.066 731.16C151.066 729.7 152.046 728.82 153.326 728.82C154.146 728.82 154.766 729.18 155.146 729.74L157.146 727.88C156.566 727.02 155.266 726.1 153.186 726.1C150.166 726.1 147.906 728.14 147.906 731.16C147.906 734.2 150.166 736.24 153.186 736.24ZM158.546 726.34V736H164.806C167.046 736 168.326 734.48 168.326 732.72C168.326 730.94 167.146 729.44 164.806 729.44H161.626V726.34H158.546ZM164.266 731.92C164.846 731.92 165.206 732.26 165.206 732.72C165.206 733.18 164.846 733.52 164.266 733.52H161.626V731.92H164.266ZM181.79 736C183.85 736 184.87 734.78 184.87 733.36C184.87 732.18 184.09 731.24 182.99 731.02C183.93 730.74 184.65 729.96 184.65 728.82C184.65 727.6 183.67 726.34 181.61 726.34H175.05V736H181.79ZM181.01 733.62H178.13V732.28H181.01C181.47 732.28 181.77 732.58 181.77 732.96C181.77 733.36 181.45 733.62 181.01 733.62ZM180.89 729.92H178.13V728.72H180.89C181.29 728.72 181.55 728.96 181.55 729.32C181.55 729.66 181.29 729.92 180.89 729.92ZM204.358 736V726.34H200.298L198.278 731.56L196.258 726.34H192.198V736H195.278V730.22L197.498 736H199.078L201.298 730.22V736H204.358ZM209.533 736L213.133 730.68V736H216.213V726.34H213.113L209.673 731.4V726.34H206.593V736H209.533ZM224.388 736.24C226.808 736.24 228.628 734.44 228.628 731.16C228.628 727.9 226.808 726.1 224.388 726.1C223.288 726.1 222.288 726.54 221.528 727.46V726.34H218.448V739.68H221.528V734.86C222.328 735.82 223.308 736.24 224.388 736.24ZM223.368 733.52C222.708 733.52 221.908 733.14 221.528 732.64V729.7C221.908 729.18 222.708 728.82 223.368 728.82C224.568 728.82 225.488 729.72 225.488 731.16C225.488 732.62 224.568 733.52 223.368 733.52ZM103.362 761V751.34H99.302L97.282 756.56L95.262 751.34H91.202V761H94.282V755.22L96.502 761H98.082L100.302 755.22V761H103.362ZM114.377 761V754.96C114.377 751.96 112.197 751.1 109.877 751.1C108.397 751.1 106.737 751.54 105.497 752.6L106.597 754.54C107.377 753.88 108.377 753.52 109.337 753.52C110.577 753.52 111.297 754.08 111.297 754.92V756.08C110.717 755.36 109.577 754.96 108.297 754.96C106.817 754.96 104.977 755.72 104.977 758.06C104.977 760.24 106.817 761.24 108.297 761.24C109.537 761.24 110.697 760.76 111.297 760.04V761H114.377ZM109.577 759.22C108.757 759.22 108.037 758.86 108.037 758.1C108.037 757.34 108.757 756.98 109.577 756.98C110.257 756.98 110.977 757.22 111.297 757.66V758.52C110.977 758.98 110.257 759.22 109.577 759.22ZM122.552 761.24C124.972 761.24 126.792 759.44 126.792 756.16C126.792 752.9 124.972 751.1 122.552 751.1C121.452 751.1 120.452 751.54 119.692 752.46V751.34H116.612V764.68H119.692V759.86C120.492 760.82 121.472 761.24 122.552 761.24ZM121.532 758.52C120.872 758.52 120.072 758.14 119.692 757.64V754.7C120.072 754.18 120.872 753.82 121.532 753.82C122.732 753.82 123.652 754.72 123.652 756.16C123.652 757.62 122.732 758.52 121.532 758.52ZM138.31 761L134.57 755.74L138.13 751.34H134.41L131.47 755.2V751.34H128.39V761H131.47V758.68L132.39 757.58L134.51 761H138.31ZM143.791 761.24C145.271 761.24 146.871 760.82 147.831 759.96L146.531 758.04C145.991 758.56 144.811 758.86 144.131 758.86C142.731 758.86 141.891 758.04 141.711 757.14H148.591V756.48C148.591 753.2 146.511 751.1 143.651 751.1C140.631 751.1 138.511 753.36 138.511 756.16C138.511 759.3 140.811 761.24 143.791 761.24ZM145.651 755.14H141.671C141.791 754.44 142.311 753.48 143.651 753.48C145.071 753.48 145.571 754.46 145.651 755.14ZM155.028 761V754.02H157.648V751.34H149.308V754.02H151.948V761H155.028ZM162.033 761L165.633 755.68V761H168.713V751.34H165.613L162.173 756.4V751.34H159.093V761H162.033ZM174.028 761V757.34H177.488V761H180.568V751.34H177.488V754.66H174.028V751.34H170.948V761H174.028ZM190.464 751.34H182.804V761H185.884V754.02H190.464V751.34ZM200.685 761V754.96C200.685 751.96 198.505 751.1 196.185 751.1C194.705 751.1 193.045 751.54 191.805 752.6L192.905 754.54C193.685 753.88 194.685 753.52 195.645 753.52C196.885 753.52 197.605 754.08 197.605 754.92V756.08C197.025 755.36 195.885 754.96 194.605 754.96C193.125 754.96 191.285 755.72 191.285 758.06C191.285 760.24 193.125 761.24 194.605 761.24C195.845 761.24 197.005 760.76 197.605 760.04V761H200.685ZM195.885 759.22C195.065 759.22 194.345 758.86 194.345 758.1C194.345 757.34 195.065 756.98 195.885 756.98C196.565 756.98 197.285 757.22 197.605 757.66V758.52C197.285 758.98 196.565 759.22 195.885 759.22ZM68.1658 786V776.34H58.5458V786H61.6258V779.02H65.0858V786H68.1658ZM76.3413 786.24C78.7613 786.24 80.5812 784.44 80.5812 781.16C80.5812 777.9 78.7613 776.1 76.3413 776.1C75.2413 776.1 74.2413 776.54 73.4813 777.46V776.34H70.4013V789.68H73.4813V784.86C74.2812 785.82 75.2613 786.24 76.3413 786.24ZM75.3213 783.52C74.6613 783.52 73.8613 783.14 73.4813 782.64V779.7C73.8613 779.18 74.6613 778.82 75.3213 778.82C76.5213 778.82 77.4413 779.72 77.4413 781.16C77.4413 782.62 76.5213 783.52 75.3213 783.52ZM85.1186 786L88.7186 780.68V786H91.7986V776.34H88.6986L85.2586 781.4V776.34H82.1786V786H85.1186ZM108.771 786V776.34H99.1513V786H102.231V779.02H105.691V786H108.771ZM115.627 786.24C118.947 786.24 120.907 783.88 120.907 781.16C120.907 778.44 118.947 776.1 115.627 776.1C112.347 776.1 110.367 778.44 110.367 781.16C110.367 783.88 112.347 786.24 115.627 786.24ZM115.627 783.52C114.287 783.52 113.547 782.46 113.547 781.16C113.547 779.88 114.287 778.82 115.627 778.82C116.987 778.82 117.747 779.88 117.747 781.16C117.747 782.46 116.987 783.52 115.627 783.52ZM134.69 786V776.34H130.63L128.61 781.56L126.59 776.34H122.53V786H125.61V780.22L127.83 786H129.41L131.63 780.22V786H134.69ZM141.545 786.24C144.865 786.24 146.825 783.88 146.825 781.16C146.825 778.44 144.865 776.1 141.545 776.1C138.265 776.1 136.285 778.44 136.285 781.16C136.285 783.88 138.265 786.24 141.545 786.24ZM141.545 783.52C140.205 783.52 139.465 782.46 139.465 781.16C139.465 779.88 140.205 778.82 141.545 778.82C142.905 778.82 143.665 779.88 143.665 781.16C143.665 782.46 142.905 783.52 141.545 783.52ZM160.308 776.34V783.32H157.468V776.34H154.388V783.32H151.528V776.34H148.448V786H161.448V788.46H164.508V783.32H163.388V776.34H160.308ZM168.869 786L172.469 780.68V786H175.549V776.34H172.449L169.009 781.4V776.34H165.929V786H168.869ZM198.121 786V772.66H193.341L190.541 779.9L187.761 772.66H182.981V786H186.421V777.32L189.781 786H191.301L194.681 777.32V786H198.121ZM213.48 786L208.44 772.66H204.12L199.1 786H203L203.66 784.08H208.92L209.58 786H213.48ZM207.98 781.08H204.58L206.28 776.06L207.98 781.08ZM224.246 786V783H217.906V780.74H224.106V777.74H217.906V775.66H224.246V772.66H214.466V786H224.246ZM231.863 786C236.043 786 239.063 783.46 239.063 779.32C239.063 775.18 236.043 772.66 231.843 772.66H226.243V786H231.863ZM231.843 783H229.683V775.66H231.863C234.303 775.66 235.543 777.26 235.543 779.32C235.543 781.3 234.183 783 231.843 783Z" fill="#223549"/>
<path d="M29.2226 907.42C33.5276 907.42 35.8726 905.285 37.3426 902.415L46.8276 883.655H40.0376L34.9626 894.575L29.9226 883.655H23.1326L31.5676 900.35C30.8676 901.54 30.2026 902.1 28.6976 902.1C27.5426 902.1 26.4926 901.54 25.6876 900.945L23.3076 905.635C24.7426 906.79 26.9826 907.42 29.2226 907.42ZM56.5855 907.42C60.8205 907.42 64.0055 904.27 64.0055 898.53C64.0055 892.825 60.8205 889.675 56.5855 889.675C54.6605 889.675 52.9105 890.445 51.5805 892.055V890.095H46.1905V913.44H51.5805V905.005C52.9805 906.685 54.6955 907.42 56.5855 907.42ZM54.8005 902.66C53.6455 902.66 52.2455 901.995 51.5805 901.12V895.975C52.2455 895.065 53.6455 894.435 54.8005 894.435C56.9005 894.435 58.5105 896.01 58.5105 898.53C58.5105 901.085 56.9005 902.66 54.8005 902.66ZM82.1658 907V896.43C82.1658 891.18 78.3508 889.675 74.2908 889.675C71.7008 889.675 68.7958 890.445 66.6258 892.3L68.5508 895.695C69.9158 894.54 71.6658 893.91 73.3458 893.91C75.5158 893.91 76.7758 894.89 76.7758 896.36V898.39C75.7608 897.13 73.7658 896.43 71.5258 896.43C68.9358 896.43 65.7158 897.76 65.7158 901.855C65.7158 905.67 68.9358 907.42 71.5258 907.42C73.6958 907.42 75.7258 906.58 76.7758 905.32V907H82.1658ZM73.7658 903.885C72.3308 903.885 71.0708 903.255 71.0708 901.925C71.0708 900.595 72.3308 899.965 73.7658 899.965C74.9558 899.965 76.2158 900.385 76.7758 901.155V902.66C76.2158 903.465 74.9558 903.885 73.7658 903.885ZM91.2232 898.845L92.0282 883.655H85.5882L86.4282 898.845H91.2232ZM88.8082 907.385C90.5932 907.385 92.0982 905.88 92.0982 904.13C92.0982 902.345 90.5932 900.84 88.8082 900.84C87.0232 900.84 85.5532 902.345 85.5532 904.13C85.5532 905.88 87.0232 907.385 88.8082 907.385ZM115.773 907V888.905H122.283V883.655H103.208V888.905H109.753V907H115.773ZM130.018 907.42C132.608 907.42 135.408 906.685 137.088 905.18L134.813 901.82C133.868 902.73 131.803 903.255 130.613 903.255C128.163 903.255 126.693 901.82 126.378 900.245H138.418V899.09C138.418 893.35 134.778 889.675 129.773 889.675C124.488 889.675 120.778 893.63 120.778 898.53C120.778 904.025 124.803 907.42 130.018 907.42ZM133.273 896.745H126.308C126.518 895.52 127.428 893.84 129.773 893.84C132.258 893.84 133.133 895.555 133.273 896.745ZM157.908 907V890.095H141.073V907H146.463V894.785H152.518V907H157.908ZM169.94 907.42C172.53 907.42 175.33 906.685 177.01 905.18L174.735 901.82C173.79 902.73 171.725 903.255 170.535 903.255C168.085 903.255 166.615 901.82 166.3 900.245H178.34V899.09C178.34 893.35 174.7 889.675 169.695 889.675C164.41 889.675 160.7 893.63 160.7 898.53C160.7 904.025 164.725 907.42 169.94 907.42ZM173.195 896.745H166.23C166.44 895.52 167.35 893.84 169.695 893.84C172.18 893.84 173.055 895.555 173.195 896.745ZM191.39 907.42C195.625 907.42 198.81 904.27 198.81 898.53C198.81 892.825 195.625 889.675 191.39 889.675C189.465 889.675 187.715 890.445 186.385 892.055V890.095H180.995V913.44H186.385V905.005C187.785 906.685 189.5 907.42 191.39 907.42ZM189.605 902.66C188.45 902.66 187.05 901.995 186.385 901.12V895.975C187.05 895.065 188.45 894.435 189.605 894.435C191.705 894.435 193.315 896.01 193.315 898.53C193.315 901.085 191.705 902.66 189.605 902.66ZM201.606 890.095V907H212.561C216.481 907 218.721 904.34 218.721 901.26C218.721 898.145 216.656 895.52 212.561 895.52H206.996V890.095H201.606ZM211.616 899.86C212.631 899.86 213.261 900.455 213.261 901.26C213.261 902.065 212.631 902.66 211.616 902.66H206.996V899.86H211.616ZM239.097 907V894.785H243.682V890.095H229.087V894.785H233.707V907H239.097ZM246.21 890.095V907H257.165C261.085 907 263.325 904.34 263.325 901.26C263.325 898.145 261.26 895.52 257.165 895.52H251.6V890.095H246.21ZM256.22 899.86C257.235 899.86 257.865 900.455 257.865 901.26C257.865 902.065 257.235 902.66 256.22 902.66H251.6V899.86H256.22ZM270.535 907V890.095H265.145V907H270.535ZM37.442 947V930.095H20.607V947H25.997V934.785H32.052V947H37.442ZM49.439 947.42C55.249 947.42 58.679 943.29 58.679 938.53C58.679 933.77 55.249 929.675 49.439 929.675C43.699 929.675 40.234 933.77 40.234 938.53C40.234 943.29 43.699 947.42 49.439 947.42ZM49.439 942.66C47.094 942.66 45.799 940.805 45.799 938.53C45.799 936.29 47.094 934.435 49.439 934.435C51.819 934.435 53.149 936.29 53.149 938.53C53.149 940.805 51.819 942.66 49.439 942.66ZM69.0101 940.77V936.255H60.6101V940.77H69.0101ZM77.4032 947V940.595H83.4582V947H88.8482V930.095H83.4582V935.905H77.4032V930.095H72.0132V947H77.4032ZM108.125 947V936.43C108.125 931.18 104.31 929.675 100.25 929.675C97.6603 929.675 94.7553 930.445 92.5853 932.3L94.5103 935.695C95.8753 934.54 97.6253 933.91 99.3053 933.91C101.475 933.91 102.735 934.89 102.735 936.36V938.39C101.72 937.13 99.7253 936.43 97.4853 936.43C94.8953 936.43 91.6753 937.76 91.6753 941.855C91.6753 945.67 94.8953 947.42 97.4853 947.42C99.6553 947.42 101.685 946.58 102.735 945.32V947H108.125ZM99.7253 943.885C98.2903 943.885 97.0303 943.255 97.0303 941.925C97.0303 940.595 98.2903 939.965 99.7253 939.965C100.915 939.965 102.175 940.385 102.735 941.155V942.66C102.175 943.465 100.915 943.885 99.7253 943.885ZM120.158 947.42C123.798 947.42 126.073 945.775 127.088 944.305L123.588 941.015C122.923 941.96 121.838 942.66 120.403 942.66C118.163 942.66 116.448 941.085 116.448 938.53C116.448 935.975 118.163 934.435 120.403 934.435C121.838 934.435 122.923 935.065 123.588 936.045L127.088 932.79C126.073 931.285 123.798 929.675 120.158 929.675C114.873 929.675 110.918 933.245 110.918 938.53C110.918 943.85 114.873 947.42 120.158 947.42ZM138.148 947V934.785H142.733V930.095H128.138V934.785H132.758V947H138.148ZM153.345 947.42C159.155 947.42 162.585 943.29 162.585 938.53C162.585 933.77 159.155 929.675 153.345 929.675C147.605 929.675 144.14 933.77 144.14 938.53C144.14 943.29 147.605 947.42 153.345 947.42ZM153.345 942.66C151 942.66 149.705 940.805 149.705 938.53C149.705 936.29 151 934.435 153.345 934.435C155.725 934.435 157.055 936.29 157.055 938.53C157.055 940.805 155.725 942.66 153.345 942.66ZM170.991 947L173.826 941.575H176.801V947H182.191V930.095H171.236C167.316 930.095 165.076 932.755 165.076 935.835C165.076 938.95 167.001 940.56 168.611 941.12L164.971 947H170.991ZM172.181 937.235C171.166 937.235 170.536 936.64 170.536 935.835C170.536 935.03 171.201 934.435 172.181 934.435H176.801V937.235H172.181ZM206.757 930.095V942.31H201.787V930.095H196.397V942.31H191.392V930.095H186.002V947H208.752V951.305H214.107V942.31H212.147V930.095H206.757ZM224.713 947.42C227.303 947.42 230.103 946.685 231.783 945.18L229.508 941.82C228.563 942.73 226.498 943.255 225.308 943.255C222.858 943.255 221.388 941.82 221.073 940.245H233.113V939.09C233.113 933.35 229.473 929.675 224.468 929.675C219.183 929.675 215.473 933.63 215.473 938.53C215.473 944.025 219.498 947.42 224.713 947.42ZM227.968 936.745H221.003C221.213 935.52 222.123 933.84 224.468 933.84C226.953 933.84 227.828 935.555 227.968 936.745ZM257.048 947V930.095H249.943L246.408 939.23L242.873 930.095H235.768V947H241.158V936.885L245.043 947H247.808L251.693 936.885V947H257.048ZM260.609 953.58C261.169 953.755 262.429 953.86 262.919 953.86C266.139 953.79 268.694 952.985 270.059 949.415L277.689 930.095H271.984L268.134 940.805L264.319 930.095H258.649L265.369 947.245L264.984 948.155C264.704 948.855 263.934 949.1 262.709 949.1C262.289 949.1 261.764 948.995 261.379 948.785L260.609 953.58ZM48.1118 970.095V976.5C48.1118 980.07 49.8618 982.275 54.4818 982.275C56.7218 982.275 58.5068 981.715 59.5568 981.085V987H64.9118V970.095H59.5568V976.815C58.8918 977.2 57.9818 977.515 56.4768 977.515C54.5518 977.515 53.5018 976.815 53.5018 974.75V970.095H48.1118ZM84.2337 987V976.43C84.2337 971.18 80.4187 969.675 76.3587 969.675C73.7687 969.675 70.8637 970.445 68.6937 972.3L70.6187 975.695C71.9837 974.54 73.7337 973.91 75.4137 973.91C77.5837 973.91 78.8437 974.89 78.8437 976.36V978.39C77.8287 977.13 75.8337 976.43 73.5937 976.43C71.0037 976.43 67.7837 977.76 67.7837 981.855C67.7837 985.67 71.0037 987.42 73.5937 987.42C75.7637 987.42 77.7937 986.58 78.8437 985.32V987H84.2337ZM75.8337 983.885C74.3987 983.885 73.1387 983.255 73.1387 981.925C73.1387 980.595 74.3987 979.965 75.8337 979.965C77.0237 979.965 78.2837 980.385 78.8437 981.155V982.66C78.2837 983.465 77.0237 983.885 75.8337 983.885ZM96.266 987.42C99.906 987.42 102.181 985.775 103.196 984.305L99.696 981.015C99.031 981.96 97.946 982.66 96.511 982.66C94.271 982.66 92.556 981.085 92.556 978.53C92.556 975.975 94.271 974.435 96.511 974.435C97.946 974.435 99.031 975.065 99.696 976.045L103.196 972.79C102.181 971.285 99.906 969.675 96.266 969.675C90.981 969.675 87.026 973.245 87.026 978.53C87.026 983.85 90.981 987.42 96.266 987.42ZM114.256 987V974.785H118.841V970.095H104.246V974.785H108.866V987H114.256ZM121.369 970.095V987H132.324C136.244 987 138.484 984.34 138.484 981.26C138.484 978.145 136.419 975.52 132.324 975.52H126.759V970.095H121.369ZM131.379 979.86C132.394 979.86 133.024 980.455 133.024 981.26C133.024 982.065 132.394 982.66 131.379 982.66H126.759V979.86H131.379ZM176.886 987V963.655H168.521L163.621 976.325L158.756 963.655H150.391V987H156.411V971.81L162.291 987H164.951L170.866 971.81V987H176.886ZM203.764 987L194.944 963.655H187.384L178.599 987H185.424L186.579 983.64H195.784L196.939 987H203.764ZM194.139 978.39H188.189L191.164 969.605L194.139 978.39ZM222.603 987V981.75H211.508V977.795H222.358V972.545H211.508V968.905H222.603V963.655H205.488V987H222.603ZM235.934 987C243.249 987 248.534 982.555 248.534 975.31C248.534 968.065 243.249 963.655 235.899 963.655H226.099V987H235.934ZM235.899 981.75H232.119V968.905H235.934C240.204 968.905 242.374 971.705 242.374 975.31C242.374 978.775 239.994 981.75 235.899 981.75Z" fill="#223549"/>
<circle cx="148" cy="173" r="15" fill="#F7C154"/>
<path d="M149.966 179V166.994H147.284L143.09 171.134L144.854 172.988L146.87 170.954V179H149.966Z" fill="black"/>
<circle cx="148" cy="332" r="15" fill="#F7C154"/>
<path d="M153.206 338V335.3H148.814C151.802 333.212 153.116 331.646 153.116 329.81C153.116 327.398 151.082 325.814 148.256 325.814C146.582 325.814 144.674 326.408 143.396 327.812L145.106 329.864C145.97 329.054 146.978 328.55 148.31 328.55C149.192 328.55 149.966 328.982 149.966 329.81C149.966 330.998 148.994 331.826 143.792 335.588V338H153.206Z" fill="black"/>
<circle cx="148" cy="516" r="15" fill="#F7C154"/>
<path d="M148.256 522.216C151.244 522.216 153.224 520.758 153.224 518.652C153.224 516.924 151.676 515.934 150.398 515.808C151.82 515.574 153.026 514.512 153.026 513.108C153.026 511.128 151.316 509.814 148.256 509.814C146.042 509.814 144.458 510.624 143.45 511.758L144.944 513.702C145.79 512.946 146.834 512.55 147.932 512.55C149.084 512.55 149.948 512.892 149.948 513.648C149.948 514.278 149.246 514.584 148.004 514.584C147.554 514.584 146.618 514.584 146.384 514.566V517.32C146.564 517.302 147.482 517.302 148.004 517.302C149.642 517.302 150.146 517.626 150.146 518.31C150.146 518.976 149.462 519.48 148.13 519.48C147.086 519.48 145.718 519.066 144.854 518.22L143.288 520.326C144.224 521.406 145.952 522.216 148.256 522.216Z" fill="black"/>
<circle cx="148" cy="675" r="15" fill="#F7C154"/>
<path d="M151.252 681V678.804H152.71V676.086H151.252V668.994H146.95L142.396 676.392V678.804H148.138V681H151.252ZM148.138 676.086H145.402L148.138 671.694V676.086Z" fill="black"/>
<rect x="89" y="820" width="118" height="29" rx="14.5" fill="#F7C154"/>
<path d="M129.592 839V835.055H134.242V832.805H129.592V831.245H134.347V828.995H127.012V839H129.592ZM136.837 831.11C137.572 831.11 138.157 830.51 138.157 829.775C138.157 829.04 137.572 828.455 136.837 828.455C136.102 828.455 135.517 829.04 135.517 829.775C135.517 830.51 136.102 831.11 136.837 831.11ZM137.992 839V831.755H135.682V839H137.992ZM146.882 839V833.87C146.882 832.535 146.132 831.575 144.482 831.575C143.267 831.575 142.412 832.13 141.977 832.64V831.755H139.667V839H141.977V834.32C142.247 833.99 142.697 833.615 143.387 833.615C144.107 833.615 144.572 833.93 144.572 834.815V839H146.882ZM149.713 831.11C150.448 831.11 151.033 830.51 151.033 829.775C151.033 829.04 150.448 828.455 149.713 828.455C148.978 828.455 148.393 829.04 148.393 829.775C148.393 830.51 148.978 831.11 149.713 831.11ZM150.868 839V831.755H148.558V839H150.868ZM155.318 839.18C157.403 839.18 158.618 838.16 158.618 836.78C158.618 833.81 154.403 834.635 154.403 833.795C154.403 833.495 154.778 833.27 155.318 833.27C156.188 833.27 157.013 833.645 157.448 834.065L158.333 832.535C157.553 831.965 156.518 831.575 155.303 831.575C153.293 831.575 152.198 832.685 152.198 833.96C152.198 836.87 156.413 835.94 156.413 836.885C156.413 837.215 156.128 837.44 155.438 837.44C154.583 837.44 153.428 836.96 152.888 836.48L151.928 838.07C152.693 838.745 154.028 839.18 155.318 839.18ZM167.038 839V833.84C167.038 832.505 166.288 831.575 164.638 831.575C163.423 831.575 162.568 832.13 162.133 832.64V828.995H159.823V839H162.133V834.32C162.403 833.99 162.853 833.615 163.528 833.615C164.263 833.615 164.728 833.9 164.728 834.785V839H167.038ZM170.92 835.505L171.265 828.995H168.505L168.865 835.505H170.92ZM169.885 839.165C170.65 839.165 171.295 838.52 171.295 837.77C171.295 837.005 170.65 836.36 169.885 836.36C169.12 836.36 168.49 837.005 168.49 837.77C168.49 838.52 169.12 839.165 169.885 839.165Z" fill="#223549"/>
<rect x="111" width="76" height="29" rx="14.5" fill="#F7C154"/>
<path d="M136.811 19.18C139.496 19.18 140.981 17.845 140.981 15.835C140.981 12.115 135.326 13.045 135.326 11.77C135.326 11.35 135.656 11.05 136.406 11.05C137.396 11.05 138.491 11.395 139.331 12.085L140.741 10.24C139.676 9.325 138.281 8.845 136.676 8.845C134.111 8.845 132.686 10.345 132.686 12.025C132.686 15.88 138.356 14.785 138.356 16.15C138.356 16.63 137.816 16.975 136.931 16.975C135.566 16.975 134.456 16.375 133.736 15.655L132.371 17.59C133.376 18.55 134.786 19.18 136.811 19.18ZM144.697 19.18C145.552 19.18 146.122 18.97 146.407 18.7L145.957 16.96C145.882 17.05 145.627 17.14 145.372 17.14C144.967 17.14 144.727 16.825 144.727 16.405V13.765H146.197V11.755H144.727V9.775H142.432V11.755H141.232V13.765H142.432V17.05C142.432 18.445 143.227 19.18 144.697 19.18ZM153.942 19V14.47C153.942 12.22 152.307 11.575 150.567 11.575C149.457 11.575 148.212 11.905 147.282 12.7L148.107 14.155C148.692 13.66 149.442 13.39 150.162 13.39C151.092 13.39 151.632 13.81 151.632 14.44V15.31C151.197 14.77 150.342 14.47 149.382 14.47C148.272 14.47 146.892 15.04 146.892 16.795C146.892 18.43 148.272 19.18 149.382 19.18C150.312 19.18 151.182 18.82 151.632 18.28V19H153.942ZM150.342 17.665C149.727 17.665 149.187 17.395 149.187 16.825C149.187 16.255 149.727 15.985 150.342 15.985C150.852 15.985 151.392 16.165 151.632 16.495V17.14C151.392 17.485 150.852 17.665 150.342 17.665ZM157.929 19V14.38C158.229 13.975 159.024 13.72 159.624 13.72C159.864 13.72 160.059 13.75 160.194 13.78V11.56C159.324 11.56 158.409 12.055 157.929 12.64V11.755H155.619V19H157.929ZM163.989 19.18C164.844 19.18 165.414 18.97 165.699 18.7L165.249 16.96C165.174 17.05 164.919 17.14 164.664 17.14C164.259 17.14 164.019 16.825 164.019 16.405V13.765H165.489V11.755H164.019V9.775H161.724V11.755H160.524V13.765H161.724V17.05C161.724 18.445 162.519 19.18 163.989 19.18Z" fill="#223549"/>
</svg>
