<svg width="73" height="59" viewBox="0 0 73 59" fill="none" xmlns="http://www.w3.org/2000/svg">
<mask id="path-1-inside-1" fill="white">
<path d="M8.84942 18.3579C12.9628 18.3579 16.4204 15.5319 17.407 11.7215H45.5395L42.6792 14.5818C41.8154 15.4456 41.8154 16.8459 42.6792 17.7097C43.1117 18.1422 43.6769 18.3579 44.2432 18.3579C44.8095 18.3579 45.3747 18.1422 45.8072 17.7097L52.4435 11.0734C52.4756 11.0413 52.4988 11.0026 52.5287 10.9683C52.5629 10.9296 52.5939 10.8909 52.626 10.8489C52.7421 10.6984 52.8417 10.5403 52.9136 10.371C52.9158 10.3655 52.9202 10.3611 52.9235 10.3556C52.9246 10.3545 52.9235 10.3522 52.9246 10.3511C52.9998 10.1686 53.0408 9.9784 53.0651 9.78484C53.0706 9.73949 53.075 9.69524 53.0784 9.64879C53.0905 9.45855 53.0861 9.2672 53.0496 9.07917C53.0485 9.07475 53.0463 9.07032 53.0452 9.06479C53.0087 8.8834 52.9412 8.70864 52.8583 8.53942C52.8372 8.49739 52.8162 8.45646 52.793 8.41665C52.6968 8.24852 52.5862 8.08704 52.4435 7.94436L45.8072 1.30803C44.9433 0.444199 43.5431 0.444199 42.6792 1.30803C41.8154 2.17186 41.8154 3.57212 42.6792 4.43595L45.5395 7.29732H17.407C16.4204 3.48696 12.9639 0.660986 8.84942 0.660986C3.97061 0.660986 0.000976562 4.63062 0.000976562 9.50943C0.000976562 14.3882 3.97061 18.3579 8.84942 18.3579ZM8.84942 5.08521C11.2894 5.08521 13.2736 7.06947 13.2736 9.50943C13.2736 11.9494 11.2894 13.9337 8.84942 13.9337C6.40946 13.9337 4.4252 11.9494 4.4252 9.50943C4.4252 7.06947 6.40946 5.08521 8.84942 5.08521Z"/>
</mask>
<path d="M8.84942 18.3579C12.9628 18.3579 16.4204 15.5319 17.407 11.7215H45.5395L42.6792 14.5818C41.8154 15.4456 41.8154 16.8459 42.6792 17.7097C43.1117 18.1422 43.6769 18.3579 44.2432 18.3579C44.8095 18.3579 45.3747 18.1422 45.8072 17.7097L52.4435 11.0734C52.4756 11.0413 52.4988 11.0026 52.5287 10.9683C52.5629 10.9296 52.5939 10.8909 52.626 10.8489C52.7421 10.6984 52.8417 10.5403 52.9136 10.371C52.9158 10.3655 52.9202 10.3611 52.9235 10.3556C52.9246 10.3545 52.9235 10.3522 52.9246 10.3511C52.9998 10.1686 53.0408 9.9784 53.0651 9.78484C53.0706 9.73949 53.075 9.69524 53.0784 9.64879C53.0905 9.45855 53.0861 9.2672 53.0496 9.07917C53.0485 9.07475 53.0463 9.07032 53.0452 9.06479C53.0087 8.8834 52.9412 8.70864 52.8583 8.53942C52.8372 8.49739 52.8162 8.45646 52.793 8.41665C52.6968 8.24852 52.5862 8.08704 52.4435 7.94436L45.8072 1.30803C44.9433 0.444199 43.5431 0.444199 42.6792 1.30803C41.8154 2.17186 41.8154 3.57212 42.6792 4.43595L45.5395 7.29732H17.407C16.4204 3.48696 12.9639 0.660986 8.84942 0.660986C3.97061 0.660986 0.000976562 4.63062 0.000976562 9.50943C0.000976562 14.3882 3.97061 18.3579 8.84942 18.3579ZM8.84942 5.08521C11.2894 5.08521 13.2736 7.06947 13.2736 9.50943C13.2736 11.9494 11.2894 13.9337 8.84942 13.9337C6.40946 13.9337 4.4252 11.9494 4.4252 9.50943C4.4252 7.06947 6.40946 5.08521 8.84942 5.08521Z" fill="#F7C154" stroke="white" stroke-width="0.481316" mask="url(#path-1-inside-1)"/>
<mask id="path-2-inside-2" fill="white">
<path d="M64.1504 0.660156C59.2716 0.660156 55.302 4.62979 55.302 9.5086C55.302 11.6831 56.0939 13.6751 57.4013 15.217L52.3068 20.86C49.0019 24.5189 43.8255 25.9346 39.1193 24.4625C33.0293 22.5612 26.4417 24.1804 21.929 28.6931L18.8022 31.82V28.3115C18.8022 27.0905 17.8111 26.0994 16.59 26.0994C15.369 26.0994 14.3779 27.0905 14.3779 28.3115V37.16C14.3779 37.3049 14.3934 37.4498 14.4211 37.5936C14.4343 37.6599 14.4587 37.7208 14.4775 37.7849C14.4996 37.859 14.5162 37.9342 14.5461 38.0061C14.577 38.0824 14.6202 38.151 14.66 38.2229C14.6898 38.2771 14.7142 38.3346 14.7496 38.3866C14.9122 38.6299 15.1201 38.8379 15.3634 39.0005C15.4165 39.0359 15.4729 39.0591 15.5271 39.09C15.599 39.1299 15.6676 39.173 15.7439 39.204C15.8158 39.2338 15.891 39.2504 15.9651 39.2725C16.0293 39.2914 16.0901 39.3157 16.1565 39.329C16.3003 39.3566 16.4451 39.3721 16.59 39.3721H25.4385C26.6596 39.3721 27.6506 38.3811 27.6506 37.16C27.6506 35.9389 26.6596 34.9479 25.4385 34.9479H21.9301L25.0569 31.8211C28.4027 28.4774 33.2859 27.273 37.7998 28.6854C44.1529 30.6685 51.1344 28.7606 55.5907 23.8243L61.0457 17.783C62.0135 18.148 63.0565 18.357 64.1504 18.357C69.0292 18.357 72.9989 14.3874 72.9989 9.5086C72.9989 4.62979 69.0292 0.660156 64.1504 0.660156ZM64.1504 13.9328C61.7105 13.9328 59.7262 11.9486 59.7262 9.5086C59.7262 7.06864 61.7105 5.08438 64.1504 5.08438C66.5904 5.08438 68.5746 7.06864 68.5746 9.5086C68.5746 11.9486 66.5904 13.9328 64.1504 13.9328Z"/>
</mask>
<path d="M64.1504 0.660156C59.2716 0.660156 55.302 4.62979 55.302 9.5086C55.302 11.6831 56.0939 13.6751 57.4013 15.217L52.3068 20.86C49.0019 24.5189 43.8255 25.9346 39.1193 24.4625C33.0293 22.5612 26.4417 24.1804 21.929 28.6931L18.8022 31.82V28.3115C18.8022 27.0905 17.8111 26.0994 16.59 26.0994C15.369 26.0994 14.3779 27.0905 14.3779 28.3115V37.16C14.3779 37.3049 14.3934 37.4498 14.4211 37.5936C14.4343 37.6599 14.4587 37.7208 14.4775 37.7849C14.4996 37.859 14.5162 37.9342 14.5461 38.0061C14.577 38.0824 14.6202 38.151 14.66 38.2229C14.6898 38.2771 14.7142 38.3346 14.7496 38.3866C14.9122 38.6299 15.1201 38.8379 15.3634 39.0005C15.4165 39.0359 15.4729 39.0591 15.5271 39.09C15.599 39.1299 15.6676 39.173 15.7439 39.204C15.8158 39.2338 15.891 39.2504 15.9651 39.2725C16.0293 39.2914 16.0901 39.3157 16.1565 39.329C16.3003 39.3566 16.4451 39.3721 16.59 39.3721H25.4385C26.6596 39.3721 27.6506 38.3811 27.6506 37.16C27.6506 35.9389 26.6596 34.9479 25.4385 34.9479H21.9301L25.0569 31.8211C28.4027 28.4774 33.2859 27.273 37.7998 28.6854C44.1529 30.6685 51.1344 28.7606 55.5907 23.8243L61.0457 17.783C62.0135 18.148 63.0565 18.357 64.1504 18.357C69.0292 18.357 72.9989 14.3874 72.9989 9.5086C72.9989 4.62979 69.0292 0.660156 64.1504 0.660156ZM64.1504 13.9328C61.7105 13.9328 59.7262 11.9486 59.7262 9.5086C59.7262 7.06864 61.7105 5.08438 64.1504 5.08438C66.5904 5.08438 68.5746 7.06864 68.5746 9.5086C68.5746 11.9486 66.5904 13.9328 64.1504 13.9328Z" fill="#F7C154" stroke="white" stroke-width="0.481316" mask="url(#path-2-inside-2)"/>
<mask id="path-3-inside-3" fill="white">
<path d="M64.1522 40.4805C59.2733 40.4805 55.3037 44.4501 55.3037 49.3289C55.3037 54.2077 59.2733 58.1774 64.1522 58.1774C69.031 58.1774 73.0006 54.2077 73.0006 49.3289C73.0006 44.4501 69.031 40.4805 64.1522 40.4805ZM64.1522 53.7531C61.7122 53.7531 59.7279 51.7689 59.7279 49.3289C59.7279 46.889 61.7122 44.9047 64.1522 44.9047C66.5921 44.9047 68.5764 46.889 68.5764 49.3289C68.5764 51.7689 66.5921 53.7531 64.1522 53.7531Z"/>
</mask>
<path d="M64.1522 40.4805C59.2733 40.4805 55.3037 44.4501 55.3037 49.3289C55.3037 54.2077 59.2733 58.1774 64.1522 58.1774C69.031 58.1774 73.0006 54.2077 73.0006 49.3289C73.0006 44.4501 69.031 40.4805 64.1522 40.4805ZM64.1522 53.7531C61.7122 53.7531 59.7279 51.7689 59.7279 49.3289C59.7279 46.889 61.7122 44.9047 64.1522 44.9047C66.5921 44.9047 68.5764 46.889 68.5764 49.3289C68.5764 51.7689 66.5921 53.7531 64.1522 53.7531Z" fill="#F7C154" stroke="white" stroke-width="0.481316" mask="url(#path-3-inside-3)"/>
<mask id="path-4-inside-4" fill="white">
<path d="M53.0442 48.8865C53.0077 48.7051 52.9402 48.5303 52.8573 48.3611C52.8363 48.3191 52.8153 48.2782 52.792 48.2383C52.6958 48.0702 52.5852 47.9087 52.4425 47.7661L45.8062 41.1297C44.9423 40.2659 43.5421 40.2659 42.6782 41.1297C41.8144 41.9936 41.8144 43.3938 42.6782 44.2576L45.5385 47.1168H17.406C16.4194 43.3064 12.963 40.4805 8.84844 40.4805C3.96963 40.4805 0 44.4501 0 49.3289C0 54.2077 3.96963 58.1774 8.84844 58.1774C12.9619 58.1774 16.4194 55.3514 17.406 51.541H45.5385L42.6782 54.4013C41.8144 55.2651 41.8144 56.6654 42.6782 57.5292C43.1107 57.9617 43.6759 58.1774 44.2422 58.1774C44.8085 58.1774 45.3737 57.9617 45.8062 57.5292L52.4425 50.8929C52.4746 50.8608 52.4978 50.8221 52.5277 50.7878C52.562 50.7491 52.5929 50.7104 52.625 50.6683C52.7411 50.5179 52.8407 50.3598 52.9126 50.1905C52.9148 50.185 52.9192 50.1806 52.9225 50.175C52.9236 50.1739 52.9225 50.1717 52.9236 50.1706C52.9989 49.9881 53.0398 49.7979 53.0641 49.6043C53.0696 49.559 53.0741 49.5147 53.0774 49.4683C53.0896 49.278 53.0851 49.0867 53.0486 48.8987C53.0475 48.8953 53.0453 48.8909 53.0442 48.8865ZM8.84844 53.7531C6.40848 53.7531 4.42422 51.7689 4.42422 49.3289C4.42422 46.889 6.40848 44.9047 8.84844 44.9047C11.2884 44.9047 13.2727 46.889 13.2727 49.3289C13.2727 51.7689 11.2884 53.7531 8.84844 53.7531Z"/>
</mask>
<path d="M53.0442 48.8865C53.0077 48.7051 52.9402 48.5303 52.8573 48.3611C52.8363 48.3191 52.8153 48.2782 52.792 48.2383C52.6958 48.0702 52.5852 47.9087 52.4425 47.7661L45.8062 41.1297C44.9423 40.2659 43.5421 40.2659 42.6782 41.1297C41.8144 41.9936 41.8144 43.3938 42.6782 44.2576L45.5385 47.1168H17.406C16.4194 43.3064 12.963 40.4805 8.84844 40.4805C3.96963 40.4805 0 44.4501 0 49.3289C0 54.2077 3.96963 58.1774 8.84844 58.1774C12.9619 58.1774 16.4194 55.3514 17.406 51.541H45.5385L42.6782 54.4013C41.8144 55.2651 41.8144 56.6654 42.6782 57.5292C43.1107 57.9617 43.6759 58.1774 44.2422 58.1774C44.8085 58.1774 45.3737 57.9617 45.8062 57.5292L52.4425 50.8929C52.4746 50.8608 52.4978 50.8221 52.5277 50.7878C52.562 50.7491 52.5929 50.7104 52.625 50.6683C52.7411 50.5179 52.8407 50.3598 52.9126 50.1905C52.9148 50.185 52.9192 50.1806 52.9225 50.175C52.9236 50.1739 52.9225 50.1717 52.9236 50.1706C52.9989 49.9881 53.0398 49.7979 53.0641 49.6043C53.0696 49.559 53.0741 49.5147 53.0774 49.4683C53.0896 49.278 53.0851 49.0867 53.0486 48.8987C53.0475 48.8953 53.0453 48.8909 53.0442 48.8865ZM8.84844 53.7531C6.40848 53.7531 4.42422 51.7689 4.42422 49.3289C4.42422 46.889 6.40848 44.9047 8.84844 44.9047C11.2884 44.9047 13.2727 46.889 13.2727 49.3289C13.2727 51.7689 11.2884 53.7531 8.84844 53.7531Z" fill="#F7C154" stroke="white" stroke-width="0.481316" mask="url(#path-4-inside-4)"/>
</svg>
