<svg width="365" height="326" viewBox="0 0 365 326" fill="none" xmlns="http://www.w3.org/2000/svg">
<path d="M126.185 45.0981C126.014 45.2275 125.939 45.2343 125.871 45.2343C125.667 45.2275 125.47 45.2275 125.266 45.2275C125.524 45.0163 125.892 44.9618 126.185 45.0981Z" fill="white"/>
<path d="M364.163 321.864C364.102 322.382 364.034 322.886 363.959 323.404C363.115 323.418 362.264 323.425 361.42 323.425C334.914 323.602 308.374 322.621 281.896 321.681C232.193 319.923 182.53 317.116 132.943 313.327C111.562 311.692 90.2027 309.859 68.8498 307.843C68.101 307.774 67.3523 307.706 66.6035 307.631C66.7192 306.998 66.8554 306.364 66.9983 305.73C67.0187 305.635 67.046 305.54 67.0664 305.444C67.4816 303.652 67.9989 301.874 68.6524 300.15C69.0063 299.23 69.3739 298.311 69.7959 297.411C70.0069 296.955 70.2383 296.491 70.4902 296.055C70.5446 295.967 70.5991 295.878 70.6536 295.796C71.8243 292.178 73.0768 288.581 74.479 285.045C86.139 255.529 104.865 228.971 125.462 205.056C136.04 192.778 147.182 180.875 159.224 170.028C171.306 159.14 184.497 149.281 199.118 142.072C213.773 134.843 229.667 129.992 246.051 129.304C250.149 129.134 254.26 129.229 258.344 129.604C260.284 129.781 262.238 130.04 263.688 131.471C264.845 132.609 265.546 134.155 266.349 135.532C270.467 142.583 275.538 149.002 280.882 155.154C286.218 161.3 291.841 167.193 297.225 173.298C302.718 179.519 307.973 185.951 312.983 192.56C322.975 205.737 332.008 219.636 339.978 234.128C354.518 260.557 367.907 291.143 364.163 321.864Z" fill="#EC663D"/>
<path d="M249.946 134.666C249.666 137.18 248.006 139.251 246.202 140.907C244.371 142.583 242.261 143.932 240.273 145.417C238.238 146.943 236.25 148.524 234.303 150.159C230.369 153.464 226.625 157 223.093 160.727C216.082 168.126 209.908 176.309 204.701 185.064C199.459 193.874 195.219 203.256 192.094 213.013C191.918 213.551 191.366 213.844 190.828 213.749C190.338 213.66 189.828 213.142 189.916 212.604C190.931 206.465 192.183 200.367 193.687 194.331C196.342 183.709 199.766 173.264 203.959 163.146C205.865 158.547 207.934 154.016 210.133 149.546C209.962 149.526 209.799 149.478 209.663 149.389C209.139 149.042 209.064 148.388 209.343 147.863C209.908 146.821 210.514 145.812 211.167 144.824C212.433 142.93 213.863 141.152 215.428 139.503C216.531 137.582 217.695 135.688 218.934 133.848C219.526 132.962 220.758 133.821 220.288 134.734C220.173 134.952 220.05 135.177 219.934 135.395C224.304 131.974 229.362 129.44 234.739 128.043C236.931 127.471 239.191 127.062 241.471 127.164C243.513 127.266 245.698 127.736 247.366 128.976C249.136 130.298 250.191 132.438 249.946 134.666Z" fill="white"/>
<path d="M218.341 133.891C218.341 134.178 218.348 134.205 218.212 134.525C218.164 134.614 218.123 134.675 218.082 134.736C217.742 135.07 217.483 135.22 217.204 135.329C217.13 135.043 217.089 134.757 217.116 134.464C217.157 134.014 217.402 133.694 217.756 133.523C218.341 133.864 218.341 133.891 218.341 133.891Z" fill="white"/>
<path d="M251.205 94.827C250.763 101.116 249.606 107.425 247.271 113.291C243.18 123.573 235.57 131.96 226.585 138.235C225.285 139.148 223.951 140.02 222.603 140.852C221.201 140.102 219.935 139.114 218.852 137.881C218.703 137.711 218.539 137.52 218.383 137.322C219.601 136.736 220.486 135.735 220.67 134.29C220.867 132.696 219.758 131.108 218.076 131.081C216.313 131.061 214.904 132.641 214.775 134.331C214.741 134.808 214.789 135.271 214.904 135.728C214.156 135.796 213.4 135.844 212.645 135.885C206.532 136.253 200.46 136.028 194.382 135.51C193.94 133.391 193.531 131.265 192.83 129.255C191.979 126.782 190.74 124.186 189.311 121.856C188.862 121.127 188.385 120.418 187.881 119.73C187.807 120.009 187.664 120.268 187.459 120.452C186.854 121.004 186.01 120.875 185.445 120.35C183.457 118.49 181.544 116.555 179.72 114.538C172.083 106.103 165.902 96.2851 162.05 85.5608C158.408 75.4156 156.808 64.1735 158.762 53.4969C160.545 43.7333 165.228 34.1128 173.662 28.4781C184.036 21.5352 197.615 23.2795 209.187 25.5143C215.02 26.6385 220.561 28.5939 225.591 31.803C230.159 34.7192 234.209 38.4597 237.578 42.6977C245.14 52.1888 249.184 63.9555 250.674 75.9062C251.437 82.1677 251.641 88.5383 251.205 94.827Z" fill="white"/>
<path d="M213.556 69.188C212.154 68.9563 210.724 69.0313 209.315 69.1676C207.818 69.3106 206.225 69.481 204.87 70.1964C203.659 70.8368 202.311 72.1041 202.44 73.5963C202.502 74.3457 203.523 74.3457 203.89 73.862C204.21 73.4396 204.38 72.9626 204.775 72.5879C205.177 72.2063 205.653 71.9406 206.17 71.743C207.334 71.3002 208.655 71.1843 209.894 71.0889C211.051 70.9936 212.249 70.9799 213.392 71.1843C213.91 71.2729 214.427 71.4296 214.917 71.634C215.468 71.8657 215.918 72.2677 216.462 72.5129C216.843 72.6901 217.354 72.4516 217.572 72.1246C217.824 71.743 217.735 71.3002 217.483 70.9527C217.068 70.3872 216.251 70.026 215.618 69.7535C214.944 69.4673 214.257 69.3038 213.556 69.188Z" fill="#1D1D1B"/>
<path d="M194.707 68.1621C195.81 68.8434 196.804 68.0326 197.709 67.4466C201.045 65.2595 204.747 63.6993 208.648 62.8817C210.833 62.4252 213.031 62.2412 215.257 62.2071C215.706 62.2003 216.128 61.955 216.278 61.5122C216.414 61.1102 216.265 60.5379 215.87 60.3335C212.902 58.78 209.723 58.085 206.401 57.8397C203.536 57.6353 200.446 57.5604 197.696 58.5075C196.525 58.9095 195.483 59.4682 194.585 60.2517C194.353 60.0337 193.945 60.0064 193.693 60.2313C193.312 60.5719 193.067 60.9194 192.931 61.4168C192.801 61.8801 192.74 62.3911 192.713 62.8749C192.665 63.8219 192.836 64.7894 193.149 65.682C193.441 66.5268 193.904 67.6715 194.707 68.1621Z" fill="#1D1D1B"/>
<path d="M210.453 75.1503C210.453 73.3516 209.105 71.8867 207.451 71.8867C205.797 71.8867 204.449 73.3448 204.449 75.1503C204.449 76.9491 205.797 78.414 207.451 78.414C209.105 78.414 210.453 76.9491 210.453 75.1503Z" fill="#1D1D1B"/>
<path d="M212.29 95.7679C210.942 96.7967 209.417 97.6007 207.926 98.3979C206.477 99.1678 205.006 99.9104 203.516 100.592C202.025 101.273 200.514 101.893 198.975 102.452C198.172 102.745 197.355 102.997 196.559 103.29C195.899 103.528 195.218 103.74 194.592 104.053C194.469 103.964 194.34 103.896 194.204 103.862C193.857 103.78 193.564 103.971 193.516 104.332C193.428 104.986 194.041 105.688 194.456 106.138C194.905 106.628 195.409 107.065 195.94 107.46C196.464 107.848 197.036 108.182 197.628 108.454C197.92 108.591 198.227 108.7 198.526 108.822C198.676 108.884 198.819 108.945 198.962 109.006C199.064 109.047 199.152 109.095 199.248 109.129C199.295 109.265 199.398 109.395 199.554 109.497C201.018 110.451 202.828 109.749 204.176 108.925C205.578 108.059 206.858 107.01 207.954 105.777C209.09 104.496 210.091 103.099 210.996 101.648C211.976 100.074 212.977 98.3638 213.59 96.6059C213.862 95.8088 212.889 95.3114 212.29 95.7679ZM209.791 100.415C209.015 101.716 208.178 102.983 207.225 104.162C206.327 105.273 205.319 106.315 204.169 107.174C203.223 107.875 201.562 108.993 200.412 108.189C200.173 107.698 199.697 107.439 199.336 107.276C199.05 107.146 198.751 107.037 198.458 106.915C198.322 106.853 198.186 106.792 198.05 106.731C198.05 106.731 197.873 106.642 197.9 106.663C197.498 106.451 197.226 106.295 196.967 106.124C196.464 105.79 196.096 105.497 195.701 105.116C196.94 104.905 198.172 104.421 199.323 104.012C200.963 103.426 202.59 102.786 204.183 102.077C205.741 101.382 207.266 100.626 208.75 99.781C209.451 99.379 210.139 98.9497 210.826 98.5205C210.493 99.1541 210.159 99.7946 209.791 100.415Z" fill="#1D1D1B"/>
<path d="M180.972 75.9356C179.801 75.2133 178.522 74.4434 177.167 74.1573C175.799 73.8711 174.322 73.9937 173.192 74.8795C172.246 75.6221 171.586 77.0598 172.198 78.2112C172.532 78.8449 173.342 78.5519 173.451 77.9387C173.58 77.2097 173.886 76.5215 174.574 76.1536C175.411 75.7039 176.432 75.8606 177.29 76.1604C177.596 76.2694 177.889 76.3989 178.181 76.5351C177.998 76.6101 177.821 76.7055 177.657 76.8281C176.5 77.707 176.425 79.4785 177.501 80.7867C178.576 82.0949 180.387 82.4423 181.544 81.5566C182.225 81.0388 182.531 80.2144 182.449 79.3559C182.694 79.3014 182.919 79.131 182.973 78.8926C183.252 77.5299 182.007 76.576 180.972 75.9356Z" fill="#1D1D1B"/>
<path d="M279.921 111.943C280.023 109.709 279.683 107.46 279.043 105.328C277.716 100.94 275.299 97.0221 273.243 92.9613C272.202 90.89 271.249 88.771 270.596 86.5431C269.881 84.0834 269.459 81.5488 269.214 79.0006C268.697 73.7066 268.846 68.3513 268.669 63.0368C268.485 57.4771 268.152 51.931 267.682 46.3917C266.879 36.8938 266.198 26.7623 261.985 18.0479C260.065 14.0689 257.329 10.5736 253.844 7.85507C250.488 5.23191 246.52 3.43998 242.436 2.28171C233.757 -0.19156 224.445 -0.116614 215.597 1.28013C206.135 2.77227 196.932 6.01545 188.621 10.778C180.603 15.3771 173.483 21.4001 167.561 28.4997C161.789 35.4289 157.208 43.3461 154.145 51.8424C153.389 53.9341 152.845 56.0531 152.436 58.2402C152.327 58.4173 152.232 58.5809 152.157 58.7444C151.939 59.2349 151.742 59.7391 151.565 60.2501C151.238 61.1836 151.014 62.1375 150.837 63.1118C150.469 65.0945 150.34 67.1112 150.442 69.1144C150.653 73.2297 151.824 77.2768 153.498 81.031C155.179 84.7988 157.378 88.3077 159.733 91.7008C160.87 93.336 162.122 94.9304 163.007 96.7223C163.933 98.6028 164.083 100.585 164.117 102.657C164.151 104.796 164.164 106.956 163.817 109.075C163.484 111.119 162.619 112.972 161.734 114.826C160.877 116.631 160.169 118.457 159.794 120.426C159.441 122.279 159.311 124.16 159.454 126.047C159.747 129.924 161.033 133.521 163.205 136.737C164.192 138.209 165.376 139.803 165.219 141.67C165.077 143.38 163.913 144.859 162.871 146.14C161.68 147.612 160.455 149.029 159.475 150.65C158.454 152.354 157.63 154.2 157.147 156.135C156.248 159.787 156.541 163.8 158.454 167.091C158.787 167.657 159.155 168.188 159.57 168.685C159.583 168.808 159.631 168.924 159.706 169.033C159.822 169.19 160.005 169.326 160.216 169.387C160.829 169.851 161.626 169.34 161.666 168.699C164.593 166.607 167.384 164.304 170.263 162.145C173.394 159.794 176.58 157.518 179.813 155.324C186.341 150.902 193.073 146.78 199.982 142.985C201.929 141.922 203.882 140.88 205.856 139.865C206.816 139.374 207.776 138.884 208.742 138.407C208.831 138.366 208.912 138.325 208.994 138.284C208.402 139.81 207.919 141.371 207.633 142.979C207.075 146.14 207.578 149.594 209.613 152.163C209.525 152.354 209.518 152.585 209.675 152.797C210.458 153.894 210.839 155.174 211.125 156.469C211.404 157.73 211.458 159.01 211.363 160.291C211.145 163.31 210.042 166.13 209.096 168.972C207.17 174.777 205.972 180.813 206.292 186.959C206.469 190.373 207.068 193.745 208.225 196.968C208.463 197.615 209.151 198.133 209.858 197.724C218.496 192.737 227.059 187.579 235.473 182.21C244.035 176.753 252.564 171.24 261.189 165.878C263.598 164.379 266.015 162.88 268.424 161.382C269.629 160.632 270.834 159.889 272.045 159.133C272.808 158.656 273.597 158.22 274.38 157.784C274.782 158.275 275.524 158.52 276.157 158.002C279.458 155.304 280.152 150.848 279.703 146.821C279.172 141.991 276.654 137.65 275.946 132.847C275.224 128.016 277.151 123.444 278.526 118.914C279.227 116.631 279.805 114.308 279.921 111.943ZM222.369 78.3738C222.478 78.3261 222.574 78.2512 222.642 78.1353C222.771 77.9241 222.887 77.7061 223.002 77.4881C222.894 78.2307 222.805 78.9802 222.723 79.7229C222.24 84.2265 222.213 88.9278 223.812 93.1725C223.663 93.0294 223.506 92.8932 223.363 92.7433C221.614 90.999 220.164 88.955 219.96 86.4068C219.83 84.7307 220.232 83.0682 220.858 81.5284C221.185 80.7176 221.587 79.9477 221.981 79.1642C222.124 78.9121 222.247 78.6395 222.369 78.3738ZM217.591 122.504C217.462 122.075 217.326 121.646 217.169 121.223C216.876 120.44 216.563 119.649 216.196 118.879C215.93 118.314 215.637 117.762 215.318 117.231C215.249 117.265 215.181 117.299 215.12 117.333C214.467 117.653 213.8 117.966 213.133 118.266C211.349 119.063 209.518 119.779 207.667 120.433C206.346 120.896 204.992 121.394 203.61 121.618C202.18 121.857 200.88 121.693 199.594 121.012C198.409 120.378 197.354 119.506 196.286 118.702C195.129 117.823 193.978 116.938 192.848 116.025C190.629 114.253 188.458 112.407 186.389 110.458C182.352 106.656 178.731 102.432 175.893 97.6489C174.388 95.1075 173.129 92.4571 172.183 89.6636C171.72 88.3146 171.325 86.9314 171.039 85.5279C170.849 84.5944 170.706 83.6542 170.556 82.7139C170.862 81.5012 170.767 80.193 170.549 78.9598C170.257 77.2837 169.664 75.6689 169.011 74.1018C168.357 72.5211 167.561 71.0017 166.867 69.4414C166.635 68.9372 166.431 68.4194 166.241 67.9016C167.221 68.6306 168.48 68.6988 169.664 68.8691C172.265 69.2438 174.722 70.0001 177.159 70.9744C178.146 71.3764 179.514 71.3969 179.963 70.2386C180.194 70.6747 180.46 71.0903 180.685 71.4991C181.12 72.2894 181.563 73.073 181.998 73.8633C182.849 75.4168 183.659 76.9975 184.442 78.585C185.218 80.1589 185.973 81.7669 186.416 83.4702C186.872 85.2281 186.94 87.0405 186.797 88.846C186.627 90.9173 186.089 92.8863 185.742 94.9236C185.619 95.6662 186.858 95.8911 187.049 95.1688C187.525 93.3633 187.818 91.4487 188.043 89.5955C188.261 87.7422 188.281 85.8481 187.947 84.0085C187.621 82.2234 186.926 80.5132 186.171 78.8712C185.395 77.1814 184.544 75.519 183.659 73.8838C183.169 72.9776 182.672 72.0714 182.128 71.1993C181.597 70.3408 181.073 69.2779 180.283 68.6238C180.208 68.5625 180.12 68.5352 180.031 68.5352C179.915 68.0174 179.711 67.5132 179.48 67.1044C178.445 65.2852 176.451 64.127 174.443 63.7114C173 63.4184 171.529 63.4593 170.066 63.5342C169.276 63.5819 168.494 63.65 167.711 63.6841C167.023 63.7114 166.023 63.5342 165.478 64.018C165.274 64.2019 165.226 64.4813 165.322 64.7266C165.267 64.6789 165.24 64.5767 165.213 64.4744C163.62 57.409 164.879 50.0573 167.459 43.387C168.725 40.0961 170.311 36.9415 172.047 33.8755C172.339 34.1071 172.625 34.332 172.918 34.55C174.62 35.8582 176.369 37.1118 178.159 38.3042C181.719 40.6752 185.381 42.8896 189.043 45.104C196.504 49.6212 204.12 54.1521 212.561 56.5982C214.93 57.2863 217.346 57.8041 219.79 58.1175C220.348 58.1857 220.899 58.247 221.457 58.2879C221.464 58.3696 221.464 58.4514 221.471 58.5332C221.525 59.4939 221.661 60.4409 221.702 61.4016C221.777 63.2957 221.689 65.1967 221.43 67.0704C220.906 70.8314 219.463 74.2449 217.952 77.7061C216.522 80.9901 215.202 84.4786 215.454 88.1238C215.569 89.8544 215.985 91.5714 216.883 93.0635C217.734 94.4739 218.918 95.5845 220.157 96.6473C221.348 97.6625 222.594 98.6232 223.601 99.8292C224.602 101.015 225.215 102.439 225.494 103.951C226.086 107.16 225.201 110.485 223.731 113.34C222.056 116.583 219.749 119.445 217.68 122.443C217.632 122.45 217.611 122.477 217.591 122.504ZM225.48 128.418C224.316 131.682 223.207 134.973 222.533 138.379C222.39 139.108 222.267 139.838 222.165 140.573C221.866 139.183 221.689 137.766 221.641 136.363C221.539 133.528 221.975 130.748 222.941 128.084C223.962 125.291 225.541 122.743 227.066 120.208C227.862 118.879 228.666 117.503 229.387 116.079C228.502 120.297 226.93 124.371 225.48 128.418Z" fill="#1D1D1B"/>
<path d="M202.087 152.348C201.869 153.227 201.644 154.113 201.413 154.992C201.202 155.789 200.93 156.606 200.453 157.295C199.977 157.983 199.33 158.5 198.67 158.998C197.976 159.516 197.281 160.034 196.601 160.565C191.039 164.871 185.88 169.634 181.095 174.771C180.775 175.112 180.046 175.091 179.767 174.703C178.311 172.686 177.759 170.267 177.909 167.801C178.209 162.95 180.986 158.923 183.103 154.705C184.219 152.491 185.063 150.134 185.437 147.674C185.628 146.448 185.751 145.214 185.757 143.974C185.764 142.877 185.771 141.767 185.689 140.67C185.635 140.963 185.601 141.256 185.58 141.562C185.519 142.796 183.593 143 183.389 141.753C183.375 141.665 183.355 141.583 183.334 141.501C183.389 142.618 183.382 143.736 183.293 144.853C183.048 147.851 182.245 150.726 181.095 153.493C179.965 156.198 178.603 158.807 177.589 161.56C176.03 165.825 175.309 171.48 178.767 175.05C179.25 175.548 179.039 176.345 178.474 176.658C176.881 177.564 175.302 178.505 173.757 179.486C168.325 182.927 163.2 186.885 158.489 191.266C158.074 191.648 157.523 191.614 157.053 191.375C155.059 190.38 154.412 187.941 154.739 185.877C155.079 183.724 156.229 182.082 157.57 180.419C158.918 178.757 160.314 177.053 160.47 174.819C160.627 172.686 159.939 170.56 159.388 168.523C159.041 167.235 158.775 165.9 158.721 164.564C158.503 164.455 158.326 164.244 158.312 163.917C158.217 162.275 158.38 160.701 158.809 159.114C159.218 157.587 159.864 156.136 160.606 154.746C163.37 149.602 167.951 145.705 172.518 142.203C173.648 141.338 174.771 140.459 175.942 139.641C177.106 138.823 178.365 138.067 179.788 137.808C180.101 137.754 180.428 137.726 180.754 137.726C180.598 136.97 180.434 136.214 180.298 135.451C180.135 134.476 181.524 133.89 181.973 134.838C182.47 135.894 182.762 137.025 182.96 138.176C183.3 138.326 183.627 138.503 183.92 138.714C184.26 137.781 184.73 136.895 185.308 136.084C187.466 133.107 190.788 131.397 194.286 130.518C195.178 130.286 196.083 130.116 196.995 129.98C197.982 129.83 198.983 129.687 199.97 129.905C201.685 130.286 203.026 132.317 201.794 133.822C202.938 136.2 203.475 138.837 203.571 141.501C203.727 145.167 202.958 148.812 202.087 152.348Z" fill="#1D1D1B"/>
<path d="M129.892 217.741C127.033 207.282 124.209 196.81 121.942 186.201C120.826 180.976 119.9 175.702 119.172 170.408C118.804 167.764 118.518 165.107 118.232 162.45C117.953 159.861 117.565 157.299 116.619 154.86C115.564 152.134 113.794 149.743 112.188 147.324C110.459 144.721 108.73 142.112 107.008 139.509C106.736 139.094 106.354 138.821 105.83 138.869C105.388 138.916 104.898 139.223 104.782 139.686C104.217 141.976 103.659 144.265 103.101 146.554C103.005 146.152 102.89 145.764 102.74 145.382C102.168 143.938 101.154 142.718 99.9423 141.764C97.4851 139.823 94.1565 139.121 91.0935 139.523C87.5063 139.993 84.2731 142.03 81.5912 144.36C80.2639 145.519 79.0795 146.813 77.827 148.04C76.7311 149.123 75.4923 150.24 74.0288 150.554C73.1848 150.738 72.2727 150.547 71.3878 150.193C70.5369 149.852 69.7473 149.429 68.9578 148.912C68.2294 148.435 67.6372 147.931 67.0927 147.256C66.9021 147.018 66.7524 146.779 66.6094 146.507C66.9838 146.323 67.2561 145.968 67.2765 145.45C67.3037 144.49 66.5618 143.802 65.7109 143.713C63.3626 142.432 60.7488 141.703 58.0941 141.376C56.9778 141.24 56.4332 142.5 56.8076 143.379C56.9165 143.631 57.0118 144.033 57.0663 144.401C57.0799 144.619 57.0799 144.749 57.0799 144.871C57.0731 145.103 57.0595 145.335 57.0322 145.566C56.9438 146.261 56.6306 147.215 56.3379 148.019C55.6505 149.838 54.7724 151.582 54.4048 153.504C53.976 155.711 54.1189 157.933 54.2483 160.161C54.3844 162.416 54.5205 164.671 54.6499 166.933C54.7588 168.745 54.8677 170.565 54.9698 172.377C54.1598 172.793 53.588 173.576 53.343 174.462C52.812 176.39 53.5744 178.632 55.0242 179.967C56.8348 181.63 59.367 181.97 61.7085 182.236C63.9616 182.495 66.024 182.924 68.1682 183.824C72.5449 187.687 76.9626 191.577 82.0745 194.425C87.1319 197.246 92.6863 199.065 98.4176 199.828C100.5 200.108 102.604 200.23 104.7 200.203C104.714 200.619 104.741 201.034 104.796 201.436C104.918 202.315 105.034 203.18 105.177 204.059C105.449 205.735 105.817 207.384 106.211 209.033C107.021 212.392 107.995 215.703 109.111 218.974C109.302 219.519 109.717 220.016 110.357 220.023C116.537 220.098 122.731 219.88 128.892 219.335C129.579 219.267 130.062 218.361 129.892 217.741Z" fill="white"/>
<path d="M103.625 113.566C103.373 111.419 101.957 110.023 100.195 108.953C98.4724 107.897 96.655 106.861 94.5789 106.848C94.4768 106.848 94.3543 106.848 94.225 106.848C94.1705 106.813 94.1092 106.779 94.0548 106.739C93.9255 106.65 93.8029 106.555 93.6804 106.466C93.5851 106.384 93.5238 106.33 93.4626 106.268C93.3401 106.146 93.2312 106.016 93.1222 105.887C93.0542 105.778 92.9725 105.655 92.9657 105.642C92.8908 105.505 92.8228 105.369 92.7683 105.219C92.7683 105.206 92.7002 104.981 92.6866 104.926C92.5981 104.572 92.5437 104.218 92.496 103.856C92.2782 102.146 92.1217 100.334 90.5425 99.2983C89.9707 98.9235 89.2356 99.1075 88.8476 99.6526C88.1397 100.654 87.6156 101.785 87.3229 102.978C86.472 102.616 85.5871 102.337 84.641 102.221C83.3068 102.051 81.9387 102.133 80.6045 102.296C77.9158 102.078 75.2204 102.092 72.5317 102.337C70.2514 102.548 67.9575 102.937 65.7861 103.679C64.6358 104.074 63.8666 104.715 63.288 105.791C62.7843 106.718 62.3555 107.686 62.0015 108.68C61.4774 108.728 60.9601 108.762 60.5109 108.844C59.1903 109.089 58.0128 109.702 56.9713 110.527C56.4948 110.902 56.0524 111.324 55.644 111.774C54.0104 113.014 52.7579 114.751 52.0977 116.693C51.9139 117.238 52.1317 117.953 52.6422 118.253C53.9695 119.03 55.4262 119.432 56.9237 119.452C57.4478 124.624 57.7609 129.822 57.9039 135.021C57.2912 134.994 56.7127 135.498 56.699 136.125C56.6038 139.818 56.9577 143.538 57.5363 147.183C58.1012 150.76 58.9044 154.296 59.9595 157.764C60.2182 158.623 60.4972 159.474 60.7899 160.326C61.0826 161.184 61.3277 162.145 61.7701 162.942C62.7503 164.714 64.7583 164.789 66.5553 165.02C70.299 165.504 74.0768 165.797 77.8546 165.811C81.6596 165.824 85.4714 165.6 89.2492 165.143C92.1965 164.789 95.8722 164.503 97.9823 162.125C99.2075 160.742 99.5887 158.997 99.718 157.199C99.8474 155.332 99.9086 153.444 99.9359 151.571C100.004 147.728 99.861 143.892 99.4662 140.077C99.0918 136.465 98.3975 132.902 97.9279 129.305C97.465 125.782 97.3289 122.287 97.8326 118.764C97.8462 118.648 97.8734 118.533 97.8938 118.41C98.7447 118.287 99.5887 118.165 100.44 118.042C101.495 117.885 102.665 117.783 103.319 116.816C103.931 115.882 103.754 114.628 103.625 113.566Z" fill="white"/>
<path d="M105.158 115.923C105.232 112.816 103.422 108.803 100.999 107.747C100.413 107.494 99.8211 107.276 99.2153 107.086C98.0854 106.738 96.9282 106.622 95.7778 106.35C95.3762 106.254 94.9746 106.132 94.6751 105.839C94.3961 105.559 94.1851 105.212 93.9604 104.885C93.7222 104.531 93.3955 104.183 93.0279 103.945C93.0347 103.863 93.0347 103.774 93.0211 103.693C92.8645 102.575 93.164 101.458 92.9803 100.334C92.8169 99.3525 92.2315 98.4326 91.2581 98.1124C90.2711 97.7786 89.2161 98.2555 88.5558 98.9913C88.2155 99.3661 87.95 99.7817 87.7594 100.245C87.6709 100.443 87.6165 100.654 87.5688 100.865C87.5416 100.981 87.5008 101.104 87.4872 101.219C86.929 101.328 86.3708 101.226 85.8331 101.192C85.1797 101.151 84.5262 101.117 83.8727 101.09C82.6339 101.042 81.3883 101.022 80.1494 101.035C77.6173 101.063 75.0852 101.199 72.5735 101.478C71.1713 101.635 69.7827 101.826 68.3941 102.057C67.5705 102.194 66.6583 102.575 65.8415 102.548C65.3106 102.528 64.7729 102.418 64.2487 102.507C63.2754 102.671 63.2277 103.413 62.8601 104.156C62.3224 105.239 61.9957 106.895 61.1857 107.76C60.4642 108.537 59.3615 108.503 58.4153 108.769C54.2087 109.968 51.52 113.109 50.5058 117.374C50.3492 118.014 50.1042 118.832 50.3288 119.445C50.8802 119.534 51.4315 119.616 51.9897 119.684C52.4866 119.752 52.9903 119.813 53.494 119.874C54.2223 119.963 54.9506 120.052 55.679 120.133L55.7538 120.869C56.2371 125.455 56.7476 130.04 57.2854 134.625C56.8361 134.571 56.3869 134.53 55.9376 134.482C55.536 134.448 55.08 134.823 55.1004 135.239C55.4339 142.543 56.9655 149.731 58.708 156.81C59.2117 158.833 59.729 160.85 60.2463 162.867C60.3757 163.351 60.7909 163.535 61.1789 163.487C61.8936 168.29 62.6423 173.087 63.4251 177.877C63.3843 178.483 63.745 179.083 64.344 179.274C65.0928 179.512 65.862 179.682 66.6379 179.798C66.7945 179.901 66.9578 179.996 67.1212 180.084C68.0129 180.555 68.959 180.957 69.9188 181.284C71.8928 181.951 73.9484 182.367 76.0177 182.592C80.4421 183.055 84.921 182.585 89.2705 181.706C90.557 181.447 91.8367 181.147 93.1096 180.834C93.7494 180.677 94.3824 180.514 95.0155 180.343C95.7166 180.159 96.3837 180.03 96.9758 179.587C97.0779 179.505 97.1528 179.417 97.2141 179.321C97.6974 179.308 98.167 179.001 98.1738 178.381C98.2623 172.215 98.5006 166.049 98.7933 159.883C99.0043 159.828 99.2153 159.774 99.4263 159.712C99.8415 159.603 100.039 159.283 100.066 158.943C100.543 157.846 100.686 156.776 100.842 155.713C100.992 154.718 101.135 153.723 101.264 152.722C101.53 150.698 101.747 148.661 101.918 146.624C102.265 142.515 102.435 138.393 102.435 134.271C102.435 133.522 101.645 133.242 101.135 133.488C100.822 133.46 100.515 133.44 100.202 133.433C100.413 129.822 100.631 126.211 100.828 122.6C100.903 121.285 100.978 119.97 101.053 118.655C101.155 118.641 101.264 118.621 101.366 118.6C102.115 118.464 102.871 118.328 103.612 118.178C103.926 118.117 104.239 118.055 104.552 117.994C104.627 117.98 104.708 117.96 104.79 117.946C105.035 117.231 105.144 116.597 105.158 115.923ZM100.72 134.816C100.706 138.693 100.549 142.57 100.236 146.433C100.066 148.436 99.8687 150.439 99.6305 152.436C99.5148 153.43 99.3787 154.425 99.2357 155.427C99.1132 156.299 98.9634 157.164 98.9498 158.043C98.2283 158.234 97.5817 158.391 96.9282 158.547C92.7488 159.535 88.4946 160.251 84.2539 160.816C79.3258 161.463 74.3636 161.784 69.4015 161.852C67.9993 161.872 66.5971 161.865 65.1949 161.838C64.5414 161.825 63.8539 161.777 63.1665 161.756C62.6764 161.743 62.1795 161.743 61.6962 161.79C61.0768 159.392 60.4573 156.987 59.8788 154.582C58.8305 150.228 57.9048 145.847 57.3058 141.405C57.0948 139.838 56.9246 138.271 56.7953 136.704C57.0403 136.704 57.2854 136.697 57.5304 136.69C58.2587 136.676 58.9939 136.656 59.729 136.635C61.6077 136.567 63.4864 136.472 65.3719 136.39C68.2716 136.261 71.1644 136.145 74.071 136.029C79.9656 135.797 85.8603 135.573 91.755 135.341C93.3819 135.28 95.0087 135.198 96.6355 135.123C97.1596 135.096 97.6906 135.075 98.2147 135.048C98.8477 135.014 99.4944 134.973 100.121 134.905C100.318 134.871 100.515 134.843 100.72 134.816ZM101.7 116.495L101.176 116.584C100.638 116.672 100.093 116.761 99.5488 116.842C98.3508 117.033 97.1596 117.204 95.9616 117.36C92.1226 117.871 88.2767 118.294 84.4173 118.559C76.6371 119.084 68.8161 119.07 61.0359 118.505C59.8788 118.416 58.7284 118.321 57.5781 118.212C56.8702 118.144 56.1691 118.076 55.4612 118.001C55.1617 117.973 54.869 117.946 54.5763 117.912C53.8888 117.837 53.1945 117.749 52.5138 117.66C52.6636 117.081 52.8473 116.515 53.0652 115.957C53.7322 114.315 54.6443 112.536 56.1146 111.399C56.8906 110.799 57.7891 110.404 58.7625 110.233C59.2117 110.159 61.3967 109.538 61.6894 109.709C62.4858 110.172 63.4455 110.397 64.3304 110.595C65.3242 110.813 66.3316 110.997 67.339 111.146C68.326 111.29 69.3198 111.399 70.3136 111.453C70.8309 111.48 71.3414 111.501 71.8519 111.508C72.3965 111.514 72.9887 111.583 73.4651 111.276C73.9961 110.935 74.1458 110.131 73.54 109.763C73.0363 109.45 72.519 109.491 71.954 109.484C71.5048 109.47 71.0555 109.457 70.6063 109.429C69.6125 109.375 68.6187 109.293 67.6317 109.171C66.6992 109.055 65.7667 108.912 64.8477 108.721C64.2079 108.591 63.5408 108.414 62.8806 108.319C63.2822 107.672 63.5476 106.963 63.8744 106.275C63.9833 106.057 64.0241 105.961 64.1466 105.709C64.2555 105.498 64.3576 105.287 64.4666 105.076C64.5823 104.837 64.7252 104.606 64.8614 104.367C65.9164 104.251 66.9578 104.047 68.0061 103.87C69.2041 103.672 70.4021 103.502 71.6001 103.359C73.928 103.086 76.2559 102.902 78.5975 102.834C80.9867 102.766 83.369 102.807 85.7514 102.964C86.8133 103.032 88.1951 103.393 88.9098 102.364C89.1684 101.996 89.2093 101.567 89.3318 101.144C89.4475 100.749 89.6517 100.374 89.958 100.102C90.5843 99.5296 91.088 99.8907 91.2037 100.661C91.2854 101.199 91.1696 101.744 91.122 102.282C91.0607 102.909 91.0675 103.488 91.2581 104.074C91.1833 104.272 91.2173 104.51 91.367 104.667C91.8912 105.212 92.2451 105.784 92.6671 106.418C92.7216 106.507 92.7897 106.595 92.8509 106.677C91.7006 107.038 90.6047 107.59 89.4543 107.965C88.3176 108.326 87.1672 108.619 85.9965 108.837C84.8393 109.048 83.6753 109.218 82.4978 109.293C81.2794 109.368 80.0541 109.3 78.8357 109.423C78.1823 109.491 78.1482 110.561 78.7676 110.71C79.9861 111.024 81.2589 110.997 82.5046 110.935C83.7638 110.874 85.0367 110.751 86.2755 110.513C87.4735 110.288 88.6579 109.975 89.8083 109.586C90.9859 109.191 92.3336 108.769 93.3682 108.074C93.5452 107.951 93.6813 107.787 93.7426 107.603C94.1442 107.91 94.6071 108.135 95.1584 108.258C97.0303 108.687 99.3786 108.782 100.971 110.043C101.856 110.744 102.203 111.623 102.428 112.7C102.503 113.075 103.231 116.229 103.109 116.25C102.639 116.338 102.169 116.42 101.7 116.495Z" fill="#1D1D1B"/>
<path d="M274.171 297.392C273.504 295.757 272.517 294.183 271.605 292.677C270.748 291.246 269.795 289.87 268.78 288.548C267.807 287.288 266.766 286.089 265.649 284.951C265.03 284.324 264.383 283.731 263.703 283.172C263.362 282.9 263.001 282.607 262.607 282.389C262.464 282.055 262.3 281.735 262.103 281.455C261.756 280.972 261.415 280.461 261.041 279.997C260.279 279.043 259.339 278.212 258.461 277.361C256.501 275.453 254.527 273.565 252.546 271.678C250.688 269.907 248.782 268.169 246.931 266.391C246.012 265.512 245.147 264.694 244.017 264.081C242.976 263.523 241.887 263.086 240.77 262.719C240.573 262.657 240.376 262.596 240.185 262.535C240.131 262.262 240.028 262.003 239.886 261.765C239.069 260.382 237.667 259.612 236.244 258.964C234.801 258.31 233.324 257.724 231.819 257.2C225.843 255.115 219.452 254.066 213.121 254.14C209.759 254.181 206.464 254.577 203.353 255.919C200.569 257.132 197.942 258.828 195.417 260.497C190.366 263.829 185.778 267.876 183.178 273.45C181.96 276.046 181.231 279.023 181.401 281.905C181.456 282.818 181.66 283.711 182.436 284.297C183.192 284.848 184.172 284.869 184.989 284.446C185.731 284.058 186.241 283.411 186.724 282.757C186.956 282.443 187.187 282.144 187.412 281.837C188.542 281.667 189.447 280.822 190.012 279.875C192.531 276.979 195.029 274.097 197.54 271.208C198.636 269.948 199.657 268.735 201.148 268.053C202.652 267.365 204.422 266.943 206.11 266.629C206.28 266.595 206.444 266.575 206.6 266.548C205.736 267.284 204.987 268.21 204.245 269.048C202.394 271.133 200.597 273.266 198.868 275.453C197.22 277.538 195.553 279.636 194.089 281.857C192.701 283.963 191.53 286.375 191.448 288.943C191.414 290.088 191.584 291.383 192.02 292.554C191.326 292.752 190.693 293.079 190.121 293.515C188.338 293.72 186.901 295.178 186.602 296.97C186.275 298.959 187.63 300.492 189.413 301.105C190.25 301.398 191.149 301.507 192.02 301.657C193.041 301.834 194.069 301.998 195.097 302.148C197.125 302.447 199.154 302.706 201.189 302.938C205.287 303.408 209.398 303.865 213.516 304.137C215.599 304.273 217.661 304.246 219.737 304.049C221.46 303.885 223.182 303.626 224.897 303.388C225.591 303.381 226.292 303.374 226.993 303.36C228.913 303.313 230.832 303.238 232.745 303.129C233.412 303.238 234.004 303.374 234.78 303.49C235.359 303.579 235.958 303.524 236.503 303.279C236.754 303.17 236.952 303.006 237.115 302.809C237.319 302.795 237.49 302.781 237.653 302.761C238.082 302.74 238.47 302.734 238.626 302.747C238.626 302.761 238.824 302.809 238.905 302.836C239.225 303.115 239.3 303.183 239.368 303.265C239.375 303.286 239.484 303.422 239.532 303.483C239.572 303.551 239.661 303.674 239.681 303.701C239.899 304.035 240.117 304.369 240.335 304.71C240.879 305.541 241.424 306.372 241.962 307.203C242.322 308.729 243.269 310.078 244.514 311.107C244.766 311.496 245.018 311.884 245.277 312.272C245.699 312.913 246.4 313.294 247.176 313.001C247.332 312.94 247.475 312.858 247.598 312.756C248.129 312.92 248.673 313.029 249.224 313.083C251.77 313.322 254.289 312.559 256.617 311.591C258.74 310.712 260.823 309.683 262.879 308.655C264.846 307.673 266.793 306.631 268.631 305.418C269.631 304.764 270.605 304.069 271.537 303.32C271.959 302.972 272.374 302.618 272.776 302.25C273.327 301.746 274.11 301.16 274.151 300.356C274.165 299.899 274.131 299.436 274.056 298.966C274.369 298.496 274.396 297.951 274.171 297.392ZM211.351 292.139C211.828 291.798 212.27 291.383 212.699 291.035C213.407 290.463 214.122 289.884 214.83 289.311C215.538 288.739 216.239 288.173 216.94 287.601C217.015 288.133 217.056 288.644 217.069 289.175V289.427C216.77 290.04 216.409 290.613 215.953 291.205C215.701 291.526 215.429 291.832 215.122 292.098C214.496 292.282 213.829 292.391 213.237 292.391C212.543 292.384 211.95 292.309 211.351 292.139Z" fill="white"/>
<path d="M217.101 288.29C216.72 288.222 216.203 288.44 216.121 288.862C216.067 289.128 215.985 289.387 215.89 289.639C215.835 289.755 215.801 289.809 215.767 289.864C215.699 289.973 215.631 290.082 215.549 290.184C215.304 290.45 215.209 290.538 215.114 290.627C215.066 290.668 215.012 290.708 214.964 290.749C214.794 290.865 214.685 290.933 214.569 290.995C214.453 291.056 214.338 291.11 214.215 291.165C213.834 291.288 213.705 291.315 213.582 291.342C213.521 291.356 213.453 291.362 213.391 291.369C213.344 291.376 213.146 291.376 213.357 291.376C213.099 291.376 212.847 291.397 212.588 291.383C212.343 291.369 212.057 291.301 211.812 291.356C211.322 291.301 211.002 291.948 211.343 292.269C211.724 292.875 212.745 293.059 213.276 293.039C214.004 293.011 214.705 292.834 215.359 292.507C216.645 291.853 217.646 290.633 217.823 289.182C217.864 288.746 217.496 288.358 217.101 288.29Z" fill="#1D1D1B"/>
<path d="M294.884 321.115C294.422 320.277 294.006 319.404 293.496 318.587C293.053 317.878 292.577 317.204 292.012 316.597C292.026 316.481 292.026 316.372 291.985 316.257C290.95 313.3 288.935 310.983 286.791 308.769C284.422 306.323 282.163 303.809 279.964 301.213C275.26 295.646 270.577 290.066 265.847 284.533L261.824 279.819C260.735 278.544 259.605 277.325 258.434 276.126C258.427 275.949 258.373 275.765 258.243 275.594C256.739 273.571 254.99 271.779 253.159 270.055C251.355 268.358 249.469 266.75 247.502 265.245C243.738 262.349 239.668 259.869 235.366 257.873C226.925 253.955 217.328 252.102 208.077 253.635C200.243 254.936 192.735 258.976 187.405 264.884C184.744 267.834 182.606 271.227 181.265 274.974C180.591 276.855 180.006 278.912 179.918 280.915C179.87 281.951 179.992 283.082 180.551 283.988C181.143 284.949 182.089 285.562 183.205 285.726C185.377 286.039 187.494 284.567 188.943 283.116C190.645 281.413 192.095 279.485 193.545 277.563C196.145 274.116 199.092 270.307 203.387 268.938C203.272 269.067 203.142 269.196 203.027 269.333C199.896 272.821 197.071 276.562 194.294 280.343C192.912 282.224 191.503 284.179 190.829 286.441C190.305 288.213 190.298 290.168 190.985 291.885C189.107 292.144 187.208 293.377 186.268 295.04C185.295 296.777 185.601 298.916 187.078 300.266C188.528 301.581 190.516 302.098 192.401 302.405C195.07 302.841 197.751 303.188 200.433 303.502C211.256 304.769 222.181 305.212 233.079 304.776C234.978 304.701 236.877 304.599 238.776 304.469C239.368 305.689 240.328 306.772 241.104 307.863C241.962 309.062 242.819 310.254 243.622 311.487C245.154 313.831 246.583 316.229 247.87 318.709C247.237 320.242 249.463 321.401 250.559 321.884C252.029 322.532 253.56 323.009 255.133 323.322C256.78 323.649 258.386 323.949 260.068 323.969C260.871 323.983 261.674 323.956 262.464 323.888C263.376 323.819 264.322 323.792 264.88 323.097C265.86 323.199 266.834 323.288 267.814 323.349C269.856 323.472 271.891 323.561 273.933 323.588C278.017 323.656 282.101 323.574 286.179 323.329C288.554 323.179 290.964 323.07 293.326 322.736C293.537 322.709 293.707 322.62 293.85 322.504C294.006 322.539 294.183 322.532 294.367 322.464C294.878 322.273 295.17 321.632 294.884 321.115ZM272.973 297.322C273.007 297.567 273.089 297.813 273.109 298.058C273.157 298.671 273.062 299.298 272.885 299.891C272.531 301.049 271.85 302.057 270.999 302.909C269.202 304.708 266.908 306.043 264.621 307.12C260.088 309.252 254.956 310.199 249.966 309.62C248.578 309.457 247.203 309.157 245.862 308.748C245.263 308.571 244.677 308.373 244.133 308.06C243.976 307.972 243.813 307.869 243.663 307.747C243.473 307.488 243.275 307.236 243.078 306.984C243.023 306.793 242.915 306.684 242.785 306.616C242.098 305.778 241.485 304.98 240.784 304.299C241.308 304.258 241.825 304.224 242.35 304.176C245.44 303.918 248.517 303.516 251.593 303.12C252.117 303.052 252.444 302.432 252.342 301.948C252.219 301.383 251.695 301.138 251.171 301.199C246.059 301.812 240.893 302.194 235.754 302.453C230.574 302.712 225.387 302.787 220.207 302.698C215.02 302.609 209.84 302.33 204.681 301.874C202.101 301.642 199.521 301.369 196.948 301.042C194.811 300.77 192.565 300.627 190.502 299.979C189.045 299.516 187.208 298.528 187.541 296.702C187.711 295.789 188.433 295.081 189.107 294.495C189.835 293.861 190.638 293.343 191.38 292.737C192.36 294.392 194.096 295.476 196.056 295.333C197.037 295.265 198.037 294.917 198.82 294.317C199.385 296 201.413 297.281 203.108 297.561C206.117 298.065 208.812 295.905 210.841 293.963C215.905 289.119 220.935 284.22 226.238 279.635C227.695 278.374 229.144 277.093 230.642 275.887C231.323 275.342 232.03 274.831 232.827 274.463C233.126 274.32 233.433 274.225 233.739 274.157C231.323 276.827 228.995 279.58 226.776 282.408C225.469 284.063 223.869 285.794 223.243 287.858C222.698 289.657 223.086 291.803 224.659 292.975C226.544 294.379 228.736 293.221 230.349 292.001C232.269 290.556 234.161 289.085 236.06 287.62C239.634 284.881 243.997 280.691 248.925 281.972C250.089 282.271 250.688 280.534 249.517 280.18C245.406 278.926 241.437 281.154 238.225 283.518C236.489 284.799 234.78 286.121 233.058 287.422C232.18 288.09 231.295 288.758 230.417 289.425C229.6 290.045 228.797 290.734 227.885 291.217C227.279 291.538 226.537 291.756 225.945 291.367C225.435 291.033 225.169 290.393 225.081 289.787C224.836 288.09 226.238 286.468 227.204 285.208C229.764 281.849 232.459 278.599 235.291 275.478C236.094 274.586 236.911 273.707 237.735 272.842C238.381 272.167 239.075 271.479 239.974 271.165C240.743 270.907 241.587 270.886 242.37 271.056C243.119 271.22 243.99 271.554 244.562 272.072C245.208 272.658 246.127 271.854 245.576 271.159C244.997 270.43 244.364 269.891 243.507 269.51C242.703 269.156 241.805 268.999 240.927 269.047C240.008 269.094 239.103 269.319 238.299 269.776C237.374 270.3 236.611 271.056 235.883 271.826C235.672 272.044 235.475 272.269 235.264 272.494C232.323 271.82 229.614 274.545 227.579 276.276C224.985 278.469 222.412 280.704 219.833 282.919C217.273 285.113 214.802 287.409 212.338 289.698C211.174 290.781 210.031 291.905 208.84 292.962C207.839 293.847 206.757 294.719 205.491 295.196C204.313 295.639 203.122 295.626 202.026 294.978C200.971 294.352 200.488 293.439 200.331 292.239C200.324 292.164 200.297 292.089 200.263 292.028C200.338 291.551 200.175 291.067 199.671 290.904C199.242 290.761 198.595 290.999 198.5 291.49C198.262 292.709 197.132 293.404 195.92 293.439C194.45 293.486 193.327 292.566 192.748 291.19C191.183 287.518 194.048 283.845 196.104 281.059C201.039 274.388 206.593 267.316 213.441 262.39C217.096 259.76 221.555 257.9 226.136 258.602C226.823 258.711 226.891 257.723 226.347 257.484C225.326 257.035 224.169 256.701 223.045 256.653C221.929 256.605 220.779 256.81 219.703 257.096C217.45 257.689 215.333 258.745 213.387 260.012C210.596 261.831 208.057 264.039 205.695 266.417C201.631 266.635 198.037 269.108 195.335 272.051C193.756 273.775 192.374 275.676 190.951 277.529C189.624 279.273 188.235 281.147 186.479 282.496C185.397 283.334 183.13 284.458 182.252 282.796C181.837 282.019 181.912 281.052 182.021 280.2C182.137 279.308 182.348 278.422 182.586 277.55C183.559 273.973 185.309 270.668 187.609 267.766C192.245 261.913 199.065 257.791 206.301 256.094C214.85 254.091 223.889 255.474 231.956 258.704C236.128 260.373 240.083 262.533 243.786 265.081C245.705 266.41 247.564 267.834 249.347 269.353C251.151 270.886 252.818 272.549 254.5 274.204C255.33 275.022 256.14 275.86 256.971 276.678C257.086 276.793 257.216 276.868 257.345 276.909C258.196 278.067 259.067 279.205 259.972 280.33C261.102 281.726 262.28 283.089 263.43 284.465C265.738 287.211 268.059 289.95 270.387 292.689C271.347 293.827 272.306 294.958 273.273 296.096C273.184 296.239 273.028 296.457 273.028 296.47C272.939 296.77 272.933 297.07 272.973 297.322Z" fill="#1D1D1B"/>
<path d="M224.344 269.512C222.309 270.084 220.396 270.786 218.558 271.849C215.284 273.743 212.466 276.42 209.982 279.255C208.695 280.72 207.491 282.266 206.327 283.833C205.169 285.4 204.094 287.049 202.848 288.548C202.447 289.025 201.746 288.575 202.038 288.01C203.093 285.993 204.468 284.106 205.796 282.259C208.124 279.023 210.676 275.882 213.732 273.307C216.652 270.854 220.206 268.667 223.997 267.931C225.011 267.74 225.331 269.232 224.344 269.512Z" fill="#1D1D1B"/>
<path d="M105.389 201.139C104.79 201.132 104.191 201.153 103.592 201.187C101.767 201.262 99.9432 201.405 98.1394 201.255C91.8295 200.71 86.2343 197.201 80.9454 193.999C78.0865 192.261 75.2617 190.476 72.4641 188.644C71.0687 187.724 69.6801 186.797 68.2983 185.85C66.9302 184.91 65.4803 184.004 64.2551 182.879C63.976 182.627 64.0237 182.15 64.2483 181.885C64.5069 181.585 64.8949 181.564 65.2285 181.742C66.9029 182.614 68.4345 183.813 70.0068 184.862C71.5316 185.884 73.0699 186.886 74.6151 187.874C77.399 189.659 80.217 191.41 83.0555 193.106C85.6897 194.68 88.3308 196.268 91.1624 197.467C93.9804 198.666 96.9073 199.375 99.984 199.347C101.059 199.341 102.128 199.279 103.197 199.238C103.782 199.211 104.374 199.191 104.967 199.184C105.116 199.831 105.252 200.485 105.389 201.139Z" fill="#1D1D1B"/>
<path d="M110.964 148.518C110.848 149.86 109.902 150.474 108.677 150.692C107.581 150.889 106.451 150.957 105.342 150.869C105.124 150.855 104.892 150.835 104.654 150.814C104.6 150.862 104.545 150.903 104.484 150.93C103.987 151.189 103.354 150.971 102.898 150.732C102.04 150.283 101.489 149.159 101.081 148.321C100.128 146.372 99.6171 144.287 99.4469 142.134C99.1542 138.407 100.005 134.619 101.952 131.423C102.469 130.585 103.109 129.604 104.15 129.4C104.824 129.27 105.505 129.488 105.954 130.013C106.315 130.435 106.437 131.014 106.553 131.539C107.023 133.631 106.921 135.791 107.227 137.903C107.363 138.836 107.574 139.749 107.962 140.615C108.337 141.446 108.799 142.229 109.249 143.027C110.188 144.675 111.134 146.549 110.964 148.518Z" fill="white"/>
<path d="M121.072 179.234C119.125 172.816 120.868 166.03 119.779 159.503C118.833 153.834 115.286 149.405 112.223 144.731C110.78 142.53 109.412 140.214 108.691 137.666C108.296 136.269 108.187 134.865 108.064 133.421C107.935 131.902 107.642 130.294 106.519 129.169C105.519 128.168 104.048 127.575 102.667 128.113C102.013 128.372 101.68 129.108 101.346 129.694C101.012 130.28 100.713 130.893 100.441 131.506C99.3857 133.891 98.8343 136.514 98.7526 139.124C98.5893 144.411 100.345 149.787 103.919 153.725C104.416 154.27 104.94 154.795 105.709 154.876C106.029 154.91 106.403 154.658 106.485 154.345C106.587 153.977 106.533 153.575 106.158 153.391C106.097 153.357 106.029 153.343 105.968 153.337C105.757 153.153 105.634 152.948 105.491 152.791C105.185 152.458 104.886 152.11 104.606 151.756C104.089 151.102 103.626 150.414 103.211 149.698C102.353 148.213 101.707 146.619 101.264 144.956C100.393 141.645 100.345 138.102 101.237 134.784C101.72 133.005 102.456 131.322 103.449 129.776C104.007 129.612 104.593 129.871 105.035 130.232C105.648 130.73 105.947 131.445 106.118 132.201C106.342 133.203 106.349 134.232 106.444 135.247C106.519 136.071 106.662 136.889 106.873 137.693C107.704 140.902 109.453 143.75 111.284 146.475C113.135 149.214 115.123 151.892 116.525 154.897C118.152 158.372 118.465 162.126 118.431 165.914C118.397 170.486 117.995 175.167 119.255 179.629C119.581 180.788 121.419 180.379 121.072 179.234Z" fill="#1D1D1B"/>
<path d="M104.953 199.184C105.11 199.831 105.253 200.485 105.389 201.132C105.43 201.33 105.471 201.527 105.512 201.718C106.247 205.179 106.75 208.681 107.077 212.204C107.24 213.982 107.363 215.767 107.438 217.546C107.506 219.283 107.656 221.123 107.404 222.847C107.343 223.269 107.077 223.582 106.648 223.623C106.274 223.657 105.818 223.392 105.77 222.99C105.539 221.007 105.654 218.963 105.566 216.967C105.409 213.478 105.069 210.003 104.538 206.562C104.273 204.818 103.973 203.067 103.626 201.337C103.463 200.533 103.32 199.885 103.184 199.231L104.953 199.184Z" fill="#1D1D1B"/>
<path d="M134.304 228.965C134.127 228.038 133.923 227.119 133.692 226.212C133.236 224.414 132.671 222.642 132.092 220.878C130.935 217.355 129.676 213.867 128.743 210.276C126.919 203.279 126.17 196.063 124.496 189.032C124.026 187.063 123.488 185.107 122.842 183.179C122.195 181.251 121.474 179.391 120.303 177.721C120.031 177.333 119.411 177.708 119.513 178.13C119.942 179.854 120.555 181.51 121.086 183.199C121.623 184.896 122.079 186.62 122.474 188.357C123.284 191.859 123.904 195.395 124.523 198.932C125.136 202.447 125.755 205.963 126.599 209.438C127.47 213.029 128.668 216.517 129.839 220.019C130.499 221.988 131.139 223.964 131.684 225.974C131.956 226.976 132.215 227.977 132.439 228.986C132.671 230.028 132.752 231.118 133.208 232.086C133.542 232.801 134.461 232.433 134.57 231.793C134.726 230.859 134.481 229.898 134.304 228.965Z" fill="#1D1D1B"/>
<path d="M261.428 324.344C261.197 324.733 260.788 325.019 260.21 325.005C245.5 324.583 230.757 324.773 216.04 324.719C189.929 324.61 163.812 324.821 137.701 324.869C124.577 324.896 111.454 324.882 98.3371 324.876C91.7754 324.876 85.2136 324.862 78.6587 324.828C75.4459 324.814 72.2331 324.801 69.0202 324.76C65.6713 324.712 62.3292 324.746 59.0006 324.378C58.7284 324.351 58.5242 324.181 58.4016 323.976C57.5031 323.922 56.5978 323.704 55.7742 323.349C52.4048 321.885 50.3628 318.587 50.6146 314.908C50.6487 314.349 50.744 313.804 50.8733 313.259C50.3356 313.225 49.8046 313.184 49.2669 313.129C49.0559 313.109 48.8993 312.993 48.7904 312.836C48.6883 312.843 48.5862 312.857 48.4773 312.864C45.4619 312.973 42.324 311.705 39.7986 310.145C37.1168 308.483 34.8365 306.227 33.0191 303.659C29.0847 298.113 26.9746 291.524 24.6059 285.215C21.9444 278.129 19.2829 271.043 16.6215 263.957C13.96 256.871 11.3054 249.778 8.65752 242.686C7.337 239.156 6.00967 235.627 4.70958 232.091C3.48435 228.752 2.19106 225.434 1.10878 222.048C1.06113 222 1.01348 221.939 0.979446 221.877C0.189856 220.365 0.850117 218.287 1.56483 216.87C2.29997 215.398 3.42309 214.137 4.76403 213.184C7.83389 210.996 11.8635 210.295 15.5732 210.383C15.6481 210.383 15.723 210.397 15.7979 210.41C20.0861 210.206 24.4085 210.295 28.7036 210.267C33.2641 210.24 37.8179 210.213 42.3784 210.192C58.5378 210.097 74.6903 210.145 90.8497 210.145C98.8885 210.145 106.921 210.138 114.953 210.138H133.099C135.162 210.138 137.252 210.145 139.294 210.417C139.573 210.458 139.791 210.622 139.927 210.84C141.247 210.703 142.731 211.078 143.915 211.494C145.461 212.039 146.924 212.816 148.251 213.783C154.922 218.634 157.277 227.996 159.428 235.491C162.124 244.907 165.65 253.873 169.101 263.051C171.721 270.007 174.342 276.964 176.963 283.92C178.263 287.361 179.495 290.931 181.074 294.318C181.952 296.191 182.932 298.01 184.089 299.714C184.096 300.061 184.089 300.409 184.076 300.756C184.042 301.594 183.96 302.432 183.803 303.264C183.599 304.401 183.272 305.519 182.823 306.582C188.52 306.473 194.211 306.486 199.908 306.452C207.11 306.418 214.305 306.404 221.506 306.398C228.225 306.384 234.984 306.166 241.688 306.677C244.922 306.922 248.141 307.372 251.286 308.162C254.301 308.912 257.364 309.968 260.026 311.603C262.476 313.109 264.559 315.405 264.777 318.382C264.961 320.89 263.729 323.322 261.428 324.344Z" fill="#1D1D1B"/>
<path d="M72.6076 174.688C72.3489 174.463 72.0154 174.32 71.6751 174.218C71.6002 173.945 71.3619 173.659 70.8582 173.271C70.1299 172.698 63.8404 170.443 62.9487 170.15C63.7656 170.123 68.1491 169.864 68.6937 169.19C68.7617 169.196 68.8298 169.196 68.8979 169.196C69.5649 169.128 70.0755 168.617 70.1299 167.929C70.266 166.069 69.4901 164.311 68.2512 162.962C67.9994 162.512 67.6931 162.09 67.3187 161.736C66.3998 160.864 65.1065 160.332 63.854 160.421C62.2068 159.991 60.4779 159.93 58.7557 159.985C58.8715 159.228 58.8783 158.458 58.7694 157.709C58.8783 157.675 58.9804 157.634 59.0757 157.6C60.4438 157.055 61.5261 155.747 61.9209 154.343C62.3429 152.858 62.0707 151.209 61.2606 149.908C60.403 148.531 59.2118 147.646 57.7824 146.951C57.5577 146.842 57.2446 146.692 56.9724 146.508C56.8975 146.46 56.843 146.419 56.7886 146.371C56.6593 145.969 56.4755 145.588 56.2304 145.234C56.1283 144.784 56.0875 144.293 56.033 143.85C55.8288 142.311 55.6587 140.764 55.4272 139.231C55.5634 139.04 55.6518 138.815 55.6655 138.57C55.7063 138.045 55.4953 137.534 55.2979 137.051C55.1413 136.662 54.9235 136.322 54.6785 135.988C54.0931 135.197 53.1537 134.761 52.194 134.693C51.7039 134.659 51.207 134.72 50.7237 134.795C50.0771 134.891 49.5053 135.191 49.1377 135.743C48.8859 136.124 48.7021 136.601 48.5387 137.023C48.3617 137.48 48.2324 137.991 48.2324 138.481C48.2324 139.074 48.3686 139.599 48.6953 140.089C48.7021 141.064 48.9539 142.038 49.444 142.869C49.8661 143.585 50.4242 144.184 51.1117 144.661C51.7175 145.084 52.3982 145.39 53.038 145.758C53.3443 145.935 53.603 146.106 53.8276 146.303C53.9638 146.746 54.1543 147.155 54.3994 147.523C54.2632 147.707 54.3381 147.639 54.168 147.782C54.1271 147.809 54.0454 147.857 53.9093 147.932C53.78 148 53.6574 148.061 53.5281 148.122C53.1742 148.3 52.8406 148.477 52.5207 148.702C51.8809 149.151 51.418 149.744 51.0845 150.453C50.4991 151.713 50.4719 153.26 50.9143 154.561C51.4316 156.094 52.4595 157.355 53.6302 158.452C54.168 158.956 54.7329 159.426 55.2775 159.93C55.1481 160.148 55.0937 160.223 55.046 160.298C54.2565 160.448 53.5485 160.857 52.9836 161.456C52.2757 162.206 51.5133 163.201 51.5337 164.284C51.5473 164.815 51.6494 165.354 51.7515 165.878C51.8468 166.396 51.9694 166.934 52.1804 167.425C52.405 167.949 52.8474 168.556 53.3852 168.876C53.6166 169.666 53.8821 170.457 54.1203 171.234C54.6104 172.828 55.0052 174.497 55.6927 176.023C55.9105 176.5 56.1692 176.977 56.4823 177.413C56.3393 177.427 56.1964 177.441 56.0534 177.461C55.6314 177.515 55.3455 177.986 55.3864 178.381C55.434 178.837 55.7607 179.117 56.1964 179.178C58.9531 179.559 61.7099 179.614 64.4871 179.648C65.4741 179.662 66.4815 179.703 67.4344 179.491C68.0743 179.716 68.8434 179.682 69.4424 179.512C69.9393 179.376 70.3886 179.144 70.831 178.885C71.2258 178.653 71.6274 178.408 71.9814 178.115C72.4034 177.774 72.7301 177.352 72.9479 176.855C73.2678 176.153 73.2066 175.199 72.6076 174.688Z" fill="white"/>
<path d="M73.9879 175.192C73.668 174.728 73.28 174.306 72.8376 173.951C72.8376 173.618 72.6606 173.277 72.2318 173.1C70.8976 172.548 69.4546 172.187 68.0796 171.751C66.691 171.315 65.3024 170.872 63.9138 170.436C63.5939 170.334 63.2672 170.231 62.9473 170.136C64.7579 170.347 66.5957 170.599 68.2702 170.081C69.7337 169.625 70.9317 168.617 71.3537 167.097C71.7008 165.85 71.4762 164.501 70.496 163.656C70.8636 162.491 69.8221 161.939 68.9441 161.476C67.923 160.945 66.868 160.495 65.7721 160.147C63.6552 159.473 61.4021 159.16 59.1831 159.228C57.9375 159.269 56.6306 159.378 55.3917 159.705C54.888 159.112 54.2958 158.601 53.7717 158.022C53.2544 157.449 52.7847 156.829 52.3899 156.168C51.6208 154.888 50.9741 153.382 50.8516 151.876C50.7359 150.493 51.3893 149.423 52.5669 148.742C53.1183 148.422 53.7105 148.176 54.3094 147.979C54.4388 147.938 54.5817 147.897 54.7315 147.863C54.82 147.911 54.9221 147.938 55.031 147.945C55.7116 147.979 56.3583 147.863 57.039 147.938C57.6516 148.013 58.2574 148.19 58.8224 148.435C59.9659 148.926 60.9665 149.798 61.5859 150.881C62.2258 151.992 62.5184 153.266 62.43 154.547C62.3891 155.14 62.287 155.814 62.0147 156.346C61.7493 156.87 60.7963 156.768 60.2994 156.788C58.4139 156.863 56.5829 156.55 54.7179 156.441C54.0099 156.4 53.9078 157.347 54.5 157.606C56.3106 158.396 58.4616 158.512 60.4151 158.437C61.2728 158.403 62.2734 158.417 62.9677 157.824C63.5939 157.293 63.839 156.393 63.9955 155.623C64.649 152.333 63.1855 148.817 60.2177 147.168C58.9993 146.487 57.3317 145.948 55.8478 146.085C55.7457 146.03 55.6368 145.996 55.5279 145.976C54.8948 145.437 54.1665 144.995 53.479 144.538C52.6622 144.007 51.8318 143.489 51.0422 142.916C50.3887 142.439 49.7557 141.888 49.3677 141.165C48.9729 140.436 48.8368 139.598 48.8572 138.781C48.8844 137.432 49.2452 135.49 50.7631 135.061C51.5323 134.843 52.3491 135.081 53.0638 135.367C53.4654 135.531 53.8534 135.728 54.2278 135.953C54.6498 136.198 55.065 136.587 55.5755 136.546C56.0588 136.512 56.6714 136.083 56.4604 135.497C56.2834 134.992 56.018 134.788 55.5755 134.515C55.1603 134.263 54.7315 134.032 54.2958 133.821C53.5403 133.459 52.7507 133.187 51.9135 133.091C50.2322 132.894 48.619 133.718 47.809 135.204C46.9989 136.696 46.7811 138.549 47.067 140.211C47.3665 141.963 48.4079 143.318 49.8238 144.34C50.627 144.92 51.4914 145.41 52.3287 145.935C52.6282 146.119 52.9345 146.316 53.2408 146.507C52.9753 146.609 52.7098 146.711 52.4512 146.834C51.3553 147.352 50.3071 148.129 49.7353 149.219C48.3807 151.787 49.8374 155.153 51.3417 157.347C52.0564 158.396 52.9277 159.466 54.0031 160.182C53.7581 160.291 53.5267 160.4 53.2952 160.536C52.5329 160.965 51.8182 161.558 51.3757 162.321C50.8176 163.288 50.7359 164.385 50.9265 165.469C51.1375 166.627 51.6003 167.785 52.1993 168.794C52.6146 169.495 53.1114 170.218 53.7173 170.797C53.234 170.974 52.7915 171.212 52.5737 171.744C52.3355 172.323 52.4648 172.95 52.5533 173.549C52.6622 174.299 52.7847 175.055 52.9277 175.798C53.1659 177.079 53.3701 178.414 53.7921 179.641C54.2005 180.826 54.9357 181.671 56.1132 182.134C57.4474 182.659 58.9925 182.754 60.3947 182.993C61.9875 183.265 63.5803 183.586 65.1935 183.674C65.9218 183.715 66.1397 182.625 65.4318 182.407C63.0222 181.657 60.4764 181.358 58.0055 180.86C57.1751 180.69 56.1881 180.492 55.7185 179.702C55.1875 178.809 55.0854 177.576 54.8812 176.581C54.6362 175.348 54.432 174.108 54.2618 172.861C54.2686 172.909 54.2414 172.568 54.2278 172.541C54.3911 172.446 54.5817 172.398 54.7655 172.343C55.3781 172.146 55.9907 171.955 56.6101 171.798C57.7605 171.499 58.9381 171.301 60.1361 171.396C61.2728 171.492 62.3687 171.873 63.451 172.221C64.8055 172.657 66.1601 173.093 67.5078 173.522C68.5561 173.856 69.6179 174.251 70.6798 174.565C70.9861 174.735 71.2992 174.899 71.5783 175.11C72.0956 175.498 72.504 176.023 72.7831 176.602C72.858 176.752 73.0009 177.086 72.9397 177.181C72.8035 177.385 72.1637 177.563 71.9323 177.658C71.1835 177.971 70.3939 178.176 69.5975 178.326C67.9843 178.625 66.3303 178.632 64.6966 178.516C63.0222 178.401 61.3 178.217 59.6664 177.835C59.0674 177.692 58.4684 177.978 58.3459 178.625C58.2302 179.245 58.6726 179.784 59.292 179.838C60.8848 179.981 62.464 180.281 64.0636 180.404C65.67 180.533 67.29 180.533 68.8896 180.336C70.4279 180.145 71.9459 179.729 73.3413 179.048C74.0968 178.68 74.7639 178.155 74.7911 177.249C74.7979 176.52 74.4031 175.791 73.9879 175.192ZM56.018 170.088C55.664 170.184 55.3169 170.293 54.9697 170.402C54.5613 169.85 54.1189 169.325 53.7513 168.746C53.268 167.99 52.8664 167.165 52.5941 166.314C52.3082 165.421 52.0768 164.42 52.4035 163.513C52.635 162.866 53.1455 162.355 53.7241 162.008C55.0854 161.17 56.7599 160.911 58.3255 160.815C60.2041 160.693 62.1032 160.849 63.9343 161.299C64.9553 161.551 65.9559 161.871 66.9224 162.28C68.0252 162.743 69.0189 163.377 69.3933 164.583C70.0127 166.579 68.665 168.242 66.6842 168.426C65.2548 168.555 63.7709 168.296 62.3415 168.167C61.5383 168.092 60.7283 168.017 59.9251 167.949C59.1082 167.874 58.1144 167.724 57.3181 167.983C56.828 168.146 56.5693 168.869 57.1002 169.175C57.5018 169.407 57.9715 169.543 58.4548 169.625C57.638 169.7 56.8143 169.87 56.018 170.088Z" fill="#1D1D1B"/>
<path d="M157.795 118.728C161.042 112.501 165.33 105.074 161.804 98.0361C160.729 95.8831 159.075 94.0979 157.543 92.2651C156.025 90.446 154.732 88.511 153.908 86.2762C152.329 82.0178 152.39 77.2552 153.881 72.9832C154.249 71.9271 154.677 70.8847 155.12 69.8627C155.324 69.3925 154.637 69.1405 154.357 69.4947C151.58 73.0241 150.927 78.0183 151.471 82.3653C151.757 84.6341 152.431 86.8621 153.466 88.8993C154.541 91.0183 156.066 92.8034 157.584 94.609C159.034 96.3327 160.45 98.1451 161.123 100.325C161.627 101.954 161.736 103.637 161.532 105.326C161.103 108.938 159.388 112.324 157.727 115.506C155.95 118.919 154.024 122.305 152.792 125.964C151.505 129.78 151.288 133.65 152.561 137.506C153.99 141.833 156.631 146.132 155.099 150.806C153.786 154.826 150.675 157.967 148.973 161.816C147.973 164.078 147.687 166.463 147.891 168.916C148.122 171.662 148.858 174.333 149.103 177.072C149.552 182.059 148.592 187.183 146.434 191.693C145.91 192.783 145.311 193.833 144.665 194.855C144.093 195.761 145.454 196.653 146.053 195.761C148.844 191.591 150.457 186.617 150.818 181.623C151.002 179.061 150.811 176.506 150.376 173.978C149.899 171.219 149.225 168.419 149.6 165.598C150.158 161.353 153.316 158.028 155.304 154.41C156.304 152.591 157.087 150.636 157.23 148.544C157.393 146.146 156.692 143.829 155.855 141.608C155.004 139.353 153.963 137.152 153.5 134.774C153.146 132.962 153.2 131.088 153.548 129.276C154.269 125.542 156.052 122.081 157.795 118.728Z" fill="#1D1D1B"/>
</svg>
