<svg width="59" height="29" viewBox="0 0 59 29" fill="none" xmlns="http://www.w3.org/2000/svg">
<g style="mix-blend-mode:luminosity" opacity="0.6">
<path fill-rule="evenodd" clip-rule="evenodd" d="M0 28.995H28.5272V0.15625H0V28.995Z" fill="white"/>
<path fill-rule="evenodd" clip-rule="evenodd" d="M8.65651 9.47266C8.86718 9.94251 9.21136 10.4247 10.1548 11.0757C10.364 11.2213 10.5968 11.5244 10.4205 11.9506C10.2416 12.3764 9.91046 12.9816 10.1077 13.2176C10.3078 13.4533 11.0181 13.5759 11.5956 13.3416C11.5956 13.3416 11.7169 13.7102 11.9287 13.9464C11.9287 13.9464 11.8288 14.1497 11.4962 14.0471C11.4962 14.0471 11.6173 14.3499 11.4502 14.6755C11.4502 14.6755 11.0628 14.6083 10.8967 14.2487C10.8967 14.2487 10.7405 14.5288 10.4302 14.6301C10.4302 14.6301 10.175 14.4966 10.2318 13.9789C10.2318 13.9789 10.0421 14.4398 9.46648 14.5173C9.46648 14.5173 9.13286 14.092 9.56527 13.5201C9.56527 13.5201 9.25447 13.8006 8.69073 13.6658C8.69073 13.6658 8.60099 13.3748 9.11039 12.9707C9.11039 12.9707 8.53357 12.948 8.3125 12.4549C8.3125 12.4549 8.55621 12.1516 9.15433 12.2194C9.15433 12.2194 8.60099 12.0953 8.47838 11.423C8.47838 11.423 8.87775 11.1651 9.51009 11.5796C9.51009 11.5796 9.39771 11.3672 9.13286 11.1542C8.86718 10.9409 8.54497 10.3466 8.65651 9.47266Z" fill="#223549"/>
<path fill-rule="evenodd" clip-rule="evenodd" d="M10.9862 16.2325C10.901 16.1194 10.8388 16.0068 10.793 15.8984C10.8921 16.714 10.9265 17.2639 11.3627 17.7924C11.3627 17.7924 11.6254 17.4391 11.4563 16.5802C11.3839 16.5589 11.3005 16.5234 11.2219 16.4695C11.2219 16.4695 11.3211 16.8183 11.2581 17.1688C11.2581 17.1688 11.1024 17.0538 10.9862 16.2325Z" fill="#223549"/>
<path fill-rule="evenodd" clip-rule="evenodd" d="M10.2277 16.1469C10.1757 16.0806 10.0754 15.9397 10.0221 15.8398C9.98637 16.3139 9.86191 17.5597 10.2755 17.9506C10.2755 17.9506 10.559 17.7408 10.6581 15.9217C10.5984 16.0238 10.4929 16.1323 10.4416 16.1919C10.4416 16.1919 10.5107 16.7685 10.3062 17.176C10.3062 17.176 10.1011 17.0185 10.2277 16.1469Z" fill="#223549"/>
<path fill-rule="evenodd" clip-rule="evenodd" d="M9.24183 17.1072C9.58785 16.6871 9.69268 15.4276 9.69268 15.4276C9.74082 15.3948 9.78846 15.3594 9.83844 15.3201C9.85588 15.304 9.87601 15.2875 9.89429 15.2695C9.89429 15.315 9.89614 15.3631 9.90067 15.4104C9.85035 16.1689 9.79131 16.9497 9.55682 17.3385C9.32804 17.7199 8.90553 17.9176 8.90553 17.9176C8.51086 17.2061 8.98805 16.2527 9.38943 15.5893C9.4374 15.5705 9.48738 15.5468 9.53871 15.5208C9.39849 16.0312 9.13096 16.6387 9.24183 17.1072Z" fill="#223549"/>
<path fill-rule="evenodd" clip-rule="evenodd" d="M8.26312 14.9182C8.2611 14.9989 8.27603 15.0662 8.2871 15.0993C8.29079 15.1125 8.29666 15.132 8.30538 15.1513C7.97412 15.4798 7.7284 15.7943 7.23796 16.4832C6.74651 17.1727 5.96875 17.2001 5.96875 17.2001C6.04423 16.6418 6.19367 16.2007 6.61065 15.7248C7.02662 15.2493 7.55949 14.8146 7.95013 14.5273C8.0501 14.5728 8.1821 14.6026 8.34748 14.5826C8.36023 14.5818 8.37382 14.5802 8.38573 14.577C8.33373 14.6471 8.30169 14.7166 8.28576 14.7805C7.98838 14.9523 7.12876 15.3926 6.78039 16.1039C6.78039 16.1039 7.32434 15.9301 8.26312 14.9182Z" fill="#223549"/>
<path fill-rule="evenodd" clip-rule="evenodd" d="M7.64734 14.2225L7.67921 14.1633C7.69179 14.1435 7.70152 14.126 7.7146 14.1094C7.39458 14.2347 6.25586 14.6691 5.88753 14.8617C5.51853 15.0557 4.98515 15.4933 4.69531 16.3844C4.69531 16.3844 5.46385 16.4534 6.0982 15.9235C6.73272 15.3916 7.47207 14.6516 7.78773 14.4165C7.75603 14.3871 7.73154 14.3583 7.7146 14.334C7.7146 14.334 6.85583 15.1022 5.94858 15.4347C5.94858 15.4347 6.14231 15.0779 6.50159 14.8197C6.93819 14.5063 7.26543 14.4009 7.64734 14.2225Z" fill="#223549"/>
<path fill-rule="evenodd" clip-rule="evenodd" d="M6.99694 13.696C7.00968 13.6653 7.02226 13.6363 7.03518 13.6094C6.65896 13.686 5.72069 13.8001 5.30019 13.9293C4.88103 14.0604 4.12206 14.3704 3.67188 15.2395C3.67188 15.2395 4.33273 15.4452 5.57979 14.8524C6.82686 14.2586 7.21851 14.1352 7.45601 14.0713C7.26698 14.0575 7.13179 13.9928 7.06285 13.9492C6.5652 14.1735 5.89965 14.438 5.2393 14.456C5.2393 14.456 5.56403 14.2237 5.90737 14.077C6.27755 13.9209 6.6863 13.7779 6.99694 13.696Z" fill="#223549"/>
<path fill-rule="evenodd" clip-rule="evenodd" d="M7.02905 13.0732C7.15082 13.1308 7.24441 13.1596 7.40426 13.1763C7.31754 13.2336 7.23519 13.3055 7.16138 13.403C6.72143 13.5311 5.97151 13.6707 4.73502 13.7611C3.49969 13.8501 2.83984 13.6215 2.83984 13.6215C3.27057 13.3551 3.95726 13.0849 4.4222 12.9941C4.88647 12.9033 6.10637 12.9138 6.64092 12.8398C6.64679 12.8461 6.71154 12.899 6.81704 12.9635C6.36736 13.004 5.40878 13.0489 4.91499 13.3034C4.91499 13.3034 5.82693 13.4257 7.02905 13.0732Z" fill="#223549"/>
<path fill-rule="evenodd" clip-rule="evenodd" d="M6.92993 12.3511C6.99266 12.3138 7.06763 12.2768 7.16005 12.2422C6.53358 12.0511 5.67498 11.7444 4.38112 11.6598C3.43328 11.5969 2.74928 11.6518 2.39453 11.7444C2.39453 11.7444 3.25867 12.3591 4.24509 12.5758C5.23335 12.7935 6.03509 12.6563 6.62114 12.6616C6.65904 12.6032 6.70316 12.5369 6.77209 12.4713C6.08625 12.4759 4.94653 12.2961 4.53861 12.1585C4.53861 12.1585 5.53291 11.9494 6.92993 12.3511Z" fill="#223549"/>
<path fill-rule="evenodd" clip-rule="evenodd" d="M6.9329 11.6066C6.93625 11.6246 7.01005 11.9813 7.41898 12.1782C6.53974 11.7897 4.80928 11.5659 3.87805 11.1747C2.62075 10.646 2.39062 9.98661 2.39062 9.98661C3.47952 9.95711 4.35943 10.2255 5.03806 10.4365C5.83192 10.682 7.04125 11.1391 7.46443 11.3299C7.30727 11.336 7.13199 11.3828 6.98556 11.4816C6.39499 11.2522 6.11941 11.1552 5.58318 11.0033C5.15866 10.8831 4.84635 10.86 4.58134 10.8344C4.58134 10.8344 4.95386 11.0832 5.56758 11.281C6.17594 11.4784 6.43927 11.511 6.9329 11.6066Z" fill="#223549"/>
<path fill-rule="evenodd" clip-rule="evenodd" d="M6.86322 10.6378C6.89828 10.7007 7.00193 10.8507 7.04336 10.9103C5.65373 10.6751 4.12571 9.61295 3.65322 8.9542C3.1809 8.29528 3.31424 7.3125 3.31424 7.3125C3.77264 7.40525 4.76879 8.27392 5.02659 8.53555C5.28523 8.79583 6.06349 9.56276 6.60307 9.99005L6.77097 10.4845C6.30888 10.1084 5.76074 9.68959 5.41958 9.42931C5.15658 9.22923 4.76275 8.94436 4.37093 8.8099C4.37093 8.8099 4.73172 9.28451 5.02273 9.51647C5.35886 9.78471 5.70052 10.0175 5.9808 10.1732C6.23021 10.3117 6.35802 10.3899 6.86322 10.6378Z" fill="#223549"/>
<path fill-rule="evenodd" clip-rule="evenodd" d="M10.7829 14.5718C10.8253 14.534 10.8627 14.4976 10.8919 14.4648C10.956 14.5459 11.171 14.8163 11.2773 15.0866C11.3565 15.3171 11.4422 15.6308 11.4843 15.8105C11.5269 15.9889 11.6526 16.3631 11.7297 16.4909C11.7297 16.4909 11.3916 16.534 11.1408 16.2378C10.8946 15.9477 10.8122 15.6553 10.773 15.3559C10.7409 15.1212 10.7527 14.7957 10.7829 14.5718Z" fill="#223549"/>
<path fill-rule="evenodd" clip-rule="evenodd" d="M10.2509 14.6172C10.3137 14.7025 10.3741 14.7369 10.38 14.7408L10.4265 14.7644L10.4731 14.7478C10.516 14.735 10.5544 14.7194 10.5903 14.701C10.6402 14.8391 10.6606 14.9058 10.6722 15.0231C10.6876 15.1798 10.718 15.4262 10.6606 15.6274C10.5903 15.8725 10.4441 16.0225 10.3642 16.1161C10.3642 16.1161 10.1425 15.8696 10.0793 15.6671C10.0135 15.4541 9.98987 15.2068 10.0717 14.9531C10.1163 14.8154 10.1871 14.6896 10.2509 14.6172Z" fill="#223549"/>
<path fill-rule="evenodd" clip-rule="evenodd" d="M9.48355 14.6384C9.71032 14.6081 9.88124 14.5253 10.0107 14.4297C10.0396 14.5102 10.0842 14.6186 10.0522 14.7722C10.0173 14.9262 9.9121 15.0959 9.76165 15.219C9.53153 15.403 9.22726 15.5766 8.88946 15.5242C8.88946 15.5242 8.8118 15.2672 9.48355 14.6384Z" fill="#223549"/>
<path fill-rule="evenodd" clip-rule="evenodd" d="M9.22847 14.2109C9.25682 14.439 9.3645 14.5823 9.37154 14.5936C9.29304 14.6888 9.00841 15.1824 8.41549 15.1005C8.41549 15.1005 8.25379 14.7635 8.6498 14.4958C8.91666 14.3145 9.04497 14.2776 9.22847 14.2109Z" fill="#223549"/>
<path fill-rule="evenodd" clip-rule="evenodd" d="M9.27857 13.7864C9.12107 13.8266 8.91493 13.8427 8.66334 13.7825L8.59474 13.7664L8.57344 13.6992C8.26834 13.9505 7.90604 13.9931 7.78125 14.2211C7.78125 14.2211 7.93372 14.5045 8.32972 14.4582C8.72573 14.41 9.02211 14.2225 9.23446 13.9539C9.24268 13.9141 9.26062 13.8379 9.27857 13.7864Z" fill="#223549"/>
<path fill-rule="evenodd" clip-rule="evenodd" d="M8.59813 13.4369C8.65315 13.3523 8.69223 13.2216 8.81065 13.0892C8.54949 13.0434 8.31299 13.0395 8.00588 13.1C7.64107 13.1687 7.26838 13.2559 7.08203 13.8183C7.08203 13.8183 7.31517 14.0196 7.74154 13.9324C8.10367 13.8568 8.41749 13.7001 8.59813 13.4369Z" fill="#223549"/>
<path fill-rule="evenodd" clip-rule="evenodd" d="M8.44435 12.8276C8.3531 12.7466 8.26739 12.6427 8.20735 12.5068L8.17749 12.4363C7.86082 12.3062 7.53157 12.2394 7.20735 12.3602C6.88463 12.4831 6.7996 12.6226 6.71875 12.7452C6.71875 12.7452 7.07652 13.0481 7.48678 13.0584C7.89839 13.0722 8.2788 12.9516 8.44435 12.8276Z" fill="#223549"/>
<path fill-rule="evenodd" clip-rule="evenodd" d="M8.53396 12.1711C8.58847 12.1503 8.64919 12.131 8.71813 12.1167C8.57992 11.9923 8.44054 11.8015 8.37445 11.5176C8.22719 11.5522 7.8825 11.5522 7.73104 11.4944C7.57807 11.4354 7.27985 11.4325 7.04688 11.5877C7.04688 11.5877 7.1242 12.0012 7.6507 12.1423C8.14835 12.2742 8.33151 12.2402 8.53396 12.1711Z" fill="#223549"/>
<path fill-rule="evenodd" clip-rule="evenodd" d="M8.34626 11.3667L8.4157 11.3218C8.42543 11.3157 8.54334 11.2423 8.74428 11.2262C8.57504 11.0988 8.16947 10.7558 7.88484 10.5912C7.57118 10.4143 7.05273 10.1796 6.78906 10.1445C6.78906 10.1445 7.03663 10.8009 7.32378 11.0663C7.62419 11.3416 7.83301 11.4434 8.34626 11.3667Z" fill="#223549"/>
<path fill-rule="evenodd" clip-rule="evenodd" d="M8.88065 11.0607C8.75284 10.895 8.65371 10.6661 8.58041 10.3955C8.52104 10.1759 8.384 9.63028 8.30316 9.48938C8.22248 9.34745 7.9303 8.85352 7.36069 8.69922C7.36069 8.69922 7.20839 9.34457 7.49537 9.85326C7.74194 10.2933 8.24982 10.7565 8.88065 11.0607Z" fill="#223549"/>
<path fill-rule="evenodd" clip-rule="evenodd" d="M12.0428 14.0543C12.1129 14.1272 12.1673 14.1664 12.2944 14.2312C12.2944 14.2312 12.4764 14.5818 12.2556 15.0062C12.0346 15.4301 11.8492 15.8622 11.7605 16.1031C11.7605 16.1031 11.6423 16.085 11.5104 15.4217C11.4219 14.9721 11.3093 14.8596 11.1914 14.7053C11.3196 14.7707 11.4229 14.79 11.4319 14.7919L11.52 14.807L11.5599 14.7276C11.6386 14.5762 11.6629 14.429 11.6629 14.3059C11.6629 14.2657 11.6599 14.2279 11.6553 14.1933C11.8601 14.1986 11.9692 14.094 12.0116 14.0409C12.0145 14.0353 12.0185 14.0321 12.0203 14.0273L12.0428 14.0543Z" fill="#223549"/>
<path fill-rule="evenodd" clip-rule="evenodd" d="M7.20086 8.96901C7.19884 9.03141 7.197 9.09907 7.19884 9.17147L7.21058 9.33001C6.87328 8.89559 6.4709 8.37283 6.08663 7.88924C5.82296 7.5586 5.60005 7.35834 5.35332 7.19709C5.55996 7.80989 5.93467 8.29907 6.19884 8.54307C6.46201 8.7869 6.84611 9.19809 7.21863 9.44921L7.25453 9.57367C7.28371 9.68728 7.32833 9.80461 7.39072 9.91432C7.47677 10.0691 7.59166 10.2219 7.72635 10.3696C7.61817 10.3152 7.49438 10.2565 7.36842 10.2029L7.25302 10.1548C6.22618 9.60402 5.20991 8.46406 4.79713 7.67118C4.38384 6.87814 4.5566 5.95742 4.66513 5.46484C5.13091 5.86416 5.80149 6.64957 6.09367 7.07789C6.45362 7.602 6.91538 8.34536 7.19951 8.95053L7.20086 8.96901Z" fill="#223549"/>
<path fill-rule="evenodd" clip-rule="evenodd" d="M21.5921 12.3511C21.53 12.3138 21.4554 12.2768 21.3633 12.2422C21.9882 12.0511 22.8482 11.7444 24.1409 11.6598C25.0892 11.5969 25.7751 11.6518 26.1285 11.7444C26.1285 11.7444 25.2652 12.3591 24.2772 12.5758C23.2898 12.7935 22.4879 12.6563 21.9019 12.6616C21.8636 12.6032 21.8192 12.5369 21.7506 12.4713C22.4366 12.4759 23.5776 12.2961 23.9847 12.1585C23.9847 12.1585 22.9901 11.9494 21.5921 12.3511Z" fill="#223549"/>
<path fill-rule="evenodd" clip-rule="evenodd" d="M21.5942 11.6066C21.5908 11.6246 21.5175 11.9813 21.1083 12.1782C21.987 11.7897 23.7192 11.5659 24.6491 11.1747C25.907 10.646 26.137 9.98661 26.137 9.98661C25.0484 9.95711 24.1683 10.2255 23.4895 10.4365C22.6964 10.682 21.486 11.1391 21.0625 11.3299C21.2218 11.336 21.3951 11.3828 21.5427 11.4816C22.1335 11.2522 22.4082 11.1552 22.9453 11.0033C23.3686 10.8831 23.6814 10.86 23.9463 10.8344C23.9463 10.8344 23.5741 11.0832 22.96 11.281C22.3508 11.4784 22.088 11.511 21.5942 11.6066Z" fill="#223549"/>
<path fill-rule="evenodd" clip-rule="evenodd" d="M21.6643 10.6378C21.63 10.7007 21.5251 10.8507 21.4844 10.9103C22.8738 10.6751 24.4024 9.61295 24.8742 8.9542C25.348 8.29528 25.2137 7.3125 25.2137 7.3125C24.7544 7.40525 23.7588 8.27392 23.5008 8.53555C23.243 8.79583 22.4642 9.56276 21.9243 9.99005L21.7563 10.4845C22.218 10.1084 22.7663 9.68959 23.1088 9.42931C23.3713 9.22923 23.7643 8.94436 24.1561 8.8099C24.1561 8.8099 23.7958 9.28451 23.5045 9.51647C23.1701 9.78471 22.8282 10.0175 22.5466 10.1732C22.2975 10.3117 22.1701 10.3899 21.6643 10.6378Z" fill="#223549"/>
<path fill-rule="evenodd" clip-rule="evenodd" d="M21.3271 8.96901C21.329 9.03141 21.3306 9.09907 21.3278 9.17147L21.3159 9.33001C21.6527 8.89559 22.0567 8.37283 22.4405 7.88924C22.7043 7.5586 22.9278 7.35834 23.1746 7.19709C22.9658 7.80989 22.5933 8.29907 22.3283 8.54307C22.0645 8.7869 21.6827 9.19809 21.3092 9.44921L21.2726 9.57367C21.2436 9.68728 21.1995 9.80461 21.1372 9.91432C21.0499 10.0691 20.937 10.2219 20.8008 10.3696C20.9091 10.3152 21.0329 10.2565 21.1584 10.2029L21.2739 10.1548C22.3009 9.60402 23.3184 8.46406 23.73 7.67118C24.1408 6.87814 23.9719 5.95742 23.8622 5.46484C23.3961 5.86416 22.7253 6.64957 22.4326 7.07789C22.0728 7.602 21.6128 8.34536 21.3271 8.95053V8.96901Z" fill="#223549"/>
<path fill-rule="evenodd" clip-rule="evenodd" d="M8.51016 15.2365C8.08731 15.6638 7.19583 16.6233 7.27886 17.6638C7.27886 17.6638 8.10795 17.4021 8.4486 16.788C8.79044 16.1748 9.0011 15.7901 9.14384 15.6519C9.05176 15.6638 8.95967 15.6638 8.87044 15.6487L8.7958 15.6368C8.58513 16.0243 8.16866 16.6569 7.79379 16.8779C7.79379 16.8779 7.69801 16.3649 8.80016 15.325C8.81526 15.2824 8.8379 15.2331 8.8691 15.1797C8.76846 15.2172 8.65306 15.2378 8.52442 15.2356" fill="#223549"/>
<path fill-rule="evenodd" clip-rule="evenodd" d="M19.8645 9.47266C19.6541 9.94251 19.3084 10.4247 18.3682 11.0757C18.1568 11.2213 17.9245 11.5244 18.1013 11.9506C18.2781 12.3764 18.6119 12.9816 18.4114 13.2176C18.2125 13.4533 17.503 13.5759 16.925 13.3416C16.925 13.3416 16.8044 13.7102 16.5938 13.9464C16.5938 13.9464 16.6924 14.1497 17.026 14.0471C17.026 14.0471 16.9042 14.3499 17.0701 14.6755C17.0701 14.6755 17.4582 14.6083 17.6236 14.2487C17.6236 14.2487 17.7791 14.5288 18.0909 14.6301C18.0909 14.6301 18.3469 14.4966 18.2903 13.9789C18.2903 13.9789 18.4779 14.4398 19.056 14.5173C19.056 14.5173 19.3886 14.092 18.9549 13.5201C18.9549 13.5201 19.2658 13.8006 19.8314 13.6658C19.8314 13.6658 19.9202 13.3748 19.4087 12.9707C19.4087 12.9707 19.9874 12.948 20.2095 12.4549C20.2095 12.4549 19.9649 12.1516 19.3666 12.2194C19.3666 12.2194 19.9202 12.0953 20.0421 11.423C20.0421 11.423 19.6429 11.1651 19.0117 11.5796C19.0117 11.5796 19.1216 11.3672 19.3874 11.1542C19.6541 10.9409 19.9765 10.3466 19.8645 9.47266Z" fill="#223549"/>
<path fill-rule="evenodd" clip-rule="evenodd" d="M17.5473 16.2325C17.6311 16.1194 17.693 16.0068 17.7413 15.8984C17.642 16.714 17.606 17.2639 17.1699 17.7924C17.1699 17.7924 16.9077 17.4391 17.0758 16.5802C17.1502 16.5589 17.2314 16.5234 17.3118 16.4695C17.3118 16.4695 17.212 16.8183 17.2735 17.1688C17.2735 17.1688 17.4325 17.0538 17.5473 16.2325Z" fill="#223549"/>
<path fill-rule="evenodd" clip-rule="evenodd" d="M18.303 16.1469C18.3553 16.0806 18.4566 15.9397 18.5081 15.8398C18.5442 16.3139 18.6675 17.5597 18.2544 17.9506C18.2544 17.9506 17.9712 17.7408 17.8711 15.9217C17.9316 16.0238 18.0366 16.1323 18.0868 16.1919C18.0868 16.1919 18.0192 16.7685 18.2238 17.176C18.2238 17.176 18.4288 17.0185 18.303 16.1469Z" fill="#223549"/>
<path fill-rule="evenodd" clip-rule="evenodd" d="M19.2803 17.1072C18.9316 16.6871 18.8281 15.4276 18.8281 15.4276C18.7806 15.3948 18.731 15.3594 18.6847 15.3201C18.6639 15.304 18.6452 15.2875 18.6268 15.2695C18.6268 15.315 18.6251 15.3631 18.6211 15.4104C18.6697 16.1689 18.731 16.9497 18.9641 17.3385C19.1932 17.7199 19.6144 17.9176 19.6144 17.9176C20.0106 17.2061 19.5324 16.2527 19.1323 15.5893C19.0825 15.5705 19.0334 15.5468 18.9836 15.5208C19.1231 16.0312 19.3905 16.6387 19.2803 17.1072Z" fill="#223549"/>
<path fill-rule="evenodd" clip-rule="evenodd" d="M20.2702 14.9182C20.2739 14.9989 20.2581 15.0662 20.2474 15.0993C20.2435 15.1125 20.2372 15.132 20.23 15.1513C20.5597 15.4798 20.8061 15.7943 21.2965 16.4832C21.788 17.1727 22.5657 17.2001 22.5657 17.2001C22.4914 16.6418 22.3408 16.2007 21.9244 15.7248C21.5082 15.2493 20.9765 14.8146 20.5845 14.5273C20.4837 14.5728 20.3531 14.6026 20.1873 14.5826C20.1738 14.5818 20.1607 14.5802 20.1484 14.577C20.2003 14.6471 20.2318 14.7166 20.2496 14.7805C20.5456 14.9523 21.4074 15.3926 21.7544 16.1039C21.7544 16.1039 21.2098 15.9301 20.2702 14.9182Z" fill="#223549"/>
<path fill-rule="evenodd" clip-rule="evenodd" d="M20.8793 14.2225L20.8466 14.1633C20.8356 14.1435 20.8247 14.126 20.8123 14.1094C21.1316 14.2347 22.2712 14.6691 22.6392 14.8617C23.0073 15.0557 23.5397 15.4933 23.8289 16.3844C23.8289 16.3844 23.0617 16.4534 22.427 15.9235C21.7931 15.3916 21.0528 14.6516 20.7383 14.4165C20.7698 14.3871 20.7935 14.3583 20.8123 14.334C20.8123 14.334 21.6704 15.1022 22.5769 15.4347C22.5769 15.4347 22.3837 15.0779 22.0261 14.8197C21.588 14.5063 21.2618 14.4009 20.8793 14.2225Z" fill="#223549"/>
<path fill-rule="evenodd" clip-rule="evenodd" d="M21.5316 13.696C21.52 13.6653 21.5076 13.6363 21.494 13.6094C21.8701 13.686 22.8099 13.8001 23.2302 13.9293C23.648 14.0604 24.4078 14.3704 24.8582 15.2395C24.8582 15.2395 24.1973 15.4452 22.9491 14.8524C21.7014 14.2586 21.3121 14.1352 21.0742 14.0713C21.2626 14.0575 21.3974 13.9928 21.4677 13.9492C21.9652 14.1735 22.6309 14.438 23.2909 14.456C23.2909 14.456 22.9645 14.2237 22.6229 14.077C22.2505 13.9209 21.8428 13.7779 21.5316 13.696Z" fill="#223549"/>
<path fill-rule="evenodd" clip-rule="evenodd" d="M21.5045 13.0732C21.3817 13.1308 21.2884 13.1596 21.1289 13.1763C21.2158 13.2336 21.2988 13.3055 21.3731 13.403C21.8126 13.5311 22.5605 13.6707 23.7976 13.7611C25.0336 13.8501 25.6925 13.6215 25.6925 13.6215C25.2623 13.3551 24.5762 13.0849 24.1118 12.9941C23.6462 12.9033 22.4265 12.9138 21.8912 12.8398C21.8854 12.8461 21.8196 12.899 21.7155 12.9635C22.166 13.004 23.1237 13.0489 23.6183 13.3034C23.6183 13.3034 22.7059 13.4257 21.5045 13.0732Z" fill="#223549"/>
<path fill-rule="evenodd" clip-rule="evenodd" d="M17.7442 14.5718C17.7021 14.534 17.666 14.4976 17.6338 14.4648C17.5709 14.5459 17.3566 14.8163 17.2518 15.0866C17.1712 15.3171 17.0855 15.6308 17.0443 15.8105C17.0002 15.9889 16.8739 16.3631 16.7969 16.4909C16.7969 16.4909 17.136 16.534 17.3869 16.2378C17.6332 15.9477 17.7162 15.6553 17.7561 15.3559C17.7848 15.1212 17.7766 14.7957 17.7442 14.5718Z" fill="#223549"/>
<path fill-rule="evenodd" clip-rule="evenodd" d="M18.2785 14.6172C18.2163 14.7025 18.1564 14.7369 18.1502 14.7408L18.1051 14.7644L18.0563 14.7478C18.0155 14.735 17.9771 14.7194 17.9402 14.701C17.8906 14.8391 17.8718 14.9058 17.8587 15.0231C17.8417 15.1798 17.8126 15.4262 17.8693 15.6274C17.9407 15.8725 18.085 16.0225 18.166 16.1161C18.166 16.1161 18.3879 15.8696 18.4516 15.6671C18.517 15.4541 18.541 15.2068 18.4605 14.9531C18.415 14.8154 18.3421 14.6896 18.2785 14.6172Z" fill="#223549"/>
<path fill-rule="evenodd" clip-rule="evenodd" d="M19.0405 14.6384C18.8132 14.6081 18.6426 14.5253 18.5125 14.4297C18.4846 14.5102 18.4392 14.6186 18.4729 14.7722C18.5056 14.9262 18.6109 15.0959 18.7644 15.219C18.991 15.403 19.2971 15.5766 19.6349 15.5242C19.6349 15.5242 19.7126 15.2672 19.0405 14.6384Z" fill="#223549"/>
<path fill-rule="evenodd" clip-rule="evenodd" d="M19.2959 14.2109C19.2691 14.439 19.1611 14.5823 19.1523 14.5936C19.2313 14.6888 19.516 15.1824 20.1126 15.1005C20.1126 15.1005 20.2713 14.7635 19.8776 14.4958C19.6076 14.3145 19.4806 14.2776 19.2959 14.2109Z" fill="#223549"/>
<path fill-rule="evenodd" clip-rule="evenodd" d="M19.2461 13.7864C19.4046 13.8266 19.6114 13.8427 19.8637 13.7825L19.9323 13.7664L19.9521 13.6992C20.2578 13.9505 20.6203 13.9931 20.7449 14.2211C20.7449 14.2211 20.5925 14.5045 20.1973 14.4582C19.8013 14.41 19.5026 14.2225 19.291 13.9539C19.2835 13.9141 19.2664 13.8379 19.2461 13.7864Z" fill="#223549"/>
<path fill-rule="evenodd" clip-rule="evenodd" d="M19.929 13.4369C19.8722 13.3523 19.8323 13.2216 19.7148 13.0892C19.9785 13.0434 20.2137 13.0395 20.5201 13.1C20.8853 13.1687 21.2576 13.2559 21.4448 13.8183C21.4448 13.8183 21.2091 14.0196 20.7833 13.9324C20.423 13.8568 20.1085 13.7001 19.929 13.4369Z" fill="#223549"/>
<path fill-rule="evenodd" clip-rule="evenodd" d="M20.0859 12.8276C20.1779 12.7466 20.2622 12.6427 20.3233 12.5068L20.3531 12.4363C20.6705 12.3062 21.0004 12.2394 21.3219 12.3602C21.646 12.4831 21.7304 12.6226 21.8137 12.7452C21.8137 12.7452 21.4554 13.0481 21.043 13.0584C20.6317 13.0722 20.2513 12.9516 20.0859 12.8276Z" fill="#223549"/>
<path fill-rule="evenodd" clip-rule="evenodd" d="M19.9938 12.1711C19.9389 12.1503 19.878 12.131 19.8086 12.1167C19.9493 11.9923 20.0872 11.8015 20.1541 11.5176C20.301 11.5522 20.6461 11.5522 20.7982 11.4944C20.95 11.4354 21.2485 11.4325 21.4812 11.5877C21.4812 11.5877 21.4054 12.0012 20.8762 12.1423C20.378 12.2742 20.1954 12.2402 19.9938 12.1711Z" fill="#223549"/>
<path fill-rule="evenodd" clip-rule="evenodd" d="M20.1765 11.3667L20.1078 11.3218C20.0977 11.3157 19.9798 11.2423 19.7773 11.2262C19.9484 11.0988 20.3515 10.7558 20.6395 10.5912C20.9523 10.4143 21.4701 10.1796 21.7359 10.1445C21.7359 10.1445 21.4875 10.8009 21.1985 11.0663C20.8998 11.3416 20.6901 11.4434 20.1765 11.3667Z" fill="#223549"/>
<path fill-rule="evenodd" clip-rule="evenodd" d="M19.6445 11.0607C19.7723 10.895 19.8713 10.6661 19.9448 10.3955C20.0055 10.1759 20.1418 9.63028 20.2232 9.48938C20.305 9.34745 20.5961 8.85352 21.166 8.69922C21.166 8.69922 21.3178 9.34457 21.0306 9.85326C20.7826 10.2933 20.2767 10.7565 19.6445 11.0607Z" fill="#223549"/>
<path fill-rule="evenodd" clip-rule="evenodd" d="M16.4807 14.0543C16.407 14.1272 16.353 14.1664 16.2272 14.2312C16.2272 14.2312 16.0444 14.5818 16.2656 15.0062C16.4854 15.4301 16.6712 15.8622 16.7613 16.1031C16.7613 16.1031 16.8797 16.085 17.0107 15.4217C17.1001 14.9721 17.2131 14.8596 17.3295 14.7053C17.2012 14.7707 17.0994 14.79 17.0898 14.7919L17.0023 14.807L16.9615 14.7276C16.8819 14.5762 16.8606 14.429 16.8606 14.3059C16.8606 14.2657 16.8622 14.2279 16.8664 14.1933C16.6613 14.1986 16.5518 14.094 16.5112 14.0409C16.5063 14.0353 16.503 14.0321 16.5008 14.0273L16.4807 14.0543Z" fill="#223549"/>
<path fill-rule="evenodd" clip-rule="evenodd" d="M20.0165 15.2365C20.439 15.6638 21.3312 16.6233 21.2465 17.6638C21.2465 17.6638 20.4177 17.4021 20.0779 16.788C19.7359 16.1748 19.5264 15.7901 19.3828 15.6519C19.4734 15.6638 19.5655 15.6638 19.6559 15.6487L19.732 15.6368C19.9415 16.0243 20.358 16.6569 20.7332 16.8779C20.7332 16.8779 20.8283 16.3649 19.7267 15.325C19.7112 15.2824 19.6879 15.2331 19.6576 15.1797C19.7579 15.2172 19.8731 15.2378 20.0016 15.2356" fill="#223549"/>
<path fill-rule="evenodd" clip-rule="evenodd" d="M13.6133 6.93303C13.6133 6.85638 13.9035 6.79297 14.2604 6.79297C14.6181 6.79297 14.9075 6.85638 14.9075 6.93303C14.9075 7.00916 14.6181 7.07207 14.2604 7.07207C13.9035 7.07207 13.6133 7.00916 13.6133 6.93303Z" fill="#223549"/>
<path fill-rule="evenodd" clip-rule="evenodd" d="M14.3913 7.24147C14.3913 7.31252 14.3356 7.37017 14.265 7.37017C14.1949 7.37017 14.1367 7.31252 14.1367 7.24147C14.1367 7.17059 14.1949 7.11328 14.265 7.11328C14.3356 7.11328 14.3913 7.17059 14.3913 7.24147Z" fill="#223549"/>
<path fill-rule="evenodd" clip-rule="evenodd" d="M13.5725 6.798C13.3583 6.27982 13.2135 5.89627 13.2189 5.76842C13.2226 5.69127 13.3142 5.63362 13.4009 5.60699C13.4856 5.57969 13.5616 5.57444 13.6188 5.61852C13.7313 5.70551 13.8345 6.4058 13.8735 6.69677C13.765 6.71746 13.6991 6.7317 13.5725 6.798Z" fill="#223549"/>
<path fill-rule="evenodd" clip-rule="evenodd" d="M13.9636 6.68542C14.0176 6.6783 14.0738 6.67592 14.1305 6.67355C14.0967 6.39547 14.0008 5.93172 13.9456 5.74995C13.8893 5.56682 13.8178 5.43541 13.6992 5.40234C13.6992 5.40234 13.7913 5.6572 13.8423 5.91985C13.8923 6.18352 13.9305 6.43464 13.9636 6.68542Z" fill="#223549"/>
<path fill-rule="evenodd" clip-rule="evenodd" d="M13.2798 7.61202C13.5173 7.55538 13.7603 7.29884 13.7603 7.29884C13.3767 7.35462 13.2798 7.61202 13.2798 7.61202ZM13.6354 7.58879C13.3043 7.78327 12.9336 7.75394 12.9336 7.75394C13.0054 7.621 13.073 7.49807 13.2798 7.34903C13.4868 7.19896 13.8247 7.16166 13.9572 7.18014C13.9277 7.28001 13.793 7.49519 13.6354 7.58879Z" fill="#223549"/>
<path fill-rule="evenodd" clip-rule="evenodd" d="M12.4 8.14156V8.1146C12.0746 8.15665 11.6913 8.13969 11.6913 8.13969C11.7106 8.26178 11.7613 8.35453 11.847 8.41116C11.8678 8.14444 12.4 8.14156 12.4 8.14156ZM11.3203 7.78904C11.3203 7.78904 11.7318 7.94334 12.1439 7.92384C12.5543 7.90264 13.3131 7.894 13.5573 7.77344C13.5573 7.77344 13.5177 7.9296 13.322 8.01947C13.322 8.01947 13.4251 8.01947 13.5256 8.109C13.5256 8.109 13.4664 8.23804 13.2916 8.3062C13.2916 8.3062 13.6053 8.63515 13.9416 8.61141C13.9416 8.61141 13.7869 8.80624 13.4429 8.73112C13.0991 8.65635 12.989 8.46186 12.9308 8.38708C12.9308 8.38708 12.9755 8.57309 12.9542 8.64821C12.9542 8.64821 12.8034 8.63888 12.6858 8.48933C12.6858 8.48933 12.7712 8.63888 12.7889 8.76521C12.7889 8.76521 12.6942 8.77606 12.5243 8.67483C12.5243 8.67483 12.5598 8.76792 12.5664 8.87491C12.5664 8.87491 12.1692 8.74672 11.9768 8.56411C11.9768 8.56411 11.9743 8.68992 11.9838 8.76131C11.9838 8.76131 11.3676 8.6984 11.3203 7.78904Z" fill="#223549"/>
<path fill-rule="evenodd" clip-rule="evenodd" d="M11.2252 7.84868C11.2406 8.04554 11.2904 8.23952 11.3585 8.37721C11.3585 8.37721 11.1161 8.19323 11.0571 8.03656C10.9965 7.88141 10.9823 7.77357 11.2252 7.84868Z" fill="#223549"/>
<path fill-rule="evenodd" clip-rule="evenodd" d="M10.7405 8.59582C10.7979 8.59582 10.8433 8.55089 10.8433 8.49408C10.8433 8.43728 10.7979 8.39184 10.7405 8.39184C10.6858 8.39184 10.6417 8.43728 10.6417 8.49408C10.6417 8.55089 10.6858 8.59582 10.7405 8.59582ZM11.3345 8.47611C11.4968 8.55089 11.6412 8.72825 11.6412 8.72825C11.3955 8.78505 11.2865 8.8561 11.2865 8.8561C10.8155 8.52053 10.4275 8.85796 10.4275 8.85796C10.1728 8.71316 10.124 8.3564 10.2513 8.16818C10.3784 7.97878 10.6657 8.01202 10.8019 8.04508C10.8883 8.32096 11.1884 8.4093 11.3345 8.47611Z" fill="#223549"/>
<path fill-rule="evenodd" clip-rule="evenodd" d="M11.6926 8.79297C11.6926 8.79297 11.8636 9.02425 11.9894 9.12599C11.9894 9.12599 11.3557 9.11988 11.1961 9.67435C11.1961 9.67435 10.9763 9.33472 11.1367 9.11327C11.3096 8.87487 11.4676 8.84553 11.6926 8.79297Z" fill="#223549"/>
<path fill-rule="evenodd" clip-rule="evenodd" d="M12.3906 8.93038C12.3906 8.93038 12.5954 8.99142 12.6639 9.00939C12.6639 9.00939 12.6657 8.88968 12.6618 8.83203C12.7234 8.84712 12.7999 8.86696 12.8658 8.87357C12.8658 8.87357 13.0696 9.33444 13.2294 9.52045C13.2294 9.52045 13.2387 9.6227 13.1496 9.77785C13.1496 9.77785 13.0337 9.50519 12.8262 9.28663C12.7091 9.1642 12.634 9.10163 12.3906 8.93038Z" fill="#223549"/>
<path fill-rule="evenodd" clip-rule="evenodd" d="M11.8555 8.83203C11.9219 8.85 12.249 8.95361 12.4056 9.06908C12.6047 9.21202 12.7412 9.377 12.7193 9.66051C12.7193 9.66051 12.5599 9.43567 12.3828 9.33444C12.2431 9.25356 11.9895 9.02974 11.8555 8.83203Z" fill="#223549"/>
<path fill-rule="evenodd" clip-rule="evenodd" d="M11.856 6.74609C11.9163 6.74609 12.0328 6.77543 12.0328 6.87293C12.0328 6.97229 11.8824 7.20968 11.8411 7.3148H11.8373C11.7973 7.20968 11.6445 6.97229 11.6445 6.87293C11.6445 6.77543 11.7628 6.74609 11.8228 6.74609H11.856Z" fill="#223549"/>
<path fill-rule="evenodd" clip-rule="evenodd" d="M11.7285 7.51195C11.7005 7.37375 11.6461 7.01513 11.5624 6.93611C11.4828 6.85998 11.3637 6.85286 11.3058 6.85608C11.2456 6.85998 11.184 6.92153 11.2087 7.0014C11.232 7.08431 11.4945 7.48109 11.5287 7.53128C11.5898 7.52042 11.5782 7.52466 11.7285 7.51195Z" fill="#223549"/>
<path fill-rule="evenodd" clip-rule="evenodd" d="M11.957 7.51195C11.9866 7.37375 12.0396 7.01513 12.1238 6.93611C12.2029 6.85998 12.3223 6.85286 12.3804 6.85608C12.4403 6.85998 12.503 6.92153 12.479 7.0014C12.4533 7.08431 12.1915 7.48109 12.1565 7.53128C12.0962 7.52042 12.1077 7.52466 11.957 7.51195Z" fill="#223549"/>
<path fill-rule="evenodd" clip-rule="evenodd" d="M12.1229 6.26712H11.9179V6.03906H11.7532V6.26712H11.5469V6.41142H11.7532V6.67916H11.9179V6.41142H12.1229V6.26712Z" fill="#223549"/>
<path fill-rule="evenodd" clip-rule="evenodd" d="M9.6472 7.74253C9.6472 7.69708 9.64921 7.65351 9.65576 7.60993C9.67119 7.49836 9.67253 7.40374 9.66062 7.32422C9.51319 7.38187 9.41372 7.41748 9.21094 7.74863C9.21094 7.74863 9.53415 7.54719 9.6472 7.74253Z" fill="#223549"/>
<path fill-rule="evenodd" clip-rule="evenodd" d="M9.92912 8.26196C9.93331 8.18006 9.98716 7.92029 10.0546 7.73869C10.1369 7.51301 10.089 7.18745 9.98917 6.98957C9.89339 6.79898 9.84123 6.61958 9.857 6.42188C9.857 6.42188 9.66713 6.48665 9.55626 6.55532C9.53882 6.78474 9.67099 7.01432 9.73405 7.14438C9.80836 7.29851 9.79293 7.49961 9.77666 7.62271C9.74797 7.83127 9.79007 8.05323 9.92912 8.26196Z" fill="#223549"/>
<path fill-rule="evenodd" clip-rule="evenodd" d="M9.95048 6.51444C9.94276 6.48799 9.94276 6.41559 9.95685 6.38676C9.95685 6.38676 10.2589 6.09003 10.5122 6.04001C10.6717 6.00626 10.77 6.07816 10.818 6.118C10.818 6.118 10.7294 6.10766 10.5941 6.21923C10.4582 6.32996 10.29 6.4634 10.1643 6.49698C10.0379 6.53055 10.0117 6.52071 9.95048 6.51444Z" fill="#223549"/>
<path fill-rule="evenodd" clip-rule="evenodd" d="M10.8413 6.13672C10.9535 6.25117 11.0501 6.37292 11.0476 6.47788C11.0461 6.58674 10.9206 6.86024 10.8555 6.96418C10.79 7.06795 10.6935 7.20462 10.7044 7.37011C10.7105 7.45252 10.7677 7.5373 10.8349 7.60767C10.8349 7.60767 10.4656 7.51933 10.42 7.28872C10.3807 7.08254 10.4681 6.93875 10.5276 6.82463C10.5822 6.71679 10.7521 6.46703 10.7958 6.36291C10.8349 6.2683 10.8555 6.18962 10.8413 6.13672Z" fill="#223549"/>
<path fill-rule="evenodd" clip-rule="evenodd" d="M13 8.73438C13.073 8.99889 13.1988 9.24679 13.3225 9.44128C13.4337 9.61966 13.5044 9.90724 13.494 10.0052C13.494 10.0052 13.6605 9.63339 13.5763 9.37074C13.5087 9.16676 13.3301 8.86206 13 8.73438Z" fill="#223549"/>
<path fill-rule="evenodd" clip-rule="evenodd" d="M13.4141 8.82031C13.4141 8.82031 13.6677 8.82557 13.7858 8.90408C13.9375 9.0053 14.0821 9.22726 14.1383 9.49313C14.1383 9.49313 13.8824 9.4482 13.7566 9.32103C13.6294 9.19318 13.4734 9.00242 13.4141 8.82031Z" fill="#223549"/>
<path fill-rule="evenodd" clip-rule="evenodd" d="M12.1012 9.28516C12.0526 9.28889 11.9226 9.31924 11.8594 9.33857C11.8594 9.33857 12.0746 9.40198 12.1826 9.49236C12.2748 9.56849 12.354 9.68651 12.3901 9.88608C12.4432 10.1647 12.6046 10.4643 12.6529 10.5547L12.6727 10.5509C12.6435 10.3592 12.7608 9.96137 12.7926 9.90355C12.7926 9.90355 12.6209 9.79571 12.542 9.68312C12.4842 9.6002 12.383 9.46218 12.1012 9.28516Z" fill="#223549"/>
<path fill-rule="evenodd" clip-rule="evenodd" d="M13.2236 9.88281C13.2858 10.029 13.4536 10.2882 13.3752 10.558C13.2972 10.8286 13.122 10.9446 13.0144 11.1745C13.0144 11.1745 12.9302 10.76 12.9477 10.4412C12.967 10.1212 13.0822 9.99828 13.2236 9.88281Z" fill="#223549"/>
<path fill-rule="evenodd" clip-rule="evenodd" d="M13.7113 9.89453C13.7113 9.89453 13.9631 10.388 14.0087 10.5811C14.0525 10.7727 14.0117 10.9004 13.9255 11.0174C13.8418 11.1327 13.6962 11.2581 13.5619 11.5018C13.5619 11.5018 13.4066 11.2941 13.3883 11.1857C13.3703 11.0774 13.3994 10.8181 13.4332 10.7103C13.466 10.6001 13.599 10.2508 13.7113 9.89453Z" fill="#223549"/>
<path fill-rule="evenodd" clip-rule="evenodd" d="M13.837 11.4688C13.7823 11.5293 13.4881 11.8866 13.4487 11.9907C13.409 12.0943 13.3411 12.2915 13.4316 12.4291C13.5239 12.5665 13.7339 12.784 13.9154 12.8768C13.9154 12.8768 13.7174 12.5631 13.7384 12.3062C13.7498 12.1416 13.8763 11.9949 13.9004 11.8945C13.9244 11.7952 13.9093 11.6258 13.837 11.4688Z" fill="#223549"/>
<path fill-rule="evenodd" clip-rule="evenodd" d="M13.2631 11.2656C13.3082 11.329 13.3868 11.4828 13.3979 11.6324C13.4088 11.7799 13.3848 11.8986 13.3048 12.115C13.2052 12.388 13.0485 12.6918 12.9759 12.829C12.9759 12.829 12.8382 12.6292 12.7617 12.4509C12.7617 12.4509 12.9774 12.1514 13.0702 11.9403C13.1762 11.6914 13.2205 11.4615 13.2631 11.2656Z" fill="#223549"/>
<path fill-rule="evenodd" clip-rule="evenodd" d="M13.1653 11.1523C13.1653 11.1523 13.0719 11.855 12.6632 12.3759C12.3862 12.7288 12.1616 12.8519 12.0125 12.8519C11.7883 12.8519 11.5623 12.6631 11.4875 12.4459C11.4111 12.2306 11.4362 11.8942 11.5815 11.775C11.5815 11.775 11.7151 12.1965 12.0031 12.2118C12.3287 12.2306 12.7467 11.8616 13.1653 11.1523Z" fill="#223549"/>
<path fill-rule="evenodd" clip-rule="evenodd" d="M12.8303 10.8594C12.8644 10.9847 12.8751 11.1773 12.8303 11.3591C12.7964 11.4976 12.7136 11.677 12.5536 11.7786C12.4154 11.8657 12.0881 11.8866 11.9648 11.5753C11.9648 11.5753 12.5606 11.6207 12.8303 10.8594Z" fill="#223549"/>
<path fill-rule="evenodd" clip-rule="evenodd" d="M13.8046 13.6914C13.8856 13.9029 14.1761 14.1697 14.1754 14.3349C14.1709 14.7712 13.981 15.0384 13.9367 15.1822C13.9367 15.1822 13.5907 14.905 13.529 14.587C13.4974 14.4237 13.5342 13.9337 13.8046 13.6914Z" fill="#223549"/>
<path fill-rule="evenodd" clip-rule="evenodd" d="M13.4179 13.9975C13.4578 13.8839 13.5858 13.575 13.7327 13.4675C13.7327 13.4675 13.9207 12.9077 13.3154 12.5625C13.3154 12.5625 13.0663 12.896 13.0009 13.2101C12.9345 13.5263 13.2638 13.7145 13.4179 13.9975Z" fill="#223549"/>
<path fill-rule="evenodd" clip-rule="evenodd" d="M12.661 12.5898C12.5637 12.7099 12.4258 12.8737 12.3193 12.9249C12.3193 12.9249 12.2831 13.1752 12.3027 13.3417C12.3351 13.5887 12.4906 13.8404 12.5582 14.0248C12.5582 14.0248 12.823 13.6752 12.8534 13.4699C12.8834 13.264 12.8797 13.0951 12.8896 12.9963C12.8896 12.9963 12.742 12.754 12.661 12.5898Z" fill="#223549"/>
<path fill-rule="evenodd" clip-rule="evenodd" d="M11.9602 13.7892C11.8852 13.6729 11.6438 13.2498 11.6406 12.9414C11.6406 12.9414 11.9388 13.1018 12.1888 12.9835C12.1888 12.9835 12.221 13.3852 12.1738 13.5205C12.1331 13.6307 12.0823 13.6961 11.9602 13.7892Z" fill="#223549"/>
<path fill-rule="evenodd" clip-rule="evenodd" d="M12.0273 13.8721C12.0756 13.829 12.1949 13.7183 12.2447 13.6602C12.2447 13.6602 12.4425 14.0269 12.4762 14.1343C12.4762 14.1343 12.3769 14.1604 12.2677 14.0803C12.1595 14.0003 12.1344 13.9786 12.0273 13.8721Z" fill="#223549"/>
<path fill-rule="evenodd" clip-rule="evenodd" d="M12.9422 13.6562C12.9187 13.749 12.5982 14.1985 12.543 14.2538C12.543 14.2538 12.5666 14.4166 12.6862 14.6514C12.8045 14.8846 12.9695 15.0492 13.0577 15.1319C13.0577 15.1319 13.2565 14.7833 13.315 14.6311C13.3804 14.4554 13.3732 14.2828 13.3454 14.218C13.2776 14.0661 13.0458 13.8465 12.9422 13.6562Z" fill="#223549"/>
<path fill-rule="evenodd" clip-rule="evenodd" d="M13.4267 14.832C13.4975 14.9762 13.711 15.2137 13.7442 15.4016C13.7709 15.5488 13.7476 15.6693 13.7077 15.7726C13.6674 15.872 13.5401 16.0707 13.4546 16.2216C13.4546 16.2216 13.1617 15.9425 13.0978 15.7433C13.0488 15.5934 13.0673 15.3804 13.1372 15.248C13.207 15.1144 13.3598 14.9701 13.4267 14.832Z" fill="#223549"/>
<path fill-rule="evenodd" clip-rule="evenodd" d="M12.6003 14.793C12.6753 14.961 12.8566 15.1275 12.898 15.2737C12.9462 15.447 12.9623 15.5562 12.8796 15.7581C12.8058 15.9341 12.7169 16.0379 12.6875 16.1457C12.6875 16.1457 12.4499 15.8344 12.4098 15.7052C12.3707 15.576 12.3578 15.3632 12.4069 15.2287C12.4546 15.0921 12.5413 14.9171 12.6003 14.793Z" fill="#223549"/>
<path fill-rule="evenodd" clip-rule="evenodd" d="M13.7713 15.9766C13.7713 15.9766 13.3619 16.4758 13.3713 16.7403C13.3837 17.0696 13.6 17.2896 13.6302 17.4921C13.6302 17.4921 13.8441 17.2469 13.9266 17.0823C14.0182 16.8978 14.0875 16.7403 14.0651 16.5307C14.0392 16.3206 13.9848 16.1866 13.7713 15.9766Z" fill="#223549"/>
<path fill-rule="evenodd" clip-rule="evenodd" d="M13.0185 15.9297C13.0833 16.0252 13.2653 16.3517 13.2141 16.5447C13.1628 16.7402 12.9613 17.0137 12.8932 17.13C12.8932 17.13 12.7321 16.7951 12.695 16.6408C12.6593 16.4884 12.6923 16.2371 13.0185 15.9297Z" fill="#223549"/>
<path fill-rule="evenodd" clip-rule="evenodd" d="M14.2677 6.39186C14.2956 6.20416 14.5108 5.80094 14.5108 5.62527C14.5108 5.48674 14.4001 5.375 14.2639 5.375C14.1258 5.375 14.0156 5.48674 14.0156 5.62527C14.0156 5.80094 14.2327 6.20416 14.2595 6.39186H14.2677Z" fill="#223549"/>
<path fill-rule="evenodd" clip-rule="evenodd" d="M14.9575 6.798C15.1734 6.27982 15.3164 5.89627 15.3109 5.76842C15.3075 5.69127 15.2163 5.63362 15.1313 5.60699C15.0445 5.57969 14.9674 5.57444 14.9112 5.61852C14.7995 5.70551 14.6945 6.4058 14.6562 6.69677C14.7663 6.71746 14.832 6.7317 14.9575 6.798Z" fill="#223549"/>
<path fill-rule="evenodd" clip-rule="evenodd" d="M14.5647 6.68542C14.5101 6.6783 14.454 6.67592 14.3984 6.67355C14.4328 6.39547 14.5271 5.93172 14.5833 5.74995C14.6385 5.56682 14.7096 5.43541 14.8295 5.40234C14.8295 5.40234 14.7367 5.6572 14.6863 5.91985C14.6364 6.18352 14.5975 6.43464 14.5647 6.68542Z" fill="#223549"/>
<path fill-rule="evenodd" clip-rule="evenodd" d="M14.7648 7.29884C14.7648 7.29884 15.0064 7.55538 15.2452 7.61202C15.2452 7.61202 15.1473 7.35462 14.7648 7.29884ZM14.5664 7.18014C14.7001 7.16166 15.0376 7.19896 15.2452 7.34903C15.4525 7.49807 15.5194 7.621 15.5904 7.75411C15.5904 7.75411 15.2197 7.78327 14.8888 7.58879C14.7321 7.49519 14.5969 7.28001 14.5664 7.18014Z" fill="#223549"/>
<path fill-rule="evenodd" clip-rule="evenodd" d="M16.6797 8.41116C16.7661 8.35436 16.8152 8.26178 16.8364 8.13952C16.8364 8.13952 16.4521 8.15665 16.1252 8.1146V8.14156C16.1252 8.14156 16.6591 8.14427 16.6797 8.41116ZM16.5437 8.76131C16.5532 8.68992 16.5497 8.56394 16.5497 8.56394C16.357 8.74672 15.961 8.87491 15.961 8.87491C15.9669 8.76792 16.0007 8.67483 16.0007 8.67483C15.8327 8.77606 15.7382 8.76504 15.7382 8.76504C15.7557 8.63871 15.8419 8.48916 15.8419 8.48916C15.7233 8.63871 15.5722 8.64821 15.5722 8.64821C15.5514 8.57309 15.5962 8.38708 15.5962 8.38708C15.5378 8.46186 15.4284 8.65635 15.0839 8.73112C14.7391 8.80624 14.5859 8.61141 14.5859 8.61141C14.9216 8.63498 15.2349 8.3062 15.2349 8.3062C15.0606 8.23804 15.0016 8.10883 15.0016 8.10883C15.103 8.01947 15.2055 8.01947 15.2055 8.01947C15.009 7.9296 14.9684 7.77344 14.9684 7.77344C15.2146 7.894 15.9722 7.90264 16.3843 7.92384C16.7956 7.94334 17.2054 7.78904 17.2054 7.78904C17.1589 8.6984 16.5437 8.76131 16.5437 8.76131Z" fill="#223549"/>
<path fill-rule="evenodd" clip-rule="evenodd" d="M17.301 7.84868C17.2859 8.04554 17.2354 8.23952 17.168 8.37721C17.168 8.37721 17.4107 8.19323 17.4687 8.03656C17.5281 7.88141 17.5433 7.77357 17.301 7.84868Z" fill="#223549"/>
<path fill-rule="evenodd" clip-rule="evenodd" d="M17.8886 8.49408C17.8886 8.43728 17.8421 8.39184 17.7869 8.39184C17.7319 8.39184 17.6859 8.43728 17.6859 8.49408C17.6859 8.55089 17.7319 8.59582 17.7869 8.59582C17.8421 8.59582 17.8886 8.55089 17.8886 8.49408ZM17.7274 8.04508C17.8641 8.01202 18.1511 7.97878 18.2779 8.16818C18.4065 8.3564 18.3564 8.71316 18.1011 8.85796C18.1011 8.85796 17.7123 8.52053 17.2426 8.8561C17.2426 8.8561 17.1324 8.78505 16.8867 8.72825C16.8867 8.72825 17.032 8.55088 17.1952 8.47611C17.3398 8.4093 17.6412 8.32096 17.7274 8.04508Z" fill="#223549"/>
<path fill-rule="evenodd" clip-rule="evenodd" d="M16.831 8.79297C16.831 8.79297 16.661 9.02425 16.5352 9.12599C16.5352 9.12599 17.1683 9.11988 17.3282 9.67435C17.3282 9.67435 17.5479 9.33472 17.3871 9.11327C17.2151 8.87487 17.0568 8.84553 16.831 8.79297Z" fill="#223549"/>
<path fill-rule="evenodd" clip-rule="evenodd" d="M16.135 8.93038C16.135 8.93038 15.9302 8.99142 15.8621 9.00939C15.8621 9.00939 15.8584 8.88968 15.8655 8.83203C15.8032 8.84712 15.7272 8.86696 15.6608 8.87357C15.6608 8.87357 15.456 9.33444 15.2972 9.52045C15.2972 9.52045 15.2875 9.6227 15.3764 9.77785C15.3764 9.77785 15.4921 9.50519 15.6987 9.28663C15.8166 9.1642 15.8913 9.10163 16.135 8.93038Z" fill="#223549"/>
<path fill-rule="evenodd" clip-rule="evenodd" d="M16.6738 8.83203C16.6101 8.85 16.2825 8.95361 16.1231 9.06908C15.9261 9.21202 15.79 9.377 15.8107 9.66051C15.8107 9.66051 15.9713 9.43567 16.1475 9.33444C16.2884 9.25356 16.5416 9.02974 16.6738 8.83203Z" fill="#223549"/>
<path fill-rule="evenodd" clip-rule="evenodd" d="M16.6657 6.74609C16.6059 6.74609 16.4883 6.77543 16.4883 6.87293C16.4883 6.97229 16.6404 7.20968 16.6807 7.3148H16.6844C16.7248 7.20968 16.8771 6.97229 16.8771 6.87293C16.8771 6.77543 16.7598 6.74609 16.6989 6.74609H16.6657Z" fill="#223549"/>
<path fill-rule="evenodd" clip-rule="evenodd" d="M16.8047 7.51195C16.8325 7.37375 16.8852 7.01513 16.9706 6.93611C17.0506 6.85998 17.1687 6.85286 17.228 6.85608C17.2882 6.85998 17.3505 6.92153 17.3236 7.0014C17.3007 7.08431 17.0377 7.48109 17.0026 7.53128C16.9422 7.52042 16.9545 7.52466 16.8047 7.51195Z" fill="#223549"/>
<path fill-rule="evenodd" clip-rule="evenodd" d="M16.5735 7.51195C16.5445 7.37375 16.491 7.01513 16.4066 6.93611C16.3261 6.85998 16.2073 6.85286 16.1488 6.85608C16.0903 6.85998 16.0272 6.92153 16.0527 7.0014C16.0763 7.08431 16.3378 7.48109 16.3737 7.53128C16.4343 7.52042 16.4222 7.52466 16.5735 7.51195Z" fill="#223549"/>
<path fill-rule="evenodd" clip-rule="evenodd" d="M16.4023 6.26712H16.6061V6.03906H16.7705V6.26712H16.9758V6.41142H16.7705V6.67916H16.6061V6.41142H16.4023V6.26712Z" fill="#223549"/>
<path fill-rule="evenodd" clip-rule="evenodd" d="M13.9766 4.91607H14.1802V4.6875H14.3469V4.91607H14.5517V5.05935H14.3469V5.32861H14.1802V5.05935H13.9766V4.91607Z" fill="#223549"/>
<path fill-rule="evenodd" clip-rule="evenodd" d="M18.8783 7.74253C18.8763 7.69708 18.8736 7.65351 18.8683 7.60993C18.8537 7.49836 18.8512 7.40374 18.8627 7.32422C19.0105 7.38187 19.1098 7.41748 19.3131 7.74863C19.3131 7.74863 18.9897 7.54719 18.8783 7.74253Z" fill="#223549"/>
<path fill-rule="evenodd" clip-rule="evenodd" d="M18.5962 8.26196C18.5916 8.18006 18.5391 7.92029 18.4726 7.73869C18.3894 7.51301 18.4363 7.18745 18.5358 6.98957C18.6317 6.79898 18.6857 6.61958 18.668 6.42188C18.668 6.42188 18.859 6.48665 18.9689 6.55532C18.9873 6.78474 18.8553 7.01432 18.7928 7.14438C18.7173 7.29851 18.7322 7.49961 18.7491 7.62271C18.7782 7.83127 18.7337 8.05323 18.5962 8.26196Z" fill="#223549"/>
<path fill-rule="evenodd" clip-rule="evenodd" d="M18.5764 6.51444C18.5824 6.48799 18.5817 6.41559 18.5682 6.38676C18.5682 6.38676 18.2679 6.09003 18.0143 6.04001C17.8536 6.00626 17.7552 6.07816 17.707 6.118C17.707 6.118 17.7969 6.10766 17.932 6.21923C18.0668 6.32996 18.2344 6.4634 18.3618 6.49698C18.4883 6.53055 18.5162 6.52071 18.5764 6.51444Z" fill="#223549"/>
<path fill-rule="evenodd" clip-rule="evenodd" d="M17.6826 6.13672C17.5699 6.25117 17.4746 6.37292 17.4766 6.47788C17.4781 6.58674 17.6031 6.86024 17.6686 6.96418C17.7347 7.06795 17.8305 7.20462 17.8184 7.37011C17.8132 7.45252 17.756 7.5373 17.6899 7.60767C17.6899 7.60767 18.0586 7.51933 18.1027 7.28872C18.1435 7.08254 18.0573 6.93875 17.9972 6.82463C17.9422 6.71679 17.7715 6.46703 17.7289 6.36291C17.6899 6.2683 17.6686 6.18962 17.6826 6.13672Z" fill="#223549"/>
<path fill-rule="evenodd" clip-rule="evenodd" d="M15.5252 8.73438C15.4504 8.99889 15.3258 9.24679 15.2023 9.44128C15.0901 9.61966 15.0195 9.90724 15.0324 10.0052C15.0324 10.0052 14.8645 9.63339 14.9501 9.37074C15.0151 9.16676 15.1938 8.86206 15.5252 8.73438Z" fill="#223549"/>
<path fill-rule="evenodd" clip-rule="evenodd" d="M15.1067 8.82031C15.1067 8.82031 14.8546 8.82557 14.7367 8.90408C14.5838 9.0053 14.438 9.22726 14.3828 9.49313C14.3828 9.49313 14.6389 9.4482 14.7657 9.32103C14.8927 9.19318 15.0477 9.00242 15.1067 8.82031Z" fill="#223549"/>
<path fill-rule="evenodd" clip-rule="evenodd" d="M16.4208 9.28516C16.47 9.28889 16.599 9.31924 16.6622 9.33857C16.6622 9.33857 16.4465 9.40198 16.3397 9.49236C16.2479 9.56849 16.1667 9.68651 16.131 9.88608C16.0793 10.1647 15.9166 10.4643 15.8678 10.5547L15.8499 10.5509C15.8796 10.3592 15.7608 9.96137 15.7305 9.90355C15.7305 9.90355 15.9017 9.79571 15.9794 9.68312C16.0362 9.6002 16.1394 9.46218 16.4208 9.28516Z" fill="#223549"/>
<path fill-rule="evenodd" clip-rule="evenodd" d="M15.301 9.88281C15.2396 10.029 15.0717 10.2882 15.1487 10.558C15.2277 10.8286 15.4033 10.9446 15.5098 11.1745C15.5098 11.1745 15.5956 10.76 15.5766 10.4412C15.5575 10.1212 15.4433 9.99828 15.301 9.88281Z" fill="#223549"/>
<path fill-rule="evenodd" clip-rule="evenodd" d="M14.2657 10.6407C14.2776 10.4821 14.6399 10.1008 14.6218 9.89459C14.603 9.68739 14.3314 9.54207 14.2642 9.51172H14.2607C14.1946 9.54207 13.9225 9.68739 13.9031 9.89459C13.8841 10.1008 14.2474 10.4821 14.2583 10.6407H14.2657Z" fill="#223549"/>
<path fill-rule="evenodd" clip-rule="evenodd" d="M14.8154 9.89453C14.8154 9.89453 14.5636 10.388 14.518 10.5811C14.4736 10.7727 14.5152 10.9004 14.6009 11.0174C14.6856 11.1327 14.8298 11.2581 14.9655 11.5018C14.9655 11.5018 15.1198 11.2941 15.1395 11.1857C15.1581 11.0774 15.1275 10.8181 15.0938 10.7103C15.0608 10.6001 14.9268 10.2508 14.8154 9.89453Z" fill="#223549"/>
<path fill-rule="evenodd" clip-rule="evenodd" d="M14.2672 11.8002C14.3816 11.6999 14.4842 11.5509 14.5173 11.4624C14.5485 11.3744 14.5569 11.2457 14.4804 11.1467C14.389 11.029 14.2744 10.8966 14.2672 10.7891H14.2613C14.2528 10.8966 14.1394 11.029 14.0478 11.1467C13.971 11.2457 13.9792 11.3744 14.0129 11.4624C14.0441 11.5509 14.1473 11.6999 14.2625 11.8002H14.2672Z" fill="#223549"/>
<path fill-rule="evenodd" clip-rule="evenodd" d="M14.689 11.4688C14.7442 11.5293 15.0383 11.8866 15.0777 11.9907C15.1176 12.0943 15.1849 12.2915 15.0939 12.4291C15.0022 12.5665 14.7932 12.784 14.6094 12.8768C14.6094 12.8768 14.8081 12.5631 14.788 12.3062C14.7748 12.1416 14.6488 11.9949 14.625 11.8945C14.602 11.7952 14.6179 11.6258 14.689 11.4688Z" fill="#223549"/>
<path fill-rule="evenodd" clip-rule="evenodd" d="M15.2585 11.2656C15.2131 11.329 15.1352 11.4828 15.123 11.6324C15.1138 11.7799 15.1372 11.8986 15.2174 12.115C15.3184 12.388 15.4735 12.6918 15.545 12.829C15.545 12.829 15.6835 12.6292 15.7598 12.4509C15.7598 12.4509 15.5448 12.1514 15.4521 11.9403C15.3452 11.6914 15.3019 11.4615 15.2585 11.2656Z" fill="#223549"/>
<path fill-rule="evenodd" clip-rule="evenodd" d="M15.3594 11.1523C15.3594 11.1523 15.4521 11.855 15.8609 12.3759C16.1371 12.7288 16.3626 12.8519 16.511 12.8519C16.7353 12.8519 16.9615 12.6631 17.0373 12.4459C17.1116 12.2306 17.0883 11.8942 16.9432 11.775C16.9432 11.775 16.8087 12.1965 16.5209 12.2118C16.1967 12.2306 15.778 11.8616 15.3594 11.1523Z" fill="#223549"/>
<path fill-rule="evenodd" clip-rule="evenodd" d="M15.6936 10.8594C15.6593 10.9847 15.6494 11.1773 15.6936 11.3591C15.7279 11.4976 15.8116 11.677 15.9715 11.7786C16.1095 11.8657 16.4342 11.8866 16.5594 11.5753C16.5594 11.5753 15.9644 11.6207 15.6936 10.8594Z" fill="#223549"/>
<path fill-rule="evenodd" clip-rule="evenodd" d="M14.2654 12.9469C14.3496 12.9057 14.4206 12.8755 14.5184 12.7263C14.5927 12.6092 14.6646 12.3923 14.6247 12.2377C14.5739 12.0469 14.4726 11.9708 14.4107 11.8516C14.3607 11.8989 14.3297 11.9358 14.2683 11.9713H14.2654C14.2031 11.9358 14.1715 11.8989 14.1204 11.8516C14.0576 11.9708 13.9577 12.0469 13.9058 12.2377C13.8663 12.3923 13.9375 12.6092 14.0127 12.7263C14.1093 12.8755 14.1811 12.9057 14.2654 12.9469Z" fill="#223549"/>
<path fill-rule="evenodd" clip-rule="evenodd" d="M14.2646 14.128C14.305 13.9411 14.6909 13.582 14.6545 13.3856C14.6017 13.0928 14.4149 13.1547 14.2674 13.0312H14.2646C14.1156 13.1547 13.9269 13.0928 13.8733 13.3856C13.839 13.582 14.2223 13.9411 14.2626 14.128H14.2646Z" fill="#223549"/>
<path fill-rule="evenodd" clip-rule="evenodd" d="M14.7224 13.6914C14.6409 13.9029 14.3492 14.1697 14.3516 14.3349C14.3569 14.7712 14.5448 15.0384 14.5901 15.1822C14.5901 15.1822 14.9361 14.905 14.9967 14.587C15.0292 14.4237 14.9921 13.9337 14.7224 13.6914Z" fill="#223549"/>
<path fill-rule="evenodd" clip-rule="evenodd" d="M15.1116 13.9975C15.0721 13.8839 14.945 13.575 14.7972 13.4675C14.7972 13.4675 14.6089 12.9077 15.2145 12.5625C15.2145 12.5625 15.4636 12.896 15.5304 13.2101C15.5963 13.5263 15.266 13.7145 15.1116 13.9975Z" fill="#223549"/>
<path fill-rule="evenodd" clip-rule="evenodd" d="M15.8696 12.5898C15.9659 12.7099 16.1022 12.8737 16.2102 12.9249C16.2102 12.9249 16.2453 13.1752 16.2263 13.3417C16.1941 13.5887 16.0378 13.8404 15.9717 14.0248C15.9717 14.0248 15.7062 13.6752 15.6745 13.4699C15.6435 13.264 15.6504 13.0951 15.6406 12.9963C15.6406 12.9963 15.7867 12.754 15.8696 12.5898Z" fill="#223549"/>
<path fill-rule="evenodd" clip-rule="evenodd" d="M16.5663 13.7892C16.6417 13.6729 16.8849 13.2498 16.8878 12.9414C16.8878 12.9414 16.5891 13.1018 16.3385 12.9835C16.3385 12.9835 16.3063 13.3852 16.3554 13.5205C16.3938 13.6307 16.4455 13.6961 16.5663 13.7892Z" fill="#223549"/>
<path fill-rule="evenodd" clip-rule="evenodd" d="M16.4942 13.8721C16.4454 13.829 16.3261 13.7183 16.2788 13.6602C16.2788 13.6602 16.0792 14.0269 16.0469 14.1343C16.0469 14.1343 16.1447 14.1604 16.2537 14.0803C16.3625 14.0003 16.3864 13.9786 16.4942 13.8721Z" fill="#223549"/>
<path fill-rule="evenodd" clip-rule="evenodd" d="M15.5797 13.6562C15.6039 13.749 15.9241 14.1985 15.9789 14.2538C15.9789 14.2538 15.9536 14.4166 15.835 14.6514C15.7174 14.8846 15.5531 15.0492 15.464 15.1319C15.464 15.1319 15.2666 14.7833 15.2075 14.6311C15.1404 14.4554 15.1487 14.2828 15.1785 14.218C15.2441 14.0661 15.4767 13.8465 15.5797 13.6562Z" fill="#223549"/>
<path fill-rule="evenodd" clip-rule="evenodd" d="M14.2653 16.3181C14.2956 16.195 14.481 16.0483 14.5568 15.834C14.6029 15.7077 14.6011 15.56 14.5521 15.4588C14.4934 15.3406 14.2861 15.0515 14.2624 14.9688C14.2364 15.0515 14.0318 15.3406 13.9722 15.4588C13.9224 15.56 13.9211 15.7077 13.9664 15.834C14.044 16.0483 14.2289 16.195 14.2594 16.3181H14.2653Z" fill="#223549"/>
<path fill-rule="evenodd" clip-rule="evenodd" d="M15.0978 14.832C15.028 14.9762 14.8146 15.2137 14.7808 15.4016C14.7541 15.5488 14.7786 15.6693 14.8163 15.7726C14.8566 15.872 14.9864 16.0707 15.0706 16.2216C15.0706 16.2216 15.3628 15.9425 15.4272 15.7433C15.4763 15.5934 15.4575 15.3804 15.3868 15.248C15.317 15.1144 15.165 14.9701 15.0978 14.832Z" fill="#223549"/>
<path fill-rule="evenodd" clip-rule="evenodd" d="M15.9212 14.793C15.8455 14.961 15.6634 15.1275 15.6225 15.2737C15.5733 15.447 15.5579 15.5562 15.6402 15.7581C15.715 15.9341 15.8019 16.0379 15.8331 16.1457C15.8331 16.1457 16.0703 15.8344 16.1087 15.7052C16.1506 15.576 16.1612 15.3632 16.1142 15.2287C16.0646 15.0921 15.9791 14.9171 15.9212 14.793Z" fill="#223549"/>
<path fill-rule="evenodd" clip-rule="evenodd" d="M14.2634 18.7036C14.2785 18.5518 14.5894 18.081 14.6037 17.5823C14.6112 17.332 14.3919 16.942 14.2662 16.793H14.2592C14.1351 16.942 13.9148 17.332 13.922 17.5823C13.9373 18.081 14.2473 18.5518 14.2634 18.7036Z" fill="#223549"/>
<path fill-rule="evenodd" clip-rule="evenodd" d="M14.7586 15.9766C14.7586 15.9766 15.1672 16.4758 15.158 16.7403C15.1462 17.0696 14.9273 17.2896 14.8986 17.4921C14.8986 17.4921 14.6838 17.2469 14.6024 17.0823C14.5105 16.8978 14.4404 16.7403 14.4664 16.5307C14.4894 16.3206 14.5429 16.1866 14.7586 15.9766Z" fill="#223549"/>
<path fill-rule="evenodd" clip-rule="evenodd" d="M15.5128 15.9297C15.4472 16.0252 15.2666 16.3517 15.3175 16.5447C15.3707 16.7402 15.5712 17.0137 15.6379 17.13C15.6379 17.13 15.7989 16.7951 15.8362 16.6408C15.8726 16.4884 15.838 16.2371 15.5128 15.9297Z" fill="#223549"/>
<path fill-rule="evenodd" clip-rule="evenodd" d="M14.5444 19.5082C14.5696 19.1208 14.788 18.888 14.8257 18.6867C14.8686 18.4646 14.8539 18.252 14.684 17.9961C14.5444 18.4736 14.3943 18.823 14.2749 19.0615C14.2708 19.0672 14.2685 19.0748 14.2658 19.0818C14.2626 19.0748 14.261 19.0672 14.2561 19.0615C14.1375 18.823 13.9865 18.4736 13.8485 17.9961C13.6781 18.252 13.6633 18.4646 13.7054 18.6867C13.7443 18.888 13.9617 19.1208 13.9865 19.5082C14.0104 19.8972 13.5781 20.0447 13.5781 20.0447C13.7234 20.0983 13.8899 20.1224 14.1539 19.8692C14.2022 19.8238 14.2381 19.7731 14.2658 19.7197C14.2937 19.7731 14.3301 19.8238 14.378 19.8692C14.6405 20.1224 14.8081 20.0983 14.9538 20.0447C14.9538 20.0447 14.5209 19.8972 14.5444 19.5082Z" fill="#223549"/>
<path fill-rule="evenodd" clip-rule="evenodd" d="M13.1781 16.9258C13.2227 17.0711 13.3572 17.3397 13.375 17.4216C13.4074 17.5754 13.3634 17.7619 13.0858 17.9596C13.0858 17.9596 12.9064 17.8319 12.8349 17.6658C12.769 17.5087 12.8072 17.3975 12.876 17.3176C12.9458 17.2366 13.1091 17.0479 13.1781 16.9258Z" fill="#223549"/>
<path fill-rule="evenodd" clip-rule="evenodd" d="M13.7626 17.5C13.7626 17.578 13.7054 18.0172 13.5827 18.2362C13.4089 18.5423 13.1534 18.769 12.9304 18.769C12.7242 18.769 12.6798 18.644 12.5781 18.5945C12.5781 18.5945 12.63 18.328 12.8624 18.259C13.1481 18.1718 13.5852 17.8259 13.7626 17.5Z" fill="#223549"/>
<path fill-rule="evenodd" clip-rule="evenodd" d="M13.0185 18.0594C12.9708 18.0219 12.9287 17.9973 12.872 17.9297C12.872 17.9297 12.6522 18.0116 12.4708 18.135C12.289 18.2586 12.1112 18.4691 12.0156 18.5781C12.0156 18.5781 12.287 18.649 12.4594 18.5694C12.4594 18.5694 12.5215 18.3073 12.7154 18.1896C12.7583 18.1644 12.8935 18.1237 13.0185 18.0594Z" fill="#223549"/>
<path fill-rule="evenodd" clip-rule="evenodd" d="M12.7947 17.8329C12.7511 17.7666 12.665 17.6447 12.6836 17.4531C12.6836 17.4531 12.3012 17.6992 12.1893 17.7904C12.0736 17.8858 11.8344 18.1344 11.7812 18.2163C11.7812 18.2163 12.0709 18.1519 12.2927 18.0763C12.5355 17.9952 12.7034 17.8858 12.7947 17.8329Z" fill="#223549"/>
<path fill-rule="evenodd" clip-rule="evenodd" d="M12.1494 18.25C11.9446 18.3256 11.481 18.4001 11.2885 18.4582C11.0946 18.5167 10.9542 18.6171 10.7695 18.8206C10.7695 18.8206 11.0533 18.9016 11.2055 18.9493C11.2055 18.9493 11.4467 18.7836 11.7105 18.681C11.8833 18.6139 11.9669 18.4321 12.1494 18.25Z" fill="#223549"/>
<path fill-rule="evenodd" clip-rule="evenodd" d="M11.7187 19.6334C11.7632 19.5832 11.8192 19.5264 11.7761 19.4106C11.7463 19.3244 11.5785 19.2322 11.4787 19.1834C11.3128 19.103 10.8526 18.978 10.7016 18.9336C10.7016 18.9336 10.6265 19.0216 10.5877 19.1152C10.5701 19.1511 10.5931 19.1886 10.6582 19.2003C10.7865 19.2227 11.0943 19.1644 11.1703 19.2137C11.2499 19.2671 11.2209 19.3382 11.2209 19.4106C11.2209 19.4106 11.362 19.3224 11.4502 19.3424C11.5742 19.3687 11.6485 19.428 11.7187 19.6334Z" fill="#223549"/>
<path fill-rule="evenodd" clip-rule="evenodd" d="M11.3086 18.9817C11.3416 18.9931 11.5216 19.048 11.6966 19.1601C11.6966 19.1601 11.7735 19.1297 11.8125 19.0578C11.8495 18.9888 12.0062 18.7536 12.1519 18.7219C12.1519 18.7219 12.0283 18.7101 11.957 18.6875C11.957 18.6875 11.8083 18.7262 11.7023 18.7702C11.5962 18.8138 11.4646 18.88 11.3086 18.9817Z" fill="#223549"/>
<path fill-rule="evenodd" clip-rule="evenodd" d="M12.4973 18.6875C12.4702 18.7007 12.4225 18.7241 12.3145 18.7287C12.3145 18.7287 11.9104 19.0117 11.863 19.2955C11.8236 19.5365 11.9492 19.6528 12.0096 19.6827C12.0705 19.7144 12.3538 19.8317 12.5371 19.4483C12.5371 19.4483 12.2238 19.5521 12.1386 19.4007C12.054 19.2474 12.1927 19.0259 12.2778 18.9625C12.3885 18.8772 12.5901 18.8209 12.7109 18.8423C12.7109 18.8423 12.6132 18.7477 12.4973 18.6875Z" fill="#223549"/>
<path fill-rule="evenodd" clip-rule="evenodd" d="M9.84069 21.934C9.88967 21.7252 9.94469 21.5072 10.0386 21.3061C10.2214 20.9144 10.6696 19.8729 11.6042 19.6885C11.6926 19.6718 11.5032 19.4512 11.4204 19.4633C11.3358 19.4726 11.1693 19.5825 11.096 19.6327C11.096 19.6327 11.096 19.4097 11.0935 19.3695C11.0911 19.328 11.0561 19.3156 11.0197 19.3164C10.9834 19.317 10.758 19.3156 10.6857 19.398C10.4732 19.6478 10.1131 20.3182 9.90946 20.8174C9.70551 21.3161 9.56696 21.4704 9.3516 21.3932C9.13657 21.3161 9.00758 21.0668 8.63355 21.1425C8.50322 21.1698 8.35864 21.2574 8.24609 21.3875C8.27729 21.4485 8.31738 21.5228 8.49316 21.5228C8.66793 21.5228 9.00171 21.5967 9.18856 21.7291C9.37608 21.8611 9.57199 21.9041 9.84069 21.934Z" fill="#223549"/>
<path fill-rule="evenodd" clip-rule="evenodd" d="M13.5776 18.707C13.5991 18.8688 13.6761 19.0197 13.7616 19.1764C13.7616 19.1764 13.4763 20.5035 12.4486 20.6066C12.4486 20.6066 12.4686 20.3318 12.7732 20.1217C13.078 19.9124 13.5332 19.5865 13.5005 19.0935C13.5005 19.0935 13.4195 19.1101 13.2729 19.2956C13.1271 19.4802 12.8064 20.0144 12.3086 20.0184C12.3086 20.0184 12.3831 19.7683 12.603 19.6239C12.823 19.4802 13.1025 19.2956 13.2289 19.0726C13.3561 18.8508 13.4894 18.7481 13.5776 18.707Z" fill="#223549"/>
<path fill-rule="evenodd" clip-rule="evenodd" d="M13.0898 23.5368L13.716 24.4231L14.1908 23.5698L14.0228 23.2656C13.8988 23.4894 13.766 23.7316 13.6907 23.8643C13.6318 23.7828 13.4736 23.5586 13.2665 23.2656L13.0898 23.5368Z" fill="#223549"/>
<path fill-rule="evenodd" clip-rule="evenodd" d="M12.9351 22.7915C12.3237 21.928 11.5701 20.8588 11.4936 20.7504L11.7301 20.5782L10.9844 20.2891L10.9973 21.1119L11.2497 20.9278L12.7573 23.0639L12.9351 22.7915Z" fill="#223549"/>
<path fill-rule="evenodd" clip-rule="evenodd" d="M7.78675 17.9312C7.97058 17.7282 8.28222 17.9042 8.59721 18.1975C8.91439 18.4911 9.11197 18.7913 8.92915 18.994C8.75756 19.1822 8.43301 19.0214 8.11516 18.729C7.79933 18.4351 7.60057 18.1341 7.78675 17.9312Z" fill="#223549"/>
<path fill-rule="evenodd" clip-rule="evenodd" d="M8.29017 21.5451C8.27843 21.5361 8.26954 21.5285 8.26031 21.5196C8.09258 21.3716 7.99715 21.1425 7.99715 20.8926C7.99715 20.4129 8.38242 20.0217 8.85844 20.0217C9.33344 20.0217 9.71788 20.4129 9.71788 20.8926C9.71788 20.9575 9.70563 21.0639 9.70563 21.0639C9.74505 20.9898 9.88628 20.6571 9.91496 20.5955C9.78648 20.1286 9.36028 19.7845 8.85844 19.7845C8.42502 19.7845 8.04981 20.039 7.87152 20.4082C7.93878 19.9687 8.15531 19.5739 8.30812 19.4278C8.49161 19.2536 8.80292 19.1973 8.80292 19.1973C8.59862 19.2314 8.32891 19.1037 8.02784 18.8226C7.74153 18.5586 7.59527 18.3265 7.58621 18.1328C7.60365 18.4061 7.59527 18.5596 7.51828 18.7819C7.41462 19.0847 7.13083 19.6445 7.23264 20.2762C7.28782 20.623 7.53656 21.1391 7.95303 21.5608C8.04126 21.6553 8.07397 21.7955 8.08487 21.8678C8.08487 21.8678 8.69741 21.8678 8.84284 21.882C8.84284 21.882 8.98893 21.8678 8.98675 21.7765C8.98507 21.6846 8.90389 21.6612 8.83076 21.6612C8.75813 21.6612 8.45354 21.6687 8.29017 21.5451Z" fill="#223549"/>
<path fill-rule="evenodd" clip-rule="evenodd" d="M11.6853 21.7578C11.2905 21.9008 10.897 21.9788 10.524 22.0366C10.2799 22.0734 10.0438 22.0871 9.81516 22.0752C9.81868 22.1132 9.81868 22.1637 9.79688 22.2005C9.79688 22.2005 9.843 22.2551 9.843 22.3152C10.0738 22.3236 10.3143 22.3104 10.5597 22.2716C10.9686 22.2082 11.397 22.1254 11.8287 21.9598L11.6853 21.7578Z" fill="#223549"/>
<path fill-rule="evenodd" clip-rule="evenodd" d="M12.3264 21.7231C12.8504 21.4351 13.3606 20.9884 13.8213 20.2763L13.9037 20.1367C13.7777 20.1935 13.6172 20.1527 13.6172 20.1527C13.6077 20.1652 13.5879 20.1973 13.5781 20.2161C13.1488 20.8568 12.6729 21.2604 12.1875 21.5244L12.3264 21.7231Z" fill="#223549"/>
<path fill-rule="evenodd" clip-rule="evenodd" d="M8.8811 21.9512C8.80914 21.9393 8.57919 21.9459 8.44165 21.9663C8.29052 21.9909 8.1191 22.0212 8.10065 22.1058C8.08405 22.1859 8.13839 22.2705 8.21471 22.3917C8.26151 22.4663 8.37422 22.4233 8.43645 22.3997C8.49817 22.377 8.85242 22.1849 8.90844 22.1225C8.96597 22.059 8.98979 21.9695 8.8811 21.9512Z" fill="#223549"/>
<path fill-rule="evenodd" clip-rule="evenodd" d="M9.23895 22.1878C9.20121 22.1637 9.10896 22.1272 9.01302 22.1642C8.91674 22.2002 8.56804 22.4079 8.54556 22.5067C8.52107 22.6037 8.56988 22.6515 8.62372 22.6737C8.6774 22.6954 8.74264 22.7163 8.79145 22.7216C8.87867 22.7283 8.96337 22.6771 9.00866 22.6219C9.05294 22.5659 9.21664 22.3668 9.23895 22.3212C9.26243 22.2773 9.27501 22.2125 9.23895 22.1878Z" fill="#223549"/>
<path fill-rule="evenodd" clip-rule="evenodd" d="M9.28766 22.4101C9.23633 22.4678 9.09577 22.64 9.079 22.6689C9.06323 22.6972 9.08789 22.7423 9.132 22.7365C9.17544 22.7319 9.41647 22.7072 9.55451 22.6126C9.69205 22.5169 9.78413 22.3325 9.68886 22.2667C9.5941 22.2 9.44616 22.2312 9.28766 22.4101Z" fill="#223549"/>
<path fill-rule="evenodd" clip-rule="evenodd" d="M9.3622 21.8743C9.31608 21.8637 9.13409 21.818 9.09585 21.878C9.0457 21.9533 9.08075 22.0342 9.22198 22.1033C9.3622 22.1705 9.62772 22.2253 9.68156 22.1525C9.73222 22.0772 9.66026 21.9533 9.3622 21.8743Z" fill="#223549"/>
<path fill-rule="evenodd" clip-rule="evenodd" d="M15.3394 16.9258C15.294 17.0711 15.1598 17.3397 15.1417 17.4216C15.1101 17.5754 15.1529 17.7619 15.431 17.9596C15.431 17.9596 15.6101 17.8319 15.6816 17.6658C15.7489 17.5087 15.7106 17.3975 15.6408 17.3176C15.5714 17.2366 15.4092 17.0479 15.3394 16.9258Z" fill="#223549"/>
<path fill-rule="evenodd" clip-rule="evenodd" d="M14.7617 17.5C14.7617 17.578 14.8186 18.0172 14.9434 18.2362C15.117 18.5423 15.3714 18.769 15.5947 18.769C15.802 18.769 15.8464 18.644 15.9471 18.5945C15.9471 18.5945 15.8951 18.328 15.6619 18.259C15.378 18.1718 14.9398 17.8259 14.7617 17.5Z" fill="#223549"/>
<path fill-rule="evenodd" clip-rule="evenodd" d="M15.5078 18.0594C15.5558 18.0219 15.5957 17.9973 15.6531 17.9297C15.6531 17.9297 15.8748 18.0116 16.0561 18.135C16.2363 18.2586 16.4129 18.4691 16.5108 18.5781C16.5108 18.5781 16.2388 18.649 16.0664 18.5694C16.0664 18.5694 16.0036 18.3073 15.8097 18.1896C15.7683 18.1644 15.6329 18.1237 15.5078 18.0594Z" fill="#223549"/>
<path fill-rule="evenodd" clip-rule="evenodd" d="M15.7305 17.8329C15.7731 17.7666 15.8595 17.6447 15.8395 17.4531C15.8395 17.4531 16.2212 17.6992 16.3358 17.7904C16.4512 17.8858 16.6897 18.1344 16.7432 18.2163C16.7432 18.2163 16.4535 18.1519 16.2315 18.0763C15.9888 17.9952 15.821 17.8858 15.7305 17.8329Z" fill="#223549"/>
<path fill-rule="evenodd" clip-rule="evenodd" d="M16.375 18.25C16.581 18.3256 17.0412 18.4001 17.2361 18.4582C17.4298 18.5167 17.5711 18.6171 17.7556 18.8206C17.7556 18.8206 17.4701 18.9016 17.32 18.9493C17.32 18.9493 17.0786 18.7836 16.8129 18.681C16.6417 18.6139 16.5568 18.4321 16.375 18.25Z" fill="#223549"/>
<path fill-rule="evenodd" clip-rule="evenodd" d="M16.8112 19.6334C16.7671 19.5832 16.7114 19.5264 16.7528 19.4106C16.7835 19.3244 16.9521 19.2322 17.0529 19.1834C17.2191 19.103 17.6792 18.978 17.8287 18.9336C17.8287 18.9336 17.9033 19.0216 17.9434 19.1152C17.9603 19.1511 17.936 19.1886 17.8729 19.2003C17.7438 19.2227 17.436 19.1644 17.36 19.2137C17.2798 19.2671 17.3082 19.3382 17.3082 19.4106C17.3082 19.4106 17.169 19.3224 17.0782 19.3424C16.957 19.3687 16.8807 19.428 16.8112 19.6334Z" fill="#223549"/>
<path fill-rule="evenodd" clip-rule="evenodd" d="M17.2177 18.9817C17.1838 18.9931 17.005 19.048 16.83 19.1601C16.83 19.1601 16.7526 19.1297 16.7141 19.0578C16.6776 18.9888 16.5198 18.7536 16.375 18.7219C16.375 18.7219 16.4981 18.7101 16.5681 18.6875C16.5681 18.6875 16.718 18.7262 16.8255 18.7702C16.9314 18.8138 17.0635 18.88 17.2177 18.9817Z" fill="#223549"/>
<path fill-rule="evenodd" clip-rule="evenodd" d="M16.0257 18.6875C16.0537 18.7007 16.101 18.7241 16.208 18.7287C16.208 18.7287 16.6136 19.0117 16.6602 19.2955C16.7025 19.5365 16.5758 19.6528 16.5143 19.6827C16.4527 19.7144 16.1708 19.8317 15.9874 19.4483C15.9874 19.4483 16.2999 19.5521 16.3855 19.4007C16.4702 19.2474 16.3325 19.0259 16.2474 18.9625C16.1359 18.8772 15.9351 18.8209 15.8125 18.8423C15.8125 18.8423 15.9098 18.7477 16.0257 18.6875Z" fill="#223549"/>
<path fill-rule="evenodd" clip-rule="evenodd" d="M18.6816 21.934C18.6325 21.7252 18.5788 21.5072 18.484 21.3061C18.302 20.9144 17.8537 19.8729 16.9171 19.6885C16.8299 19.6718 17.0177 19.4512 17.1038 19.4633C17.1873 19.4726 17.3539 19.5825 17.428 19.6327C17.428 19.6327 17.428 19.4097 17.4298 19.3695C17.4322 19.328 17.4666 19.3156 17.5018 19.3164C17.5385 19.317 17.7643 19.3156 17.8354 19.398C18.0498 19.6478 18.409 20.3182 18.6133 20.8174C18.8175 21.3161 18.9565 21.4704 19.1705 21.3932C19.3861 21.3161 19.5164 21.0668 19.8896 21.1425C20.0201 21.1698 20.1635 21.2574 20.2782 21.3875C20.2455 21.4485 20.2049 21.5228 20.031 21.5228C19.854 21.5228 19.5199 21.5967 19.3344 21.7291C19.1465 21.8611 18.9511 21.9041 18.6816 21.934Z" fill="#223549"/>
<path fill-rule="evenodd" clip-rule="evenodd" d="M14.9471 18.707C14.9278 18.8688 14.85 19.0197 14.7656 19.1764C14.7656 19.1764 15.0501 20.5035 16.0798 20.6066C16.0798 20.6066 16.058 20.3318 15.7541 20.1217C15.4481 19.9124 14.9929 19.5865 15.0256 19.0935C15.0256 19.0935 15.1068 19.1101 15.2525 19.2956C15.4006 19.4802 15.7215 20.0144 16.2172 20.0184C16.2172 20.0184 16.1442 19.7683 15.924 19.6239C15.7041 19.4802 15.4236 19.2956 15.297 19.0726C15.1715 18.8508 15.0384 18.7481 14.9471 18.707Z" fill="#223549"/>
<path fill-rule="evenodd" clip-rule="evenodd" d="M14.2626 19.9883C14.3233 20.1643 14.7116 20.7206 14.8817 20.8787C15.0534 21.0372 15.4681 21.4574 15.6901 21.6669C15.6901 21.6669 15.058 21.5086 14.7022 21.1825C14.7022 21.1825 14.4494 21.331 14.2649 21.331H14.2561C14.071 21.331 13.8179 21.1825 13.8179 21.1825C13.463 21.5086 12.832 21.6669 12.832 21.6669C13.0529 21.4574 13.4679 21.0372 13.6383 20.8787C13.8099 20.7206 14.1995 20.1643 14.2591 19.9883H14.2626Z" fill="#223549"/>
<path fill-rule="evenodd" clip-rule="evenodd" d="M14.2678 21.4674C14.4074 21.4674 14.5395 21.4116 14.6147 21.3789C14.5395 21.538 14.3993 21.7848 14.2646 21.8866H14.2628C14.1279 21.7848 13.9875 21.538 13.9141 21.3789C13.9875 21.4116 14.1195 21.4674 14.2598 21.4674H14.2678Z" fill="#223549"/>
<path fill-rule="evenodd" clip-rule="evenodd" d="M14.809 24.4286L17.2802 20.9278L17.5314 21.1118L17.5467 20.2891L16.7979 20.5782L17.0356 20.7504C16.9145 20.922 15.0668 23.5401 14.8342 23.8699L13.7151 21.8195L13.5769 22.033L12.5809 23.5548L12.3315 23.3863L12.3281 24.1953L13.0844 23.8926L12.8306 23.7227C12.968 23.5126 13.5088 22.6884 13.6889 22.4111L14.809 24.4286Z" fill="#223549"/>
<path fill-rule="evenodd" clip-rule="evenodd" d="M15.2601 23.0505C15.0934 22.7963 14.9258 22.5394 14.8401 22.4078C14.7779 22.526 14.6507 22.7566 14.5088 23.012L14.332 22.6924L14.8129 21.8164L14.9526 22.0297L15.4471 22.7858L15.2601 23.0505Z" fill="#223549"/>
<path fill-rule="evenodd" clip-rule="evenodd" d="M15.7712 23.2812L15.9488 23.5548L16.1976 23.3862L16.2019 24.1954L15.4453 23.8925L15.6979 23.7228C15.6719 23.6824 15.6337 23.62 15.5834 23.5453L15.7712 23.2812Z" fill="#223549"/>
<path fill-rule="evenodd" clip-rule="evenodd" d="M20.7369 17.9312C20.5524 17.7282 20.2408 17.9042 19.9238 18.1975C19.6086 18.4911 19.4102 18.7913 19.594 18.994C19.7647 19.1822 20.0927 19.0214 20.4083 18.729C20.723 18.4351 20.9221 18.1341 20.7369 17.9312Z" fill="#223549"/>
<path fill-rule="evenodd" clip-rule="evenodd" d="M20.2345 21.5451C20.2454 21.5361 20.2536 21.5285 20.2635 21.5196C20.4307 21.3716 20.5284 21.1425 20.5284 20.8926C20.5284 20.4129 20.1417 20.0217 19.6664 20.0217C19.1916 20.0217 18.8065 20.4129 18.8065 20.8926C18.8065 20.9575 18.819 21.0639 18.819 21.0639C18.7803 20.9898 18.6374 20.6571 18.6094 20.5955C18.7367 20.1286 19.1619 19.7845 19.6664 19.7845C20.0996 19.7845 20.4749 20.039 20.6521 20.4082C20.5847 19.9687 20.3705 19.5739 20.2162 19.4278C20.0332 19.2536 19.7214 19.1973 19.7214 19.1973C19.9252 19.2314 20.1949 19.1037 20.4967 18.8226C20.7826 18.5586 20.9309 18.3265 20.9381 18.1328C20.9207 18.4061 20.9284 18.5596 21.0044 18.7819C21.109 19.0847 21.3935 19.6445 21.293 20.2762C21.237 20.623 20.9879 21.1391 20.5733 21.5608C20.4836 21.6553 20.4502 21.7955 20.4405 21.8678C20.4405 21.8678 19.8266 21.8678 19.6803 21.882C19.6803 21.882 19.5357 21.8678 19.5383 21.7765C19.5409 21.6846 19.6206 21.6612 19.6942 21.6612C19.7657 21.6612 20.0718 21.6687 20.2345 21.5451Z" fill="#223549"/>
<path fill-rule="evenodd" clip-rule="evenodd" d="M16.1979 21.7223C15.6756 21.4328 15.165 20.9886 14.704 20.2764L14.6211 20.1367C14.7477 20.1935 14.9093 20.1528 14.9093 20.1528C14.9185 20.1652 14.9374 20.1974 14.947 20.2162C15.3767 20.856 15.8524 21.2606 16.3378 21.5246L16.1979 21.7223Z" fill="#223549"/>
<path fill-rule="evenodd" clip-rule="evenodd" d="M16.841 21.75C17.2361 21.894 17.6296 21.972 18.0025 22.0296C18.2465 22.0666 18.4849 22.0803 18.7115 22.0684C18.7083 22.1064 18.7083 22.1568 18.7303 22.1937C18.7303 22.1937 18.6855 22.2483 18.6855 22.3084C18.4528 22.3168 18.2136 22.3036 17.9667 22.2648C17.561 22.2014 17.1296 22.1186 16.6992 21.9525L16.841 21.75Z" fill="#223549"/>
<path fill-rule="evenodd" clip-rule="evenodd" d="M19.6457 21.9512C19.719 21.9393 19.949 21.9459 20.0859 21.9663C20.2366 21.9909 20.4084 22.0212 20.427 22.1058C20.4435 22.1859 20.3891 22.2705 20.3136 22.3917C20.2645 22.4663 20.1524 22.4233 20.0919 22.3997C20.0292 22.377 19.6748 22.1849 19.6171 22.1225C19.562 22.059 19.5379 21.9695 19.6457 21.9512Z" fill="#223549"/>
<path fill-rule="evenodd" clip-rule="evenodd" d="M19.2829 22.1878C19.3216 22.1637 19.4149 22.1272 19.5108 22.1642C19.6061 22.2002 19.9543 22.4079 19.9786 22.5067C20.0013 22.6037 19.9533 22.6515 19.8993 22.6737C19.8463 22.6954 19.78 22.7163 19.7317 22.7216C19.6452 22.7283 19.5608 22.6771 19.5155 22.6219C19.4701 22.5659 19.3086 22.3668 19.2829 22.3212C19.2609 22.2773 19.249 22.2125 19.2829 22.1878Z" fill="#223549"/>
<path fill-rule="evenodd" clip-rule="evenodd" d="M19.2407 22.4101C19.2905 22.4678 19.4324 22.64 19.4483 22.6689C19.4658 22.6972 19.4396 22.7423 19.3958 22.7365C19.3512 22.7319 19.112 22.7072 18.974 22.6126C18.8363 22.5169 18.7447 22.3325 18.84 22.2667C18.9326 22.2 19.081 22.2312 19.2407 22.4101Z" fill="#223549"/>
<path fill-rule="evenodd" clip-rule="evenodd" d="M19.1662 21.8743C19.2117 21.8637 19.3935 21.818 19.4326 21.878C19.4809 21.9533 19.4463 22.0342 19.3054 22.1033C19.1662 22.1705 18.9003 22.2253 18.8473 22.1525C18.7955 22.0772 18.8688 21.9533 19.1662 21.8743Z" fill="#223549"/>
<mask id="mask0" mask-type="alpha" maskUnits="userSpaceOnUse" x="0" y="0" width="59" height="29">
<path d="M0 28.8388H58.8884V0H0V28.8388Z" fill="white"/>
</mask>
<g mask="url(#mask0)">
<path fill-rule="evenodd" clip-rule="evenodd" d="M30.3594 28.995H58.8867V0.15625H30.3594V28.995Z" fill="white"/>
<path fill-rule="evenodd" clip-rule="evenodd" d="M53.3405 9.303C53.343 9.17532 53.3665 8.28004 53.3685 8.15914H53.584C54.4174 8.15914 54.5573 8.30801 54.6348 9.303H53.3405ZM55.7118 8.80602C55.581 7.69267 55.0639 7.11328 53.8425 7.11328H52.2893L52.0781 13.4027H53.21C53.21 13.4027 53.3145 10.4857 53.3205 10.3475C53.4444 10.3475 54.633 10.3489 54.7506 10.3489C54.7636 10.476 54.9777 13.4027 54.9777 13.4027H56.1462C56.1462 13.4027 55.744 9.08207 55.7118 8.80602Z" fill="#223549"/>
<path fill-rule="evenodd" clip-rule="evenodd" d="M39.6062 17.9397C39.6088 17.812 39.6322 16.9169 39.6343 16.796L39.837 16.7831C40.6705 16.7831 40.823 16.9449 40.9006 17.9397H39.6062ZM41.9774 17.4427C41.8469 16.3296 41.3295 15.75 40.1083 15.75H38.5549L38.3438 22.0394H39.4756C39.4756 22.0394 39.5801 19.1224 39.5863 18.9842C39.7104 18.9842 40.8988 18.9856 41.0163 18.9856C41.0294 19.1128 41.2433 22.0394 41.2433 22.0394H42.4119C42.4119 22.0394 42.0098 17.719 41.9774 17.4427Z" fill="#223549"/>
<path fill-rule="evenodd" clip-rule="evenodd" d="M33.4844 7.11328V13.4011H34.6283V8.15897H36.0459V13.4011H37.1917V7.11328H33.4844Z" fill="#223549"/>
<path fill-rule="evenodd" clip-rule="evenodd" d="M45.5887 9.30317H44.9659C44.7085 9.30317 44.5174 9.24501 44.3957 9.12751C44.3098 9.04595 44.2677 8.93539 44.2677 8.79127V7.11328H43.1211V8.9086C43.1211 9.3225 43.2831 9.67248 43.6028 9.95056C43.918 10.2259 44.3039 10.3646 44.7518 10.3646H45.5887V13.4013H46.7336V7.11328H45.5887V9.30317Z" fill="#223549"/>
<path fill-rule="evenodd" clip-rule="evenodd" d="M48 7.11328V8.15897H48.9507V13.4011H48.9648H50.0946H50.1087V8.15897H51.0594V7.11328H48Z" fill="#223549"/>
<path fill-rule="evenodd" clip-rule="evenodd" d="M46.3219 15.75V17.76H44.7514V15.75H43.6094V22.0406H44.7514V18.8057H46.3219V22.0406H47.464V15.75H46.3219Z" fill="#223549"/>
<path fill-rule="evenodd" clip-rule="evenodd" d="M35.0191 21.0668C34.9079 21.0668 34.6283 21.0408 34.6283 21.0408V19.8132V19.6845V18.827C34.6283 18.827 34.7182 18.8057 34.8165 18.8057C35.3968 18.8057 36.0827 18.7714 36.0827 19.9351C36.0827 21.002 35.3291 21.0668 35.0191 21.0668ZM35.1576 17.808C34.9606 17.808 34.7854 17.8127 34.6283 17.82V16.7957H36.6813V15.75H33.4844V16.7957V22.038H33.5619H35.2207C36.9518 22.038 37.22 20.4825 37.22 19.9066C37.22 19.2252 36.9533 17.808 35.1576 17.808Z" fill="#223549"/>
<path fill-rule="evenodd" clip-rule="evenodd" d="M39.4079 10.2708V10.2703C39.4174 8.5682 39.8336 8.00814 40.2723 7.99983C40.7111 8.00814 41.1273 8.5682 41.1368 10.2703V10.2708C41.1273 11.9332 40.7111 12.5009 40.2723 12.5095C39.8336 12.5009 39.4176 11.9332 39.4079 10.2708ZM42.2764 10.0376C42.2566 9.1381 42.1038 8.4936 41.8671 8.03578C41.4941 7.25325 40.8998 6.96109 40.2863 6.95363C40.2849 6.95363 40.2837 6.95312 40.2824 6.95312C40.279 6.95312 40.2757 6.95329 40.2723 6.95329C40.269 6.95329 40.2656 6.95312 40.2623 6.95312C40.2609 6.95312 40.2598 6.95363 40.2584 6.95363C39.6449 6.96109 39.0508 7.25325 38.6776 8.03578C38.4407 8.4936 38.2881 9.1381 38.2683 10.0376C38.2681 10.039 38.2656 10.2396 38.2656 10.2411L38.2658 10.2409C38.2665 10.8013 38.3282 11.3448 38.4488 11.7824C38.7629 13.0709 39.4889 13.5267 40.2467 13.5404C40.2519 13.5406 40.2574 13.5411 40.2623 13.5411C40.2656 13.5411 40.269 13.5409 40.2723 13.5409C40.2757 13.5409 40.279 13.5411 40.2824 13.5411C40.2874 13.5411 40.293 13.5406 40.298 13.5404C41.0558 13.5267 41.7817 13.0709 42.0959 11.7824C42.2167 11.3448 42.2784 10.8013 42.2789 10.2409L42.279 10.2411C42.279 10.2396 42.2764 10.039 42.2764 10.0376Z" fill="#223549"/>
<path fill-rule="evenodd" clip-rule="evenodd" d="M53.1625 22.0387L51.7856 18.3528C52.0715 18.1376 52.294 17.7254 52.393 17.3149C52.4889 16.9159 52.6152 15.75 52.6152 15.75H51.4891C51.4822 15.8687 51.4579 16.2677 51.4227 16.6733C51.3705 17.2745 51.1954 17.8292 50.587 17.8292H50.1176C50.1167 17.7788 50.1176 15.75 50.1176 15.75H48.9727V22.0406H50.1176V18.8467C50.1176 18.8467 50.7232 18.8476 50.8088 18.8469L51.9334 22.0387H53.1625Z" fill="#223549"/>
</g>
</g>
</svg>
