<svg width="56" height="28" viewBox="0 0 56 28" fill="none" xmlns="http://www.w3.org/2000/svg">
<path fill-rule="evenodd" clip-rule="evenodd" d="M0 27.1878H26.7473V0.148438H0V27.1878Z" fill="#001689"/>
<path fill-rule="evenodd" clip-rule="evenodd" d="M8.11942 8.88281C8.31695 9.32335 8.63965 9.7755 9.52426 10.3858C9.72037 10.5224 9.93865 10.8065 9.77337 11.2062C9.60557 11.6054 9.29513 12.1728 9.48007 12.3941C9.66769 12.6151 10.3337 12.73 10.8752 12.5103C10.8752 12.5103 10.9889 12.8559 11.1875 13.0774C11.1875 13.0774 11.0938 13.268 10.7819 13.1718C10.7819 13.1718 10.8954 13.4558 10.7388 13.761C10.7388 13.761 10.3755 13.6981 10.2198 13.3609C10.2198 13.3609 10.0734 13.6235 9.78249 13.7184C9.78249 13.7184 9.54313 13.5933 9.59645 13.1079C9.59645 13.1079 9.41858 13.54 8.87885 13.6127C8.87885 13.6127 8.56605 13.214 8.97148 12.6777C8.97148 12.6777 8.68007 12.9407 8.15151 12.8143C8.15151 12.8143 8.06737 12.5415 8.54498 12.1626C8.54498 12.1626 8.00415 12.1413 7.79688 11.679C7.79688 11.679 8.02538 11.3946 8.58618 11.4582C8.58618 11.4582 8.06737 11.3418 7.95241 10.7114C7.95241 10.7114 8.32685 10.4696 8.91974 10.8583C8.91974 10.8583 8.81437 10.6591 8.56605 10.4594C8.31695 10.2594 8.01484 9.70221 8.11942 8.88281Z" fill="white"/>
<path fill-rule="evenodd" clip-rule="evenodd" d="M10.2984 15.2234C10.2185 15.1173 10.1601 15.0117 10.1172 14.9102C10.2101 15.6749 10.2424 16.1904 10.6514 16.686C10.6514 16.686 10.8977 16.3547 10.7392 15.5494C10.6712 15.5294 10.5931 15.4962 10.5193 15.4456C10.5193 15.4456 10.6124 15.7726 10.5533 16.1013C10.5533 16.1013 10.4073 15.9935 10.2984 15.2234Z" fill="white"/>
<path fill-rule="evenodd" clip-rule="evenodd" d="M9.58706 15.1434C9.53831 15.0812 9.44426 14.9491 9.39425 14.8555C9.36076 15.3 9.24407 16.468 9.63188 16.8345C9.63188 16.8345 9.89766 16.6378 9.9906 14.9323C9.93461 15.028 9.83569 15.1297 9.78757 15.1855C9.78757 15.1855 9.85236 15.7262 9.66066 16.1083C9.66066 16.1083 9.46833 15.9606 9.58706 15.1434Z" fill="white"/>
<path fill-rule="evenodd" clip-rule="evenodd" d="M8.66475 16.0395C8.98919 15.6455 9.08748 14.4646 9.08748 14.4646C9.13261 14.4339 9.17728 14.4007 9.22414 14.3638C9.2405 14.3487 9.25937 14.3333 9.27651 14.3164C9.27651 14.359 9.27824 14.4042 9.28249 14.4485C9.23531 15.1596 9.17995 15.8918 8.96009 16.2563C8.74559 16.6139 8.34944 16.7992 8.34944 16.7992C7.9794 16.1321 8.42681 15.2382 8.80315 14.6162C8.84812 14.5986 8.89499 14.5763 8.94311 14.552C8.81164 15.0306 8.5608 15.6002 8.66475 16.0395Z" fill="white"/>
<path fill-rule="evenodd" clip-rule="evenodd" d="M7.74496 13.9875C7.74308 14.0632 7.75707 14.1263 7.76745 14.1573C7.77091 14.1697 7.77642 14.188 7.78459 14.2061C7.474 14.5141 7.24361 14.809 6.78377 15.455C6.32298 16.1014 5.59375 16.1271 5.59375 16.1271C5.66452 15.6036 5.80464 15.1901 6.1956 14.7438C6.58561 14.298 7.08524 13.8904 7.45151 13.6211C7.54524 13.6637 7.669 13.6917 7.82407 13.6729C7.83602 13.6721 7.84876 13.6707 7.85992 13.6677C7.81117 13.7333 7.78113 13.7985 7.76619 13.8585C7.48736 14.0195 6.68139 14.4324 6.35475 15.0993C6.35475 15.0993 6.86476 14.9364 7.74496 13.9875Z" fill="white"/>
<path fill-rule="evenodd" clip-rule="evenodd" d="M7.17019 13.3365L7.20007 13.281C7.21186 13.2624 7.22098 13.246 7.23325 13.2305C6.93319 13.348 5.86553 13.7553 5.52018 13.9359C5.17419 14.1177 4.6741 14.5281 4.40234 15.3635C4.40234 15.3635 5.12293 15.4282 5.7177 14.9314C6.31263 14.4327 7.00585 13.7389 7.30182 13.5184C7.27209 13.4909 7.24913 13.4639 7.23325 13.4411C7.23325 13.4411 6.42806 14.1613 5.57742 14.4731C5.57742 14.4731 5.75906 14.1386 6.09592 13.8964C6.50528 13.6026 6.8121 13.5038 7.17019 13.3365Z" fill="white"/>
<path fill-rule="evenodd" clip-rule="evenodd" d="M6.55901 12.843C6.57096 12.8142 6.58275 12.787 6.59486 12.7617C6.24212 12.8336 5.36239 12.9406 4.96812 13.0617C4.57512 13.1846 3.8635 13.4752 3.44141 14.2902C3.44141 14.2902 4.06103 14.483 5.23028 13.9272C6.39954 13.3705 6.76675 13.2547 6.98944 13.1948C6.8122 13.1819 6.68545 13.1212 6.62081 13.0803C6.15421 13.2907 5.53019 13.5387 4.91104 13.5555C4.91104 13.5555 5.2155 13.3377 5.53742 13.2002C5.8845 13.0538 6.26775 12.9197 6.55901 12.843Z" fill="white"/>
<path fill-rule="evenodd" clip-rule="evenodd" d="M6.58798 12.2578C6.70215 12.3119 6.78991 12.3389 6.93978 12.3545C6.85847 12.4082 6.78126 12.4756 6.71206 12.567C6.29956 12.6872 5.59643 12.8181 4.43708 12.9028C3.27883 12.9863 2.66016 12.772 2.66016 12.772C3.06401 12.5222 3.70785 12.2688 4.14378 12.1837C4.57909 12.0985 5.72287 12.1084 6.22407 12.0391C6.22958 12.0449 6.29028 12.0945 6.3892 12.155C5.96757 12.193 5.06881 12.2351 4.60583 12.4737C4.60583 12.4737 5.46087 12.5883 6.58798 12.2578Z" fill="white"/>
<path fill-rule="evenodd" clip-rule="evenodd" d="M6.49851 11.5836C6.55733 11.5486 6.62762 11.514 6.71428 11.4815C6.1269 11.3024 5.32186 11.0148 4.10873 10.9354C3.22003 10.8765 2.57871 10.928 2.24609 11.0148C2.24609 11.0148 3.05632 11.5911 3.98119 11.7943C4.90779 11.9984 5.65951 11.8698 6.20899 11.8747C6.24453 11.82 6.28589 11.7579 6.35052 11.6963C5.70747 11.7006 4.63886 11.5321 4.2564 11.403C4.2564 11.403 5.18866 11.207 6.49851 11.5836Z" fill="white"/>
<path fill-rule="evenodd" clip-rule="evenodd" d="M6.49715 10.8843C6.50029 10.9011 6.56949 11.2356 6.9529 11.4202C6.12852 11.056 4.50603 10.8461 3.6329 10.4794C2.45405 9.98366 2.23828 9.36538 2.23828 9.36538C3.25924 9.33772 4.08425 9.58939 4.72054 9.78716C5.46487 10.0174 6.59874 10.446 6.99551 10.6248C6.84816 10.6306 6.68382 10.6744 6.54653 10.7671C5.9928 10.552 5.73442 10.4611 5.23164 10.3186C4.83361 10.2059 4.54078 10.1843 4.29231 10.1603C4.29231 10.1603 4.64159 10.3935 5.21702 10.5791C5.78741 10.7641 6.03432 10.7946 6.49715 10.8843Z" fill="white"/>
<path fill-rule="evenodd" clip-rule="evenodd" d="M6.43367 9.97718C6.46654 10.0362 6.56373 10.1769 6.60257 10.2327C5.29964 10.0122 3.86697 9.01629 3.42396 8.39864C2.9811 7.78084 3.10613 6.85938 3.10613 6.85938C3.53593 6.94634 4.46992 7.76081 4.71163 8.00612C4.95413 8.25015 5.68384 8.96923 6.18976 9.36987L6.34718 9.83346C5.91392 9.48084 5.39998 9.08815 5.0801 8.84411C4.83351 8.65651 4.46426 8.38942 4.09689 8.26335C4.09689 8.26335 4.43516 8.70834 4.70802 8.92583C5.02317 9.17734 5.34352 9.39562 5.60631 9.54157C5.84016 9.67146 5.95999 9.74475 6.43367 9.97718Z" fill="white"/>
<path fill-rule="evenodd" clip-rule="evenodd" d="M10.1092 13.6628C10.149 13.6274 10.1841 13.5932 10.2114 13.5625C10.2715 13.6385 10.4731 13.8921 10.5728 14.1455C10.647 14.3615 10.7274 14.6557 10.7669 14.8242C10.8068 14.9914 10.9246 15.3423 10.997 15.4622C10.997 15.4622 10.6799 15.5026 10.4448 15.2248C10.2139 14.9528 10.1367 14.6787 10.0999 14.398C10.0699 14.1779 10.0809 13.8727 10.1092 13.6628Z" fill="white"/>
<path fill-rule="evenodd" clip-rule="evenodd" d="M9.61142 13.707C9.67039 13.787 9.72701 13.8193 9.73251 13.8229L9.77607 13.845L9.81979 13.8294C9.86005 13.8175 9.89607 13.8029 9.92972 13.7856C9.97643 13.9151 9.99561 13.9776 10.0065 14.0876C10.0209 14.2345 10.0494 14.4655 9.99561 14.6542C9.92972 14.884 9.79259 15.0247 9.71773 15.1124C9.71773 15.1124 9.50983 14.8813 9.45054 14.6915C9.38889 14.4918 9.36672 14.2598 9.44346 14.022C9.48529 13.8929 9.55166 13.7749 9.61142 13.707Z" fill="white"/>
<path fill-rule="evenodd" clip-rule="evenodd" d="M8.89163 13.727C9.10425 13.6985 9.2645 13.6209 9.38591 13.5312C9.41296 13.6068 9.45479 13.7084 9.42475 13.8524C9.39204 13.9967 9.29344 14.1559 9.15237 14.2713C8.93661 14.4438 8.65133 14.6066 8.3346 14.5575C8.3346 14.5575 8.26179 14.3165 8.89163 13.727Z" fill="white"/>
<path fill-rule="evenodd" clip-rule="evenodd" d="M8.65227 13.3281C8.67885 13.542 8.77981 13.6763 8.78641 13.6869C8.71281 13.7761 8.44594 14.2389 7.89001 14.1621C7.89001 14.1621 7.73841 13.8462 8.10971 13.5952C8.35991 13.4253 8.48022 13.3906 8.65227 13.3281Z" fill="white"/>
<path fill-rule="evenodd" clip-rule="evenodd" d="M8.70077 12.9294C8.5531 12.9671 8.35982 12.9822 8.12393 12.9257L8.05961 12.9106L8.03963 12.8477C7.75357 13.0833 7.41388 13.1232 7.29688 13.337C7.29688 13.337 7.43983 13.6027 7.81113 13.5593C8.18243 13.5141 8.46031 13.3383 8.65941 13.0864C8.66712 13.0491 8.68394 12.9777 8.70077 12.9294Z" fill="white"/>
<path fill-rule="evenodd" clip-rule="evenodd" d="M8.06213 12.6006C8.11372 12.5213 8.15036 12.3987 8.26139 12.2745C8.01653 12.2316 7.79478 12.2279 7.50683 12.2847C7.16479 12.3491 6.81535 12.4308 6.64062 12.9581C6.64062 12.9581 6.85922 13.1469 7.25899 13.0651C7.59852 12.9942 7.89276 12.8473 8.06213 12.6006Z" fill="white"/>
<path fill-rule="evenodd" clip-rule="evenodd" d="M7.91481 12.0289C7.82925 11.9529 7.74889 11.8555 7.69259 11.7281L7.6646 11.662C7.36769 11.54 7.05898 11.4774 6.75498 11.5906C6.45241 11.7059 6.37268 11.8367 6.29688 11.9516C6.29688 11.9516 6.63232 12.2356 7.01699 12.2453C7.40291 12.2582 7.75959 12.1451 7.91481 12.0289Z" fill="white"/>
<path fill-rule="evenodd" clip-rule="evenodd" d="M8.00368 11.4117C8.05479 11.3922 8.11172 11.3741 8.17635 11.3607C8.04677 11.244 7.91608 11.0652 7.85412 10.799C7.71604 10.8315 7.39286 10.8315 7.25085 10.7772C7.10743 10.7219 6.82781 10.7192 6.60938 10.8647C6.60938 10.8647 6.68187 11.2524 7.17553 11.3847C7.64213 11.5084 7.81386 11.4764 8.00368 11.4117Z" fill="white"/>
<path fill-rule="evenodd" clip-rule="evenodd" d="M7.82722 10.6577L7.89233 10.6155C7.90145 10.6098 8.01201 10.541 8.20041 10.5259C8.04173 10.4065 7.66147 10.0848 7.39459 9.93048C7.10051 9.76466 6.61441 9.54463 6.36719 9.51172C6.36719 9.51172 6.59931 10.1271 6.86854 10.3759C7.1502 10.6341 7.346 10.7295 7.82722 10.6577Z" fill="white"/>
<path fill-rule="evenodd" clip-rule="evenodd" d="M8.32626 10.3743C8.20643 10.219 8.11348 10.0044 8.04476 9.75062C7.98909 9.54473 7.8606 9.03313 7.7848 8.90101C7.70916 8.76795 7.43521 8.30483 6.90114 8.16016C6.90114 8.16016 6.75834 8.76524 7.02742 9.24219C7.2586 9.65475 7.73479 10.0891 8.32626 10.3743Z" fill="white"/>
<path fill-rule="evenodd" clip-rule="evenodd" d="M11.2944 13.1815C11.3601 13.2499 11.4111 13.2866 11.5303 13.3473C11.5303 13.3473 11.7009 13.6761 11.4939 14.0741C11.2867 14.4715 11.1129 14.8766 11.0297 15.1025C11.0297 15.1025 10.9188 15.0855 10.7952 14.4636C10.7122 14.0421 10.6067 13.9365 10.4961 13.7919C10.6162 13.8532 10.7131 13.8714 10.7216 13.8731L10.8042 13.8873L10.8416 13.8128C10.9154 13.6709 10.9382 13.5329 10.9382 13.4175C10.9382 13.3798 10.9353 13.3443 10.9311 13.3119C11.1231 13.3168 11.2253 13.2187 11.2651 13.169C11.2678 13.1637 11.2716 13.1607 11.2733 13.1562L11.2944 13.1815Z" fill="white"/>
<path fill-rule="evenodd" clip-rule="evenodd" d="M6.75328 8.41053C6.7514 8.46904 6.74967 8.53247 6.7514 8.60036L6.7624 8.749C6.44615 8.34169 6.06887 7.85155 5.70858 7.39813C5.46136 7.08812 5.25236 6.90036 5.02102 6.74916C5.21477 7.32373 5.5661 7.78239 5.81379 8.01117C6.06053 8.23978 6.42067 8.62532 6.76995 8.86077L6.80361 8.97746C6.83097 9.08398 6.8728 9.194 6.93131 9.29686C7.01198 9.44201 7.11971 9.58525 7.24599 9.72373C7.14456 9.67269 7.02849 9.61768 6.91039 9.56745L6.80219 9.52229C5.83942 9.00592 4.88656 7.93708 4.49953 7.19368C4.11203 6.45012 4.27402 5.58684 4.37577 5.125C4.81249 5.4994 5.44123 6.23581 5.71518 6.6374C6.05267 7.12881 6.48562 7.82579 6.75202 8.3932L6.75328 8.41053Z" fill="white"/>
<path fill-rule="evenodd" clip-rule="evenodd" d="M20.2458 11.5836C20.1876 11.5486 20.1176 11.514 20.0312 11.4815C20.6172 11.3024 21.4235 11.0148 22.6355 10.9354C23.5247 10.8765 24.1678 10.928 24.4991 11.0148C24.4991 11.0148 23.6897 11.5911 22.7634 11.7943C21.8376 11.9984 21.0857 11.8698 20.5362 11.8747C20.5004 11.82 20.4587 11.7579 20.3944 11.6963C21.0376 11.7006 22.1074 11.5321 22.4891 11.403C22.4891 11.403 21.5566 11.207 20.2458 11.5836Z" fill="white"/>
<path fill-rule="evenodd" clip-rule="evenodd" d="M20.2485 10.8843C20.2454 10.9011 20.1767 11.2356 19.7929 11.4202C20.6168 11.056 22.2409 10.8461 23.1128 10.4794C24.2923 9.98366 24.5079 9.36538 24.5079 9.36538C23.4872 9.33772 22.6621 9.58939 22.0256 9.78716C21.2819 10.0174 20.1471 10.446 19.75 10.6248C19.8994 10.6306 20.0619 10.6744 20.2002 10.7671C20.7541 10.552 21.0117 10.4611 21.5153 10.3186C21.9122 10.2059 22.2055 10.1843 22.4538 10.1603C22.4538 10.1603 22.1049 10.3935 21.5291 10.5791C20.9579 10.7641 20.7115 10.7946 20.2485 10.8843Z" fill="white"/>
<path fill-rule="evenodd" clip-rule="evenodd" d="M20.3133 9.97718C20.281 10.0362 20.1827 10.1769 20.1445 10.2327C21.4473 10.0122 22.8804 9.01629 23.3228 8.39864C23.7671 7.78084 23.6411 6.85938 23.6411 6.85938C23.2105 6.94634 22.277 7.76081 22.0352 8.00612C21.7934 8.25015 21.0633 8.96923 20.557 9.36987L20.3995 9.83346C20.8324 9.48084 21.3465 9.08815 21.6676 8.84411C21.9137 8.65651 22.2822 8.38942 22.6496 8.26335C22.6496 8.26335 22.3118 8.70834 22.0386 8.92583C21.725 9.17734 21.4045 9.39562 21.1405 9.54157C20.9069 9.67146 20.7874 9.74475 20.3133 9.97718Z" fill="white"/>
<path fill-rule="evenodd" clip-rule="evenodd" d="M19.9935 8.41053C19.9952 8.46904 19.9968 8.53247 19.9941 8.60036L19.983 8.749C20.2987 8.34169 20.6776 7.85155 21.0374 7.39813C21.2848 7.08812 21.4943 6.90036 21.7258 6.74916C21.53 7.32373 21.1807 7.78239 20.9322 8.01117C20.6848 8.23978 20.3269 8.62532 19.9767 8.86077L19.9424 8.97746C19.9152 9.08398 19.8738 9.194 19.8155 9.29686C19.7335 9.44201 19.6277 9.58525 19.5 9.72373C19.6016 9.67269 19.7177 9.61768 19.8353 9.56745L19.9436 9.52229C20.9066 9.00592 21.8605 7.93708 22.2465 7.19368C22.6316 6.45012 22.4732 5.58684 22.3704 5.125C21.9333 5.4994 21.3044 6.23581 21.03 6.6374C20.6927 7.12881 20.2613 7.82579 19.9935 8.3932V8.41053Z" fill="white"/>
<path fill-rule="evenodd" clip-rule="evenodd" d="M7.97987 14.2876C7.58341 14.6883 6.74755 15.588 6.8254 16.5635C6.8254 16.5635 7.60275 16.3182 7.92216 15.7423C8.24266 15.1674 8.44018 14.8067 8.57401 14.6771C8.48768 14.6883 8.40134 14.6883 8.31767 14.6741L8.24769 14.663C8.05017 15.0263 7.65968 15.6194 7.3082 15.8266C7.3082 15.8266 7.2184 15.3457 8.25178 14.3706C8.26593 14.3307 8.28716 14.2845 8.31642 14.2344C8.22206 14.2695 8.11386 14.2889 7.99324 14.2868" fill="white"/>
<path fill-rule="evenodd" clip-rule="evenodd" d="M18.6252 8.88281C18.428 9.32335 18.1039 9.7755 17.2223 10.3858C17.0241 10.5224 16.8063 10.8065 16.9721 11.2062C17.1378 11.6054 17.4508 12.1728 17.2629 12.3941C17.0763 12.6151 16.4111 12.73 15.8692 12.5103C15.8692 12.5103 15.7561 12.8559 15.5586 13.0774C15.5586 13.0774 15.6511 13.268 15.9639 13.1718C15.9639 13.1718 15.8497 13.4558 16.0052 13.761C16.0052 13.761 16.3691 13.6981 16.5242 13.3609C16.5242 13.3609 16.67 13.6235 16.9623 13.7184C16.9623 13.7184 17.2023 13.5933 17.1493 13.1079C17.1493 13.1079 17.3251 13.54 17.8672 13.6127C17.8672 13.6127 18.1791 13.214 17.7724 12.6777C17.7724 12.6777 18.064 12.9407 18.5943 12.8143C18.5943 12.8143 18.6775 12.5415 18.198 12.1626C18.198 12.1626 18.7405 12.1413 18.9487 11.679C18.9487 11.679 18.7194 11.3946 18.1585 11.4582C18.1585 11.4582 18.6775 11.3418 18.7918 10.7114C18.7918 10.7114 18.4175 10.4696 17.8257 10.8583C17.8257 10.8583 17.9287 10.6591 18.178 10.4594C18.428 10.2594 18.7303 9.70221 18.6252 8.88281Z" fill="white"/>
<path fill-rule="evenodd" clip-rule="evenodd" d="M16.4518 15.2234C16.5305 15.1173 16.5885 15.0117 16.6338 14.9102C16.5407 15.6749 16.5069 16.1904 16.098 16.686C16.098 16.686 15.8522 16.3547 16.0098 15.5494C16.0796 15.5294 16.1557 15.4962 16.231 15.4456C16.231 15.4456 16.1375 15.7726 16.1952 16.1013C16.1952 16.1013 16.3443 15.9935 16.4518 15.2234Z" fill="white"/>
<path fill-rule="evenodd" clip-rule="evenodd" d="M17.1589 15.1434C17.2079 15.0812 17.3029 14.9491 17.3512 14.8555C17.385 15.3 17.5006 16.468 17.1133 16.8345C17.1133 16.8345 16.8478 16.6378 16.7539 14.9323C16.8107 15.028 16.9091 15.1297 16.9561 15.1855C16.9561 15.1855 16.8928 15.7262 17.0846 16.1083C17.0846 16.1083 17.2768 15.9606 17.1589 15.1434Z" fill="white"/>
<path fill-rule="evenodd" clip-rule="evenodd" d="M18.079 16.0395C17.752 15.6455 17.655 14.4646 17.655 14.4646C17.6105 14.4339 17.5639 14.4007 17.5205 14.3638C17.501 14.3487 17.4836 14.3333 17.4663 14.3164C17.4663 14.359 17.4647 14.4042 17.4609 14.4485C17.5065 15.1596 17.5639 15.8918 17.7825 16.2563C17.9974 16.6139 18.3923 16.7992 18.3923 16.7992C18.7637 16.1321 18.3154 15.2382 17.9403 14.6162C17.8936 14.5986 17.8475 14.5763 17.8008 14.552C17.9316 15.0306 18.1823 15.6002 18.079 16.0395Z" fill="white"/>
<path fill-rule="evenodd" clip-rule="evenodd" d="M19.0009 13.9875C19.0044 14.0632 18.9896 14.1263 18.9795 14.1573C18.9759 14.1697 18.9699 14.188 18.9631 14.2061C19.2723 14.5141 19.5033 14.809 19.9632 15.455C20.424 16.1014 21.1532 16.1271 21.1532 16.1271C21.0835 15.6036 20.9423 15.1901 20.5518 14.7438C20.1617 14.298 19.6631 13.8904 19.2956 13.6211C19.2011 13.6637 19.0786 13.6917 18.9232 13.6729C18.9105 13.6721 18.8982 13.6707 18.8867 13.6677C18.9353 13.7333 18.9649 13.7985 18.9815 13.8585C19.2591 14.0195 20.0671 14.4324 20.3925 15.0993C20.3925 15.0993 19.8819 14.9364 19.0009 13.9875Z" fill="white"/>
<path fill-rule="evenodd" clip-rule="evenodd" d="M19.5776 13.3365L19.5469 13.281C19.5365 13.2624 19.5263 13.246 19.5147 13.2305C19.8141 13.348 20.8825 13.7553 21.2276 13.9359C21.5728 14.1177 22.0719 14.5281 22.3431 15.3635C22.3431 15.3635 21.6237 15.4282 21.0286 14.9314C20.4343 14.4327 19.7402 13.7389 19.4453 13.5184C19.4749 13.4909 19.4971 13.4639 19.5147 13.4411C19.5147 13.4411 20.3192 14.1613 21.1692 14.4731C21.1692 14.4731 20.9881 14.1386 20.6528 13.8964C20.242 13.6026 19.9361 13.5038 19.5776 13.3365Z" fill="white"/>
<path fill-rule="evenodd" clip-rule="evenodd" d="M20.1867 12.843C20.1758 12.8142 20.1642 12.787 20.1514 12.7617C20.504 12.8336 21.3852 12.9406 21.7793 13.0617C22.171 13.1846 22.8834 13.4752 23.3057 14.2902C23.3057 14.2902 22.6861 14.483 21.5157 13.9272C20.3458 13.3705 19.9808 13.2547 19.7578 13.1948C19.9344 13.1819 20.0609 13.1212 20.1268 13.0803C20.5932 13.2907 21.2174 13.5387 21.8362 13.5555C21.8362 13.5555 21.5302 13.3377 21.2098 13.2002C20.8607 13.0538 20.4784 12.9197 20.1867 12.843Z" fill="white"/>
<path fill-rule="evenodd" clip-rule="evenodd" d="M20.1607 12.2578C20.0456 12.3119 19.9582 12.3389 19.8086 12.3545C19.8901 12.4082 19.9679 12.4756 20.0376 12.567C20.4496 12.6872 21.1508 12.8181 22.3108 12.9028C23.4697 12.9863 24.0874 12.772 24.0874 12.772C23.684 12.5222 23.0408 12.2688 22.6054 12.1837C22.1688 12.0985 21.0252 12.1084 20.5234 12.0391C20.5179 12.0449 20.4562 12.0945 20.3585 12.155C20.781 12.193 21.6789 12.2351 22.1427 12.4737C22.1427 12.4737 21.2872 12.5883 20.1607 12.2578Z" fill="white"/>
<path fill-rule="evenodd" clip-rule="evenodd" d="M16.6382 13.6628C16.5988 13.6274 16.5649 13.5932 16.5347 13.5625C16.4758 13.6385 16.2748 13.8921 16.1765 14.1455C16.101 14.3615 16.0206 14.6557 15.982 14.8242C15.9406 14.9914 15.8222 15.3423 15.75 15.4622C15.75 15.4622 16.068 15.5026 16.3033 15.2248C16.5341 14.9528 16.612 14.6787 16.6494 14.398C16.6763 14.1779 16.6686 13.8727 16.6382 13.6628Z" fill="white"/>
<path fill-rule="evenodd" clip-rule="evenodd" d="M17.1376 13.707C17.0793 13.787 17.0231 13.8193 17.0173 13.8229L16.975 13.845L16.9292 13.8294C16.891 13.8175 16.855 13.8029 16.8204 13.7856C16.7739 13.9151 16.7563 13.9776 16.744 14.0876C16.7281 14.2345 16.7007 14.4655 16.7539 14.6542C16.8209 14.884 16.9561 15.0247 17.0321 15.1124C17.0321 15.1124 17.2402 14.8813 17.2999 14.6915C17.3612 14.4918 17.3837 14.2598 17.3082 14.022C17.2656 13.8929 17.1972 13.7749 17.1376 13.707Z" fill="white"/>
<path fill-rule="evenodd" clip-rule="evenodd" d="M17.852 13.727C17.6389 13.6985 17.479 13.6209 17.3569 13.5312C17.3308 13.6068 17.2882 13.7084 17.3198 13.8524C17.3505 13.9967 17.4492 14.1559 17.5931 14.2713C17.8056 14.4438 18.0926 14.6066 18.4093 14.5575C18.4093 14.5575 18.4821 14.3165 17.852 13.727Z" fill="white"/>
<path fill-rule="evenodd" clip-rule="evenodd" d="M18.0917 13.3281C18.0665 13.542 17.9652 13.6763 17.957 13.6869C18.0311 13.7761 18.298 14.2389 18.8574 14.1621C18.8574 14.1621 19.0061 13.8462 18.637 13.5952C18.3838 13.4253 18.2648 13.3906 18.0917 13.3281Z" fill="white"/>
<path fill-rule="evenodd" clip-rule="evenodd" d="M18.043 12.9294C18.1916 12.9671 18.3855 12.9822 18.622 12.9257L18.6863 12.9106L18.7049 12.8477C18.9916 13.0833 19.3314 13.1232 19.4483 13.337C19.4483 13.337 19.3053 13.6027 18.9348 13.5593C18.5635 13.5141 18.2834 13.3383 18.0851 13.0864C18.078 13.0491 18.062 12.9777 18.043 12.9294Z" fill="white"/>
<path fill-rule="evenodd" clip-rule="evenodd" d="M18.6852 12.6006C18.6319 12.5213 18.5945 12.3987 18.4844 12.2745C18.7316 12.2316 18.9521 12.2279 19.2394 12.2847C19.5818 12.3491 19.9309 12.4308 20.1064 12.9581C20.1064 12.9581 19.8854 13.1469 19.4861 13.0651C19.1483 12.9942 18.8535 12.8473 18.6852 12.6006Z" fill="white"/>
<path fill-rule="evenodd" clip-rule="evenodd" d="M18.832 12.0289C18.9182 11.9529 18.9973 11.8555 19.0546 11.7281L19.0826 11.662C19.3801 11.54 19.6894 11.4774 19.9909 11.5906C20.2947 11.7059 20.3738 11.8367 20.452 11.9516C20.452 11.9516 20.1161 12.2356 19.7294 12.2453C19.3438 12.2582 18.9871 12.1451 18.832 12.0289Z" fill="white"/>
<path fill-rule="evenodd" clip-rule="evenodd" d="M18.7439 11.4117C18.6925 11.3922 18.6354 11.3741 18.5703 11.3607C18.7023 11.244 18.8315 11.0652 18.8943 10.799C19.032 10.8315 19.3555 10.8315 19.4982 10.7772C19.6405 10.7219 19.9204 10.7192 20.1385 10.8647C20.1385 10.8647 20.0675 11.2524 19.5713 11.3847C19.1042 11.5084 18.933 11.4764 18.7439 11.4117Z" fill="white"/>
<path fill-rule="evenodd" clip-rule="evenodd" d="M18.9173 10.6577L18.8528 10.6155C18.8433 10.6098 18.7328 10.541 18.543 10.5259C18.7034 10.4065 19.0813 10.0848 19.3513 9.93048C19.6446 9.76466 20.1301 9.54463 20.3793 9.51172C20.3793 9.51172 20.1464 10.1271 19.8755 10.3759C19.5954 10.6341 19.3988 10.7295 18.9173 10.6577Z" fill="white"/>
<path fill-rule="evenodd" clip-rule="evenodd" d="M18.418 10.3743C18.5378 10.219 18.6306 10.0044 18.6995 9.75062C18.7564 9.54473 18.8843 9.03313 18.9605 8.90101C19.0373 8.76795 19.3101 8.30483 19.8445 8.16016C19.8445 8.16016 19.9868 8.76524 19.7176 9.24219C19.485 9.65475 19.0107 10.0891 18.418 10.3743Z" fill="white"/>
<path fill-rule="evenodd" clip-rule="evenodd" d="M15.4526 13.1815C15.3836 13.2499 15.3329 13.2866 15.215 13.3473C15.215 13.3473 15.0436 13.6761 15.251 14.0741C15.457 14.4715 15.6313 14.8766 15.7157 15.1025C15.7157 15.1025 15.8267 15.0855 15.9496 14.4636C16.0334 14.0421 16.1394 13.9365 16.2485 13.7919C16.1282 13.8532 16.0328 13.8714 16.0238 13.8731L15.9417 13.8873L15.9035 13.8128C15.8288 13.6709 15.8088 13.5329 15.8088 13.4175C15.8088 13.3798 15.8104 13.3443 15.8143 13.3119C15.622 13.3168 15.5193 13.2187 15.4812 13.169C15.4767 13.1637 15.4735 13.1607 15.4715 13.1562L15.4526 13.1815Z" fill="white"/>
<path fill-rule="evenodd" clip-rule="evenodd" d="M18.766 14.2876C19.1622 14.6883 19.9987 15.588 19.9192 16.5635C19.9192 16.5635 19.1422 16.3182 18.8236 15.7423C18.5029 15.1674 18.3065 14.8067 18.1719 14.6771C18.2568 14.6883 18.3431 14.6883 18.4279 14.6741L18.4993 14.663C18.6957 15.0263 19.0862 15.6194 19.438 15.8266C19.438 15.8266 19.5272 15.3457 18.4943 14.3706C18.4798 14.3307 18.4579 14.2845 18.4295 14.2344C18.5235 14.2695 18.6316 14.2889 18.752 14.2868" fill="white"/>
<path fill-rule="evenodd" clip-rule="evenodd" d="M12.7656 6.50241C12.7656 6.43055 13.0377 6.37109 13.3723 6.37109C13.7078 6.37109 13.9791 6.43055 13.9791 6.50241C13.9791 6.5738 13.7078 6.63278 13.3723 6.63278C13.0377 6.63278 12.7656 6.5738 12.7656 6.50241Z" fill="white"/>
<path fill-rule="evenodd" clip-rule="evenodd" d="M13.4926 6.79207C13.4926 6.85868 13.4404 6.91273 13.3742 6.91273C13.3085 6.91273 13.2539 6.85868 13.2539 6.79207C13.2539 6.72561 13.3085 6.67188 13.3742 6.67188C13.4404 6.67188 13.4926 6.72561 13.4926 6.79207Z" fill="white"/>
<path fill-rule="evenodd" clip-rule="evenodd" d="M12.7223 6.37472C12.5214 5.88887 12.3857 5.52925 12.3908 5.40937C12.3942 5.33704 12.4801 5.28298 12.5614 5.25802C12.6408 5.23243 12.7121 5.2275 12.7657 5.26883C12.8712 5.35039 12.9679 6.00699 13.0046 6.2798C12.9028 6.2992 12.841 6.31255 12.7223 6.37472Z" fill="white"/>
<path fill-rule="evenodd" clip-rule="evenodd" d="M13.0916 6.26943C13.1422 6.26275 13.1949 6.26052 13.2481 6.2583C13.2165 5.99757 13.1265 5.56275 13.0748 5.39232C13.0219 5.22062 12.9549 5.09741 12.8438 5.06641C12.8438 5.06641 12.9301 5.30536 12.9779 5.55162C13.0248 5.79884 13.0606 6.03429 13.0916 6.26943Z" fill="white"/>
<path fill-rule="evenodd" clip-rule="evenodd" d="M12.4535 7.13949C12.6762 7.08639 12.9041 6.84585 12.9041 6.84585C12.5444 6.89815 12.4535 7.13949 12.4535 7.13949ZM12.7869 7.11771C12.4765 7.30006 12.1289 7.27255 12.1289 7.27255C12.1962 7.14791 12.2596 7.03265 12.4535 6.8929C12.6476 6.75221 12.9645 6.71723 13.0887 6.73456C13.061 6.8282 12.9347 7.02995 12.7869 7.11771Z" fill="white"/>
<path fill-rule="evenodd" clip-rule="evenodd" d="M11.6256 7.63421V7.60894C11.3205 7.64836 10.9611 7.63246 10.9611 7.63246C10.9792 7.74693 11.0267 7.8339 11.1071 7.887C11.1266 7.63692 11.6256 7.63421 11.6256 7.63421ZM10.6133 7.30369C10.6133 7.30369 10.999 7.44836 11.3854 7.43008C11.7703 7.41021 12.4817 7.4021 12.7107 7.28906C12.7107 7.28906 12.6736 7.43549 12.4901 7.51975C12.4901 7.51975 12.5868 7.51975 12.681 7.60369C12.681 7.60369 12.6255 7.72467 12.4616 7.78859C12.4616 7.78859 12.7557 8.09701 13.071 8.07475C13.071 8.07475 12.926 8.25742 12.6035 8.187C12.2811 8.11688 12.1779 7.93453 12.1233 7.86442C12.1233 7.86442 12.1652 8.03882 12.1452 8.10925C12.1452 8.10925 12.0038 8.10051 11.8936 7.96029C11.8936 7.96029 11.9736 8.10051 11.9903 8.21895C11.9903 8.21895 11.9014 8.22913 11.7421 8.13421C11.7421 8.13421 11.7755 8.22149 11.7816 8.32181C11.7816 8.32181 11.4092 8.20162 11.2288 8.0304C11.2288 8.0304 11.2265 8.14836 11.2354 8.21529C11.2354 8.21529 10.6576 8.15631 10.6133 7.30369Z" fill="white"/>
<path fill-rule="evenodd" clip-rule="evenodd" d="M10.5248 7.36278C10.5393 7.54736 10.586 7.72923 10.6499 7.85833C10.6499 7.85833 10.4226 7.68583 10.3672 7.53893C10.3105 7.39346 10.2971 7.29235 10.5248 7.36278Z" fill="white"/>
<path fill-rule="evenodd" clip-rule="evenodd" d="M10.0691 8.06377C10.1228 8.06377 10.1655 8.02164 10.1655 7.96838C10.1655 7.91512 10.1228 7.87251 10.0691 7.87251C10.0178 7.87251 9.97643 7.91512 9.97643 7.96838C9.97643 8.02164 10.0178 8.06377 10.0691 8.06377ZM10.6259 7.95153C10.7782 8.02164 10.9136 8.18793 10.9136 8.18793C10.6832 8.24119 10.581 8.30781 10.581 8.30781C10.1394 7.99318 9.77561 8.30956 9.77561 8.30956C9.53672 8.17378 9.49096 7.83929 9.61032 7.66282C9.72953 7.48523 9.99892 7.51639 10.1266 7.54739C10.2076 7.80606 10.489 7.88889 10.6259 7.95153Z" fill="white"/>
<path fill-rule="evenodd" clip-rule="evenodd" d="M10.9628 8.24609C10.9628 8.24609 11.1232 8.46295 11.2412 8.55834C11.2412 8.55834 10.647 8.55261 10.4973 9.07248C10.4973 9.07248 10.2913 8.75404 10.4416 8.54641C10.6038 8.32288 10.7519 8.29538 10.9628 8.24609Z" fill="white"/>
<path fill-rule="evenodd" clip-rule="evenodd" d="M11.6172 8.37737C11.6172 8.37737 11.8092 8.4346 11.8734 8.45145C11.8734 8.45145 11.8751 8.33921 11.8715 8.28516C11.9292 8.29931 12.0009 8.31791 12.0627 8.32411C12.0627 8.32411 12.2538 8.75622 12.4037 8.93062C12.4037 8.93062 12.4123 9.02649 12.3288 9.17196C12.3288 9.17196 12.2201 8.91632 12.0256 8.71139C11.9158 8.5966 11.8454 8.53794 11.6172 8.37737Z" fill="white"/>
<path fill-rule="evenodd" clip-rule="evenodd" d="M11.1133 8.28516C11.1756 8.30201 11.4822 8.39915 11.6291 8.50741C11.8158 8.64144 11.9438 8.79613 11.9232 9.06194C11.9232 9.06194 11.7738 8.85113 11.6077 8.75622C11.4767 8.68039 11.2389 8.47053 11.1133 8.28516Z" fill="white"/>
<path fill-rule="evenodd" clip-rule="evenodd" d="M11.1163 6.32812C11.1727 6.32812 11.282 6.35563 11.282 6.44704C11.282 6.54021 11.141 6.76278 11.1023 6.86135H11.0987C11.0612 6.76278 10.918 6.54021 10.918 6.44704C10.918 6.35563 11.0288 6.32812 11.0851 6.32812H11.1163Z" fill="white"/>
<path fill-rule="evenodd" clip-rule="evenodd" d="M10.9926 7.0452C10.9663 6.91563 10.9154 6.57939 10.8369 6.5053C10.7622 6.43392 10.6505 6.42724 10.5963 6.43026C10.5398 6.43392 10.4821 6.49163 10.5052 6.56651C10.5271 6.64425 10.7732 7.01627 10.8053 7.06333C10.8625 7.05315 10.8517 7.05713 10.9926 7.0452Z" fill="white"/>
<path fill-rule="evenodd" clip-rule="evenodd" d="M11.2109 7.0452C11.2386 6.91563 11.2883 6.57939 11.3673 6.5053C11.4415 6.43392 11.5535 6.42724 11.6079 6.43026C11.664 6.43392 11.7228 6.49163 11.7003 6.56651C11.6763 6.64425 11.4308 7.01627 11.3979 7.06333C11.3415 7.05315 11.3522 7.05713 11.2109 7.0452Z" fill="white"/>
<path fill-rule="evenodd" clip-rule="evenodd" d="M11.3682 5.87789H11.176V5.66406H11.0216V5.87789H10.8281V6.01319H11.0216V6.26422H11.176V6.01319H11.3682V5.87789Z" fill="white"/>
<path fill-rule="evenodd" clip-rule="evenodd" d="M9.04576 7.2594C9.04576 7.21679 9.04765 7.17593 9.05378 7.13507C9.06825 7.03046 9.06951 6.94175 9.05834 6.86719C8.92011 6.92124 8.82685 6.95463 8.63672 7.26512C8.63672 7.26512 8.93977 7.07625 9.04576 7.2594Z" fill="white"/>
<path fill-rule="evenodd" clip-rule="evenodd" d="M9.3081 7.74871C9.31203 7.67193 9.36252 7.42836 9.42574 7.25809C9.50295 7.04649 9.45798 6.74124 9.3644 6.55571C9.27461 6.37701 9.2257 6.20881 9.24048 6.02344C9.24048 6.02344 9.06246 6.08417 8.9585 6.14856C8.94215 6.36366 9.06607 6.57892 9.1252 6.70086C9.19487 6.84538 9.1804 7.03393 9.16515 7.14935C9.13826 7.3449 9.17773 7.55301 9.3081 7.74871Z" fill="white"/>
<path fill-rule="evenodd" clip-rule="evenodd" d="M9.32906 6.10929C9.32183 6.08449 9.32183 6.01661 9.33504 5.98958C9.33504 5.98958 9.61827 5.71136 9.85574 5.66446C10.0053 5.63282 10.0975 5.70023 10.1424 5.73759C10.1424 5.73759 10.0594 5.72789 9.93248 5.8325C9.8051 5.93632 9.64737 6.06144 9.52957 6.09292C9.411 6.1244 9.38646 6.11517 9.32906 6.10929Z" fill="white"/>
<path fill-rule="evenodd" clip-rule="evenodd" d="M10.166 5.75781C10.2712 5.86513 10.3617 5.97927 10.3594 6.07768C10.358 6.17975 10.2403 6.43619 10.1793 6.53365C10.1178 6.63094 10.0274 6.75908 10.0376 6.91425C10.0433 6.99152 10.0969 7.07101 10.16 7.13698C10.16 7.13698 9.81368 7.05415 9.77091 6.83794C9.73411 6.64462 9.81604 6.5098 9.87187 6.4028C9.92298 6.30169 10.0823 6.06751 10.1233 5.96989C10.16 5.88118 10.1793 5.80741 10.166 5.75781Z" fill="white"/>
<path fill-rule="evenodd" clip-rule="evenodd" d="M12.1875 8.19141C12.2559 8.43942 12.3739 8.67185 12.4899 8.8542C12.5942 9.02145 12.6604 9.29109 12.6506 9.38298C12.6506 9.38298 12.8068 9.03433 12.7279 8.78807C12.6645 8.59681 12.497 8.31112 12.1875 8.19141Z" fill="white"/>
<path fill-rule="evenodd" clip-rule="evenodd" d="M12.5781 8.27344C12.5781 8.27344 12.8159 8.27837 12.9266 8.35197C13.0689 8.44689 13.2045 8.655 13.2572 8.90428C13.2572 8.90428 13.0172 8.86215 12.8993 8.74291C12.7801 8.62304 12.6338 8.44418 12.5781 8.27344Z" fill="white"/>
<path fill-rule="evenodd" clip-rule="evenodd" d="M11.3479 8.70703C11.3023 8.71053 11.1804 8.73899 11.1211 8.75711C11.1211 8.75711 11.3229 8.81657 11.4241 8.90131C11.5106 8.97269 11.5849 9.08334 11.6187 9.27046C11.6685 9.53167 11.8198 9.8126 11.8651 9.89733L11.8837 9.89383C11.8563 9.71403 11.9662 9.34105 11.9961 9.28684C11.9961 9.28684 11.8351 9.18573 11.7612 9.08016C11.7069 9.00242 11.6121 8.87301 11.3479 8.70703Z" fill="white"/>
<path fill-rule="evenodd" clip-rule="evenodd" d="M12.3976 9.26562C12.456 9.40267 12.6133 9.64575 12.5398 9.89869C12.4667 10.1524 12.3023 10.2612 12.2015 10.4768C12.2015 10.4768 12.1226 10.088 12.1389 9.78915C12.157 9.48915 12.2651 9.37389 12.3976 9.26562Z" fill="white"/>
<path fill-rule="evenodd" clip-rule="evenodd" d="M12.8549 9.27734C12.8549 9.27734 13.091 9.73998 13.1337 9.92106C13.1748 10.1007 13.1366 10.2204 13.0557 10.3301C12.9773 10.4382 12.8408 10.5559 12.7148 10.7843C12.7148 10.7843 12.5692 10.5896 12.552 10.488C12.5352 10.3864 12.5624 10.1433 12.5942 10.0422C12.6248 9.93887 12.7495 9.61137 12.8549 9.27734Z" fill="white"/>
<path fill-rule="evenodd" clip-rule="evenodd" d="M12.9769 10.7539C12.9256 10.8107 12.6498 11.1456 12.6128 11.2433C12.5756 11.3404 12.5119 11.5253 12.5968 11.6544C12.6833 11.7832 12.8802 11.9871 13.0503 12.0741C13.0503 12.0741 12.8648 11.78 12.8844 11.5391C12.8951 11.3847 13.0137 11.2472 13.0363 11.1531C13.0588 11.0599 13.0447 10.9011 12.9769 10.7539Z" fill="white"/>
<path fill-rule="evenodd" clip-rule="evenodd" d="M12.4349 10.5664C12.4772 10.6259 12.551 10.7701 12.5613 10.9103C12.5716 11.0486 12.5491 11.1599 12.4741 11.3627C12.3806 11.6187 12.2338 11.9036 12.1657 12.0322C12.1657 12.0322 12.0366 11.8449 11.9648 11.6777C11.9648 11.6777 12.1671 11.3969 12.2541 11.199C12.3534 10.9656 12.395 10.75 12.4349 10.5664Z" fill="white"/>
<path fill-rule="evenodd" clip-rule="evenodd" d="M12.3432 10.457C12.3432 10.457 12.2556 11.1159 11.8723 11.6042C11.6127 11.9351 11.4021 12.0505 11.2623 12.0505C11.052 12.0505 10.8402 11.8736 10.7701 11.6699C10.6984 11.468 10.7219 11.1526 10.8581 11.0408C10.8581 11.0408 10.9835 11.436 11.2535 11.4504C11.5587 11.468 11.9506 11.1221 12.3432 10.457Z" fill="white"/>
<path fill-rule="evenodd" clip-rule="evenodd" d="M12.0302 10.1836C12.0622 10.3011 12.0722 10.4817 12.0302 10.6521C11.9985 10.782 11.9208 10.9502 11.7707 11.0454C11.6412 11.1272 11.3343 11.1467 11.2188 10.8548C11.2188 10.8548 11.7774 10.8974 12.0302 10.1836Z" fill="white"/>
<path fill-rule="evenodd" clip-rule="evenodd" d="M12.943 12.8398C13.019 13.0381 13.2914 13.2883 13.2907 13.4432C13.2865 13.8522 13.1085 14.1028 13.0669 14.2376C13.0669 14.2376 12.7425 13.9777 12.6846 13.6796C12.6551 13.5265 12.6895 13.067 12.943 12.8398Z" fill="white"/>
<path fill-rule="evenodd" clip-rule="evenodd" d="M12.5788 13.1267C12.6163 13.0202 12.7363 12.7305 12.874 12.6297C12.874 12.6297 13.0503 12.1049 12.4827 11.7812C12.4827 11.7812 12.2492 12.094 12.1879 12.3884C12.1256 12.6849 12.4343 12.8614 12.5788 13.1267Z" fill="white"/>
<path fill-rule="evenodd" clip-rule="evenodd" d="M11.8687 11.8047C11.7775 11.9172 11.6482 12.0708 11.5484 12.1188C11.5484 12.1188 11.5144 12.3535 11.5328 12.5096C11.5632 12.7413 11.7089 12.9772 11.7723 13.1502C11.7723 13.1502 12.0206 12.8223 12.0491 12.6298C12.0773 12.4368 12.0738 12.2785 12.0831 12.1858C12.0831 12.1858 11.9447 11.9586 11.8687 11.8047Z" fill="white"/>
<path fill-rule="evenodd" clip-rule="evenodd" d="M11.2137 12.9277C11.1434 12.8187 10.9171 12.422 10.9141 12.1328C10.9141 12.1328 11.1937 12.2832 11.428 12.1722C11.428 12.1722 11.4582 12.5489 11.414 12.6757C11.3758 12.7791 11.3281 12.8404 11.2137 12.9277Z" fill="white"/>
<path fill-rule="evenodd" clip-rule="evenodd" d="M11.2773 13.0073C11.3226 12.9669 11.4344 12.8631 11.4812 12.8086C11.4812 12.8086 11.6666 13.1525 11.6982 13.2531C11.6982 13.2531 11.6051 13.2776 11.5027 13.2026C11.4013 13.1275 11.3777 13.1072 11.2773 13.0073Z" fill="white"/>
<path fill-rule="evenodd" clip-rule="evenodd" d="M12.136 12.8047C12.114 12.8917 11.8135 13.3131 11.7617 13.3649C11.7617 13.3649 11.7839 13.5176 11.896 13.7378C12.0069 13.9564 12.1616 14.1107 12.2444 14.1883C12.2444 14.1883 12.4307 13.8614 12.4856 13.7187C12.5469 13.554 12.5402 13.3921 12.5141 13.3314C12.4505 13.1889 12.2332 12.9831 12.136 12.8047Z" fill="white"/>
<path fill-rule="evenodd" clip-rule="evenodd" d="M12.5881 13.9102C12.6544 14.0453 12.8546 14.268 12.8858 14.4442C12.9108 14.5822 12.8889 14.6952 12.8515 14.792C12.8138 14.8852 12.6944 15.0715 12.6142 15.213C12.6142 15.213 12.3396 14.9513 12.2797 14.7645C12.2338 14.624 12.2511 14.4243 12.3166 14.3001C12.3821 14.1749 12.5253 14.0396 12.5881 13.9102Z" fill="white"/>
<path fill-rule="evenodd" clip-rule="evenodd" d="M11.8128 13.8711C11.8831 14.0286 12.0531 14.1848 12.092 14.3218C12.1371 14.4843 12.1522 14.5867 12.0747 14.776C12.0055 14.941 11.9221 15.0383 11.8946 15.1395C11.8946 15.1395 11.6718 14.8476 11.6342 14.7264C11.5975 14.6053 11.5854 14.4058 11.6315 14.2797C11.6762 14.1515 11.7575 13.9875 11.8128 13.8711Z" fill="white"/>
<path fill-rule="evenodd" clip-rule="evenodd" d="M12.9104 14.9805C12.9104 14.9805 12.5265 15.4485 12.5353 15.6965C12.5469 16.0053 12.7498 16.2116 12.7781 16.4015C12.7781 16.4015 12.9786 16.1716 13.056 16.0172C13.1419 15.8442 13.2068 15.6965 13.1859 15.5C13.1615 15.303 13.1106 15.1774 12.9104 14.9805Z" fill="white"/>
<path fill-rule="evenodd" clip-rule="evenodd" d="M12.2047 14.9375C12.2654 15.027 12.436 15.3332 12.388 15.5141C12.3399 15.6974 12.151 15.9539 12.0872 16.0629C12.0872 16.0629 11.9361 15.7489 11.9013 15.6043C11.8678 15.4613 11.8988 15.2257 12.2047 14.9375Z" fill="white"/>
<path fill-rule="evenodd" clip-rule="evenodd" d="M13.377 5.99639C13.4031 5.82039 13.6049 5.44233 13.6049 5.27763C13.6049 5.14774 13.5011 5.04297 13.3734 5.04297C13.2439 5.04297 13.1406 5.14774 13.1406 5.27763C13.1406 5.44233 13.3441 5.82039 13.3693 5.99639H13.377Z" fill="white"/>
<path fill-rule="evenodd" clip-rule="evenodd" d="M14.0246 6.37472C14.227 5.88887 14.3612 5.52925 14.356 5.40937C14.3528 5.33704 14.2673 5.28298 14.1876 5.25802C14.1063 5.23243 14.0339 5.2275 13.9812 5.26883C13.8765 5.35039 13.778 6.00699 13.7422 6.2798C13.8454 6.2992 13.907 6.31255 14.0246 6.37472Z" fill="white"/>
<path fill-rule="evenodd" clip-rule="evenodd" d="M13.6558 6.26943C13.6047 6.26275 13.5521 6.26052 13.5 6.2583C13.5322 5.99757 13.6206 5.56275 13.6733 5.39232C13.725 5.22062 13.7917 5.09741 13.9042 5.06641C13.9042 5.06641 13.8172 5.30536 13.7699 5.55162C13.7232 5.79884 13.6867 6.03429 13.6558 6.26943Z" fill="white"/>
<path fill-rule="evenodd" clip-rule="evenodd" d="M13.8423 6.84585C13.8423 6.84585 14.0688 7.08639 14.2927 7.13949C14.2927 7.13949 14.2009 6.89815 13.8423 6.84585ZM13.6562 6.73456C13.7816 6.71723 14.098 6.75221 14.2927 6.8929C14.4871 7.03265 14.5498 7.14791 14.6163 7.27271C14.6163 7.27271 14.2688 7.30006 13.9585 7.11771C13.8116 7.02995 13.6849 6.8282 13.6562 6.73456Z" fill="white"/>
<path fill-rule="evenodd" clip-rule="evenodd" d="M15.6389 7.887C15.7199 7.83374 15.766 7.74693 15.7858 7.63231C15.7858 7.63231 15.4255 7.64836 15.119 7.60894V7.63421C15.119 7.63421 15.6196 7.63676 15.6389 7.887ZM15.5114 8.21529C15.5203 8.14836 15.517 8.03024 15.517 8.03024C15.3363 8.20162 14.965 8.32181 14.965 8.32181C14.9705 8.22149 15.0023 8.13421 15.0023 8.13421C14.8447 8.22913 14.7562 8.21879 14.7562 8.21879C14.7725 8.10035 14.8534 7.96013 14.8534 7.96013C14.7422 8.10035 14.6005 8.10925 14.6005 8.10925C14.581 8.03882 14.623 7.86442 14.623 7.86442C14.5683 7.93453 14.4657 8.11688 14.1427 8.187C13.8194 8.25742 13.6758 8.07475 13.6758 8.07475C13.9905 8.09685 14.2842 7.78859 14.2842 7.78859C14.1208 7.72467 14.0655 7.60353 14.0655 7.60353C14.1606 7.51975 14.2567 7.51975 14.2567 7.51975C14.0724 7.43549 14.0343 7.28906 14.0343 7.28906C14.2652 7.4021 14.9756 7.41021 15.362 7.43008C15.7476 7.44836 16.1318 7.30369 16.1318 7.30369C16.0882 8.15631 15.5114 8.21529 15.5114 8.21529Z" fill="white"/>
<path fill-rule="evenodd" clip-rule="evenodd" d="M16.2224 7.36278C16.2082 7.54736 16.1609 7.72923 16.0977 7.85833C16.0977 7.85833 16.3252 7.68583 16.3796 7.53893C16.4353 7.39346 16.4496 7.29235 16.2224 7.36278Z" fill="white"/>
<path fill-rule="evenodd" clip-rule="evenodd" d="M16.7714 7.96838C16.7714 7.91512 16.7278 7.87251 16.6761 7.87251C16.6245 7.87251 16.5814 7.91512 16.5814 7.96838C16.5814 8.02164 16.6245 8.06377 16.6761 8.06377C16.7278 8.06377 16.7714 8.02164 16.7714 7.96838ZM16.6202 7.54739C16.7484 7.51639 17.0175 7.48523 17.1364 7.66282C17.257 7.83929 17.21 8.17378 16.9706 8.30956C16.9706 8.30956 16.6061 7.99318 16.1657 8.30781C16.1657 8.30781 16.0624 8.24119 15.832 8.18793C15.832 8.18793 15.9682 8.02164 16.1212 7.95153C16.2568 7.88889 16.5394 7.80606 16.6202 7.54739Z" fill="white"/>
<path fill-rule="evenodd" clip-rule="evenodd" d="M15.7813 8.24609C15.7813 8.24609 15.6219 8.46295 15.5039 8.55834C15.5039 8.55834 16.0976 8.55261 16.2474 9.07248C16.2474 9.07248 16.4535 8.75404 16.3026 8.54641C16.1415 8.32288 15.993 8.29538 15.7813 8.24609Z" fill="white"/>
<path fill-rule="evenodd" clip-rule="evenodd" d="M15.1296 8.37737C15.1296 8.37737 14.9376 8.4346 14.8737 8.45145C14.8737 8.45145 14.8703 8.33921 14.8769 8.28516C14.8185 8.29931 14.7473 8.31791 14.685 8.32411C14.685 8.32411 14.493 8.75622 14.344 8.93062C14.344 8.93062 14.3349 9.02649 14.4183 9.17196C14.4183 9.17196 14.5268 8.91632 14.7205 8.71139C14.8311 8.5966 14.9011 8.53794 15.1296 8.37737Z" fill="white"/>
<path fill-rule="evenodd" clip-rule="evenodd" d="M15.6315 8.28516C15.5718 8.30201 15.2646 8.39915 15.1152 8.50741C14.9304 8.64144 14.8029 8.79613 14.8222 9.06194C14.8222 9.06194 14.9729 8.85113 15.138 8.75622C15.2701 8.68039 15.5076 8.47053 15.6315 8.28516Z" fill="white"/>
<path fill-rule="evenodd" clip-rule="evenodd" d="M15.6273 6.32812C15.5712 6.32812 15.4609 6.35563 15.4609 6.44704C15.4609 6.54021 15.6036 6.76278 15.6413 6.86135H15.6448C15.6827 6.76278 15.8255 6.54021 15.8255 6.44704C15.8255 6.35563 15.7155 6.32812 15.6585 6.32812H15.6273Z" fill="white"/>
<path fill-rule="evenodd" clip-rule="evenodd" d="M15.7539 7.0452C15.78 6.91563 15.8294 6.57939 15.9094 6.5053C15.9845 6.43392 16.0952 6.42724 16.1508 6.43026C16.2073 6.43392 16.2656 6.49163 16.2405 6.56651C16.2189 6.64425 15.9723 7.01627 15.9395 7.06333C15.8829 7.05315 15.8943 7.05713 15.7539 7.0452Z" fill="white"/>
<path fill-rule="evenodd" clip-rule="evenodd" d="M15.5367 7.0452C15.5095 6.91563 15.4594 6.57939 15.3803 6.5053C15.3048 6.43392 15.1934 6.42724 15.1385 6.43026C15.0837 6.43392 15.0245 6.49163 15.0484 6.56651C15.0706 6.64425 15.3158 7.01627 15.3494 7.06333C15.4062 7.05315 15.3949 7.05713 15.5367 7.0452Z" fill="white"/>
<path fill-rule="evenodd" clip-rule="evenodd" d="M15.3789 5.87789H15.57V5.66406H15.7241V5.87789H15.9166V6.01319H15.7241V6.26422H15.57V6.01319H15.3789V5.87789Z" fill="white"/>
<path fill-rule="evenodd" clip-rule="evenodd" d="M13.1055 4.60884H13.2964V4.39453H13.4527V4.60884H13.6447V4.74318H13.4527V4.99564H13.2964V4.74318H13.1055V4.60884Z" fill="white"/>
<path fill-rule="evenodd" clip-rule="evenodd" d="M17.7011 7.2594C17.6992 7.21679 17.6967 7.17593 17.6917 7.13507C17.678 7.03046 17.6757 6.94175 17.6865 6.86719C17.8251 6.92124 17.9182 6.95463 18.1088 7.26512C18.1088 7.26512 17.8056 7.07625 17.7011 7.2594Z" fill="white"/>
<path fill-rule="evenodd" clip-rule="evenodd" d="M17.4373 7.74871C17.4331 7.67193 17.3839 7.42836 17.3214 7.25809C17.2434 7.04649 17.2875 6.74124 17.3807 6.55571C17.4707 6.37701 17.5213 6.20881 17.5047 6.02344C17.5047 6.02344 17.6838 6.08417 17.7868 6.14856C17.8041 6.36366 17.6803 6.57892 17.6217 6.70086C17.5509 6.84538 17.5649 7.03393 17.5808 7.14935C17.608 7.3449 17.5663 7.55301 17.4373 7.74871Z" fill="white"/>
<path fill-rule="evenodd" clip-rule="evenodd" d="M17.4167 6.10929C17.4223 6.08449 17.4217 6.01661 17.409 5.98958C17.409 5.98958 17.1275 5.71136 16.8897 5.66446C16.739 5.63282 16.6467 5.70023 16.6016 5.73759C16.6016 5.73759 16.6859 5.72789 16.8125 5.8325C16.9389 5.93632 17.096 6.06144 17.2155 6.09292C17.3341 6.1244 17.3602 6.11517 17.4167 6.10929Z" fill="white"/>
<path fill-rule="evenodd" clip-rule="evenodd" d="M16.5799 5.75781C16.4742 5.86513 16.3849 5.97927 16.3867 6.07768C16.3882 6.17975 16.5053 6.43619 16.5668 6.53365C16.6288 6.63094 16.7186 6.75908 16.7073 6.91425C16.7024 6.99152 16.6487 7.07101 16.5868 7.13698C16.5868 7.13698 16.9325 7.05415 16.9738 6.83794C17.012 6.64462 16.9312 6.5098 16.8749 6.4028C16.8233 6.30169 16.6632 6.06751 16.6233 5.96989C16.5868 5.88118 16.5668 5.80741 16.5799 5.75781Z" fill="white"/>
<path fill-rule="evenodd" clip-rule="evenodd" d="M14.5581 8.19141C14.488 8.43942 14.3711 8.67185 14.2554 8.8542C14.1502 9.02145 14.084 9.29109 14.0961 9.38298C14.0961 9.38298 13.9387 9.03433 14.0189 8.78807C14.0799 8.59681 14.2474 8.31112 14.5581 8.19141Z" fill="white"/>
<path fill-rule="evenodd" clip-rule="evenodd" d="M14.167 8.27344C14.167 8.27344 13.9307 8.27837 13.8201 8.35197C13.6767 8.44689 13.54 8.655 13.4883 8.90428C13.4883 8.90428 13.7284 8.86215 13.8473 8.74291C13.9664 8.62304 14.1117 8.44418 14.167 8.27344Z" fill="white"/>
<path fill-rule="evenodd" clip-rule="evenodd" d="M15.3973 8.70703C15.4434 8.71053 15.5643 8.73899 15.6236 8.75711C15.6236 8.75711 15.4214 8.81657 15.3212 8.90131C15.2352 8.97269 15.159 9.08334 15.1255 9.27046C15.0771 9.53167 14.9246 9.8126 14.8788 9.89733L14.862 9.89383C14.8898 9.71403 14.7785 9.34105 14.75 9.28684C14.75 9.28684 14.9106 9.18573 14.9834 9.08016C15.0367 9.00242 15.1334 8.87301 15.3973 8.70703Z" fill="white"/>
<path fill-rule="evenodd" clip-rule="evenodd" d="M14.345 9.26562C14.2874 9.40267 14.13 9.64575 14.2022 9.89869C14.2762 10.1524 14.4409 10.2612 14.5408 10.4768C14.5408 10.4768 14.6211 10.088 14.6034 9.78915C14.5854 9.48915 14.4783 9.37389 14.345 9.26562Z" fill="white"/>
<path fill-rule="evenodd" clip-rule="evenodd" d="M13.3758 9.97648C13.387 9.82783 13.7267 9.47027 13.7097 9.27695C13.6921 9.08268 13.4375 8.94643 13.3744 8.91797H13.3711C13.3092 8.94643 13.0541 9.08268 13.0358 9.27695C13.0181 9.47027 13.3587 9.82783 13.3689 9.97648H13.3758Z" fill="white"/>
<path fill-rule="evenodd" clip-rule="evenodd" d="M13.8895 9.27734C13.8895 9.27734 13.6534 9.73998 13.6106 9.92106C13.569 10.1007 13.608 10.2204 13.6883 10.3301C13.7678 10.4382 13.903 10.5559 14.0302 10.7843C14.0302 10.7843 14.1749 10.5896 14.1933 10.488C14.2108 10.3864 14.1821 10.1433 14.1505 10.0422C14.1196 9.93887 13.9939 9.61137 13.8895 9.27734Z" fill="white"/>
<path fill-rule="evenodd" clip-rule="evenodd" d="M13.3748 11.0652C13.482 10.9712 13.5783 10.8315 13.6093 10.7485C13.6385 10.666 13.6464 10.5453 13.5747 10.4525C13.489 10.3421 13.3815 10.218 13.3748 10.1172H13.3693C13.3613 10.218 13.2549 10.3421 13.1691 10.4525C13.0971 10.5453 13.1048 10.666 13.1364 10.7485C13.1656 10.8315 13.2623 10.9712 13.3704 11.0652H13.3748Z" fill="white"/>
<path fill-rule="evenodd" clip-rule="evenodd" d="M13.77 10.7539C13.8218 10.8107 14.0974 11.1456 14.1344 11.2433C14.1718 11.3404 14.2349 11.5253 14.1496 11.6544C14.0636 11.7832 13.8677 11.9871 13.6953 12.0741C13.6953 12.0741 13.8817 11.78 13.8628 11.5391C13.8504 11.3847 13.7323 11.2472 13.7099 11.1531C13.6884 11.0599 13.7033 10.9011 13.77 10.7539Z" fill="white"/>
<path fill-rule="evenodd" clip-rule="evenodd" d="M14.3085 10.5664C14.2659 10.6259 14.1929 10.7701 14.1815 10.9103C14.1728 11.0486 14.1948 11.1599 14.27 11.3627C14.3647 11.6187 14.5101 11.9036 14.5771 12.0322C14.5771 12.0322 14.707 11.8449 14.7786 11.6777C14.7786 11.6777 14.577 11.3969 14.49 11.199C14.3898 10.9656 14.3493 10.75 14.3085 10.5664Z" fill="white"/>
<path fill-rule="evenodd" clip-rule="evenodd" d="M14.4023 10.457C14.4023 10.457 14.4893 11.1159 14.8726 11.6042C15.1316 11.9351 15.3429 12.0505 15.4821 12.0505C15.6924 12.0505 15.9045 11.8736 15.9756 11.6699C16.0453 11.468 16.0234 11.1526 15.8874 11.0408C15.8874 11.0408 15.7613 11.436 15.4914 11.4504C15.1874 11.468 14.7949 11.1221 14.4023 10.457Z" fill="white"/>
<path fill-rule="evenodd" clip-rule="evenodd" d="M14.7151 10.1836C14.6831 10.3011 14.6738 10.4817 14.7151 10.6521C14.7474 10.782 14.8259 10.9502 14.9757 11.0454C15.1052 11.1272 15.4096 11.1467 15.5269 10.8548C15.5269 10.8548 14.9691 10.8974 14.7151 10.1836Z" fill="white"/>
<path fill-rule="evenodd" clip-rule="evenodd" d="M13.3751 12.1403C13.4541 12.1017 13.5206 12.0734 13.6123 11.9335C13.6819 11.8236 13.7494 11.6203 13.712 11.4753C13.6643 11.2964 13.5693 11.225 13.5113 11.1133C13.4644 11.1576 13.4353 11.1923 13.3778 11.2255H13.3751C13.3166 11.1923 13.287 11.1576 13.2391 11.1133C13.1803 11.225 13.0865 11.2964 13.0379 11.4753C13.0008 11.6203 13.0677 11.8236 13.1381 11.9335C13.2287 12.0734 13.296 12.1017 13.3751 12.1403Z" fill="white"/>
<path fill-rule="evenodd" clip-rule="evenodd" d="M13.3728 13.251C13.4107 13.0758 13.7726 12.739 13.7385 12.5549C13.6889 12.2804 13.5137 12.3384 13.3755 12.2227H13.3728C13.2332 12.3384 13.0563 12.2804 13.0059 12.5549C12.9738 12.739 13.3332 13.0758 13.3709 13.251H13.3728Z" fill="white"/>
<path fill-rule="evenodd" clip-rule="evenodd" d="M13.8048 12.8398C13.7283 13.0381 13.4548 13.2883 13.457 13.4432C13.4621 13.8522 13.6382 14.1028 13.6807 14.2376C13.6807 14.2376 14.0051 13.9777 14.0619 13.6796C14.0924 13.5265 14.0576 13.067 13.8048 12.8398Z" fill="white"/>
<path fill-rule="evenodd" clip-rule="evenodd" d="M14.1683 13.1267C14.1314 13.0202 14.0122 12.7305 13.8736 12.6297C13.8736 12.6297 13.697 12.1049 14.2649 11.7812C14.2649 11.7812 14.4984 12.094 14.561 12.3884C14.6228 12.6849 14.3132 12.8614 14.1683 13.1267Z" fill="white"/>
<path fill-rule="evenodd" clip-rule="evenodd" d="M14.8787 11.8047C14.969 11.9172 15.0969 12.0708 15.1981 12.1188C15.1981 12.1188 15.231 12.3535 15.2132 12.5096C15.183 12.7413 15.0365 12.9772 14.9745 13.1502C14.9745 13.1502 14.7256 12.8223 14.6958 12.6298C14.6667 12.4368 14.6732 12.2785 14.6641 12.1858C14.6641 12.1858 14.801 11.9586 14.8787 11.8047Z" fill="white"/>
<path fill-rule="evenodd" clip-rule="evenodd" d="M15.5319 12.9277C15.6026 12.8187 15.8307 12.422 15.8333 12.1328C15.8333 12.1328 15.5533 12.2832 15.3183 12.1722C15.3183 12.1722 15.2881 12.5489 15.3342 12.6757C15.3702 12.7791 15.4186 12.8404 15.5319 12.9277Z" fill="white"/>
<path fill-rule="evenodd" clip-rule="evenodd" d="M15.4663 13.0073C15.4205 12.9669 15.3087 12.8631 15.2644 12.8086C15.2644 12.8086 15.0772 13.1525 15.0469 13.2531C15.0469 13.2531 15.1386 13.2776 15.2408 13.2026C15.3428 13.1275 15.3652 13.1072 15.4663 13.0073Z" fill="white"/>
<path fill-rule="evenodd" clip-rule="evenodd" d="M14.608 12.8047C14.6306 12.8917 14.9309 13.3131 14.9823 13.3649C14.9823 13.3649 14.9585 13.5176 14.8474 13.7378C14.7371 13.9564 14.583 14.1107 14.4995 14.1883C14.4995 14.1883 14.3144 13.8614 14.259 13.7187C14.1961 13.554 14.2038 13.3921 14.2318 13.3314C14.2933 13.1889 14.5114 12.9831 14.608 12.8047Z" fill="white"/>
<path fill-rule="evenodd" clip-rule="evenodd" d="M13.3774 15.3003C13.4058 15.1849 13.5796 15.0474 13.6507 14.8464C13.694 14.728 13.6922 14.5895 13.6463 14.4946C13.5913 14.3838 13.3969 14.1127 13.3747 14.0352C13.3503 14.1127 13.1585 14.3838 13.1026 14.4946C13.0559 14.5895 13.0547 14.728 13.0971 14.8464C13.17 15.0474 13.3433 15.1849 13.3719 15.3003H13.3774Z" fill="white"/>
<path fill-rule="evenodd" clip-rule="evenodd" d="M14.1554 13.9102C14.09 14.0453 13.8899 14.268 13.8582 14.4442C13.8332 14.5822 13.8561 14.6952 13.8915 14.792C13.9293 14.8852 14.051 15.0715 14.1299 15.213C14.1299 15.213 14.4039 14.9513 14.4643 14.7645C14.5103 14.624 14.4927 14.4243 14.4264 14.3001C14.3609 14.1749 14.2185 14.0396 14.1554 13.9102Z" fill="white"/>
<path fill-rule="evenodd" clip-rule="evenodd" d="M14.9313 13.8711C14.8603 14.0286 14.6896 14.1848 14.6512 14.3218C14.6051 14.4843 14.5906 14.5867 14.6679 14.776C14.738 14.941 14.8195 15.0383 14.8487 15.1395C14.8487 15.1395 15.0711 14.8476 15.1071 14.7264C15.1464 14.6053 15.1563 14.4058 15.1123 14.2797C15.0657 14.1515 14.9855 13.9875 14.9313 13.8711Z" fill="white"/>
<path fill-rule="evenodd" clip-rule="evenodd" d="M13.3749 17.5375C13.389 17.3952 13.6806 16.9537 13.694 16.4862C13.701 16.2515 13.4953 15.8858 13.3776 15.7461H13.371C13.2546 15.8858 13.0481 16.2515 13.0548 16.4862C13.0692 16.9537 13.3598 17.3952 13.3749 17.5375Z" fill="white"/>
<path fill-rule="evenodd" clip-rule="evenodd" d="M13.8377 14.9805C13.8377 14.9805 14.2208 15.4485 14.2121 15.6965C14.2011 16.0053 13.9959 16.2116 13.969 16.4015C13.969 16.4015 13.7675 16.1716 13.6913 16.0172C13.6051 15.8442 13.5394 15.6965 13.5637 15.5C13.5853 15.303 13.6354 15.1774 13.8377 14.9805Z" fill="white"/>
<path fill-rule="evenodd" clip-rule="evenodd" d="M14.543 14.9375C14.4815 15.027 14.3121 15.3332 14.36 15.5141C14.4098 15.6974 14.5977 15.9539 14.6603 16.0629C14.6603 16.0629 14.8113 15.7489 14.8462 15.6043C14.8803 15.4613 14.8479 15.2257 14.543 14.9375Z" fill="white"/>
<path fill-rule="evenodd" clip-rule="evenodd" d="M13.6365 18.2928C13.6601 17.9295 13.8648 17.7112 13.9002 17.5225C13.9405 17.3143 13.9266 17.1149 13.7673 16.875C13.6365 17.3227 13.4957 17.6504 13.3837 17.8739C13.38 17.8793 13.3778 17.8864 13.3753 17.893C13.3723 17.8864 13.3707 17.8793 13.3661 17.8739C13.2549 17.6504 13.1134 17.3227 12.984 16.875C12.8242 17.1149 12.8104 17.3143 12.8498 17.5225C12.8863 17.7112 13.0901 17.9295 13.1134 18.2928C13.1357 18.6575 12.7305 18.7958 12.7305 18.7958C12.8667 18.8461 13.0228 18.8686 13.2704 18.6313C13.3156 18.5887 13.3493 18.5411 13.3753 18.4911C13.4014 18.5411 13.4355 18.5887 13.4805 18.6313C13.7266 18.8686 13.8837 18.8461 14.0203 18.7958C14.0203 18.7958 13.6144 18.6575 13.6365 18.2928Z" fill="white"/>
<path fill-rule="evenodd" clip-rule="evenodd" d="M12.3577 15.8711C12.3995 16.0073 12.5256 16.2592 12.5423 16.336C12.5727 16.4802 12.5314 16.655 12.2712 16.8404C12.2712 16.8404 12.1029 16.7207 12.0359 16.5649C11.9741 16.4177 12.01 16.3134 12.0744 16.2385C12.1399 16.1625 12.293 15.9856 12.3577 15.8711Z" fill="white"/>
<path fill-rule="evenodd" clip-rule="evenodd" d="M12.9036 16.4102C12.9036 16.4833 12.8499 16.8951 12.7348 17.1005C12.5719 17.3874 12.3324 17.6 12.1232 17.6C11.9299 17.6 11.8883 17.4828 11.793 17.4364C11.793 17.4364 11.8416 17.1865 12.0595 17.1218C12.3274 17.04 12.7372 16.7157 12.9036 16.4102Z" fill="white"/>
<path fill-rule="evenodd" clip-rule="evenodd" d="M12.2059 16.9341C12.1612 16.899 12.1218 16.8759 12.0686 16.8125C12.0686 16.8125 11.8624 16.8893 11.6924 17.005C11.522 17.1209 11.3553 17.3182 11.2656 17.4204C11.2656 17.4204 11.5201 17.4869 11.6817 17.4123C11.6817 17.4123 11.7399 17.1666 11.9217 17.0562C11.962 17.0325 12.0887 16.9944 12.2059 16.9341Z" fill="white"/>
<path fill-rule="evenodd" clip-rule="evenodd" d="M11.9971 16.7233C11.9562 16.6611 11.8755 16.5468 11.893 16.3672C11.893 16.3672 11.5344 16.5979 11.4295 16.6834C11.321 16.7729 11.0967 17.006 11.0469 17.0828C11.0469 17.0828 11.3185 17.0224 11.5264 16.9514C11.7541 16.8755 11.9115 16.7729 11.9971 16.7233Z" fill="white"/>
<path fill-rule="evenodd" clip-rule="evenodd" d="M11.3915 17.1133C11.1994 17.1842 10.7648 17.254 10.5842 17.3085C10.4024 17.3634 10.2708 17.4575 10.0977 17.6483C10.0977 17.6483 10.3637 17.7243 10.5064 17.7689C10.5064 17.7689 10.7325 17.6136 10.9799 17.5174C11.1419 17.4545 11.2204 17.284 11.3915 17.1133Z" fill="white"/>
<path fill-rule="evenodd" clip-rule="evenodd" d="M10.9877 18.41C11.0293 18.363 11.0819 18.3097 11.0415 18.2011C11.0135 18.1204 10.8562 18.0339 10.7626 17.9881C10.6071 17.9127 10.1756 17.7956 10.034 17.7539C10.034 17.7539 9.96356 17.8364 9.92723 17.9242C9.91072 17.9579 9.93227 17.993 9.99329 18.004C10.1136 18.025 10.4022 17.9703 10.4734 18.0165C10.5481 18.0666 10.5209 18.1332 10.5209 18.2011C10.5209 18.2011 10.6532 18.1185 10.7359 18.1372C10.8521 18.1619 10.9218 18.2175 10.9877 18.41Z" fill="white"/>
<path fill-rule="evenodd" clip-rule="evenodd" d="M10.6016 17.7993C10.6325 17.8099 10.8013 17.8614 10.9653 17.9665C10.9653 17.9665 11.0375 17.9381 11.074 17.8707C11.1087 17.8059 11.2556 17.5854 11.3923 17.5557C11.3923 17.5557 11.2764 17.5446 11.2095 17.5234C11.2095 17.5234 11.0701 17.5597 10.9707 17.601C10.8713 17.6419 10.7478 17.7039 10.6016 17.7993Z" fill="white"/>
<path fill-rule="evenodd" clip-rule="evenodd" d="M11.7151 17.5234C11.6896 17.5358 11.645 17.5578 11.5437 17.5621C11.5437 17.5621 11.1648 17.8274 11.1203 18.0935C11.0834 18.3195 11.2012 18.4285 11.2578 18.4565C11.3149 18.4862 11.5805 18.5963 11.7524 18.2368C11.7524 18.2368 11.4586 18.3341 11.3787 18.1921C11.2994 18.0484 11.4295 17.8408 11.5092 17.7813C11.613 17.7013 11.8021 17.6486 11.9153 17.6686C11.9153 17.6686 11.8238 17.5799 11.7151 17.5234Z" fill="white"/>
<path fill-rule="evenodd" clip-rule="evenodd" d="M9.22948 20.5675C9.2754 20.3718 9.32699 20.1674 9.41505 19.9788C9.58647 19.6116 10.0067 18.6351 10.883 18.4621C10.9658 18.4465 10.7883 18.2397 10.7106 18.251C10.6313 18.2597 10.4752 18.3628 10.4064 18.4098C10.4064 18.4098 10.4064 18.2008 10.4041 18.1631C10.4019 18.1241 10.369 18.1125 10.3349 18.1133C10.3009 18.1138 10.0896 18.1125 10.0218 18.1898C9.82253 18.424 9.48488 19.0526 9.29396 19.5206C9.10273 19.9882 8.97283 20.1329 8.7709 20.0605C8.56929 19.9882 8.44835 19.7545 8.09766 19.8254C7.97546 19.851 7.8399 19.9332 7.73438 20.0551C7.76363 20.1124 7.80121 20.182 7.96602 20.182C8.12989 20.182 8.44285 20.2513 8.61804 20.3755C8.79386 20.4992 8.97755 20.5395 9.22948 20.5675Z" fill="white"/>
<path fill-rule="evenodd" clip-rule="evenodd" d="M12.7289 17.5391C12.7491 17.6907 12.8212 17.8322 12.9014 17.9791C12.9014 17.9791 12.6339 19.2235 11.6704 19.3201C11.6704 19.3201 11.6891 19.0624 11.9747 18.8655C12.2604 18.6693 12.6872 18.3637 12.6566 17.9014C12.6566 17.9014 12.5806 17.917 12.4432 18.0909C12.3065 18.264 12.0058 18.7648 11.5391 18.7686C11.5391 18.7686 11.6089 18.5341 11.8151 18.3987C12.0214 18.264 12.2834 18.0909 12.402 17.8818C12.5212 17.6739 12.6462 17.5775 12.7289 17.5391Z" fill="white"/>
<path fill-rule="evenodd" clip-rule="evenodd" d="M12.2734 22.0706L12.8605 22.9016L13.3057 22.1016L13.1481 21.8164C13.0319 22.0263 12.9074 22.2533 12.8368 22.3778C12.7816 22.3013 12.6333 22.0911 12.439 21.8164L12.2734 22.0706Z" fill="white"/>
<path fill-rule="evenodd" clip-rule="evenodd" d="M12.1259 21.3697C11.5526 20.5602 10.846 19.5576 10.7743 19.456L10.9961 19.2945L10.2969 19.0234L10.309 19.795L10.5457 19.6223L11.9592 21.6252L12.1259 21.3697Z" fill="white"/>
<path fill-rule="evenodd" clip-rule="evenodd" d="M7.29789 16.8163C7.47025 16.626 7.76244 16.7911 8.05778 17.0661C8.35517 17.3413 8.54043 17.6229 8.36901 17.8128C8.20813 17.9893 7.90382 17.8386 7.60581 17.5643C7.30968 17.2888 7.12332 17.0066 7.29789 16.8163Z" fill="white"/>
<path fill-rule="evenodd" clip-rule="evenodd" d="M7.77361 20.2033C7.7626 20.1948 7.75427 20.1877 7.74562 20.1794C7.58836 20.0406 7.49887 19.8258 7.49887 19.5915C7.49887 19.1417 7.86011 18.775 8.30642 18.775C8.75179 18.775 9.11224 19.1417 9.11224 19.5915C9.11224 19.6524 9.10076 19.7521 9.10076 19.7521C9.13772 19.6826 9.27014 19.3707 9.29703 19.313C9.17656 18.8751 8.77696 18.5526 8.30642 18.5526C7.90005 18.5526 7.54825 18.7912 7.38108 19.1373C7.44415 18.7252 7.64717 18.3551 7.79044 18.2181C7.96249 18.0548 8.25437 18.002 8.25437 18.002C8.06282 18.034 7.80994 17.9142 7.52765 17.6506C7.2592 17.4031 7.12207 17.1855 7.11358 17.0039C7.12993 17.2602 7.12207 17.4041 7.04988 17.6125C6.9527 17.8964 6.6866 18.4212 6.78206 19.0136C6.8338 19.3387 7.06703 19.8227 7.45751 20.2181C7.54023 20.3066 7.5709 20.4381 7.58112 20.5058C7.58112 20.5058 8.15545 20.5058 8.2918 20.5192C8.2918 20.5192 8.42877 20.5058 8.42673 20.4203C8.42516 20.3341 8.34904 20.3122 8.28047 20.3122C8.21238 20.3122 7.92679 20.3192 7.77361 20.2033Z" fill="white"/>
<path fill-rule="evenodd" clip-rule="evenodd" d="M10.9542 20.4023C10.584 20.5364 10.2151 20.6095 9.86533 20.6637C9.63651 20.6982 9.41509 20.7111 9.20073 20.7C9.20404 20.7356 9.20404 20.7829 9.18359 20.8174C9.18359 20.8174 9.22684 20.8686 9.22684 20.9249C9.44324 20.9329 9.66875 20.9205 9.89883 20.8841C10.2822 20.8246 10.6839 20.747 11.0887 20.5917L10.9542 20.4023Z" fill="white"/>
<path fill-rule="evenodd" clip-rule="evenodd" d="M11.5599 20.3703C12.0512 20.1001 12.5296 19.6814 12.9616 19.0137L13.0388 18.8828C12.9207 18.9361 12.7702 18.8978 12.7702 18.8978C12.7612 18.9095 12.7427 18.9396 12.7336 18.9572C12.331 19.558 11.8848 19.9364 11.4297 20.1839L11.5599 20.3703Z" fill="white"/>
<path fill-rule="evenodd" clip-rule="evenodd" d="M8.3244 20.5836C8.25694 20.5725 8.04133 20.5787 7.91237 20.5978C7.77068 20.6208 7.60995 20.6493 7.59266 20.7286C7.57709 20.8037 7.62804 20.883 7.69959 20.9967C7.74347 21.0666 7.84915 21.0262 7.9075 21.0041C7.96537 20.9828 8.29751 20.8027 8.35004 20.7442C8.40398 20.6848 8.42631 20.6008 8.3244 20.5836Z" fill="white"/>
<path fill-rule="evenodd" clip-rule="evenodd" d="M8.66403 20.8064C8.62865 20.7838 8.54215 20.7497 8.4522 20.7843C8.36193 20.818 8.03498 21.0128 8.01391 21.1055C7.99095 21.1964 8.03671 21.2412 8.08719 21.2621C8.13751 21.2824 8.19869 21.302 8.24445 21.3069C8.32623 21.3132 8.40565 21.2652 8.44811 21.2134C8.48963 21.1609 8.64312 20.9743 8.66403 20.9315C8.68605 20.8904 8.69785 20.8296 8.66403 20.8064Z" fill="white"/>
<path fill-rule="evenodd" clip-rule="evenodd" d="M8.70403 21.0124C8.6559 21.0665 8.52412 21.228 8.50839 21.255C8.49361 21.2816 8.51672 21.3239 8.55808 21.3185C8.59882 21.3142 8.8248 21.291 8.95423 21.2023C9.08319 21.1126 9.16953 20.9396 9.0802 20.8779C8.99135 20.8155 8.85264 20.8447 8.70403 21.0124Z" fill="white"/>
<path fill-rule="evenodd" clip-rule="evenodd" d="M8.77392 20.5132C8.73068 20.5034 8.56004 20.4604 8.52419 20.5167C8.47717 20.5873 8.51003 20.6631 8.64245 20.728C8.77392 20.791 9.02287 20.8423 9.07335 20.7741C9.12085 20.7035 9.05338 20.5873 8.77392 20.5132Z" fill="white"/>
<path fill-rule="evenodd" clip-rule="evenodd" d="M14.3851 15.8711C14.3425 16.0073 14.2167 16.2592 14.1997 16.336C14.1702 16.4802 14.2103 16.655 14.471 16.8404C14.471 16.8404 14.639 16.7207 14.706 16.5649C14.769 16.4177 14.7332 16.3134 14.6677 16.2385C14.6026 16.1625 14.4506 15.9856 14.3851 15.8711Z" fill="white"/>
<path fill-rule="evenodd" clip-rule="evenodd" d="M13.8398 16.4102C13.8398 16.4833 13.8932 16.8951 14.0102 17.1005C14.1729 17.3874 14.4115 17.6 14.6208 17.6C14.8152 17.6 14.8569 17.4828 14.9512 17.4364C14.9512 17.4364 14.9025 17.1865 14.6839 17.1218C14.4176 17.04 14.0069 16.7157 13.8398 16.4102Z" fill="white"/>
<path fill-rule="evenodd" clip-rule="evenodd" d="M14.5391 16.9341C14.584 16.899 14.6215 16.8759 14.6753 16.8125C14.6753 16.8125 14.8832 16.8893 15.0532 17.005C15.2221 17.1209 15.3877 17.3182 15.4795 17.4204C15.4795 17.4204 15.2244 17.4869 15.0628 17.4123C15.0628 17.4123 15.0039 17.1666 14.8221 17.0562C14.7833 17.0325 14.6564 16.9944 14.5391 16.9341Z" fill="white"/>
<path fill-rule="evenodd" clip-rule="evenodd" d="M14.75 16.7233C14.7899 16.6611 14.8709 16.5468 14.8522 16.3672C14.8522 16.3672 15.2102 16.5979 15.3176 16.6834C15.4258 16.7729 15.6494 17.006 15.6996 17.0828C15.6996 17.0828 15.428 17.0224 15.2197 16.9514C14.9922 16.8755 14.8349 16.7729 14.75 16.7233Z" fill="white"/>
<path fill-rule="evenodd" clip-rule="evenodd" d="M15.3555 17.1133C15.5486 17.1842 15.9801 17.254 16.1629 17.3085C16.3445 17.3634 16.4769 17.4575 16.6499 17.6483C16.6499 17.6483 16.3822 17.7243 16.2415 17.7689C16.2415 17.7689 16.0152 17.6136 15.7661 17.5174C15.6055 17.4545 15.5259 17.284 15.3555 17.1133Z" fill="white"/>
<path fill-rule="evenodd" clip-rule="evenodd" d="M15.7598 18.41C15.7184 18.363 15.6662 18.3097 15.7051 18.2011C15.7338 18.1204 15.8919 18.0339 15.9864 17.9881C16.1423 17.9127 16.5736 17.7956 16.7137 17.7539C16.7137 17.7539 16.7837 17.8364 16.8213 17.9242C16.8372 17.9579 16.8144 17.993 16.7553 18.004C16.6342 18.025 16.3456 17.9703 16.2744 18.0165C16.1992 18.0666 16.2258 18.1332 16.2258 18.2011C16.2258 18.2011 16.0952 18.1185 16.0102 18.1372C15.8964 18.1619 15.8249 18.2175 15.7598 18.41Z" fill="white"/>
<path fill-rule="evenodd" clip-rule="evenodd" d="M16.1417 17.7993C16.1099 17.8099 15.9422 17.8614 15.7782 17.9665C15.7782 17.9665 15.7056 17.9381 15.6695 17.8707C15.6353 17.8059 15.4873 17.5854 15.3516 17.5557C15.3516 17.5557 15.467 17.5446 15.5326 17.5234C15.5326 17.5234 15.6732 17.5597 15.774 17.601C15.8732 17.6419 15.9971 17.7039 16.1417 17.7993Z" fill="white"/>
<path fill-rule="evenodd" clip-rule="evenodd" d="M15.028 17.5234C15.0543 17.5358 15.0986 17.5578 15.199 17.5621C15.199 17.5621 15.5792 17.8274 15.6229 18.0935C15.6626 18.3195 15.5438 18.4285 15.4861 18.4565C15.4284 18.4862 15.164 18.5963 14.9922 18.2368C14.9922 18.2368 15.2851 18.3341 15.3653 18.1921C15.4448 18.0484 15.3156 17.8408 15.2359 17.7813C15.1313 17.7013 14.9431 17.6486 14.8281 17.6686C14.8281 17.6686 14.9193 17.5799 15.028 17.5234Z" fill="white"/>
<path fill-rule="evenodd" clip-rule="evenodd" d="M17.5154 20.5675C17.4693 20.3718 17.419 20.1674 17.3302 19.9788C17.1595 19.6116 16.7392 18.6351 15.861 18.4621C15.7792 18.4465 15.9554 18.2397 16.036 18.251C16.1143 18.2597 16.2705 18.3628 16.34 18.4098C16.34 18.4098 16.34 18.2008 16.3418 18.1631C16.344 18.1241 16.3762 18.1125 16.4092 18.1133C16.4437 18.1138 16.6553 18.1125 16.722 18.1898C16.923 18.424 17.2599 19.0526 17.4514 19.5206C17.6428 19.9882 17.7732 20.1329 17.9738 20.0605C18.1759 19.9882 18.2981 19.7545 18.648 19.8254C18.7704 19.851 18.9048 19.9332 19.0124 20.0551C18.9817 20.1124 18.9437 20.182 18.7806 20.182C18.6147 20.182 18.3014 20.2513 18.1275 20.3755C17.9513 20.4992 17.7681 20.5395 17.5154 20.5675Z" fill="white"/>
<path fill-rule="evenodd" clip-rule="evenodd" d="M14.0139 17.5391C13.9958 17.6907 13.9229 17.8322 13.8438 17.9791C13.8438 17.9791 14.1105 19.2235 15.0759 19.3201C15.0759 19.3201 15.0555 19.0624 14.7705 18.8655C14.4837 18.6693 14.0568 18.3637 14.0875 17.9014C14.0875 17.9014 14.1636 17.917 14.3003 18.0909C14.4392 18.264 14.74 18.7648 15.2047 18.7686C15.2047 18.7686 15.1363 18.5341 14.9298 18.3987C14.7236 18.264 14.4607 18.0909 14.342 17.8818C14.2243 17.6739 14.0995 17.5775 14.0139 17.5391Z" fill="white"/>
<path fill-rule="evenodd" clip-rule="evenodd" d="M13.3726 18.7422C13.4295 18.9072 13.7936 19.4288 13.953 19.577C14.1141 19.7257 14.5028 20.1196 14.711 20.3161C14.711 20.3161 14.1183 20.1676 13.7847 19.8619C13.7847 19.8619 13.5477 20.0012 13.3748 20.0012H13.3664C13.193 20.0012 12.9556 19.8619 12.9556 19.8619C12.6229 20.1676 12.0312 20.3161 12.0312 20.3161C12.2384 20.1196 12.6274 19.7257 12.7872 19.577C12.9481 19.4288 13.3134 18.9072 13.3693 18.7422H13.3726Z" fill="white"/>
<path fill-rule="evenodd" clip-rule="evenodd" d="M13.3746 20.126C13.5055 20.126 13.6294 20.0737 13.6999 20.043C13.6294 20.1921 13.4979 20.4236 13.3716 20.519H13.3699C13.2435 20.4236 13.1119 20.1921 13.043 20.043C13.1119 20.0737 13.2356 20.126 13.3671 20.126H13.3746Z" fill="white"/>
<path fill-rule="evenodd" clip-rule="evenodd" d="M13.8847 22.9047L16.2017 19.6223L16.4372 19.7948L16.4515 19.0234L15.7495 19.2945L15.9724 19.456C15.8588 19.6169 14.1264 22.0716 13.9083 22.3808L12.859 20.4584L12.7294 20.6586L11.7956 22.0854L11.5617 21.9274L11.5586 22.6859L12.2677 22.4021L12.0298 22.2428C12.1586 22.0459 12.6656 21.273 12.8345 21.0131L13.8847 22.9047Z" fill="white"/>
<path fill-rule="evenodd" clip-rule="evenodd" d="M14.3076 21.6141C14.1513 21.3758 13.9942 21.1349 13.9139 21.0116C13.8555 21.1224 13.7363 21.3386 13.6033 21.578L13.4375 21.2783L13.8884 20.457L14.0194 20.657L14.483 21.3659L14.3076 21.6141Z" fill="white"/>
<path fill-rule="evenodd" clip-rule="evenodd" d="M14.786 21.8281L14.9526 22.0846L15.1858 21.9265L15.1899 22.6852L14.4805 22.4013L14.7173 22.2421C14.6929 22.2043 14.6571 22.1458 14.6099 22.0757L14.786 21.8281Z" fill="white"/>
<path fill-rule="evenodd" clip-rule="evenodd" d="M19.4463 16.8163C19.2734 16.626 18.9812 16.7911 18.6839 17.0661C18.3884 17.3413 18.2024 17.6229 18.3747 17.8128C18.5348 17.9893 18.8423 17.8386 19.1383 17.5643C19.4333 17.2888 19.62 17.0066 19.4463 16.8163Z" fill="white"/>
<path fill-rule="evenodd" clip-rule="evenodd" d="M18.9729 20.2033C18.9832 20.1948 18.9909 20.1877 19.0002 20.1794C19.1569 20.0406 19.2485 19.8258 19.2485 19.5915C19.2485 19.1417 18.886 18.775 18.4403 18.775C17.9951 18.775 17.634 19.1417 17.634 19.5915C17.634 19.6524 17.6458 19.7521 17.6458 19.7521C17.6095 19.6826 17.4755 19.3707 17.4492 19.313C17.5686 18.8751 17.9672 18.5526 18.4403 18.5526C18.8465 18.5526 19.1983 18.7912 19.3645 19.1373C19.3013 18.7252 19.1005 18.3551 18.9558 18.2181C18.7842 18.0548 18.4919 18.002 18.4919 18.002C18.683 18.034 18.9358 17.9142 19.2188 17.6506C19.4869 17.4031 19.6259 17.1855 19.6327 17.0039C19.6163 17.2602 19.6235 17.4041 19.6948 17.6125C19.7929 17.8964 20.0596 18.4212 19.9654 19.0136C19.9129 19.3387 19.6794 19.8227 19.2906 20.2181C19.2065 20.3066 19.1752 20.4381 19.1661 20.5058C19.1661 20.5058 18.5905 20.5058 18.4533 20.5192C18.4533 20.5192 18.3178 20.5058 18.3201 20.4203C18.3227 20.3341 18.3974 20.3122 18.4664 20.3122C18.5334 20.3122 18.8204 20.3192 18.9729 20.2033Z" fill="white"/>
<path fill-rule="evenodd" clip-rule="evenodd" d="M15.1855 20.3695C14.6957 20.0981 14.217 19.6815 13.7847 19.0138L13.707 18.8828C13.8258 18.9361 13.9772 18.8979 13.9772 18.8979C13.9859 18.9095 14.0036 18.9397 14.0126 18.9574C14.4155 19.5572 14.8615 19.9365 15.3166 20.1841L15.1855 20.3695Z" fill="white"/>
<path fill-rule="evenodd" clip-rule="evenodd" d="M15.7891 20.3984C16.1597 20.5334 16.5286 20.6065 16.8782 20.6606C17.107 20.6953 17.3305 20.7081 17.5429 20.697C17.54 20.7326 17.54 20.7798 17.5606 20.8145C17.5606 20.8145 17.5186 20.8657 17.5186 20.922C17.3004 20.9299 17.0762 20.9175 16.8447 20.8811C16.4643 20.8216 16.0598 20.7441 15.6562 20.5883L15.7891 20.3984Z" fill="white"/>
<path fill-rule="evenodd" clip-rule="evenodd" d="M18.4184 20.5836C18.4871 20.5725 18.7027 20.5787 18.831 20.5978C18.9724 20.6208 19.1335 20.6493 19.1509 20.7286C19.1663 20.8037 19.1154 20.883 19.0446 20.9967C18.9985 21.0666 18.8935 21.0262 18.8367 21.0041C18.7779 20.9828 18.4456 20.8027 18.3915 20.7442C18.3399 20.6848 18.3173 20.6008 18.4184 20.5836Z" fill="white"/>
<path fill-rule="evenodd" clip-rule="evenodd" d="M18.0785 20.8064C18.1148 20.7838 18.2022 20.7497 18.2922 20.7843C18.3815 20.818 18.708 21.0128 18.7308 21.1055C18.752 21.1964 18.707 21.2412 18.6564 21.2621C18.6067 21.2824 18.5446 21.302 18.4993 21.3069C18.4181 21.3132 18.339 21.2652 18.2966 21.2134C18.254 21.1609 18.1025 20.9743 18.0785 20.9315C18.0578 20.8904 18.0467 20.8296 18.0785 20.8064Z" fill="white"/>
<path fill-rule="evenodd" clip-rule="evenodd" d="M18.0413 21.0124C18.0881 21.0665 18.2211 21.228 18.236 21.255C18.2524 21.2816 18.2279 21.3239 18.1868 21.3185C18.145 21.3142 17.9207 21.291 17.7913 21.2023C17.6622 21.1126 17.5763 20.9396 17.6656 20.8779C17.7525 20.8155 17.8916 20.8447 18.0413 21.0124Z" fill="white"/>
<path fill-rule="evenodd" clip-rule="evenodd" d="M17.9696 20.5132C18.0122 20.5034 18.1827 20.4604 18.2193 20.5167C18.2646 20.5873 18.2322 20.6631 18.1001 20.728C17.9696 20.791 17.7203 20.8423 17.6706 20.7741C17.622 20.7035 17.6907 20.5873 17.9696 20.5132Z" fill="white"/>
<mask id="mask0" mask-type="alpha" maskUnits="userSpaceOnUse" x="0" y="0" width="56" height="28">
<path d="M0 27.0394H55.2141V0H0V27.0394Z" fill="white"/>
</mask>
<g mask="url(#mask0)">
<path fill-rule="evenodd" clip-rule="evenodd" d="M28.4648 27.1878H55.2123V0.148438H28.4648V27.1878Z" fill="#CC003D"/>
<path fill-rule="evenodd" clip-rule="evenodd" d="M50.0117 8.72497C50.0141 8.60526 50.0361 7.76583 50.038 7.65248H50.24C51.0215 7.65248 51.1526 7.79207 51.2253 8.72497H50.0117ZM52.2351 8.259C52.1124 7.21512 51.6276 6.67188 50.4824 6.67188H49.0261L48.8281 12.5689H49.8893C49.8893 12.5689 49.9873 9.83388 49.993 9.7043C50.1092 9.7043 51.2236 9.70558 51.3338 9.70558C51.3461 9.82481 51.5467 12.5689 51.5467 12.5689H52.6424C52.6424 12.5689 52.2653 8.51782 52.2351 8.259Z" fill="white"/>
<path fill-rule="evenodd" clip-rule="evenodd" d="M37.1369 16.8226C37.1392 16.7029 37.1612 15.8636 37.1631 15.7503L37.3532 15.7382C38.1347 15.7382 38.2776 15.8899 38.3505 16.8226H37.1369ZM39.3601 16.3567C39.2377 15.3129 38.7526 14.7695 37.6075 14.7695H36.1511L35.9531 20.6665H37.0143C37.0143 20.6665 37.1123 17.9315 37.1181 17.802C37.2345 17.802 38.3487 17.8032 38.459 17.8032C38.4712 17.9225 38.6717 20.6665 38.6717 20.6665H39.7674C39.7674 20.6665 39.3904 16.6156 39.3601 16.3567Z" fill="white"/>
<path fill-rule="evenodd" clip-rule="evenodd" d="M31.3945 6.67188V12.5674H32.4671V7.65232H33.7963V12.5674H34.8705V6.67188H31.3945Z" fill="white"/>
<path fill-rule="evenodd" clip-rule="evenodd" d="M42.7434 8.72513H42.1594C41.918 8.72513 41.7389 8.6706 41.6247 8.56043C41.5442 8.48396 41.5047 8.3803 41.5047 8.24516V6.67188H40.4297V8.35518C40.4297 8.74326 40.5816 9.0714 40.8813 9.33213C41.1768 9.59032 41.5387 9.72036 41.9586 9.72036H42.7434V12.5676H43.8168V6.67188H42.7434V8.72513Z" fill="white"/>
<path fill-rule="evenodd" clip-rule="evenodd" d="M45.0039 6.67188V7.65232H45.8953V12.5674H45.9085H46.9678H46.981V7.65232H47.8724V6.67188H45.0039Z" fill="white"/>
<path fill-rule="evenodd" clip-rule="evenodd" d="M43.43 14.7695V16.6541H41.9575V14.7695H40.8867V20.6676H41.9575V17.6346H43.43V20.6676H44.5008V14.7695H43.43Z" fill="white"/>
<path fill-rule="evenodd" clip-rule="evenodd" d="M32.8335 19.7546C32.7292 19.7546 32.4671 19.7303 32.4671 19.7303V18.5792V18.4586V17.6546C32.4671 17.6546 32.5514 17.6346 32.6435 17.6346C33.1877 17.6346 33.8307 17.6024 33.8307 18.6935C33.8307 19.6939 33.1241 19.7546 32.8335 19.7546ZM32.9634 16.6991C32.7786 16.6991 32.6144 16.7036 32.4671 16.7104V15.75H34.392V14.7695H31.3945V15.75V20.6652H31.4672H33.0225C34.6456 20.6652 34.8971 19.2067 34.8971 18.6668C34.8971 18.0279 34.6471 16.6991 32.9634 16.6991Z" fill="white"/>
<path fill-rule="evenodd" clip-rule="evenodd" d="M36.9499 9.63018V9.6297C36.9588 8.03384 37.349 7.50872 37.7604 7.50093C38.1718 7.50872 38.562 8.03384 38.571 9.6297V9.63018C38.562 11.1888 38.1718 11.7211 37.7604 11.7292C37.349 11.7211 36.959 11.1888 36.9499 9.63018ZM39.6394 9.41158C39.6208 8.56818 39.4776 7.96389 39.2557 7.53463C38.9059 6.80093 38.3487 6.527 37.7735 6.52001C37.7722 6.52001 37.7711 6.51953 37.7698 6.51953C37.7667 6.51953 37.7636 6.51969 37.7604 6.51969C37.7573 6.51969 37.7541 6.51953 37.751 6.51953C37.7497 6.51953 37.7486 6.52001 37.7474 6.52001C37.1721 6.527 36.6151 6.80093 36.2651 7.53463C36.0431 7.96389 35.9 8.56818 35.8814 9.41158C35.8813 9.41285 35.8789 9.60093 35.8789 9.60236L35.8791 9.6022C35.8797 10.1276 35.9376 10.6372 36.0506 11.0475C36.3452 12.2556 37.0258 12.683 37.7363 12.6958C37.7412 12.696 37.7464 12.6965 37.751 12.6965C37.7541 12.6965 37.7573 12.6963 37.7604 12.6963C37.7636 12.6963 37.7667 12.6965 37.7698 12.6965C37.7746 12.6965 37.7798 12.696 37.7845 12.6958C38.495 12.683 39.1756 12.2556 39.4702 11.0475C39.5834 10.6372 39.6413 10.1276 39.6418 9.6022L39.6419 9.60236C39.6419 9.60093 39.6394 9.41285 39.6394 9.41158Z" fill="white"/>
<path fill-rule="evenodd" clip-rule="evenodd" d="M49.8425 20.6659L48.5515 17.2099C48.8195 17.0082 49.0282 16.6217 49.121 16.2368C49.2109 15.8627 49.3294 14.7695 49.3294 14.7695H48.2735C48.267 14.8808 48.2442 15.2549 48.2112 15.6352C48.1623 16.1989 47.9981 16.719 47.4277 16.719H46.9875C46.9868 16.6718 46.9875 14.7695 46.9875 14.7695H45.9141V20.6676H46.9875V17.673C46.9875 17.673 47.5554 17.6738 47.6356 17.6732L48.6901 20.6659H49.8425Z" fill="white"/>
</g>
</svg>
