<svg width="55" height="55" viewBox="0 0 55 55" fill="none" xmlns="http://www.w3.org/2000/svg">
<path d="M42.3958 49.2722H12.6042C11.9964 49.2722 11.4135 49.0307 10.9837 48.601C10.5539 48.1712 10.3125 47.5883 10.3125 46.9805V8.02218C10.3125 7.4144 10.5539 6.8315 10.9837 6.40173C11.4135 5.97196 11.9964 5.73052 12.6042 5.73052H33.2819C35.2506 5.72406 37.1686 6.35429 38.7498 7.52718C40.3149 8.70954 41.7085 10.1031 42.8908 11.6682C44.0637 13.2494 44.694 15.1674 44.6875 17.1361V46.9805C44.6875 47.5883 44.4461 48.1712 44.0163 48.601C43.5865 49.0307 43.0036 49.2722 42.3958 49.2722Z" stroke="#F7C154" stroke-width="2.54167" stroke-linecap="round" stroke-linejoin="round"/>
<path d="M35.5195 10.3125V14.8958H40.1029C41.3184 14.8958 42.4842 15.3787 43.3438 16.2383C44.2033 17.0978 44.6862 18.2636 44.6862 19.4792V21.7708" stroke="#F7C154" stroke-width="2.54167" stroke-linecap="round" stroke-linejoin="round"/>
<g clip-path="url(#clip0)">
<path d="M25.815 20.5649L29.5399 24.8097C29.6028 24.8814 29.6822 24.9367 29.7712 24.971C29.8603 25.0052 29.9563 25.0173 30.0511 25.0062L35.6605 24.3441C35.77 24.3304 35.8813 24.3479 35.9814 24.3945C36.0815 24.4412 36.1664 24.515 36.2265 24.6077C36.2866 24.7003 36.3193 24.8081 36.321 24.9185C36.3227 25.0289 36.2932 25.1375 36.236 25.232L33.3495 30.0863C33.3012 30.1686 33.2734 30.2613 33.2684 30.3565C33.2635 30.4518 33.2816 30.5469 33.3212 30.6337L35.6843 35.7623C35.7304 35.862 35.7476 35.9726 35.7341 36.0816C35.7205 36.1906 35.6767 36.2936 35.6075 36.379C35.5384 36.4643 35.4468 36.5286 35.343 36.5645C35.2392 36.6004 35.1274 36.6065 35.0203 36.5822L29.5119 35.3383C29.4188 35.317 29.322 35.3188 29.2298 35.3435C29.1377 35.3682 29.0529 35.4151 28.983 35.48L24.8338 39.3127C24.7532 39.3873 24.6534 39.4379 24.5455 39.4587C24.4377 39.4795 24.3262 39.4697 24.2236 39.4303C24.1211 39.391 24.0316 39.3237 23.9654 39.2361C23.8991 39.1485 23.8587 39.0441 23.8488 38.9347L23.3311 33.3116C23.3219 33.2166 23.2901 33.1252 23.2381 33.0452C23.1862 32.9651 23.1158 32.8988 23.0328 32.8517L18.1045 30.0861C18.0089 30.0325 17.9302 29.9533 17.8772 29.8573C17.8243 29.7613 17.7992 29.6524 17.8049 29.5429C17.8106 29.4334 17.8468 29.3277 17.9093 29.2377C17.9719 29.1477 18.0584 29.077 18.1591 29.0336L23.3471 26.8025C23.4347 26.7647 23.5118 26.7063 23.5718 26.6321C23.6318 26.5579 23.6729 26.4703 23.6915 26.3767L24.795 20.8382C24.8165 20.7305 24.8677 20.6309 24.9428 20.5508C25.0179 20.4706 25.114 20.4131 25.2201 20.3847C25.3262 20.3562 25.4381 20.3581 25.5432 20.3899C25.6484 20.4218 25.7425 20.4824 25.815 20.5649V20.5649Z" stroke="white" stroke-width="2.54154" stroke-linecap="round" stroke-linejoin="round"/>
</g>
<defs>
<clipPath id="clip0">
<rect width="21.3525" height="21.3524" fill="white" transform="translate(14.375 21.7031) rotate(-15)"/>
</clipPath>
</defs>
</svg>
