<svg width="89" height="72" viewBox="0 0 89 72" fill="none" xmlns="http://www.w3.org/2000/svg">
<path d="M88.4438 43.3613L85.9239 36.4182L87.5918 31.7635C87.8224 31.1222 87.6981 30.4071 87.2654 29.8804L85.5406 27.7795L87.1782 23.7576C87.662 22.5688 87.3338 21.2067 86.3613 20.3684C85.3878 19.531 83.9922 19.4032 82.8859 20.053L79.532 22.0194L76.1847 23.2205C75.9058 23.3199 75.6544 23.4819 75.4475 23.6941L69.5794 29.7222L64.8289 30.3607C64.3573 30.4241 63.9266 30.6581 63.6163 31.0171L61.3744 33.6134L57.4256 33.3529L57.5015 32.3167C57.6353 30.4753 56.7226 28.7589 55.1201 27.8373C53.5195 26.9165 51.5736 26.9876 50.0451 28.0267L43.824 32.2532L41.9435 30.641C41.3145 30.1021 40.4141 30.0225 39.6997 30.4355L35.8818 32.6539L29.0639 30.2782L29.1769 28.8186C29.3258 26.8862 28.397 25.0486 26.7508 24.0209C25.1047 22.995 23.044 22.9657 21.3694 23.947L17.4681 26.2327L13.7992 25.5232C12.3105 25.2381 10.7678 25.6833 9.66441 26.7167C8.56098 27.7511 8.01829 29.2638 8.21184 30.7632L8.43575 32.4938L7.16724 38.4519L2.59415 41.2651C0.420517 42.6017 -0.541538 45.3126 0.305716 47.7138C0.613118 48.5843 1.0875 50.9837 1.54576 53.3034L1.77916 54.4874C2.19282 56.56 3.88733 58.0642 5.9974 58.2299C8.10557 58.3966 10.0145 57.1766 10.747 55.195L12.1284 51.4592L13.043 50.8321C13.4576 50.547 14.024 50.5934 14.3883 50.9401L16.9908 53.4237C17.3893 53.8054 17.9282 53.9977 18.4861 53.956L22.5317 53.6378L28.9302 54.4808L31.2034 59.5324C31.6873 60.6075 32.5535 61.4477 33.6437 61.8976L39.435 64.2884C40.4758 64.7175 41.6333 64.7516 42.695 64.385L47.3724 62.7738L49.8231 64.7895C50.0641 64.9874 50.3487 65.1248 50.6542 65.1892L58.9674 66.9539C60.8222 67.346 62.7141 66.3022 63.3659 64.5186L64.7843 60.6264L66.7776 62.4631C67.1031 62.7634 67.5224 62.9433 67.9646 62.9727L70.9039 63.1716L70.2663 65.39C69.734 67.2466 70.4608 69.2083 72.0737 70.273C72.8005 70.7523 73.6477 71.0014 74.5045 71.0014C74.8764 71.0014 75.2502 70.954 75.6155 70.8593C76.8251 70.5439 77.847 69.7274 78.421 68.6172L81.9058 61.8644C82.18 61.3321 82.1933 60.7031 81.9409 60.1604L78.44 52.6195C78.1828 52.0654 77.679 51.6647 77.0813 51.5378L73.6866 50.8179L73.7815 49.3156L76.4428 47.4903C76.8764 47.1938 77.1715 46.7335 77.2587 46.2153L77.5206 44.6761L79.1212 47.586C80.4646 50.0137 83.5548 50.9344 86.0112 49.6424C88.2664 48.4555 89.3129 45.7559 88.4438 43.3613ZM84.199 46.2106C83.6022 46.5251 82.8508 46.3025 82.5235 45.7104L78.2739 37.8238C77.883 37.0897 77.068 36.691 76.2474 36.8188C75.4267 36.9515 74.7805 37.5918 74.642 38.4102L73.5652 44.7575L70.8014 46.652C70.309 46.9892 69.9987 47.5348 69.9617 48.1297L69.7037 52.2463C69.6439 53.2058 70.2966 54.065 71.2397 54.2648L75.3232 55.1316L78.0159 60.9305L74.9665 66.8393C74.8783 67.0107 74.7369 67.078 74.6344 67.1045C74.531 67.131 74.3754 67.1414 74.216 67.0353C74.0253 66.9094 73.9399 66.6773 74.0026 66.4585L75.3024 61.9326C75.4637 61.37 75.3621 60.7638 75.0244 60.2835C74.6876 59.8042 74.1515 59.5021 73.5652 59.4632L68.9095 59.1478L65.2738 55.7984C64.7957 55.3579 64.1296 55.1846 63.4977 55.339C62.8659 55.4924 62.3526 55.9509 62.1296 56.5609L59.7748 63.1593L51.9275 61.4931L49.0024 59.0881C48.4806 58.659 47.7718 58.5321 47.1333 58.7519L41.4255 60.7183C41.2633 60.7742 41.0821 60.7704 40.9198 60.7022L35.1285 58.3114C34.9587 58.2413 34.8249 58.1115 34.749 57.9439L32.0308 51.9044C31.7547 51.2906 31.1807 50.8643 30.5127 50.7762L22.8372 49.7646C22.7015 49.7466 22.5668 49.7428 22.4301 49.7532L19.0478 50.0194L17.0734 48.1363C15.3874 46.527 12.7678 46.3148 10.8428 47.6333L9.41867 48.6099C9.08755 48.8372 8.83518 49.1612 8.69666 49.5372L7.10177 53.8519C6.92245 54.3368 6.52397 54.3795 6.30291 54.3624C6.08089 54.3454 5.69284 54.2393 5.59133 53.7306L5.35793 52.5532C4.82851 49.8726 4.37215 47.5585 3.97082 46.4228C3.72319 45.7228 3.99549 44.9602 4.63212 44.569L9.91393 41.3201C10.3665 41.0416 10.6853 40.5907 10.7953 40.0716L12.3058 32.9769C12.3513 32.7628 12.3608 32.5421 12.3324 32.3243L12.0657 30.2659C12.0183 29.8946 12.2071 29.655 12.3248 29.5451C12.4415 29.4352 12.6891 29.2628 13.061 29.3329L17.45 30.1816C17.913 30.2716 18.3941 30.1883 18.803 29.9496L23.3372 27.2926C23.9548 26.9317 24.4899 27.1856 24.6911 27.3115C24.8932 27.4375 25.3571 27.8079 25.3021 28.5193L25.0734 31.468C25.0051 32.346 25.5383 33.1588 26.3704 33.4496L35.4454 36.6114C35.9824 36.7961 36.5725 36.7402 37.0631 36.4561L40.4597 34.483L42.4198 36.1643C43.0868 36.7364 44.0546 36.7904 44.7794 36.2969L52.2311 31.234C52.6504 30.9508 53.0347 31.1146 53.1798 31.199C53.326 31.2823 53.6618 31.5324 53.6248 32.0363L53.4085 35.0191C53.3715 35.5344 53.5413 36.0431 53.881 36.4333C54.2206 36.8226 54.7026 37.0613 55.2188 37.0954L62.085 37.5492C62.6913 37.5927 63.2871 37.3408 63.6847 36.8795L66.0784 34.1079L70.7634 33.478C71.1951 33.4192 71.5946 33.2184 71.8982 32.9068L77.921 26.7195L81.0159 25.6094C81.1297 25.5686 81.2388 25.5175 81.3432 25.4569L82.588 24.7266L81.5054 27.3864C81.2369 28.0447 81.3508 28.7968 81.8024 29.3462L83.5624 31.4907L82.0292 35.7684C81.8764 36.1937 81.8774 36.6588 82.032 37.0831L84.7901 44.6837C85.0017 45.2653 84.7474 45.9217 84.199 46.2106Z" fill="#223549"/>
<circle cx="45.5045" cy="34.1802" r="14.5396" fill="white"/>
<circle cx="45.5064" cy="9.25249" r="9.25249" fill="white"/>
<path d="M42.0995 44.457V42.8944H40.9312V41.4778H42.0995V40.3386H40.9312V38.5277H42.0995V34.0296H45.4293C46.7729 34.0296 47.7514 34.3022 48.3648 34.8474C48.9879 35.3927 49.2994 36.1423 49.2994 37.0965C49.2994 37.6612 49.1729 38.1918 48.9197 38.6883C48.6666 39.1849 48.2431 39.5841 47.6492 39.8859C47.065 40.1877 46.2666 40.3386 45.2541 40.3386H44.3048V41.4778H46.5538V42.8944H44.3048V44.457H42.0995ZM45.035 38.5277C45.6581 38.5277 46.1498 38.4206 46.51 38.2064C46.88 37.9922 47.065 37.6466 47.065 37.1695C47.065 36.2835 46.4808 35.8405 45.3125 35.8405H44.3048V38.5277H45.035Z" fill="#223549"/>
<path fill-rule="evenodd" clip-rule="evenodd" d="M57.1057 31.9492C58.0542 33.7426 58.5925 35.7889 58.5925 37.959C58.5925 45.0679 52.829 50.833 45.719 50.833C38.609 50.833 32.845 45.0685 32.845 37.959C32.845 35.7889 33.3833 33.7431 34.3323 31.9492C39.333 31.6464 43.5949 29.1663 45.719 25.6606C47.8421 29.1663 52.1051 31.6464 57.1057 31.9492ZM53.6143 11.0387C53.7884 11.7029 53.8815 12.3994 53.8815 13.1184C53.8815 17.6268 50.2268 21.2815 45.719 21.2815C41.2107 21.2815 37.556 17.6268 37.556 13.1184C37.556 12.3994 37.6491 11.7029 37.8238 11.0387C38.0532 11.0551 38.2843 11.0639 38.5181 11.0639C41.6739 11.0639 44.4042 9.51799 45.719 7.26846C47.0333 9.51744 49.7641 11.0639 52.9194 11.0639C53.1537 11.0639 53.3848 11.0551 53.6143 11.0387ZM62.2712 36.2358C62.3293 36.8025 62.3599 37.3769 62.3599 37.9585C62.3599 47.1488 54.9099 54.5994 45.719 54.5994C36.5282 54.5994 29.0781 47.1494 29.0781 37.9585C29.0781 37.429 29.1039 36.906 29.1521 36.3885C29.3985 32.7733 30.1958 29.1553 31.97 25.5407C34.0021 21.4014 34.7561 17.2594 34.8657 13.1184V13.1179C34.8657 7.12445 39.725 2.26562 45.7185 2.26562C51.7125 2.26562 56.5713 7.12445 56.5713 13.1179C56.5713 13.1436 56.5707 13.1694 56.5707 13.1951C56.6901 17.3108 57.4458 21.4282 59.4631 25.5407C61.2116 29.1055 62.0127 32.6709 62.2712 36.2358Z" fill="#EC663D"/>
</svg>
