<svg width="59" height="33" viewBox="0 0 59 33" fill="none" xmlns="http://www.w3.org/2000/svg">
<g clip-path="url(#clip0)">
<path d="M13.1206 27.6405H10.668L12.202 17.8711H14.6545L13.1206 27.6405Z" fill="#00579F"/>
<path d="M22.0095 18.1112C21.5257 17.9136 20.7584 17.6953 19.8097 17.6953C17.3877 17.6953 15.6821 19.0255 15.6716 20.9274C15.6515 22.3306 16.8928 23.1099 17.8211 23.5778C18.77 24.0559 19.0926 24.3679 19.0926 24.794C19.0829 25.4485 18.3258 25.7502 17.6197 25.7502C16.6405 25.7502 16.1158 25.5947 15.3185 25.2306L14.9955 25.0745L14.6523 27.2675C15.2276 27.5374 16.2874 27.7769 17.3877 27.7874C19.9611 27.7874 21.6365 26.4778 21.6563 24.4511C21.6661 23.3389 21.0107 22.4868 19.5976 21.7904C18.7398 21.3434 18.2145 21.042 18.2145 20.5847C18.2245 20.1689 18.6588 19.743 19.6271 19.743C20.4245 19.7222 21.0103 19.9196 21.4541 20.1171L21.6759 20.2208L22.0095 18.1112Z" fill="#00579F"/>
<path d="M25.2711 24.1796C25.4731 23.6183 26.2503 21.4462 26.2503 21.4462C26.2401 21.467 26.4519 20.8746 26.573 20.5108L26.7444 21.3526C26.7444 21.3526 27.2088 23.6911 27.3097 24.1796C26.9264 24.1796 25.7556 24.1796 25.2711 24.1796ZM28.2985 17.8711H26.4015C25.8164 17.8711 25.372 18.0476 25.1196 18.6817L21.4766 27.6404H24.05C24.05 27.6404 24.4737 26.4346 24.5647 26.1749C24.8471 26.1749 27.3505 26.1749 27.7137 26.1749C27.7841 26.5179 28.0063 27.6404 28.0063 27.6404H30.2772L28.2985 17.8711Z" fill="#00579F"/>
<path d="M8.61774 17.8711L6.21584 24.5329L5.95337 23.1818C5.50931 21.6228 4.11665 19.929 2.5625 19.0868L4.76255 27.6302H7.3561L11.2112 17.8711H8.61774Z" fill="#00579F"/>
<path d="M3.98635 17.8711H0.040369L0 18.0685C3.07811 18.8792 5.11669 20.8334 5.95425 23.1822L5.09644 18.6923C4.95521 18.0683 4.52121 17.8917 3.98635 17.8711Z" fill="#FAA61A"/>
</g>
<g clip-path="url(#clip1)">
<path d="M49.931 17.7383H43.9414V28.4603H49.931V17.7383Z" fill="#FF5F00"/>
<path d="M44.3281 23.1197C44.3271 22.0871 44.562 21.0678 45.015 20.139C45.4679 19.2102 46.1271 18.3962 46.9425 17.7587C45.9327 16.968 44.72 16.4763 43.4429 16.3397C42.1658 16.2032 40.8759 16.4273 39.7207 16.9865C38.5654 17.5457 37.5914 18.4174 36.91 19.502C36.2286 20.5865 35.8672 21.8402 35.8672 23.1197C35.8672 24.3991 36.2286 25.6528 36.91 26.7374C37.5914 27.8219 38.5654 28.6936 39.7207 29.2528C40.8759 29.812 42.1658 30.0361 43.4429 29.8996C44.72 29.7631 45.9327 29.2713 46.9425 28.4807C46.1271 27.8431 45.468 27.0292 45.015 26.1004C44.562 25.1715 44.3271 24.1523 44.3281 23.1197Z" fill="#EB001B"/>
<path d="M58.0125 23.1197C58.0126 24.3991 57.6512 25.6528 56.9698 26.7373C56.2884 27.8219 55.3145 28.6936 54.1592 29.2528C53.004 29.812 51.7141 30.0361 50.4371 29.8996C49.16 29.7631 47.9473 29.2713 46.9375 28.4807C47.7522 27.8425 48.4109 27.0284 48.8637 26.0997C49.3166 25.1711 49.552 24.1521 49.552 23.1197C49.552 22.0872 49.3166 21.0682 48.8637 20.1396C48.4109 19.2109 47.7522 18.3968 46.9375 17.7587C47.9473 16.968 49.16 16.4763 50.4371 16.3397C51.7141 16.2032 53.004 16.4273 54.1592 16.9865C55.3145 17.5457 56.2884 18.4174 56.9698 19.502C57.6512 20.5865 58.0126 21.8402 58.0125 23.1197Z" fill="#F79E1B"/>
<path d="M57.3679 27.3272V27.1077H57.4568V27.0629H57.2305V27.1077H57.3194V27.3272H57.3679ZM57.8072 27.3272V27.0625H57.7379L57.6581 27.2445L57.5783 27.0625H57.5089V27.3272H57.5579V27.1275L57.6327 27.2996H57.6835L57.7583 27.1271V27.3272H57.8072Z" fill="#F79E1B"/>
</g>
<g clip-path="url(#clip2)">
<path fill-rule="evenodd" clip-rule="evenodd" d="M43.6091 0.617188H37.2734C37.6141 2.67997 39.6578 4.60967 41.906 4.60967H46.9473C47.0154 4.41004 47.0154 4.14388 47.0154 3.94426C47.0154 2.0811 45.5166 0.617188 43.6091 0.617188Z" fill="url(#paint0_linear)"/>
<path fill-rule="evenodd" clip-rule="evenodd" d="M37.8164 4.94141V9.93201H40.8821V7.27035H43.6071C45.1059 7.27035 46.4002 6.27223 46.809 4.94141H37.8164Z" fill="#4DB45F"/>
<path fill-rule="evenodd" clip-rule="evenodd" d="M26.918 0.617188V9.93298H29.643C29.643 9.93298 30.3243 9.93298 30.6649 9.26756C32.5043 5.67433 33.0493 4.60967 33.0493 4.60967H33.3899V9.93298H36.4556V0.617188H33.7305C33.7305 0.617188 33.0493 0.683729 32.7087 1.2826C31.1418 4.3435 30.3243 5.9405 30.3243 5.9405H29.9836V0.617188H26.918Z" fill="#4DB45F"/>
<path fill-rule="evenodd" clip-rule="evenodd" d="M13.9727 9.93298V0.617188H17.0383C17.0383 0.617188 17.9239 0.617188 18.4008 1.94801C19.6271 5.47471 19.7633 5.9405 19.7633 5.9405C19.7633 5.9405 20.0358 5.07546 21.1259 1.94801C21.6027 0.617188 22.4884 0.617188 22.4884 0.617188H25.554V9.93298H22.4884V4.94238H22.1477L20.4446 9.93298H19.0821L17.3789 4.94238H17.0383V9.93298H13.9727Z" fill="#4DB45F"/>
</g>
<defs>
<linearGradient id="paint0_linear" x1="37.2559" y1="2.61343" x2="47.0154" y2="2.61343" gradientUnits="userSpaceOnUse">
<stop stop-color="#00B4E6"/>
<stop offset="1" stop-color="#088CCB"/>
</linearGradient>
<clipPath id="clip0">
<rect width="30.2763" height="10.0921" fill="white" transform="translate(0 17.6953)"/>
</clipPath>
<clipPath id="clip1">
<rect width="23.2895" height="16.3026" fill="white" transform="translate(35.7109 16.1445)"/>
</clipPath>
<clipPath id="clip2">
<rect width="33.3816" height="9.31579" fill="white" transform="translate(13.9727 0.617188)"/>
</clipPath>
</defs>
</svg>
