<svg width="1363" height="327" viewBox="0 0 1363 327" fill="none" xmlns="http://www.w3.org/2000/svg">
<g clip-path="url(#clip0)">
<path d="M653.852 212.494C656.847 211.198 659.164 209.591 661.565 208.152C669.053 203.66 676.507 199.117 683.994 194.617C694.066 188.568 704.164 182.545 714.245 176.505C719.54 173.334 724.752 170.013 730.148 167.018C736.389 163.546 742.371 159.631 748.67 156.284C753.581 153.674 758.358 150.83 763.201 148.128C769.492 144.623 775.993 141.418 782.049 137.52C786.709 134.517 791.143 131.187 796.221 128.861C802.186 126.126 808.435 124.888 814.894 125.841C820.264 126.636 824.38 129.572 827.66 134.082C830.412 137.863 831.767 142.171 833.608 146.312C834.143 147.517 834.143 148.989 834.219 150.353C834.478 154.946 834.804 159.606 834.152 164.132C833.257 170.322 833.323 176.68 831.123 182.67C830.764 183.641 830.889 184.787 830.789 185.858C832.002 185.615 832.738 184.72 833.641 183.967C835.992 182.018 838.418 180.085 841.07 178.613C842.576 177.776 843.948 176.68 845.228 175.727C851.268 171.209 857.601 167.143 863.825 162.919C867.565 160.375 871.597 158.25 875.32 155.716C881.017 151.842 886.898 148.303 892.821 144.823C899.673 140.799 906.549 136.817 913.652 133.22C917.626 131.212 921.524 129.02 925.556 127.146C933.144 123.616 940.707 120.01 948.696 117.384C953.942 115.66 959.086 113.552 964.524 112.623C971.142 111.486 977.792 110.239 984.577 110.758C990.617 111.218 996.122 113.083 1000.53 117.417C1001.51 118.379 1002.81 118.254 1003.81 118.99C1007.59 121.784 1009.71 125.423 1009.98 130.192C1010.39 137.16 1009.36 143.886 1007.3 150.546C1005.58 156.1 1003.26 161.388 1000.99 166.717C999.016 171.368 996.774 175.902 994.348 180.311C992.391 183.858 990.257 187.372 988.367 190.944C985.648 196.089 983.088 201.343 980.478 206.555C976.872 213.749 972.907 220.776 969.519 228.071C966.666 234.212 963.412 240.177 960.927 246.493C959.973 248.927 958.576 251.178 957.305 253.671C958.534 253.955 959.204 253.127 959.747 252.675C963.161 249.822 967.076 247.739 970.69 245.221C973.543 243.23 976.437 241.314 979.315 239.365C988.542 233.133 997.803 226.967 1007.07 220.801C1011.82 217.639 1016.72 214.728 1021.39 211.423C1026.81 207.592 1032.37 203.928 1038.09 200.573C1042.48 197.996 1046.54 194.951 1050.98 192.433C1055.39 189.94 1059.41 186.686 1063.81 184.067C1068.24 181.432 1072.49 178.512 1076.87 175.785C1082.24 172.43 1087.48 168.833 1092.93 165.579C1096.5 163.437 1100.06 161.237 1103.6 159.062C1107.47 156.678 1111.44 154.436 1115.18 151.8C1120.87 147.785 1126.68 143.895 1132.63 140.289C1141.56 134.885 1150.62 129.656 1160.09 125.247C1169.52 120.855 1179.13 116.823 1189.3 114.43C1198.18 112.347 1207.27 111.268 1216.3 112.883C1222.5 113.995 1228.39 116.447 1232.82 121.324C1235.98 124.796 1238.1 128.786 1238.29 133.563C1238.42 136.834 1239.29 140.005 1239.22 143.309C1239.06 150.269 1238.19 157.121 1236.91 163.956C1236.41 166.591 1236.74 169.369 1235.77 171.929C1234.62 174.94 1235.32 178.287 1234.08 181.24C1233.19 183.356 1233.4 185.598 1232.98 187.765C1231.82 193.747 1230.74 199.753 1229.77 205.777C1229.21 209.248 1228.66 212.804 1227.65 216.075C1226.42 220.065 1226.08 224.19 1224.88 228.147C1223.67 232.112 1222.94 236.22 1221.97 240.26C1221.72 241.314 1221.36 242.369 1221 243.356C1219.97 246.234 1219.43 249.228 1218.58 252.14C1217.55 255.653 1216.06 259.033 1215.11 262.564C1214.4 265.207 1213.56 267.834 1212.65 270.369C1211.25 274.259 1210.02 278.216 1208.47 282.064C1207.33 284.883 1206.18 287.703 1205.14 290.572C1204.17 293.258 1202.97 295.901 1201.86 298.553C1200.57 301.649 1199.49 304.853 1197.79 307.789C1196.46 310.073 1195.16 312.357 1193.58 314.498C1191.82 316.883 1189.71 318.874 1187.32 320.539C1184.21 322.722 1179.48 322.814 1176.44 320.12C1174.05 318.004 1172.05 315.695 1170.67 312.85C1169.98 311.42 1168.67 310.525 1167.87 309.119C1166.54 306.794 1165.73 304.451 1165.46 301.833C1165.14 298.587 1164.3 295.357 1164.73 292.078C1165.39 286.983 1165.29 281.805 1166.87 276.785C1167.64 274.351 1167.71 271.674 1168.47 269.173C1169.45 265.968 1170.3 262.723 1171.27 259.518C1172.25 256.289 1173.31 253.077 1174.33 249.864C1175.4 246.476 1176.47 243.088 1177.54 239.691C1178.56 236.479 1179.54 233.25 1180.61 230.046C1181.98 225.946 1183.09 221.772 1184.48 217.673C1185.5 214.669 1186.26 211.557 1187.26 208.529C1188.65 204.296 1189.95 200.029 1191.2 195.763C1192.41 191.588 1193.78 187.455 1194.93 183.256C1196.33 178.186 1198.12 173.225 1199.66 168.197C1200.63 165.027 1201.39 161.781 1202.36 158.61C1203.21 155.841 1204.36 153.164 1205.17 150.378C1206.49 145.844 1207.89 141.301 1206.55 136.474C1205.94 134.291 1203.91 132.601 1201.61 132.325C1197.26 131.806 1193.48 133.496 1189.67 135.178C1180.7 139.143 1171.99 143.669 1163.47 148.504C1153.88 153.95 1144.46 159.681 1135.13 165.57C1122.63 173.459 1110.38 181.708 1098.23 190.124C1087.22 197.754 1076.35 205.592 1065.63 213.615C1054.66 221.83 1043.75 230.146 1032.99 238.637C1027.81 242.728 1022.62 246.802 1017.53 251.019C1013.08 254.716 1008.52 258.297 1003.99 261.919C999.334 265.659 994.758 269.499 990.14 273.288C986.928 275.924 983.699 278.525 980.528 281.219C976.337 284.775 972.062 288.28 967.586 291.467C963.353 294.479 958.936 297.223 954.477 299.925C948.604 303.481 942.522 306.459 935.947 308.09C929.647 309.655 923.08 310.19 916.973 307.036C913.928 305.463 911.636 302.929 910.222 299.716C908.448 295.709 906.256 291.827 905.671 287.418C905.161 283.562 905.069 279.672 905.78 275.79C906.206 273.481 906.198 271.097 906.658 268.796C907.244 265.843 908.013 262.915 908.867 260.029C909.427 258.113 909.979 256.189 910.766 254.315C912.113 251.102 913.083 247.731 914.413 244.51C917.985 235.843 922.319 227.536 926.284 219.053C929.053 213.122 932.057 207.307 934.7 201.326C937.545 194.893 940.607 188.56 943.601 182.202C947.048 174.907 950.436 167.587 953.95 160.325C956.878 154.277 959.563 148.111 962.332 141.987C963.278 139.896 963.905 137.679 965.286 135.78C965.896 134.935 965.796 133.981 964.315 134.157C961.354 134.508 958.71 135.897 955.924 136.809C951.014 138.415 946.538 141 942.037 143.435C938.858 145.158 935.738 147.116 932.718 149.174C929.037 151.675 925.347 154.16 921.608 156.577C920.202 157.489 918.931 158.593 917.567 159.555C913.133 162.684 908.85 166.039 904.55 169.343C902.392 171 900.283 172.891 898.125 174.58C895.724 176.446 893.808 178.947 890.922 180.219C890.236 180.52 889.801 181.348 889.199 181.867C884.221 186.175 879.268 190.509 874.224 194.734C872.526 196.156 871.112 197.862 869.414 199.268C862.194 205.249 855.56 211.875 848.583 218.133C842.041 224.006 836.017 230.414 829.609 236.42C821.001 244.485 812.601 252.767 804.336 261.192C796.539 269.131 789.269 277.605 780.987 285.051C777.465 288.213 773.96 291.459 770.112 294.22C766.548 296.78 763.109 299.532 759.303 301.757C751.665 306.225 743.893 309.998 734.624 308.977C731.52 308.634 728.902 307.295 726.4 305.731C724.878 304.777 723.397 303.656 722.008 302.41C716.888 297.825 716.478 292.02 717.374 285.871C717.993 281.621 720.695 278.3 722.853 274.778C725.555 270.369 728.441 266.086 731.127 261.652C733.034 258.498 735.076 255.402 737 252.24C739.936 247.405 742.998 242.645 746.018 237.851C748.503 233.894 751.029 229.954 753.321 225.905C756.216 220.793 759.428 215.866 762.147 210.629C763.561 207.893 765.46 205.325 766.907 202.564C768.597 199.343 770.404 196.173 772.195 193.027C775.148 187.849 778.067 182.645 780.719 177.316C783.154 172.422 785.781 167.562 787.01 162.149C787.102 161.739 787.864 161.312 787.194 160.919C786.659 160.601 785.956 160.702 785.396 161.003C783.999 161.772 782.735 162.743 781.288 163.471C776.503 165.863 771.827 168.473 767.183 171.1C762.44 173.786 757.613 176.362 752.962 179.232C749.624 181.29 746.135 183.088 742.739 185.038C738.246 187.614 733.771 190.225 729.303 192.835C726.024 194.742 722.778 196.708 719.532 198.657C716.361 200.565 713.199 202.531 710.037 204.471C706.799 206.454 703.528 208.412 700.307 210.403C696.953 212.478 693.615 214.644 690.327 216.878C686.546 219.446 682.773 222.031 678.832 224.34C675.151 226.499 671.797 229.109 668.258 231.46C664.895 233.693 661.457 235.835 658.286 238.37C655.893 240.285 653.358 242.034 650.807 243.724C647.862 245.673 644.968 247.773 642.282 249.99C638.794 252.876 635.247 255.737 631.716 258.548C623.409 265.182 615.963 272.661 608.677 280.341C605.121 284.08 602.461 288.456 599.784 292.823C596.605 298.009 593.351 303.238 588.498 306.986C582.96 311.269 575.607 312.558 568.596 308.442C565.292 306.501 561.535 305.187 558.808 302.184C557.361 300.594 556.792 298.871 556.583 296.888C555.863 290.003 558.398 283.93 561.36 277.982C563.92 272.828 567.249 268.144 570.261 263.258C573.13 258.598 575.389 253.562 577.84 248.651C581.295 241.724 584.784 234.814 588.072 227.804C590.607 222.399 593.183 217.003 595.618 211.549C597.475 207.399 599.09 203.125 601.214 199.076C601.415 198.691 601.491 198.047 601.081 197.712C600.679 197.386 600.135 197.536 599.709 197.796C596.864 199.544 594.087 201.426 591.167 203.049C585.93 205.952 580.919 209.215 575.64 212.059C571.901 214.075 568.362 216.535 564.639 218.66C560.791 220.86 557.051 223.236 553.161 225.386C550.191 227.026 547.347 228.933 544.377 230.615C539.232 233.517 534.196 236.604 529.076 239.558C525.395 241.683 521.714 243.866 518.058 246.033C515.064 247.806 512.069 249.655 508.956 251.286C505.962 252.851 503.075 254.675 500.122 256.365C495.73 258.883 491.397 261.484 486.946 263.902C483.583 265.734 480.262 267.709 476.941 269.649C472.281 272.368 467.596 275.054 462.878 277.681C456.637 281.161 450.396 284.624 444.172 288.121C438.048 291.559 431.799 294.738 425.591 298.009C421.492 300.168 417.359 302.268 413.076 303.991C407.312 306.308 401.28 306.81 395.776 303.598C391.902 301.339 389.577 297.457 387.954 293.174C384.984 285.319 384.448 277.22 385.084 268.963C385.327 265.809 386.213 262.789 387.217 259.82C389.643 252.658 392.915 245.865 396.437 239.189C400.268 231.928 404.225 224.742 407.981 217.447C410.416 212.728 412.875 208.019 415.276 203.3C417.108 199.703 418.899 196.022 420.739 192.416C422.111 189.723 423.584 187.029 425.064 184.368C427.482 180.027 429.967 175.71 432.468 171.418C435.003 167.06 437.672 162.768 440.206 158.393C442.632 154.201 445.125 150.044 448.212 146.296C453.29 140.122 459.531 135.872 467.529 134.308C471.662 133.496 475.627 133.814 479.183 135.914C482.412 137.821 484.286 141.034 484.972 144.715C485.867 149.5 486.051 154.344 485.039 159.154C484.328 162.525 483.14 165.721 481.717 168.883C480.279 172.087 478.246 174.932 476.422 177.86C474.832 180.411 472.992 182.93 470.9 185.188C467.939 188.384 465.873 192.216 463.43 195.771C460.393 200.213 457.524 204.781 454.612 209.307C452.487 212.611 450.471 215.983 448.279 219.245C446.489 221.914 444.766 224.658 443.109 227.394C441.771 229.594 440.524 231.903 439.169 234.095C436.191 238.913 433.556 243.916 430.828 248.869C428.687 252.75 427.156 256.967 425.399 261.058C425.165 261.601 424.956 262.472 425.424 262.84C425.976 263.275 426.604 262.756 427.189 262.354C430.569 260.029 434.267 258.197 437.73 256.047C441.888 253.478 446.121 251.044 450.296 248.492C456.495 244.703 462.752 241.013 469.01 237.316C476.43 232.932 483.867 228.582 491.296 224.206C496.123 221.362 500.875 218.384 505.761 215.64C514.771 210.578 523.463 204.965 532.439 199.854C540.077 195.503 547.464 190.726 555.119 186.426C559.821 183.783 564.447 181.014 569.09 178.287C573.315 175.802 577.523 173.25 581.689 170.649C585.922 168.005 590.213 165.445 594.505 162.885C598.529 160.484 602.553 158.1 606.627 155.791C610.091 153.833 613.554 151.842 616.917 149.751C620.389 147.601 623.936 145.56 627.408 143.41C630.829 141.285 634.376 139.31 637.781 137.194C641.546 134.851 645.495 132.718 649.092 130.083C655.216 125.599 665.865 126.904 671.186 131.689C676.323 136.299 679.535 141.895 682.045 148.161C683.777 152.47 682.697 156.393 681.108 160.292C678.33 167.085 674.315 173.167 669.881 178.981C666.752 183.08 663.565 187.171 661.339 191.847C659.123 196.507 656.73 201.1 655.567 206.228C655.132 208.211 654.58 210.202 653.852 212.494Z" fill="#364D65"/>
<path d="M236.314 248.98C239.661 246.429 242.647 243.994 245.793 241.811C248.503 239.937 251.122 237.904 253.757 235.955C256.744 233.754 259.588 231.27 262.583 229.053C266.59 226.091 270.489 222.979 274.605 220.143C276.445 218.88 278.177 217.332 279.975 215.952C284.434 212.522 288.96 209.176 293.444 205.779C297.083 203.019 300.698 200.216 304.337 197.464C308.787 194.101 313.263 190.771 317.714 187.416C322.206 184.028 326.631 180.548 331.191 177.26C334.554 174.842 337.842 172.316 341.163 169.831C345.814 166.343 350.541 162.955 355.217 159.483C359.091 156.605 362.922 153.685 366.787 150.791C371.347 147.369 375.898 143.931 380.49 140.559C385.435 136.929 390.379 133.281 395.432 129.801C397.783 128.186 399.774 126.062 402.459 124.89C403.404 124.48 403.915 124.514 404.525 125.284C407.144 128.58 409.796 131.834 412.414 135.122C413.803 136.862 412.373 138.142 411.226 138.619C409.177 139.472 407.88 141.162 406.19 142.375C402.434 145.06 399.088 148.315 395.348 151.017C391.985 153.451 388.906 156.229 385.56 158.688C383.126 160.478 380.817 162.587 378.449 164.544C376.483 166.176 374.475 167.798 372.518 169.438C369.766 171.747 366.963 174.014 364.344 176.499C361.433 179.268 358.095 181.569 355.092 184.246C352.314 186.73 349.504 189.215 346.642 191.574C340.904 196.317 335.39 201.329 329.76 206.181C325.377 209.954 321.11 213.944 316.818 217.859C313.296 221.08 310.017 224.586 306.336 227.606C302.237 230.969 298.832 235.043 294.783 238.389C288.902 243.241 283.874 248.938 278.286 254.058C260.583 270.271 244.103 287.722 227.12 304.671C223.515 308.269 219.8 311.757 215.734 314.836C210.121 319.094 204.315 323.001 197.514 325.234C191.934 327.075 185.358 325.51 182.02 320.867C179.778 317.747 178.833 313.974 178.515 310.126C177.904 302.756 177.913 295.352 178.523 287.998C179.042 281.699 179.628 275.408 180.238 269.117C180.799 263.386 181.159 257.63 181.878 251.925C182.773 244.898 182.941 237.803 184.011 230.793C184.48 227.714 184.488 224.56 184.823 221.448C185.659 213.643 185.977 205.771 186.898 197.974C187.391 193.816 187.492 189.667 187.851 185.517C187.893 185.015 188.127 184.605 187.558 184.321C187.056 184.07 186.672 184.279 186.22 184.547C182.673 186.672 179.067 188.705 175.545 190.888C172.483 192.787 169.589 194.946 166.502 196.794C163.055 198.852 159.893 201.337 156.655 203.654C152.899 206.331 149.101 209.017 145.504 211.945C142.642 214.27 139.631 216.421 136.728 218.688C134.695 220.269 132.729 221.984 130.663 223.523C126.58 226.568 122.673 229.848 118.758 233.068C114.726 236.381 110.635 239.677 106.803 243.266C103.616 246.253 99.8849 248.654 96.7143 251.649C93.2843 254.886 89.6452 257.89 86.1734 261.077C78.4015 268.196 70.4707 275.14 62.6822 282.243C53.7559 290.391 44.7376 298.455 36.2295 307.064C35.3595 307.951 34.3556 308.796 33.3852 309.624C31.7371 311.029 29.7711 311.155 27.7383 311.54C24.0657 312.226 20.4684 313.388 16.9213 314.601C13.2152 315.865 9.60121 317.429 5.95372 318.86C4.26383 319.521 2.55721 320.123 0.892412 320.834C0.507585 321.001 0.290074 321.135 0.089295 320.709C-0.0278262 320.466 -0.103118 320.223 0.147856 319.972C4.61519 315.463 9.0658 310.937 13.5415 306.436C19.933 300.012 26.6423 293.871 32.6239 287.095C36.5223 282.678 40.7638 278.62 44.7961 274.354C48.2512 270.698 51.7565 267.059 55.5127 263.662C58.6666 260.818 61.7787 257.84 64.439 254.543C68.7056 249.248 73.725 244.739 78.4768 239.945C84.1321 234.24 89.9212 228.651 95.3925 222.77C99.3495 218.52 103.298 214.254 107.322 210.071C111.363 205.871 115.562 201.831 119.67 197.689C122.23 195.113 124.614 192.352 127.124 189.75C131.315 185.392 135.506 181 139.84 176.758C145.428 171.279 151.1 165.849 156.337 160.035C159.734 156.254 163.273 152.623 166.769 148.95C170.241 145.311 173.956 141.898 177.419 138.251C179.427 136.134 181.677 134.26 183.376 131.775C184.614 129.968 186.463 128.479 188.052 126.865C192.009 122.816 195.941 118.733 200.049 114.843C202.165 112.835 204.725 111.313 207.377 110.058C212.857 107.456 218.696 106.988 224.669 107.314C231.939 107.707 238.531 110.284 244.772 113.747C249.825 116.55 254.543 119.896 259.019 123.602C263.135 127.007 264.482 131.114 263.562 136.243C262.583 141.697 260.676 146.867 258.927 152.096C257.856 155.292 256.903 158.529 255.756 161.7C254.694 164.645 253.28 167.472 252.31 170.442C250.319 176.583 247.608 182.447 245.609 188.588C244.672 191.465 243.383 194.31 242.522 197.221C241.351 201.153 240.614 205.235 239.979 209.301C239.636 211.468 238.866 213.518 238.439 215.668C237.979 218.027 237.703 220.444 237.301 222.795C236.699 226.317 236.013 229.889 236.097 233.529C236.18 237.051 235.009 240.514 235.553 244.069C235.812 245.584 236.038 247.123 236.314 248.98Z" fill="#364D65"/>
<path d="M1295.99 250.425C1274.74 250.425 1253.49 250.425 1232.24 250.425C1229.71 250.425 1229.75 250.425 1230.26 247.89C1231.45 241.993 1233.16 236.212 1234.38 230.331C1235.49 224.968 1237.19 219.756 1237.99 214.318C1238.31 212.16 1239.23 210.085 1239.98 208.002C1240.23 207.333 1240.97 207.09 1241.68 207.032C1242.23 206.99 1242.8 207.023 1243.36 207.023C1282.1 207.023 1320.84 207.049 1359.58 206.965C1361.82 206.957 1362.2 207.659 1362.19 209.692C1362.1 222.442 1362.1 235.191 1362.19 247.941C1362.21 249.89 1361.84 250.484 1359.75 250.475C1338.5 250.392 1317.25 250.425 1295.99 250.425Z" fill="#364D65"/>
<path d="M1098.91 250.427C1077.72 250.427 1056.53 250.427 1035.34 250.411C1034.69 250.411 1033.71 250.829 1033.46 250.068C1033.18 249.214 1034.16 248.654 1034.74 248.236C1045.97 240.188 1056.52 231.261 1067.41 222.787C1073.74 217.859 1080 212.823 1086.31 207.862C1087.12 207.226 1088.08 206.992 1089.19 206.992C1118.12 207.026 1147.04 207.017 1175.97 207.026C1178.27 207.026 1178.27 207.193 1177.53 209.368C1176.48 212.455 1175.67 215.617 1174.72 218.738C1173.45 222.87 1171.96 226.945 1170.86 231.128C1169.85 235.009 1168.3 238.724 1167.59 242.697C1167.21 244.797 1166.26 246.788 1165.59 248.838C1165.11 250.294 1164.05 250.461 1162.7 250.461C1141.43 250.419 1120.17 250.427 1098.91 250.427Z" fill="#364D65"/>
<path d="M526.436 75.5814C505.931 76.6104 488.74 58.6824 488.639 38.7635C488.539 17.4307 505.346 0.448125 526.344 0.464856C547.175 0.473222 563.471 17.1379 564.191 37.3078C564.935 58.3729 546.597 76.5602 526.436 75.5814Z" fill="#364D65"/>
</g>
<defs>
<clipPath id="clip0">
<rect width="1362.2" height="325.538" fill="white" transform="translate(0 0.464844)"/>
</clipPath>
</defs>
</svg>
