<svg width="92" height="18" viewBox="0 0 92 18" fill="none" xmlns="http://www.w3.org/2000/svg">
<g style="mix-blend-mode:luminosity" opacity="0.6">
<path fill-rule="evenodd" clip-rule="evenodd" d="M0 9C0 4.03333 4.02222 0 8.98889 0V3.25556C5.82222 3.25556 3.25556 5.83333 3.25556 9C3.25556 12.1778 5.83333 14.7444 9 14.7444C12.1556 14.7444 14.7444 12.2 14.7444 8.97778H18C18 13.9667 13.9778 18 9 18C4.02222 18 0 13.9667 0 9Z" fill="white"/>
<path d="M5.03516 9.00061C5.03516 6.80061 6.82404 5.01172 9.02404 5.01172C11.224 5.01172 13.0129 6.80061 13.0129 9.00061C13.0129 11.2117 11.224 12.9895 9.02404 12.9895C6.82404 12.9895 5.03516 11.2006 5.03516 9.00061Z" fill="white"/>
<path d="M11.7891 3.94123C11.7891 2.67457 12.8113 1.65234 14.078 1.65234C15.3446 1.65234 16.3668 2.67457 16.3668 3.94123C16.3668 5.2079 15.3446 6.23012 14.078 6.23012C12.8113 6.23012 11.7891 5.2079 11.7891 3.94123Z" fill="white"/>
<path d="M82.0547 6.21033L81.7769 7.577C81.1213 10.5437 80.888 11.4992 80.3214 14.4548L80.1991 14.5659L78.3991 14.6214L78.3102 14.4992L79.0325 11.4548L79.2436 10.4548C78.4658 10.4326 77.6991 10.4214 76.9214 10.4214C76.3214 10.4214 75.8547 10.4326 75.388 10.4437C75.1213 11.6437 74.8991 12.6881 74.5658 14.4548L74.4436 14.5548L72.6436 14.6103L72.5547 14.4881L73.2769 11.4437L73.5658 10.1214C74.0436 8.03255 74.1325 7.577 74.4102 5.65477L74.5325 5.53255C75.3547 5.42144 75.5547 5.38811 76.3991 5.21033L76.488 5.33255L76.2991 6.21033L76.0213 7.577L75.7325 8.86589C76.388 8.877 77.0325 8.88811 77.688 8.88811C78.3769 8.88811 78.8325 8.877 79.5991 8.85477C79.8436 7.72144 79.9436 7.11033 80.1658 5.64366L80.288 5.52144C81.1214 5.41033 81.3102 5.377 82.1658 5.19922L82.2547 5.32144L82.0547 6.21033Z" fill="white"/>
<path d="M60.3527 10.1813C60.4749 9.67022 60.5638 9.148 60.5638 8.65911C60.5638 6.85911 59.4082 6.55911 58.7527 6.55911C55.9638 6.55911 55.6082 10.8924 55.6082 11.548C55.6082 12.9702 56.4638 13.5924 57.4194 13.5924C59.3194 13.5924 60.0305 11.6369 60.3527 10.1813ZM62.1971 10.7369C61.8082 12.2702 60.7194 14.9147 57.386 14.9147C55.0194 14.9147 53.7305 13.6924 53.7305 11.2702C53.7305 10.9591 53.7527 10.6147 53.8082 10.248C53.8194 10.1591 53.8305 10.0702 53.8416 9.98133C54.486 5.98134 56.2194 2.18134 60.0305 2.148C60.5416 2.13689 61.5638 2.09245 62.2638 1.92578L61.9971 3.51467C61.2971 3.69245 60.1749 3.79245 59.5194 3.79245C58.7194 3.80356 58.1638 4.10356 57.7749 4.48134C57.586 4.65911 57.4305 4.87023 57.3194 5.048C57.2082 5.22578 57.1194 5.39245 57.0638 5.52578C57.5749 5.37022 58.1305 5.27022 58.7527 5.27022C61.0749 5.27022 62.4638 6.57022 62.4638 8.85911C62.4638 9.47022 62.3527 10.1147 62.1971 10.7369Z" fill="white"/>
<path d="M85.1054 9.09384C85.5276 8.72717 85.7721 8.49384 86.3609 7.92717C86.9721 7.32717 88.4832 5.77161 88.7609 5.47161L88.9609 5.37161H90.9943L91.0498 5.52717C90.872 5.68273 90.7832 5.7605 90.0721 6.3605C89.7943 6.59384 89.6165 6.77161 89.2832 7.07161L86.9832 9.19384L89.7276 14.4161L89.6165 14.5605L87.6498 14.6161L87.5054 14.5049C87.0498 13.4049 86.9276 13.1605 86.2832 11.8716L85.0387 9.3605C84.6498 11.1049 84.4054 12.1938 83.9721 14.4716L83.8498 14.5827L82.0498 14.6383L81.9609 14.5161L82.6832 11.4716L82.9609 10.1494C83.4387 8.0605 83.5276 7.60495 83.8054 5.68273L83.9276 5.5605C84.7609 5.44939 84.9498 5.41606 85.8054 5.23828L85.8943 5.3605L85.7054 6.23828L85.4387 7.58273L85.1054 9.09384Z" fill="white"/>
<path d="M69.4648 12.3167C69.2759 12.4722 69.0759 12.65 68.8759 12.7722C68.4203 13.0611 67.8092 13.1833 67.3314 13.1833C65.7092 13.1833 65.2536 11.8167 65.2536 10.9722C65.2536 10.8833 65.287 8.59444 67.1536 7.32778C68.1981 6.61667 69.3536 6.58333 69.9425 6.58333C70.2092 6.58333 70.4759 6.59444 70.7425 6.59444L69.4648 12.3167ZM72.8648 5.40556L72.7759 5.26111L70.3203 5.25C68.687 5.25 66.3981 5.35 64.7425 7.29444C63.9981 8.18333 63.3203 9.70556 63.3203 11.1056C63.3203 13.3167 64.7981 14.5944 66.6092 14.5944C68.1203 14.5944 68.8981 13.9389 69.1981 13.6944L69.0759 14.4056L69.1648 14.5278L70.8314 14.4944L70.9536 14.3722C71.3092 12.2611 71.4314 11.5833 72.0536 8.86111L72.8648 5.40556Z" fill="white"/>
<path d="M26.0485 14.8526C24.1262 14.8526 21.3485 14.2415 22.3596 9.79705C22.7373 8.13038 23.8929 4.58594 28.6373 4.58594C33.2485 4.58594 32.5596 8.36371 32.2818 9.69705C31.4262 13.4637 29.1262 14.8526 26.0485 14.8526ZM26.6818 12.8859C28.0373 12.8859 28.6707 11.4748 29.0818 9.66372C29.3707 8.38594 29.6818 6.50816 28.0485 6.50816C26.6596 6.50816 26.0373 7.84149 25.6373 9.66372C25.2485 11.3526 25.1596 12.8859 26.6818 12.8859Z" fill="white"/>
<path d="M37.3306 14.6329C36.4418 14.6329 34.9751 14.6329 34.364 14.6551L34.264 14.544C34.4306 13.9551 34.8529 12.3551 35.2862 10.4107C35.6418 8.8329 35.9529 7.44401 36.0751 6.81068C35.3306 6.8329 34.1862 6.8329 33.6195 6.84401L33.5195 6.71068C33.664 6.2329 33.8751 5.39957 34.0084 4.89957L34.1751 4.79957C34.6751 4.82179 36.5529 4.8329 38.0751 4.8329C39.9084 4.8329 41.6973 4.79957 42.0751 4.77734L42.1973 4.87734C42.064 5.32179 41.8195 6.2329 41.6973 6.68845L41.5195 6.79957C40.7862 6.78845 40.2306 6.78846 39.164 6.78846C39.0751 7.18845 38.7862 8.37734 38.3084 10.4885C37.9529 12.0885 37.6529 13.544 37.4862 14.4773L37.3306 14.6329Z" fill="white"/>
<path d="M47.6316 7.0329C47.0316 7.0329 46.3649 7.05512 46.0649 7.05512C45.976 7.46623 45.6094 8.98845 45.276 10.4662C44.8872 12.2107 44.5316 13.844 44.3983 14.5218L44.2205 14.6329C43.3094 14.6329 42.1427 14.6329 41.2094 14.6551L41.1094 14.544C41.2983 13.7773 41.7872 11.7107 42.2538 9.64401C42.7205 7.56623 43.1316 5.5329 43.2538 4.95512L43.4094 4.82179C44.4094 4.82179 45.4205 4.85512 47.9094 4.85512C49.8538 4.85512 51.7427 4.79957 52.7427 4.77734L52.8316 4.88845C52.6983 5.38845 52.1427 7.77734 51.6094 10.144C51.176 12.0551 50.776 13.9551 50.676 14.4996L50.5427 14.6107C49.7427 14.6107 48.2872 14.6107 47.5205 14.6329L47.4427 14.4996C47.6094 13.8551 47.9649 12.3551 48.3872 10.4996C48.7094 9.08845 49.0205 7.58845 49.1538 7.0329C48.8427 7.05512 48.1872 7.0329 47.6316 7.0329Z" fill="white"/>
</g>
</svg>
