<svg xmlns="http://www.w3.org/2000/svg" xmlns:xlink="http://www.w3.org/1999/xlink" width="496" height="158" fill="#2151a1"><g transform="matrix(1.44 0 0 1.44 -73.5 -151)"><circle cx="106" cy="160" r="55" fill="#fff"/><path d="M137 119c-8.5-6.4-19-10.2-30.6-10.2a51 51 0 0 0-41 81.3 106 106 0 0 0 71.7-71.1" fill="#eb1933"/><path d="M149 133c4.3 14.4-.1 29.5-13 39.4-15.4 11.3-38 11.4-69 21a51 51 0 0 0 82-60.5"/><path id="A" d="M202 144c8.6 0 15.3 7 15.3 16 0 9-6.4 16-14.8 16-9.7-.2-15.6-7-15.7-15.6 0-9 7-16.3 15.3-16.3m1 39.8c6.2 0 12-2.4 16.3-6.7a24 24 0 0 0 6.8-17c0-13.6-10.5-24.2-23.8-24.2-11 0-20 7.2-23 17.8a54 54 0 0 0-1 11v33.8c0 .6.5 1 1 1h6c.6 0 1-.5 1-1v-21.3c4.3 4.2 10 6.4 15.2 6.6"/><path d="M257 158l-6-.3c-3.5 0-6.7.6-10 1.8v-.3c.7-7 6.6-13 13.8-14l2-.1c6.8 0 13.3 5 15.3 12h0c-5 1.5-9.5 1.4-15.2 1zm23 .1c-2-14.8-14.3-21.3-23-21-17.7.4-25 15.5-23.4 27.3C235 176.5 245 185 257 185c1 0 2-.1 3-.2 6.4-.8 12-3.5 16.2-8.7.6-.7.4-1.4-.2-1.8-1.8-1-5.5-2.8-5.5-2.8-1-.6-1.5-.2-2 .2-7.5 9-22 6.3-26.4-4.7v-.2c4.5-2 8.5-1.8 13.4-1 5 .7 9.2 1 13.6.3 7.3-1.4 10.2-3.5 10.2-3.5 1-.7 1-1.2 1-2.2M340 177c5.2 4.8 11 7.5 18.3 7.5h.2c12.8-.1 18.5-7 18.5-14 0-9.5-9-12-11.7-12.7-3-.6-6.5-1.2-9.4-2-1.5-.4-6.3-2-6.3-5.6 0-4 4.4-6 8.5-6 3.5 0 6.3.6 10 3.5.8.6 1.6.6 2.3.1l4-3.6c.7-.7.5-1.3-.2-2-5-4-9.7-5.5-16.4-5.5h0c-9.6 0-16.8 6.2-16.8 14.3 0 6.5 5.3 11 15 13l6 1.2c4 .7 6.2 2.8 6 5.8-3.3 9.5-16.3 6.2-21.8.8h-.1c-.7-.6-1-.6-1.8-.1l-4.8 4c-.5.6-.3 1 .2 1.6M394 139a1 1 0 0 0-1-1h-6a1 1 0 0 0-1 1v43a1 1 0 0 0 1 1h6a1 1 0 0 0 1-1v-43"/><circle cx="390" cy="128" r="5.5"/><use xlink:href="#A" x="108"/></g></svg>