<svg width="81" height="24" viewBox="0 0 81 24" fill="none" xmlns="http://www.w3.org/2000/svg">
<g style="mix-blend-mode:luminosity" opacity="0.6">
<path d="M16.4901 0.285156L8.24609 7.99171H16.4901V23.4041L24.7349 15.7161V0.285156H16.4901Z" fill="white"/>
<path d="M8.24478 23.4041L16.4896 15.6976H8.24478V0.285156L0 7.97317V23.4041H8.24478Z" fill="white"/>
<path d="M32.9766 19.5498H37.3046V7.60486H43.8998V19.5498H48.2278V4.13739H32.9766V19.5498ZM75.0208 9.91216H71.3229V7.60486H79.5574V4.13739H66.9949V19.5505C66.9949 19.5505 73.1693 19.5505 75.2272 19.5505C78.5277 19.5505 81.0006 18.0038 81.0006 14.7313C81.0006 11.4526 78.527 9.91216 75.0208 9.91216ZM74.6088 16.2746H71.3236V13.195H74.6088C75.6296 13.195 76.6637 13.5712 76.6637 14.7306C76.6637 15.8901 75.6296 16.2746 74.6088 16.2746ZM58.8221 16.2656C55.9335 16.2656 54.309 14.2858 54.309 11.8385C54.309 9.87371 55.4914 7.40715 58.7398 7.40715C60.7676 7.40715 62.0756 8.56595 62.5398 9.10553L65.172 6.64515C63.5842 4.874 61.2002 3.74609 58.5342 3.74609C53.753 3.74609 49.9802 7.05361 49.9802 11.8378C49.9802 16.3068 53.753 19.9294 58.5342 19.9294C61.3963 19.9294 63.933 18.6299 65.5091 16.6288L62.86 14.1526C62.0227 15.3807 60.6552 16.2656 58.8221 16.2656Z" fill="white"/>
</g>
</svg>
