<svg width="80" height="31" viewBox="0 0 80 31" fill="none" xmlns="http://www.w3.org/2000/svg">
<g style="mix-blend-mode:luminosity" opacity="0.6">
<path fill-rule="evenodd" clip-rule="evenodd" d="M33.6804 23.2717C33.8645 23.2558 34.1328 23.24 34.3221 23.24C34.6535 23.24 35.7529 23.24 35.7529 24.242C35.7529 24.6745 35.5741 25.397 34.4642 25.397C34.117 25.397 33.7961 25.3495 33.6751 25.3284V23.2717H33.6804ZM32.5547 20.6031C32.9071 20.851 32.9071 21.1569 32.9071 21.3678V25.1966C32.9071 25.4076 32.9071 25.7134 32.5547 25.9613H34.401C34.8587 25.9613 36.6314 25.9138 36.6314 24.2526C36.6314 23.2453 35.9107 22.6705 34.6746 22.6705C34.4221 22.6705 33.9329 22.7126 33.6804 22.7232V21.2149H35.2742C35.5425 21.2149 35.8371 21.2254 36.0738 21.4839V20.582C35.9896 20.5979 35.8949 20.6031 35.8003 20.6031H32.5547Z" fill="white"/>
<path fill-rule="evenodd" clip-rule="evenodd" d="M39.5767 21.303L40.4078 23.4125H38.7561L39.5767 21.303ZM38.8665 20.6068C39.1769 20.7545 39.0717 21.0446 39.0401 21.1184L37.5147 24.9946C37.3726 25.3638 37.2201 25.7066 36.8203 25.965H38.2564C37.8987 25.7119 37.967 25.4007 38.0775 25.1265L38.5562 23.9241H40.6077L41.1863 25.3638C41.2547 25.5378 41.3126 25.8015 40.9549 25.965H42.5908C42.2173 25.7646 42.0648 25.4745 41.9385 25.1739L40.108 20.6016H38.8665V20.6068Z" fill="white"/>
<path fill-rule="evenodd" clip-rule="evenodd" d="M47.0426 22.7111V21.3663C47.0426 21.1131 47.0321 20.8442 46.6901 20.6016H48.163C47.8211 20.8494 47.8158 21.1131 47.8158 21.3663V25.195C47.8158 25.4482 47.8211 25.7119 48.163 25.9597H46.6901C47.0321 25.7119 47.0426 25.4482 47.0426 25.195V23.3281H44.1126V25.195C44.1126 25.4482 44.1231 25.7119 44.4651 25.9597H42.9922C43.3341 25.7119 43.3446 25.4482 43.3446 25.195V21.3663C43.3446 21.1131 43.3341 20.8442 42.9922 20.6016H44.4651C44.1231 20.8494 44.1126 21.1131 44.1126 21.3663V22.7111H47.0426Z" fill="white"/>
<path fill-rule="evenodd" clip-rule="evenodd" d="M50.7619 20.6068C50.4148 20.8547 50.4148 21.1606 50.4148 21.3715V25.2003C50.4148 25.4113 50.4148 25.7171 50.7619 25.965H49.2891C49.6415 25.7171 49.6415 25.4113 49.6415 25.2003V21.3715C49.6415 21.1606 49.6415 20.8494 49.2891 20.6068H50.7619ZM51.7509 21.5772C51.956 21.2977 52.0612 21.1342 52.0612 20.976C52.0612 20.7914 51.9139 20.6648 51.7877 20.6016H53.25L51.3984 23.0117L52.2769 24.1772C52.9712 25.1054 53.3552 25.58 54.018 25.9597L53.2027 25.9967C52.603 26.0283 52.2979 25.5642 51.9139 25.0315L50.562 23.1804L51.7509 21.5772Z" fill="white"/>
<path fill-rule="evenodd" clip-rule="evenodd" d="M20.1625 1.24989C25.7173 3.35413 29.6678 8.74922 29.6678 15.0725C29.6678 23.2311 23.0925 29.8497 14.9759 29.8497C6.85936 29.8497 0.289314 23.2363 0.289314 15.0725C0.289314 6.91394 6.86462 0.300606 14.9759 0.300606C15.8491 0.300606 16.7065 0.374439 17.5429 0.522106L18.0532 0.316428C17.0642 0.11075 16.0332 0 14.9812 0C6.70681 0 0 6.74518 0 15.0672C0 23.3893 6.71207 30.1397 14.9812 30.1397C23.2556 30.1397 29.9624 23.3893 29.9624 15.0672C29.9624 8.55937 25.8594 3.01134 20.1047 0.901819L20.1625 1.24989Z" fill="white"/>
<path fill-rule="evenodd" clip-rule="evenodd" d="M7.83158 17.8851C7.97886 17.7058 8.2787 17.4527 8.67848 17.2575C9.24658 16.9675 10.8667 16.7829 11.7662 16.7935C12.2975 16.7987 12.6552 17.0413 12.9025 17.2892C13.1497 17.5371 12.7236 17.574 12.5132 17.3947C12.2975 17.2206 12.0608 17.1573 11.8136 17.1573C11.5664 17.1573 11.3033 17.2523 11.1613 17.3578C11.0193 17.4685 10.9825 17.6109 10.63 17.7164C10.1987 17.8377 9.70423 17.4474 9.70423 17.4474C10.0514 18.1066 10.6511 18.0855 10.9825 18.0064C11.2244 17.9431 11.2981 17.8324 11.6558 17.8218C12.2239 17.8113 12.4711 18.1435 12.4711 18.1435C11.761 18.1066 10.5564 18.5549 9.98828 18.6762C9.27815 18.8344 8.60483 18.8555 8.60483 18.8555C9.06247 19.4251 9.74105 19.4251 10.2408 19.4251C10.7352 19.4251 12.3343 19.3091 13.2917 19.3882C14.4963 19.4884 15.4537 20.2794 15.4537 21.4608C15.4537 22.6368 14.6383 23.2802 14.6383 23.2802C15.6641 22.9638 16.0902 22.1411 16.0902 22.1411C16.6372 24.2611 15.501 25.9593 14.4595 26.6502C13.5968 27.2303 11.0035 27.8262 9.00987 26.8664C6.80583 25.8064 5.97471 24.7727 5.97471 24.7727C10.7668 25.163 13.1076 23.8287 13.1076 23.8287C8.77842 24.0818 5.75904 22.9796 3.80749 22.12C3.02897 20.8754 2.46086 19.5095 2.12421 18.0328V18.0381C5.70644 20.7488 8.88363 21.2129 8.88363 21.2129C5.01734 19.1034 3.08683 16.746 1.80859 14.3939C1.87698 13.0174 2.14525 11.7359 2.59237 10.5018L2.60289 10.4807C4.03894 14.32 5.61701 15.4645 5.61701 15.4645C4.05998 11.8994 4.0705 9.33631 4.21253 7.41138C4.8122 6.55702 5.49077 5.7976 6.26928 5.11201L6.2798 5.09618C5.67488 8.52415 6.40079 10.755 6.40079 10.755C6.40079 8.04423 7.91574 4.81667 9.12034 3.17125C9.88307 2.78626 10.6248 2.50148 11.4611 2.26416C10.3618 3.65644 9.87781 5.00653 9.87781 5.00653C12.1345 2.84427 15.8745 1.54692 16.4426 1.39926C17.0107 1.26214 18.6466 0.650377 19.1095 0.544901C19.5304 0.444699 19.7408 0.713662 19.7092 0.972078C19.6724 1.3096 19.5304 1.86335 19.5304 1.86335C20.7823 2.16923 21.3294 2.79154 21.3294 2.79154C21.282 2.62278 21.3031 2.33799 21.3031 2.33799C23.0337 3.88321 23.5019 4.62154 23.5545 6.02437C23.6018 7.4272 24.2172 7.64343 24.5697 7.83328C24.9274 8.02314 25.8006 8.52415 26.0846 8.76147C26.295 8.94078 26.2056 9.14118 26.0846 9.28358C25.9689 9.42597 25.9689 9.47343 25.9479 9.63692C25.8427 10.3647 25.5165 10.66 25.0694 10.8235C24.617 10.987 24.1226 10.7286 24.1226 10.7286C23.6281 11.2771 23.5334 10.9185 23.5071 10.7075C23.4861 10.4913 23.2231 10.66 23.0337 10.7286C22.8443 10.8024 22.7707 10.5387 22.7707 10.5387C21.8712 10.4174 21.4767 10.9554 21.4767 10.9554C22.2604 11.0608 22.655 11.5988 22.6865 11.8097C22.7233 12.0312 23.0758 11.8836 23.0758 11.8836C23.0758 11.8836 23.1073 11.8097 23.2546 11.7412C23.3967 11.6673 23.4335 11.7042 23.3966 11.8836C23.3598 12.0629 23.323 12.2053 23.323 12.2053L23.7175 12.4584C23.5702 13.4235 23.1494 13.3813 22.9337 13.2758C21.5713 12.5902 19.1358 12.4584 19.1358 12.4584C19.2779 12.2422 19.6198 11.9679 19.6198 11.9679C13.3759 11.9679 12.3186 12.7326 11.9977 13.1334C11.7768 13.413 11.9661 13.8454 11.9661 13.8454C11.2244 13.9878 9.33601 14.4677 8.61535 15.1322C7.921 15.7703 7.68955 17.2681 7.66325 17.8218C7.66851 17.9537 7.77897 17.9484 7.83158 17.8851ZM18.7098 1.69986C18.7782 1.62075 18.7098 1.55747 18.5204 1.67877C18.331 1.79479 17.4947 2.30107 16.9318 3.24508C16.8634 3.36638 16.9055 3.54042 17.2053 3.44021C17.5736 3.30837 17.947 3.24508 18.1154 3.21871C18.2837 3.19234 18.2837 3.07632 18.1627 3.03413C18.047 2.98667 18.0154 2.9392 18.068 2.74935C18.1154 2.55949 18.4468 2.01102 18.7098 1.69986ZM17.1475 4.2682C15.9166 5.27022 13.8914 7.66452 12.9393 9.91116C12.8656 10.0799 12.9393 10.1063 13.176 9.95862C13.4127 9.81623 14.1018 9.48398 14.4279 9.38905C14.4279 9.38905 14.0702 10.6337 13.9545 11.3193C13.8598 11.8836 14.328 11.8414 14.6173 11.7728C14.9066 11.7095 16.1112 11.6515 16.3216 11.6304C16.3216 11.6304 15.2117 11.3667 15.0907 10.9132C14.975 10.4649 15.2906 9.45761 15.5168 8.77202C15.5641 8.62435 15.4905 8.4134 15.259 8.50833C15.0223 8.60326 14.6909 8.67181 14.5226 8.77202C14.5226 8.77202 15.5641 6.19841 17.1738 4.34203L17.1475 4.2682L22.6655 5.41261C22.5445 6.35135 22.2026 6.26697 22.05 6.2195C21.8817 6.17204 21.8396 6.0982 21.3399 6.05601C21.1821 6.04019 20.4562 5.96109 20.8454 6.26697C21.4714 6.76798 22.0027 7.79109 22.0027 7.79109C22.0763 7.45884 21.908 6.9842 21.8133 6.81544C21.7186 6.64668 21.8396 6.59921 21.9501 6.62558C22.0711 6.64668 22.1395 6.69414 22.3551 6.81544C22.5655 6.93146 22.7076 6.91037 22.7549 6.62558C22.7917 6.37772 22.7812 5.87143 22.7339 5.41261C22.7286 5.38097 22.676 5.36515 22.6602 5.41261L17.1475 4.2682Z" fill="white"/>
<path fill-rule="evenodd" clip-rule="evenodd" d="M24.238 24.6051C23.6804 22.7329 22.1444 21.5357 21.2923 20.5021C20.9451 20.0801 20.4296 19.4842 20.4296 19.4842C20.9293 19.769 21.8762 19.9114 21.8762 19.9114C21.6131 19.6952 21.024 18.9832 20.7873 18.6931C20.1298 17.9021 18.9883 17.0108 18.1361 16.6258C16.4686 15.8664 14.7275 15.7662 14.496 15.724C14.2593 15.6765 13.7596 15.7715 14.0647 15.2915C14.375 14.8169 16.174 13.4141 16.174 13.4141C15.7953 13.4141 14.1383 13.5617 13.6386 13.6303C13.1441 13.7041 13.0284 13.5354 13.0021 13.2031C13.0021 13.2031 12.0027 14.1471 12.4814 14.627C12.555 14.7009 12.7654 14.722 13.0284 14.606C13.2862 14.4847 13.8069 14.3212 13.9963 14.2948C13.9963 14.2948 13.5702 14.9593 13.4755 15.2441C13.3809 15.5289 13.3598 15.6713 13.8069 15.8137C14.2593 15.956 16.5317 16.6733 17.9257 17.6226C19.3197 18.5718 20.7662 19.7901 21.8341 22.0262C22.8966 24.2675 22.3128 25.9657 22.1444 26.2716C22.9072 25.7811 23.6015 25.2221 24.2485 24.5892L24.238 24.6051Z" fill="white"/>
<path fill-rule="evenodd" clip-rule="evenodd" d="M27.3539 19.8532C25.9862 18.7351 23.5823 16.7364 20.6523 16.0508C20.6523 16.0508 24.8342 17.7331 26.3281 21.9627C26.7332 21.2929 27.0698 20.5968 27.3539 19.8532Z" fill="white"/>
<path fill-rule="evenodd" clip-rule="evenodd" d="M19.1453 27.7164C19.5924 26.6669 20.0869 24.1724 19.5661 22.2422C19.5661 22.2422 19.6608 26.7829 16.5625 28.2807C17.4357 28.1752 18.3299 27.9853 19.14 27.7164H19.1453Z" fill="white"/>
<path fill-rule="evenodd" clip-rule="evenodd" d="M28.2297 14.898C27.8299 14.7345 25.3523 14.0278 25.3523 14.0278C26.1835 13.9803 26.5149 13.3633 26.5149 13.3633C25.7363 13.5742 24.5475 13.6692 23.5586 13.5268C23.5586 13.5268 25.8521 14.5235 28.1403 16.7069V16.6858C28.2034 16.1584 28.235 15.6205 28.235 15.072C28.235 15.0087 28.235 14.9718 28.2297 14.898Z" fill="white"/>
<path fill-rule="evenodd" clip-rule="evenodd" d="M34.8745 7.51104H33.975V8.6871C33.975 9.14592 34.0854 9.37269 34.1643 9.47817H32.5547C32.6283 9.37269 32.7598 9.14592 32.7598 8.6871V3.84048C32.7598 3.38166 32.6283 3.16016 32.5547 3.05469H34.8745C36.5262 3.05469 37.5361 3.88267 37.5361 5.21167C37.5361 6.78326 36.2526 7.51104 34.8745 7.51104ZM34.5641 3.74555H33.975V6.79908H34.6746C35.4794 6.79908 36.2579 6.47738 36.2579 5.19585C36.2632 4.03561 35.4163 3.74555 34.5641 3.74555Z" fill="white"/>
<path fill-rule="evenodd" clip-rule="evenodd" d="M43.4814 4.65298L41.5193 9.27809C40.9459 10.6229 40.441 11.3982 39.289 11.3982C38.5946 11.3982 38.1001 11.0237 37.8477 10.7706L38.158 10.1114C38.4578 10.6282 38.8418 10.8444 39.3258 10.8444C39.9938 10.8444 40.4147 10.2748 40.846 9.2359L38.7735 4.65298C38.6367 4.3471 38.5052 4.09395 38.3526 3.97266H39.9781C39.9202 4.12032 39.9202 4.24689 40.0885 4.65298L41.4457 7.8278L42.7555 4.65298C42.8975 4.32073 42.9343 4.16779 42.8659 3.97266H43.8496C43.7023 4.16779 43.6076 4.36292 43.4814 4.65298Z" fill="white"/>
<path fill-rule="evenodd" clip-rule="evenodd" d="M47.4199 4.40375C46.1837 4.40375 45.6419 5.56925 45.6419 6.72421C45.6419 8.40128 46.6309 9.05523 47.4199 9.05523C48.1984 9.05523 48.6929 8.68079 49.0874 8.16923L49.2873 8.61223C48.8033 9.26091 48.0564 9.58261 47.2621 9.58261C45.4052 9.58261 44.4531 8.29053 44.4531 6.71894C44.4531 5.02078 45.5683 3.87109 47.3568 3.87109C48.0301 3.87109 48.4351 4.05568 48.7876 4.05568C49.0032 4.05568 49.1347 4.03458 49.2978 3.96075L48.8559 4.97859C48.5403 4.58306 48.0564 4.40375 47.4199 4.40375Z" fill="white"/>
<path fill-rule="evenodd" clip-rule="evenodd" d="M53.0371 4.40375C51.7957 4.40375 51.2539 5.56925 51.2539 6.72421C51.2539 8.40128 52.2481 9.05523 53.0371 9.05523C53.8103 9.05523 54.3101 8.68079 54.7046 8.16923L54.8992 8.61223C54.41 9.26091 53.6736 9.58261 52.8793 9.58261C51.0224 9.58261 50.0703 8.29053 50.0703 6.71894C50.0703 5.02078 51.1855 3.87109 52.974 3.87109C53.6473 3.87109 54.0523 4.05568 54.4048 4.05568C54.6204 4.05568 54.7519 4.03458 54.9097 3.96075L54.4679 4.97859C54.1523 4.58306 53.6736 4.40375 53.0371 4.40375Z" fill="white"/>
<path fill-rule="evenodd" clip-rule="evenodd" d="M57.4685 4.65298C57.4685 4.25744 57.5684 4.06758 57.6368 3.97266H56.1797C56.2428 4.06758 56.348 4.25744 56.348 4.65298V8.7929C56.348 9.18316 56.2428 9.37302 56.1797 9.46795H57.6368C57.5684 9.37302 57.4685 9.18316 57.4685 8.7929V4.65298Z" fill="white"/>
<path fill-rule="evenodd" clip-rule="evenodd" d="M61.37 9.47049C61.2175 9.35974 60.9755 9.09605 60.723 8.79544L58.7294 6.37477L60.5231 4.66079C60.9177 4.28107 61.0439 4.14923 61.2806 3.98047H59.7814C59.8919 4.13868 59.9287 4.32854 59.5921 4.66079L57.5195 6.63846L59.308 8.79544C59.6079 9.15933 59.6079 9.31227 59.4974 9.47049H61.37Z" fill="white"/>
<path fill-rule="evenodd" clip-rule="evenodd" d="M66.3193 9.46795C66.3877 9.37302 66.4771 9.18316 66.4771 8.7929V5.71828L64.0153 8.65051V8.7929C64.0153 9.18316 64.1205 9.37302 64.1889 9.46795H62.7266C62.7897 9.37302 62.8949 9.18316 62.8949 8.7929V4.65298C62.8949 4.25744 62.7897 4.06758 62.7266 3.97266H64.1889C64.1205 4.06758 64.0153 4.25744 64.0153 4.65298V7.7065L66.4771 4.77427V4.65298C66.4771 4.25744 66.3877 4.06758 66.3193 3.97266H67.7606C67.6922 4.06758 67.6028 4.25744 67.6028 4.65298V8.7929C67.6028 9.18316 67.6922 9.37302 67.7606 9.46795H66.3193Z" fill="white"/>
<path fill-rule="evenodd" clip-rule="evenodd" d="M72.2567 3.10867C71.3099 3.10867 70.9154 2.74478 70.9154 2.41253C70.9154 2.23322 71.0101 2.02755 71.1521 1.90625H71.6465C71.5624 2.03809 71.515 2.14357 71.515 2.31233C71.515 2.49691 71.7412 2.85026 72.2567 2.85026C72.7722 2.85026 72.9879 2.50219 72.9879 2.31233C72.9879 2.14357 72.9406 2.03809 72.8564 1.90625H73.3509C73.4929 2.02755 73.5876 2.23322 73.5876 2.41253C73.5876 2.75006 73.2036 3.10867 72.2567 3.10867ZM73.3298 9.46887C73.393 9.37394 73.4876 9.18408 73.4876 8.79382V5.7192L71.0206 8.65143V8.79382C71.0206 9.18408 71.1258 9.37394 71.1889 9.46887H69.7266C69.7949 9.37394 69.8949 9.18408 69.8949 8.79382V4.6539C69.8949 4.25836 69.7949 4.0685 69.7266 3.97358H71.1889C71.1258 4.0685 71.0206 4.25836 71.0206 4.6539V7.70742L73.4876 4.77519V4.6539C73.4876 4.25836 73.393 4.0685 73.3298 3.97358H74.7659C74.6975 4.0685 74.6081 4.25836 74.6081 4.6539V8.79382C74.6081 9.18408 74.7028 9.37394 74.7659 9.46887H73.3298Z" fill="white"/>
<path fill-rule="evenodd" clip-rule="evenodd" d="M35.4303 11.9401C33.9785 11.9401 33.2578 13.306 33.2578 14.6614C33.2578 16.6285 34.5045 17.4037 35.4303 17.4037C36.3456 17.4037 36.9295 16.9713 37.3871 16.3701L37.6238 16.8869C37.0505 17.6569 36.1825 18.026 35.2462 18.026C33.0737 18.026 31.9375 16.5072 31.9375 14.6614C31.9375 12.6626 33.2473 11.3125 35.3461 11.3125C36.1457 11.3125 36.6139 11.5235 37.0347 11.5235C37.2977 11.5235 37.445 11.5024 37.6343 11.418L37.1136 12.6151C36.7348 12.151 36.1825 11.9401 35.4303 11.9401Z" fill="white"/>
<path fill-rule="evenodd" clip-rule="evenodd" d="M42.9156 13.2977C42.6894 13.0077 42.358 12.9971 42.0582 12.9971H41.1797V17.2109C41.1797 17.6011 41.285 17.791 41.3481 17.8859H39.8857C39.9541 17.791 40.054 17.6011 40.054 17.2109V12.9971H39.3124C38.9021 12.9971 38.5075 12.9444 38.0078 13.2977L38.4023 12.3906H43.2996L42.9156 13.2977Z" fill="white"/>
<path fill-rule="evenodd" clip-rule="evenodd" d="M47.4698 17.8859C47.5381 17.791 47.596 17.5748 47.4277 17.2109L47.1699 16.6044H44.6713L44.4083 17.2109C44.2505 17.5748 44.3084 17.791 44.3715 17.8859H43.2773C43.3983 17.7646 43.5298 17.6011 43.7087 17.2109L45.5761 12.9602L45.5603 12.918C45.4498 12.6596 45.3236 12.5066 45.1921 12.3906H46.5387L48.6428 17.2109C48.8216 17.6011 48.9531 17.7646 49.0741 17.8859H47.4698ZM45.9285 13.7618L44.9291 16.0243H46.9122L45.9285 13.7618Z" fill="white"/>
<path fill-rule="evenodd" clip-rule="evenodd" d="M53.6719 17.8859C53.7403 17.791 53.8402 17.6011 53.8402 17.2109V15.3545H51.5362V17.2109C51.5362 17.6011 51.6467 17.791 51.7045 17.8859H50.2422C50.3106 17.791 50.4105 17.6011 50.4105 17.2109V13.0709C50.4105 12.6754 50.3053 12.4856 50.2422 12.3906H51.7045C51.6467 12.4856 51.5362 12.6754 51.5362 13.0709V14.748H53.8402V13.0709C53.8402 12.6754 53.735 12.4856 53.6719 12.3906H55.1342C55.0764 12.4856 54.9659 12.6754 54.9659 13.0709V17.2109C54.9659 17.6011 55.0764 17.791 55.1342 17.8859H53.6719Z" fill="white"/>
<path fill-rule="evenodd" clip-rule="evenodd" d="M60.216 17.8885H57.9962C57.5859 17.8885 56.9021 18.0414 56.4023 18.3895V17.5984C57.3597 17.1554 57.5649 16.57 57.5649 15.5363V13.0788C57.5649 12.6832 57.4649 12.4934 57.3965 12.3984H61.2944C61.226 12.4934 61.126 12.6832 61.126 13.0788V16.6702C61.126 17.0605 61.2891 17.398 61.8099 17.572V18.3947C61.3102 18.0414 60.6263 17.8885 60.216 17.8885ZM59.9951 12.9996H58.5696C58.3907 12.9996 58.254 13.142 58.254 13.3108V15.5363C58.254 16.3432 58.1382 16.9181 57.7963 17.2872H59.6795C59.8583 17.2872 59.9951 17.1449 59.9951 16.9655V12.9996Z" fill="white"/>
<path fill-rule="evenodd" clip-rule="evenodd" d="M67.0791 17.8859C67.1475 17.791 67.2001 17.5748 67.0423 17.2109L66.7846 16.6044H64.2807L64.0177 17.2109C63.8599 17.5748 63.9177 17.791 63.9809 17.8859H62.8867C63.0077 17.7646 63.1392 17.6011 63.3181 17.2109L65.1802 12.9602L65.1539 12.918C65.0434 12.6596 64.9224 12.5066 64.7909 12.3906H66.1376L68.2469 17.2109C68.4258 17.6011 68.5573 17.7646 68.6783 17.8859H67.0791ZM65.5326 13.7618L64.5384 16.0243H66.5163L65.5326 13.7618Z" fill="white"/>
<path fill-rule="evenodd" clip-rule="evenodd" d="M71.9149 16.2036H71.1364V17.2109C71.1364 17.6011 71.2521 17.791 71.3047 17.8859H69.8477C69.9108 17.791 70.016 17.6011 70.016 17.2109V13.0709C70.016 12.6754 69.9108 12.4856 69.8477 12.3906C71.3836 12.3906 71.9149 12.3906 71.9149 12.3906C73.3352 12.3906 74.1926 13.092 74.1926 14.2312C74.1926 15.576 73.0932 16.2036 71.9149 16.2036ZM71.6519 12.9866H71.1364V15.5971H71.7466C72.4252 15.5971 73.0511 15.3176 73.0511 14.2206C73.0511 13.2239 72.3831 12.9866 71.6519 12.9866Z" fill="white"/>
<path fill-rule="evenodd" clip-rule="evenodd" d="M79.5933 13.2977C79.3671 13.0077 79.041 12.9971 78.7411 12.9971H77.9574V17.2109C77.9574 17.6011 78.0573 17.791 78.1257 17.8859H76.6686C76.737 17.791 76.8369 17.6011 76.8369 17.2109V12.9971H76.1952C75.7796 12.9971 75.3903 12.9444 74.8906 13.2977L75.2851 12.3906H79.9983L79.5933 13.2977Z" fill="white"/>
</g>
</svg>
