<svg width="88" height="24" viewBox="0 0 88 24" fill="none" xmlns="http://www.w3.org/2000/svg">
<g style="mix-blend-mode:luminosity" opacity="0.6">
<path d="M22.0111 4.66406C22.5736 5.40104 23.0498 6.20171 23.43 7.04998L12.6443 15.1077L8.13672 12.244V8.7989L12.6443 11.6626L22.0111 4.66406Z" fill="white"/>
<path d="M3.53624 12.0067C3.53624 11.8521 3.53996 11.6985 3.5474 11.5458L0.815659 11.4102C0.806361 11.608 0.800785 11.8078 0.800785 12.0094C0.799622 13.5849 1.10538 15.1449 1.70053 16.6003C2.29568 18.0556 3.1685 19.3776 4.26892 20.4902L6.20661 18.5274C5.35955 17.6724 4.68757 16.6562 4.22929 15.5371C3.77102 14.4181 3.53549 13.2182 3.53624 12.0067Z" fill="white"/>
<path d="M12.6385 2.77039C12.7909 2.77039 12.9424 2.77605 13.0931 2.78359L13.2298 0.0141429C13.0339 0.00471987 12.8368 8.89979e-06 12.6385 8.89979e-06C11.0832 -0.00191318 9.54303 0.307515 8.10618 0.910526C6.66932 1.51354 5.36416 2.39826 4.26562 3.51388L6.20332 5.47765C7.047 4.6189 8.04986 3.93763 9.15424 3.47303C10.2586 3.00842 11.4427 2.76963 12.6385 2.77039Z" fill="white"/>
<path d="M12.643 21.2297C12.4906 21.2297 12.339 21.2297 12.1875 21.2175L12.0508 23.986C12.2473 23.996 12.4447 24.0011 12.643 24.0011C14.1976 24.0027 15.7371 23.6931 17.1732 23.0899C18.6092 22.4867 19.9136 21.6019 21.0113 20.4863L19.0773 18.5234C18.2334 19.3817 17.2307 20.0626 16.1265 20.527C15.0224 20.9915 13.8385 21.2303 12.643 21.2297Z" fill="white"/>
<path d="M17.7769 4.38175L20.079 2.66204C17.9748 0.93522 15.3482 -0.00479346 12.6406 1.8382e-05V2.77135C14.4741 2.76904 16.265 3.33058 17.7769 4.38175Z" fill="white"/>
<path d="M24.4841 11.998C24.4855 11.2771 24.4233 10.5574 24.2981 9.84766L21.7495 11.7511C21.7495 11.8331 21.7495 11.9151 21.7495 11.998C21.7502 13.2874 21.4835 14.5625 20.9668 15.7406C20.4501 16.9188 19.6948 17.9738 18.75 18.8373L20.5882 20.8963C21.8165 19.7724 22.7981 18.3996 23.4692 16.8667C24.1404 15.3338 24.4861 13.675 24.4841 11.998Z" fill="white"/>
<path d="M12.6473 21.2274C11.3749 21.2278 10.1167 20.9575 8.954 20.4338C7.79135 19.9102 6.75015 19.1448 5.89786 18.1875L3.86719 20.0495C4.97593 21.2945 6.3305 22.2894 7.84307 22.9698C9.35563 23.6501 10.9924 24.0007 12.6473 23.9987V21.2274Z" fill="white"/>
<path d="M6.53577 5.16051L4.69849 3.10156C3.46983 4.22515 2.48793 5.59791 1.81645 7.13084C1.14499 8.66374 0.798951 10.3226 0.800789 11.9998H3.53625C3.53568 10.7105 3.80241 9.43538 4.31912 8.25719C4.83584 7.07904 5.59103 6.02402 6.53577 5.16051Z" fill="white"/>
<path d="M69.1186 6.85639L72.5065 4.35547H61.168V19.3838H72.5065V16.8829H64.4033V13.0334H71.3157V10.5325H64.4033V6.85639H69.1186Z" fill="white"/>
<path d="M53.541 10.2186H49.6045V6.86399H55.8871L59.2729 4.35547H46.3711V19.3839H53.1246C56.911 19.3839 59.084 17.6643 59.084 14.6655C59.084 11.7967 57.1158 10.2186 53.541 10.2186ZM52.979 16.8821H49.6045V12.718H52.979C55.0269 12.718 55.9871 13.4158 55.9871 14.8001C55.9871 16.1843 54.9655 16.8821 52.979 16.8821Z" fill="white"/>
<path d="M80.8399 4.35547H74.668V19.3838H77.9029V15.1265H80.8399C84.7777 15.1265 87.2136 13.0504 87.2136 9.73297C87.2136 6.41568 84.7777 4.35547 80.8399 4.35547ZM80.7717 12.6237H77.9029V6.8583H80.7717C82.8429 6.8583 83.9861 7.88271 83.9861 9.74214C83.9861 11.6016 82.8429 12.6237 80.7717 12.6237Z" fill="white"/>
<path d="M41.5166 15.8378C40.6809 16.2912 39.7447 16.526 38.7944 16.5204C35.9503 16.5204 33.887 14.4859 33.887 11.6844C33.887 8.88284 35.9503 6.84393 38.7944 6.84393C39.8201 6.82648 40.8245 7.1381 41.6608 7.73334L43.9237 6.06349L43.7707 5.95455C42.4506 4.79168 40.6869 4.17578 38.668 4.17578C36.4783 4.17578 34.4927 4.91396 33.075 6.25694C32.3582 6.94841 31.7913 7.78052 31.4096 8.70132C31.0279 9.62212 30.8396 10.6118 30.8565 11.6088C30.8413 12.6159 31.0288 13.6157 31.4077 14.5486C31.7866 15.4815 32.3491 16.3283 33.0618 17.0385C34.486 18.4348 36.4672 19.2041 38.6414 19.2041C40.9132 19.2041 42.8988 18.4103 44.2432 16.9651L42.2177 15.4532L41.5166 15.8378Z" fill="white"/>
</g>
</svg>
