<svg width="97" height="94" viewBox="0 0 97 94" fill="none" xmlns="http://www.w3.org/2000/svg">
<ellipse cx="36.0895" cy="21.106" rx="3.44888" ry="3.3599" fill="#F4CD46"/>
<ellipse cx="71.5168" cy="23.855" rx="6.27069" ry="6.10892" fill="#F4CD46"/>
<path d="M56.4812 15.9328L60.688 35.153L60.9999 36.5782L62.3426 37.1616L80.6418 45.1125L63.3498 54.8528L62.0304 55.5961L61.8683 57.0888L59.7589 76.5211L44.7695 63.3898L43.6888 62.443L42.267 62.7365L22.5462 66.8073L30.6928 48.9509L31.3186 47.5792L30.5574 46.2928L20.5813 29.4345L40.5096 31.4624L41.9718 31.6112L42.9735 30.5288L56.4812 15.9328Z" stroke="#EB5C29" stroke-width="5.80822"/>
<path d="M32.6381 58.6758L25.1133 75.1699" stroke="white" stroke-width="6.45358"/>
<path d="M39.5557 40.957C39.076 49.4747 47.038 57.6221 60.8555 44.29" stroke="#F4CD46" stroke-width="6.45358"/>
</svg>
