<svg width="34" height="34" viewBox="0 0 34 34" fill="none" xmlns="http://www.w3.org/2000/svg">
<path d="M28.6618 0.367188L23.5088 10.6732C22.3077 9.93211 20.99 9.39933 19.6113 9.09734L23.9658 0.367188H19.2646L16.8588 5.18401L14.453 0.367188H9.75176L14.1063 9.07633C12.7276 9.37832 11.4099 9.9111 10.2087 10.6522L5.05575 0.367188H0.354492L6.96252 13.5832C5.49582 15.4418 4.58212 17.6758 4.32603 20.0295C4.06995 22.3831 4.48183 24.7614 5.51451 26.8918C6.54719 29.0223 8.15894 30.8189 10.1652 32.076C12.1715 33.3331 14.4912 33.9998 16.8588 33.9998C19.2264 33.9998 21.5461 33.3331 23.5524 32.076C25.5587 30.8189 27.1704 29.0223 28.2031 26.8918C29.2358 24.7614 29.6476 22.3831 29.3916 20.0295C29.1355 17.6758 28.2218 15.4418 26.7551 13.5832L33.3631 0.367188H28.6618ZM16.8588 29.7829C15.1965 29.7829 13.5716 29.29 12.1895 28.3665C10.8074 27.443 9.73018 26.1304 9.09407 24.5947C8.45795 23.0589 8.29151 21.3691 8.6158 19.7388C8.94009 18.1085 9.74054 16.6109 10.9159 15.4355C12.0913 14.2601 13.5889 13.4597 15.2192 13.1354C16.8495 12.8111 18.5393 12.9776 20.0751 13.6137C21.6108 14.2498 22.9234 15.327 23.8469 16.7091C24.7704 18.0912 25.2633 19.7161 25.2633 21.3784C25.2633 23.6074 24.3778 25.7451 22.8017 27.3213C21.2255 28.8974 19.0878 29.7829 16.8588 29.7829Z" fill="black"/>
</svg>
