<svg width="34" height="34" viewBox="0 0 34 34" fill="none" xmlns="http://www.w3.org/2000/svg">
<path d="M28.6628 0.367188L23.5098 10.6732C22.3087 9.93211 20.9909 9.39933 19.6122 9.09734L23.9668 0.367188H19.2656L16.8598 5.18401L14.454 0.367188H9.75273L14.1073 9.07633C12.7286 9.37832 11.4109 9.9111 10.2097 10.6522L5.05673 0.367188H0.355469L6.96349 13.5832C5.49679 15.4418 4.5831 17.6758 4.32701 20.0295C4.07092 22.3831 4.4828 24.7614 5.51549 26.8918C6.54817 29.0223 8.15992 30.8189 10.1662 32.076C12.1725 33.3331 14.4922 33.9998 16.8598 33.9998C19.2273 33.9998 21.5471 33.3331 23.5533 32.076C25.5596 30.8189 27.1714 29.0223 28.2041 26.8918C29.2367 24.7614 29.6486 22.3831 29.3925 20.0295C29.1364 17.6758 28.2227 15.4418 26.7561 13.5832L33.3641 0.367188H28.6628ZM16.8598 29.7829C15.1975 29.7829 13.5726 29.29 12.1905 28.3665C10.8084 27.443 9.73116 26.1304 9.09504 24.5947C8.45893 23.0589 8.29249 21.3691 8.61678 19.7388C8.94107 18.1085 9.74152 16.6109 10.9169 15.4355C12.0923 14.2601 13.5898 13.4597 15.2201 13.1354C16.8505 12.8111 18.5403 12.9776 20.076 13.6137C21.6118 14.2498 22.9243 15.327 23.8478 16.7091C24.7713 18.0912 25.2643 19.7161 25.2643 21.3784C25.2643 23.6074 24.3788 25.7451 22.8026 27.3213C21.2265 28.8974 19.0888 29.7829 16.8598 29.7829Z" fill="white"/>
</svg>
