<svg width="345" height="292" viewBox="0 0 345 292" fill="none" xmlns="http://www.w3.org/2000/svg">
<g clip-path="url(#clip0)">
<path d="M33.6444 239.7C33.0853 239.7 32.6256 239.253 32.6131 238.695L32.3895 225.977L23.5434 211.311C21.0212 211.708 12.5975 212.614 7.19287 208.184C4.12405 205.666 2.58343 201.906 2.6207 196.98C2.65798 191.161 6.06225 186.037 11.2681 183.927C16.623 181.756 22.4997 183.158 26.9601 187.687C35.3465 196.186 30.091 205.355 28.4758 207.725L32.5634 214.773L33.1847 173.803L22.7606 150.563C19.0085 151.085 3.5898 152.3 0.694924 138.119C-0.497816 132.275 0.595529 126.704 3.77617 122.435C6.89469 118.242 11.7526 115.649 17.4678 115.127C21.2573 114.78 24.8106 115.921 27.7428 118.44C31.5819 121.728 34.0916 127.063 34.4395 132.721C34.9117 140.265 29.7804 145.476 27.9416 147.102L37.732 169.286L45.4475 163.84C44.7021 161.37 42.8757 153.504 47.9076 148.901C51.9082 145.241 57.4619 144.248 62.0589 146.37C66.3826 148.367 68.855 152.673 68.6811 157.909C68.5444 161.966 67.1405 164.919 64.5438 166.668C59.7231 169.932 52.343 167.946 50.3551 167.314L39.4838 174.485L39.2726 205.144L47.0006 198.841C46.6278 197.228 45.9942 193.084 48.156 189.66C49.7588 187.116 52.5046 185.553 56.3313 184.994C60.5307 184.387 63.9226 185.578 65.8856 188.357C67.9605 191.285 68.1096 195.591 66.2708 199.077C64.6059 202.229 61.6738 204.015 58.2198 204.015C53.5979 203.941 51.0385 203.221 49.9327 202.812L39.6081 211.447L39.8317 238.434C39.8317 239.005 39.3844 239.464 38.8129 239.464C38.2414 239.489 37.7817 239.017 37.7817 238.446L37.558 210.976C37.558 210.666 37.6947 210.38 37.9308 210.182L49.1127 200.839C49.4357 200.566 49.8954 200.529 50.2682 200.727C50.2806 200.74 52.5294 201.881 58.1204 201.968C61.8974 201.968 63.7114 199.561 64.4817 198.122C65.9477 195.342 65.8484 191.819 64.2332 189.548C62.7174 187.402 60.0959 186.521 56.6543 187.029C53.4488 187.501 51.1876 188.742 49.9203 190.752C47.7336 194.213 49.1376 198.891 49.15 198.928C49.2742 199.325 49.1376 199.759 48.8145 200.032L38.8875 208.122C38.5768 208.37 38.1544 208.42 37.7941 208.259C37.4338 208.085 37.2102 207.725 37.2102 207.328L37.4338 173.939C37.4338 173.592 37.6077 173.282 37.8935 173.096L49.647 165.341C49.9203 165.167 50.2558 165.118 50.5539 165.229C50.6409 165.254 58.7789 168.108 63.4007 164.981C65.4259 163.604 66.5193 161.209 66.6311 157.847C66.7802 153.405 64.8047 149.906 61.2016 148.243C57.3501 146.469 52.6785 147.325 49.2991 150.427C44.4039 154.906 47.5969 163.815 47.6342 163.902C47.7957 164.336 47.6466 164.82 47.2615 165.093L37.9059 171.706C37.6574 171.88 37.3344 171.942 37.0362 171.855C36.738 171.768 36.4895 171.557 36.3653 171.284L25.7549 147.238C25.5561 146.804 25.6928 146.295 26.0779 146.01C26.14 145.96 32.8989 140.737 32.4019 132.87C32.0913 127.833 29.7928 122.907 26.4134 120.016C23.9037 117.869 20.8845 116.889 17.6542 117.187C12.5354 117.659 8.18682 119.966 5.42861 123.676C2.60828 127.473 1.63918 132.461 2.70767 137.722C3.91284 143.615 7.67742 147.201 13.902 148.405C18.673 149.323 23.1209 148.442 23.1706 148.429C23.6427 148.33 24.1149 148.578 24.3137 149.012L35.1477 173.17C35.2347 173.604 34.5513 218.507 34.5513 218.507C34.5389 218.966 34.2283 219.363 33.781 219.488C33.3338 219.599 32.8616 219.413 32.638 219.004L26.3637 208.172C26.1525 207.8 26.1897 207.341 26.4507 207.018C26.7613 206.633 33.868 197.613 25.494 189.126C21.63 185.218 16.5981 183.977 12.0384 185.826C7.52833 187.65 4.708 191.93 4.67072 196.993C4.64588 201.261 5.92559 204.487 8.48501 206.596C14.0014 211.125 23.7546 209.189 23.854 209.177C24.2764 209.09 24.7112 209.276 24.9349 209.648L34.2904 225.145C34.4395 225.654 34.6632 238.645 34.6632 238.645C34.6756 239.216 34.2159 239.675 33.6568 239.687C33.6568 239.7 33.6568 239.7 33.6444 239.7Z" fill="#223549"/>
<path fill-rule="evenodd" clip-rule="evenodd" d="M21.2234 238.004H53.6262C55.5147 238.004 57.0553 239.53 57.0553 241.428V254.754C57.0553 261.045 51.9489 266.144 45.6497 266.144H29.2123C22.9131 266.144 17.8067 261.045 17.8067 254.754V241.428C17.7943 239.542 19.3349 238.004 21.2234 238.004Z" fill="white"/>
<path d="M53.6251 238.005C55.5136 238.005 57.0542 239.531 57.0542 241.429V254.755C57.0542 261.046 51.9478 266.145 45.6486 266.145H29.2112C22.912 266.145 17.8056 261.046 17.8056 254.755V241.429C17.8056 239.543 19.3338 238.005 21.2223 238.005H53.6251ZM53.6251 235.734H21.2223C18.079 235.734 15.5195 238.29 15.5195 241.429V254.755C15.5195 262.299 21.6572 268.428 29.2112 268.428H45.6362C53.1902 268.428 59.3279 262.299 59.3279 254.755V241.429C59.3279 238.29 56.7685 235.734 53.6251 235.734Z" fill="#223549"/>
<path d="M343.745 270.198H1.25486C0.559097 270.198 0 269.639 0 268.945C0 268.25 0.559097 267.691 1.25486 267.691H343.745C344.441 267.691 345 268.25 345 268.945C345 269.639 344.441 270.198 343.745 270.198Z" fill="black"/>
<path d="M46.4282 102.885C45.1982 102.637 44.6764 101.781 44.8751 100.925C44.9124 100.751 45.9436 96.4705 49.0249 91.0483C49.4597 90.2791 50.4413 90.0185 51.1992 90.4528C51.9695 90.8871 52.2304 91.8673 51.7955 92.6241C48.9503 97.6244 47.9812 101.62 47.9812 101.657C47.8073 102.389 47.1612 102.885 46.4282 102.885ZM196.167 97.5499C192.949 97.5499 189.632 97.4631 186.327 97.3018C185.445 97.2521 184.761 96.5077 184.811 95.6268C184.861 94.7458 185.618 94.0882 186.488 94.113C189.743 94.2743 192.999 94.3612 196.167 94.3612C197.546 94.3612 198.266 95.0684 198.266 95.9493C198.266 96.8303 197.558 97.5499 196.676 97.5499C196.179 97.5499 196.167 97.5499 196.167 97.5499ZM208.976 97.1033C208.144 97.1033 207.448 96.4581 207.386 95.6268C207.324 94.7458 207.982 93.989 208.864 93.9145C212.294 93.6664 215.698 93.3065 218.966 92.8599C219.835 92.7358 220.643 93.3438 220.767 94.2247C220.891 95.0932 220.282 95.8997 219.4 96.0238C216.058 96.4829 212.592 96.8551 209.088 97.1033C209.051 97.1033 209.014 97.1033 208.976 97.1033ZM174.151 96.1603C170.597 95.6516 167.156 94.994 163.702 94.1751C162.845 93.9765 162.31 93.1204 162.509 92.2519C162.708 91.3958 163.565 90.8622 164.435 91.0608C167.802 91.8548 171.144 92.5 174.374 92.9715C175.244 93.0956 175.853 93.9145 175.716 94.783C175.604 95.5895 174.921 96.1603 174.151 96.1603ZM231.303 93.7904C230.582 93.7904 229.924 93.2941 229.75 92.5621C229.551 91.706 230.085 90.8498 230.943 90.6389C234.322 89.8448 237.602 88.9143 240.671 87.8844C241.503 87.599 242.41 88.0457 242.696 88.8894C242.982 89.7207 242.535 90.6265 241.69 90.9119C238.521 91.9789 235.154 92.9343 231.676 93.7532C231.539 93.778 231.427 93.7904 231.303 93.7904ZM152.209 90.9119C148.681 89.8572 145.488 88.753 141.959 87.4502C141.127 87.14 140.704 86.2218 141.015 85.4029C141.326 84.5716 142.245 84.1497 143.065 84.4599C146.544 85.7503 149.7 86.8422 152.694 87.7976C153.539 88.0705 153.998 88.9639 153.725 89.8076C153.514 90.4776 152.88 90.9119 152.209 90.9119ZM252.536 86.259C251.952 86.259 251.393 85.9364 251.107 85.3905C250.71 84.6088 251.02 83.641 251.803 83.244C254.909 81.6682 257.779 79.9063 260.326 78.0452C261.034 77.5241 262.041 77.673 262.563 78.3802C263.084 79.0874 262.935 80.0925 262.227 80.6136C259.544 82.5864 256.524 84.4227 253.257 86.0853C253.033 86.197 252.785 86.259 252.536 86.259ZM57.8959 83.7031C57.4859 83.7031 57.0635 83.5418 56.7529 83.2192C56.1316 82.5864 56.1441 81.5814 56.7777 80.961C59.3371 78.4671 62.1823 76.3081 65.2635 74.5463C66.0339 74.112 67.003 74.3726 67.4378 75.1294C67.8727 75.8987 67.6118 76.8665 66.8539 77.3008C64.0087 78.9261 61.3747 80.9238 59.0141 83.2316C58.7035 83.5418 58.2935 83.7031 57.8959 83.7031ZM131.013 83.1075C130.815 83.1075 130.616 83.0703 130.429 82.9958L129.734 82.7229C126.677 81.5193 123.782 80.3778 120.887 79.2736C120.067 78.9634 119.645 78.0452 119.968 77.2139C120.279 76.395 121.198 75.9731 122.031 76.2833C124.95 77.3876 127.845 78.5291 130.914 79.745L131.61 80.018C132.43 80.3406 132.827 81.2712 132.504 82.0901C132.256 82.7229 131.647 83.1075 131.013 83.1075ZM109.817 75.3279C105.817 74.174 102.611 73.3675 99.5672 72.7844C98.6975 72.6231 98.1385 71.7794 98.3 70.9233C98.4615 70.0547 99.2939 69.484 100.164 69.6577C103.319 70.2532 106.624 71.097 110.277 72.2136C111.122 72.4742 111.594 73.3675 111.333 74.2113C111.134 74.8813 110.501 75.3279 109.817 75.3279ZM77.4643 73.045C76.7437 73.045 76.0852 72.5486 75.9112 71.8166C75.7 70.9605 76.2343 70.1044 77.0916 69.8934C78.7191 69.4964 80.4213 69.1862 82.1483 68.9505C83.925 68.7147 85.7513 68.5658 87.5902 68.5286C88.4971 68.5286 89.2053 69.2234 89.2177 70.0919C89.2426 70.9729 88.5344 71.7049 87.6523 71.7173C85.9377 71.7546 84.2231 71.891 82.5707 72.1144C80.9555 72.3377 79.3652 72.6355 77.837 72.9953C77.7128 73.0201 77.5885 73.045 77.4643 73.045ZM270.179 72.4618C269.831 72.4618 269.483 72.3501 269.185 72.1144C268.489 71.5684 268.377 70.5634 268.924 69.8686C271.011 67.2258 272.664 64.3969 273.832 61.4439C274.155 60.625 275.086 60.2279 275.906 60.5505C276.726 60.8731 277.124 61.8037 276.801 62.6226C275.521 65.861 273.707 68.9629 271.434 71.8414C271.111 72.2633 270.651 72.4618 270.179 72.4618ZM277.633 51.6543C276.739 51.6419 276.031 50.9222 276.031 50.0413C276.031 46.6664 275.633 43.5025 274.838 40.2889C274.627 39.4328 275.149 38.5643 276.006 38.3534C276.863 38.1424 277.733 38.6635 277.944 39.5197C278.801 42.9814 279.236 46.4059 279.236 49.6815C279.224 50.9471 278.516 51.6543 277.633 51.6543ZM201.05 31.9386C198.18 31.9386 195.657 31.7897 193.322 31.492C192.452 31.3803 191.831 30.5738 191.942 29.7053C192.054 28.8367 192.862 28.2164 193.732 28.328C195.918 28.6134 198.316 28.7499 201.037 28.7499C201.907 28.7499 202.814 28.7375 203.721 28.7003C204.59 28.6754 205.336 29.3703 205.361 30.2512C205.386 31.1321 204.69 31.8642 203.82 31.889C202.888 31.9138 201.944 31.9262 201.05 31.9386ZM270.576 30.9957C270.253 30.9957 269.918 30.8964 269.645 30.6979C267.483 29.1345 264.588 28.1047 260.786 27.5464C259.916 27.4223 259.307 26.6034 259.432 25.7348C259.556 24.8663 260.376 24.2583 261.246 24.3824C265.569 25.0152 268.924 26.2311 271.521 28.1047C272.241 28.6258 272.39 29.6184 271.881 30.3256C271.558 30.7723 271.073 30.9957 270.576 30.9957ZM216.071 30.9336C215.263 30.9336 214.58 30.3256 214.48 29.5192C214.381 28.6506 215.015 27.8565 215.897 27.7573C219.301 27.3726 222.78 26.926 226.06 26.4917C226.942 26.38 227.737 26.988 227.849 27.8689C227.961 28.7375 227.352 29.544 226.47 29.6556C223.177 30.0899 219.674 30.549 216.245 30.9336C216.182 30.9336 216.12 30.9336 216.071 30.9336ZM238.484 28.1047C237.677 28.1047 236.993 27.5091 236.894 26.6902C236.794 25.8093 237.428 25.0276 238.298 24.9283C242.286 24.4693 245.665 24.1839 248.622 24.0226C249.505 23.973 250.25 24.6554 250.3 25.5363C250.349 26.4173 249.666 27.1617 248.784 27.2113C245.889 27.3602 242.572 27.658 238.646 28.0923C238.608 28.1047 238.546 28.1047 238.484 28.1047ZM182.065 27.3975C181.73 27.3975 181.394 27.2982 181.108 27.0749C178.922 25.4247 177.269 23.3154 176.176 20.809C175.828 20.0025 176.201 19.0596 177.008 18.7122C177.816 18.3647 178.76 18.737 179.108 19.5435C179.99 21.5783 181.282 23.2037 183.034 24.5437C183.742 25.0772 183.879 26.0698 183.345 26.7771C183.022 27.1865 182.537 27.3975 182.065 27.3975Z" fill="#223549"/>
<path fill-rule="evenodd" clip-rule="evenodd" d="M140.267 93.7258L142.056 80.4993C142.056 80.4993 137.471 70.4863 136.639 70.536C135.806 70.5856 134.738 67.7443 133.036 67.3596C131.334 66.975 118.673 62.3594 117.493 62.3594C116.3 62.3594 111.989 63.2899 110.498 64.754C109.007 66.2181 105.739 67.4093 105.292 70.9826C104.845 74.556 105.193 76.6653 104.447 78.055C103.702 79.4446 101.031 77.9185 100.521 83.3158C100.012 88.7255 101.366 89.7181 102.348 91.3063C103.304 92.9068 136.241 100.562 140.267 93.7258Z" fill="#F5F5F5"/>
<path fill-rule="evenodd" clip-rule="evenodd" d="M225.664 112.23C225.664 112.23 226.571 84.0397 227.95 82.5012C229.317 80.975 243.468 71.8555 243.468 71.8555L254.426 79.5978C254.426 79.5978 259.036 87.7 259.011 89.7968C258.986 91.9061 264.776 118.558 264.776 118.558C264.776 118.558 264.341 121.064 261.894 122.205C259.433 123.359 225.664 112.23 225.664 112.23Z" fill="#F5F5F5"/>
<path fill-rule="evenodd" clip-rule="evenodd" d="M179.856 1.14062C190.28 1.14062 198.741 9.57778 198.741 20.0001C198.741 30.4225 190.292 38.8597 179.856 38.8597C169.419 38.8597 160.971 30.4225 160.971 20.0001C160.971 9.57778 169.419 1.14062 179.856 1.14062Z" fill="white"/>
<path d="M179.858 40.002C168.813 40.002 159.83 31.0314 159.83 20.001C159.83 8.97068 168.813 0 179.858 0C190.903 0 199.886 8.97068 199.886 20.001C199.886 31.0314 190.903 40.002 179.858 40.002ZM179.858 2.28299C170.068 2.28299 162.116 10.2363 162.116 20.001C162.116 29.7658 170.08 37.719 179.858 37.719C189.636 37.719 197.6 29.7658 197.6 20.001C197.6 10.2238 189.636 2.28299 179.858 2.28299Z" fill="#223549"/>
<path fill-rule="evenodd" clip-rule="evenodd" d="M174.662 167.145C174.662 167.145 170.835 159.465 180.364 159.279C189.894 159.105 227.254 158.596 227.254 158.596C227.254 158.596 234.41 157.48 235.69 162.703C236.97 167.927 244.474 197.333 244.474 197.333C244.474 197.333 246.698 201.378 242.312 202.569C237.914 203.76 189.496 203.251 189.496 203.251C189.496 203.251 185.011 203.785 183.334 198.015C181.656 192.246 180.364 185.707 180.364 185.707C180.364 185.707 185.781 187.394 185.843 185.707C185.893 184.019 183.905 183.2 183.905 183.2C183.905 183.2 186.626 182.89 185.732 180.806C184.837 178.721 182.191 176.017 182.191 176.017C182.191 176.017 185.446 175.384 183.669 173.051C181.893 170.718 179.457 168.287 177.966 168.15C176.488 168.038 174.662 167.145 174.662 167.145Z" fill="#223549"/>
<path fill-rule="evenodd" clip-rule="evenodd" d="M241.631 114.275C241.631 114.275 240.538 125.119 237.755 125.553C234.971 125.988 222.41 123.618 218.932 124.871C215.453 126.124 214.707 126.124 214.707 126.124C214.707 126.124 212.744 119.163 218.36 112.674C223.976 106.185 225.044 103.096 225.43 101.619C225.815 100.155 226.573 92.2762 226.573 92.2762C226.573 92.2762 220.485 82.8093 227.045 78.0075C233.965 72.9328 247.756 63.2673 261.932 65.8481C276.208 68.4537 281.451 82.3254 280.296 91.7055C279.836 95.4526 278.693 98.753 276.755 101.842C273.798 106.57 272.667 110.168 272.99 111.868C273.487 114.473 278.121 123.332 279.153 127.365C280.184 131.397 280.743 137.167 280.743 137.167C280.743 137.167 275.463 134.015 265.796 132.837C256.143 131.658 253.521 129.983 253.024 127.142C252.527 124.3 256.789 109.026 256.789 109.026C256.789 109.026 266.268 109.883 267.051 105.155C268.343 97.3013 260.429 100.49 260.429 100.49C260.429 100.49 250.017 96.743 247.197 90.0057C244.377 83.2683 245.371 77.474 245.371 77.474C245.371 77.474 239.134 77.9579 234.648 82.4867C230.163 87.0154 230.884 88.1817 230.884 88.1817C230.884 88.1817 224.647 104.336 232.822 110.28C241.022 116.235 241.631 114.275 241.631 114.275Z" fill="#223549"/>
<path fill-rule="evenodd" clip-rule="evenodd" d="M265.931 100.03C265.931 100.03 273.907 93.3303 273 81.5679C272.155 70.5128 263.073 66.865 263.073 66.865C263.073 66.865 260.141 65.9716 257.37 65.7235C254.6 65.4877 247.443 66.6292 247.443 66.6292C247.443 66.6292 253.357 66.1825 259.085 70.1654C272.665 79.5951 264.104 99.0999 264.104 99.0999L265.931 100.03Z" fill="black"/>
<path fill-rule="evenodd" clip-rule="evenodd" d="M121.611 112.338C121.611 112.338 121.188 119.696 120.927 121.57C120.666 123.443 119.561 127.041 122.977 127.947C126.394 128.865 127.997 128.406 127.997 128.406C127.997 128.406 126.344 124.014 126.059 119.175C125.86 115.763 125.711 112.227 125.711 112.227C125.711 112.227 124.816 112.599 123.661 112.338C122.518 112.078 121.611 112.338 121.611 112.338Z" fill="#F7C154"/>
<path fill-rule="evenodd" clip-rule="evenodd" d="M235.243 162.02C237.455 166.97 244.139 195.855 244.139 195.855C244.139 195.855 247.593 202.208 241.741 202.692C235.902 203.176 221.427 203.945 221.427 203.945C221.427 203.945 207.897 221.502 204.083 233.45C198.976 249.468 195.957 283.143 195.473 288.714H300.459C300.148 286.803 295.799 259.965 292.942 253.848C289.985 247.508 284.158 234.48 284.158 234.48C284.158 234.48 276.368 234.257 264.875 215.906C258.949 206.439 254.339 199.912 252.55 196.079C250.873 192.48 251.867 191.289 251.867 191.289C251.867 191.289 249.258 186.661 249.245 183.199C249.233 179.738 248.922 178.41 248.102 176.475C247.282 174.551 244.4 168.943 246.164 168.385C249.208 167.417 254.377 175.556 254.377 175.556L258.489 173.05C258.489 173.05 256.762 171.263 257.011 170.085C257.259 168.918 259.408 168.037 259.408 168.037C259.408 168.037 254.675 164.203 255.644 162.454C256.601 160.704 260.887 162.454 260.887 162.454C260.887 162.454 260.738 160.146 259.856 158.694C258.986 157.243 257.719 153.595 260.079 153.793C262.44 153.992 264.589 156.486 265.894 160.965C267.199 165.444 267.609 168.943 267.609 168.943C267.609 168.943 267.646 171.66 268.292 174.067C268.938 176.475 268.64 180.11 268.64 180.11L271.721 177.604L275.486 190.706C275.486 190.706 281.362 186.053 285.872 185.805C290.382 185.557 295.576 186.835 295.576 186.835L290.445 153.793C290.445 153.793 287.599 140.431 281.089 137.155C274.579 133.879 268.764 133.048 268.764 133.048C268.764 133.048 251.594 144.848 238.647 138.52C227.279 132.961 228.261 128.954 228.261 128.954C228.261 128.954 216.867 126.112 211.724 134.078C206.58 142.044 203.052 158 203.052 158L226.434 158.347C226.459 158.372 233.032 157.057 235.243 162.02Z" fill="#F7C154"/>
<path fill-rule="evenodd" clip-rule="evenodd" d="M58.0704 242.57C68.0099 244.543 74.9551 239.27 74.9551 239.27L89.678 227.879C89.678 227.879 85.7519 227.892 83.8634 219.79C81.9873 211.762 87.7398 205.595 86.4849 205.546C86.4849 205.546 77.8873 208.821 75.1912 210.782C72.4951 212.742 69.8239 213.636 69.8239 213.636L64.0092 182.071C64.0092 182.071 60.7416 172.207 66.7426 169.998C72.7436 167.79 111.47 162.132 111.47 162.132C111.47 162.132 117.558 160.419 119.795 165.668C122.031 170.916 123.224 183.436 123.224 183.436C123.224 183.436 127.771 181.562 128.243 184.23C128.715 186.897 128.02 188.56 128.02 188.56C128.02 188.56 129.337 190.495 129.274 193.92C129.212 197.344 129.436 199.454 128.703 200.757C127.97 202.059 126.877 204.181 126.877 204.181L131.672 231.639C131.672 231.639 133.747 238.575 128.243 240.064C122.752 241.553 81.9252 249.059 81.9252 249.059C81.9252 249.059 79.3782 249.791 77.937 248.029C76.4833 246.268 75.4272 244.382 75.4272 244.382C75.4272 244.382 68.2211 257.596 66.1835 268.539C64.1459 279.483 63.2141 288.701 63.2141 288.701H64.2453H170.834C169.902 284.805 160.994 247.57 154.595 230.82C147.849 213.127 143.078 206.551 143.078 206.551L145.128 196.526C145.128 196.526 155.776 217.271 165.206 221.701C174.636 226.142 183.917 221.837 187.11 215.658C190.303 209.491 188.588 203.126 188.588 203.126C188.588 203.126 186.824 203.883 184.936 201.873C182.761 199.565 182.078 195.955 182.078 195.955C182.078 195.955 174.338 195.694 171.132 193.908C167.914 192.108 163.715 189.354 163.715 189.354C163.715 189.354 163.007 180.929 163.255 177.505C163.516 174.08 164.05 165.655 164.05 165.655C164.05 165.655 157.428 142.937 154.123 138.88C150.818 134.823 143.401 129.996 143.401 129.996C143.401 129.996 135.574 148.26 113.856 151.188C92.138 154.116 73.2406 141.163 73.2406 141.163C73.2406 141.163 63.6738 145.431 61.4871 157.231C59.3004 169.018 50.1933 223.773 50.1933 223.773C50.1933 223.773 48.1185 240.597 58.0704 242.57Z" fill="black"/>
<path fill-rule="evenodd" clip-rule="evenodd" d="M72.6719 141.506C72.6719 141.506 85.6553 122.796 87.5066 105.053C89.3578 87.3101 83.3568 63.0781 113.859 60.9564C137.713 59.3062 141.13 83.2901 141.13 83.2901L135.427 81.5778C135.427 81.5778 133.738 78.8109 132.458 76.4535C131.191 74.096 128.693 70.6467 128.693 70.6467C128.693 70.6467 129.6 74.1705 129.265 76.2301C128.929 78.2898 128.582 79.6422 128.582 79.6422C128.582 79.6422 118.344 80.0021 113.747 82.2602C109.162 84.5308 106.329 86.2431 106.329 86.2431L105.186 79.7539L104.963 91.9381C104.963 91.9381 97.8809 81.6523 95.2718 90.1142C92.3397 99.606 104.279 100.599 104.279 100.599C104.279 100.599 107.522 102.782 107.137 106.864C106.739 110.947 106.777 126.419 101.434 129.992C96.0794 133.566 72.6719 141.506 72.6719 141.506Z" fill="#F7C154"/>
<path fill-rule="evenodd" clip-rule="evenodd" d="M71.6533 168.117L116.008 160.387C118.816 159.904 121.463 161.591 121.91 164.159L133.651 231.359C134.098 233.927 132.185 236.421 129.377 236.905L85.0219 244.635C82.214 245.119 79.5676 243.431 79.1204 240.863L67.3793 173.664C66.932 171.083 68.8454 168.601 71.6533 168.117Z" fill="#EFEFEF"/>
<path d="M116.975 160.303C119.398 160.303 121.51 161.891 121.907 164.161L133.648 231.361C134.096 233.929 132.182 236.423 129.374 236.907L85.0193 244.637C84.6963 244.699 84.3733 244.724 84.0502 244.724C81.6275 244.724 79.5153 243.136 79.1177 240.865L67.3767 173.665C66.9294 171.097 68.8428 168.603 71.6507 168.119L116.006 160.389C116.329 160.327 116.652 160.303 116.975 160.303ZM116.975 158.02C116.515 158.02 116.068 158.057 115.608 158.144L71.2531 165.874C67.2152 166.581 64.457 170.253 65.1279 174.05L76.8689 241.25C77.4529 244.575 80.472 246.994 84.0502 246.994C84.5099 246.994 84.9572 246.957 85.4169 246.87L129.772 239.14C133.822 238.433 136.568 234.76 135.897 230.951L124.156 163.752C123.572 160.439 120.553 158.02 116.975 158.02Z" fill="white"/>
<path d="M114.366 163.11C116.789 163.11 118.901 164.699 119.298 166.969L131.039 234.156C131.487 236.725 129.573 239.206 126.765 239.702L82.4103 247.432C82.0873 247.494 81.7642 247.519 81.4412 247.519C79.0184 247.519 76.9063 245.931 76.5087 243.66L64.7677 176.473C64.3204 173.905 66.2338 171.411 69.0417 170.927L113.397 163.197C113.72 163.135 114.043 163.11 114.366 163.11ZM114.366 160.84C113.906 160.84 113.459 160.877 112.999 160.964L68.6441 168.694C64.5937 169.401 61.848 173.074 62.5189 176.87L74.2599 244.058C74.8439 247.383 77.863 249.802 81.4412 249.802C81.8885 249.802 82.3482 249.765 82.8079 249.678L127.163 241.948C131.213 241.241 133.959 237.568 133.288 233.772L121.547 166.585C120.951 163.247 117.932 160.84 114.366 160.84Z" fill="black"/>
<path fill-rule="evenodd" clip-rule="evenodd" d="M179.856 8.66406C186.13 8.66406 191.212 13.7388 191.212 20.0046C191.212 26.2704 186.13 31.3451 179.856 31.3451C173.582 31.3451 168.5 26.2704 168.5 20.0046C168.5 13.7388 173.582 8.66406 179.856 8.66406Z" fill="white"/>
<path d="M179.856 32.4744C172.973 32.4744 167.369 26.8786 167.369 20.0048C167.369 13.131 172.973 7.53516 179.856 7.53516C186.739 7.53516 192.342 13.131 192.342 20.0048C192.342 26.8786 186.739 32.4744 179.856 32.4744ZM179.856 9.80574C174.227 9.80574 169.643 14.3841 169.643 20.0048C169.643 25.6254 174.227 30.2038 179.856 30.2038C185.484 30.2038 190.068 25.6254 190.068 20.0048C190.068 14.3841 185.484 9.80574 179.856 9.80574Z" fill="#223549"/>
<path fill-rule="evenodd" clip-rule="evenodd" d="M179.855 13.2148C183.607 13.2148 186.651 16.2547 186.651 20.0018C186.651 23.7489 183.607 26.7887 179.855 26.7887C176.103 26.7887 173.059 23.7489 173.059 20.0018C173.059 16.2547 176.103 13.2148 179.855 13.2148Z" fill="#F7C154"/>
<path fill-rule="evenodd" clip-rule="evenodd" d="M277.621 26.7773C283.262 26.7773 287.834 31.3433 287.834 36.9764C287.834 42.6094 283.262 47.1754 277.621 47.1754C271.98 47.1754 267.408 42.6094 267.408 36.9764C267.408 31.3433 271.98 26.7773 277.621 26.7773Z" fill="#F7C154"/>
<path fill-rule="evenodd" clip-rule="evenodd" d="M189.545 84.1992C195.186 84.1992 199.758 88.7652 199.758 94.3982C199.758 100.031 195.186 104.597 189.545 104.597C183.904 104.597 179.332 100.031 179.332 94.3982C179.344 88.7652 183.917 84.1992 189.545 84.1992Z" fill="#F7C154"/>
<path fill-rule="evenodd" clip-rule="evenodd" d="M45.5723 101.172C50.0823 101.172 53.7351 104.82 53.7351 109.324C53.7351 113.828 50.0823 117.463 45.5723 117.463C41.0746 117.463 37.4219 113.815 37.4219 109.324C37.4219 104.82 41.0746 101.172 45.5723 101.172Z" fill="#F7C154"/>
<path fill-rule="evenodd" clip-rule="evenodd" d="M66.6461 215.517L83.8788 206.348L82.9469 213.805L83.8788 220.753L89.2709 228.011L70.8953 241.287L63.3164 229.885L66.6461 215.517Z" fill="black"/>
<path fill-rule="evenodd" clip-rule="evenodd" d="M115.844 57.2227C116.229 57.2227 116.602 57.2227 116.987 57.2227C133.424 57.6321 142.556 66.4663 145.961 80.4621C146.42 82.348 147.414 85.5368 145.849 86.2688C144.445 86.9264 143.14 85.1397 141.972 85.4747C141.948 98.3538 137.922 107.25 129.772 112.015C129.896 115.005 129.56 118.553 130.343 121.357C130.654 122.462 131.176 123.765 131.822 125.005C132.319 125.948 133.3 127.822 133.984 128.082C135.002 128.455 137.239 128.206 138.208 128.306C148.172 129.398 152.695 134.385 156.347 141.631C159.367 147.624 161.59 154.25 163.529 161.335C163.852 162.501 165.989 167.787 163.752 167.824C162.41 167.849 162.05 164.784 161.59 163.035C160.025 157.166 158.36 152.19 156.347 147.426C153.49 140.676 150.707 134.41 143.911 131.929C137.388 142.649 129.051 151.247 113.334 152.773C96.5489 154.411 83.8512 147.748 72.6071 142.525C63.5995 147.537 61.9222 160.627 59.9467 172.712C57.9215 185.07 56.3933 198.409 54.2439 209.96C53.1381 215.878 51.4236 221.946 51.0508 228.187C50.6408 235.135 53.5233 239.887 59.1515 241.624C65.2767 243.523 71.3398 239.664 75.2287 237.182C79.7884 234.266 83.5033 231.251 87.6655 228.075C86.8827 226.847 85.6527 225.792 84.5842 224.427C83.553 223.1 82.6336 221.66 82.0745 219.874C80.8693 216.015 81.9378 211.325 82.9815 208.024C78.1484 210.382 73.0296 212.938 68.6065 215.767C67.3392 216.586 65.6371 218.707 63.9349 217.367C63.9225 215.432 66.134 214.675 67.4759 213.831C74.9181 209.178 82.4224 205.456 91.0946 202.094C92.6228 201.498 94.5858 201.014 96.3377 200.27C97.0459 199.972 98.1392 199.587 98.9592 199.364C100.015 199.066 100.338 199.252 100.897 200.27C100.475 201.783 98.7232 201.907 97.4807 202.317C93.3434 203.707 89.1191 205.394 85.3918 206.982C85.7521 208.632 84.783 210.332 84.3606 212.107C82.7827 218.769 85.7894 223.472 89.6037 226.35C94.0764 223.038 98.4374 219.129 102.488 215.531C103.034 215.047 103.606 214.253 104.426 214.278C104.699 214.836 105.122 215.258 105.681 215.531C103.656 217.938 101.096 219.762 98.7232 221.797C91.4922 227.988 84.2115 233.758 76.2475 239.229C71.4641 242.517 63.3758 246.426 56.3933 242.989C50.2433 239.962 47.8454 234.031 49.212 224.539C50.2433 217.38 52.0448 209.923 53.3245 202.094C55.7721 187.031 57.3997 170.07 60.8537 156.533C62.2328 151.136 64.2083 146.644 67.5877 143.431C68.6686 142.401 70.1222 141.656 71.2404 140.353C72.3835 139.038 73.3029 137.177 74.3217 135.452C77.2414 130.477 80.186 124.782 82.1863 119.385C85.193 111.282 86.6094 102.709 87.2058 92.4974C87.827 81.8889 88.1003 72.6205 93.1322 66.5283C97.9901 60.6968 105.793 57.7438 115.844 57.2227ZM114.129 59.6173C105.147 60.1384 97.6795 63.8111 93.9398 69.1836C89.8646 75.0399 90.0634 84.6806 89.4918 94.0235C88.9203 103.267 87.5661 111.295 84.9321 118.739C82.2609 126.271 78.7199 132.313 75.3529 138.443C82.8697 134.882 91.9146 134.212 98.5119 130.353C103.941 127.177 104.973 121.903 105.358 113.838C105.47 111.407 105.991 108.801 105.817 106.431C105.706 104.942 104.91 102.597 103.531 101.878C102.848 101.518 101.755 101.53 101.022 101.307C97.4062 100.227 93.8901 98.118 93.4925 93.8995C93.1695 90.4874 95.0952 86.2192 98.2883 85.9214C100.376 85.7353 101.941 87.2242 102.848 88.2044C103.171 88.5518 103.395 89.2342 103.879 89.1101C103.743 86.641 104.066 83.1545 103.879 80.7971C103.805 79.8293 103.27 78.2783 104.451 78.0674C106.824 77.6207 106.339 83.2786 107.296 84.2216C112.937 81.0824 118.875 78.2411 127.833 78.4148C127.883 77.2609 128.119 76.38 128.057 75.1144C127.97 73.1664 126.119 69.6302 127.945 69.3076C129.063 69.1091 130.057 70.6228 130.567 71.2432C132.766 73.9233 134.381 77.0624 135.363 80.4745C138.456 81.4174 141.475 82.4225 144.258 83.6632C141.774 68.7369 132.343 58.5503 114.129 59.6173ZM129.188 80.4621C128.306 80.9584 126.628 80.6482 125.535 80.6854C117.67 81.0204 111.048 84.4821 106.141 87.6336C106.016 90.0655 106.936 94.0484 104.314 93.6761C103.258 93.5272 102.475 91.2815 101.693 90.3757C100.997 89.5692 99.7047 88.1672 98.6113 88.2168C97.7044 88.254 96.8968 89.3955 96.5613 90.0407C94.4616 93.9739 96.7352 96.8401 99.6426 98.2421C101.171 98.9866 102.947 99.0734 104.438 99.7186C105.432 100.153 106.277 101.431 106.836 102.337C108.663 105.302 107.954 109.992 107.743 114.298C107.333 122.933 105.656 128.79 100.102 132.189C92.7967 136.656 83.0809 136.917 75.1168 141.185C85.5036 145.974 97.7168 152.066 113.098 150.528C127.523 149.076 135.86 141.16 141.388 131.159C139.488 130.837 137.338 130.539 135.226 130.477C132.778 130.415 129.734 130.353 127.013 130.13C124.901 129.956 122.851 129.708 121.534 128.876C117.409 126.271 120.466 117.908 119.944 111.903C119.037 111.655 117.931 111.121 116.751 110.426C115.993 109.98 114.266 109.074 114.353 108.032C114.564 105.501 117.869 108.441 118.341 108.714C119.994 109.657 122.603 110.799 125.075 110.761C130.219 110.687 133.574 106.468 135.797 102.672C138.258 98.4655 139.14 94.0235 139.674 87.7453C137.897 86.9016 135.748 86.1199 133.971 86.7155C130.281 87.9686 129.772 93.7382 131.238 97.0882C131.722 98.1925 132.642 99.6566 131.014 99.942C129.362 100.227 128.169 95.9963 128.045 93.8995C127.784 89.1722 130.666 84.4821 134.891 84.2216C137.015 84.0851 138.27 84.9908 139.686 84.904C139.885 84.1595 138.953 84.0354 138.543 83.8741C138.059 83.688 137.45 83.4523 136.941 83.3034C135.934 82.9932 134.344 82.9312 133.636 82.2736C132.94 81.6284 132.716 79.6183 132.269 78.5141C131.735 77.174 130.964 75.6727 130.331 74.9779C130.045 76.6157 130.741 79.5935 129.188 80.4621ZM121.659 124.77C122.093 128.231 126.852 127.735 130.778 127.958C128.554 124.484 126.753 118.913 127.585 112.697C126.106 113.181 123.721 113.131 122.218 112.697C122.665 115.923 121.298 121.916 121.659 124.77Z" fill="black"/>
<path fill-rule="evenodd" clip-rule="evenodd" d="M286.146 235.271C293.054 249.664 299.254 266.154 300.633 286.874C300.708 288.078 300.733 289.592 298.919 289.269C297.701 278.574 296.297 268.697 293.564 259.652C290.855 250.706 287.352 242.542 283.413 234.936C274.654 232.765 269.846 225.631 265.162 217.963C261.993 212.764 258.142 207.255 254.551 202.131C253.321 200.381 251.955 198.47 251.246 196.659C250.774 195.455 250.948 194.053 250.675 192.552C250.501 191.547 249.768 190.517 249.42 189.475C249.072 188.42 248.712 187.328 248.625 186.05C248.488 184.127 249.097 181.919 248.737 179.896C248.302 177.489 246.885 175.727 246.003 173.519C245.295 171.757 244.301 167.402 246.798 167.03C248.737 166.732 250.29 168.655 251.358 169.871C252.601 171.298 253.855 172.787 254.439 174.201C255.272 174.065 255.918 172.799 256.837 172.377C254.924 171.186 255.806 167.749 257.744 167.253C256.166 166.31 253.52 163.01 255.346 160.987C256.142 160.106 258.266 160.131 259.682 160.64C259.558 158.704 257.123 157.86 257.285 155.515C257.409 153.791 259.384 152.587 261.273 153.232C265.211 154.572 267.684 161.608 268.342 166.67C268.454 167.526 268.243 168.407 268.342 169.288C268.442 170.144 268.951 171.137 269.137 172.129C269.485 173.891 269.933 175.69 269.709 177.713C271.175 176.608 272.678 173.283 273.362 170.305C273.598 169.263 273.461 167.638 274.84 167.799C276.691 168.01 275.064 171.893 274.728 172.923C274.057 174.933 273.498 176.31 272.567 177.713C273.722 181.41 274.704 185.306 275.871 188.991C278.046 187.738 280.667 185.877 283.972 185.008C287.202 184.152 291.501 184.239 294.918 185.12C292.272 174.735 291.7 163.394 288.992 152.649C287.774 147.798 285.873 143.133 282.369 140.006C279.984 137.872 276.816 136.197 272.902 135.105C271.846 134.807 269.957 134.013 269.026 134.199C268.553 134.286 267.51 135.365 266.976 135.676C262.105 138.492 255.856 141.334 248.501 141.371C236.797 141.42 228.932 135.564 226.137 125.762C204.816 123.504 205.276 143.964 199.561 157.662C202.928 157.637 206.133 157.463 209.488 157.439C210.718 153.716 213.116 150.639 216.098 148.331C216.918 147.699 218.148 146.321 219.403 147.19C219.962 148.567 218.434 149.138 217.688 149.696C215.178 151.582 213.041 153.865 211.873 157.215C218.856 158.369 229.976 154.994 234.573 159.039C236.586 160.813 237.443 165.131 238.337 168.717C240.189 176.137 241.742 182.812 243.817 190.133C245.071 194.55 248.463 201.572 242.91 203.347C239.605 204.401 234.871 204.091 230.249 204.252C225.627 204.426 220.968 204.587 217.129 204.6C199.213 224.154 194.653 257.034 192.032 291.862C191.386 291.999 190.591 292.048 190.094 291.751C192.019 262.754 195.734 234.576 207.202 214.749C198.642 214.935 195.349 209.873 192.491 204.376C186.304 204.476 182.428 202.28 181.769 196.857C175.184 197.379 169.792 194.934 165.804 192.068C164.624 191.224 163.133 190.48 162.723 189.103C163.667 186.596 166.065 189.314 167.394 190.244C171.022 192.788 175.781 194.81 181.198 194.686C180.564 191.411 179.694 188.358 178.8 185.343C179.334 185.256 180.713 185.368 181.086 185.232C181.769 187.936 182.465 189.909 183.024 192.291C183.732 195.257 183.981 199.699 186.441 201.064C189.435 202.714 195.871 202.428 200.468 202.428C212.743 202.428 225.329 202.428 237.878 201.858C240.288 201.746 243.369 201.175 243.804 200.145C244.301 198.979 243.407 196.299 243.009 194.909C240.151 185.021 237.803 175.727 235.256 165.293C234.61 162.65 233.852 160.602 231.603 159.821C228.137 158.617 221.825 159.486 217.464 159.486C205.661 159.486 193.821 160.094 181.869 160.516C179.657 160.59 176.489 160.528 175.706 161.657C174.451 163.469 176.402 166.446 176.501 168.382C175.905 168.345 174.861 168.419 174.103 168.27C173.383 164.982 172.19 160.838 175.135 159.275C177.433 158.047 181.794 158.257 185.745 158.133C189.87 158.009 193.995 157.848 197.151 157.786C201.263 148.952 202.083 136.904 208.221 129.757C208.929 128.926 210.768 127.623 210.954 126.916C211.153 126.171 210.842 124.918 210.842 124.075C210.842 117.188 213.041 112.945 216.21 109.148C218.719 106.133 221.701 103.292 222.596 98.0931C222.869 96.4677 223.242 94.3708 222.944 92.6214C222.732 91.455 221.527 89.9041 221.005 88.6385C220.074 86.3803 219.142 82.8566 220.322 79.978C221.689 76.6528 225.255 74.3078 228.311 72.459C234.585 68.6499 243.046 65.3619 252.153 64.8284C266.267 63.9971 275.809 68.9477 279.648 78.5015C281.661 83.5142 282.108 90.45 280.68 96.1575C280.021 98.7631 279.064 101.307 277.834 103.565C276.306 106.357 273.722 108.615 274.182 112.908C274.393 114.918 275.586 116.94 276.468 118.714C278.729 123.28 280.568 127.772 281.835 133.529C282.084 134.671 282.046 136.098 282.407 136.954C282.767 137.822 284.482 138.802 285.264 139.683C289.774 144.82 291.476 152.848 292.793 161.21C294.048 169.226 295.576 177.737 297.241 185.703C298.857 193.433 300.82 201.535 301.801 210.196C302.907 219.96 301.938 228.398 295.875 232.517C293.29 234.279 290.346 234.998 286.146 235.271ZM266.416 78.5263C268.541 84.4199 268.044 92.4476 265.733 98.6887C268.765 94.954 272.181 90.3632 272.355 84.1098C272.529 77.6826 269.224 73.2035 265.398 70.2133C264.18 69.2703 262.54 67.7814 261.173 67.3719C258.788 66.6523 256.378 67.1114 253.644 67.0245C260.092 68.6871 264.217 72.397 266.416 78.5263ZM263.335 76.5908C261.906 73.9728 259.521 71.5533 256.378 70.2133C253.557 69.0097 248.364 67.558 244.86 68.166C241.27 68.7864 237.579 70.1388 234.25 71.7022C229.814 73.7866 224.907 76.293 222.732 80.0152C221.241 82.5464 222.211 86.3059 223.192 88.44C223.677 89.5195 224.733 90.6237 225.018 91.9762C225.366 93.6015 225.118 95.8597 224.907 97.5596C224.124 103.999 220.72 107.138 217.489 111.121C214.433 114.893 212.532 118.938 213.041 125.812C217.638 122.945 225.068 123.367 231.069 124.447C232.92 124.782 235.84 125.539 237.455 124.794C240.002 123.615 239.816 117.796 240.537 114.881C229.926 113.925 225.304 101.927 229.131 91.1821C225.329 91.455 229.33 86.7774 230.386 85.3753C232.908 82.0253 235.505 79.7423 239.393 77.968C240.884 77.298 244.115 75.6478 245.556 76.1441C246.575 76.4915 246.475 78.2037 246.463 79.6802C246.451 91.0704 252.041 96.1203 259.807 99.6192C260.888 99.1477 262.08 98.2916 263.571 98.5894C266.255 91.8645 266.479 82.3231 263.335 76.5908ZM274.405 85.3629C273.946 91.7528 270.107 96.5918 267.224 100.401C268.032 101.604 268.802 102.932 268.367 104.731C267.423 108.602 262.056 110.699 257.185 109.967C256.601 112.25 255.781 114.881 255.247 117.598C254.688 120.377 253.98 123.529 254.216 126.258C254.526 129.794 257.334 130.316 260.714 130.812C267.982 131.879 274.927 132.71 279.996 135.601C279.176 131.085 278.182 127.474 276.455 123.64C274.84 120.03 271.585 115.972 272.007 111.109C272.405 106.555 275.648 103.726 277.251 99.9418C282.357 87.9313 278.269 73.1539 268.007 69.4068C271.933 72.9926 274.94 77.9308 274.405 85.3629ZM233.79 84.7922C237.555 85.884 240.698 88.6509 240.524 93.4527C240.45 95.4503 239.369 97.4107 238.126 98.8127C237.878 99.0981 234.2 103.279 233.79 100.637C233.616 99.52 235.604 98.6266 236.523 97.5596C237.12 96.8647 237.753 95.9218 238.002 95.2766C239.729 91.0084 236.263 87.2861 232.871 86.7278C231.33 91.0208 229.591 95.5495 229.901 100.513C230.373 108.193 235.579 112.66 243.357 113.044C244.612 113.106 246.612 112.647 246.662 114.074C246.724 115.712 243.829 115.141 242.674 115.104C241.729 119.161 241.978 123.764 239.369 126.035C236.759 128.306 231.839 126.519 228.423 126.258C230.647 133.12 235.977 137.438 243.941 138.79C252.675 140.279 260.391 137.14 266.069 133.666C260.987 132.611 255.955 133.343 253.408 130.241C251.085 127.412 252.24 122.102 253.185 117.374C253.52 115.712 253.781 114.086 254.328 112.138C254.738 110.637 255.446 107.907 256.266 107.697C256.713 107.585 257.483 107.883 258.204 107.92C259.074 107.97 260.142 108.007 260.937 107.92C263.087 107.684 266.541 105.947 266.305 103.366C266.18 102.051 264.603 100.537 262.888 100.637C261.882 100.699 260.987 102.188 259.807 102.113C259.422 102.088 258.9 101.53 258.328 101.207C257.757 100.885 257.048 100.649 256.614 100.413C249.06 96.294 243.705 90.2515 244.289 78.4271C239.915 79.8167 236.051 81.5042 233.79 84.7922ZM263.907 159.176C262.963 157.339 261.36 154.659 259.459 155.528C260.316 157.786 262.018 159.188 262.428 161.905C263.037 162.178 263.671 162.662 264.255 163.158C264.776 163.605 265.336 164.412 265.733 164.3C265.36 162.823 264.789 160.875 263.907 159.176ZM256.949 162.6C257.906 166.769 263.136 166.67 265.957 168.978C264.851 165.801 260.589 162.029 256.949 162.6ZM262.652 192.217C262.155 191.932 262.254 191.162 262.54 190.505C263.062 189.289 262.577 190.281 263.447 188.793C265.932 184.586 270.144 176.174 265.733 171.596C264.615 170.442 259.558 167.141 257.869 170.231C259.099 171.223 259.981 171.012 261.062 171.596C262.764 172.501 263.646 174.425 263.795 176.038C264.689 185.194 252.24 185.12 252.725 193.805C252.886 196.82 255.085 198.917 256.601 201.101C260.329 206.473 263.397 211.126 266.864 216.821C269.1 220.494 271.138 223.98 274.045 226.958C276.704 229.675 280.816 232.753 285.339 233.112C288.942 233.398 292.036 232.38 294.235 231.065C300.149 227.541 300.621 219.204 299.59 210.332C298.645 202.143 296.893 194.798 295.477 187.316C288.072 185.294 280.381 187.502 276.542 191.423C277.139 193.892 278.108 196.857 278.94 199.736C279.822 202.788 280.257 205.94 281.338 208.161C281.624 208.756 285.016 212.156 282.481 212.379C281.487 212.466 280.729 210.791 280.083 209.985C274.952 203.558 269.697 197.329 264.689 191.187C264.329 191.299 263.758 192.837 262.652 192.217ZM247.258 169.66C247.345 173.928 250.526 176.087 250.911 180.144C251.172 182.961 250.178 187.254 251.594 189.252C252.613 185.48 259.583 183.122 261.285 179.115C262.242 176.856 261.347 172.923 259.123 173.196C258.639 173.258 257.769 174.263 257.297 174.673C256.589 175.281 256.079 175.802 255.582 176.385C255.806 177.266 256.365 177.812 256.266 179.003C254.7 180.814 254.067 178.11 253.532 176.956C252.066 173.779 249.867 170.826 247.606 169.325C247.258 169.437 247.258 169.548 247.258 169.66ZM268.926 181.844C268.342 182.949 268.106 184.45 267.56 185.715C267.013 186.993 266.28 188.098 265.733 189.252C269.56 193.569 273.424 198.582 277.139 202.925C277.275 203.086 277.462 203.682 277.822 203.495C275.437 195.666 273.387 187.502 270.864 179.797C270.467 180.653 269.398 180.963 268.926 181.844ZM208.581 212.603C209.997 210.742 211.426 208.434 212.805 206.56C213.253 205.952 214.035 205.419 213.948 204.736C207.537 204.761 201.164 204.736 195.014 204.513C197.399 209.265 201.015 213.409 208.581 212.603Z" fill="black"/>
<path fill-rule="evenodd" clip-rule="evenodd" d="M113.448 86.3774C111.609 84.2433 117.188 82.3077 120.058 82.5062C122.095 82.6427 125.935 83.6725 125.761 85.2359C125.612 86.6504 123.885 85.9555 122.916 85.5833C121.81 85.1615 120.48 84.7768 119.499 84.7892C116.728 84.8016 115.759 86.5883 113.448 86.3774Z" fill="black"/>
<path fill-rule="evenodd" clip-rule="evenodd" d="M119.833 87.5187C121.46 87.0472 121.97 88.1887 122.231 89.4543C122.355 90.0499 122.554 91.3403 122.454 91.7373C122.218 92.7671 120.491 93.5364 119.485 92.5314C118.503 91.5388 118.267 87.9778 119.833 87.5187Z" fill="black"/>
<path fill-rule="evenodd" clip-rule="evenodd" d="M134.782 89.8026C136.993 89.6909 137.478 94.7656 134.893 94.7036C132.843 94.654 132.086 89.9391 134.782 89.8026Z" fill="black"/>
<path fill-rule="evenodd" clip-rule="evenodd" d="M234.712 90.5971C237.805 90.0884 236.948 95.3492 234.935 95.6098C231.854 96.0068 232.512 90.9569 234.712 90.5971Z" fill="black"/>
<path fill-rule="evenodd" clip-rule="evenodd" d="M98.5016 90.9478C99.7565 90.3647 100.577 92.0521 101.359 92.9951C102.08 93.876 104.378 96.3451 102.154 96.6429C101.297 96.7546 98.0544 93.1812 97.9301 92.201C97.8183 91.2828 98.1537 91.1091 98.5016 90.9478Z" fill="black"/>
<path fill-rule="evenodd" clip-rule="evenodd" d="M247.024 96.7527C250.391 95.8345 249.484 101.058 247.483 101.306C244.551 101.678 245.098 97.2738 247.024 96.7527Z" fill="black"/>
<path fill-rule="evenodd" clip-rule="evenodd" d="M120.293 99.7181C121.424 99.2714 121.958 100.413 122.691 101.083C123.151 101.505 123.747 102.051 124.517 102.448C125.611 103.006 128.878 103.118 129.077 104.16C129.586 106.728 124.654 105.066 123.71 104.619C122.268 103.924 119.672 102.125 119.597 100.86C119.572 100.165 119.858 99.8794 120.293 99.7181Z" fill="black"/>
<path fill-rule="evenodd" clip-rule="evenodd" d="M264.59 102.785C265.211 104.013 263.994 104.41 262.652 104.944C261.409 105.44 259.136 106.656 258.999 104.944C258.937 104.125 259.869 103.728 260.825 103.343C262.118 102.847 263.422 102.053 264.59 102.785Z" fill="black"/>
<path fill-rule="evenodd" clip-rule="evenodd" d="M236.76 107.919C238.127 107.137 241.457 108.291 242.239 106.442C240.4 106.678 238.723 106.591 237.108 105.983C236.499 105.76 235.393 105.264 235.282 104.618C234.859 102.062 237.94 104.209 239.394 104.395C242.277 104.755 244.55 103.477 244.985 105.301C245.619 107.956 241.357 109.817 239.506 109.854C237.978 109.879 236.102 109.581 236.76 107.919Z" fill="black"/>
<path fill-rule="evenodd" clip-rule="evenodd" d="M140.137 145.737C141.665 145.154 144.834 147.598 146.064 148.467C151.12 152.016 156.426 157.698 155.755 167.041C155.419 171.731 153.295 175.118 151.195 178.208C150.512 179.213 149.393 180.268 149.033 181.173C148.35 182.836 148.25 185.342 147.89 187.439C147.157 191.645 146.412 195.355 145.604 199.748C145.231 201.782 144.411 204.4 144.573 206.013C144.722 207.415 146.25 209.711 146.859 210.914C155.643 228.359 162.439 246.45 167.508 267.989C168.751 273.3 170.08 279.491 171.273 285.422C171.509 286.576 172.813 290.583 171.273 290.894C169.571 291.229 169.26 287.271 168.987 285.993C164.414 263.82 159.134 243.757 151.083 225.506C149.008 220.791 146.797 215.654 144.349 210.815C143.79 209.711 142.013 207.093 141.951 206.15C141.901 205.43 142.523 204.177 142.746 202.961C143.976 196.311 145.157 189.797 146.399 183.146C146.61 182.005 146.598 180.727 146.971 179.846C147.405 178.841 148.25 178.543 148.797 177.799C151.22 174.473 153.158 171.21 153.469 166.52C153.854 160.85 151.53 156.917 149.021 154.1C147.381 152.264 144.523 150.179 141.839 148.628C140.771 147.958 138.696 146.953 140.137 145.737Z" fill="black"/>
<path fill-rule="evenodd" clip-rule="evenodd" d="M75.6931 241.09C75.5937 241.735 76.1155 243.956 76.041 244.626C75.9168 245.693 74.2146 248.299 73.6431 249.527C68.723 260.049 65.5672 272.878 64.1757 287.122C64.1012 287.866 64.1757 289.442 62.9209 289.405C61.082 289.343 62.2499 283.871 62.3493 283.027C64.0639 269.069 67.4309 256.81 72.6119 246.351C73.5064 244.552 74.3761 242.728 75.3452 241.226C75.5316 241.226 75.544 241.09 75.6931 241.09Z" fill="black"/>
<path fill-rule="evenodd" clip-rule="evenodd" d="M178.522 159.822C177.826 159.897 176.981 160.418 176.695 160.505C174.931 155.641 174.608 148.469 177.491 145.008C181.491 140.218 190.3 139.71 190.946 131.334C191.232 127.649 190.549 124.796 189.468 121.992C187.828 123.145 188.834 124.808 188.672 126.781C188.238 132.054 183.976 134.647 179.429 135.776C177.602 136.235 175.503 136.508 174.061 137.6C172.459 138.829 171.452 141.074 170.757 143.643C170.508 144.536 170.458 145.504 169.39 145.355C167.626 145.107 169.589 140.454 169.961 139.66C170.707 138.084 172.16 136.235 173.502 135.441C175.726 134.126 178.398 134.114 180.684 133.27C184.013 132.066 186.585 130.118 186.61 125.528C181.789 127.662 177.006 130.826 172.123 133.27C172.21 134.325 172.819 135.429 171.9 136C170.197 136.111 170.098 133.915 169.85 132.699C168.943 128.332 168.967 123.021 165.861 120.962C165.712 123.394 166.669 124.945 166.657 127.228C166.644 130.23 165.364 132.339 164.606 134.746C163.849 137.129 163.14 139.685 163.352 143.06C163.513 145.616 164.47 148.085 164.83 150.802C165.936 159.09 164.159 168.259 164.147 177.007C164.134 183.905 165.178 191.573 166.433 197.851C166.582 198.584 167.004 199.824 166.085 200.01C165.675 200.097 165.34 200.494 164.83 198.646C162.097 188.769 162.432 175.344 163.004 163.904C163.153 160.864 163.24 157.179 163.116 154.102C162.991 150.963 162.146 148.209 161.637 145.553C161.028 142.402 161.339 139.226 161.973 136.434C162.805 132.823 164.818 130.056 164.482 126.297C164.308 124.349 162.581 118.964 165.389 118.666C167.129 118.48 169.005 120.974 169.725 122.426C170.943 124.907 171.03 127.96 171.552 131.086C172.918 130.826 174.111 129.945 175.316 129.262C178.932 127.24 182.709 125.056 186.498 123.108C186.635 120.974 188.946 119.001 190.946 120.49C193.009 118.89 200.215 115.912 200.873 120.838C204.228 123.257 198.711 127.24 197.109 128.927C194.947 131.198 193.617 133.32 192.089 135.193C190.536 141.459 181.715 142.042 178.509 147.042C176.534 150.169 177.279 155.616 178.522 159.822ZM191.866 122.227C191.903 122.798 192.189 123.121 192.213 123.704C194.065 122.289 195.879 120.838 198.836 120.515C196.226 119.51 193.729 121.384 191.866 122.227ZM192.785 126.098C192.884 127.513 193.096 128.816 193.009 130.429C195.121 127.711 197.842 125.615 199.854 122.798C196.438 122.401 194.549 124.485 192.785 126.098Z" fill="black"/>
<path fill-rule="evenodd" clip-rule="evenodd" d="M187.767 202.428C188.351 202.614 188.96 202.676 189.593 202.539C190.5 212.974 186.612 220.381 179.555 223.272C172.994 225.952 166.733 222.912 162.558 219.736C155.737 214.562 150.494 207.105 146.468 199.115C145.673 197.539 144.468 195.802 144.754 193.99C146.406 193.122 147.425 196.807 148.059 198.097C150.345 202.713 153.314 207.13 156.383 210.976C160.073 215.604 165.801 221.994 173.156 222.478C177.641 222.776 181.008 220.964 183.53 218.371C186.798 215.046 188.289 209.413 187.767 202.428Z" fill="black"/>
<path fill-rule="evenodd" clip-rule="evenodd" d="M119.539 184.008L126.82 183.027C126.82 183.027 127.851 183.772 127.851 184.008C127.851 184.256 127.851 188.152 127.851 188.152C127.851 188.152 128.472 190.869 128.472 191.067C128.472 191.266 128.634 197.594 128.721 197.718C128.808 197.842 128.385 202.259 128.186 202.52C127.975 202.78 124.77 204.666 124.36 204.952C123.95 205.237 120.533 205.485 120.036 203.971C119.527 202.445 119.539 184.008 119.539 184.008Z" fill="#EFEFEF"/>
<path fill-rule="evenodd" clip-rule="evenodd" d="M113.322 184.795C115.932 183.952 119.833 183.021 123.249 182.401C124.455 182.177 125.946 181.78 126.902 181.942C129.139 182.314 130.766 185.788 128.952 188.208C130.331 189.659 129.673 191.893 129.859 193.679C129.921 194.3 130.244 194.87 130.319 195.503C130.48 196.992 130.344 199.312 130.207 200.404C129.909 202.749 127.002 204.846 124.728 206.558C119.92 210.169 114.503 212.477 107.843 214.76C106.924 215.082 104.203 216.41 104.079 214.536C103.967 212.799 108.738 212.03 110.353 211.459C117.174 209.077 122.964 205.404 127.35 200.752C128.244 197.116 127.2 193.195 127.238 189.932C126.356 189.411 124.889 189.56 125.076 188.344C125.175 187.649 125.796 187.637 126.554 187.314C126.977 186.545 127.685 185.118 126.778 184.46C126.095 183.964 123.498 184.845 121.982 185.143C118.777 185.776 115.161 186.334 112.738 187.761C111.459 188.518 108.974 191.049 108.067 189.237C107.259 187.624 109.831 187.215 110.577 186.272C110.85 184.076 111.223 181.47 109.67 180.354C109.421 184.051 107.731 187.165 105.793 189.585C105.122 190.416 104.104 191.148 103.631 192.091C102.985 193.369 102.513 194.846 101.917 196.756C101.407 198.431 100.836 202.278 98.6119 200.739C98.1274 198.804 98.9847 196.905 99.5189 195.267C100.041 193.655 100.612 191.781 101.457 190.478C102.029 189.61 102.948 189.026 103.619 188.195C105.582 185.776 107.023 182.761 107.272 178.517C110.614 176.073 114.093 180.639 113.322 184.795Z" fill="black"/>
<path fill-rule="evenodd" clip-rule="evenodd" d="M184.267 176.623C185.41 178.001 188.256 181.189 185.982 183.113C187.684 184.837 186.429 187.257 183.82 187.331C182.081 187.381 177.981 186.016 178.912 183.919C180.851 183.323 182.068 185.78 184.503 185.061C183.037 182.343 179.496 181.711 176.974 180.048C174.924 180.892 174.688 183.596 175.831 185.172C176.477 186.066 177.558 186.525 178.453 186.884C179.186 187.182 181.049 187.53 181.074 188.485C181.124 190.321 177.894 189.019 177.421 188.832C176.154 188.299 174.812 187.393 174.228 186.674C173.197 185.408 173.384 184.08 172.974 182.567C172.626 181.276 171.582 180.37 171.259 178.919C171.16 178.497 171.259 178.1 171.147 177.666C170.414 174.961 168.091 171.449 170.24 168.67C171.209 167.417 173.421 166.573 175.831 166.735C178.465 166.921 180.316 168.062 181.994 169.576C183.696 171.114 187.088 174.75 184.267 176.623ZM175.719 168.881C172.079 168.658 170.7 170.966 171.955 174.241C172.414 173.906 172.775 173.435 173.321 173.1C173.843 172.789 174.788 172.132 175.148 172.07C175.819 171.958 176.179 172.368 176.751 172.529C179.31 173.249 180.838 173.956 183.137 174.688C182.155 172.318 179.347 169.104 175.719 168.881ZM180.279 176.177C179.111 175.792 177.148 174.812 176.167 174.7C173.346 174.365 172.713 177.591 174.005 179.825C174.775 178.509 176.092 177.752 177.769 177.889C180.528 178.1 182.155 180.619 184.503 181.078C183.845 179.763 182.105 176.772 180.279 176.177Z" fill="black"/>
<path fill-rule="evenodd" clip-rule="evenodd" d="M176.812 157.812C177.198 158.272 177.384 158.917 178.179 158.954C178.067 159.525 177.285 159.426 177.036 159.86C176.862 159.277 176.812 158.569 176.812 157.812Z" fill="black"/>
<path fill-rule="evenodd" clip-rule="evenodd" d="M163.118 158.27C163.515 160.788 164.596 163.394 164.72 165.9C164.845 168.617 164.261 171.843 164.261 175.131C164.261 183.283 164.969 190.219 166.311 197.341C166.423 197.924 167.33 200.53 165.851 200.753C164.112 201.014 163.913 197.267 163.689 195.964C161.726 184.76 161.602 171.769 162.546 159.051C162.882 158.94 162.944 158.542 163.118 158.27Z" fill="black"/>
<path fill-rule="evenodd" clip-rule="evenodd" d="M187.184 203.149C187.706 203.074 188.65 203.583 189.694 203.372C189.868 210.432 188.985 214.986 186.153 218.745C183.544 222.219 179.481 225.11 173.716 225.123C165.479 225.135 159.105 218.447 155.117 213.621C151.899 209.712 148.904 204.935 146.221 199.948C145.761 199.104 142.531 194.104 145.078 194.141C146.544 194.166 147.513 197.33 148.047 198.359C152.184 206.263 156.632 213.199 163.565 218.522C166.497 220.78 169.554 222.703 173.604 222.74C178.301 222.79 182.351 220.147 184.55 216.934C186.911 213.509 187.569 208.98 187.184 203.149Z" fill="black"/>
</g>
<defs>
<clipPath id="clip0">
<rect width="345" height="292" fill="white"/>
</clipPath>
</defs>
</svg>
