<svg width="463" height="385" viewBox="0 0 463 385" fill="none" xmlns="http://www.w3.org/2000/svg">
<g clip-path="url(#clip0)">
<path d="M386.311 81.173L373.682 93.7773L376.902 97.0009L389.532 84.3965L386.311 81.173Z" fill="#EC663D"/>
<path d="M376.897 81.1537L373.674 84.375L386.294 96.9883L389.517 93.767L376.897 81.1537Z" fill="#EC663D"/>
<path d="M106.053 294.512C106.497 293.252 107.87 292.583 109.113 293.021C110.362 293.459 111.055 294.796 110.634 296.068C110.226 297.334 108.835 298.05 107.556 297.6C106.283 297.157 105.609 295.772 106.053 294.512Z" fill="black"/>
<path d="M96.9713 291.148C97.4627 289.905 98.8656 289.278 100.103 289.752C101.334 290.219 101.962 291.621 101.5 292.87C101.032 294.124 99.6293 294.745 98.3684 294.266C97.1016 293.787 96.4741 292.39 96.9713 291.148Z" fill="black"/>
<path d="M88.0448 287.389C88.5954 286.17 90.0102 285.614 91.2178 286.158C92.4314 286.685 93.0056 288.075 92.4906 289.312C91.9815 290.536 90.537 291.14 89.2939 290.596C88.0567 290.045 87.5002 288.608 88.0448 287.389Z" fill="black"/>
<path d="M79.2769 283.275C79.8748 282.08 81.3251 281.577 82.515 282.151C83.6989 282.725 84.2021 284.169 83.6397 285.382C83.0715 286.589 81.627 287.097 80.4017 286.506C79.1763 285.914 78.6731 284.471 79.2769 283.275Z" fill="black"/>
<path d="M70.7233 278.724C71.3804 277.558 72.8485 277.138 73.9969 277.783C75.1394 278.434 75.6071 279.854 74.9736 281.043C74.358 282.214 72.8603 282.699 71.6823 282.031C70.4983 281.368 70.0662 279.889 70.7233 278.724Z" fill="black"/>
<path d="M62.3818 273.801C63.0921 272.683 64.5839 272.322 65.7146 272.996C66.8393 273.676 67.2064 275.161 66.5256 276.309C65.8448 277.457 64.353 277.824 63.1869 277.12C62.0266 276.434 61.6655 274.943 62.3818 273.801Z" fill="black"/>
<path d="M54.3381 268.413C55.1136 267.324 56.6112 267.052 57.6946 267.803C58.766 268.573 59.0679 270.052 58.328 271.158C57.588 272.276 56.0666 272.578 54.9537 271.791C53.8408 271.016 53.5626 269.502 54.3381 268.413Z" fill="black"/>
<path d="M46.5816 262.615C47.4222 261.562 48.9021 261.42 49.9677 262.195C51.0214 262.988 51.2227 264.496 50.4235 265.567C49.6243 266.638 48.0971 266.845 47.0078 266.029C45.9067 265.224 45.7528 263.65 46.5816 262.615Z" fill="black"/>
<path d="M39.1711 256.379C40.0649 255.385 41.5922 255.278 42.5808 256.148C43.5754 257.012 43.676 258.544 42.8176 259.568C41.9593 260.591 40.4379 260.698 39.4079 259.798C38.3837 258.899 38.2772 257.373 39.1711 256.379Z" fill="black"/>
<path d="M32.1675 249.697C33.1205 248.762 34.6419 248.762 35.5595 249.697C36.5066 250.602 36.5481 252.117 35.6246 253.087C34.707 254.058 33.1561 254.087 32.1734 253.152C31.2144 252.176 31.2085 250.632 32.1675 249.697Z" fill="black"/>
<path d="M25.585 242.588C26.6032 241.724 28.1364 241.819 29.0066 242.789C29.8769 243.765 29.7881 245.292 28.8113 246.197C27.8345 247.108 26.3013 247.019 25.3897 245.996C24.4781 244.978 24.5669 243.452 25.585 242.588Z" fill="black"/>
<path d="M19.6604 234.936C20.7556 234.167 22.2533 234.404 23.0051 235.463C23.7628 236.522 23.6148 237.983 22.5493 238.817C21.5133 239.634 19.9268 239.468 19.1277 238.35C18.3285 237.238 18.5712 235.705 19.6604 234.936Z" fill="black"/>
<path d="M14.3921 226.823C15.5346 226.166 17.0027 226.533 17.713 227.627C18.4056 228.728 18.0564 230.213 16.9376 230.94C15.8187 231.668 14.3151 231.319 13.5811 230.154C12.8352 228.994 13.214 227.497 14.3921 226.823Z" fill="black"/>
<path d="M9.95793 218.212C11.1774 217.667 12.6159 218.17 13.1723 219.342C13.7288 220.513 13.2197 221.963 12.0535 222.572C10.8518 223.199 9.4074 222.696 8.81542 221.448C8.22937 220.211 8.73847 218.762 9.95793 218.212Z" fill="black"/>
<path d="M6.44677 209.195C7.71951 208.787 9.08697 209.444 9.49543 210.674C9.90981 211.899 9.34744 213.254 8.08654 213.751C6.86115 214.236 5.38714 213.621 4.94316 212.313C4.49918 211.006 5.17403 209.609 6.44677 209.195Z" fill="black"/>
<path d="M3.95408 199.853C5.26826 199.593 6.51141 200.409 6.79555 201.669C7.12706 202.918 6.35157 204.213 5.06107 204.563C3.77057 204.912 2.43863 204.113 2.08345 202.776C1.78154 201.427 2.65174 200.107 3.95408 199.853Z" fill="black"/>
<path d="M2.61135 190.268C3.96697 190.173 5.05028 191.144 5.22195 192.422C5.39363 193.694 4.45239 194.889 3.13229 195.078C1.81219 195.273 0.592724 194.315 0.409212 192.936C0.2257 191.564 1.29717 190.357 2.61135 190.268Z" fill="black"/>
<path d="M2.55143 180.6C3.90113 180.694 4.84237 181.801 4.84237 183.085C4.83645 184.368 3.74721 185.416 2.41527 185.439C1.07742 185.457 -0.00589559 184.339 2.41461e-05 182.949C0.00594388 181.552 1.23725 180.505 2.55143 180.6Z" fill="black"/>
<path d="M3.89513 171.023C5.20931 171.319 6.01439 172.567 5.77168 173.815C5.58817 175.082 4.36871 175.963 3.04269 175.786C1.72259 175.608 0.810949 174.342 1.01222 172.963C1.27269 171.591 2.59871 170.727 3.89513 171.023Z" fill="black"/>
<path d="M6.74808 161.787C7.97938 162.302 8.6128 163.675 8.15106 164.852C7.713 166.041 6.42841 166.733 5.13199 166.343C3.87109 165.964 3.10744 164.544 3.59286 163.231C4.09604 161.923 5.51678 161.278 6.74808 161.787Z" fill="black"/>
<path d="M11.1646 153.19C12.2834 153.924 12.6682 155.397 12.0289 156.486C11.354 157.557 9.94514 157.989 8.76119 157.391C7.55949 156.782 7.09183 155.267 7.83772 154.066C8.554 152.847 10.0458 152.457 11.1646 153.19Z" fill="black"/>
<path d="M17.1857 145.631C18.1328 146.565 18.1565 148.021 17.3692 149.009C16.5522 149.967 15.0368 150.074 13.9772 149.257C12.9234 148.441 12.811 146.897 13.7285 145.82C14.6283 144.713 16.2385 144.684 17.1857 145.631Z" fill="black"/>
<path d="M24.6149 139.441C25.3549 140.559 25.0944 142.015 24.0762 142.742C23.1054 143.541 21.6136 143.358 20.7434 142.346C19.8791 141.328 20.0626 139.778 21.1637 138.879C22.3121 138.051 23.8809 138.329 24.6149 139.441Z" fill="black"/>
<path d="M33.1255 134.874C33.6228 136.117 33.0959 137.531 31.9416 138.033C30.7695 138.501 29.408 138.146 28.7568 136.945C28.1293 135.803 28.5674 134.194 29.8815 133.661C31.172 133.087 32.6283 133.638 33.1255 134.874Z" fill="black"/>
<path d="M42.3794 132.045C42.6399 133.352 41.8525 134.66 40.6212 134.956C39.9997 135.104 39.3662 134.974 38.8394 134.66C38.3184 134.376 37.8863 133.879 37.691 133.24C37.4956 132.601 37.5785 131.938 37.8922 131.37C38.206 130.838 38.7565 130.43 39.4314 130.264C40.7988 129.939 42.1189 130.737 42.3794 132.045Z" fill="black"/>
<path d="M51.9863 130.903C52.0278 132.24 51.0333 133.394 49.7605 133.477C48.4878 133.548 47.3216 132.571 47.1618 131.27C46.9901 129.921 47.9905 128.732 49.3876 128.655C50.7787 128.56 51.9449 129.566 51.9863 130.903Z" fill="black"/>
<path d="M61.6733 131.001C61.6319 132.338 60.5012 133.391 59.1456 133.362C57.7782 133.326 56.7955 132.238 56.831 130.9C56.8665 129.563 58.0505 128.498 59.3528 128.528C60.6729 128.558 61.7089 129.664 61.6733 131.001Z" fill="black"/>
<path d="M71.3561 131.103C71.3857 132.423 70.3083 133.606 68.9468 133.577C67.5912 133.547 66.5019 132.441 66.5138 131.109C66.5256 129.772 67.603 128.713 68.9231 128.743C70.2373 128.766 71.3265 129.749 71.3561 131.103Z" fill="black"/>
<path d="M81.0303 130.665C81.1427 132.008 80.1305 133.203 78.7689 133.227C77.4074 133.28 76.259 132.245 76.1939 130.907C76.1347 129.57 77.1528 128.446 78.4611 128.399C79.7812 128.375 80.9237 129.345 81.0303 130.665Z" fill="black"/>
<path d="M90.6542 129.56C90.8674 130.897 89.938 132.157 88.5764 132.276C87.2208 132.424 85.9954 131.465 85.8474 130.14C85.6994 128.815 86.6347 127.619 87.9312 127.477C89.2394 127.371 90.4471 128.258 90.6542 129.56Z" fill="black"/>
<path d="M100.149 127.668C100.468 128.928 99.6751 130.384 98.3136 130.597C96.9698 130.851 95.6674 129.987 95.4129 128.68C95.1583 127.366 95.993 126.112 97.2717 125.875C98.5681 125.674 99.8172 126.337 100.149 127.668Z" fill="black"/>
<path d="M109.414 124.865C109.875 126.119 109.195 127.527 107.898 128C106.596 128.456 105.193 127.645 104.82 126.385C104.435 125.084 105.163 123.829 106.383 123.403C107.602 122.954 108.958 123.61 109.414 124.865Z" fill="black"/>
<path d="M118.317 121.077C118.927 122.266 118.4 123.721 117.151 124.319C115.902 124.916 114.47 124.402 113.949 123.171C113.434 121.94 113.955 120.491 115.115 119.935C116.281 119.373 117.714 119.887 118.317 121.077Z" fill="black"/>
<path d="M126.706 116.248C127.475 117.372 127.144 118.893 125.942 119.585C124.746 120.295 123.243 119.934 122.58 118.774C121.911 117.615 122.266 116.141 123.379 115.485C124.492 114.852 125.972 115.165 126.706 116.248Z" fill="black"/>
<path d="M134.372 110.337C135.248 111.343 135.112 112.887 134.059 113.781C133.034 114.709 131.436 114.467 130.637 113.408C129.826 112.337 130.045 110.899 131.004 110.035C131.981 109.195 133.49 109.331 134.372 110.337Z" fill="black"/>
<path d="M141.357 103.64C142.346 104.557 142.393 106.113 141.393 107.072C140.416 108.042 138.871 108.042 137.941 107.078C137.018 106.113 137.018 104.593 137.935 103.682C138.883 102.788 140.386 102.741 141.357 103.64Z" fill="black"/>
<path d="M147.663 96.2933C148.71 97.1276 148.858 98.654 148 99.713C147.154 100.778 145.614 100.914 144.59 100.033C143.59 99.1687 143.454 97.6541 144.271 96.6306C145.099 95.613 146.615 95.465 147.663 96.2933Z" fill="black"/>
<path d="M153.533 88.59C154.605 89.3769 154.859 90.9033 154.043 91.9801C153.226 93.0569 151.698 93.2758 150.639 92.4712C149.573 91.6606 149.354 90.1519 150.153 89.0988C150.952 88.0516 152.444 87.7972 153.533 88.59Z" fill="black"/>
<path d="M159.187 80.7267C160.277 81.5018 160.531 83.0164 159.75 84.0991C158.974 85.1877 157.459 85.4362 156.37 84.6611C155.286 83.8802 155.032 82.3715 155.813 81.2829C156.589 80.2061 158.098 79.9517 159.187 80.7267Z" fill="black"/>
<path d="M165.014 72.994C166.056 73.8282 166.245 75.3369 165.434 76.3782C164.635 77.4254 163.125 77.6266 162.054 76.8279C160.982 76.0292 160.781 74.5027 161.604 73.42C162.433 72.3491 163.966 72.1657 165.014 72.994Z" fill="black"/>
<path d="M171.205 65.5477C172.199 66.4234 172.324 67.9498 171.465 68.9556C170.607 69.9555 169.086 70.0797 168.062 69.2337C167.026 68.3758 166.901 66.8493 167.783 65.8199C168.659 64.7786 170.193 64.6603 171.205 65.5477Z" fill="black"/>
<path d="M177.744 58.4098C178.709 59.3387 178.733 60.8474 177.839 61.8177C176.945 62.7821 175.418 62.8412 174.429 61.9419C173.441 61.0426 173.381 59.5044 174.305 58.5104C175.228 57.5105 176.785 57.4868 177.744 58.4098Z" fill="black"/>
<path d="M184.614 51.5885C185.537 52.5647 185.484 54.0616 184.549 54.9964C183.613 55.9194 182.086 55.9075 181.139 54.9609C180.192 54.0143 180.209 52.476 181.174 51.5235C182.139 50.565 183.702 50.6182 184.614 51.5885Z" fill="black"/>
<path d="M191.798 45.0933C192.668 46.1109 192.544 47.6078 191.573 48.4953C190.59 49.3768 189.069 49.2881 188.169 48.2941C187.275 47.3061 187.364 45.7678 188.37 44.8685C189.376 43.9574 190.927 44.0816 191.798 45.0933Z" fill="black"/>
<path d="M199.281 38.9436C200.092 39.9908 199.926 41.5172 198.902 42.3455C197.878 43.1738 196.35 43.0023 195.504 41.9728C194.651 40.9433 194.823 39.4169 195.877 38.5649C196.936 37.7189 198.458 37.8786 199.281 38.9436Z" fill="black"/>
<path d="M207.077 33.1992C207.841 34.2938 207.592 35.8024 206.515 36.5657C205.437 37.3289 203.928 37.0804 203.141 36.0154C202.335 34.9386 202.578 33.4181 203.691 32.6372C204.804 31.8503 206.319 32.1047 207.077 33.1992Z" fill="black"/>
<path d="M215.164 27.8659C215.869 29.0018 215.537 30.4869 214.418 31.1791C213.311 31.895 211.837 31.5932 211.091 30.4809C210.351 29.3687 210.659 27.8481 211.802 27.1086C212.95 26.3927 214.46 26.7358 215.164 27.8659Z" fill="black"/>
<path d="M223.505 22.95C224.144 24.1155 223.73 25.5769 222.599 26.2455C221.457 26.9022 219.983 26.4999 219.302 25.3521C218.621 24.2043 219.024 22.7193 220.202 22.0389C221.374 21.3526 222.86 21.7667 223.505 22.95Z" fill="black"/>
<path d="M232.125 18.5306C232.7 19.7375 232.208 21.1811 231.024 21.7609C229.84 22.323 228.396 21.8556 227.78 20.6782C227.159 19.4831 227.644 18.0158 228.87 17.4301C230.095 16.8325 231.551 17.3236 232.125 18.5306Z" fill="black"/>
<path d="M240.974 14.5964C241.483 15.8447 240.885 17.1996 239.689 17.7498C238.488 18.2823 237.073 17.7262 236.522 16.5074C235.978 15.2886 236.54 13.8568 237.783 13.3066C239.026 12.7327 240.477 13.3717 240.974 14.5964Z" fill="black"/>
<path d="M250.043 11.189C250.475 12.4551 249.818 13.8336 248.575 14.2714C247.338 14.7092 245.947 14.0407 245.479 12.8041C245 11.5439 245.657 10.1713 246.941 9.71576C248.226 9.26611 249.611 9.92284 250.043 11.189Z" fill="black"/>
<path d="M259.29 8.32057C259.646 9.61627 258.894 10.9001 257.639 11.3084C256.384 11.6929 255.04 10.9771 254.644 9.6991C254.241 8.42707 254.975 7.06629 256.271 6.66397C257.58 6.2439 258.941 7.0367 259.29 8.32057Z" fill="black"/>
<path d="M268.702 6.02507C268.981 7.33261 268.164 8.61648 266.879 8.90046C265.589 9.1667 264.298 8.3739 263.978 7.09003C263.653 5.7825 264.458 4.46313 265.796 4.19098C267.122 3.88924 268.424 4.71754 268.702 6.02507Z" fill="black"/>
<path d="M278.227 4.24686C278.423 5.56623 277.535 6.82051 276.238 7.04534C274.942 7.27016 273.699 6.38861 273.45 5.07516C273.207 3.76171 274.095 2.50743 275.433 2.27669C276.777 2.04003 278.026 2.92158 278.227 4.24686Z" fill="black"/>
<path d="M287.841 3.1157C287.96 4.4469 286.995 5.61836 285.686 5.72485C284.384 5.89051 283.194 4.95571 283.028 3.63043C282.863 2.30515 283.822 1.08636 285.171 0.920703C286.527 0.796458 287.723 1.7845 287.841 3.1157Z" fill="black"/>
<path d="M297.51 2.50915C297.551 3.84626 296.521 4.97038 295.207 5.02363C293.893 5.07688 292.756 4.03559 292.673 2.70439C292.584 1.37319 293.62 0.249066 294.976 0.189902C296.332 0.130737 297.468 1.17203 297.51 2.50915Z" fill="black"/>
<path d="M307.2 2.42777C307.164 3.76489 306.069 4.84168 304.755 4.83576C303.441 4.82985 302.363 3.74122 302.358 2.40411C302.346 1.06699 303.441 -0.00979842 304.796 -0.00388199C306.158 0.00795089 307.229 1.09658 307.2 2.42777Z" fill="black"/>
<path d="M316.865 2.91844C316.759 4.25556 315.61 5.21402 314.296 5.16669C312.982 5.10161 311.964 3.96565 312.035 2.63445C312.1 1.29734 313.248 0.273796 314.604 0.338877C315.965 0.386208 316.972 1.59316 316.865 2.91844Z" fill="black"/>
<path d="M326.503 3.91514C326.332 5.24042 325.13 6.17522 323.828 6.00364C322.519 5.8439 321.554 4.70203 321.691 3.35899C321.821 2.03963 323.022 1.02792 324.372 1.19358C325.722 1.37107 326.675 2.58986 326.503 3.91514Z" fill="black"/>
<path d="M336.075 5.38577C335.827 6.69922 334.577 7.58077 333.287 7.35003C331.991 7.12521 331.103 5.87092 331.304 4.54564C331.505 3.22627 332.754 2.34472 334.092 2.58138C335.436 2.81804 336.324 4.07232 336.075 5.38577Z" fill="black"/>
<path d="M345.546 7.40883C345.221 8.68678 343.918 9.49733 342.64 9.21926C341.355 8.93527 340.544 7.64549 340.822 6.33795C341.1 5.03042 342.409 4.21395 343.741 4.50977C345.073 4.79968 345.878 6.1013 345.546 7.40883Z" fill="black"/>
<path d="M354.84 10.1276C354.42 11.3937 353.07 12.0918 351.827 11.6836C350.596 11.2517 349.844 9.99739 350.217 8.68986C350.578 7.42374 351.957 6.61319 353.254 7.06284C354.556 7.48882 355.266 8.86144 354.84 10.1276Z" fill="black"/>
<path d="M363.927 13.4752C363.406 14.6999 361.997 15.3152 360.778 14.8419C359.564 14.3686 358.949 12.9723 359.416 11.718C359.878 10.4637 361.287 9.8484 362.566 10.3513C363.844 10.8424 364.454 12.2446 363.927 13.4752Z" fill="black"/>
<path d="M372.659 17.6685C372.026 18.8459 370.575 19.3074 369.427 18.7039C368.29 18.0708 367.763 16.7041 368.338 15.4853C368.9 14.2902 370.404 13.7163 371.605 14.3849C372.825 15.0179 373.293 16.4911 372.659 17.6685Z" fill="black"/>
<path d="M380.976 22.6271C380.218 23.7453 378.78 23.9938 377.649 23.3489C376.542 22.6745 376.193 21.2013 376.873 20.0476C377.554 18.8998 379.058 18.5448 380.236 19.2607C381.432 19.947 381.716 21.5267 380.976 22.6271Z" fill="black"/>
<path d="M388.73 28.4144C387.866 29.432 386.345 29.6095 385.332 28.8049C384.32 28.0002 384.137 26.4797 384.936 25.4029C385.735 24.332 387.256 24.1545 388.334 25.0124C389.417 25.8703 389.595 27.3908 388.73 28.4144Z" fill="black"/>
<path d="M395.782 35.0467C394.811 35.9638 393.29 35.9579 392.39 35.029C391.514 34.0765 391.425 32.6269 392.348 31.6389C393.242 30.6686 394.858 30.5798 395.794 31.5916C396.759 32.5796 396.753 34.1297 395.782 35.0467Z" fill="black"/>
<path d="M402.063 42.4042C400.985 43.2147 399.517 43.0017 398.706 41.9959C397.871 41.0138 398.008 39.511 399.02 38.6354C400.032 37.7657 401.583 37.9077 402.477 38.9608C403.341 40.0376 403.122 41.6055 402.063 42.4042Z" fill="black"/>
<path d="M407.504 50.4101C406.367 51.0846 404.899 50.7355 404.177 49.6646C403.467 48.5819 403.786 47.091 404.893 46.3396C406 45.5882 407.504 45.9077 408.256 47.0673C409.031 48.2033 408.67 49.7179 407.504 50.4101Z" fill="black"/>
<path d="M412.044 58.9579C410.83 59.5199 409.38 59.0289 408.811 57.8633C408.237 56.6978 408.734 55.2423 409.901 54.6152C411.091 53.9762 412.529 54.4732 413.145 55.7038C413.748 56.9404 413.257 58.3958 412.044 58.9579Z" fill="black"/>
<path d="M415.702 67.9173C414.441 68.3611 413.062 67.728 412.624 66.5033C412.18 65.2786 412.724 63.9119 413.973 63.3972C415.193 62.8943 416.673 63.4859 417.14 64.7757C417.602 66.0655 416.963 67.4736 415.702 67.9173Z" fill="black"/>
<path d="M418.571 77.1557C417.281 77.4929 415.99 76.7297 415.594 75.4873C415.221 74.2389 415.949 72.9018 417.222 72.5054C418.5 72.109 419.85 72.8485 420.247 74.162C420.661 75.4695 419.862 76.8244 418.571 77.1557Z" fill="black"/>
<path d="M420.661 86.6145C419.347 86.8512 418.074 86.0052 417.826 84.7154C417.571 83.4315 418.436 82.1536 419.72 81.8637C421.04 81.5678 422.301 82.4139 422.568 83.7569C422.834 85.0999 421.976 86.3779 420.661 86.6145Z" fill="black"/>
<path d="M422.083 96.1849C420.739 96.3328 419.591 95.3921 419.401 94.0963C419.206 92.8006 420.123 91.5878 421.449 91.3866C422.77 91.1855 424.007 92.1203 424.208 93.4692C424.397 94.8182 423.397 96.037 422.083 96.1849Z" fill="black"/>
<path d="M422.894 105.834C421.556 105.905 420.408 104.9 420.325 103.586C420.242 102.273 421.249 101.119 422.581 101.001C423.912 100.888 425.061 101.894 425.15 103.249C425.239 104.604 424.226 105.763 422.894 105.834Z" fill="black"/>
<path d="M423.161 115.508C421.811 115.508 420.775 114.438 420.722 113.124C420.686 111.811 421.74 110.71 423.078 110.669C424.41 110.633 425.522 111.698 425.558 113.053C425.617 114.414 424.492 115.508 423.161 115.508Z" fill="black"/>
<path d="M422.936 125.188C421.598 125.123 420.562 124.004 420.622 122.685C420.693 121.372 421.788 120.324 423.12 120.348C424.463 120.378 425.529 121.496 425.458 122.851C425.399 124.206 424.274 125.253 422.936 125.188Z" fill="black"/>
<path d="M422.307 134.852C420.975 134.734 419.975 133.568 420.075 132.255C420.176 130.941 421.336 129.941 422.668 130.024C424 130.113 425.001 131.279 424.9 132.622C424.799 133.977 423.639 134.97 422.307 134.852Z" fill="black"/>
<path d="M421.271 144.475C419.933 144.31 419.04 143.109 419.164 141.795C419.3 140.482 420.49 139.529 421.822 139.665C423.148 139.801 424.113 141.008 423.971 142.351C423.846 143.7 422.585 144.641 421.271 144.475Z" fill="black"/>
<path d="M419.969 154.073C418.655 153.878 417.744 152.647 417.915 151.334C418.087 150.021 419.306 149.098 420.632 149.281C421.953 149.459 422.888 150.689 422.71 152.026C422.539 153.357 421.301 154.275 419.969 154.073Z" fill="black"/>
<path d="M418.399 163.624C417.085 163.388 416.191 162.133 416.404 160.826C416.618 159.518 417.867 158.631 419.181 158.85C420.501 159.068 421.395 160.317 421.17 161.648C420.957 162.973 419.714 163.861 418.399 163.624Z" fill="black"/>
<path d="M416.524 173.124C415.215 172.84 414.369 171.562 414.623 170.261C414.884 168.965 416.157 168.119 417.465 168.373C418.779 168.628 419.631 169.912 419.365 171.231C419.099 172.562 417.826 173.408 416.524 173.124Z" fill="black"/>
<path d="M414.322 182.554C413.026 182.229 412.221 180.922 412.528 179.632C412.83 178.342 414.139 177.543 415.435 177.845C416.737 178.147 417.542 179.454 417.229 180.768C416.921 182.081 415.619 182.88 414.322 182.554Z" fill="black"/>
<path d="M411.778 191.896C410.493 191.517 409.741 190.18 410.102 188.908C410.457 187.636 411.789 186.885 413.08 187.234C414.376 187.583 415.122 188.92 414.761 190.222C414.394 191.523 413.062 192.275 411.778 191.896Z" fill="black"/>
<path d="M408.858 201.126C407.597 200.694 406.899 199.321 407.313 198.073C407.721 196.818 409.089 196.126 410.367 196.529C411.64 196.931 412.333 198.298 411.913 199.581C411.486 200.865 410.119 201.558 408.858 201.126Z" fill="black"/>
<path d="M405.52 210.212C404.277 209.721 403.649 208.324 404.123 207.094C404.59 205.863 405.993 205.236 407.248 205.692C408.503 206.147 409.131 207.543 408.651 208.809C408.16 210.076 406.763 210.703 405.52 210.212Z" fill="black"/>
<path d="M401.748 219.128C400.535 218.572 399.978 217.146 400.511 215.945C401.038 214.744 402.476 214.182 403.708 214.702C404.939 215.217 405.495 216.643 404.945 217.885C404.394 219.122 402.962 219.678 401.748 219.128Z" fill="black"/>
<path d="M397.504 227.826C396.32 227.205 395.846 225.755 396.444 224.578C397.042 223.407 398.498 222.933 399.706 223.513C400.908 224.099 401.381 225.548 400.766 226.761C400.15 227.968 398.688 228.447 397.504 227.826Z" fill="black"/>
<path d="M392.768 236.267C391.625 235.575 391.234 234.096 391.903 232.966C392.572 231.836 394.058 231.445 395.224 232.096C396.39 232.747 396.781 234.226 396.089 235.398C395.396 236.569 393.91 236.96 392.768 236.267Z" fill="black"/>
<path d="M387.523 244.402C386.422 243.639 386.132 242.142 386.866 241.053C387.6 239.97 389.11 239.675 390.234 240.391C391.359 241.106 391.655 242.609 390.891 243.739C390.128 244.863 388.618 245.165 387.523 244.402Z" fill="black"/>
<path d="M381.757 252.18C380.709 251.346 380.519 249.831 381.324 248.796C382.129 247.761 383.657 247.565 384.734 248.358C385.811 249.151 386.007 250.666 385.166 251.742C384.326 252.819 382.798 253.014 381.757 252.18Z" fill="black"/>
<path d="M375.477 259.544C374.494 258.639 374.405 257.119 375.281 256.143C376.157 255.166 377.696 255.078 378.715 255.941C379.739 256.799 379.827 258.326 378.916 259.343C377.998 260.361 376.459 260.45 375.477 259.544Z" fill="black"/>
<path d="M368.699 266.454C367.782 265.484 367.799 263.958 368.747 263.047C369.688 262.136 371.227 262.153 372.186 263.088C373.145 264.023 373.121 265.543 372.145 266.496C371.156 267.443 369.617 267.425 368.699 266.454Z" fill="black"/>
<path d="M361.447 272.862C360.601 271.827 360.731 270.312 361.737 269.472C362.744 268.632 364.277 268.762 365.171 269.762C366.059 270.756 365.929 272.276 364.881 273.152C363.827 274.028 362.294 273.898 361.447 272.862Z" fill="black"/>
<path d="M353.757 278.749C352.981 277.661 353.218 276.158 354.29 275.395C355.355 274.632 356.882 274.874 357.699 275.927C358.516 276.986 358.28 278.483 357.173 279.282C356.06 280.075 354.532 279.838 353.757 278.749Z" fill="black"/>
<path fill-rule="evenodd" clip-rule="evenodd" d="M138.475 452.628C138.475 452.628 156.364 348.705 162.319 308.704C168.742 265.597 168.109 243.387 166.795 238.139C163.989 226.933 152.818 209 152.818 209C152.818 209 168.428 210.509 170.796 200.995C173.158 191.476 171.832 145.872 170.796 142.251C168.949 135.832 160.36 133.223 160.36 133.223C160.36 133.223 156.222 129.3 156.915 124.656C157.601 120.011 161.644 95.7835 157.288 84.7138C152.931 73.6441 139.398 59.2909 123.658 66.1894C107.917 73.088 92.6322 85.0333 92.3599 92.4407C92.0935 99.8481 94.4259 108.06 88.7311 111.9C83.0363 115.734 75.684 116.816 73.9199 124.934C72.1618 133.051 72.3808 133.495 71.1258 134.246C69.8768 134.998 56.439 141.092 54.6394 148.026C52.8398 154.96 53.6449 162.722 53.71 163.107C53.7751 163.491 70.1964 165.248 70.1964 165.248C70.1964 165.248 65.6382 168.899 66.467 171.112C67.3017 173.324 68.8882 172.413 68.8882 172.413C68.8882 172.413 65.6678 175.638 66.6564 176.507C67.6391 177.377 70.3799 177.531 70.3799 177.531C70.3799 177.531 67.9469 180.282 68.8882 181.069C69.8353 181.856 73.174 182.187 73.174 182.187C73.174 182.187 71.7237 183.134 72.4282 184.145C73.1326 185.157 74.0087 184.986 74.0087 184.986C74.0087 184.986 69.8472 193.659 74.944 199.226C78.5669 203.191 83.3738 202.847 88.5417 202.114C94.5739 201.256 100.742 199.599 100.742 199.599C100.742 199.599 81.2722 216.153 77.454 242.05C73.6417 267.946 84.2262 345.268 87.2393 358.793C90.2525 372.318 117.14 446.581 117.14 446.581C117.14 446.581 117.584 457.455 115.648 467.62C113.712 477.784 110.782 489.7 108.106 493.877C105.425 498.048 101.731 501.823 101.21 504.118C100.689 506.414 98.5401 509.224 101.305 509.887C104.069 510.555 127.292 510.727 127.292 510.727L128.784 508.863L130.181 510.26L133.07 509.514L134.751 505.136L144.998 504.858C144.998 504.858 150.054 495.326 150.213 492.102C150.367 488.878 149.006 481.677 149.006 481.677L154.872 489.493L158.88 484.843C158.88 484.843 154.825 477.778 154.967 474.879C155.109 471.98 153.546 465.425 150.219 461.757C146.881 458.088 138.475 452.628 138.475 452.628Z" fill="white"/>
<path fill-rule="evenodd" clip-rule="evenodd" d="M118.666 96.9219C119.75 96.9219 120.62 97.7975 120.62 98.8802V101.395C120.62 102.471 119.744 103.347 118.666 103.347C117.589 103.347 116.707 102.471 116.707 101.395V98.8802C116.713 97.7975 117.589 96.9219 118.666 96.9219Z" fill="black"/>
<path fill-rule="evenodd" clip-rule="evenodd" d="M132.27 94.3164C133.353 94.3164 134.229 95.192 134.229 96.2747V98.7892C134.229 99.866 133.353 100.748 132.27 100.748C131.193 100.748 130.316 99.8719 130.316 98.7892V96.2747C130.311 95.192 131.187 94.3164 132.27 94.3164Z" fill="black"/>
<path fill-rule="evenodd" clip-rule="evenodd" d="M161.449 133.973C161.449 133.973 157.358 132.559 151.297 133.133C145.229 133.707 142.476 137.115 140.86 131.181C139.25 125.241 139.836 114.141 139.836 114.141L143.559 108.095C143.559 108.095 148.082 108.089 149.521 105.207C150.959 102.332 151.267 96.0606 148.124 96.457C144.98 96.8534 142.441 98.8769 142.441 98.8769C142.441 98.8769 137.32 92.067 127.813 88.7302C118.306 85.3933 113.097 83.4231 113.097 83.4231C113.097 83.4231 105.277 103.811 112.161 111.538C119.052 119.265 123.059 120.756 123.059 120.756C123.059 120.756 125.753 132.683 123.9 133.322C122.041 133.961 108.941 134.109 103.779 134.157C98.6169 134.21 91.2231 135.559 88.6895 140.487C86.1558 145.416 80.9583 161.709 80.9583 161.709L72.9489 164.407L53.9466 164.035C53.9466 164.035 50.969 151.214 57.5754 144.392C64.4541 137.292 71.4039 135.02 73.1324 132.476C75.0327 129.672 70.9303 125.661 75.9265 120.839C80.9228 116.017 91.9394 111.556 92.7859 106.687C93.6325 101.823 90.0451 91.7121 96.3259 84.8076C102.601 77.909 120.727 62.8221 130.234 64.5142C139.735 66.2063 155.434 71.3418 157.802 85.4584C160.17 99.575 158.921 115.141 158.548 119.809C158.175 124.483 157.175 125.424 158.175 127.441C159.188 129.477 161.449 133.973 161.449 133.973Z" fill="#EC663D"/>
<path fill-rule="evenodd" clip-rule="evenodd" d="M136.522 204.473C134.1 203.727 131.585 203.449 129.069 202.893C124.593 202.053 120.497 201.124 116.122 200.568C111.185 200.006 106.438 198.609 101.406 198.982C99.8252 199.077 98.5169 200.378 96.9363 200.378C98.5169 200.378 99.8252 199.077 101.406 198.982C106.438 198.609 111.191 200.006 116.122 200.568C120.497 201.13 124.599 202.059 129.069 202.893C131.585 203.449 134.1 203.727 136.522 204.473C142.068 206.182 147.822 206.543 153.357 207.975C153.304 207.886 157.472 208.934 164.67 207.886C171.862 206.839 172.454 192.344 171.839 182.475C171.229 172.607 171.845 148.444 169.607 139.374C167.363 130.304 150.51 133.321 150.51 133.321C150.51 133.321 140.269 146.622 131.324 149.799C122.373 152.976 117.194 150.668 114.281 145.515C111.363 140.362 115.211 134.718 115.211 134.718C115.211 134.718 101.429 132.322 93.4141 135.741C85.3988 139.161 80 162.643 80 162.643C80 162.643 85.6592 159.833 90.3418 165.158C95.0243 170.483 99.7482 181.73 99.7482 181.73L86.8906 184.15L85.31 181.913L72.547 186.007C72.547 186.007 71.6709 194.705 73.6659 198.39C75.6608 202.076 78.5556 201.994 84.3806 202.112C90.2056 202.236 100.494 199.876 100.494 199.876C100.494 199.876 85.6178 214.744 79.1653 234.972C72.7128 255.2 77.863 286.238 82.5159 322.665C87.1747 359.093 88.1041 362.974 88.1041 362.974L152.842 365.021C152.842 365.021 168.08 267.542 168.867 251.07C169.625 235.161 154.393 209.667 153.369 207.963C147.828 206.543 142.068 206.188 136.522 204.473ZM143.714 175.115C146.443 174.89 151.534 176.701 151.534 176.701L151.256 187.966L138.682 190.107C138.682 190.107 139.328 186.173 139.144 182.659C138.961 179.144 134.769 176.979 134.769 176.979C134.769 176.979 140.979 175.346 143.714 175.115Z" fill="#223549"/>
<path fill-rule="evenodd" clip-rule="evenodd" d="M155.926 209.823C158.519 214.745 161.094 219.768 163.379 225.182C165.628 230.512 167.996 236.163 168.872 242.588C169.843 249.682 169.097 257.225 168.499 264.366C166.753 285.352 163.781 305.255 160.958 325.524C159.199 338.168 157.104 350.332 154.908 362.479C154.772 363.206 154.843 363.981 154.718 364.715C154.582 365.555 154.132 366.383 153.972 367.229C148.875 394.652 144.773 423.814 139.907 451.562C140.872 452.775 142.293 453.598 143.542 454.633C144.72 455.609 145.886 456.656 147.082 457.71C150.379 460.614 154.529 463.614 155.464 469.341C155.766 471.205 155.784 473.246 156.299 475.116C156.766 476.802 157.56 478.21 158.347 479.766C159.123 481.304 160.301 483.44 159.928 485.256C159.697 486.386 158.909 487.546 157.879 488.611C157.015 489.499 155.588 490.936 154.529 490.842C153.522 490.753 153.108 489.422 152.67 488.611C152.119 487.599 151.693 486.801 151.178 486.002C152.723 491.883 149.971 497.527 147.922 501.917C147.431 502.97 146.366 505.893 145.312 506.106C142.393 506.686 138.771 506.035 135.349 506.384C134.733 507.875 135.337 509.804 134.23 510.762C133.141 511.697 129.719 511.265 128.458 511.318C127.564 511.91 126.345 511.786 125.197 511.786C119.336 511.786 113.233 512.224 106.851 511.969C104.081 511.863 100.233 512.111 99.3096 510.389C98.173 508.277 100.115 504.307 101.08 502.574C102.346 500.284 103.927 498.497 105.176 496.521C106.496 494.439 107.899 492.415 108.905 490.102C109.93 487.735 110.746 485.185 111.415 482.47C112.7 477.305 113.819 471.341 114.772 465.531C115.429 461.502 115.855 456.443 116.074 451.568C116.151 449.888 116.376 447.924 116.169 446.634C116.009 445.664 115.234 444.403 114.772 443.191C108.154 425.637 101.541 407.875 95.2131 390.227C91.7915 380.672 88.6185 371.087 86.369 360.349C84.1491 349.77 82.6396 338.541 81.1537 326.933C79.7152 315.703 78.3241 304.054 77.0573 292.304C75.7727 280.388 74.4467 268.407 74.4467 256.278C74.4467 250.285 75.6662 244.659 76.9626 239.428C78.259 234.222 79.8514 229.311 81.6214 224.815C83.4506 220.17 85.4396 215.591 88.0443 211.876C90.7023 208.089 93.8812 204.989 96.8943 201.634C90.8858 202.788 84.5754 204.841 78.7326 203.403C73.0082 201.995 70.3739 197.428 70.9067 190.003C70.9955 188.807 71.3092 187.648 71.5579 186.648C71.8302 185.583 72.1202 184.731 71.4631 183.672C68.5388 183.749 66.5675 180.921 68.0179 178.365C65.8868 178.288 65.4073 175.111 66.7155 173.709C65.4842 172.857 64.9278 170.585 65.6914 168.964C66.2775 167.715 67.8935 167.254 68.669 166.449C65.4073 166.177 60.5472 165.976 56.5632 165.704C55.1247 165.603 53.1297 165.674 52.5555 165.053C51.6261 164.047 51.7978 160.74 51.7208 159.095C51.6261 157.149 51.6853 154.616 51.9991 152.859C52.6858 149.025 54.3906 146.108 56.285 143.736C59.4402 139.784 62.6605 137.257 67.6508 134.891C69.1722 134.169 71.2145 133.335 71.5579 132.098C71.99 130.56 71.2441 129.146 71.2796 127.442C71.3388 124.401 72.8424 121.745 74.352 119.905C78.993 114.243 89.69 113.391 91.4896 105.196C91.7915 103.812 91.4659 101.658 91.3949 99.9839C91.1995 95.1265 91.3179 90.701 92.9754 87.234C94.9112 83.1694 99.055 79.9982 102.382 77.2707C105.845 74.4367 109.616 71.6087 113.653 69.0824C117.146 66.8933 122.485 63.6629 127.624 63.3079C131.963 63.0121 135.307 63.8167 138.427 64.8935C141.494 65.9526 144.282 67.3607 146.715 68.9877C151.664 72.3009 155.825 76.5667 157.986 82.3884C159.099 85.3821 159.762 88.8373 160.318 92.4405C161.775 101.93 160.218 111.61 159.199 120.833C158.986 122.756 158.619 124.916 158.827 126.608C159.158 129.3 161.159 130.743 162.367 132.938C165.699 134.151 168.269 135.725 170.187 138.34C172.17 141.032 172.519 144.635 172.791 148.948C173.596 161.615 173.354 174.744 173.354 188.044C173.354 192.487 173.466 196.972 172.424 200.333C170.275 207.213 165.889 211.284 155.926 209.823ZM156.299 128.004C155.849 126.348 156.08 123.922 156.299 121.863C156.855 116.633 157.601 111.125 157.974 106.131C158.525 98.7533 157.856 91.6358 156.015 85.3762C154.251 79.3533 150.859 75.4603 146.141 72.0642C141.855 68.9818 136.148 65.8461 128.914 66.0176C125.031 66.1064 121.621 67.8517 118.667 69.461C112.629 72.7565 107.869 76.2472 102.832 80.4478C100.6 82.3115 97.8533 84.6426 96.1307 87.1512C94.6507 89.2929 94.1298 92.192 94.0824 95.5288C94.0292 98.8953 94.6034 102.463 94.1772 105.581C93.7746 108.486 91.6435 111.373 89.7018 113.03C86.3986 115.858 81.3373 117.662 77.596 120.478C75.9621 121.709 74.204 124.886 74.056 127.276C73.9258 129.406 74.7308 131.749 74.056 133.418C73.8014 134.051 73.2391 134.79 72.6589 135.281C70.4686 137.133 67.6449 137.82 65.1172 139.281C62.8322 140.6 60.7544 142.606 58.9666 144.683C55.4207 148.818 53.3192 154.948 54.7754 162.834C60.0499 163.302 65.8098 163.325 70.9777 163.763C71.6052 163.816 72.1913 164.018 72.7477 164.231C74.8137 163.1 77.1402 162.231 79.5495 161.438C80.0349 158.574 81.1597 155.752 82.0595 152.871C82.9652 150.001 83.7703 147.049 84.9483 144.399C87.1149 139.535 91.1759 134.707 96.5865 133.323C100.357 132.359 105.756 132.773 109.995 132.95C114.565 133.146 119.123 133.56 122.941 132.394C123.45 128.477 122.32 124.655 121.822 121.129C115.192 119.212 110.237 114.71 108.503 107.817C106.484 99.7828 109.367 91.8311 111.202 85.1987C109.977 84.8497 108.379 84.8437 108.408 83.4297C108.456 81.43 111.605 82.5008 112.783 82.7789C114.778 83.2522 116.293 83.6545 117.909 84.0805C128.15 86.8021 137.148 90.9673 143.335 97.0198C147.822 94.2568 152.114 97.5759 152.09 101.581C152.072 104.504 149.953 107.255 147.993 108.285C147.171 108.717 146.164 108.782 145.294 109.308C144.584 109.74 143.56 111.201 142.873 112.006C142.151 112.852 140.795 114.148 140.635 114.982C140.434 116.065 140.813 117.84 140.919 119.171C141.144 122.076 141.417 124.632 141.754 127.271C141.926 128.614 141.908 130.063 142.405 131.087C143.844 134.051 148.331 133.128 151.906 132.666C154.061 132.388 156.109 132.329 158.424 132.388C157.791 130.897 156.749 129.679 156.299 128.004ZM112.061 92.4464C111.498 94.6828 110.835 96.9074 110.664 99.1497C110.267 104.273 111.167 108.835 113.647 112.367C114.819 114.047 116.098 115.207 117.838 116.372C119.567 117.526 122 118.905 124.729 118.698C126.085 118.597 130.915 115.887 130.595 118.887C130.412 120.561 126.398 121.1 124.634 121.401C125.025 124.608 126.227 128.75 125.848 132.104C125.386 136.246 120.325 135.548 115.974 135.92C115.393 138.352 113.902 140.488 114.393 143.736C114.79 146.363 117.631 149.144 119.697 149.972C122.355 151.031 126.351 150.262 129.015 149.505C134.585 147.913 138.149 145.257 141.772 141.967C143.666 140.245 145.495 138.376 147.177 136.66C147.342 136.488 147.733 136.216 147.638 135.914C143.447 135.885 140.908 134.666 139.818 131.909C138.954 129.72 138.865 126.466 138.605 123.626C138.475 122.206 138.35 120.686 138.232 119.254C138.107 117.733 137.764 116.094 137.948 114.692C138.19 112.852 139.895 111.332 140.931 110.131C141.997 108.888 142.968 107.403 144.004 106.871C145.01 106.356 146.371 106.297 147.36 105.569C148.503 104.723 149.675 102.771 149.314 100.824C148.875 98.4397 146.306 98.3687 144.376 99.4278C143.601 99.8538 142.642 100.368 142.145 100.729C141.594 101.12 140.25 103.362 139.161 103.055C137.877 102.694 138.978 97.8836 138.599 96.6352C136.426 94.6177 133.786 93.0676 130.962 91.7009C130.288 92.2748 129.364 92.8132 128.352 93.4699C127.446 94.0556 126.469 95.1206 125.463 95.0496C124.847 95.0082 124.232 94.4284 124.249 93.6533C124.291 91.9257 127.345 91.411 128.068 90.3934C123.752 88.4705 119.005 86.9796 113.914 85.8318C113.138 87.731 112.641 90.133 112.061 92.4464ZM150.805 206.379C154.422 207.018 161.277 208.213 164.776 206.563C167.754 205.16 169.595 201.463 170.269 197.907C170.648 195.895 170.53 193.47 170.642 191.02C170.743 188.665 170.642 186.145 170.642 183.761C170.642 174.081 170.494 164.142 170.269 154.906C170.169 150.611 170.311 144.706 168.967 141.594C167.635 138.518 163.598 135.459 159.75 135.08C158.092 134.915 155.796 134.986 154.44 135.08C153.884 135.122 152.711 135.193 152.297 135.358C151.705 135.601 150.941 136.713 150.249 137.405C148.064 139.589 146.052 141.636 143.915 143.641C141.215 146.174 137.965 149.025 134.135 150.623C130.216 152.256 124.978 153.948 120.259 152.948C116.388 152.131 112.824 148.913 111.782 144.665C110.995 141.434 112.292 138.482 113.085 135.82C108.089 135.826 102.264 134.974 97.8119 135.82C92.8926 136.755 89.1276 141.647 87.3813 145.688C85.2976 150.504 84.1432 155.977 82.3554 160.953C84.5517 160.604 86.6532 161.184 88.0384 162.071C91.0989 164.041 93.1826 167.431 95.2072 170.632C97.3146 173.957 99.2326 177.519 100.795 180.873C102.086 180.672 103.335 180.436 104.708 180.317C104.442 179.217 103.945 178.347 103.59 177.335C99.0609 174.567 94.5501 169.609 95.1125 161.882C95.2309 160.261 95.6038 158.568 96.326 157.042C96.9062 155.806 99.1971 152.486 100.701 152.67C101.458 152.759 101.784 153.344 101.82 153.877C101.873 154.782 100.831 155.569 100.422 156.019C99.4872 157.06 98.8301 157.912 98.463 159C96.4326 164.97 99.3747 170.662 102.838 173.425C103.661 174.081 105.288 174.785 105.916 175.75C106.792 177.105 106.549 178.116 107.497 179.844C117.436 178.578 127.801 176.371 137.391 174.442C141.529 173.614 146.738 172.679 150.059 174.632C150.059 170.39 150.059 165.319 150.059 160.763C150.059 159.19 149.829 157.45 151.362 157.415C152.788 157.379 152.759 158.728 152.759 160.58C152.759 168.609 152.664 175.833 153.037 183.199C153.15 185.405 154.162 190.63 152.202 190.831C151.279 190.925 150.93 189.943 150.432 189.902C149.911 189.855 148.911 190.281 148.106 190.458C135.852 193.197 123.865 195.842 111.782 198.558C124.676 201.232 137.308 204.001 150.805 206.379ZM89.7078 167.283C87.9082 165.082 86.3809 163.118 82.4443 163.467C78.188 163.84 73.8133 166.431 70.7113 168.307C69.6517 168.952 67.8995 169.467 67.9172 171.1C68.4559 171.295 69.3912 170.887 69.8767 171.005C72.2505 169.703 75.826 168.603 78.8214 167.656C80.0053 167.277 83.1428 165.745 83.1073 168.029C83.0836 169.336 80.8045 169.674 79.5673 170.076C78.2294 170.514 76.5896 171.058 75.3761 171.472C72.5287 172.448 69.7464 173.395 68.5743 175.844C71.8302 175.986 73.8902 174.922 76.9567 173.892C77.8742 173.584 78.9279 173.152 80.029 172.774C81.3728 172.318 84.4806 170.898 84.4096 173.147C84.3682 174.377 82.3673 174.75 81.6155 175.01C77.8505 176.3 74.5651 177.442 70.9008 178.454C70.7587 179.205 69.8944 179.477 70.0661 180.317C70.3562 181.737 72.9964 180.394 74.0737 180.039C76.6133 179.199 78.6556 178.548 81.059 177.714C82.4442 177.229 85.6823 175.56 85.6231 177.897C85.5995 178.85 84.4688 179.252 83.2967 179.667C79.8692 180.885 77.0573 181.773 73.8902 182.832C74.0205 183.287 74.1507 183.749 74.352 184.133C77.1342 183.548 80.5203 182.394 83.3855 181.436C84.8832 180.933 86.9906 179.856 87.3931 181.53C87.5293 182.098 87.1623 182.471 87.2096 182.832C90.8384 182.299 94.485 181.791 98.1019 181.252C95.8406 176.472 93.005 171.318 89.7078 167.283ZM136.924 177.335C139.842 179.678 141.867 184.595 140.28 189.435C143.731 188.76 146.845 187.742 150.527 187.293C150.426 184.104 150.154 181.086 150.154 177.797C146.999 175.217 141.002 176.365 136.924 177.335ZM137.302 182.181C136.485 180.595 134.621 178.661 133.295 178.087C133.188 178.039 133.022 178.158 132.922 178.181C120.905 180.779 104.945 183.163 91.6613 184.974C90.205 185.175 86.6769 186.062 85.6054 185.441C84.8891 185.021 85.1259 184.092 85.0489 183.577C81.574 184.731 78.188 185.968 74.3342 186.743C73.1976 190.133 73.3456 195.647 75.0801 198.191C76.5837 200.398 80.5499 201.551 84.3978 201.262C86.5762 201.096 88.879 200.498 91.0989 200.055C106.49 196.96 122.331 193.434 137.012 190.186C138.078 187.76 138.563 184.636 137.302 182.181ZM163.746 283.825C164.604 277.128 165.315 270.324 165.889 263.159C166.469 256.03 167.132 248.398 165.889 241.659C163.568 229.063 157.678 219.307 152.481 209.456C136.42 206.645 120.964 203.226 105.354 199.96C104.477 199.96 103.276 200.427 102.187 200.516C97.8829 204.604 93.674 208.533 90.2642 213.455C86.8722 218.36 84.5339 224.424 82.4443 230.583C80.3013 236.884 78.4958 243.304 77.6019 250.599C76.7199 257.775 77.4066 266.153 78.0696 274.146C79.3127 289.192 80.9998 304.29 82.9119 319.105C84.824 333.938 86.4815 348.675 89.5242 362.295C110.285 362.68 131.122 362.981 152.019 363.224C156.838 338.085 160.306 310.645 163.746 283.825ZM90.2642 365.277C93.4845 378.494 98.2203 390.706 102.654 402.882C107.088 415.064 111.646 427.092 116.252 439.274C116.773 414.845 116.968 390.102 117.276 365.46C108.213 365.366 99.2681 365.153 90.2642 364.993C90.1458 364.999 90.1458 365.253 90.2642 365.277ZM119.975 365.833C119.851 377.181 119.721 388.771 119.602 400.367C119.484 411.91 119.496 423.489 119.04 434.807C118.809 440.67 119.005 446.415 118.762 451.935C118.519 457.431 117.927 462.662 117.087 467.762C115.565 477.009 113.872 486.694 110.196 493.64C109.989 494.031 109.568 494.439 109.639 494.942C114.695 493.539 118.46 497.083 123.794 496.433C125.096 496.273 126.12 495.569 126.961 494.853C128.66 493.403 130.063 491.682 132.081 489.451C132.886 488.564 133.745 487.706 134.597 486.659C135.296 485.801 136.734 484.369 136.829 483.588C136.888 483.138 136.616 482.47 136.545 481.819C136.053 477.175 135.639 472.708 135.432 468.134C135.177 462.768 135.965 457.627 136.924 452.87C138.8 443.546 140.209 433.517 141.766 423.921C144.957 404.219 147.911 385.133 151.451 365.928C141.038 365.75 130.524 365.685 120.064 365.555C119.964 365.567 119.969 365.703 119.975 365.833ZM138.232 469.43C139.149 464.892 140.943 461.218 142.701 457.514C141.535 456.639 140.523 455.597 139.256 454.816C138.415 459.135 137.681 464.324 138.232 469.43ZM157.228 484.606C157.353 483.476 156.109 481.452 155.458 480.139C154.748 478.701 154.103 477.275 153.688 475.672C152.93 472.737 153.078 468.193 151.267 465.62C149.515 463.129 146.774 461.265 144.933 459.473C143.565 462.354 141.837 465.638 141.02 469.43C140.635 471.223 140.387 473.211 140.091 475.204C139.795 477.163 139.25 479.269 139.25 481.156C139.256 482.334 139.528 483.588 139.623 484.783C139.925 488.564 140.274 492.782 138.972 495.953C138.475 497.166 137.51 498.125 137.012 499.308C136.42 500.734 136.385 502.148 135.899 503.68C138.617 503.574 141.44 503.58 144.187 503.497C145.507 499.663 148.579 495.622 148.935 490.93C149.071 489.155 148.651 487.197 148.284 485.529C147.893 483.73 146.324 479.328 149.029 479.299C150.711 479.275 151.752 481.736 152.475 482.925C153.44 484.505 154.31 485.872 155.085 487.392C155.837 486.718 157.086 485.978 157.228 484.606ZM131.335 494.38C129.37 496.551 127.411 498.539 124.445 499.13C120.301 499.953 116.998 497.758 112.99 497.456C110.847 497.29 109.267 497.894 107.402 498.202C105.188 501.444 102.465 504.189 101.719 508.904C109.521 509.62 118.649 509.212 126.676 508.999C128.02 506.491 129.636 502.964 131.057 499.971C131.673 498.675 132.519 496.598 134.035 497.829C134.242 498 134.36 498.397 134.502 498.296C136.261 495.865 137.634 492.551 137.012 488.055C135.302 490.256 133.389 492.12 131.335 494.38ZM133.756 500.71C133.099 502.012 132.531 503.237 131.898 504.526C131.3 505.727 130.341 507.059 130.501 508.62C131.158 508.691 131.537 508.478 132.176 508.526C132.655 505.999 133.401 502.74 133.756 500.71Z" fill="black"/>
<path fill-rule="evenodd" clip-rule="evenodd" d="M119.785 107.242C119.88 107.828 120.43 108.124 120.341 108.828C120.069 111.123 116.594 109.183 116.523 107.71C116.482 106.87 117.63 105.615 118.104 104.822C118.648 103.917 119.347 102.84 119.501 101.846C119.88 99.3497 118.725 96.498 116.429 96.072C115.043 95.8176 112.255 97.3855 112.143 95.2378C112.066 93.7942 114.226 93.3209 115.683 93.2795C119.939 93.1671 122.656 97.5038 122.2 101.935C121.993 104.047 120.714 105.544 119.785 107.242Z" fill="black"/>
<path fill-rule="evenodd" clip-rule="evenodd" d="M128.73 109.296C129.061 109.272 129.973 109.396 130.127 110.224C130.376 111.55 128.481 112.745 127.055 113.295C125.823 113.768 123.047 114.046 123.047 112.272C123.047 110.804 124.645 111.183 125.936 110.781C126.972 110.461 127.504 109.39 128.73 109.296Z" fill="black"/>
<path fill-rule="evenodd" clip-rule="evenodd" d="M379.4 362.634L369.994 251.476C369.994 251.476 374.244 243.299 374.653 233.88C375.061 224.461 363.755 193.85 363.755 193.85C363.755 193.85 367.111 129.005 362.92 116.859C360.084 108.659 330.693 102.523 330.693 102.523C330.693 102.523 330.142 101.683 328.734 98.8907C327.325 96.0982 325.004 93.489 325.004 93.489L324.542 82.9696C324.542 82.9696 326.419 82.6205 330.409 79.1535C334.399 75.6806 336.186 67.8886 336.186 67.8886C336.186 67.8886 336.654 68.4507 338.608 66.7704C340.561 65.0961 340.839 59.8482 340.378 57.4638C339.916 55.0736 336.749 57.6473 336.749 57.6473C336.749 57.6473 336.891 51.2516 336.281 46.7551C335.671 42.2586 333.86 38.6555 333.86 38.6555L336.376 31.1179L330.231 28.2307L336.287 22.0835C336.287 22.0835 334.103 21.0363 327.999 21.7108C321.89 22.3853 315.704 25.2488 315.704 25.2488L314.307 21.9889C314.307 21.9889 295.974 29.8637 290.368 37.0699C284.762 44.2702 293.345 64.0666 293.345 64.0666C293.345 64.0666 292.013 66.5811 292.132 69.1843C292.25 71.7875 296.199 74.018 298.188 73.6512C300.177 73.2903 301.911 73.6512 301.911 73.6512L306.387 78.3075L303.687 88.5488L298.845 93.0157C298.845 93.0157 277.445 100.21 272.762 102.139C268.08 104.068 263.03 110.895 261.864 116.942C260.698 122.988 259.076 184.306 259.254 195.885C259.437 207.463 262.462 209.942 268.104 215.527C273.745 221.113 298.377 241.779 298.377 241.779L298.194 508.125L361.257 508.959C361.257 508.959 362.287 505.048 361.162 500.487C360.037 495.925 347.842 479.726 347.842 479.726C347.842 479.726 354.703 459.64 365.353 424.709C374.896 393.376 379.4 362.634 379.4 362.634ZM297.359 206.446L288.977 197.228L290.658 174.237C290.658 174.237 294.103 176.645 296.708 184.661C299.312 192.678 297.359 206.446 297.359 206.446Z" fill="white"/>
<path fill-rule="evenodd" clip-rule="evenodd" d="M363.679 190.8C363.679 190.8 368.267 123.927 362.093 114.928C357.292 107.929 331.547 102.456 331.547 102.456L332.009 106.272C332.009 106.272 333.489 108.526 333.406 110.278C333.323 112.023 332.754 118.353 329.777 119.584C326.799 120.815 316.043 118.845 308.91 113.721C301.782 108.597 290.748 96.6875 290.748 96.6875C290.748 96.6875 280.649 98.4565 269.325 104.882C258 111.301 261.155 141.019 260.291 174.613C259.403 209.047 261.481 207.289 271.373 216.88C281.271 226.465 301.557 243.687 301.557 243.687C301.557 243.687 308.673 237.505 310.496 233.263C312.32 229.02 312.077 226.376 312.077 226.376L305.37 216.785L313.101 220.323C313.101 220.323 342.623 231.275 349.241 232.706C355.859 234.138 366.473 227.216 366.473 227.216C366.473 227.216 367.409 234.209 367.687 238.013C367.959 241.824 370.943 250.207 370.943 250.207C370.943 250.207 374.471 240.522 374.761 232.89C375.057 225.246 363.679 190.8 363.679 190.8ZM297.36 206.443L288.978 197.226L290.659 174.234C290.659 174.234 294.105 176.642 296.709 184.659C299.314 192.676 297.36 206.443 297.36 206.443Z" fill="white"/>
<path fill-rule="evenodd" clip-rule="evenodd" d="M303.31 245.617L304.523 252.321L303.126 474.82C303.126 474.82 301.694 476.494 301.729 479.938C301.747 481.6 302.659 484.405 302.659 484.405L303.31 245.617Z" fill="white"/>
<path d="M302.659 485.569C302.167 485.569 301.712 485.255 301.552 484.764C301.451 484.462 300.581 481.735 300.563 479.948C300.534 477.031 301.481 475.191 301.96 474.44L303.357 252.414L302.162 245.817C302.049 245.184 302.463 244.58 303.097 244.462C303.736 244.355 304.34 244.77 304.452 245.403L305.666 252.106C305.678 252.177 305.684 252.248 305.684 252.319L304.287 474.819C304.287 475.091 304.186 475.357 304.008 475.564C303.967 475.605 302.86 477.008 302.89 479.913C302.901 481.131 303.523 483.303 303.766 484.036C303.961 484.646 303.63 485.302 303.02 485.498C302.901 485.551 302.777 485.569 302.659 485.569Z" fill="black"/>
<path fill-rule="evenodd" clip-rule="evenodd" d="M337.708 308.738L346.185 368.228L328.047 459.625L337.708 308.738Z" fill="white"/>
<path d="M328.053 460.786C327.976 460.786 327.905 460.78 327.828 460.762C327.201 460.638 326.786 460.023 326.911 459.396L345.007 368.188L336.56 308.893C336.471 308.254 336.909 307.668 337.548 307.574C338.188 307.485 338.774 307.929 338.863 308.562L347.34 368.046C347.357 368.176 347.352 368.306 347.328 368.436L329.19 459.833C329.077 460.407 328.592 460.786 328.053 460.786Z" fill="black"/>
<path fill-rule="evenodd" clip-rule="evenodd" d="M292.352 64.4968C292.352 64.4968 294.063 62.5562 295.709 63.7514C297.36 64.9524 298.876 65.7984 298.876 65.7984L297.852 48.203C297.852 48.203 296.449 41.5056 302.789 42.7066C309.129 43.9136 314.8 44.4934 318.808 41.7777C322.815 39.0562 326.669 36.4115 328.492 37.5889C330.321 38.7663 332.748 41.3931 333.524 44.1975C334.294 47.0019 335.199 53.9715 335.199 53.9715C335.199 53.9715 337.088 51.0961 336.135 46.9901C335.181 42.8841 333.897 40.4761 333.897 40.4761C333.897 40.4761 336.223 34.0508 335.483 32.6546C334.737 31.2642 330.173 30.0454 330.173 30.0454C330.173 30.0454 335.963 23.6143 335.199 22.8747C334.442 22.1351 327.498 22.4961 323.466 23.7148C319.435 24.9336 315.457 26.4127 315.457 26.4127L314.155 23.064C314.155 23.064 305.512 25.9808 300.184 29.2053C294.856 32.4357 287.587 36.4233 288.35 45.6826C289.114 54.9477 292.352 64.4968 292.352 64.4968Z" fill="#223549"/>
<path fill-rule="evenodd" clip-rule="evenodd" d="M320.66 99.1719L321.684 113.135L322.803 115.649L319.914 119.465C319.914 119.465 325.479 122.341 328.202 121.234C330.931 120.128 330.812 119.838 330.812 119.838L328.391 116.395L329.415 112.389L320.66 99.1719Z" fill="black"/>
<path fill-rule="evenodd" clip-rule="evenodd" d="M332.583 28.6256C334.069 29.0871 335.827 29.868 336.401 31.3235C336.887 32.5541 336.662 34.0391 336.401 35.4176C336.17 36.6483 335.46 37.9676 335.472 39.0444C335.484 40.0384 336.218 41.4761 336.591 42.7659C337.644 46.4341 338.183 51.0725 337.704 55.8885C338.461 56.0246 339.178 55.1549 340.219 55.5158C341.729 56.0424 342.386 58.971 342.173 61.5683C341.978 63.8935 340.415 67.1712 339.189 68.177C338.449 68.7864 337.094 69.1354 336.117 69.2005C335.235 75.9808 331.458 79.8678 326.989 83.0686C326.687 85.2341 326.415 87.1569 326.059 89.3992C325.953 90.056 325.621 90.8369 325.687 91.3517C325.763 91.9906 326.746 93.0083 327.178 93.6768C328.682 96.0316 330.15 98.5046 330.997 101.309C339.403 103.67 348.217 105.788 355.303 109.036C359.109 110.775 362.152 112.757 363.964 116.39C365.674 119.827 365.686 124.821 366.012 130.353C366.61 140.429 366.414 151.333 365.917 161.722C365.556 169.324 365.621 177.536 365.355 185.18C365.26 187.831 364.946 190.588 365.171 193.002C365.562 195.57 366.716 197.895 367.498 200.261C369.806 207.225 372.044 214.698 373.921 221.856C374.542 224.205 375.199 226.826 375.602 229.583C376.43 235.334 374.891 241.091 373.648 245.871C373.21 247.557 372.725 249.51 372.068 251.267C371.849 251.841 371.452 252.308 371.416 252.758C371.328 253.793 371.718 255.172 371.878 256.479C372.938 265.171 373.648 274.59 374.394 283.287C376.2 304.338 377.976 324.01 379.331 345.374C379.994 355.864 381.291 366.644 379.704 376.838C378.976 381.512 377.751 386.061 376.626 390.522C373.323 403.627 369.084 416.555 365.171 429.34C362.561 437.86 359.938 446.427 357.251 454.94C354.581 463.401 352.1 471.915 348.685 479.884C351.864 484.404 354.616 488.268 357.718 492.823C359.808 495.9 362.501 498.817 362.655 504.366C362.726 506.899 363.105 509.573 360.791 509.762C358.18 509.975 355.492 509.744 352.876 509.857C340.113 510.395 326.314 509.762 313.107 509.762C309.354 509.768 305.258 509.668 301.185 509.668C299.314 509.668 297.651 509.839 297.088 509.206C296.289 508.301 296.508 503.077 296.437 501.385C296.319 498.551 296.165 495.882 296.064 493.38C295.839 487.789 296.064 482.198 296.064 476.719C296.064 454.189 296.437 432.334 296.437 409.887C296.437 355.674 297.461 301.492 297.461 246.989C297.461 245.552 297.763 243.854 297.556 242.895C297.378 242.091 294.596 240.038 293.921 239.452C285.308 232.003 276.115 223.797 267.655 216.277C262.464 211.657 257.971 207.669 257.971 197.753C257.971 193.061 258.438 188.588 258.438 184.068C258.438 170.277 259.184 157.101 259.184 142.553C259.184 138.186 259.421 133.483 259.646 128.868C259.859 124.549 259.723 119.502 260.86 116.023C263.133 109.065 267.715 103.794 274.084 101.037C280.513 98.2561 287.735 96.4161 295.413 94.1501C296.508 93.8247 297.639 92.4817 298.669 91.5469C299.486 90.8073 300.516 90.0323 301.09 89.2217C301.404 88.7839 301.552 87.9911 301.925 87.3581C302.351 86.6363 302.919 86.5238 303.227 85.7725C304.097 83.6603 304.186 81.1991 305.092 79.1638C304.21 77.5959 302.807 76.5428 301.83 75.0696C300.392 75.7559 298.207 75.8979 296.709 75.2589C294.744 74.4188 290.92 70.6855 290.654 68.1829C290.494 66.6801 291.222 65.6506 291.772 64.4614C289.937 59.9176 288.783 54.7821 287.954 49.3804C287.492 46.3631 287.155 43.4877 287.859 40.8134C289.736 33.6723 295.289 29.3237 302.108 26.756C305.269 25.5668 308.442 23.8806 311.793 22.2891C312.746 21.8335 314.297 20.8455 315.143 21.1709C316.286 21.6146 315.558 23.1529 315.978 24.3362C320.252 22.863 325.402 20.804 331.251 20.4254C333.743 20.2656 336.691 20.3721 336.934 22.4725C337.266 25.1112 333.607 27.0045 332.583 28.6256ZM297.005 54.4094C296.709 49.7591 295.407 42.9315 299.332 41.5648C301.155 40.9318 304.162 41.6772 305.944 41.8429C307.927 42.0322 309.952 42.2215 311.905 42.2156C318.678 42.1979 321.507 37.3997 326.622 36.0744C331.482 34.8142 332.287 39.8491 333.702 42.405C334.057 42.7599 333.72 42.0973 333.702 42.0322C333.441 41.1093 332.891 40.0443 332.861 39.2397C332.784 37.0802 334.519 34.8674 334.075 32.3529C333.477 30.6312 328.942 31.3412 328.765 29.371C328.646 28.0517 330.588 26.9986 331.565 26.117C332.092 25.6319 332.542 25.0935 332.956 24.6261C333.412 24.1172 334.033 23.6025 333.98 23.0405C328.735 22.6559 323.739 24.3243 319.637 25.833C318.382 26.2945 316.41 27.5133 315.167 27.2293C314.096 26.9867 313.812 25.3952 313.302 24.4367C310.875 25.5313 308.531 26.7146 306.039 27.8801C303.618 29.0161 300.966 29.7674 298.586 31.1401C294.602 33.4416 290.079 38.086 290.02 44.0793C289.955 50.6525 292.175 56.7168 293.649 62.3256C294.288 62.1363 294.774 61.9588 295.419 62.0475C296.402 62.1777 297.142 63.1421 297.651 62.9764C297.361 60.0241 297.189 57.273 297.005 54.4094ZM301.291 71.3482C302.487 71.2476 304.168 73.8745 304.92 74.7915C306.021 76.1227 307.146 77.4599 308.277 78.513C310.917 80.9742 315.357 83.3112 320.667 82.7965C324.923 82.3764 329.031 78.6136 331.002 75.8151C333.282 72.5788 333.808 68.3071 334.17 63.4379C334.483 59.1485 334.104 54.6342 333.24 49.3864C332.707 46.1501 331.588 43.4048 330.162 40.7306C329.54 39.5532 328.895 38.0031 327.184 38.5889C323.248 39.9437 320.542 42.9611 315.913 44.2686C310.905 45.6827 306.341 43.9196 300.178 43.9906C298.479 45.4519 299.154 48.1972 299.338 51.1613C299.438 52.7942 299.581 54.5159 299.711 56.1843C299.977 59.6987 300.705 64.5265 300.178 67.3546C299.918 68.7509 299.711 68.8455 297.663 68.8455C295.875 68.8455 294.152 69.0053 294.217 67.5439C294.271 66.26 295.591 66.4139 297.29 66.4257C296.911 65.8459 295.981 65.0058 295.058 64.6567C294.294 65.5382 293.11 66.5618 293.199 67.822C293.264 68.7568 294.472 69.8632 295.241 70.7092C296.502 72.0818 297.657 73.6083 300.084 73.0344C300.261 72.3007 300.309 71.431 301.291 71.3482ZM337.425 59.6218C338.538 59.3437 339.657 59.7224 339.474 60.9234C339.343 61.7695 337.337 63.2308 336.774 63.5266C336.751 64.5265 336.443 65.7394 336.591 66.5973C336.804 66.3902 337.147 66.4967 337.425 66.3192C338.846 65.4258 340.367 60.4738 339.195 58.2196C338.645 58.7284 337.792 58.9355 337.425 59.6218ZM305.482 87.4527C310.621 91.0677 315.883 94.5584 321.128 98.0609C321.324 97.7296 321.697 97.5758 321.963 97.3154C322.786 93.1148 323.467 88.7721 324.195 84.4708C318.109 86.7664 310.692 84.1691 307.152 81.0275C306.666 83.2402 306.015 85.2873 305.482 87.4527ZM307.809 92.2036C306.749 91.4937 304.891 90.0086 303.807 89.5945C302.706 91.7895 300.516 92.884 299.06 94.7122C305.565 101.362 313.006 107.083 321.412 111.84C320.744 107.918 320.098 103.971 319.459 100.019C315.653 97.4988 311.763 94.8364 307.809 92.2036ZM323.082 99.4631C325.012 102.812 326.782 106.314 328.765 109.61C329.742 103.948 328.025 99.2264 325.598 96.1144C325.148 97.6172 323.982 98.41 323.082 99.4631ZM323.644 109.515C323.869 110.84 324.698 113.941 324.207 114.917C323.295 116.71 320.578 114.296 319.459 113.615C318.133 112.805 316.979 112.136 315.919 111.473C309.887 107.717 304.784 103.67 299.9 99.0904C298.923 98.1792 297.828 96.7829 296.828 96.3925C296.1 96.1026 294.336 97.4456 293.75 97.2267C298.124 101.972 303.197 106.876 308.371 111.189C312.201 114.378 317.067 116.781 322.898 118.266C324.432 118.656 327.468 119.632 329.232 119.011C331.287 118.283 332.394 112.172 331.281 109.793C330.925 111.621 331.358 114.97 329.416 114.911C328.581 114.887 327.865 113.497 327.368 112.586C325.787 109.693 324.13 106.444 322.715 104.113C322.916 105.764 323.283 107.403 323.644 109.515ZM280.146 101.416C276.914 102.688 273.403 103.776 270.929 105.794C267.235 108.793 263.997 112.97 263.008 118.171C262.665 119.987 262.606 121.999 262.452 124.407C261.067 145.452 261.665 168.514 260.777 190.499C260.605 194.824 260.084 199.711 261.055 203.249C262.86 209.816 268.739 213.97 273.35 218.052C282.804 226.418 292.666 235.056 302.315 243.369C305.571 239.695 308.833 235.73 310.23 229.968C310.414 229.199 310.875 228.039 310.787 227.453C310.716 226.974 309.893 226.223 309.39 225.59C302.878 217.437 297.076 209.882 290.76 201.758C289.872 200.611 288.179 199.019 287.966 197.942C287.794 197.055 288.031 195.694 288.061 194.499C288.434 179.081 289.333 164.195 289.641 149.072C289.683 147.197 289.31 143.257 291.038 143.209C293.116 143.15 292.216 147.794 292.157 149.723C291.956 156.202 291.678 162.331 291.506 168.62C291.47 169.928 291.216 171.413 291.411 172.436C291.565 173.235 292.358 174.294 292.903 175.324C293.424 176.312 293.939 177.359 294.395 178.211C295.437 180.163 296.745 182.139 297.378 183.985C299.752 190.913 299.474 199.735 299.427 208.746C300.214 209.722 301.114 210.917 302.037 212.1C302.901 213.201 303.961 214.976 304.831 215.544C305.713 216.123 307.223 216.443 308.466 216.94C319.435 221.336 330.085 225.631 341.344 229.412C343.884 230.264 346.542 231.281 349.164 231.648C353.444 232.246 358.387 230.276 361.554 229.134C362.797 228.684 364.106 228.317 365.094 227.554C362.49 200.291 360.802 171.472 358.76 143.316C358.636 141.665 358.405 139.724 358.571 137.174C358.654 135.932 358.387 132.193 360.062 132.146C361.951 132.092 361.246 134.619 361.181 135.962C361.098 137.766 361.081 139.63 361.181 140.991C361.868 150.149 362.424 158.663 363.046 167.798C363.082 168.33 363.259 170.194 363.229 170.218C363.425 170.023 363.324 167.372 363.324 166.68C363.324 153.048 363.952 139.63 363.324 126.466C363.093 121.62 362.448 117.485 359.968 114.923C358.44 113.343 356.108 112.308 353.823 111.29C346.861 108.208 339.26 106.226 331.66 104.125C332.524 106.143 334.318 108.681 334.359 111.941C334.412 116.532 332.607 121.537 328.398 121.715C324.218 121.892 319.66 120.171 316.102 118.739C305.465 114.449 298.106 104.741 290.861 98.0727C287.214 99.1673 283.627 100.049 280.146 101.416ZM290.488 197.291C292.24 199.634 294.389 202.267 296.171 204.551C296.425 204.882 296.692 205.515 296.917 205.296C296.97 199.356 296.911 193.955 295.981 189.286C295.668 187.689 295.437 185.926 294.957 184.63C294.549 183.512 293.696 182.406 293.092 181.276C292.435 180.039 291.867 178.607 291.234 177.738C290.92 184.198 290.831 190.878 290.488 197.291ZM370.676 247.279C371.73 242.381 373.565 237.535 373.281 231.826C373.151 229.228 372.494 226.59 371.884 224.099C370.108 216.804 367.669 209.604 365.645 202.877C366.592 218.283 367.93 233.488 370.676 247.279ZM311.349 223.821C311.349 222.797 311.592 222.022 311.532 220.934C310.266 220.614 309.052 219.75 307.904 219.632C309.141 220.939 310.07 222.555 311.349 223.821ZM314.048 222.241C313.403 228.601 312.426 233.938 309.484 238.346C307.537 241.262 304.979 244.298 302.499 246.907C301.877 247.563 300.155 248.989 299.983 249.605C299.764 250.415 299.983 251.894 299.983 253.237C299.983 281.145 299.421 309.455 299.421 337.387C299.421 347.285 299.504 357.148 299.237 366.803C298.965 376.601 299.586 386.487 299.142 396.22C298.698 406.047 299.06 415.874 298.959 425.636C298.752 445.303 298.681 464.886 298.586 484.369C307.436 481.482 316.511 478.831 325.13 475.713C327.545 438.984 329.996 402.379 332.4 364.478C333.554 346.202 334.833 327.885 336.028 309C337.017 293.363 338.438 276.311 339.29 260.408C339.391 258.444 339.225 255.024 339.752 253.427C340 252.681 341.107 252.066 341.8 251.474C343.44 250.072 344.44 249.078 346.086 247.658C346.631 247.191 347.915 246.078 348.785 246.818C350.378 248.167 346.808 250.486 346.086 251.101C345.518 251.587 344.742 252.178 344.038 252.776C343.422 253.314 342.368 254.042 342.179 254.639C341.913 255.444 342.061 256.923 341.989 258.177C341.924 259.461 341.788 260.716 341.711 261.715C339.752 287.86 338.479 314.626 336.591 340.185C336.407 342.658 336.301 344.847 336.591 347.167C337.455 354.006 338.455 360.703 339.29 367.365C339.302 367.484 339.29 367.62 339.29 367.738C339.243 369.756 338.692 372.039 338.355 374.252C336.022 389.587 334.128 405.059 331.654 420.146C330.914 424.631 330.789 429.239 330.44 433.919C329.564 445.669 328.925 457.591 328.114 469.199C327.948 471.507 327.741 473.802 327.829 476.086C334.495 475.802 341.137 475.482 347.761 475.157C351.201 466.495 353.888 457.348 356.7 448.16C359.482 439.067 362.389 429.902 365.177 420.702C367.918 411.638 370.89 402.408 373.37 392.966C374.619 388.209 375.904 383.458 376.815 378.447C377.756 373.282 378.1 367.821 377.839 361.786C377.366 350.539 376.359 339.321 375.513 328.187C374.666 317.022 373.737 305.941 372.814 294.859C371.884 283.719 371.073 272.637 369.925 261.816C368.782 251.066 366.805 240.653 365.361 230.352C361.205 232.003 357.286 233.612 352.414 234.169C349.91 234.453 347.406 233.997 345.056 233.328C334.223 230.264 324.165 225.649 314.137 222.064C314.113 221.904 314.013 222.058 314.048 222.241ZM299.983 245.788C300.326 245.759 300.332 245.392 300.54 245.232C300.344 245.12 300.178 244.972 299.983 244.86C299.983 245.167 299.983 245.481 299.983 245.788ZM333.329 391.368C334.116 385.511 334.998 379.411 335.845 373.589C336.135 371.578 336.674 369.549 336.679 367.632C336.697 364.437 335.649 361.342 335.377 358.136C334.773 369.235 333.791 380.447 333.329 391.368ZM327.462 478.778C327.528 479.624 327.356 480.221 327.368 481.014C330.612 483.919 333.779 486.901 337.052 489.765C341.267 488.8 346.927 488.966 351.958 489.114C350.911 487.256 348.892 484.653 347.394 482.594C346.897 481.914 346.021 480.884 345.997 480.174C345.973 479.328 346.672 478.636 346.832 477.754C340.415 478.133 333.696 478.216 327.462 478.778ZM318.707 481.659C316.819 481.878 314.889 481.943 313.302 482.31C310.745 482.902 308.324 483.907 305.944 484.635C303.47 485.398 301.096 486.345 298.586 487.055C298.598 488.025 298.426 488.818 298.491 489.847C300.273 491.38 301.646 493.634 302.777 495.9C303.766 497.876 304.429 500.124 304.92 502.509C307.312 502.325 309.757 502.189 312.278 502.136C314.469 493.315 321.945 489.776 331.932 488.735C330.925 487.611 329.771 486.552 328.487 485.381C327.498 484.481 325.479 483.274 324.947 482.127C324.787 481.777 324.941 481.209 324.479 481.008C322.656 481.304 320.601 481.446 318.707 481.659ZM341.06 497.764C340.143 496.503 339.053 495.48 337.798 494.226C336.822 493.249 335.436 491.35 334.258 490.966C334.128 490.924 334.016 491.043 333.885 491.06C330.055 491.599 326.64 491.8 323.638 493.107C320.951 494.273 318.032 496.024 316.469 498.32C315.889 499.172 315.564 500.331 315.167 501.58C314.913 502.379 314.628 503.84 314.048 504.278C313.166 504.94 310.343 504.745 308.833 504.834C307.862 504.893 306.956 504.887 306.039 504.928C305.192 504.97 304.014 505.224 303.34 504.928C302.623 504.621 302.481 503.195 302.221 502.136C301.504 499.19 300.682 497.178 299.427 495.155C299.172 494.746 298.917 494.09 298.681 494.226C298.852 498.556 299.065 502.84 299.243 507.165C314.492 507.218 329.676 507.342 344.878 507.443C343.771 504.006 343.168 500.68 341.06 497.764ZM356.801 495.906C356.428 495.35 355.883 494.616 355.309 493.764C354.835 493.066 354.202 491.912 353.722 491.717C352.763 491.332 350.354 491.622 348.785 491.622C345.032 491.622 342.487 491.427 339.379 491.906C340.018 493.072 341.096 493.959 341.984 494.977C344.772 498.19 346.305 502.568 347.477 507.36C351.574 507.206 355.978 507.354 360.051 507.177C360.832 501.97 358.665 498.693 356.801 495.906Z" fill="black"/>
<path fill-rule="evenodd" clip-rule="evenodd" d="M322.987 66.0446C319.672 64.601 318.115 62.1752 317.961 57.6669C317.742 51.3008 320.56 46.6801 326.716 46.5913C328.368 46.5677 331.908 46.8043 331.559 48.7331C331.28 50.2536 328.788 49.2892 327.462 49.1946C322.845 48.8869 320.613 51.7682 320.477 56.0813C320.412 57.9864 320.548 60.2228 321.312 61.5718C321.732 62.3172 322.78 62.9385 323.638 63.4295C324.455 63.8969 325.899 64.2401 326.059 65.1985C326.243 66.3345 324.39 69.1271 323.543 69.204C321.637 69.3755 322.105 67.0859 322.987 66.0446Z" fill="black"/>
<path fill-rule="evenodd" clip-rule="evenodd" d="M308.746 50.776C310.083 50.6399 315.891 50.6044 314.15 53.1958C313.434 54.2607 311.267 53.2372 310.237 53.1958C307.798 53.1011 306.135 53.9413 304.833 55.1482C304.3 55.6452 302.512 56.8521 302.133 55.2429C301.784 53.7697 304.424 52.0007 305.211 51.6161C306.259 51.0954 307.23 50.9298 308.746 50.776Z" fill="black"/>
<path fill-rule="evenodd" clip-rule="evenodd" d="M313.769 72.0048C315.243 71.6557 315.616 72.9455 317.777 73.2118C319.577 73.4366 321.933 72.4663 322.619 73.4898C324.194 75.8623 319.63 76.1759 317.777 76.0043C316.451 75.8801 312.787 74.9571 312.751 73.3064C312.722 72.5373 313.231 72.129 313.769 72.0048Z" fill="black"/>
<path fill-rule="evenodd" clip-rule="evenodd" d="M323.945 54.1265C325.011 53.9431 326.023 54.6531 326.206 55.718L326.639 58.1911C326.822 59.2561 326.112 60.2678 325.046 60.4512C323.981 60.6346 322.968 59.9187 322.785 58.8597L322.353 56.3807C322.163 55.3275 322.88 54.3158 323.945 54.1265Z" fill="black"/>
<path fill-rule="evenodd" clip-rule="evenodd" d="M307.643 56.9195C308.708 56.7361 309.72 57.446 309.904 58.511L310.336 60.9841C310.52 62.049 309.809 63.0607 308.744 63.2441C307.678 63.4276 306.666 62.7117 306.482 61.6526L306.05 59.1736C305.867 58.1205 306.583 57.1088 307.643 56.9195Z" fill="black"/>
<path fill-rule="evenodd" clip-rule="evenodd" d="M189.059 88.362C191.681 87.5455 193.629 84.4217 196.139 83.2443C198.643 82.0669 200.235 82.7769 200.235 82.7769L205.362 78.8661L205.077 69.5536C205.077 69.5536 203.26 66.7197 202.005 64.8974C200.75 63.0811 200.14 60.6139 200.14 60.6139C200.14 60.6139 196.731 61.0754 195.576 59.123C194.422 57.1705 194.179 54.8395 194.179 54.8395C194.179 54.8395 184.08 38.0959 189.337 31.2861C192.723 26.902 195.576 27.1919 195.576 27.1919C195.576 27.1919 203.917 14.8621 215.514 16.5779C227.105 18.2936 229.378 21.2459 233.214 24.0266C237.044 26.8074 242.247 28.8663 242.247 28.8663L238.707 32.5937L245.971 36.9718C245.971 36.9718 243.976 42.8823 241.034 42.6516C238.098 42.4209 235.724 42.0008 235.724 42.0008C235.724 42.0008 237.299 52.9166 234.049 60.8032C229.485 71.8847 221.937 72.2575 221.937 72.2575L222.31 79.1442L223.89 83.1496L227.614 85.2914L228.733 86.7823C228.733 86.7823 255.253 87.6461 262.73 101.585C270.206 115.524 283.165 151.479 284.71 160.14C286.261 168.808 284.23 177.848 278.287 179.966C272.337 182.09 251.926 179.783 251.926 179.783L261.149 491.183C261.149 491.183 269.413 494.81 273.539 501.051C277.659 507.293 278.754 509.707 278.754 509.707L229.763 508.962L228.922 476.102L227.063 475.078L219.61 299.496L203.029 474.611L200.419 475.173L198.927 509.056L151.889 509.151C151.889 509.151 155.334 499.998 160.088 495.928C164.847 491.863 169.494 490.905 169.494 490.905L183.654 240.852C183.654 240.852 185.235 217.074 186.726 209.572C188.869 198.769 191.202 188.533 191.202 188.533C191.202 188.533 178.362 191.935 171.826 189.279C165.291 186.622 155.772 177.15 156.21 148.597C156.642 120.045 157.205 102.106 164.557 95.6274C175.325 86.1433 186.436 89.1785 189.059 88.362Z" fill="white"/>
<path fill-rule="evenodd" clip-rule="evenodd" d="M226.116 100.334L221.552 91.0273H216.425L214.377 99.405C214.377 99.405 217.319 100.937 217.36 101.73C217.396 102.582 223.322 192.068 223.695 191.755L233.379 200.132L237.387 191.755L224.257 102.665L226.116 100.334Z" fill="black"/>
<path fill-rule="evenodd" clip-rule="evenodd" d="M199.542 82.6133C199.542 82.6133 202.413 91.4406 206.995 101.138C211.571 110.835 212.411 120.52 214.258 129.998C216.105 139.47 217.425 150.481 217.425 150.481L208.948 153.179C208.948 153.179 199.554 140.05 196.464 136.051C193.374 132.051 185.613 130.051 180.54 131.394C175.46 132.743 169.63 139.464 169.174 141.636C168.718 143.807 169.736 146.795 172.341 144.896C174.945 142.996 180.445 138.098 180.445 138.098L184.82 138.843C184.82 138.843 177.947 144.061 176.715 148.806C175.484 153.551 175.715 158.965 178.58 162.213C181.439 165.455 184.382 166.585 187.247 164.26C190.112 161.941 192.367 157.557 192.367 157.557H200.471C200.471 157.557 215.798 149.978 228.14 146.759C240.477 143.535 239.222 144.061 239.222 144.061C239.222 144.061 238.441 118.195 236.611 108.403C234.788 98.6113 228.975 85.5005 228.975 85.5005C228.975 85.5005 256.158 88.719 261.853 100.025C267.548 111.332 277.286 135.388 282.158 149.552C287.036 163.716 286.023 175.525 279.458 179.158C268.258 185.352 252.447 179.53 252.447 179.53C252.447 179.53 254.489 198.108 254.59 211C254.69 223.886 254.868 232.506 254.868 232.506L240.341 232.406L239.595 177.389L233.823 174.596L217.52 181.761L219.48 231.287L183.618 233.151C183.618 233.151 187.608 209.497 188.093 203.735C188.579 197.972 190.053 189.399 190.053 189.399C190.053 189.399 180.297 194.446 168.256 188.003C156.215 181.56 157.109 162.189 156.796 145.641C156.482 129.099 157.388 102.782 165.646 96.3039C176.55 87.7428 190.52 88.6717 190.52 88.6717C190.52 88.6717 192.101 87.2399 193.593 85.5064C195.073 83.7611 199.542 82.6133 199.542 82.6133Z" fill="#223549"/>
<path fill-rule="evenodd" clip-rule="evenodd" d="M248.445 143.222C248.445 143.222 251.174 142.932 253.844 148.435C256.52 153.937 256.176 157.653 256.176 157.653L259.995 153.369C259.995 153.369 261.179 146.512 257.852 144.341C254.525 142.163 248.445 143.222 248.445 143.222Z" fill="black"/>
<path fill-rule="evenodd" clip-rule="evenodd" d="M193.688 55.1965C193.688 55.1965 195.429 50.6882 196.944 50.913C198.465 51.1378 200.022 52.682 200.022 52.682C200.022 52.682 199.501 43.902 200.301 40.1155C201.1 36.329 202.816 31.7378 202.816 31.7378C202.816 31.7378 213.951 33.0572 221.256 35.4592C230.876 38.6245 237.24 44.4226 240.442 43.0027C243.645 41.5828 246.22 37.6957 246.22 37.6957L238.767 34.2523L242.212 29.8741C242.212 29.8741 236.63 28.0282 234.759 25.9634C232.889 23.8985 219.67 13.5093 209.985 17.2129C200.301 20.9166 196.476 26.9869 196.476 26.9869C196.476 26.9869 188.426 29.4718 188.189 35.6427C187.952 41.8194 193.688 55.1965 193.688 55.1965Z" fill="black"/>
<path fill-rule="evenodd" clip-rule="evenodd" d="M183.737 233.208L219.598 231.629V222.133L239.714 222.967V232.28L254.057 232.463L260.486 475.534L228.721 474.978L219.409 302.377L204.13 474.232L170.873 473.392L183.737 233.208Z" fill="white"/>
<path fill-rule="evenodd" clip-rule="evenodd" d="M240.933 33.1831C242.052 33.5499 243.354 34.3901 244.752 35.0468C245.847 35.5615 248.007 36.0585 248.197 37.2832C248.44 38.8215 246.35 40.5254 245.497 41.2827C244.313 42.3418 242.828 43.3061 241.212 43.7025C237.985 44.4953 235.126 43.247 233.202 42.0282C232.296 41.4543 231.758 40.7621 230.686 40.5373C226.057 39.5729 222.985 40.9632 221.931 44.5427C220.865 48.1517 222.138 51.6365 223.328 54.1273C223.76 55.0384 224.53 55.7957 224.536 56.7365C224.547 57.5707 223.849 58.3457 223.423 59.0616C222.914 59.9018 222.476 60.7478 221.558 60.6413C219.551 60.4046 220.931 57.6831 221.742 56.7305C220.031 53.8256 218.456 49.761 219.137 45.371C219.764 41.2709 221.966 38.5789 225.749 37.7388C219.782 35.0468 212.092 34.0765 204.047 33.4553C202.408 37.0111 201.242 42.8151 201.532 49.0037C201.609 50.6189 202.408 53.8907 201.816 54.6835C201.117 55.6183 197.009 56.3756 196.79 54.8728C196.595 53.5534 197.808 53.5652 198.649 53.1038C197.305 50.3112 196.062 54.3581 196.228 55.6183C196.393 56.8725 197.37 58.2688 198.37 58.967C199.276 59.6059 200.673 59.7953 201.443 60.6413C202.1 61.3631 202.348 62.7535 202.745 63.5285C203.669 65.339 204.823 66.7707 206.658 67.9954C207.286 68.4155 208.837 68.7172 208.801 70.0425C208.765 71.1666 207.647 71.2436 206.936 71.3441C207.297 73.3498 206.433 74.9709 206.936 76.6512C207.138 77.3138 208.777 78.2368 209.452 78.6983C212.015 80.4673 215.609 82.1712 218.58 83.1652C219.32 82.4197 220.386 81.4317 220.629 80.0946C220.96 78.2782 220.268 76.1305 220.445 74.1367C219.421 74.1485 217.462 74.0835 215.786 73.764C214.478 73.5155 212.11 73.2788 212.809 71.5276C213.442 69.9242 215.982 71.3086 217.556 71.4329C220.09 71.64 221.647 71.3323 223.145 70.7821C230.337 68.1493 233.753 60.4342 234.226 50.4C234.303 48.7315 233.409 45.2053 235.529 45.4656C237.772 45.7437 236.701 52.7665 236.464 54.5888C235.197 64.0906 231.278 70.6638 223.145 73.4859C223.346 75.5981 223.008 77.3257 223.334 79.071C223.654 80.8045 225.252 82.118 225.66 83.6326C227.282 84.1237 229.319 84.1946 229.946 85.6797C233.54 85.5258 237.032 86.1767 240.282 86.8925C249.848 88.987 257.97 92.809 263.008 99.6425C266.359 104.198 267.868 110.322 270.177 116.214C275.759 130.461 282.419 143.187 285.639 159.961C286.296 163.398 286.924 167.102 286.569 170.663C285.864 177.757 281.193 181.283 274.93 182.674C268.093 184.188 260.687 182.283 253.785 181.278C254.614 193.436 255.833 205.955 255.833 218.882C255.833 228.562 256.088 238.43 256.396 248.204C256.899 264.285 257.1 280.579 257.42 296.796C257.68 309.806 257.745 322.834 258.26 335.702C258.515 342.134 258.722 348.677 258.722 355.156C258.722 361.658 259.19 368.142 259.19 374.609C259.19 387.59 260.119 400.529 260.119 413.421C260.119 426.366 261.143 439.252 261.143 452.144C261.143 465.03 262.197 477.91 262.357 490.678C269.952 494.026 275.439 499.002 278.932 506.871C279.595 508.362 281.022 510.894 278.47 511.249C276.54 511.509 274.421 511.154 272.326 511.154C266.364 511.16 260.451 510.912 254.164 510.876C247.611 510.841 242.496 510.888 236.002 510.598C233.818 510.498 229.976 510.941 229.2 509.853C228.792 509.279 228.839 507.297 228.827 505.942C228.78 497.659 228.413 489.879 228.082 481.554C228.028 480.093 228.277 478.377 227.987 477.46C227.732 476.644 226.821 476.697 226.59 475.881C226.241 474.626 226.489 472.721 226.406 470.946C224.05 421.207 221.375 369.509 219.143 320.059C215.295 358.274 212.163 398.02 208.428 437.063C207.392 447.943 206.321 459.758 205.261 471.13C205.012 473.78 205.498 476.709 203.029 476.993C202.201 487.033 201.609 496.257 200.792 506.504C200.655 508.173 200.756 510.06 199.679 510.51C198.637 510.936 195.156 510.693 193.806 510.693C181.931 510.693 170.145 510.788 158.134 510.788C155.938 510.788 152.664 511.178 152.078 510.042C151.64 509.178 152.262 507.474 152.635 506.409C153.813 503.078 155.553 499.996 157.666 497.842C160.774 494.677 164.616 492.731 168.559 490.678C170.269 465.598 171.305 440.299 173.028 415C174.751 389.791 175.716 364.486 177.314 339.229C178.895 314.291 180.025 288.093 181.132 262.901C181.422 256.268 181.689 249.802 181.689 243.447C181.689 237.253 182.636 231.076 183.459 225.201C185.116 213.333 186.951 201.979 188.952 190.667C182.221 192.016 174.905 192.46 169.956 190.199C165.161 188.016 161.639 183.567 159.43 178.751C152.102 162.765 155.186 139.194 156.453 119.273C156.909 112.079 157.323 105.34 159.898 100.749C164.095 93.2705 173.774 88.0167 185.134 87.5315C186.963 87.4546 189.301 87.5197 190.722 86.786C192.498 85.8749 193.244 83.9462 194.73 82.8753C196.026 81.9405 197.198 81.5678 199.199 81.3843C199.72 81.337 200.484 81.4672 201.064 81.2897C201.62 81.1181 202.171 79.9762 202.644 79.3373C203.248 78.5149 203.899 78.0238 204.136 77.1008C204.338 76.2962 204.166 74.7698 204.231 73.3794C204.284 72.1843 204.551 70.6046 204.326 69.7467C204.19 69.2261 203.42 68.7705 202.834 68.167C201.313 66.5814 200.235 64.629 199.477 62.4872C196.967 61.3631 195.517 60.4401 194.452 58.4818C194.12 57.8783 194.061 57.1151 193.706 56.4347C193.392 55.8312 192.841 55.4467 192.492 54.855C190.26 50.9975 188.064 46.0573 187.466 40.5195C186.857 34.893 188.502 30.8757 191.563 28.3257C192.534 27.5211 193.723 27.0714 194.919 26.184C196.358 25.1072 197.411 23.5157 198.737 22.3679C201.449 20.019 204.414 18.0134 208.239 16.7827C216.218 14.215 225.187 16.5047 231.148 20.4154C234.155 22.3856 236.547 25.2728 240.365 26.8348C241.502 27.3022 243.538 27.7282 243.721 28.6985C244.083 30.6213 241.271 31.8283 240.933 33.1831ZM229.011 22.291C225.317 20.025 219.977 18.0429 214.016 18.4748C206.569 19.0192 201.976 22.5868 198.187 26.6691C197.648 27.243 197.145 28.0062 196.506 28.4381C194.825 29.5741 193.339 30.0356 192.131 31.4141C189.781 34.0942 189.698 38.289 190.456 42.2116C191.196 46.0514 192.492 48.9563 193.996 52.169C194.854 51.175 195.683 49.4947 197.346 49.3764C197.885 49.335 198.637 49.7136 198.933 49.5598C198.749 45.2763 198.945 41.691 199.862 37.8334C200.283 36.0763 201.159 31.3609 202.751 30.852C204.207 30.3846 206.759 31 208.156 31.1301C217.361 31.9821 225.051 33.7393 231.255 37.4607C233.575 38.8511 235.884 41.3241 239.264 41.2768C241.732 41.2413 243.639 39.5078 244.846 37.9281C243.645 37.508 242.319 36.7211 240.939 36.0644C239.749 35.5024 237.642 34.9403 237.583 33.6446C237.5 31.8046 239.732 31.2129 240.193 29.6392C235.742 28.2251 232.93 24.693 229.011 22.291ZM205.912 79.5384C204.503 81.1122 203.888 83.4728 201.532 84.1C202.852 88.5846 204.024 93.2113 205.817 97.2227C208.292 98.8083 210.24 100.932 212.708 102.53C214.36 96.8854 216.106 91.3417 217.74 85.6797C213.122 84.3071 209.375 82.0647 205.912 79.5384ZM220.344 85.585C223.032 90.4365 225.394 95.6193 228.17 100.382C230.248 96.5541 228.97 90.3241 227.424 86.8866C226.11 86.3423 224.695 86.5671 223.796 85.7684C222.967 85.0348 223.056 83.7391 222.12 83.0705C221.742 84.1236 220.824 84.6325 220.344 85.585ZM192.409 89.0343C190.178 90.3714 186.928 90.0697 183.843 90.3359C181.499 90.5371 178.788 91.111 176.763 91.7322C168.168 94.3709 161.662 99.4532 160.093 109.044C159.324 113.753 159.247 119.338 158.88 124.864C158.205 135.224 157.086 146.187 157.578 157.351C158.027 167.616 160.342 177.183 165.587 183.413C168.215 186.531 171.743 188.839 176.858 189.093C182.334 189.365 187.218 188.288 192.042 187.229C201.366 185.188 210.08 182.325 217.84 179.041C232.918 172.657 246.492 165.143 256.769 154.186C257.295 153.624 258.639 152.565 258.722 151.861C258.846 150.82 258.083 148.495 257.42 147.394C256.869 146.477 255.958 145.56 255.188 145.164C253.199 144.134 248.931 144.566 246.433 144.885C244.219 145.164 241.732 145.743 239.726 146.187C228.531 148.654 218.527 152.175 208.99 155.683C206.984 156.423 204.853 156.943 203.029 157.825C202.201 158.227 202.07 158.765 201.348 158.943C200.277 159.203 198.921 158.978 197.625 159.038C196.405 159.091 194.813 158.842 193.895 159.132C193.504 159.257 193.208 159.907 192.871 160.339C191.841 161.682 190.586 162.931 189.515 163.877C187.869 165.333 186.271 166.776 183.275 166.764C181.695 166.753 180.404 166.167 179.457 165.552C175.574 163.055 173.141 157.363 174.242 151.589C175.201 146.554 178.054 142.827 181.322 140.229C181.452 140.129 181.92 140.099 181.789 139.762C180.617 139.247 179.883 140.371 179.179 140.975C178.462 141.59 177.669 142.223 176.947 142.838C175.455 144.105 173.975 145.761 172.193 146.282C169.873 146.962 168.032 145.891 167.446 144.14C166.765 142.123 168.647 139.756 169.589 138.46C172.945 133.828 176.74 130.065 183.837 129.526C183.098 128.603 182.044 127.976 180.765 127.012C179.966 126.414 177.776 125.343 177.971 124.03C178.208 122.409 180.132 123.385 180.765 123.847C182.807 125.332 184.009 126.314 185.886 127.846C186.685 128.497 187.685 129.586 188.402 129.893C189.059 130.177 189.858 130.154 190.45 130.361C194.641 131.804 196.677 134.68 199.11 137.898C202.775 142.75 206.356 147.761 209.914 152.417C211.696 151.719 213.566 151.104 215.407 150.459C213.442 138.218 211.867 126.355 209.357 114.996C208.126 109.434 206.066 104.512 203.953 99.6366C202.313 95.8619 201.028 92.2824 199.856 88.0936C199.495 86.8097 199.176 85.4312 198.554 84.1828C195.085 84.7035 194.777 87.6084 192.409 89.0343ZM230.97 88.5669C233.587 96.276 236.884 103.902 237.861 113.517C238.826 122.995 239.447 133.059 240.004 143.3C243.787 142.525 247.64 141.809 252.204 141.809C253.311 137.159 254.081 132.195 253.785 125.894C253.667 123.344 253.229 120.486 253.039 117.889C252.909 116.09 251.731 110.742 253.88 110.629C256.005 110.759 255.561 115.706 255.739 117.889C255.964 120.539 256.407 123.379 256.484 126.083C256.662 132.479 256.106 137.626 254.904 142.188C258.799 143.324 260.545 146.601 261.327 150.843C263.026 151.039 268.596 148.773 268.596 151.494C268.59 153.234 264.973 153.174 263.47 153.358C262.807 153.441 261.818 153.328 261.238 153.547C260.492 153.825 259.113 155.665 258.349 156.434C251.695 163.084 243.396 169.273 235.067 173.841C243.662 176.213 252.767 178.739 262.635 179.982C273.752 181.39 283.964 179.716 283.964 168.628C283.964 163.783 282.792 158.795 281.631 154.387C278.139 141.093 272.746 130.012 268.034 117.995C266.364 113.73 265.038 109.547 263.47 105.896C258.562 94.4715 245.859 89.7443 230.97 88.3007C230.846 88.2888 230.846 88.5432 230.97 88.5669ZM215.502 102.808C215.094 104.186 214.673 106.222 213.359 106.251C212.394 106.275 211.346 105.139 210.66 104.577C209.772 103.849 209.127 103.139 208.239 102.624C213.892 115.901 215.188 133.538 218.113 149.542C224.299 147.506 230.544 145.519 237.21 143.957C236.156 128.166 236.263 111.209 231.716 98.9029C231.166 99.8969 230.917 101.057 230.319 102.252C229.852 103.186 229.301 104.737 227.987 104.671C226.844 104.612 226.057 102.571 225.477 101.411C223.494 97.4711 221.292 93.3533 219.61 89.8685C219.516 89.8685 219.498 89.7916 219.427 89.7738C218.243 93.3415 216.799 98.4592 215.502 102.808ZM200.602 144.134C199.477 142.625 198.282 141.087 197.157 139.573C195.973 137.975 194.955 136.206 193.617 135.011C191.539 133.147 188.094 131.733 184.21 131.94C180.363 132.147 177.462 133.65 175.082 135.94C172.945 137.999 170.554 140.348 169.867 143.572C171.009 144.465 172.087 143.602 172.845 143.016C174.591 141.667 175.941 140.419 177.592 139.01C178.38 138.342 179.226 137.342 180.108 137.147C181.73 136.786 184.057 137.638 186.069 137.703C187.099 137.307 192.03 134.91 191.752 137.703C191.652 138.721 190.172 138.88 189.147 139.194C181.985 141.389 176.811 146.329 176.479 154.736C179.415 150.648 183.222 145.797 188.496 143.288C189.461 142.827 195.582 139.957 195.482 142.732C195.446 143.702 194.079 143.945 192.871 144.312C186.146 146.382 182.387 150.559 178.9 155.855C178.356 156.683 177.332 157.766 177.32 158.552C177.296 159.635 178.344 160.339 178.812 161.345C182.18 156.411 186.075 151.938 191.663 149.341C193.522 148.477 195.541 147.441 197.903 147.293C198.359 147.69 198.749 147.903 198.649 148.69C198.536 149.577 197.186 149.82 196.139 150.181C188.988 152.612 183.92 157.606 180.676 163.303C184.962 165.96 188.704 161.57 190.829 158.925C191.515 158.067 191.93 157.032 192.693 156.783C194.913 156.056 196.967 157.026 199.211 156.505C200.525 156.204 201.839 155.405 203.124 154.926C204.48 154.417 205.764 153.861 207.22 153.435C205.581 150.429 202.976 147.329 200.602 144.134ZM231.622 175.598C227.638 177.728 223.452 179.656 219.143 181.461C219.723 194.779 220.037 208.363 220.723 221.58C226.685 221.586 232.438 221.787 238.323 221.858C238.317 207.002 238.05 192.406 238.044 177.55C235.949 176.858 233.753 176.254 231.622 175.598ZM240.744 178.574C240.987 195.956 241.016 213.546 241.206 230.981C245.308 230.916 249.12 231.135 253.223 231.076C252.879 222.219 253.134 213.729 252.755 205.109C252.394 196.909 251.18 188.62 250.796 180.627C247.368 179.958 244.154 179.077 240.833 178.302C240.726 178.313 240.738 178.444 240.744 178.574ZM191.942 190.028C189.597 203.577 187.259 217.125 185.513 231.265C196.387 230.81 207.363 230.449 218.202 229.964C217.509 214.244 217.118 198.222 216.343 182.585C208.765 185.62 200.661 188.129 191.942 190.028ZM220.723 224.746C220.824 225.97 220.871 227.201 220.907 228.656C220.942 229.94 221.28 231.585 220.534 232.289C219.924 232.863 217.521 232.804 216.153 232.845C206.031 233.182 194.44 233.697 185.235 234.058C184.305 244.033 184.281 254.174 183.932 264.214C182.884 294.418 181.014 324.296 179.368 354.038C177.166 393.802 174.768 433.347 172.478 472.999C182.369 473.289 192.249 473.591 202.094 473.928C208.618 402.511 215.307 330.023 221.747 258.162C221.86 256.913 221.83 255.541 222.12 254.718C222.351 254.044 223.145 253.363 223.701 252.671C224.269 251.973 224.826 251.304 225.382 250.624C226.033 249.819 227.732 246.701 229.479 247.459C230.805 248.033 229.923 249.672 229.384 250.346C228.123 251.92 227.49 252.63 226.312 254.067C225.785 254.712 224.986 255.405 224.82 256.026C224.589 256.901 224.648 258.162 224.536 259.286C223.393 271.562 222.292 283.596 221.28 295.589C220.901 300.086 221.232 304.813 221.463 309.274C224.346 364.279 226.643 420.035 229.378 474.218C239.252 474.123 249.144 474.047 258.994 473.934C256.538 394.476 254.969 314.125 253.311 233.875C251.257 233.857 248.842 233.78 246.137 233.78C244.296 233.78 240.276 234.289 239.057 233.502C238.11 232.893 238.406 230.668 238.406 229.13C238.406 227.574 238.406 226.136 238.406 224.751C232.515 224.68 226.756 224.479 220.806 224.473C220.706 224.485 220.712 224.615 220.723 224.746ZM172.294 476.165C172.134 478.241 172.004 480.342 171.921 482.495C181.162 482.661 190.432 482.797 199.767 482.868C199.815 480.803 200.158 478.543 200.14 476.727C190.852 476.484 181.665 476.135 172.389 475.892C172.276 475.898 172.282 476.034 172.294 476.165ZM230.781 477.099C230.947 479.791 230.929 482.661 231.065 485.382C240.572 485.246 250.079 485.613 259.373 485.382C259.237 482.572 259.142 479.714 259.095 476.815C249.683 476.934 240.193 476.975 230.781 477.099ZM171.732 485.66C171.548 487.495 171.495 489.459 171.359 491.34C180.878 491.039 185.673 495.47 188.307 502.043C189.29 502.15 190.373 502.15 191.474 502.138C193.339 497.706 195.76 493.825 199.11 490.873C199.247 489.175 199.418 487.518 199.483 485.755C190.219 485.672 181.002 485.548 171.826 485.382C171.72 485.394 171.72 485.524 171.732 485.66ZM231.154 488.548C231.485 490.465 230.84 491.932 231.249 493.571C231.403 494.18 232.421 495.251 232.924 495.902C234.789 498.286 236.405 500.469 237.583 503.256C243.822 503.256 250.062 503.256 256.301 503.256C258.515 499.972 261.238 497.209 264.5 494.973C263.304 493.76 260.48 493.896 259.752 492.275C259.296 491.269 259.61 489.974 259.468 488.37C249.884 488.394 240.963 488.205 231.249 488.276C231.136 488.281 231.148 488.412 231.154 488.548ZM195.665 499.99C195.097 501.096 194.055 504.451 192.966 504.93C192.386 505.179 191.219 505.043 189.988 505.025C187.064 504.966 186.46 504.853 185.513 502.978C184.418 500.795 183.151 498.292 181.606 496.925C179.475 495.05 175.526 494.115 171.453 494.228C169.464 494.281 166.771 494.606 165.214 495.156C162.663 496.062 160.632 498.499 159.069 500.463C157.353 502.617 156.044 505.173 155.156 508.001C169.447 507.889 183.707 507.894 197.814 507.818C198.175 503.8 198.471 499.724 198.743 495.624C197.607 496.683 196.518 498.345 195.665 499.99ZM260.214 502.883C259.474 503.83 258.349 505.776 257.514 506.049C256.259 506.445 253.945 506.143 252.204 506.143C248.138 506.143 245.42 506.143 241.401 506.143C239.761 506.143 237.387 506.557 236.186 506.049C235.049 505.569 234.504 503.404 233.859 502.232C233.285 501.191 232.705 500.274 232.089 499.44C231.947 499.245 231.746 498.777 231.438 498.884C231.562 501.765 231.592 504.753 231.722 507.634C246.587 507.954 261.546 508.173 276.517 508.38C274.451 503.469 271.491 499.44 267.205 496.748C264.636 498.263 262.167 500.351 260.214 502.883Z" fill="black"/>
<path fill-rule="evenodd" clip-rule="evenodd" d="M209.73 37.6496C212.062 37.3538 216.289 38.7146 215.969 40.9096C215.874 41.5781 215.442 41.8562 215.04 41.9331C213.536 42.223 212.571 40.2173 210.848 40.1641C209.736 40.1286 208.593 40.6019 207.77 41.0042C206.906 41.4302 206.308 42.4478 205.071 42.1224C204.627 42.0041 204.254 41.2468 204.236 41.0042C204.124 39.673 205.716 39.1642 206.468 38.7678C207.616 38.1584 208.386 37.8212 209.73 37.6496Z" fill="black"/>
<path fill-rule="evenodd" clip-rule="evenodd" d="M209.919 59.7992C210.724 59.6868 211.452 60.5388 211.689 60.7281C212.873 61.6984 214.637 62.6214 216.904 62.7752C218.147 62.858 219.633 62.5326 219.982 63.6153C220.941 66.6209 214.122 65.1122 212.813 64.5442C211.777 64.0946 208.693 62.509 208.806 60.9115C208.847 60.243 209.137 59.9057 209.919 59.7992Z" fill="black"/>
<path fill-rule="evenodd" clip-rule="evenodd" d="M225.352 46.293C226.435 46.293 227.305 47.1686 227.305 48.2513V50.7658C227.305 51.8426 226.429 52.7182 225.352 52.7182C224.275 52.7182 223.398 51.8426 223.398 50.7658V48.2513C223.393 47.1686 224.269 46.293 225.352 46.293Z" fill="black"/>
<path fill-rule="evenodd" clip-rule="evenodd" d="M210.168 45.3633C211.246 45.3633 212.128 46.2389 212.128 47.3157V49.8302C212.128 50.907 211.252 51.7826 210.168 51.7826C209.085 51.7826 208.215 50.907 208.215 49.8302V47.3157C208.209 46.233 209.085 45.3633 210.168 45.3633Z" fill="black"/>
<path fill-rule="evenodd" clip-rule="evenodd" d="M61.1386 53.3906L47.9316 66.5902L61.1386 79.7898L74.3455 66.5902L61.1386 53.3906Z" fill="black"/>
<path d="M463.001 210.516C463.001 220.603 454.82 228.774 444.733 228.774C434.64 228.774 426.459 220.598 426.459 210.516C426.459 200.434 434.64 192.258 444.733 192.258C454.826 192.258 463.001 200.434 463.001 210.516Z" fill="#EC663D"/>
<path d="M437.238 222.787C426.695 222.787 418.117 214.214 418.117 203.677C418.117 193.139 426.695 184.566 437.238 184.566C447.781 184.566 456.353 193.139 456.353 203.677C456.353 214.214 447.781 222.787 437.238 222.787ZM437.238 186.939C428.003 186.939 420.491 194.447 420.491 203.677C420.491 212.906 428.009 220.414 437.238 220.414C446.473 220.414 453.985 212.906 453.985 203.677C453.985 194.447 446.473 186.939 437.238 186.939Z" fill="black"/>
</g>
<defs>
<clipPath id="clip0">
<rect width="463" height="385" fill="white"/>
</clipPath>
</defs>
</svg>
