<svg width="233" height="233" viewBox="0 0 233 233" fill="none" xmlns="http://www.w3.org/2000/svg">
<path d="M103.764 88.1953V82.6832H91.77C99.3988 77.127 103.544 72.7614 103.544 67.7344C103.544 61.8695 98.5609 58.3417 92.2992 58.3417C88.1982 58.3417 83.8326 59.841 80.9663 63.1483L84.5381 67.2934C86.5225 65.2208 89.0801 63.8979 92.4315 63.8979C94.8568 63.8979 97.1939 65.1767 97.1939 67.7344C97.1939 71.3503 93.6662 74.393 81.6277 83.3006V88.1953H103.764ZM119.666 88.7245C128.044 88.7245 131.837 81.0957 131.837 73.5111C131.837 65.9264 128.044 58.3417 119.666 58.3417C111.244 58.3417 107.495 65.9264 107.495 73.5111C107.495 81.0957 111.244 88.7245 119.666 88.7245ZM119.666 83.1683C115.433 83.1683 113.845 78.935 113.845 73.5111C113.845 68.0871 115.433 63.8979 119.666 63.8979C123.855 63.8979 125.443 68.0871 125.443 73.5111C125.443 78.935 123.855 83.1683 119.666 83.1683ZM154.552 75.6277V70.9975H147.144V62.8396H142.028V70.9975H134.62V75.6277H142.028V84.1384H147.144V75.6277H154.552ZM56.6257 95.489V110.195H63.571C66.7239 110.195 68.4437 108.057 68.4437 105.521C68.4437 102.985 66.7019 100.847 63.571 100.847H59.7566V98.2451H67.3633V95.489H56.6257ZM63.1521 103.603C64.3647 103.603 65.2467 104.33 65.2467 105.521C65.2467 106.69 64.3647 107.439 63.1521 107.439H59.7566V103.603H63.1521ZM75.3233 110.46C76.977 110.46 78.6526 109.953 79.711 108.983L78.4763 107.175C77.7928 107.836 76.536 108.233 75.632 108.233C73.824 108.233 72.7437 107.109 72.5673 105.764H80.4827V105.146C80.4827 101.663 78.3219 99.2813 75.1469 99.2813C71.9058 99.2813 69.6348 101.773 69.6348 104.86C69.6348 108.277 72.0822 110.46 75.3233 110.46ZM77.7707 103.867H72.5232C72.6555 102.809 73.4051 101.508 75.1469 101.508C76.999 101.508 77.7046 102.853 77.7707 103.867ZM87.4662 110.46C89.649 110.46 90.9719 109.512 91.6774 108.52L89.8474 106.822C89.3403 107.527 88.5686 107.968 87.5985 107.968C85.9007 107.968 84.7101 106.712 84.7101 104.86C84.7101 103.008 85.9007 101.773 87.5985 101.773C88.5686 101.773 89.3403 102.17 89.8474 102.919L91.6774 101.2C90.9719 100.229 89.649 99.2813 87.4662 99.2813C84.1809 99.2813 81.8218 101.596 81.8218 104.86C81.8218 108.145 84.1809 110.46 87.4662 110.46ZM103.518 110.195V99.5459H93.5079V110.195H96.3081V101.993H100.718V110.195H103.518ZM105.306 110.46C108.018 110.46 109.34 108.718 109.781 105.036L110.134 101.993H113.508V110.195H116.308V99.5459H107.687L107.003 104.705C106.673 107.285 106.165 108.167 105.306 108.167V110.46ZM128.282 110.195V103.316C128.282 100.251 126.055 99.2813 123.63 99.2813C121.954 99.2813 120.278 99.8105 118.977 100.957L120.036 102.831C120.94 101.993 121.998 101.574 123.144 101.574C124.556 101.574 125.482 102.28 125.482 103.36V104.793C124.776 103.956 123.519 103.493 122.108 103.493C120.41 103.493 118.404 104.441 118.404 106.932C118.404 109.313 120.41 110.46 122.108 110.46C123.497 110.46 124.754 109.953 125.482 109.093V110.195H128.282ZM123.233 108.564C122.13 108.564 121.226 107.99 121.226 106.998C121.226 105.962 122.13 105.389 123.233 105.389C124.137 105.389 125.019 105.697 125.482 106.315V107.638C125.019 108.255 124.137 108.564 123.233 108.564ZM135.844 110.195V101.993H138.82V99.5459H130.045V101.993H133.021V110.195H135.844ZM143.376 110.195V105.94H147.786V110.195H150.586V99.5459H147.786V103.493H143.376V99.5459H140.576V110.195H143.376ZM153.366 99.5459V110.195H159.804C162.185 110.195 163.508 108.586 163.508 106.69C163.508 104.815 162.274 103.206 159.804 103.206H156.166V99.5459H153.366ZM159.385 105.543C160.179 105.543 160.642 106.028 160.642 106.69C160.642 107.351 160.179 107.836 159.385 107.836H156.166V105.543H159.385ZM167.72 110.195V99.5459H164.897V110.195H167.72ZM180.207 110.195L176.393 104.727L179.965 99.5459H176.834L174.651 102.831L172.446 99.5459H169.315L172.865 104.727L169.095 110.195H172.203L174.651 106.601L177.076 110.195H180.207ZM66.3286 132.195V121.546H62.6245L60.0448 127.896L57.421 121.546H53.739V132.195H56.5391V125.272L59.4054 132.195H60.6842L63.5285 125.272V132.195H66.3286ZM78.3068 132.195V125.316C78.3068 122.251 76.0799 121.281 73.6545 121.281C71.9789 121.281 70.3032 121.811 69.0023 122.957L70.0606 124.831C70.9646 123.993 72.023 123.574 73.1695 123.574C74.5806 123.574 75.5066 124.28 75.5066 125.36V126.793C74.8011 125.956 73.5443 125.493 72.1332 125.493C70.4355 125.493 68.4291 126.441 68.4291 128.932C68.4291 131.313 70.4355 132.46 72.1332 132.46C73.5223 132.46 74.779 131.953 75.5066 131.093V132.195H78.3068ZM73.2577 130.564C72.1552 130.564 71.2513 129.99 71.2513 128.998C71.2513 127.962 72.1552 127.389 73.2577 127.389C74.1617 127.389 75.0436 127.697 75.5066 128.315V129.638C75.0436 130.255 74.1617 130.564 73.2577 130.564ZM85.8687 132.195V123.993H88.8452V121.546H80.0699V123.993H83.0465V132.195H85.8687ZM95.6062 132.46C97.2598 132.46 98.9355 131.953 99.9938 130.983L98.7591 129.175C98.0756 129.836 96.8188 130.233 95.9148 130.233C94.1069 130.233 93.0265 129.109 92.8501 127.764H100.766V127.146C100.766 123.663 98.6048 121.281 95.4298 121.281C92.1887 121.281 89.9177 123.773 89.9177 126.86C89.9177 130.277 92.365 132.46 95.6062 132.46ZM98.0535 125.867H92.806C92.9383 124.809 93.688 123.508 95.4298 123.508C97.2819 123.508 97.9874 124.853 98.0535 125.867ZM108.873 132.46C111.607 132.46 113.592 130.409 113.592 126.86C113.592 123.31 111.607 121.281 108.873 121.281C107.573 121.281 106.404 121.855 105.588 122.891V121.546H102.788V136.252H105.588V130.828C106.448 131.931 107.617 132.46 108.873 132.46ZM107.992 129.968C107.088 129.968 106.051 129.417 105.588 128.756V124.985C106.051 124.302 107.088 123.773 107.992 123.773C109.601 123.773 110.681 125.03 110.681 126.86C110.681 128.712 109.601 129.968 107.992 129.968ZM118.332 132.195L122.852 125.515V132.195H125.653V121.546H122.83L118.443 127.984V121.546H115.643V132.195H118.332ZM137.627 132.195V125.316C137.627 122.251 135.4 121.281 132.974 121.281C131.299 121.281 129.623 121.811 128.322 122.957L129.38 124.831C130.284 123.993 131.343 123.574 132.489 123.574C133.9 123.574 134.826 124.28 134.826 125.36V126.793C134.121 125.956 132.864 125.493 131.453 125.493C129.755 125.493 127.749 126.441 127.749 128.932C127.749 131.313 129.755 132.46 131.453 132.46C132.842 132.46 134.099 131.953 134.826 131.093V132.195H137.627ZM132.577 130.564C131.475 130.564 130.571 129.99 130.571 128.998C130.571 127.962 131.475 127.389 132.577 127.389C133.481 127.389 134.363 127.697 134.826 128.315V129.638C134.363 130.255 133.481 130.564 132.577 130.564ZM139.412 132.46C142.124 132.46 143.447 130.718 143.888 127.036L144.24 123.993H147.614V132.195H150.414V121.546H141.793L141.109 126.705C140.779 129.285 140.272 130.167 139.412 130.167V132.46ZM158.133 132.46C161.66 132.46 163.777 129.902 163.777 126.86C163.777 123.839 161.66 121.281 158.133 121.281C154.627 121.281 152.51 123.839 152.51 126.86C152.51 129.902 154.627 132.46 158.133 132.46ZM158.133 129.968C156.391 129.968 155.421 128.535 155.421 126.86C155.421 125.206 156.391 123.773 158.133 123.773C159.874 123.773 160.867 125.206 160.867 126.86C160.867 128.535 159.874 129.968 158.133 129.968ZM172.8 132.195C174.938 132.195 176.085 130.917 176.085 129.307C176.085 128.028 175.225 126.97 174.056 126.705C175.049 126.419 175.864 125.559 175.864 124.28C175.864 122.847 174.762 121.546 172.601 121.546H165.854V132.195H172.8ZM172.116 129.902H168.655V127.918H172.116C172.822 127.918 173.219 128.381 173.219 128.91C173.219 129.527 172.8 129.902 172.116 129.902ZM172.028 125.625H168.655V123.839H172.028C172.645 123.839 173.02 124.214 173.02 124.743C173.02 125.228 172.645 125.625 172.028 125.625ZM46.804 156.907H49.6262V154.195H56.1746V156.907H58.9748V151.748H57.8062V143.546H49.1853L48.5018 148.705C48.171 151.285 47.6639 151.704 46.804 151.858V156.907ZM51.6326 145.993H55.006V151.748H50.0672C50.7287 151.131 51.1476 150.182 51.3019 148.882L51.6326 145.993ZM59.7446 154.46C62.4565 154.46 63.7794 152.718 64.2204 149.036L64.5732 145.993H67.9466V154.195H70.7467V143.546H62.1258L61.4423 148.705C61.1116 151.285 60.6045 152.167 59.7446 152.167V154.46ZM76.3488 154.195L78.4434 150.535H80.6262V154.195H83.4263V143.546H76.9661C74.6069 143.546 73.284 145.155 73.284 147.03C73.284 148.926 74.4305 150.028 75.6432 150.337L73.1738 154.195H76.3488ZM77.4071 148.198C76.6133 148.198 76.1283 147.713 76.1283 147.03C76.1283 146.368 76.6354 145.905 77.4071 145.905H80.6262V148.198H77.4071ZM96.7458 151.968C95.004 151.968 94.0338 150.535 94.0338 148.815C94.0338 147.206 95.004 145.773 96.7458 145.773C98.4876 145.773 99.4798 147.206 99.4798 148.815C99.4798 150.535 98.4876 151.968 96.7458 151.968ZM96.7458 154.46C100.296 154.46 102.368 151.836 102.368 148.838C102.368 145.883 100.384 143.281 97.3411 143.281C95.8639 143.281 94.563 143.899 93.7031 145.023C93.9897 143.788 95.026 142.686 97.5395 142.355C99.2814 142.135 101.971 141.562 101.971 139.489H99.0609C99.0609 139.864 98.4435 140.128 96.6576 140.393C92.9976 140.878 91.1234 143.193 91.1234 148.375C91.1234 151.836 93.196 154.46 96.7458 154.46ZM104.532 143.546V154.195H110.97C113.352 154.195 114.674 152.586 114.674 150.69C114.674 148.815 113.44 147.206 110.97 147.206H107.332V143.546H104.532ZM110.551 149.543C111.345 149.543 111.808 150.028 111.808 150.69C111.808 151.351 111.345 151.836 110.551 151.836H107.332V149.543H110.551ZM118.886 154.195V143.546H116.063V154.195H118.886ZM126.611 154.46C128.794 154.46 130.116 153.512 130.822 152.52L128.992 150.822C128.485 151.527 127.713 151.968 126.743 151.968C125.045 151.968 123.855 150.712 123.855 148.86C123.855 147.008 125.045 145.773 126.743 145.773C127.713 145.773 128.485 146.17 128.992 146.919L130.822 145.2C130.116 144.229 128.794 143.281 126.611 143.281C123.326 143.281 120.966 145.596 120.966 148.86C120.966 152.145 123.326 154.46 126.611 154.46ZM137.437 154.195V145.993H140.414V143.546H131.638V145.993H134.615V154.195H137.437ZM148.255 154.46C150.989 154.46 152.973 152.409 152.973 148.86C152.973 145.31 150.989 143.281 148.255 143.281C146.954 143.281 145.785 143.855 144.97 144.891V143.546H142.17V158.252H144.97V152.828C145.83 153.931 146.998 154.46 148.255 154.46ZM147.373 151.968C146.469 151.968 145.433 151.417 144.97 150.756V146.985C145.433 146.302 146.469 145.773 147.373 145.773C148.982 145.773 150.063 147.03 150.063 148.86C150.063 150.712 148.982 151.968 147.373 151.968ZM159.963 154.46C163.491 154.46 165.607 151.902 165.607 148.86C165.607 145.839 163.491 143.281 159.963 143.281C156.457 143.281 154.34 145.839 154.34 148.86C154.34 151.902 156.457 154.46 159.963 154.46ZM159.963 151.968C158.221 151.968 157.251 150.535 157.251 148.86C157.251 147.206 158.221 145.773 159.963 145.773C161.705 145.773 162.697 147.206 162.697 148.86C162.697 150.535 161.705 151.968 159.963 151.968ZM175.909 143.546H167.685V154.195H170.485V145.993H175.909V143.546ZM182.636 154.46C186.163 154.46 188.28 151.902 188.28 148.86C188.28 145.839 186.163 143.281 182.636 143.281C179.13 143.281 177.013 145.839 177.013 148.86C177.013 151.902 179.13 154.46 182.636 154.46ZM182.636 151.968C180.894 151.968 179.924 150.535 179.924 148.86C179.924 147.206 180.894 145.773 182.636 145.773C184.377 145.773 185.37 147.206 185.37 148.86C185.37 150.535 184.377 151.968 182.636 151.968ZM87.7999 176.46C89.9827 176.46 91.3056 175.512 92.0112 174.52L90.1811 172.822C89.674 173.527 88.9023 173.968 87.9322 173.968C86.2345 173.968 85.0438 172.712 85.0438 170.86C85.0438 169.008 86.2345 167.773 87.9322 167.773C88.9023 167.773 89.674 168.17 90.1811 168.919L92.0112 167.2C91.3056 166.229 89.9827 165.281 87.7999 165.281C84.5147 165.281 82.1555 167.596 82.1555 170.86C82.1555 174.145 84.5147 176.46 87.7999 176.46ZM98.6262 176.195V167.993H101.603V165.546H92.8275V167.993H95.804V176.195H98.6262ZM112.553 176.195V169.316C112.553 166.251 110.326 165.281 107.901 165.281C106.225 165.281 104.549 165.811 103.248 166.957L104.307 168.831C105.211 167.993 106.269 167.574 107.416 167.574C108.827 167.574 109.753 168.28 109.753 169.36V170.793C109.047 169.956 107.79 169.493 106.379 169.493C104.682 169.493 102.675 170.441 102.675 172.932C102.675 175.313 104.682 176.46 106.379 176.46C107.768 176.46 109.025 175.953 109.753 175.093V176.195H112.553ZM107.504 174.564C106.401 174.564 105.497 173.99 105.497 172.998C105.497 171.962 106.401 171.389 107.504 171.389C108.408 171.389 109.29 171.697 109.753 172.315V173.638C109.29 174.255 108.408 174.564 107.504 174.564ZM121.416 176.46C124.15 176.46 126.134 174.409 126.134 170.86C126.134 167.31 124.15 165.281 121.416 165.281C120.115 165.281 118.946 165.855 118.13 166.891V165.546H115.33V180.252H118.13V174.828C118.99 175.931 120.159 176.46 121.416 176.46ZM120.534 173.968C119.63 173.968 118.593 173.417 118.13 172.756V168.985C118.593 168.302 119.63 167.773 120.534 167.773C122.143 167.773 123.224 169.03 123.224 170.86C123.224 172.712 122.143 173.968 120.534 173.968ZM132.969 176.195V167.993H135.946V165.546H127.17V167.993H130.147V176.195H132.969ZM146.896 176.195V169.316C146.896 166.251 144.669 165.281 142.244 165.281C140.568 165.281 138.892 165.811 137.591 166.957L138.65 168.831C139.554 167.993 140.612 167.574 141.759 167.574C143.17 167.574 144.096 168.28 144.096 169.36V170.793C143.39 169.956 142.133 169.493 140.722 169.493C139.025 169.493 137.018 170.441 137.018 172.932C137.018 175.313 139.025 176.46 140.722 176.46C142.111 176.46 143.368 175.953 144.096 175.093V176.195H146.896ZM141.847 174.564C140.744 174.564 139.84 173.99 139.84 172.998C139.84 171.962 140.744 171.389 141.847 171.389C142.751 171.389 143.633 171.697 144.096 172.315V173.638C143.633 174.255 142.751 174.564 141.847 174.564ZM152.341 171.411L152.782 161.489H149.409L149.872 171.411H152.341ZM151.106 176.416C152.077 176.416 152.892 175.6 152.892 174.652C152.892 173.682 152.077 172.866 151.106 172.866C150.136 172.866 149.343 173.682 149.343 174.652C149.343 175.6 150.136 176.416 151.106 176.416Z" fill="#5DC7D1"/>
<path d="M116.314 3.38325L131.837 20.2695L133.022 21.5587L134.576 20.7526L154.939 10.1938L163.75 31.3708L164.422 32.9876L166.159 32.7618L188.904 29.804L189.941 52.7175L190.02 54.4669L191.729 54.8486L214.115 59.8486L207.252 81.7349L206.728 83.4058L208.204 84.3491L227.529 96.7038L213.595 114.923L212.531 116.314L213.595 117.705L227.529 135.924L208.204 148.279L206.728 149.222L207.252 150.893L214.115 172.779L191.729 177.779L190.02 178.161L189.941 179.91L188.904 202.824L166.159 199.866L164.422 199.64L163.75 201.257L154.939 222.434L134.576 211.875L133.022 211.069L131.837 212.358L116.314 229.245L100.791 212.358L99.6061 211.069L98.0515 211.875L77.6894 222.434L68.8782 201.257L68.2055 199.64L66.469 199.866L43.7235 202.824L42.6866 179.91L42.6075 178.161L40.8985 177.779L18.5131 172.779L25.3757 150.893L25.8996 149.222L24.4242 148.279L5.09891 135.924L19.0332 117.705L20.097 116.314L19.0332 114.923L5.09892 96.7038L24.4242 84.3491L25.8996 83.4058L25.3757 81.7349L18.5131 59.8486L40.8985 54.8486L42.6075 54.4669L42.6866 52.7175L43.7235 29.804L66.469 32.7618L68.2055 32.9876L68.8782 31.3708L77.6894 10.1938L98.0515 20.7526L99.6061 21.5587L100.791 20.2695L116.314 3.38325Z" stroke="#5DC7D1" stroke-width="4.57929"/>
</svg>
