<svg width="189" height="328" viewBox="0 0 189 328" fill="none" xmlns="http://www.w3.org/2000/svg">
<path d="M98.8552 273.457C136.58 273.457 181.849 239.128 183.735 189.533C183.735 153.298 166.759 138.035 130.921 138.035H51.6995C51.6995 153.294 61.1306 183.812 98.8552 183.812C136.58 183.812 142.238 183.812 140.352 183.812C125.891 183.176 96.9689 191.441 96.9689 229.588" stroke="#223549" stroke-width="10.4514"/>
<path d="M99.1023 306.467V306.467C47.6833 306.467 5.99999 264.783 5.99999 213.364V199.822L5.99999 30.7024C5.99999 21.2022 11.7131 6 28.8524 6C45.9917 6 51.7048 15.5021 51.7048 30.7024L51.7048 139.004" stroke="#223549" stroke-width="10.4514"/>
<path d="M183.737 327.998L183.737 32.5435C183.737 22.9857 178.658 7.69141 163.423 7.69141C148.188 7.69141 143.11 17.2511 143.11 32.5435L143.11 138.698" stroke="#223549" stroke-width="10.4514"/>
<path d="M97.4056 141.421C97.4056 139.457 97.4056 131.206 97.4056 113.919C97.4056 88.3827 143.11 86.419 143.11 113.92" stroke="#223549" stroke-width="10.4514"/>
<path d="M97.4056 141.421C97.4056 139.457 97.4056 131.206 97.4056 113.919C97.4056 88.3827 51.7009 86.419 51.7009 113.92" stroke="#223549" stroke-width="10.4514"/>
</svg>
