<svg width="177" height="157" viewBox="0 0 177 157" fill="none" xmlns="http://www.w3.org/2000/svg">
<mask id="mask0" mask-type="alpha" maskUnits="userSpaceOnUse" x="0" y="0" width="177" height="157">
<rect width="177" height="157" fill="#C4C4C4"/>
</mask>
<g mask="url(#mask0)">
<path d="M136.056 82.5363C136.056 95.8683 125.208 106.717 111.875 106.717C98.5421 106.717 87.6944 95.8683 87.6944 82.5363C87.6944 69.2044 98.5421 58.3555 111.875 58.3555C125.208 58.3555 136.056 69.2044 136.056 82.5363ZM127.409 82.5363C127.409 73.9701 120.441 67.0027 111.875 67.0027C103.309 67.0027 96.3416 73.9701 96.3416 82.5363C96.3416 91.1026 103.309 98.0699 111.875 98.0699C120.441 98.0699 127.409 91.1026 127.409 82.5363Z" fill="#6A7EDA" stroke="#6A7EDA" stroke-width="1.28137"/>
<path d="M80.6208 97.9802C80.6208 108.878 71.7523 117.747 60.8529 117.747C49.9534 117.747 41.0849 108.878 41.0849 97.9802C41.0849 87.0795 49.9534 78.211 60.8529 78.211C71.7523 78.211 80.6208 87.0795 80.6208 97.9802ZM71.9736 97.9802C71.9736 91.8477 66.9855 86.8582 60.8529 86.8582C54.7202 86.8582 49.7321 91.8477 49.7321 97.9802C49.7321 104.113 54.7204 109.1 60.8529 109.1C66.9854 109.1 71.9736 104.113 71.9736 97.9802Z" fill="#6A7EDA" stroke="#6A7EDA" stroke-width="1.28137"/>
<path d="M146.7 120.902L146.934 121.122L147.249 121.067C148.599 120.832 149.952 120.684 151.313 120.684H174.48C187.509 120.684 198.11 131.283 198.11 144.312V156.358H156.554H132.009H72.1608H67.1965H25.6407V144.312C25.6407 131.283 36.2411 120.684 49.27 120.684H72.4372C73.8002 120.684 75.1533 120.832 76.5019 121.066L76.8173 121.121L77.0505 120.902C82.2711 115.991 89.2725 112.961 96.9823 112.961H126.768C134.478 112.961 141.48 115.992 146.7 120.902ZM34.2879 147.07V147.711H34.9286H67.1965H67.8372V147.07V142.106C67.8372 137.877 68.7627 133.866 70.3915 130.234L70.7962 129.331H69.8068H49.27C41.008 129.331 34.2879 136.051 34.2879 144.312V147.07ZM76.4844 147.07V147.711H77.1251H132.009H146.625H147.266V147.07V142.106C147.266 130.803 138.071 121.608 126.768 121.608H96.9823C85.6794 121.608 76.4844 130.803 76.4844 142.106V147.07ZM188.822 147.711H189.462V147.07V144.312C189.462 136.051 182.742 129.331 174.48 129.331H153.944H152.954L153.359 130.234C154.988 133.866 155.913 137.877 155.913 142.106V147.07V147.711H156.554H188.822Z" fill="#6A7EDA" stroke="#6A7EDA" stroke-width="1.28137"/>
<path d="M162.897 117.747C151.998 117.747 143.129 108.878 143.129 97.9802C143.129 87.0795 151.998 78.211 162.897 78.211C173.797 78.211 182.665 87.0795 182.665 97.9802C182.665 108.878 173.797 117.747 162.897 117.747ZM162.897 109.1C169.03 109.1 174.018 104.113 174.018 97.9802C174.018 91.8477 169.03 86.8582 162.897 86.8582C156.765 86.8582 151.777 91.8477 151.777 97.9802C151.777 104.113 156.765 109.1 162.897 109.1Z" fill="#6A7EDA" stroke="#6A7EDA" stroke-width="1.28137"/>
<path d="M168.617 45.884L168.617 45.884L163.351 51.1493L162.898 51.6023L162.445 51.1493L157.178 45.884L157.178 45.884C155.49 44.1951 152.753 44.195 151.064 45.8838C151.064 45.8839 151.064 45.8839 151.063 45.884M168.617 45.884L150.61 45.4309L151.063 45.884M168.617 45.884C170.306 44.1951 173.043 44.195 174.731 45.8838C176.42 47.573 176.419 50.3111 174.731 51.9975L174.73 51.9977L169.465 57.2626L169.012 57.7156L169.465 58.1687L174.73 63.4336L174.731 63.4338C176.419 65.1202 176.42 67.8583 174.731 69.5474C173.887 70.3919 172.781 70.814 171.674 70.814C170.566 70.814 169.461 70.392 168.617 69.5473L168.617 69.5473L163.351 64.2819L162.898 63.829L162.445 64.2819L157.178 69.5473L157.178 69.5473C156.334 70.392 155.229 70.814 154.122 70.814C153.014 70.814 151.908 70.3919 151.064 69.5474C149.376 67.8583 149.376 65.1202 151.064 63.4338L151.065 63.4336L156.33 58.1687L156.783 57.7156L156.33 57.2626L151.065 51.9977L151.064 51.9975C149.376 50.3111 149.376 47.5731 151.063 45.884M168.617 45.884H151.063" fill="#223549" stroke="#223549" stroke-width="1.28137"/>
<path d="M66.572 45.884L66.572 45.884L61.3059 51.1493L60.8529 51.6023L60.3999 51.1493L55.1338 45.884L55.1338 45.884C53.4448 44.1951 50.7079 44.195 49.0189 45.8838C49.0189 45.8839 49.0188 45.8839 49.0188 45.884M66.572 45.884L48.5658 45.4309L49.0188 45.884M66.572 45.884C68.2609 44.1951 70.9978 44.195 72.6868 45.8838C74.3749 47.573 74.3745 50.3111 72.686 51.9975L72.6858 51.9977L67.4201 57.2626L66.967 57.7156L67.4201 58.1687L72.6858 63.4336L72.686 63.4338C74.3745 65.1202 74.3749 67.8583 72.6868 69.5474C71.8422 70.3919 70.736 70.814 69.6289 70.814C68.5218 70.814 67.4167 70.392 66.572 69.5473L66.572 69.5473L61.3059 64.2819L60.8529 63.829L60.3999 64.2819L55.1338 69.5473L55.1338 69.5473C54.2891 70.392 53.1839 70.814 52.0769 70.814C50.9697 70.814 49.8635 70.3919 49.0189 69.5474C47.3308 67.8583 47.3312 65.1202 49.0197 63.4338L49.02 63.4336L54.2856 58.1687L54.7387 57.7156L54.2856 57.2626L49.02 51.9977L49.0197 51.9975C47.3313 50.3111 47.3308 47.5731 49.0188 45.884M66.572 45.884H49.0188" fill="#223549" stroke="#223549" stroke-width="1.28137"/>
<path d="M107.486 48.3605L107.486 48.3608C106.642 49.2051 105.536 49.6272 104.429 49.6272C103.322 49.6272 102.216 49.2051 101.372 48.3608L101.372 48.3605L93.9256 40.9141C92.2366 39.2251 92.2366 36.4893 93.9256 34.8003L93.9259 34.8C95.6124 33.1114 98.3526 33.1114 100.039 34.8L100.039 34.8003L103.976 38.7368L104.429 39.1899L104.882 38.7368L123.711 19.9074L123.712 19.9071C125.398 18.2185 128.138 18.2185 129.825 19.9071L129.825 19.9074C131.514 21.5964 131.514 24.3322 129.825 26.0212L107.486 48.3605Z" fill="#223549" stroke="#223549" stroke-width="1.28137"/>
</g>
</svg>
